#N canvas 1204 49 326 478 10;
#X obj 12 6 inlet;
#X obj 40 157 f;
#X obj 69 158 +;
#X obj 48 114 random 7;
#X obj 48 136 t b f;
#X obj 40 179 mod 5;
#X obj 193 17 inlet;
#X obj 111 71 f;
#X obj 111 93 sel 0;
#X obj 48 92 until;
#X obj 41 47 t b f b;
#X msg 45 389 bang;
#X obj 12 28 t b f;
#X obj 45 431 outlet;
#X msg 194 258 set;
#X msg 224 258 set bang;
#X obj 45 411 list prepend tr;
#X text 207 90 Be \; End \; Change \; Accel \; Disc \;;
#X obj 40 222 list \$1 \$2 \$3 \$4 \$5;
#X obj 40 244 list split 1;
#X obj 77 265 list split 1;
#X obj 40 201 t b f;
#X msg 77 300 add2 \$1;
#X connect 0 0 12 0;
#X connect 1 0 2 0;
#X connect 1 0 5 0;
#X connect 2 0 1 1;
#X connect 3 0 4 0;
#X connect 4 0 1 0;
#X connect 4 1 2 1;
#X connect 5 0 21 0;
#X connect 6 0 7 1;
#X connect 7 0 8 0;
#X connect 8 0 15 0;
#X connect 8 1 9 0;
#X connect 9 0 3 0;
#X connect 10 0 7 0;
#X connect 10 1 1 1;
#X connect 10 2 14 0;
#X connect 11 0 16 0;
#X connect 12 0 11 0;
#X connect 12 1 10 0;
#X connect 14 0 11 0;
#X connect 15 0 11 0;
#X connect 16 0 13 0;
#X connect 18 0 19 0;
#X connect 19 1 20 0;
#X connect 20 0 22 0;
#X connect 21 0 18 0;
#X connect 21 1 19 1;
#X connect 22 0 11 0;
