#N canvas 0 22 701 668 12;
#X obj 332 125 route 0 1 2 3 4 5 6 7 8 9;
#X obj 332 174 list;
#X obj 332 199 list;
#X obj 332 224 list;
#X obj 332 249 list;
#X obj 332 274 list;
#X obj 332 299 list;
#X obj 332 324 list;
#X obj 332 349 list;
#X obj 332 374 list;
#X obj 332 150 list;
#X obj 278 75 t a a;
#X obj 140 101 unpack f f f f;
#X obj 251 162 atan2;
#X obj 244 276 line;
#X obj 29 303 scale 1;
#X obj 29 366 pix_texture;
#X obj 29 407 curve;
#X obj 29 161 alpha;
#X obj 252 193 * 180;
#X obj 29 327 rotateXYZ;
#N canvas 0 22 450 300 pos 0;
#X obj 18 210 list prepend all;
#X obj 18 235 list trim;
#X obj 18 260 outlet;
#X obj 21 3 inlet;
#X obj 21 28 sel 0 1 2 3 4 5, f 7;
#X msg 98 64 set \, adddollar 1 \, adddollar 2 \, adddollar 3;
#X msg 98 84 set \, adddollar 1 \, adddollar 3 \, adddollar 2;
#X msg 98 104 set \, adddollar 2 \, adddollar 1 \, adddollar 3;
#X msg 98 125 set \, adddollar 2 \, adddollar 3 \, adddollar 1;
#X msg 98 144 set \, adddollar 3 \, adddollar 1 \, adddollar 2;
#X msg 98 164 set \, adddollar 3 \, adddollar 2 \, adddollar 1;
#X obj 164 20 loadbang;
#X connect 0 0 1 0;
#X connect 1 0 2 0;
#X connect 3 0 4 0;
#X connect 4 0 5 0;
#X connect 4 1 6 0;
#X connect 4 2 7 0;
#X connect 4 3 8 0;
#X connect 4 4 9 0;
#X connect 4 5 10 0;
#X connect 5 0 0 0;
#X connect 6 0 0 0;
#X connect 7 0 0 0;
#X connect 8 0 0 0;
#X connect 9 0 0 0;
#X connect 10 0 0 0;
#X connect 11 0 10 0;
#X restore 472 93 pd pos;
#X obj 471 73 hradio 15 1 0 6 empty empty empty 0 -8 0 10 -262144 -1
-1 5;
#X obj 120 136 ftom;
#X msg 141 307 width \$1;
#X obj 79 61 timer;
#X obj 79 34 t b b;
#X obj 150 276 line;
#X obj 180 124 rmstodb;
#X obj 180 149 / 100;
#X obj 205 202 line;
#X obj 120 186 min 10;
#X obj 113 215 max 0.01;
#X obj 29 186 colorRGB;
#X obj 120 161 / 100;
#X msg 358 75 all 4 8 4;
#X obj 247 338 line;
#X msg 247 313 0 \, 1 \$1;
#X obj 194 230 * 2;
#X obj 277 227 * 2;
#X obj 29 223 translateXYZ;
#X msg 438 390 draw line;
#X msg 438 345 draw fill;
#X msg 438 367 draw point;
#X msg 438 410 draw linestrip;
#X floatatom 569 375 5 0 100 0 - - -, f 5;
#X msg 580 404 res \$1;
#X obj 415 553 t a;
#X obj 113 459 crand -3 3;
#X obj 93 557 sel;
#X obj 90 527 fd_sum;
#X obj 97 431 t b b b f;
#X msg 117 608 \$2 \, \$1 \$3;
#X obj 117 633 line;
#X obj 227 555 sel;
#X obj 224 525 fd_sum;
#X obj 231 429 t b b b f;
#X msg 251 606 \$2 \, \$1 \$3;
#X obj 251 631 line;
#X obj 247 457 crand -4 0;
#X obj 223 491 crand 0 4;
#X obj 89 493 crand 0 4;
#X obj 570 298 r res;
#X obj 570 323 max 1;
#X obj 570 348 min 100;
#X obj 463 257 r shape;
#X obj 463 282 sel 0 1 2 3;
#X obj 154 30 route 0;
#X obj 162 62 t a b;
#X obj 367 8 inlet;
#X obj 266 37 route sig shape res pos;
#X obj 332 100 clone _cpoint 10;
#X obj 541 218 list prepend all;
#X obj 541 243 list trim;
#X obj 29 136 gemhead 4;
#X obj 546 482 loadbang;
#X msg 546 507 100;
#X obj 117 583 pack 0 2 10;
#X obj 251 581 pack 0 2 10;
#X obj 143 251 pack 0.01 10;
#X obj 247 253 pack 13 120;
#X obj 180 174 pack 0.5 20;
#X obj 423 301 change;
#X obj 423 276 f 1;
#X obj 16 41 del;
#X msg 24 108 0 \$1;
#X obj 17 74 crand 20 1000;
#X obj 19 12 * 5;
#X obj 588 6 inlet metro;
#X connect 0 0 10 0;
#X connect 0 1 1 1;
#X connect 0 2 2 1;
#X connect 0 3 3 1;
#X connect 0 4 4 1;
#X connect 0 5 5 1;
#X connect 0 6 6 1;
#X connect 0 7 7 1;
#X connect 0 8 8 1;
#X connect 0 9 9 1;
#X connect 1 0 2 0;
#X connect 2 0 3 0;
#X connect 3 0 4 0;
#X connect 4 0 5 0;
#X connect 5 0 6 0;
#X connect 6 0 7 0;
#X connect 7 0 8 0;
#X connect 8 0 9 0;
#X connect 9 0 17 0;
#X connect 10 0 1 0;
#X connect 11 0 67 0;
#X connect 11 1 71 0;
#X connect 12 0 23 0;
#X connect 12 1 28 0;
#X connect 12 2 13 0;
#X connect 12 3 13 1;
#X connect 13 0 19 0;
#X connect 14 0 20 3;
#X connect 15 0 20 0;
#X connect 16 0 17 0;
#X connect 18 0 33 0;
#X connect 19 0 80 0;
#X connect 20 0 16 0;
#X connect 21 0 71 2;
#X connect 22 0 21 0;
#X connect 23 0 34 0;
#X connect 24 0 17 0;
#X connect 25 0 37 0;
#X connect 25 0 38 0;
#X connect 25 0 39 0;
#X connect 25 0 56 0;
#X connect 25 0 51 0;
#X connect 25 0 81 1;
#X connect 25 0 87 0;
#X connect 26 0 25 0;
#X connect 26 1 25 1;
#X connect 27 0 24 0;
#X connect 28 0 29 0;
#X connect 29 0 81 0;
#X connect 30 0 33 4;
#X connect 31 0 32 0;
#X connect 32 0 79 0;
#X connect 33 0 40 0;
#X connect 34 0 31 0;
#X connect 35 0 71 1;
#X connect 36 0 15 1;
#X connect 37 0 36 0;
#X connect 38 0 79 1;
#X connect 39 0 80 1;
#X connect 40 0 15 0;
#X connect 41 0 47 0;
#X connect 42 0 47 0;
#X connect 43 0 47 0;
#X connect 44 0 47 0;
#X connect 45 0 46 0;
#X connect 46 0 47 0;
#X connect 47 0 17 0;
#X connect 48 0 50 0;
#X connect 48 0 77 1;
#X connect 49 1 77 0;
#X connect 50 0 49 0;
#X connect 51 0 61 0;
#X connect 51 1 48 0;
#X connect 51 2 50 1;
#X connect 51 3 77 2;
#X connect 52 0 53 0;
#X connect 53 0 40 1;
#X connect 54 1 78 0;
#X connect 55 0 54 0;
#X connect 56 0 60 0;
#X connect 56 1 59 0;
#X connect 56 2 55 1;
#X connect 56 3 78 2;
#X connect 57 0 58 0;
#X connect 58 0 40 2;
#X connect 59 0 55 0;
#X connect 59 0 78 1;
#X connect 60 0 55 0;
#X connect 61 0 50 0;
#X connect 62 0 63 0;
#X connect 63 0 64 0;
#X connect 64 0 45 0;
#X connect 65 0 66 0;
#X connect 66 0 42 0;
#X connect 66 1 43 0;
#X connect 66 2 41 0;
#X connect 66 3 44 0;
#X connect 67 0 68 0;
#X connect 68 0 12 0;
#X connect 68 1 26 0;
#X connect 68 1 83 0;
#X connect 69 0 70 0;
#X connect 70 0 11 0;
#X connect 70 1 83 1;
#X connect 70 2 63 0;
#X connect 70 3 22 0;
#X connect 70 4 25 0;
#X connect 70 4 72 0;
#X connect 71 0 0 0;
#X connect 72 0 73 0;
#X connect 74 0 18 0;
#X connect 75 0 76 0;
#X connect 75 0 43 0;
#X connect 76 0 46 0;
#X connect 77 0 52 0;
#X connect 78 0 57 0;
#X connect 79 0 27 0;
#X connect 80 0 14 0;
#X connect 81 0 30 0;
#X connect 82 0 66 0;
#X connect 83 0 82 0;
#X connect 84 0 86 0;
#X connect 85 0 30 0;
#X connect 86 0 85 0;
#X connect 87 0 84 0;
#X connect 88 0 74 0;
