#N canvas 0 22 376 527 12;
#X obj 38 219 t a b;
#X obj 38 333 spigot;
#X obj 83 248 crand -0.5 0.5;
#X obj 83 273 fd_gauss 0.5 0.01;
#X obj 83 298 >= 0.1;
#X msg 70 138 rand \$1 \, reset;
#X obj 70 111 crand 10 132;
#X obj 38 79 t b b a, f 23;
#X obj 40 425 list, f 26;
#X obj 38 25 inlet;
#X obj 264 40 inlet;
#X obj 40 450 outlet;
#X obj 251 242 list;
#X msg 252 197 \$1 msec to:;
#X msg 166 180 done;
#X obj 258 88 r ngrains;
#X obj 258 113 minimax;
#X obj 278 277 r monitor;
#X obj 262 308 spigot 1;
#X obj 260 350 print _gaussianV-\$1, f 9;
#X obj 273 150 * 50;
#X obj 38 174 fd_delit 50 50;
#X connect 0 0 1 0;
#X connect 0 1 2 0;
#X connect 1 0 8 0;
#X connect 2 0 3 0;
#X connect 3 0 4 0;
#X connect 4 0 1 1;
#X connect 6 0 5 0;
#X connect 6 0 20 0;
#X connect 7 0 21 0;
#X connect 7 1 6 0;
#X connect 7 2 8 1;
#X connect 7 2 12 1;
#X connect 8 0 11 0;
#X connect 9 0 7 0;
#X connect 10 0 6 0;
#X connect 12 0 18 0;
#X connect 13 0 12 0;
#X connect 14 0 18 0;
#X connect 15 0 16 0;
#X connect 16 2 20 1;
#X connect 17 0 18 1;
#X connect 18 0 19 0;
#X connect 20 0 13 0;
#X connect 21 0 0 0;
#X connect 21 1 14 0;
