#N canvas 629 118 451 434 12;
#X obj 124 128 list prepend all, f 12;
#X obj 124 166 list trim;
#X obj 214 22 inlet parameters, f 10;
#X obj 35 25 inlet dur, f 5;
#X obj 304 22 inlet switch, f 6;
#X obj 153 22 inlet sigmund, f 7;
#X obj 35 383 clone _gr \$2 \$3, f 34;
#X obj 124 104 list;
#X obj 313 255 route \$1, f 5;
#X obj 35 281 - 1;
#X obj 35 171 makenote 1 10, f 8;
#X obj 35 226 pack;
#X obj 35 306 pack;
#X obj 35 331 spigot 1;
#X obj 95 229 r steal;
#X obj 35 256 poly 5 0;
#X obj 282 175 s to-video-pd;
#X obj 363 23 inlet;
#X obj 282 121 list;
#X obj 35 64 t f f b b, f 18;
#X obj 282 150 list prepend b\$4 \$1;
#X connect 0 0 1 0;
#X connect 1 0 6 1;
#X connect 2 0 6 2;
#X connect 3 0 19 0;
#X connect 4 0 6 3;
#X connect 5 0 7 1;
#X connect 6 0 8 0;
#X connect 7 0 0 0;
#X connect 8 0 10 2;
#X connect 9 0 12 0;
#X connect 10 0 11 0;
#X connect 10 1 11 1;
#X connect 11 0 15 0;
#X connect 12 0 13 0;
#X connect 13 0 6 0;
#X connect 14 0 15 1;
#X connect 15 0 9 0;
#X connect 15 2 13 1;
#X connect 17 0 18 1;
#X connect 18 0 20 0;
#X connect 19 0 10 0;
#X connect 19 1 12 1;
#X connect 19 2 7 0;
#X connect 19 3 18 0;
#X connect 20 0 16 0;
