#N canvas 546 47 584 673 12;
#X obj 51 477 *~;
#X obj 18 477 *~;
#X obj 18 499 -~;
#X obj 167 475 *~;
#X obj 136 475 *~;
#X obj 136 497 +~;
#X obj 109 193 *~;
#X obj 78 193 *~;
#X obj 50 193 *~;
#X obj 19 193 *~;
#X obj 19 218 +~;
#X obj 127 379 *~;
#X obj 238 430 rfft~;
#X obj 108 161 rfft~;
#X obj 21 612 outlet~;
#X obj 97 379 *~;
#X obj 124 218 -~;
#X obj 18 431 *~;
#X obj 51 432 *~;
#X obj 19 349 +~ 1e-15;
#N canvas 0 22 1005 760 read-windows 0;
#X obj 18 693 *~;
#X obj 166 303 f;
#X obj 102 139 /;
#X obj 195 695 *~;
#X obj 166 252 bang~;
#X obj 17 551 line~;
#X obj 102 164 * 1000;
#X obj 208 305 +;
#X obj 288 275 *;
#X text 198 371 reading location (samples);
#X obj 51 597 / 4;
#X obj 288 245 * 0.01;
#X floatatom 345 501 7 0 0 0 - - -, f 7;
#X obj 340 474 *;
#X obj 690 375 + 69;
#X obj 691 396 mtof;
#X obj 691 418 / 440;
#X obj 375 474 t b f;
#X obj 19 719 outlet~;
#X obj 195 720 outlet~;
#X text 603 457 stretched window size (samples);
#X obj 102 115 t f b;
#X obj 142 139 samplerate~;
#X obj 102 208 / 4;
#X obj 203 420 / 2;
#X obj 166 420 -;
#X text 239 417 back up 1/2 window;
#X obj 16 597 -~;
#X obj 528 720 * -0.5;
#X text 81 600 "back" window 1/4 cycle behind "front" one;
#X text 137 205 computation period (msec) for overlap of 4;
#X text 164 186 msec in a window;
#X obj 528 666 /;
#X obj 528 691 * 1000;
#X obj 528 642 t f b;
#X obj 568 666 samplerate~;
#X obj 528 619 f;
#X text 326 275 loop to precess the location according;
#X text 325 291 to the "speed" parameter.;
#X text 762 162 setting location by hand;
#X text 766 174 sets speed to zero.;
#X text 496 527 "rewind" control takes us;
#X text 499 545 to a location depending on;
#X text 499 564 stretched window size.;
#X obj 16 469 f;
#X obj 17 496 pack;
#X obj 15 440 b;
#X msg 17 523 0 \, \$1 \$2;
#X obj 166 394 * 44.1;
#X obj 218 664 tabreceive~ 0-han, f 12;
#X obj 247 12 inlet;
#X msg 704 41 location \$1;
#X floatatom 112 189 5 0 0 0 - - -, f 5;
#X floatatom 460 682 5 0 0 0 - - -, f 5;
#X floatatom 691 443 5 0 0 0 - - -, f 5;
#X obj 265 100 route location speed auto rewind transpo, f 44;
#X obj 881 258 outlet;
#X obj 129 31 loadbang;
#X msg 275 138 0;
#X msg 758 271 0.1;
#X floatatom 308 126 5 0 0 0 - - -, f 5;
#X obj 361 136 t f b;
#X obj 323 672 r pvocwin-\$1;
#X msg 129 56 16384;
#X obj 717 310 * 0.01;
#X obj 17 637 tabread4~ \$2-fft;
#X obj 194 637 tabread4~ \$2-fft;
#X connect 0 0 18 0;
#X connect 1 0 7 0;
#X connect 1 0 48 0;
#X connect 2 0 6 0;
#X connect 3 0 19 0;
#X connect 4 0 1 0;
#X connect 5 0 27 0;
#X connect 5 0 66 0;
#X connect 6 0 23 0;
#X connect 6 0 52 0;
#X connect 7 0 1 1;
#X connect 8 0 7 1;
#X connect 10 0 27 1;
#X connect 11 0 8 0;
#X connect 13 0 12 0;
#X connect 13 0 36 1;
#X connect 13 0 10 0;
#X connect 13 0 44 1;
#X connect 13 0 24 0;
#X connect 14 0 15 0;
#X connect 15 0 16 0;
#X connect 16 0 17 0;
#X connect 16 0 54 0;
#X connect 17 0 13 0;
#X connect 17 1 13 1;
#X connect 21 0 2 0;
#X connect 21 1 22 0;
#X connect 22 0 2 1;
#X connect 23 0 8 1;
#X connect 23 0 45 1;
#X connect 24 0 25 1;
#X connect 25 0 46 0;
#X connect 25 0 65 1;
#X connect 25 0 66 1;
#X connect 27 0 65 0;
#X connect 28 0 51 0;
#X connect 28 0 53 0;
#X connect 32 0 33 0;
#X connect 33 0 28 0;
#X connect 34 0 32 0;
#X connect 34 1 35 0;
#X connect 35 0 32 1;
#X connect 36 0 34 0;
#X connect 44 0 45 0;
#X connect 45 0 47 0;
#X connect 46 0 44 0;
#X connect 47 0 5 0;
#X connect 48 0 25 0;
#X connect 49 0 3 1;
#X connect 49 0 0 1;
#X connect 50 0 55 0;
#X connect 51 0 55 0;
#X connect 55 0 1 1;
#X connect 55 0 58 0;
#X connect 55 0 60 0;
#X connect 55 1 11 0;
#X connect 55 2 61 0;
#X connect 55 3 36 0;
#X connect 55 4 64 0;
#X connect 55 5 56 0;
#X connect 57 0 63 0;
#X connect 58 0 11 0;
#X connect 59 0 64 1;
#X connect 61 0 11 0;
#X connect 61 1 36 0;
#X connect 62 0 49 0;
#X connect 63 0 21 0;
#X connect 63 0 13 0;
#X connect 64 0 14 0;
#X connect 65 0 0 0;
#X connect 66 0 3 0;
#X restore 305 84 pd read-windows;
#X obj 121 69 *~;
#X obj 89 69 *~;
#X obj 159 71 +~ 1e-20;
#X obj 73 119 *~;
#X obj 19 118 *~;
#X obj 29 245 lrshift~ 1;
#X obj 24 269 lrshift~ -1;
#X obj 141 245 lrshift~ 1;
#X obj 133 269 lrshift~ -1;
#X obj 35 300 *~;
#X obj 159 312 *~;
#X obj 19 325 +~;
#X obj 125 331 +~;
#X obj 310 15 inlet;
#X obj 310 40 t a a;
#X obj 235 286 route lock;
#X obj 97 425 rsqrt~;
#X obj 159 94 rsqrt~;
#X obj 20 8 tabreceive~ \$0-prev-real;
#X obj 175 570 tabsend~ \$0-prev-real;
#X obj 73 29 tabreceive~ \$0-prev-imag;
#X obj 221 543 tabsend~ \$0-prev-imag;
#X floatatom 220 325 5 0 0 0 - - -, f 5;
#X obj 421 227 outlet;
#X obj 445 62 array define \$0-prev-real 16384;
#X f 12;
#X obj 444 123 array define \$0-prev-imag 16384;
#X f 12;
#X obj 443 29 block~ 16384 4;
#X obj 104 605 outlet~;
#X connect 0 0 2 1;
#X connect 1 0 2 0;
#X connect 2 0 40 0;
#X connect 2 0 14 0;
#X connect 3 0 5 1;
#X connect 4 0 5 0;
#X connect 5 0 42 0;
#X connect 5 0 48 0;
#X connect 6 0 16 1;
#X connect 7 0 16 0;
#X connect 8 0 10 1;
#X connect 9 0 10 0;
#X connect 10 0 27 0;
#X connect 10 0 26 0;
#X connect 10 0 32 0;
#X connect 11 0 37 0;
#X connect 12 0 1 1;
#X connect 12 0 3 1;
#X connect 12 1 0 1;
#X connect 12 1 4 1;
#X connect 13 0 9 1;
#X connect 13 0 7 1;
#X connect 13 1 6 1;
#X connect 13 1 8 1;
#X connect 15 0 37 0;
#X connect 16 0 28 0;
#X connect 16 0 29 0;
#X connect 16 0 33 0;
#X connect 17 0 1 0;
#X connect 17 0 4 0;
#X connect 18 0 0 0;
#X connect 18 0 3 0;
#X connect 19 0 15 1;
#X connect 19 0 15 0;
#X connect 19 0 17 0;
#X connect 20 0 13 0;
#X connect 20 1 12 0;
#X connect 20 2 44 0;
#X connect 21 0 23 0;
#X connect 22 0 23 0;
#X connect 23 0 38 0;
#X connect 24 0 8 0;
#X connect 24 0 7 0;
#X connect 25 0 9 0;
#X connect 25 0 6 0;
#X connect 26 0 30 0;
#X connect 27 0 30 0;
#X connect 28 0 31 0;
#X connect 29 0 31 0;
#X connect 30 0 32 1;
#X connect 31 0 33 1;
#X connect 32 0 19 0;
#X connect 33 0 11 0;
#X connect 33 0 11 1;
#X connect 33 0 18 0;
#X connect 34 0 35 0;
#X connect 35 0 20 0;
#X connect 35 1 36 0;
#X connect 36 0 30 1;
#X connect 36 0 31 1;
#X connect 36 0 43 0;
#X connect 37 0 17 1;
#X connect 37 0 18 1;
#X connect 38 0 24 1;
#X connect 38 0 25 1;
#X connect 39 0 22 1;
#X connect 39 0 22 0;
#X connect 39 0 25 0;
#X connect 41 0 21 1;
#X connect 41 0 21 0;
#X connect 41 0 24 0;
