#N canvas 0 22 450 300 10;
#X obj 154 88 random 5000;
#X obj 154 110 - 2500;
#X obj 154 132 / 1000;
#X obj 154 154 + 10;
#X obj 234 132 / 1000;
#X obj 234 154 + 28;
#X obj 234 88 random 20000;
#X obj 234 110 - 10000;
#X obj 123 33 inlet;
#X obj 249 238 outlet;
#X msg 154 176 inita \$1;
#X msg 234 176 initb \$1;
#X msg 318 175 initc \$1;
#X obj 318 153 + 2.6;
#X obj 127 58 t b b b, f 29;
#X obj 318 131 / 5000;
#X obj 318 87 random 1000;
#X obj 318 109 - 500;
#X connect 0 0 1 0;
#X connect 1 0 2 0;
#X connect 2 0 3 0;
#X connect 3 0 10 0;
#X connect 4 0 5 0;
#X connect 5 0 11 0;
#X connect 6 0 7 0;
#X connect 7 0 4 0;
#X connect 8 0 14 0;
#X connect 10 0 9 0;
#X connect 11 0 9 0;
#X connect 12 0 9 0;
#X connect 13 0 12 0;
#X connect 14 0 0 0;
#X connect 14 1 6 0;
#X connect 14 2 16 0;
#X connect 15 0 13 0;
#X connect 16 0 17 0;
#X connect 17 0 15 0;
