#N canvas 169 0 944 673 12;
#X obj 20 20 cnv 15 120 150 empty empty timbrestampGui 8 8 0 10 -228856
-1 0;
#X obj 111 23 tgl 15 0 empty empty sw 17 7 0 10 -262144 -1 -1 0 1;
#X obj 182 453 list prepend assign, f 12;
#X msg 291 46 switch \$1;
#X obj 20 20 bng 8 250 50 0 \$0 \$0- empty 17 7 0 8 -262144 -1 -1;
#X obj 580 62 fd_visera 1;
#X obj 283 14 bng 10 250 50 0 empty empty empty 17 7 0 10 -258113 -1
-1;
#X msg 188 15 0;
#X obj 24 47 bng 15 250 50 0 empty empty empty 17 7 0 10 -262144 -1
-1;
#X obj 119 566 t f b;
#X obj 29 613 pack;
#X obj 553 320 metro 1000;
#X obj 553 345 t b b;
#X obj 587 374 random 2000;
#X obj 587 399 + 20000;
#X msg 580 37 timbrestamp;
#X msg 113 177 squelch \$1;
#X obj 346 459 s timbrestamp;
#X obj 496 424 list trim;
#X obj 22 153 nbx 2 14 0 16 0 0 empty empty 0-exp 0 -8 0 10 -262144
-1 -1 0 256;
#X msg 463 150 q \$1;
#X msg 463 170 tab \$1;
#X obj 59 153 hsl 75 15 0.001 1 1 0 empty empty q:0.003 0 8 0 10 -262144
-1 -1 0 1;
#X msg 459 121 label q:\$1;
#X obj 567 155 fd_round 0.1 1000;
#X obj 576 182 _seltab;
#X msg 576 207 label \$1;
#X obj 47 40 fd_6x6;
#X obj 60 134 hsl 75 15 1 500 0 0 empty empty squelch 2 8 0 10 -262144
-1 -1 0 1;
#X msg 170 125 label sq:\$1;
#X obj 187 65 loadbang;
#X msg 187 90 label squelch;
#X obj 24 67 vradio 15 1 0 4 empty empty empty 0 -8 0 10 -262144 -1
-1 3;
#X msg 117 540 0 \, 1 \, 2 \, 3 \, 4 \, 5;
#X msg 56 264 6;
#X obj 56 289 fd_iterate;
#X msg 56 314 \$1 \$1;
#X msg 152 263 6;
#X obj 72 209 sel 0 1 2 3;
#X obj 152 288 fd_iterate;
#X obj 152 313 t f f;
#X obj 205 340 -;
#X obj 152 338 pack;
#X msg 205 315 5 \$1;
#X msg 260 205 6;
#X obj 260 230 fd_iterate;
#X obj 260 255 t f f;
#X obj 261 331 pack;
#X obj 304 322 mod 6;
#X obj 299 269 + 3;
#X obj 299 294 * 1;
#X msg 224 178 0 3 \, 1 2 \, 2 5 \, 3 4 \, 4 0 \, 5 1;
#X msg 183 360 0 set adc-\$1 \, 1 set adc-\$2 \, 2 set adc-\$3 \, 3
set adc-\$4 \, 4 set adc-\$5 \, 5 set adc-\$6, f 20;
#X obj 385 45 r toggle-4;
#X obj 685 196 r fader-6;
#X obj 685 221 / 127;
#X obj 689 253 * 17;
#X obj 689 278 int;
#X obj 53 338 random 4;
#X obj 185 579 random 6;
#X obj 55 478 random 10;
#X obj 133 505 bang;
#X obj 77 434 random 4;
#X obj 55 503 moses 3;
#X obj 82 403 bang;
#X obj 782 322 r knob-0;
#X obj 782 347 / 127;
#X obj 782 372 * 500;
#X obj 715 438 mtof;
#X obj 715 463 / 16384;
#X obj 715 413 r knob-1;
#X obj 721 18 sel 0 1;
#X msg 721 68 color \$1 22 22;
#X msg 721 43 0;
#X msg 754 43 16;
#X connect 1 0 3 0;
#X connect 1 0 11 0;
#X connect 1 0 71 0;
#X connect 2 0 18 0;
#X connect 3 0 18 0;
#X connect 4 0 15 0;
#X connect 6 0 7 0;
#X connect 7 0 1 0;
#X connect 8 0 60 0;
#X connect 9 0 10 0;
#X connect 9 1 59 0;
#X connect 10 0 27 0;
#X connect 11 0 12 0;
#X connect 12 0 8 0;
#X connect 12 1 13 0;
#X connect 13 0 14 0;
#X connect 14 0 11 1;
#X connect 15 0 5 0;
#X connect 16 0 18 0;
#X connect 18 0 17 0;
#X connect 19 0 21 0;
#X connect 19 0 25 0;
#X connect 22 0 20 0;
#X connect 22 0 24 0;
#X connect 23 0 22 0;
#X connect 24 0 23 0;
#X connect 25 0 26 0;
#X connect 26 0 19 0;
#X connect 27 0 52 0;
#X connect 28 0 16 0;
#X connect 28 0 29 0;
#X connect 29 0 28 0;
#X connect 30 0 31 0;
#X connect 31 0 28 0;
#X connect 32 0 38 0;
#X connect 33 0 9 0;
#X connect 34 0 35 0;
#X connect 35 0 36 0;
#X connect 36 0 27 0;
#X connect 37 0 39 0;
#X connect 38 0 34 0;
#X connect 38 1 37 0;
#X connect 38 2 44 0;
#X connect 38 3 51 0;
#X connect 39 0 40 0;
#X connect 40 0 42 0;
#X connect 40 1 43 0;
#X connect 41 0 42 1;
#X connect 42 0 27 0;
#X connect 43 0 41 0;
#X connect 44 0 45 0;
#X connect 45 0 46 0;
#X connect 46 0 47 0;
#X connect 46 1 49 0;
#X connect 47 0 27 0;
#X connect 48 0 47 1;
#X connect 49 0 50 0;
#X connect 50 0 48 0;
#X connect 51 0 27 0;
#X connect 52 0 2 0;
#X connect 53 0 1 0;
#X connect 54 0 55 0;
#X connect 55 0 56 0;
#X connect 56 0 57 0;
#X connect 57 0 19 0;
#X connect 58 0 32 0;
#X connect 59 0 10 1;
#X connect 60 0 63 0;
#X connect 61 0 33 0;
#X connect 62 0 32 0;
#X connect 63 0 64 0;
#X connect 63 1 61 0;
#X connect 64 0 62 0;
#X connect 65 0 66 0;
#X connect 66 0 67 0;
#X connect 67 0 28 0;
#X connect 68 0 69 0;
#X connect 69 0 22 0;
#X connect 70 0 68 0;
#X connect 71 0 73 0;
#X connect 71 1 74 0;
#X connect 72 0 1 0;
#X connect 73 0 72 0;
#X connect 74 0 72 0;
#X coords 0 -1 1 1 120 150 2 20 20;
