#N canvas 395 110 580 502 10;
#X declare -path ~/Documents/fd_lib;
#X obj 124 133 sel 0 1 2, f 10;
#N canvas 90 22 502 411 complex-event 0;
#X obj 40 15 inlet;
#X obj 297 341 outlet;
#X obj 39 92 sel 0 1 2;
#X obj 38 49 random 3;
#X obj 31 337 outlet;
#X obj 39 120 random 100;
#X obj 39 142 < 2;
#N canvas 209 32 300 458 tremolo 0;
#X obj 36 10 inlet;
#X obj 42 148 random 100;
#X obj 42 171 fd_gauss 50 5 0.02;
#X obj 40 104 / 10;
#X obj 40 126 t b f;
#X obj 45 374 list prepend -pit;
#X obj 45 396 list append -nhs 0;
#X obj 45 440 outlet;
#X obj 77 38 r \$0-en;
#X obj 40 82 f;
#X obj 47 288 * 23;
#X obj 45 418 list append -trm 32;
#X obj 46 310 + \$3;
#X obj 46 332 max \$3;
#X obj 46 354 min \$2;
#X obj 42 216 fd_round 0.5 10;
#X connect 0 0 9 0;
#X connect 1 0 2 0;
#X connect 2 0 15 0;
#X connect 3 0 4 0;
#X connect 4 0 1 0;
#X connect 4 1 2 2;
#X connect 5 0 6 0;
#X connect 6 0 11 0;
#X connect 8 0 9 1;
#X connect 9 0 3 0;
#X connect 10 0 12 0;
#X connect 11 0 7 0;
#X connect 12 0 13 0;
#X connect 13 0 14 0;
#X connect 14 0 5 0;
#X connect 15 0 10 0;
#X restore 143 170 pd tremolo;
#X obj 37 170 _trino \$2 \$3 \$4;
#X obj 219 171 _scales \$2 \$3;
#X obj 314 113 r \$0-en;
#X connect 0 0 3 0;
#X connect 2 0 5 0;
#X connect 2 1 7 0;
#X connect 2 2 9 0;
#X connect 3 0 2 0;
#X connect 5 0 6 0;
#X connect 6 0 8 0;
#X connect 7 0 4 0;
#X connect 8 0 4 0;
#X connect 8 1 1 0;
#X connect 9 0 4 0;
#X connect 9 1 1 0;
#X connect 10 0 9 1;
#X restore 242 176 pd complex-event;
#N canvas 376 22 867 700 simple-event 0;
#X obj 193 278 random 100;
#X obj 193 301 fd_gauss 50 5 0.02;
#X obj 90 176 list prepend -nhs;
#X obj 142 147 t a a;
#X obj 329 539 list prepend -pit;
#X obj 266 623 list prepend;
#X obj 357 589 list append;
#X obj 631 365 list prepend -txt;
#X msg 780 363 bang;
#X obj 240 214 / 10;
#X obj 243 238 t b f f;
#X obj 313 289 / 10;
#X obj 315 312 * 3;
#X obj 153 28 inlet;
#X obj 266 645 outlet;
#X text 35 200 notehead information;
#X text 249 454 range;
#X text 367 471 maxima;
#X obj 286 190 r \$0-en;
#X obj 240 192 f;
#X obj 311 102 t b b b;
#X msg 684 222 symbol pizz.;
#X obj 151 50 random 100;
#X obj 151 94 b;
#X msg 151 116 1;
#X obj 187 93 b;
#X msg 187 115 0;
#X msg 495 306 12;
#X msg 533 302 0;
#X obj 305 29 sel 1 0, f 14;
#X obj 528 21 random 100;
#X obj 528 43 moses 20;
#X obj 528 65 b;
#X obj 564 64 b;
#X obj 151 72 moses 14;
#X text 289 77 harmonics;
#X text 494 87 arco;
#X text 612 83 pizz;
#X obj 731 191 fd_once;
#X obj 595 213 fd_once;
#X obj 500 101 t b b b b;
#X obj 616 104 t b b b b;
#X obj 269 400 * \$4;
#X obj 416 312 f \$4;
#X obj 416 334 - 16;
#X obj 383 312 f \$4;
#X obj 327 492 min \$2;
#X obj 315 334 + \$3;
#X obj 503 347 + \$3;
#X obj 327 470 + \$3;
#X obj 327 514 max \$3;
#X msg 611 321 symbol arco;
#X obj 193 347 fd_round 0.5 10;
#X connect 0 0 1 0;
#X connect 1 0 52 0;
#X connect 2 0 5 0;
#X connect 3 0 2 0;
#X connect 3 1 29 0;
#X connect 4 0 6 0;
#X connect 5 0 14 0;
#X connect 6 0 5 1;
#X connect 7 0 6 1;
#X connect 8 0 6 1;
#X connect 9 0 10 0;
#X connect 10 0 0 0;
#X connect 10 1 1 2;
#X connect 10 2 11 0;
#X connect 11 0 12 0;
#X connect 12 0 47 0;
#X connect 13 0 22 0;
#X connect 18 0 19 1;
#X connect 19 0 9 0;
#X connect 20 0 19 0;
#X connect 20 1 27 0;
#X connect 20 1 43 0;
#X connect 20 2 8 0;
#X connect 20 2 39 1;
#X connect 20 2 38 1;
#X connect 21 0 7 0;
#X connect 22 0 34 0;
#X connect 23 0 24 0;
#X connect 24 0 3 0;
#X connect 25 0 26 0;
#X connect 26 0 3 0;
#X connect 27 0 48 0;
#X connect 28 0 48 0;
#X connect 29 0 20 0;
#X connect 29 1 30 0;
#X connect 30 0 31 0;
#X connect 31 0 32 0;
#X connect 31 1 33 0;
#X connect 32 0 40 0;
#X connect 33 0 41 0;
#X connect 34 0 23 0;
#X connect 34 1 25 0;
#X connect 38 0 21 0;
#X connect 38 1 8 0;
#X connect 39 0 51 0;
#X connect 39 1 8 0;
#X connect 40 0 19 0;
#X connect 40 1 28 0;
#X connect 40 1 45 0;
#X connect 40 2 39 0;
#X connect 40 3 38 1;
#X connect 41 0 19 0;
#X connect 41 1 28 0;
#X connect 41 1 43 0;
#X connect 41 2 38 0;
#X connect 41 3 39 1;
#X connect 42 0 49 0;
#X connect 43 0 44 0;
#X connect 44 0 42 1;
#X connect 45 0 42 1;
#X connect 46 0 50 0;
#X connect 47 0 49 1;
#X connect 48 0 49 1;
#X connect 49 0 46 0;
#X connect 50 0 4 0;
#X connect 51 0 7 0;
#X connect 52 0 42 0;
#X restore 124 175 pd simple-event;
#N canvas 0 22 450 300 silence 0;
#X obj 33 123 list append -1;
#X obj 33 145 list prepend -pit;
#X obj 36 72 inlet;
#X obj 33 167 outlet;
#X connect 0 0 1 0;
#X connect 1 0 3 0;
#X connect 2 0 0 0;
#X restore 47 176 pd silence;
#X obj 271 22 inlet;
#X obj 271 68 s \$0-en;
#X obj 271 44 * 100;
#X obj 16 7 declare -path ~/Documents/fd_lib;
#X obj 129 431 outlet;
#X obj 119 31 inlet;
#X obj 136 103 fd_listout;
#X obj 101 80 list split 1;
#X obj 119 53 route \$1 7;
#X obj 131 391 list prepend i\$1 input;
#X obj 169 237 _duration;
#X obj 233 311 _dynamic;
#X obj 55 247 _duration;
#X obj 389 109 s \$0-en1;
#X obj 227 208 r \$0-en1;
#X obj 75 201 r \$0-en1;
#X obj 264 267 r \$0-en1;
#X obj 300 224 list prepend -dur 1;
#X connect 0 0 3 0;
#X connect 0 1 2 0;
#X connect 0 2 1 0;
#X connect 1 0 14 0;
#X connect 1 1 21 0;
#X connect 2 0 14 0;
#X connect 3 0 16 0;
#X connect 4 0 6 0;
#X connect 4 0 17 0;
#X connect 6 0 5 0;
#X connect 9 0 12 0;
#X connect 10 0 0 0;
#X connect 11 1 10 0;
#X connect 12 0 11 0;
#X connect 12 1 11 0;
#X connect 13 0 8 0;
#X connect 14 0 15 0;
#X connect 15 0 13 0;
#X connect 16 0 13 0;
#X connect 18 0 14 1;
#X connect 19 0 16 1;
#X connect 20 0 15 1;
#X connect 21 0 15 0;
