#N canvas 576 147 607 460 10;
#X obj 47 289 gemhead;
#X obj 47 362 t a a;
#X obj 74 400 s gemlist;
#X obj 464 215 == 0;
#X obj 363 344 order;
#X obj 464 340 rand-gauss;
#X obj 377 71 - 1;
#X obj 377 93 s \$0-lim;
#X obj 521 255 r \$0-lim;
#X obj 390 258 r \$0-lim;
#X obj 47 12 inlet;
#X obj 47 233 t b f, f 17;
#X obj 47 58 abs;
#X obj 47 191 spigot;
#X obj 235 12 inlet;
#X obj 235 144 disable;
#X obj 47 167 r \$0-frame;
#X obj 47 111 s \$0-frame;
#X obj 363 384 s \$0-frame;
#X obj 464 382 s \$0-frame;
#X obj 72 58 r \$0-lim;
#X obj 47 341 pix_buffer_read \$2-\$1;
#X obj 377 49 r \$2-\$1-lim;
#X obj 363 235 pack 0 33;
#X obj 464 237 pack 0 33;
#X obj 47 80 mod;
#X text 71 80 restart;
#X obj 363 177 r \$2-\$1-ord-rnd;
#X obj 245 120 r \$2-\$1-disable;
#X obj 54 35 r \$2-\$1-frame;
#X text 381 28 get limit;
#X text 139 401 <-- tap the gemlist;
#X obj 54 260 r \$2-gem-order;
#X text 247 31 enable/disable;
#X text 84 12 input frame number;
#X text 359 156 switch between order (1) / random (0);
#X obj 96 311 r alpha;
#X obj 476 178 r framerate;
#X obj 47 311 alpha 0;
#X obj 486 418 s end-reached;
#X obj 47 424 display \$2;
#X connect 0 0 38 0;
#X connect 1 0 40 0;
#X connect 1 1 2 0;
#X connect 3 0 24 0;
#X connect 4 0 18 0;
#X connect 4 1 39 0;
#X connect 5 0 19 0;
#X connect 5 1 39 0;
#X connect 6 0 7 0;
#X connect 8 0 5 1;
#X connect 9 0 4 1;
#X connect 10 0 12 0;
#X connect 11 0 0 0;
#X connect 11 1 21 1;
#X connect 12 0 25 0;
#X connect 13 0 11 0;
#X connect 14 0 15 0;
#X connect 15 0 13 1;
#X connect 16 0 13 0;
#X connect 20 0 25 1;
#X connect 21 0 1 0;
#X connect 22 0 6 0;
#X connect 23 0 4 0;
#X connect 24 0 5 0;
#X connect 25 0 17 0;
#X connect 27 0 3 0;
#X connect 27 0 23 0;
#X connect 28 0 15 0;
#X connect 29 0 12 0;
#X connect 32 0 0 0;
#X connect 36 0 38 1;
#X connect 37 0 23 1;
#X connect 37 0 24 1;
#X connect 38 0 21 0;
