#N canvas 590 142 662 502 12;
#X obj 61 93 unpack f f f f, f 16;
#X obj 165 124 atan2;
#X obj 96 124 rmstodb;
#X obj 96 149 fd_norm;
#X obj 37 130 ftom;
#X obj 165 149 fd_norm;
#X obj 39 343 pack f f f;
#X obj 84 20 inlet;
#X obj 33 412 outlet;
#X obj 96 174 - 0.5;
#X msg 39 368 \$3 \$2 \$1;
#X obj 180 195 * 4;
#X obj 34 206 * 4;
#X obj 96 199 * 8;
#X obj 229 12 inlet;
#X obj 229 37 unpack f f f;
#X obj 374 11 inlet;
#X obj 37 154 / 100;
#X obj 84 45 t a b b;
#X obj 160 47 timer;
#X obj 75 280 t b f;
#X obj 96 224 pack;
#X obj 34 231 pack;
#X obj 34 256 line;
#X obj 96 249 line;
#X obj 179 225 pack;
#X obj 179 250 line;
#X obj 179 275 t b f;
#X obj 502 171 inlet;
#X connect 0 0 4 0;
#X connect 0 1 2 0;
#X connect 0 2 1 0;
#X connect 0 3 1 1;
#X connect 1 0 5 0;
#X connect 2 0 3 0;
#X connect 3 0 9 0;
#X connect 4 0 17 0;
#X connect 5 1 11 0;
#X connect 6 0 10 0;
#X connect 7 0 18 0;
#X connect 9 0 13 0;
#X connect 10 0 8 0;
#X connect 11 0 25 0;
#X connect 12 0 22 0;
#X connect 13 0 21 0;
#X connect 14 0 15 0;
#X connect 15 0 11 1;
#X connect 15 1 13 1;
#X connect 15 2 12 1;
#X connect 16 0 10 0;
#X connect 17 0 12 0;
#X connect 18 0 0 0;
#X connect 18 1 19 0;
#X connect 18 2 19 1;
#X connect 19 0 22 1;
#X connect 19 0 21 1;
#X connect 19 0 25 1;
#X connect 20 0 6 0;
#X connect 20 1 6 1;
#X connect 21 0 24 0;
#X connect 22 0 23 0;
#X connect 23 0 6 0;
#X connect 24 0 20 0;
#X connect 25 0 26 0;
#X connect 26 0 27 0;
#X connect 27 0 6 0;
#X connect 27 1 6 2;
#X connect 28 0 19 0;
