#N canvas 0 22 450 300 10;
#X obj 78 95 / 1000;
#X obj 80 29 inlet;
#X obj 78 207 outlet;
#X obj 78 141 pack f \$2;
#X msg 78 185 initc \$1;
#X obj 78 51 random 400;
#X obj 78 73 - 200;
#X obj 78 117 + 2.66;
#X text 192 57 init C \, not x...;
#X obj 78 163 line 2.66 1;
#X obj 310 26 inlet;
#X connect 0 0 7 0;
#X connect 1 0 5 0;
#X connect 3 0 9 0;
#X connect 4 0 2 0;
#X connect 5 0 6 0;
#X connect 6 0 0 0;
#X connect 7 0 3 0;
#X connect 9 0 4 0;
#X connect 10 0 9 0;
