#N canvas 252 107 921 555 12;
#X declare -path ../_lib;
#N canvas 210 22 1119 461 transitios 0;
#X text 295 64 f - range, f 1;
#X text 27 241 freq - set, f 1;
#X obj 96 94 dbtorms;
#X text 565 83 f - min, f 1;
#X text 24 83 a - gain, f 1;
#X obj 349 103 mtof;
#X obj 639 94 dbtorms;
#X msg 398 142 set \$1 \$2;
#X msg 195 99 set \$1 \$2;
#X msg 679 128 set \$1 \$2;
#X msg 134 350 set \$1 \$2;
#X msg 422 345 set \$1 \$2;
#X obj 338 280 t b f;
#X obj 312 104 f 2;
#X obj 584 94 f 1.3;
#X obj 44 95 f 0.5;
#X obj 49 299 symbol 0-sin, f 6;
#X text 315 253 t -offset, f 1;
#X obj 916 116 sel 0 1 2 3 4, f 8;
#X obj 730 270 cnv 15 100 60 empty empty empty 20 12 0 14 -233017 -66577
0;
#X obj 772 312 nbx 3 14 10 2000 0 0 empty empty empty 0 -8 0 10 -262144
-1 -1 10 256;
#X obj 811 311 bng 15 250 50 0 empty empty empty 17 7 0 10 -262144
-1 -1;
#X obj 734 274 hradio 15 1 0 5 empty empty empty 0 -8 0 10 -262144
-1 -1 1;
#X obj 734 312 nbx 3 14 1 200 0 0 empty empty empty 0 -8 0 10 -262144
-1 -1 1 256;
#X obj 772 342 t b f;
#X obj 811 274 tgl 15 0 randomizer randomizer-set rnd 1 8 0 8 -262144
-1 -1 0 1;
#X obj 870 16 !msg transitions;
#X obj 44 119 _gaussian a-gain, f 9;
#X obj 953 45 t f f;
#X msg 964 242 50 100 gain;
#X msg 964 222 -14 64 range;
#X msg 964 182 0 15 freq;
#X msg 964 162 13 1000 offset;
#X obj 739 16 route 0 1 2 3 4;
#X obj 44 36 list split 1;
#X obj 44 68 t b f;
#X obj 49 247 list split 1;
#X obj 312 36 list split 1;
#X obj 584 36 list split 1;
#X obj 338 257 list split 1;
#X obj 312 75 t b f;
#X obj 584 68 t b f;
#X obj 398 281 max 13;
#X obj 338 311 pack 23 13;
#X obj 49 272 t b f;
#X msg 858 273 range \$1 \$2 \, label \$3;
#X obj 844 72 list prepend 0;
#X obj 734 392 list append;
#X obj 844 326 list;
#X obj 734 342 pack;
#X floatatom 414 85 5 0 0 0 - - -, f 5;
#X floatatom 730 102 5 0 0 0 - - -, f 5;
#X msg 964 202 98 177 min;
#X obj 887 308 t f b;
#X msg 887 383 label \$1;
#X obj 969 332 f;
#X obj 969 357 == 3;
#X obj 887 332 spigot;
#X obj 737 293 hsl 87 15 -14 64 0 0 empty empty range:1 3 8 0 10 -262144
-1 -1 1654 1;
#X obj 605 223 loadbang;
#X msg 658 248 1;
#X msg 697 240 10;
#X obj 922 390 spigot;
#X obj 994 387 == 0;
#X obj 908 436 list prepend;
#X msg 1016 326 \$3:;
#X obj 826 437 list trim;
#X msg 662 421 label \$1\$2;
#X obj 921 411 fd_round 0.5 100;
#X obj 312 137 _gaussian f-range, f 9;
#X obj 584 127 _gaussian f-min, f 9;
#X obj 49 341 _gaussian freq-set, f 9;
#X obj 338 340 _gaussian offset, f 9;
#X obj 99 274 _seltab;
#X obj 887 359 _seltab;
#X msg 44 164 \; _bParams-\$1 \$2 \$3 amp gain \$4;
#X msg 312 179 \; _bParams-\$1 \$2 \$3 f range \$4 \;;
#X msg 584 172 \; _bParams-\$1 \$2 \$3 f min \$4 \;;
#X msg 49 387 \; _bParams-\$1 \$2 \$3 freq set \$4 \;;
#X msg 338 386 \; _bParams-\$1 \$2 \$3 offset \$4 \$5 \;;
#X connect 2 0 15 1;
#X connect 5 0 13 1;
#X connect 5 0 50 0;
#X connect 6 0 14 1;
#X connect 6 0 51 0;
#X connect 7 0 69 1;
#X connect 8 0 27 1;
#X connect 9 0 70 1;
#X connect 10 0 71 1;
#X connect 11 0 72 1;
#X connect 12 0 43 0;
#X connect 12 1 42 0;
#X connect 13 0 69 0;
#X connect 14 0 70 0;
#X connect 15 0 27 0;
#X connect 16 0 71 0;
#X connect 18 0 29 0;
#X connect 18 1 30 0;
#X connect 18 2 52 0;
#X connect 18 3 31 0;
#X connect 18 4 32 0;
#X connect 20 0 24 0;
#X connect 21 0 48 0;
#X connect 22 0 28 0;
#X connect 23 0 49 0;
#X connect 24 0 49 0;
#X connect 24 1 49 1;
#X connect 27 0 75 0;
#X connect 28 0 46 1;
#X connect 28 1 18 0;
#X connect 28 1 55 1;
#X connect 29 0 45 0;
#X connect 29 0 65 0;
#X connect 30 0 45 0;
#X connect 30 0 65 0;
#X connect 31 0 45 0;
#X connect 31 0 65 0;
#X connect 32 0 45 0;
#X connect 32 0 65 0;
#X connect 33 0 34 0;
#X connect 33 1 37 0;
#X connect 33 2 38 0;
#X connect 33 3 36 0;
#X connect 33 4 39 0;
#X connect 33 5 26 0;
#X connect 34 0 35 0;
#X connect 34 1 8 0;
#X connect 35 0 15 0;
#X connect 35 1 2 0;
#X connect 36 0 44 0;
#X connect 36 1 10 0;
#X connect 37 0 40 0;
#X connect 37 1 7 0;
#X connect 38 0 41 0;
#X connect 38 1 9 0;
#X connect 39 0 12 0;
#X connect 39 1 11 0;
#X connect 40 0 13 0;
#X connect 40 1 5 0;
#X connect 41 0 14 0;
#X connect 41 1 6 0;
#X connect 42 0 43 1;
#X connect 43 0 72 0;
#X connect 44 0 16 0;
#X connect 44 1 73 0;
#X connect 45 0 58 0;
#X connect 46 0 33 0;
#X connect 47 0 48 1;
#X connect 48 0 46 0;
#X connect 49 0 47 1;
#X connect 52 0 45 0;
#X connect 52 0 65 0;
#X connect 53 0 57 0;
#X connect 53 0 62 0;
#X connect 53 1 55 0;
#X connect 54 0 58 0;
#X connect 55 0 56 0;
#X connect 56 0 57 1;
#X connect 56 0 63 0;
#X connect 57 0 74 0;
#X connect 58 0 47 0;
#X connect 58 0 53 0;
#X connect 59 0 61 0;
#X connect 59 0 60 0;
#X connect 60 0 22 0;
#X connect 60 0 23 0;
#X connect 60 0 58 0;
#X connect 61 0 20 0;
#X connect 62 0 68 0;
#X connect 63 0 62 1;
#X connect 64 0 67 0;
#X connect 65 0 64 1;
#X connect 67 0 58 0;
#X connect 68 0 64 0;
#X connect 69 0 76 0;
#X connect 70 0 77 0;
#X connect 71 0 78 0;
#X connect 72 0 79 0;
#X connect 73 0 16 1;
#X connect 74 0 54 0;
#X coords 0 -1 1 1 100 60 2 730 270;
#X restore 17 272 pd transitios;
#X obj 280 284 fd_dataGui dataWalk;
#X obj 174 284 fd_dataMorphGui;
#X obj 280 218 fd_dataVis;
#X obj 174 496 fd_dataStoreGui;
#N canvas 0 22 668 374 midi-controls 0;
#X obj 100 100 cnv 15 100 60 empty empty midi 5 8 0 10 -1 -262144 0
;
#X msg 421 151 \; fd_clicktrack-0 onoff 0;
#X msg 445 70 \; fd_midi goto 0 \; fd_clicktrack-0 reset;
#X obj 103 143 nbx 3 14 0 200 0 0 empty empty bmp 30 8 0 10 -1 -262144
-262144 119 256;
#X obj 287 131 t f f;
#X msg 322 60 set \$1;
#X msg 248 70 119;
#X obj 253 32 loadbang;
#X obj 277 175 f;
#X msg 283 208 \; fd_clicktrack-0 \$1;
#X obj 103 115 tgl 25 0 empty start-midi 1|0 4 12 0 10 -1 -4034 -262144
1 1;
#X obj 173 162 sel 0 1;
#X obj 130 115 nbx 3 25 0 999 0 0 empty empty empty 0 -8 0 20 -1 -262144
-1 427 256;
#X obj 188 102 bng 10 250 50 0 empty empty empty 17 7 0 10 -262144
-1 -1;
#X obj 71 16 r midievent;
#X obj 71 38 list split 1;
#X msg 187 59 set 0;
#X obj 228 279 f;
#X obj 169 150 nbx 3 8 0 999 0 0 empty empty empty 0 -8 0 8 -1 -262144
-1 0 256;
#X obj 71 63 +;
#X msg 249 109 0;
#X obj 154 143 bng 12 250 50 0 empty empty goto 14 2 0 10 -262144 -1
-262144;
#X obj 173 102 tgl 10 0 empty empty empty 17 7 0 10 -262144 -1 -1 0
1;
#X msg 411 262 \; fd_clicktrack-0 click \$1 \;;
#X msg 207 313 \; fd_midi goto \$1 \; fd_clicktrack-0 goto \$1 \;;
#X connect 3 0 4 0;
#X connect 4 0 8 1;
#X connect 4 1 5 0;
#X connect 5 0 6 0;
#X connect 6 0 3 0;
#X connect 7 0 6 0;
#X connect 7 0 20 0;
#X connect 8 0 9 0;
#X connect 10 0 11 0;
#X connect 11 0 1 0;
#X connect 11 1 8 0;
#X connect 12 0 17 1;
#X connect 13 0 2 0;
#X connect 13 0 16 0;
#X connect 13 0 20 0;
#X connect 14 0 15 0;
#X connect 15 0 19 0;
#X connect 16 0 12 0;
#X connect 17 0 24 0;
#X connect 18 0 19 1;
#X connect 19 0 12 0;
#X connect 20 0 18 0;
#X connect 21 0 17 0;
#X connect 22 0 23 0;
#X coords 0 -1 1 1 100 60 2 100 100;
#X restore 788 9 pd midi-controls;
#X obj 641 323 _specdelayGui;
#X obj 515 430 _complexmodGui;
#X obj 515 323 _timbrestampGui;
#X obj 792 330 _phasevocGui;
#X obj 691 79 fd_clicktrack 0;
#X obj 21 11 _monitors;
#X obj 386 390 fd_dataGui dataHann;
#X obj 386 284 fd_dataGui dataRand;
#X obj 280 390 fd_dataGui dataLine;
#X obj 174 390 fd_dataGui dataExp;
#X obj 245 31 _monitor 1;
#X text 174 190 grain data structure__________________;
#X text 17 236 signal shapes______;
#X text 704 37 midi ___;
#X text 233 9 input/output;
#X obj 485 7 declare -path ../_lib;
#X obj 18 335 _barkedParamsGui;
#X text 509 288 spectral effects ____________;
#X obj 840 295 dac~;
#X obj 349 31 _monitor 2;
#X obj 453 31 _monitor 3;
#X obj 557 31 _monitor 4;
#X msg 502 183 \; fake-inputs 1 \; start-midi 1 \;;
#X msg 502 237 \; fake-inputs 0 \; start-midi 0 \;;
#X connect 10 1 24 0;
#X connect 10 1 24 1;
