#N canvas 581 67 313 338 10;
#X declare -stdpath list-abs -stdlib list-abs;
#X declare -stdlib zexy;
#X declare -path ./lib;
#X declare -path ../fd_lib-master;
#X declare -path ~/Documents/dep/notes_lib;
#N canvas 0 23 450 300 declare 0;
#X obj 11 106 declare -stdpath list-abs -stdlib list-abs;
#X obj 13 129 declare -stdlib zexy;
#X obj 8 40 declare -path ./lib;
#X obj 10 85 declare -path ../fd_lib-master;
#X obj 10 63 declare -path ~/Documents/dep/notes_lib;
#X restore 12 26 pd declare;
#X msg 13 189 \; parsed-\$1 click;
#X obj 13 114 hradio 15 1 0 4 empty empty empty 0 -8 0 10 -262144 -1
-1 0;
#X obj 13 171 hradio 15 1 0 4 empty empty empty 0 -8 0 10 -262144 -1
-1 0;
#X msg 12 132 \; part-\$1 click;
#X obj 123 109 hradio 15 1 0 4 empty empty empty 0 -8 0 10 -262144
-1 -1 0;
#X msg 123 127 \; grid-\$1 click;
#N canvas 642 23 528 721 parts 0;
#X msg 113 394 all bang;
#X msg 93 450 all bang;
#X msg 28 62 ....... \, reading all texts \, .......... \, fingers
crossed \, ....., f 21;
#X obj 21 433 t b b;
#X msg 48 560 done reading all texts;
#X obj 416 663 s generate;
#X obj 21 34 t b b b;
#X msg 416 642 color \$1 22 22;
#X msg 416 51 0;
#X msg 21 625 16;
#X obj 21 507 t b b;
#X obj 21 150 del 300;
#X text 218 498 <-notes;
#X text 201 471 <-grid;
#X text 229 417 <-event;
#X text 193 310 parts (4);
#X obj 94 17 inlet reload;
#X obj 344 547 del 1000;
#N canvas 422 62 395 366 welcome 0;
#X obj 192 6 loadbang;
#X obj 23 239 del 10000;
#X obj 172 110 tgl 15 0 empty empty empty 17 7 0 10 -262144 -1 -1 0
1;
#X obj 172 130 metro 1000;
#X obj 161 194 i 10;
#X obj 195 194 - 1;
#X obj 27 290 spigot 1;
#X obj 40 43 key;
#X obj 40 84 < 0;
#X obj 40 106 sel 0;
#X msg 40 128 10;
#X obj 27 312 outlet;
#X obj 100 8 inlet;
#X msg 103 35 1;
#X msg 96 271 waiting \$1 seconds - press any key to cancel;
#X obj 116 307 s printer;
#X connect 0 0 1 0;
#X connect 0 0 2 0;
#X connect 1 0 6 0;
#X connect 2 0 3 0;
#X connect 3 0 4 0;
#X connect 4 0 5 0;
#X connect 4 0 14 0;
#X connect 5 0 4 1;
#X connect 6 0 11 0;
#X connect 7 0 8 0;
#X connect 8 0 6 1;
#X connect 8 0 9 0;
#X connect 8 0 2 0;
#X connect 9 0 10 0;
#X connect 10 0 4 1;
#X connect 12 0 13 0;
#X connect 13 0 8 0;
#X connect 14 0 15 0;
#X restore 21 12 pd welcome;
#X obj 120 135 bng 15 250 50 0 empty empty empty 17 7 0 10 -262144
-1 -1;
#X obj 121 213 del 300;
#X obj 113 417 clone _get-event 4;
#X obj 93 473 clone _get-grid 4;
#X obj 121 235 f;
#X obj 148 235 r part-id;
#X obj 21 179 f;
#X msg 179 51 clear \, read lib/part-id.txt;
#X obj 180 73 text define partid;
#X obj 298 339 s part-id;
#X obj 47 179 r part-id;
#X obj 298 225 text get partid;
#X obj 91 268 t b b f;
#X obj 21 202 t b b f;
#X msg 129 310 all \$1;
#X text 144 189 <-- without generating (for testing);
#X msg 223 215 0;
#N canvas 0 23 519 300 reset_part_ID 0;
#X msg 78 131 0;
#X obj 106 179 spigot 1;
#X obj 179 138 r part-id;
#X msg 191 186 0;
#X obj 13 81 inlet;
#X obj 106 201 outlet;
#X text 97 70 if there is a -send message with a part id \, then prevent
the call to lib/part-id.txt to get most recent part id;
#X text 16 22 this allows user to send any part-id to work with;
#X obj 294 142 inlet;
#X msg 294 164 1;
#X obj 179 160 t b f;
#X msg 252 217 current_part_ID \$1;
#X obj 252 239 s printer;
#X connect 0 0 1 0;
#X connect 1 0 5 0;
#X connect 2 0 10 0;
#X connect 3 0 1 1;
#X connect 4 0 0 0;
#X connect 8 0 9 0;
#X connect 9 0 1 1;
#X connect 10 0 3 0;
#X connect 10 1 11 0;
#X connect 11 0 12 0;
#X restore 256 139 pd reset_part_ID;
#X text 115 174 most recent part id;
#X floatatom 307 320 5 0 0 0 - - -, f 5;
#X text 319 287 any part id;
#X obj 315 266 s printer;
#X obj 289 372 list prepend _readparts;
#X obj 289 394 list trim;
#X obj 289 416 s printer;
#X obj 48 582 s printer;
#X obj 28 125 s printer;
#X msg 265 104 0;
#X msg 317 173 0;
#X msg 359 139 bang;
#X obj 130 336 clone _readparts 4;
#X obj 120 155 t b b b;
#X obj 289 458 r part-id;
#X obj 274 440 bng 15 250 50 0 empty empty write_notes_input 17 7 0
10 -262144 -1 -1;
#X obj 274 481 f;
#X obj 93 498 clone _notes-input 4;
#X connect 0 0 21 0;
#X connect 1 0 22 0;
#X connect 2 0 45 0;
#X connect 3 0 10 0;
#X connect 3 1 1 0;
#X connect 4 0 44 0;
#X connect 6 0 11 0;
#X connect 6 1 2 0;
#X connect 6 2 8 0;
#X connect 6 2 18 0;
#X connect 6 2 26 0;
#X connect 6 2 36 0;
#X connect 7 0 5 0;
#X connect 8 0 7 0;
#X connect 9 0 7 0;
#X connect 10 0 9 0;
#X connect 10 1 17 0;
#X connect 10 1 4 0;
#X connect 11 0 25 0;
#X connect 16 0 6 0;
#X connect 17 0 5 0;
#X connect 18 0 6 0;
#X connect 19 0 50 0;
#X connect 20 0 23 0;
#X connect 22 0 54 0;
#X connect 23 0 31 0;
#X connect 24 0 23 1;
#X connect 25 0 32 0;
#X connect 26 0 27 0;
#X connect 29 0 25 1;
#X connect 30 0 28 0;
#X connect 30 0 40 0;
#X connect 31 0 1 0;
#X connect 31 1 0 0;
#X connect 31 2 33 0;
#X connect 32 0 3 0;
#X connect 32 1 0 0;
#X connect 32 2 33 0;
#X connect 33 0 49 0;
#X connect 35 0 30 0;
#X connect 36 0 30 0;
#X connect 38 0 28 0;
#X connect 41 0 42 0;
#X connect 42 0 43 0;
#X connect 46 0 36 0;
#X connect 47 0 30 0;
#X connect 48 0 36 1;
#X connect 49 0 41 0;
#X connect 50 0 20 0;
#X connect 50 1 35 0;
#X connect 50 2 26 0;
#X connect 51 0 53 1;
#X connect 52 0 53 0;
#X connect 53 0 54 1;
#X restore 13 70 pd parts parsed grid;
#X obj 125 169 hradio 15 1 0 4 empty empty empty 0 -8 0 10 -262144
-1 -1 0;
#X msg 125 187 \; _notes-input-\$1 click;
#X text 8 86 see texts here and compare if you need to...;
#X obj 20 240 cnv 15 100 60 empty empty empty 20 12 0 14 -233017 -66577
0;
#N canvas 0 23 1280 722 mainscore 0;
#X obj 113 311 notes 1, f 18;
#X obj 218 378 notes 1, f 19;
#X obj 54 839 mainscore;
#X msg 54 218 part 1 1 \$1 \$2;
#X obj 100 165 s \$0-master-barfile;
#X obj 218 288 r \$0-master-barfile;
#X obj 329 355 r \$0-master-barfile;
#X msg 113 333 part 2 1 \$1 \$2;
#X msg 218 400 part 3 1 \$1 \$2;
#X obj 40 166 r i0;
#X obj 122 290 r i1;
#X obj 227 355 r i2;
#X obj 328 454 notes 1, f 19;
#X obj 439 431 r \$0-master-barfile;
#X msg 328 476 part 4 1 \$1 \$2;
#X obj 337 431 r i3;
#X obj 432 533 notes 1, f 19;
#X obj 543 510 r \$0-master-barfile;
#X obj 564 586 notes 1, f 19;
#X obj 675 563 r \$0-master-barfile;
#X obj 441 510 r i4;
#X msg 432 555 part 5 1 \$1 \$2;
#X obj 89 -100 t a a;
#X obj 41 -68 list split 1;
#X obj 148 -70 list split 1;
#X obj 94 -44 list trim;
#X msg 591 -216 \; i\$1 clear \;;
#X msg 594 -264 bang;
#X obj 31 190 notes 0, f 17;
#X obj 21 41 bng 15 250 50 0 empty empty empty 17 7 0 10 -262144 -1
-1;
#X obj 315 -213 int;
#X obj 746 886 cnv 15 100 60 empty empty empty 20 12 0 14 -233017 -66577
0;
#X obj 614 676 notes 1, f 19;
#X obj 725 653 r \$0-master-barfile;
#X obj 623 653 r i6;
#X obj 573 563 r i5;
#X msg 614 698 part 6 1 \$1 \$2;
#X msg 564 608 part 7 1 \$1 \$2;
#X obj 315 -235 / 3;
#X obj 42 -320 bng 15 250 50 0 empty empty empty 17 7 0 10 -262144
-1 -1;
#X obj 90 -164 + 0;
#X obj 317 -269 text size _notes-input-1;
#X obj 334 -56 * 10328;
#X obj 478 -431 cnv 15 100 60 empty empty empty 20 12 0 14 -233017
-66577 0;
#X obj 169 -248 f;
#X obj 89 -201 fd_iterate;
#X obj 89 -122 text get _notes-input-1;
#X obj 315 -145 f;
#X obj 343 -144 + 1;
#X obj 315 -180 t b f f f, f 20;
#X obj 432 -150 change;
#X obj 432 -128 t b;
#X msg 432 -106 0;
#X msg 514 -324 symbol _notes-input-\$1;
#X text 89 -318 <-- do this;
#X text 203 -319 times for each text ------------------------->, f
49;
#X text 911 -328 FIRST;
#X text 1062 963 should be helpful not to render files;
#X msg 1181 939 clear \, render 1;
#X obj 401 -63 sel 2;
#X obj 510 -5 + 1;
#X obj 315 -107 t f f f;
#X msg 642 -123 0;
#X obj 478 -3 f;
#X obj 33 -293 t b b b b b, f 102;
#X msg 584 -128 bang;
#X obj 498 -262 f;
#X msg 873 -330 bang;
#X obj 873 -308 t b b b;
#X obj 88 -9 send;
#X obj 1298 881 bang;
#X obj 1083 837 t a a;
#X msg 1079 874 title talea_map-\$1;
#X obj 17 792 t b a;
#X obj 5 -412 spigot;
#X obj 758 -358 tgl 15 0 empty empty empty 17 7 0 10 -262144 -1 -1
1 1;
#X msg 171 -321 3;
#X obj 689 -27 sel 4;
#X msg 874 -4 0;
#X text 674 -73 only have 3 texts;
#X obj 778 -419 inlet;
#X obj 778 -397 t b b;
#X obj 123 -395 t f f;
#X obj 123 -373 sel 1;
#X obj 38 -376 del 100;
#X obj 689 -5 del 100;
#N canvas 0 23 450 300 toname 0;
#X obj 38 37 inlet;
#X obj 38 59 sel 0 1 2;
#X msg 38 81 symbol one;
#X msg 48 101 symbol two;
#X msg 58 121 symbol three;
#X obj 58 186 outlet;
#X connect 0 0 1 0;
#X connect 1 0 2 0;
#X connect 1 1 3 0;
#X connect 1 2 4 0;
#X connect 2 0 5 0;
#X connect 3 0 5 0;
#X connect 4 0 5 0;
#X restore 360 -13 pd toname;
#X obj 24 78 list;
#X obj 206 235 list;
#X obj 365 314 list;
#X obj 365 42 list prepend;
#X obj 465 389 list;
#X obj 564 467 list;
#X obj 716 520 list;
#X obj 1083 815 list;
#X msg 1023 906 write ./score/\$1/talea_map_\$2;
#X obj 779 609 list;
#X text 95 -423 MUST HAVE N DIRECTORY/IES FOR N TEXT...0...1...2...3..ETC
;
#X msg 689 61 done generating score;
#X msg 31 141 inst flute_\$2 \, render 0 \, refdur 16 \, write ./part/\$1/flute_\$2
;
#X msg 113 266 inst clarinet_\$2 \, refdur 16 \, write ./part/\$1/clarinet_\$2
;
#X msg 218 333 inst violin_\$2 \, refdur 16 \, write ./part/\$1/violin_\$2
;
#X msg 328 409 inst cello_\$2 \, refdur 16 \, write ./part/\$1/cello_\$2
;
#X msg 432 488 inst perc_\$2 \, refdur 16 \, write ./part/\$1/perc_\$2
;
#X msg 565 541 inst pianoR_\$2 \, refdur 16 \, write ./part/\$1/pianoR_\$2
;
#X msg 614 631 inst pianoL_\$2 \, refdur 16 \, write ./part/\$1/pianoL_\$2
;
#X obj 596 27 del 1000;
#X msg 596 49 quit;
#X obj 596 71 s pd;
#X obj 689 83 s printer;
#X obj 54 861 s printer;
#X obj 728 745 notes 1, f 19;
#X obj 839 722 r \$0-master-barfile;
#X obj 893 678 list;
#X obj 857 808 notes 1, f 19;
#X obj 968 785 r \$0-master-barfile;
#X obj 1022 741 list;
#X msg 857 763 inst video_\$2 \, refdur 16 \, write ./part/\$1/video_\$2
;
#X msg 728 700 inst elec_\$2 \, refdur 16 \, write ./part/\$1/elec_\$2
;
#X obj 737 722 r i7;
#X msg 728 767 part 8 1 \$1 \$2;
#X msg 857 830 part 9 1 \$1 \$2;
#X obj 866 785 r i8;
#X obj 591 -237 fd_iterate 9;
#X obj 30 119 t a a a a a a a a a a b b, f 159;
#X msg 955 172 \; lyric-7 write elecLyric.txt \; lyric-8 write videoLyric.txt
;
#X obj 838 -416 bng 15 250 50 0 empty empty empty 17 7 0 10 -262144
-1 -1;
#X floatatom 334 -35 5 0 0 0 - - -, f 5;
#X obj 159 229 print;
#X connect 0 0 7 0;
#X connect 0 2 89 0;
#X connect 1 0 8 0;
#X connect 1 2 91 0;
#X connect 2 0 110 0;
#X connect 3 0 2 0;
#X connect 5 0 0 1;
#X connect 6 0 1 1;
#X connect 7 0 2 0;
#X connect 8 0 2 0;
#X connect 9 0 28 0;
#X connect 10 0 0 0;
#X connect 11 0 1 0;
#X connect 12 0 14 0;
#X connect 12 2 92 0;
#X connect 13 0 12 1;
#X connect 14 0 2 0;
#X connect 15 0 12 0;
#X connect 16 0 21 0;
#X connect 16 2 93 0;
#X connect 17 0 16 1;
#X connect 18 0 37 0;
#X connect 18 2 96 0;
#X connect 19 0 18 1;
#X connect 20 0 16 0;
#X connect 21 0 2 0;
#X connect 22 0 23 0;
#X connect 22 1 24 0;
#X connect 23 1 25 0;
#X connect 24 0 69 1;
#X connect 25 0 69 0;
#X connect 27 0 123 0;
#X connect 28 0 3 0;
#X connect 28 1 4 0;
#X connect 28 2 88 0;
#X connect 29 0 87 0;
#X connect 30 0 49 0;
#X connect 32 0 36 0;
#X connect 32 2 113 0;
#X connect 33 0 32 1;
#X connect 34 0 32 0;
#X connect 35 0 18 0;
#X connect 36 0 2 0;
#X connect 37 0 2 0;
#X connect 38 0 30 0;
#X connect 39 0 64 0;
#X connect 40 0 46 0;
#X connect 41 0 38 0;
#X connect 42 0 40 1;
#X connect 42 0 127 0;
#X connect 44 0 45 0;
#X connect 45 0 40 0;
#X connect 46 0 22 0;
#X connect 47 0 48 0;
#X connect 47 0 61 0;
#X connect 48 0 47 1;
#X connect 49 0 47 0;
#X connect 49 1 42 1;
#X connect 49 2 44 1;
#X connect 49 3 50 0;
#X connect 50 0 51 0;
#X connect 51 0 52 0;
#X connect 52 0 47 1;
#X connect 53 0 41 1;
#X connect 53 0 46 3;
#X connect 58 0 2 0;
#X connect 59 0 63 0;
#X connect 60 0 63 1;
#X connect 61 0 59 0;
#X connect 61 1 42 0;
#X connect 61 2 86 0;
#X connect 62 0 63 1;
#X connect 63 0 60 0;
#X connect 63 0 66 1;
#X connect 63 0 77 0;
#X connect 63 0 90 1;
#X connect 64 0 29 0;
#X connect 64 1 44 0;
#X connect 64 2 41 0;
#X connect 64 3 66 0;
#X connect 64 4 27 0;
#X connect 65 0 63 0;
#X connect 66 0 53 0;
#X connect 67 0 68 0;
#X connect 68 0 52 0;
#X connect 68 1 65 0;
#X connect 68 2 62 0;
#X connect 70 0 58 0;
#X connect 71 0 95 0;
#X connect 71 1 72 0;
#X connect 72 0 2 0;
#X connect 73 0 74 0;
#X connect 73 1 2 0;
#X connect 74 0 84 0;
#X connect 75 0 82 0;
#X connect 76 0 38 1;
#X connect 77 0 78 0;
#X connect 77 0 85 0;
#X connect 77 0 106 0;
#X connect 78 0 75 0;
#X connect 80 0 81 0;
#X connect 81 0 75 0;
#X connect 81 1 67 0;
#X connect 82 0 83 0;
#X connect 82 1 74 1;
#X connect 83 0 39 0;
#X connect 84 0 39 0;
#X connect 85 0 98 0;
#X connect 86 0 90 0;
#X connect 87 0 124 0;
#X connect 88 0 100 0;
#X connect 89 0 101 0;
#X connect 90 0 87 1;
#X connect 91 0 102 0;
#X connect 92 0 103 0;
#X connect 93 0 104 0;
#X connect 94 0 71 0;
#X connect 95 0 73 0;
#X connect 96 0 105 0;
#X connect 98 0 109 0;
#X connect 99 0 28 0;
#X connect 100 0 0 0;
#X connect 101 0 1 0;
#X connect 102 0 12 0;
#X connect 103 0 16 0;
#X connect 104 0 18 0;
#X connect 105 0 32 0;
#X connect 106 0 107 0;
#X connect 107 0 108 0;
#X connect 111 0 120 0;
#X connect 111 2 116 0;
#X connect 112 0 111 1;
#X connect 113 0 118 0;
#X connect 114 0 121 0;
#X connect 114 2 94 0;
#X connect 115 0 114 1;
#X connect 116 0 117 0;
#X connect 117 0 114 0;
#X connect 118 0 111 0;
#X connect 119 0 111 0;
#X connect 120 0 2 0;
#X connect 121 0 2 0;
#X connect 122 0 114 0;
#X connect 123 0 26 0;
#X connect 124 0 99 0;
#X connect 124 1 88 1;
#X connect 124 2 89 1;
#X connect 124 3 91 1;
#X connect 124 4 92 1;
#X connect 124 5 93 1;
#X connect 124 6 96 1;
#X connect 124 7 113 1;
#X connect 124 8 116 1;
#X connect 124 9 94 1;
#X connect 124 10 70 0;
#X connect 124 11 125 0;
#X connect 126 0 81 0;
#X restore 29 272 pd mainscore;
#X text 11 6 THIS MAKES ALL PARTS INTO LILYPOND FILES W/NOTES;
#X obj 29 248 bng 15 250 50 0 empty generate generate 17 7 0 10 -24198
-1 -1;
#X text 16 304 NOTE: added <render> method to [mainscore];
#X obj 13 50 bng 15 250 50 0 empty empty reload 17 7 0 10 -262144 -1
-1;
#N canvas 0 23 450 300 printer 0;
#X obj 30 28 r printer;
#X obj 30 50 print 2-read.pd;
#X connect 0 0 1 0;
#X restore 82 26 pd printer;
#X connect 2 0 4 0;
#X connect 3 0 1 0;
#X connect 5 0 6 0;
#X connect 8 0 9 0;
#X connect 14 0 12 0;
#X connect 16 0 7 0;
