#N canvas 812 85 456 673 10;
#X declare -stdlib mrpeach;
#X obj 29 18 declare -stdlib mrpeach;
#X obj 39 215 midifile;
#X msg 32 43 read /Users/federicocamarahalac/Documents/fd_work/a.le.a/publish/scorefiles/elec-0.midi
;
#X obj 18 249 route 144;
#X obj 19 319 unpack;
#X obj 49 140 tgl 15 0 empty empty empty 17 7 0 10 -262144 -1 -1 1
1;
#X obj 21 350 mtof;
#X obj 23 553 osc~;
#X obj 23 583 *~;
#X obj 175 402 fd_expo 128;
#X msg 174 383 128;
#X obj 82 422 line~;
#X obj 82 444 *~ 125;
#X obj 82 466 +~ 1;
#X obj 82 488 tabread4~ expo;
#X obj 71 581 *~;
#X obj 273 632 dac~;
#X msg 188 219 rewind;
#X obj 80 320 sel 0;
#X obj 20 411 line~;
#X obj 21 372 pack f 3;
#X obj 83 374 t b f;
#X obj 83 352 / 127;
#X obj 181 495 pack f 10;
#X obj 181 517 line~;
#X obj 69 555 *~ 100;
#X obj 273 610 *~ 0.5;
#X msg 81 400 0 \, 1 192;
#X obj 69 533 vcf~ 200;
#X obj 49 160 metro 1;
#X obj 102 162 t b a;
#X obj 70 141 bng 15 250 50 0 empty empty empty 17 7 0 10 -262144 -1
-1;
#X msg 320 159 360;
#X obj 61 187 spigot;
#X msg 319 3 166;
#X obj 319 47 /;
#X msg 319 25 60000 \$1;
#X floatatom 319 69 5 0 0 0 - - -, f 5;
#X msg 348 3 120;
#X msg 379 4 144;
#N canvas 0 22 484 652 metronome 0;
#X obj 124 569 *~;
#X obj 112 254 t b b;
#X obj 112 301 timer;
#X obj 113 514 line~;
#X msg 113 479 0 \$1;
#X obj 112 456 f;
#X obj 138 457 del;
#X obj 112 371 t f f;
#X obj 147 432 t f f;
#X msg 148 479 1 \$1;
#X obj 147 410 * 0.05;
#X obj 138 544 osc~ 220;
#X obj 111 411 * 0.1;
#X obj 161 261 f;
#X obj 185 262 + 1;
#X obj 161 283 mod 4;
#X msg 150 332 0.9;
#X msg 187 377 0.2;
#X msg 189 325 0.4;
#X msg 176 232 0;
#X obj 161 305 sel 2 0;
#X obj 132 132 t b b f;
#X obj 32 7 inlet;
#X obj 229 25 inlet;
#X obj 137 615 outlet~;
#X obj 94 129 mod;
#X obj 94 151 sel 0;
#X obj 76 38 spigot;
#X obj 134 11 inlet;
#X obj 134 33 t f f;
#X obj 295 300 fd_switch;
#X obj 350 325 switch~;
#X obj 124 591 *~;
#X connect 0 0 32 0;
#X connect 1 0 2 0;
#X connect 1 1 2 1;
#X connect 1 1 13 0;
#X connect 2 0 7 0;
#X connect 3 0 0 0;
#X connect 4 0 3 0;
#X connect 5 0 4 0;
#X connect 6 0 5 0;
#X connect 7 0 12 0;
#X connect 7 1 10 0;
#X connect 8 0 6 0;
#X connect 8 1 9 0;
#X connect 9 0 3 0;
#X connect 10 0 8 0;
#X connect 11 0 0 1;
#X connect 12 0 5 1;
#X connect 13 0 14 0;
#X connect 13 0 15 0;
#X connect 14 0 13 1;
#X connect 15 0 20 0;
#X connect 16 0 12 1;
#X connect 17 0 12 1;
#X connect 18 0 12 1;
#X connect 19 0 13 1;
#X connect 20 0 16 0;
#X connect 20 1 18 0;
#X connect 20 2 17 0;
#X connect 21 0 2 0;
#X connect 21 1 19 0;
#X connect 21 2 7 0;
#X connect 21 2 25 1;
#X connect 22 0 27 0;
#X connect 23 0 21 0;
#X connect 25 0 26 0;
#X connect 26 0 1 0;
#X connect 27 0 25 0;
#X connect 28 0 29 0;
#X connect 29 0 27 1;
#X connect 29 1 30 0;
#X connect 30 0 32 1;
#X connect 30 1 31 0;
#X connect 32 0 24 0;
#X restore 299 385 pd metronome;
#X obj 298 184 t b f b;
#X obj 300 314 tgl 15 0 empty empty empty 17 7 0 10 -262144 -1 -1 0
1;
#X connect 1 0 3 0;
#X connect 1 1 40 0;
#X connect 1 2 33 0;
#X connect 2 0 1 0;
#X connect 3 0 4 0;
#X connect 4 0 6 0;
#X connect 4 1 18 0;
#X connect 5 0 29 0;
#X connect 5 0 33 1;
#X connect 6 0 20 0;
#X connect 7 0 8 0;
#X connect 8 0 26 0;
#X connect 10 0 9 0;
#X connect 11 0 12 0;
#X connect 12 0 13 0;
#X connect 13 0 14 0;
#X connect 14 0 28 0;
#X connect 15 0 8 1;
#X connect 17 0 1 0;
#X connect 18 1 22 0;
#X connect 19 0 7 0;
#X connect 19 0 28 1;
#X connect 20 0 19 0;
#X connect 21 0 27 0;
#X connect 21 1 23 0;
#X connect 22 0 21 0;
#X connect 23 0 24 0;
#X connect 24 0 15 1;
#X connect 25 0 15 0;
#X connect 26 0 16 0;
#X connect 26 0 16 1;
#X connect 27 0 11 0;
#X connect 28 0 25 0;
#X connect 29 0 1 0;
#X connect 30 0 31 0;
#X connect 31 0 5 0;
#X connect 32 0 41 0;
#X connect 33 0 30 0;
#X connect 34 0 36 0;
#X connect 35 0 37 0;
#X connect 36 0 35 0;
#X connect 37 0 41 0;
#X connect 38 0 36 0;
#X connect 39 0 36 0;
#X connect 40 0 26 0;
#X connect 41 0 5 0;
#X connect 41 1 40 2;
#X connect 41 2 17 0;
#X connect 42 0 40 1;
