#N canvas 812 85 426 629 10;
#X declare -stdlib mrpeach;
#X obj 60 28 declare -stdlib mrpeach;
#X obj 41 183 midifile;
#X obj 7 112 bng 15 250 50 0 empty empty empty 17 7 0 10 -262144 -1
-1;
#X msg 34 61 read /Users/federicocamarahalac/Documents/fd_work/a.le.a/publish/scorefiles/elec-0.midi
;
#X obj 157 182 print 3;
#X obj 42 225 route 144;
#X obj 39 304 unpack;
#X floatatom 47 334 5 0 0 0 - - -, f 5;
#X floatatom 79 333 5 0 0 0 - - -, f 5;
#X obj 67 126 tgl 15 0 empty empty empty 17 7 0 10 -262144 -1 -1 1
1;
#X obj 67 146 metro 2;
#X obj 15 388 mtof;
#X obj 18 473 osc~;
#X obj 22 542 *~;
#X obj 315 569 fd_expo 128;
#X msg 314 550 128;
#X obj 125 414 line~;
#X obj 125 436 *~ 125;
#X obj 125 458 +~ 1;
#X obj 125 480 tabread4~ expo;
#X obj 114 573 *~;
#X obj 27 601 dac~;
#X obj 72 251 route 224;
#X msg 135 130 rewind;
#X floatatom 97 124 5 0 0 0 - - -, f 5;
#X obj 123 312 sel 0;
#X obj 49 438 line~;
#X obj 15 410 pack f 3;
#X obj 126 366 t b f;
#X obj 126 344 / 127;
#X obj 243 488 pack f 10;
#X obj 243 510 line~;
#X obj 112 547 *~ 100;
#X obj 27 579 *~ 0.5;
#X msg 124 392 0 \, 1 192;
#X obj 112 525 vcf~ 200;
#X obj 253 454 *~;
#X obj 263 108 tgl 15 0 empty empty empty 17 7 0 10 -262144 -1 -1 0
1;
#X obj 263 128 metro 1 166 permin;
#X obj 263 150 bng 15 250 50 0 empty empty empty 17 7 0 10 -262144
-1 -1;
#X obj 263 170 t b b;
#X obj 263 192 timer;
#X floatatom 263 214 5 0 0 0 - - -, f 5;
#X obj 268 394 line~;
#X msg 268 359 0 \$1;
#X obj 267 336 f;
#X obj 267 315 del;
#X obj 264 242 t f f;
#X obj 294 313 t f f;
#X msg 304 358 1 \$1;
#X floatatom 338 270 5 0 0 0 - - -, f 5;
#X obj 294 291 * 0.05;
#X obj 339 291 t f f;
#X msg 338 311 1 \$1;
#X obj 338 333 -;
#X floatatom 318 177 5 0 0 0 - - -, f 5;
#X obj 318 155 * 2;
#X obj 318 196 * 18;
#X floatatom 318 218 5 0 0 0 - - -, f 5;
#X msg 211 138 8;
#X obj 211 160 * 18;
#X floatatom 211 182 5 0 0 0 - - -, f 5;
#X obj 211 201 * 4;
#X floatatom 211 223 5 0 0 0 - - -, f 5;
#X obj 138 233 mod 144;
#X obj 138 255 sel 0;
#X obj 138 277 bng 15 250 50 0 empty empty empty 17 7 0 10 -262144
-1 -1;
#X obj 176 283 t b b;
#X obj 176 305 timer;
#X floatatom 176 327 5 0 0 0 - - -, f 5;
#X obj 271 434 osc~ 220;
#X obj 252 294 * 0.1;
#X obj 345 376 f;
#X obj 369 377 + 1;
#X obj 345 398 mod 4;
#X msg 345 442 0.9;
#X msg 360 491 0.2;
#X obj 345 420 sel 0 2;
#X msg 365 466 0.4;
#X obj 7 132 del 2000;
#X connect 1 0 5 0;
#X connect 1 1 64 0;
#X connect 1 2 4 0;
#X connect 2 0 79 0;
#X connect 3 0 1 0;
#X connect 5 0 6 0;
#X connect 5 1 22 0;
#X connect 6 0 7 0;
#X connect 6 0 11 0;
#X connect 6 1 25 0;
#X connect 6 1 8 0;
#X connect 9 0 10 0;
#X connect 10 0 1 0;
#X connect 11 0 27 0;
#X connect 12 0 13 0;
#X connect 13 0 33 0;
#X connect 15 0 14 0;
#X connect 16 0 17 0;
#X connect 17 0 18 0;
#X connect 18 0 19 0;
#X connect 19 0 35 0;
#X connect 20 0 13 1;
#X connect 23 0 1 0;
#X connect 24 0 10 1;
#X connect 25 1 29 0;
#X connect 26 0 12 0;
#X connect 26 0 35 1;
#X connect 27 0 26 0;
#X connect 28 0 34 0;
#X connect 28 1 30 0;
#X connect 29 0 28 0;
#X connect 30 0 31 0;
#X connect 31 0 20 1;
#X connect 32 0 20 0;
#X connect 33 0 21 0;
#X connect 33 0 21 1;
#X connect 34 0 16 0;
#X connect 35 0 32 0;
#X connect 36 0 33 0;
#X connect 37 0 38 0;
#X connect 38 0 39 0;
#X connect 39 0 40 0;
#X connect 40 0 41 0;
#X connect 40 1 41 1;
#X connect 40 1 72 0;
#X connect 41 0 42 0;
#X connect 41 0 56 0;
#X connect 42 0 47 0;
#X connect 43 0 36 0;
#X connect 44 0 43 0;
#X connect 45 0 44 0;
#X connect 46 0 45 0;
#X connect 47 0 71 0;
#X connect 47 1 51 0;
#X connect 48 0 46 0;
#X connect 48 1 49 0;
#X connect 49 0 43 0;
#X connect 50 0 52 0;
#X connect 51 0 48 0;
#X connect 52 0 53 0;
#X connect 52 1 71 1;
#X connect 53 0 54 0;
#X connect 54 0 51 1;
#X connect 55 0 57 0;
#X connect 56 0 55 0;
#X connect 57 0 58 0;
#X connect 59 0 60 0;
#X connect 60 0 61 0;
#X connect 61 0 62 0;
#X connect 62 0 63 0;
#X connect 64 0 65 0;
#X connect 65 0 66 0;
#X connect 66 0 67 0;
#X connect 67 0 68 0;
#X connect 67 1 68 1;
#X connect 67 1 40 0;
#X connect 68 0 69 0;
#X connect 70 0 36 1;
#X connect 71 0 45 1;
#X connect 72 0 73 0;
#X connect 72 0 74 0;
#X connect 73 0 72 1;
#X connect 74 0 77 0;
#X connect 75 0 71 1;
#X connect 76 0 71 1;
#X connect 77 0 75 0;
#X connect 77 1 78 0;
#X connect 77 2 76 0;
#X connect 78 0 71 1;
#X connect 79 0 9 0;
