#N canvas 539 214 618 416 10;
#X obj 48 188 list prepend send;
#X obj 48 210 list trim;
#X obj 48 264 netsend;
#X msg 166 257 connect localhost 3001;
#X floatatom 48 286 5 0 0 0 - - -, f 5;
#X obj 51 78 readsf~ 8, f 28;
#X msg 51 30 open /Users/federicocamarahalac/Documents/fd_work/a.le.a-audios/0-audio/24-raw-rec-8ch.wav
\, 1;
#X obj 48 115 sigmund~ -npeak 10 -maxfreq 4000 peaks;
#X obj 48 137 spigot 1;
#X obj 301 184 t b b;
#X msg 399 170 0;
#X obj 48 159 t a a;
#X obj 298 137 list split 1;
#X obj 298 159 sel 9;
#X obj 300 272 del 100;
#X msg 241 184 1;
#X obj 301 206 random 1000;
#X obj 301 228 + 10;
#X connect 0 0 1 0;
#X connect 1 0 2 0;
#X connect 2 0 4 0;
#X connect 3 0 2 0;
#X connect 5 0 7 0;
#X connect 5 1 7 0;
#X connect 5 2 7 0;
#X connect 5 3 7 0;
#X connect 5 4 7 0;
#X connect 5 5 7 0;
#X connect 5 6 7 0;
#X connect 5 7 7 0;
#X connect 5 8 6 0;
#X connect 6 0 5 0;
#X connect 7 0 8 0;
#X connect 8 0 11 0;
#X connect 9 0 16 0;
#X connect 9 1 10 0;
#X connect 10 0 8 1;
#X connect 11 0 0 0;
#X connect 11 1 12 0;
#X connect 12 0 13 0;
#X connect 13 0 9 0;
#X connect 14 0 15 0;
#X connect 15 0 8 1;
#X connect 16 0 17 0;
#X connect 17 0 14 0;
