#N canvas 590 142 662 502 12;
#X obj 61 93 unpack f f f f, f 16;
#X obj 165 124 atan2;
#X obj 96 124 rmstodb;
#X obj 96 149 fd_norm;
#X obj 37 130 ftom;
#X obj 165 149 fd_norm;
#X obj 84 20 inlet;
#X obj 33 412 outlet;
#X obj 96 174 - 0.5;
#X msg 39 368 \$3 \$2 \$1;
#X obj 180 195 * 4;
#X obj 34 206 * 4;
#X obj 96 199 * 8;
#X obj 229 12 inlet;
#X obj 229 37 unpack f f f;
#X obj 374 11 inlet;
#X obj 37 154 / 100;
#X obj 39 343 pack 1 1 1;
#X connect 0 0 4 0;
#X connect 0 1 2 0;
#X connect 0 2 1 0;
#X connect 0 3 1 1;
#X connect 1 0 5 0;
#X connect 2 0 3 0;
#X connect 3 0 8 0;
#X connect 4 0 16 0;
#X connect 5 1 10 0;
#X connect 6 0 0 0;
#X connect 8 0 12 0;
#X connect 9 0 7 0;
#X connect 10 0 17 2;
#X connect 11 0 17 0;
#X connect 12 0 17 1;
#X connect 13 0 14 0;
#X connect 14 0 10 1;
#X connect 14 1 12 1;
#X connect 14 2 11 1;
#X connect 15 0 9 0;
#X connect 16 0 11 0;
#X connect 17 0 9 0;
