#N canvas 227 22 956 716 12;
#X obj 335 34 r fader-0;
#X obj 304 155 vline~;
#X obj 186 508 phasor~;
#X obj 188 555 -~;
#X obj 187 579 cos~;
#X obj 575 33 r knob-0;
#X obj 575 108 line~;
#X obj 295 533 phasor~;
#X obj 294 561 -~;
#X obj 293 585 cos~;
#X obj 678 107 line~;
#X obj 390 534 phasor~;
#X obj 389 562 -~;
#X obj 388 586 cos~;
#X obj 770 109 line~;
#X obj 493 533 phasor~;
#X obj 492 561 -~;
#X obj 491 585 cos~;
#X obj 876 107 line~;
#X obj 678 32 r knob-1;
#X obj 773 33 r knob-2;
#X obj 876 32 r knob-3;
#X obj 693 552 phasor~;
#X obj 692 580 -~;
#X obj 691 604 cos~;
#X obj 786 564 phasor~;
#X obj 785 592 -~;
#X obj 784 616 cos~;
#X obj 889 563 phasor~;
#X obj 888 591 -~;
#X obj 887 615 cos~;
#X obj 1004 570 phasor~;
#X obj 1003 598 -~;
#X obj 1002 622 cos~;
#X obj 931 256 -~;
#X obj 1025 252 -~;
#X obj 1128 256 -~;
#X obj 1230 258 -~;
#X obj 320 793 *~;
#X obj 353 793 *~;
#X obj 386 794 *~;
#X obj 419 794 *~;
#X obj 332 644 r fader-1;
#X msg 331 720 \$1 10;
#X obj 333 743 vline~;
#X msg 407 721 \$1 10;
#X obj 409 744 vline~;
#X msg 486 721 \$1 10;
#X obj 488 744 vline~;
#X msg 562 722 \$1 10;
#X obj 564 745 vline~;
#X obj 651 789 *~;
#X obj 684 789 *~;
#X obj 717 790 *~;
#X obj 750 790 *~;
#X msg 662 716 \$1 10;
#X obj 664 739 vline~;
#X msg 738 717 \$1 10;
#X obj 740 740 vline~;
#X msg 817 717 \$1 10;
#X obj 819 740 vline~;
#X msg 893 718 \$1 10;
#X obj 895 741 vline~;
#X obj 410 668 r fader-2;
#X obj 489 668 r fader-3;
#X obj 565 669 r fader-4;
#X obj 665 662 r fader-5;
#X obj 740 661 r fader-6;
#X obj 820 664 r fader-7;
#X obj 896 665 r fader-8;
#X obj 356 871 +~;
#X obj 334 692 / 127;
#X obj 410 693 / 127;
#X obj 489 693 / 127;
#X obj 565 694 / 127;
#X obj 665 687 / 127;
#X obj 740 686 / 127;
#X obj 820 689 / 127;
#X obj 896 690 / 127;
#X obj 931 231 sig~ 1;
#X obj 1025 227 sig~ 1;
#X obj 1128 231 sig~ 1;
#X obj 1230 233 sig~ 1;
#X obj 179 404 *~;
#X obj 285 427 *~;
#X obj 402 445 *~;
#X obj 498 429 *~;
#X obj 688 496 *~;
#X obj 771 452 *~;
#X obj 866 445 *~;
#X obj 941 448 *~;
#X obj 191 463 mtof~;
#X obj 306 485 mtof~;
#X obj 412 494 mtof~;
#X obj 499 484 mtof~;
#X obj 688 521 mtof~;
#X obj 771 477 mtof~;
#X obj 866 471 mtof~;
#X obj 941 473 mtof~;
#X floatatom 343 668 5 0 0 0 - - -, f 5;
#X msg 575 83 \$1 10;
#X msg 678 82 \$1 10;
#X msg 773 83 \$1 10;
#X msg 876 82 \$1 10;
#X obj 575 58 * 0.01;
#X obj 678 57 * 0.01;
#X obj 773 58 * 0.01;
#X obj 876 57 * 0.01;
#X obj 227 42 notein;
#X obj 292 99 +;
#X obj 293 123 pack f 10;
#X obj 328 65 t b f, f 6;
#X obj 285 402 *~ 1.3;
#X obj 391 411 *~ 1.5;
#X obj 498 404 *~ 1.7;
#X obj 688 471 *~ 2.1;
#X obj 771 426 *~ 2.4;
#X obj 866 421 *~ 2.65;
#X obj 941 423 *~ 2.78;
#X obj 227 67 / 127;
#X obj 227 92 * 321;
#X obj 74 798 tabwrite~ vocode;
#X obj 48 650 inlet;
#X obj 125 748 *~;
#X obj 125 723 rfft~;
#X obj 158 749 *~;
#X obj 125 773 sqrt~;
#X obj 48 675 switch~ 2048;
#X connect 0 0 111 0;
#X connect 1 0 83 0;
#X connect 1 0 112 0;
#X connect 1 0 113 0;
#X connect 1 0 114 0;
#X connect 1 0 115 0;
#X connect 1 0 116 0;
#X connect 1 0 117 0;
#X connect 1 0 118 0;
#X connect 2 0 3 0;
#X connect 3 0 4 0;
#X connect 4 0 38 0;
#X connect 5 0 104 0;
#X connect 6 0 34 1;
#X connect 6 0 83 1;
#X connect 6 0 87 1;
#X connect 7 0 8 0;
#X connect 8 0 9 0;
#X connect 9 0 39 0;
#X connect 10 0 3 1;
#X connect 10 0 35 1;
#X connect 10 0 84 1;
#X connect 10 0 88 1;
#X connect 11 0 12 0;
#X connect 12 0 13 0;
#X connect 13 0 40 0;
#X connect 14 0 8 1;
#X connect 14 0 36 1;
#X connect 14 0 85 1;
#X connect 14 0 89 1;
#X connect 15 0 16 0;
#X connect 16 0 17 0;
#X connect 17 0 41 0;
#X connect 18 0 12 1;
#X connect 18 0 37 1;
#X connect 18 0 86 1;
#X connect 18 0 90 1;
#X connect 19 0 105 0;
#X connect 20 0 106 0;
#X connect 21 0 107 0;
#X connect 22 0 23 0;
#X connect 23 0 24 0;
#X connect 24 0 51 0;
#X connect 25 0 26 0;
#X connect 26 0 27 0;
#X connect 27 0 52 0;
#X connect 28 0 29 0;
#X connect 29 0 30 0;
#X connect 30 0 53 0;
#X connect 31 0 32 0;
#X connect 32 0 33 0;
#X connect 33 0 54 0;
#X connect 34 0 23 1;
#X connect 35 0 26 1;
#X connect 36 0 29 1;
#X connect 37 0 32 1;
#X connect 38 0 70 1;
#X connect 39 0 70 1;
#X connect 40 0 70 1;
#X connect 41 0 70 1;
#X connect 42 0 71 0;
#X connect 42 0 99 0;
#X connect 43 0 44 0;
#X connect 44 0 38 1;
#X connect 45 0 46 0;
#X connect 46 0 39 1;
#X connect 47 0 48 0;
#X connect 48 0 40 1;
#X connect 49 0 50 0;
#X connect 50 0 41 1;
#X connect 51 0 70 1;
#X connect 52 0 70 1;
#X connect 53 0 70 1;
#X connect 54 0 70 1;
#X connect 55 0 56 0;
#X connect 56 0 51 1;
#X connect 57 0 58 0;
#X connect 58 0 52 1;
#X connect 59 0 60 0;
#X connect 60 0 53 1;
#X connect 61 0 62 0;
#X connect 62 0 54 1;
#X connect 63 0 72 0;
#X connect 64 0 73 0;
#X connect 65 0 74 0;
#X connect 66 0 75 0;
#X connect 67 0 76 0;
#X connect 68 0 77 0;
#X connect 69 0 78 0;
#X connect 70 0 124 0;
#X connect 71 0 43 0;
#X connect 72 0 45 0;
#X connect 73 0 47 0;
#X connect 74 0 49 0;
#X connect 75 0 55 0;
#X connect 76 0 57 0;
#X connect 77 0 59 0;
#X connect 78 0 61 0;
#X connect 79 0 34 0;
#X connect 80 0 35 0;
#X connect 81 0 36 0;
#X connect 82 0 37 0;
#X connect 83 0 91 0;
#X connect 84 0 92 0;
#X connect 85 0 93 0;
#X connect 86 0 94 0;
#X connect 87 0 95 0;
#X connect 88 0 96 0;
#X connect 89 0 97 0;
#X connect 90 0 98 0;
#X connect 91 0 2 0;
#X connect 92 0 7 0;
#X connect 93 0 11 0;
#X connect 94 0 15 0;
#X connect 95 0 22 0;
#X connect 96 0 25 0;
#X connect 97 0 28 0;
#X connect 98 0 31 0;
#X connect 100 0 6 0;
#X connect 101 0 10 0;
#X connect 102 0 14 0;
#X connect 103 0 18 0;
#X connect 104 0 100 0;
#X connect 105 0 101 0;
#X connect 106 0 102 0;
#X connect 107 0 103 0;
#X connect 108 0 119 0;
#X connect 109 0 110 0;
#X connect 110 0 1 0;
#X connect 111 0 109 0;
#X connect 111 1 109 1;
#X connect 112 0 84 0;
#X connect 113 0 85 0;
#X connect 114 0 86 0;
#X connect 115 0 87 0;
#X connect 116 0 88 0;
#X connect 117 0 89 0;
#X connect 118 0 90 0;
#X connect 119 0 120 0;
#X connect 120 0 109 0;
#X connect 122 0 121 0;
#X connect 122 0 127 0;
#X connect 123 0 126 0;
#X connect 124 0 123 0;
#X connect 124 0 123 1;
#X connect 124 1 125 0;
#X connect 124 1 125 1;
#X connect 125 0 126 0;
#X connect 126 0 121 0;
