#N canvas 0 22 450 300 12;
#X obj 78 53 unpack f f f f, f 16;
#X obj 182 84 atan2;
#X obj 113 84 rmstodb;
#X obj 113 109 fd_norm;
#X obj 54 114 / 127;
#X obj 54 90 ftom;
#X obj 182 109 fd_norm;
#X obj 54 139 * 20;
#X obj 113 134 - 0.5;
#X obj 113 159 * 8;
#X obj 197 155 * 4;
#X obj 89 201 pack f f f;
#X obj 84 20 inlet;
#X obj 89 226 outlet;
#X connect 0 0 5 0;
#X connect 0 1 2 0;
#X connect 0 2 1 0;
#X connect 0 3 1 1;
#X connect 1 0 6 0;
#X connect 2 0 3 0;
#X connect 3 0 8 0;
#X connect 4 0 7 0;
#X connect 5 0 4 0;
#X connect 6 1 10 0;
#X connect 7 0 11 0;
#X connect 8 0 9 0;
#X connect 9 0 11 1;
#X connect 10 0 11 2;
#X connect 11 0 13 0;
#X connect 12 0 0 0;
