#N canvas 197 57 543 428 12;
#X obj 26 101 inlet~;
#X obj 26 295 *~;
#X obj 446 323 switch~;
#X obj 26 350 *~;
#X obj 132 353 *~;
#X obj 297 278 fd_switch;
#X obj 353 155 inlet switch;
#X text 386 247 soft switch;
#X text 258 377 see here -->;
#X text 22 16 [_spat] has 2 cloned lorenz instances in [_lspace] to
make a chaotic-like spatialization (sqrt panning);
#X obj 26 378 throw~ 1-\$1;
#X obj 132 377 throw~ 2-\$1;
#X obj 58 295 *~;
#X obj 38 181 cos~;
#X obj 38 206 *~ 0.5;
#X obj 38 231 +~ 0.5;
#X obj 172 161 lor8~;
#X obj 241 127 +~ 2.6667;
#X obj 237 101 +~ 32;
#X obj 186 96 +~ 10;
#X obj 102 241 +~ 0.5;
#X obj 102 216 *~ -0.5;
#X obj 106 191 cos~;
#X obj 186 192 cos~;
#X obj 26 126 *~;
#X obj 168 63 +~ 1.8e-06;
#X obj 333 54 osc~ 0.01;
#X obj 333 79 *~ 0.5;
#X obj 333 104 +~ 0.5;
#X obj 333 129 *~ 1e-06;
#X obj 246 178 delwrite~ \$0-dl 1230;
#X obj 421 78 delread4~ \$0-dl;
#X obj 421 103 cos~;
#X obj 38 256 *~;
#X obj 102 266 *~;
#X obj 182 267 *~;
#X obj 182 217 *~ 0.3;
#X obj 182 242 +~ 0.3;
#X obj 182 292 *~;
#X obj 421 128 *~ 0.2;
#X connect 0 0 24 0;
#X connect 1 0 3 0;
#X connect 3 0 10 0;
#X connect 4 0 11 0;
#X connect 5 0 3 1;
#X connect 5 0 4 1;
#X connect 5 1 2 0;
#X connect 6 0 5 0;
#X connect 12 0 4 0;
#X connect 13 0 14 0;
#X connect 14 0 15 0;
#X connect 15 0 33 0;
#X connect 15 0 33 1;
#X connect 16 0 13 0;
#X connect 16 1 22 0;
#X connect 16 2 23 0;
#X connect 16 3 30 0;
#X connect 17 0 16 3;
#X connect 18 0 16 2;
#X connect 19 0 16 1;
#X connect 20 0 34 0;
#X connect 20 0 34 1;
#X connect 21 0 20 0;
#X connect 22 0 21 0;
#X connect 23 0 36 0;
#X connect 24 0 1 0;
#X connect 24 0 12 0;
#X connect 25 0 16 0;
#X connect 26 0 27 0;
#X connect 27 0 28 0;
#X connect 28 0 29 0;
#X connect 29 0 25 0;
#X connect 31 0 32 0;
#X connect 32 0 39 0;
#X connect 33 0 1 1;
#X connect 34 0 12 1;
#X connect 35 0 38 0;
#X connect 35 0 38 1;
#X connect 36 0 37 0;
#X connect 37 0 35 0;
#X connect 37 0 35 1;
#X connect 38 0 24 1;
#X connect 39 0 26 0;
