#N canvas 198 22 545 284 10;
#X obj 10 6 cnv 15 200 170 empty empty empty 20 12 0 14 -233017 -66577
0;
#X obj 14 82 tgl 30 0 empty empty monitor 34 15 0 14 -262144 -1 -1
0 1;
#X obj 14 15 tgl 30 0 empty empty enable 35 15 0 14 -262144 -1 -1 0
1;
#X obj 14 48 tgl 30 0 empty empty analysis 34 15 0 14 -262144 -1 -1
0 1;
#X obj 130 30 _monitor-out 1;
#X obj 13 152 fd_cputime;
#X obj 14 134 bng 15 50 10 0 panic empty panic 17 7 0 10 -258113 -1
-1;
#X obj 102 156 fd_stopwatch;
#X obj 121 212 s panic;
#X obj 23 242 s enable-adc-dac;
#X obj 186 244 s analysis;
#X obj 268 239 s monitor;
#X obj 167 30 _monitor-out 2;
#X obj 245 10 bng 15 250 50 0 start-all empty start-all 17 7 0 10 -262144
-1 -1;
#X obj 319 10 bng 15 250 50 0 stop-all empty stop-all 17 7 0 10 -262144
-1 -1;
#X obj 62 134 tgl 15 0 hitpanic empty hitpanic 17 7 0 10 -262144 -1
-1 0 1;
#X obj 281 116 r monitor-set;
#X obj 273 91 r enable-adc-dac-set;
#X obj 15 115 nbx 2 16 0 99 0 0 empty empty silence-thres 30 8 0 10
-262144 -1 -1 59 256;
#X obj 323 197 s silence-thres;
#X obj 413 29 loadbang;
#X msg 397 54 59;
#X msg 434 75 set \$1;
#X obj 423 157 switch~;
#X obj 172 10 tgl 15 0 empty empty dsp 17 7 0 10 -262144 -1 -1 0 1
;
#X obj 423 135 fd_dspon;
#X connect 1 0 11 0;
#X connect 2 0 9 0;
#X connect 3 0 10 0;
#X connect 6 0 8 0;
#X connect 16 0 1 0;
#X connect 17 0 2 0;
#X connect 18 0 19 0;
#X connect 18 0 22 0;
#X connect 20 0 21 0;
#X connect 21 0 18 0;
#X connect 22 0 21 0;
#X connect 24 0 25 0;
#X connect 25 0 23 0;
#X connect 25 1 24 0;
#X coords 0 -1 1 1 200 170 2 10 6;
