#N canvas 0 22 302 290 10;
#X obj 60 86 unpack f f f;
#X obj 60 61 lorenz;
#X obj 60 33 inlet;
#X obj 60 132 outlet;
#X obj 103 132 outlet;
#X obj 147 132 outlet;
#X obj 173 93 r flushit;
#X obj 60 110 fd_norm;
#X obj 94 110 fd_norm;
#X obj 129 110 fd_norm;
#X connect 0 0 7 0;
#X connect 0 1 8 0;
#X connect 0 2 9 0;
#X connect 1 0 0 0;
#X connect 2 0 1 0;
#X connect 6 0 7 0;
#X connect 6 0 8 0;
#X connect 6 0 9 0;
#X connect 7 0 3 0;
#X connect 8 0 4 0;
#X connect 9 0 5 0;
