#N canvas 0 22 450 300 12;
#X obj 127 12 r specdelay;
#X obj 355 153 switch~;
#X obj 227 15 inlet;
#X obj 37 98 _spdel \$1;
#X obj 127 41 route params switch;
#X obj 37 28 r~ adc-\$1;
#X obj 91 191 _phspat;
#X obj 265 107 fd_switch;
#X connect 0 0 4 0;
#X connect 2 0 4 0;
#X connect 3 0 6 0;
#X connect 4 0 3 1;
#X connect 4 1 7 0;
#X connect 4 2 6 1;
#X connect 5 0 3 0;
#X connect 7 0 6 2;
#X connect 7 1 1 0;
