#N canvas 514 66 516 414 10;
#X declare -path ~/Documents/fd_lib;
#X declare -path ~/Documents/dep_lib/notes_lib;
#X obj 124 133 sel 0 1 2, f 10;
#X obj 119 31 inlet;
#N canvas 90 20 354 411 complex-event 0;
#X obj 50 16 inlet;
#X obj 251 333 outlet;
#X obj 48 49 random 3;
#X obj 46 93 sel 0 1 2;
#N canvas 209 32 300 458 frullato 0;
#X obj 36 10 inlet;
#X obj 42 148 random 100;
#X obj 42 171 fd_gauss 50 5 0.02;
#X obj 40 104 / 10;
#X obj 40 126 t b f;
#X obj 47 258 * 13;
#X obj 45 344 list prepend -pit;
#X obj 45 396 list append -nhs 0;
#X obj 45 418 list append -txt frull.;
#X obj 45 440 outlet;
#X obj 77 38 r \$0-en;
#X obj 40 82 f;
#X obj 45 366 list append -trm 32;
#X obj 46 280 + \$3;
#X obj 46 302 max \$3;
#X obj 46 324 min \$2;
#X obj 42 216 fd_round 0.5 10;
#X connect 0 0 11 0;
#X connect 1 0 2 0;
#X connect 2 0 16 0;
#X connect 3 0 4 0;
#X connect 4 0 1 0;
#X connect 4 1 2 2;
#X connect 5 0 13 0;
#X connect 6 0 12 0;
#X connect 7 0 8 0;
#X connect 8 0 9 0;
#X connect 10 0 11 1;
#X connect 11 0 3 0;
#X connect 12 0 7 0;
#X connect 13 0 14 0;
#X connect 14 0 15 0;
#X connect 15 0 6 0;
#X connect 16 0 5 0;
#X restore 153 178 pd frullato;
#N canvas 341 38 418 718 sing 0;
#X obj 43 301 random 100;
#X obj 43 344 fd_gauss 50 5 0.02;
#X obj 346 318 * 3;
#X obj 50 431 * 12;
#X obj 171 303 random 100;
#X obj 171 346 fd_gauss 50 5 0.02;
#X obj 65 502 +;
#X obj 143 543 t f f;
#X obj 130 163 cos;
#X obj 130 185 * 0.5;
#X obj 130 207 + 0.5;
#X obj 59 115 * 6.28;
#X obj 58 135 t f f;
#X obj 57 195 * 0.5;
#X obj 57 217 + 0.5;
#X obj 57 173 sin;
#X obj 69 531 pack;
#X obj 74 15 inlet;
#X obj 83 649 outlet;
#X obj 142 231 t b f;
#X obj 57 239 t b f;
#X obj 65 92 t f f;
#X obj 132 425 * 13;
#X obj 68 569 list prepend -pit;
#X obj 66 593 list append -nhs 0;
#X obj 66 615 list append -txt sing;
#X obj 50 453 + 1;
#X obj 78 452 max 1;
#X obj 78 474 min 12;
#X obj 74 66 / 100;
#X obj 43 323 / 1;
#X obj 171 325 / 1;
#X obj 344 295 / 1;
#X obj 90 261 * 12;
#X obj 190 260 * 12;
#X obj 127 15 r \$0-en;
#X obj 74 44 f;
#X obj 189 472 t f b;
#X obj 255 487 - 12;
#X obj 346 340 + \$3;
#X obj 131 447 + \$3;
#X obj 189 450 max \$3;
#X obj 255 465 f \$2;
#X obj 213 503 min;
#X obj 43 389 fd_round 0.5 10;
#X obj 171 391 fd_round 0.5 10;
#X connect 0 0 30 0;
#X connect 1 0 44 0;
#X connect 2 0 39 0;
#X connect 3 0 26 0;
#X connect 4 0 31 0;
#X connect 5 0 45 0;
#X connect 6 0 16 0;
#X connect 7 0 6 1;
#X connect 7 1 16 1;
#X connect 8 0 9 0;
#X connect 9 0 10 0;
#X connect 10 0 19 0;
#X connect 11 0 12 0;
#X connect 12 0 15 0;
#X connect 12 1 8 0;
#X connect 13 0 14 0;
#X connect 14 0 20 0;
#X connect 15 0 13 0;
#X connect 16 0 23 0;
#X connect 17 0 36 0;
#X connect 19 0 4 0;
#X connect 19 1 34 0;
#X connect 20 0 0 0;
#X connect 20 1 33 0;
#X connect 21 0 11 0;
#X connect 21 1 32 0;
#X connect 22 0 40 0;
#X connect 23 0 24 0;
#X connect 24 0 25 0;
#X connect 25 0 18 0;
#X connect 26 0 27 0;
#X connect 27 0 28 0;
#X connect 28 0 6 0;
#X connect 29 0 21 0;
#X connect 30 0 1 0;
#X connect 31 0 5 0;
#X connect 32 0 2 0;
#X connect 33 0 1 2;
#X connect 34 0 5 2;
#X connect 35 0 36 1;
#X connect 36 0 29 0;
#X connect 37 0 43 0;
#X connect 37 1 42 0;
#X connect 38 0 43 1;
#X connect 39 0 40 1;
#X connect 40 0 41 0;
#X connect 41 0 37 0;
#X connect 42 0 38 0;
#X connect 43 0 7 0;
#X connect 44 0 3 0;
#X connect 45 0 22 0;
#X restore 259 178 pd sing;
#X obj 86 337 outlet;
#X obj 46 142 random 2;
#X obj 46 164 * 6;
#X obj 37 197 _trino \$2 \$3 \$4;
#X connect 0 0 2 0;
#X connect 2 0 3 0;
#X connect 3 0 7 0;
#X connect 3 1 4 0;
#X connect 3 2 5 0;
#X connect 4 0 6 0;
#X connect 5 0 6 0;
#X connect 7 0 8 0;
#X connect 8 0 9 0;
#X connect 9 0 6 0;
#X connect 9 1 1 0;
#X restore 244 162 pd complex-event;
#N canvas 296 22 942 700 simple-event 0;
#X obj 142 66 fd_r 0 1 2 3 6;
#X obj 189 300 random 100;
#X obj 189 323 fd_gauss 50 5 0.02;
#X obj 90 129 list prepend -nhs;
#X obj 142 100 t a a;
#X obj 439 543 list prepend -pit;
#X obj 127 624 list prepend;
#X msg 347 349 13;
#X msg 493 490 60;
#X obj 340 135 t b b b;
#X obj 286 134 t b b b;
#X obj 440 571 list append, f 25;
#X obj 667 511 list prepend -txt;
#X msg 560 424 symbol B.P.;
#X msg 584 501 bang;
#X obj 401 134 t b b b;
#X msg 598 331 symbol T.R.;
#X msg 632 266 symbol slap;
#X obj 451 134 t b b b;
#X obj 305 99 sel 0 6 1 3 2, f 41;
#X obj 236 236 / 10;
#X obj 239 260 t b f f;
#X obj 417 387 / 10;
#X obj 419 410 * 3;
#X obj 153 28 inlet;
#X obj 127 646 outlet;
#X text 648 188 text information;
#X text 97 50 notehead information;
#X text 390 71 notehead determines type of event and pitch range;
#X text 225 455 range;
#X text 344 426 maxima;
#X text 298 82 pitch (0) \, breathed-pitch (6) \, tongue-ram (1) \,
slap (3) \, breath (2), f 68;
#N canvas 769 109 450 300 restrict 0;
#X obj 57 7 inlet;
#X obj 107 214 outlet;
#X obj 57 29 sel 1 3;
#X obj 57 108 spigot 1;
#X msg 93 129 0;
#X obj 127 108 spigot 1;
#X msg 163 129 0;
#X obj 315 80 t a b;
#X obj 337 123 f;
#X obj 361 125 + 1;
#X obj 389 125 mod 5;
#X obj 321 194 sel 4;
#X msg 321 216 1;
#X obj 57 130 t b b;
#X msg 57 152 1;
#X msg 123 157 3;
#X obj 127 130 t b b;
#X connect 0 0 2 0;
#X connect 2 0 3 0;
#X connect 2 1 5 0;
#X connect 2 2 7 0;
#X connect 3 0 13 0;
#X connect 4 0 3 1;
#X connect 5 0 16 0;
#X connect 6 0 5 1;
#X connect 7 0 1 0;
#X connect 7 1 8 0;
#X connect 8 0 9 0;
#X connect 8 0 11 0;
#X connect 9 0 10 0;
#X connect 10 0 8 1;
#X connect 11 0 12 0;
#X connect 12 0 5 1;
#X connect 12 0 3 1;
#X connect 13 0 14 0;
#X connect 13 1 4 0;
#X connect 14 0 1 0;
#X connect 15 0 1 0;
#X connect 16 0 15 0;
#X connect 16 1 6 0;
#X restore 303 42 pd restrict;
#X text 379 42 disable consecutive T.R. or slaps;
#X obj 224 167 r \$0-en;
#X obj 236 214 f;
#X obj 240 438 * \$4;
#X obj 312 351 f \$4;
#X obj 419 432 + \$3;
#X obj 350 452 + \$3;
#X obj 350 474 min \$2;
#X obj 350 496 max \$3;
#X obj 620 239 fd_once;
#X obj 571 279 fd_once;
#X obj 536 332 fd_once;
#X obj 507 133 t b b;
#X msg 670 373 symbol sim;
#X obj 670 395 t b a;
#X obj 701 469 symbol;
#X obj 670 417 fd_once;
#X obj 716 279 route 1;
#X obj 715 253 fd_r 1 a e i o u;
#X msg 716 301 symbol sh;
#X obj 189 368 fd_round 0.5 10;
#X connect 0 0 4 0;
#X connect 1 0 2 0;
#X connect 2 0 53 0;
#X connect 3 0 6 0;
#X connect 4 0 3 0;
#X connect 4 1 32 0;
#X connect 5 0 11 0;
#X connect 6 0 25 0;
#X connect 7 0 36 1;
#X connect 8 0 5 0;
#X connect 9 0 35 0;
#X connect 9 1 37 0;
#X connect 9 2 44 0;
#X connect 10 0 35 0;
#X connect 10 1 37 0;
#X connect 10 2 14 0;
#X connect 10 2 42 1;
#X connect 10 2 43 1;
#X connect 10 2 44 1;
#X connect 10 2 49 1;
#X connect 11 0 6 1;
#X connect 12 0 11 1;
#X connect 13 0 12 0;
#X connect 14 0 11 1;
#X connect 15 0 35 0;
#X connect 15 1 7 0;
#X connect 15 2 43 0;
#X connect 16 0 12 0;
#X connect 17 0 12 0;
#X connect 18 0 35 0;
#X connect 18 1 7 0;
#X connect 18 2 42 0;
#X connect 19 0 10 0;
#X connect 19 1 9 0;
#X connect 19 2 15 0;
#X connect 19 3 18 0;
#X connect 19 4 45 0;
#X connect 20 0 21 0;
#X connect 21 0 1 0;
#X connect 21 1 2 2;
#X connect 21 2 22 0;
#X connect 22 0 23 0;
#X connect 23 0 38 0;
#X connect 24 0 0 0;
#X connect 32 0 19 0;
#X connect 34 0 35 1;
#X connect 35 0 20 0;
#X connect 36 0 39 0;
#X connect 37 0 36 1;
#X connect 38 0 39 1;
#X connect 39 0 40 0;
#X connect 40 0 41 0;
#X connect 41 0 5 0;
#X connect 42 0 17 0;
#X connect 42 0 43 1;
#X connect 42 0 44 1;
#X connect 42 0 49 1;
#X connect 42 1 46 0;
#X connect 43 0 16 0;
#X connect 43 0 42 1;
#X connect 43 0 44 1;
#X connect 43 0 49 1;
#X connect 43 1 46 0;
#X connect 44 0 13 0;
#X connect 44 0 43 1;
#X connect 44 0 42 1;
#X connect 44 0 49 1;
#X connect 44 1 46 0;
#X connect 45 0 8 0;
#X connect 45 1 51 0;
#X connect 45 1 42 1;
#X connect 45 1 43 1;
#X connect 45 1 44 1;
#X connect 45 1 49 1;
#X connect 46 0 47 0;
#X connect 47 0 49 0;
#X connect 47 1 48 1;
#X connect 48 0 12 0;
#X connect 49 0 48 0;
#X connect 49 1 14 0;
#X connect 50 0 52 0;
#X connect 50 1 12 0;
#X connect 51 0 50 0;
#X connect 52 0 12 0;
#X connect 53 0 36 0;
#X restore 131 161 pd simple-event;
#N canvas 0 22 450 300 silence 0;
#X obj 33 123 list append -1;
#X obj 33 145 list prepend -pit;
#X obj 36 72 inlet;
#X obj 33 167 outlet;
#X connect 0 0 1 0;
#X connect 1 0 3 0;
#X connect 2 0 0 0;
#X restore 30 165 pd silence;
#X obj 374 26 inlet;
#X obj 417 79 s \$0-en;
#X obj 417 55 * 100;
#X obj 16 7 declare -path ~/Documents/fd_lib;
#X obj 84 359 outlet;
#X obj 136 103 fd_listout;
#X obj 101 80 list split 1;
#X obj 91 328 list prepend i\$1 input;
#X obj 119 53 route \$1 7;
#X obj 300 224 list prepend -dur 1;
#X obj 179 220 _duration;
#X obj 197 289 _dynamic;
#X obj 29 233 _duration;
#X obj 389 109 s \$0-en1;
#X obj 237 192 r \$0-en1;
#X obj 75 201 r \$0-en1;
#X obj 264 267 r \$0-en1;
#N canvas 207 272 808 453 reference 0;
#X obj 35 10 declare -path ~/Documents/dep_lib/notes_lib;
#X obj 574 142 t b b;
#X obj 414 391 list trim;
#X obj 659 415 notes;
#X obj 516 144 t b b b;
#X msg 609 42 bang;
#X msg 601 203 clear \, refdur 16;
#X obj 36 186 t a b;
#X obj 158 185 fd_scales;
#X obj 164 161 f;
#X obj 192 161 + 1;
#X obj 124 211 + 60;
#X obj 124 233 list prepend -pit;
#X obj 37 232 list prepend;
#X obj 44 146 list prepend -nhs;
#X obj 44 110 list split 1;
#X msg 181 124 0;
#X obj 45 51 t b b;
#X msg 47 31 bnag;
#X obj 43 333 list append;
#X obj 66 132 list prepend -txt;
#X msg 258 230 list -pit 60 -trm 32 -nhs 0 -txt frull. (frullato);
#X msg 239 272 list -pit 60 63 -txt sing (sing the pitch above the
note);
#X obj 192 318 list prepend -dur 16;
#X obj 93 378 list prepend input;
#X obj 271 168 t b b b;
#X msg 542 179 title flute \, sub_title notation;
#X msg 489 207 write flute-notation;
#X obj 62 356 list prepend -dur 16;
#X msg 44 75 0 normal \, 6 breathed pitch (B.P) \, 1 tongue ram (T.R.)
\, 3 slap \, 2 breathed noise (a e i o u sh);
#X obj 93 400 t b a;
#X msg 240 358 list input -pit -1 -dur 32;
#X connect 1 0 25 0;
#X connect 1 1 6 0;
#X connect 2 0 3 0;
#X connect 4 0 27 0;
#X connect 4 1 26 0;
#X connect 4 2 1 0;
#X connect 5 0 4 0;
#X connect 6 0 3 0;
#X connect 7 0 13 0;
#X connect 7 1 9 0;
#X connect 8 0 11 0;
#X connect 9 0 10 0;
#X connect 9 0 8 0;
#X connect 10 0 9 1;
#X connect 11 0 12 0;
#X connect 12 0 13 1;
#X connect 13 0 19 0;
#X connect 14 0 7 0;
#X connect 15 0 14 0;
#X connect 15 1 20 0;
#X connect 16 0 9 1;
#X connect 17 0 29 0;
#X connect 17 1 16 0;
#X connect 18 0 17 0;
#X connect 19 0 28 0;
#X connect 20 0 19 1;
#X connect 21 0 23 0;
#X connect 22 0 23 0;
#X connect 23 0 24 0;
#X connect 24 0 30 0;
#X connect 25 0 21 0;
#X connect 25 1 22 0;
#X connect 25 2 18 0;
#X connect 26 0 3 0;
#X connect 27 0 3 0;
#X connect 28 0 24 0;
#X connect 29 0 15 0;
#X connect 30 0 31 0;
#X connect 30 1 2 0;
#X connect 31 0 2 0;
#X restore 247 19 pd reference;
#X connect 0 0 4 0;
#X connect 0 1 3 0;
#X connect 0 2 2 0;
#X connect 1 0 13 0;
#X connect 2 0 15 0;
#X connect 2 1 14 0;
#X connect 3 0 15 0;
#X connect 4 0 17 0;
#X connect 5 0 7 0;
#X connect 5 0 18 0;
#X connect 7 0 6 0;
#X connect 10 0 0 0;
#X connect 11 1 10 0;
#X connect 12 0 9 0;
#X connect 13 0 11 0;
#X connect 13 1 11 0;
#X connect 14 0 16 0;
#X connect 15 0 16 0;
#X connect 16 0 12 0;
#X connect 17 0 12 0;
#X connect 19 0 15 1;
#X connect 20 0 17 1;
#X connect 21 0 16 1;
