#N canvas 546 56 734 604 10;
#X obj 200 100 t b b;
#X msg 180 8 bang;
#X obj 482 455 list prepend 0;
#X obj 482 477 t a b;
#X msg 517 498 10000;
#X obj 201 193 t f f;
#X obj 200 253 t f f;
#X msg 117 508 clear;
#X obj 201 75 t b b;
#X obj 494 396 t f f;
#X obj 369 118 f;
#X obj 398 118 + 1;
#X obj 126 175 - 1;
#X obj 113 197 sel;
#X obj 58 183 del 1;
#X obj 58 205 t b b;
#X obj 58 262 del 10;
#X obj 58 284 t b b;
#X obj 29 95 spigot 1;
#X obj 29 117 del 1;
#X obj 190 356 f;
#X obj 369 139 t f f f;
#X obj 402 166 < 4;
#X obj 512 146 text define \$0-score;
#X obj 175 401 makefilename part-%d.txt;
#X obj 127 542 text define \$0-parts;
#X obj 482 525 text set \$0-parts;
#X obj 316 326 text get \$0-score;
#X obj 199 124 text size \$0-score;
#X obj 175 152 sel 0;
#X obj 587 306 print _parts;
#X obj 279 26 t b b;
#X obj 279 48 del 10;
#X obj 279 4 r \$1;
#X obj 467 6 r \$2;
#X text 306 2 bang;
#X text 497 5 score file;
#X text 519 93 or manually choose a different score file, f 21;
#X text 12 14 splits a score file into parts, f 17;
#X obj 588 175 r clear-texts;
#X msg 492 70 clear \, read ../scores/\$1;
#X msg 528 124 clear \, read ../scores/sco-7.txt;
#X msg 175 482 write ../parts/\$2-\$1;
#X obj 175 444 list append 0;
#X obj 196 423 r \$3;
#X text 228 423 part id;
#X obj 479 429 route;
#X msg 587 284 define arg2 first;
#X obj 416 34 list append 0;
#X obj 200 226 fd_iterate;
#X text 27 77 nexxt part;
#X text 172 335 write part;
#X text 92 486 clear;
#X obj 172 514 s printer;
#X connect 0 0 28 0;
#X connect 1 0 8 0;
#X connect 2 0 3 0;
#X connect 3 0 26 0;
#X connect 3 1 4 0;
#X connect 4 0 26 1;
#X connect 5 0 49 0;
#X connect 5 1 12 0;
#X connect 6 0 13 0;
#X connect 6 1 27 0;
#X connect 7 0 25 0;
#X connect 8 0 0 0;
#X connect 8 1 10 0;
#X connect 9 0 46 1;
#X connect 9 1 2 1;
#X connect 10 0 11 0;
#X connect 10 0 21 0;
#X connect 11 0 10 1;
#X connect 12 0 13 1;
#X connect 13 0 14 0;
#X connect 14 0 15 0;
#X connect 15 0 16 0;
#X connect 15 1 20 0;
#X connect 16 0 17 0;
#X connect 17 0 18 0;
#X connect 17 1 7 0;
#X connect 18 0 19 0;
#X connect 19 0 8 0;
#X connect 20 0 24 0;
#X connect 21 0 9 0;
#X connect 21 1 20 1;
#X connect 21 2 22 0;
#X connect 22 0 18 1;
#X connect 24 0 43 0;
#X connect 27 0 46 0;
#X connect 28 0 29 0;
#X connect 29 0 47 0;
#X connect 29 1 5 0;
#X connect 31 0 32 0;
#X connect 31 1 48 0;
#X connect 32 0 8 0;
#X connect 33 0 31 0;
#X connect 34 0 48 1;
#X connect 39 0 23 0;
#X connect 40 0 23 0;
#X connect 41 0 23 0;
#X connect 42 0 25 0;
#X connect 42 0 53 0;
#X connect 43 0 42 0;
#X connect 44 0 43 1;
#X connect 46 0 2 0;
#X connect 47 0 30 0;
#X connect 48 0 40 0;
#X connect 49 0 6 0;
