#N canvas 63 98 546 413 12;
#X obj 35 43 r \$1-barked;
#X msg 35 68 100 \$1;
#X obj 35 93 -;
#X msg 35 341 next \$1;
#X obj 35 118 * 1;
#X obj 75 114 r length;
#X obj 35 141 t b f, f 10;
#X obj 35 315 f, f 10;
#X obj 35 166 random 10;
#X obj 35 264 fd_delit;
#X obj 35 191 t f f;
#X obj 86 190 * 3;
#X obj 35 215 pack;
#X msg 35 239 \$1 \$2 \, bang;
#X obj 35 289 bang;
#X obj 174 120 cnv 15 200 60 empty empty empty 20 12 0 14 -233017 -66577
0;
#X text 204 26 4 instances of [_barked];
#X text 26 375 receives a \$1-barked \, which comes from the bark~
in [inputs];
#X text 398 119 cloned [_harm] \, as many instances as there are -npeaks
in sigmund~ in [inputs], f 15;
#X obj 178 137 clone _harm \$2 \$3 \$1 \$4;
#X obj 178 251 outlet~;
#X obj 359 245 outlet~;
#X obj 178 71 inlet dur;
#X obj 268 68 inlet param;
#X obj 362 68 inlet switch;
#X text 190 277 arguments;
#X text 199 301 \$1 = nbarks \; \$2 = npeaks per barks \; \$3 = \$0
\; \$4 = ngrains per peak;
#N canvas 0 22 450 300 totgrains 0;
#X obj 71 61 loadbang;
#X obj 71 86 pack \$1 \$2 \$4;
#X obj 71 111 list split 2;
#X obj 71 136 *;
#X obj 71 161 *;
#X obj 71 186 print \$1;
#X connect 0 0 1 0;
#X connect 1 0 2 0;
#X connect 2 0 3 0;
#X connect 2 1 4 1;
#X connect 3 0 4 0;
#X connect 4 0 5 0;
#X restore 398 330 pd totgrains;
#X connect 0 0 1 0;
#X connect 1 0 2 0;
#X connect 2 0 4 0;
#X connect 3 0 19 0;
#X connect 4 0 6 0;
#X connect 5 0 4 1;
#X connect 6 0 8 0;
#X connect 6 1 7 1;
#X connect 7 0 3 0;
#X connect 8 0 10 0;
#X connect 9 0 14 0;
#X connect 10 0 12 0;
#X connect 10 1 11 0;
#X connect 11 0 12 1;
#X connect 12 0 13 0;
#X connect 13 0 9 0;
#X connect 14 0 7 0;
#X connect 19 0 20 0;
#X connect 19 1 21 0;
#X connect 22 0 19 0;
#X connect 23 0 19 1;
#X connect 24 0 19 2;
