#N canvas 233 100 546 413 12;
#X obj 30 37 r \$1-barked;
#X msg 30 62 100 \$1;
#X obj 30 87 -;
#X msg 30 335 next \$1;
#X obj 30 112 * 1;
#X obj 70 108 r length;
#X obj 30 135 t b f, f 10;
#X obj 30 309 f, f 10;
#X obj 30 160 random 10;
#X obj 30 258 fd_delit;
#X obj 30 185 t f f;
#X obj 81 184 * 3;
#X obj 30 209 pack;
#X msg 30 233 \$1 \$2 \, bang;
#X obj 169 114 cnv 15 200 60 empty empty empty 20 12 0 14 -233017 -66577
0;
#X text 21 369 receives a \$1-barked \, which comes from the bark~
in [inputs];
#X text 393 113 cloned [_harm] \, as many instances as there are -npeaks
in sigmund~ in [inputs], f 15;
#X obj 277 47 inlet param;
#X obj 330 78 inlet switch;
#X text 185 271 arguments;
#N canvas 0 22 450 300 totgrains 0;
#X obj 71 61 loadbang;
#X obj 71 111 list split 2;
#X obj 71 136 *;
#X obj 71 161 *;
#X obj 71 186 print \$1;
#X obj 71 86 pack \$1 \$2 \$3;
#X connect 0 0 5 0;
#X connect 1 0 2 0;
#X connect 1 1 3 1;
#X connect 2 0 3 0;
#X connect 3 0 4 0;
#X connect 5 0 1 0;
#X restore 393 324 pd totgrains;
#X text 194 295 \$1 = nbarks \; \$2 = npeaks per barks \; \$3 = ngrains
per peak \; \$4 = \$0 \;;
#X obj 225 21 inlet sigmund;
#X obj 173 131 clone _harm \$2 \$3 \$4;
#X obj 30 283 t b b;
#X connect 0 0 1 0;
#X connect 1 0 2 0;
#X connect 2 0 4 0;
#X connect 3 0 23 0;
#X connect 4 0 6 0;
#X connect 5 0 4 1;
#X connect 6 0 8 0;
#X connect 6 1 7 1;
#X connect 7 0 3 0;
#X connect 8 0 10 0;
#X connect 9 0 24 0;
#X connect 10 0 12 0;
#X connect 10 1 11 0;
#X connect 11 0 12 1;
#X connect 12 0 13 0;
#X connect 13 0 9 0;
#X connect 17 0 23 2;
#X connect 18 0 23 3;
#X connect 22 0 23 1;
#X connect 24 0 7 0;
