#N canvas 0 22 450 300 12;
#X obj 139 63 t b f;
#X obj 157 180 f;
#X obj 85 94 int;
#X obj 85 126 sel 0;
#X msg 144 97 1;
#X msg 144 120 0;
#X obj 157 205 outlet;
#X obj 150 35 inlet;
#X obj 85 151 del 300;
#X connect 0 0 2 0;
#X connect 0 1 1 1;
#X connect 1 0 6 0;
#X connect 2 0 3 0;
#X connect 3 0 4 0;
#X connect 3 0 8 0;
#X connect 4 0 2 1;
#X connect 5 0 2 1;
#X connect 7 0 0 0;
#X connect 8 0 5 0;
#X connect 8 0 1 0;
