#N canvas 447 22 701 668 12;
#X obj 370 110 t a a;
#X obj 140 101 unpack f f f f;
#X obj 251 162 atan2;
#X obj 244 276 line;
#X obj 29 303 scale 1;
#X obj 29 366 pix_texture;
#X obj 29 407 curve;
#X obj 29 161 alpha;
#X obj 252 193 * 180;
#X obj 29 327 rotateXYZ;
#N canvas 0 22 450 300 pos 0;
#X obj 18 210 list prepend all;
#X obj 18 235 list trim;
#X obj 18 260 outlet;
#X obj 21 3 inlet;
#X obj 21 28 sel 0 1 2 3 4 5, f 7;
#X msg 98 64 set \, adddollar 1 \, adddollar 2 \, adddollar 3;
#X msg 98 84 set \, adddollar 1 \, adddollar 3 \, adddollar 2;
#X msg 98 104 set \, adddollar 2 \, adddollar 1 \, adddollar 3;
#X msg 98 125 set \, adddollar 2 \, adddollar 3 \, adddollar 1;
#X msg 98 144 set \, adddollar 3 \, adddollar 1 \, adddollar 2;
#X msg 98 164 set \, adddollar 3 \, adddollar 2 \, adddollar 1;
#X obj 164 20 loadbang;
#X connect 0 0 1 0;
#X connect 1 0 2 0;
#X connect 3 0 4 0;
#X connect 4 0 5 0;
#X connect 4 1 6 0;
#X connect 4 2 7 0;
#X connect 4 3 8 0;
#X connect 4 4 9 0;
#X connect 4 5 10 0;
#X connect 5 0 0 0;
#X connect 6 0 0 0;
#X connect 7 0 0 0;
#X connect 8 0 0 0;
#X connect 9 0 0 0;
#X connect 10 0 0 0;
#X connect 11 0 10 0;
#X restore 491 111 pd pos;
#X obj 490 91 hradio 15 1 0 6 empty empty empty 0 -8 0 10 -262144 -1
-1 5;
#X obj 120 136 ftom;
#X msg 146 361 width \$1;
#X obj 150 276 line;
#X obj 180 124 rmstodb;
#X obj 180 149 / 100;
#X obj 205 202 line;
#X obj 29 186 colorRGB;
#X obj 120 161 / 100;
#X msg 580 174 all 4 8 4;
#X obj 247 338 line;
#X msg 247 313 0 \, 1 \$1;
#X obj 182 219 * 2;
#X obj 277 227 * 2;
#X obj 25 243 translateXYZ;
#X msg 463 590 draw line;
#X msg 463 545 draw fill;
#X msg 463 567 draw point;
#X msg 463 610 draw linestrip;
#X floatatom 594 575 5 0 100 0 - - -, f 5;
#X msg 605 604 res \$1;
#X obj 409 629 t a;
#X obj 113 459 crand -3 3;
#X obj 93 557 sel;
#X obj 90 527 fd_sum;
#X obj 97 431 t b b b f;
#X msg 117 608 \$2 \, \$1 \$3;
#X obj 117 633 line;
#X obj 227 555 sel;
#X obj 224 525 fd_sum;
#X obj 231 429 t b b b f;
#X msg 251 606 \$2 \, \$1 \$3;
#X obj 251 631 line;
#X obj 247 457 crand -4 0;
#X obj 223 491 crand 0 4;
#X obj 89 493 crand 0 4;
#X obj 595 523 max 1;
#X obj 595 548 min 100;
#X obj 524 458 sel 0 1 2 3;
#X obj 288 53 route 0;
#X obj 162 62 t a b;
#X obj 367 8 inlet;
#X obj 350 161 clone _cpoint 10;
#X obj 29 136 gemhead 4;
#X obj 606 340 loadbang;
#X obj 117 583 pack 0 2 10;
#X obj 251 581 pack 0 2 10;
#X obj 247 253 pack 13 120;
#X obj 180 174 pack 0.5 20;
#X obj 518 427 change;
#X obj 518 402 f 1;
#X obj 16 41 del;
#X msg 24 108 0 \$1;
#X obj 17 74 crand 20 1000;
#X obj 19 12 * 5;
#X obj 143 251 pack 1 10;
#X msg 616 424 30;
#X obj 622 374 del 10;
#X msg 588 93 all \$1 \$2 \$3;
#X obj 287 100 f 120;
#X obj 350 186 route 9 8 7 6 5 4 3 2 1 0;
#X obj 350 416 list prepend;
#X obj 350 391 list prepend;
#X obj 350 366 list prepend;
#X obj 350 341 list prepend;
#X obj 350 316 list prepend;
#X obj 350 291 list prepend;
#X obj 350 266 list prepend;
#X obj 350 241 list prepend;
#X obj 350 216 list prepend;
#X obj 188 546 * 3;
#X obj 324 537 * 3;
#X msg 360 473 set \$1 0;
#X msg 373 513 set \$0 \$1;
#X obj 356 453 * -1;
#X obj 476 442 * -1;
#X obj 464 417 - 1;
#X obj 424 442 t f f;
#X obj 424 467 pack;
#X msg 460 500 set \$1 \$2;
#X obj 459 382 t f f f;
#X obj 29 211 GEMglPointSize 1;
#X obj 318 155 f;
#X obj 173 13 inlet;
#X obj 163 302 min 10;
#X obj 175 334 max 1;
#X obj 133 189 * 1;
#X obj 409 13 route sig shape res pos norm tempo angle spread pointsize
width, f 27;
#X obj 78 106 r offall;
#X connect 0 0 50 0;
#X connect 0 1 53 0;
#X connect 1 0 12 0;
#X connect 1 1 15 0;
#X connect 1 2 2 0;
#X connect 1 3 2 1;
#X connect 2 0 8 0;
#X connect 3 0 9 3;
#X connect 4 0 9 0;
#X connect 5 0 6 0;
#X connect 7 0 18 0;
#X connect 8 0 58 0;
#X connect 9 0 5 0;
#X connect 10 0 53 2;
#X connect 11 0 10 0;
#X connect 12 0 19 0;
#X connect 13 0 6 0;
#X connect 14 0 95 0;
#X connect 15 0 16 0;
#X connect 16 0 59 0;
#X connect 17 0 18 4;
#X connect 18 0 92 0;
#X connect 19 0 97 0;
#X connect 20 0 53 1;
#X connect 21 0 4 1;
#X connect 22 0 21 0;
#X connect 23 0 66 1;
#X connect 24 0 58 1;
#X connect 25 0 4 0;
#X connect 26 0 32 0;
#X connect 27 0 32 0;
#X connect 28 0 32 0;
#X connect 29 0 32 0;
#X connect 30 0 31 0;
#X connect 31 0 32 0;
#X connect 32 0 6 0;
#X connect 33 0 35 0;
#X connect 33 0 56 1;
#X connect 34 1 56 0;
#X connect 35 0 34 0;
#X connect 36 0 46 0;
#X connect 36 1 33 0;
#X connect 36 2 35 1;
#X connect 36 3 81 0;
#X connect 37 0 38 0;
#X connect 38 0 25 1;
#X connect 39 1 57 0;
#X connect 40 0 39 0;
#X connect 41 0 45 0;
#X connect 41 1 44 0;
#X connect 41 2 40 1;
#X connect 41 3 82 0;
#X connect 42 0 43 0;
#X connect 43 0 25 2;
#X connect 44 0 40 0;
#X connect 44 0 57 1;
#X connect 45 0 40 0;
#X connect 46 0 35 0;
#X connect 47 0 48 0;
#X connect 48 0 30 0;
#X connect 49 0 27 0;
#X connect 49 1 28 0;
#X connect 49 2 26 0;
#X connect 49 3 29 0;
#X connect 50 0 51 0;
#X connect 51 0 1 0;
#X connect 51 1 61 0;
#X connect 51 1 70 0;
#X connect 52 0 98 0;
#X connect 53 0 71 0;
#X connect 54 0 7 0;
#X connect 55 0 67 0;
#X connect 55 0 28 0;
#X connect 55 0 68 0;
#X connect 56 0 37 0;
#X connect 57 0 42 0;
#X connect 58 0 3 0;
#X connect 59 0 17 0;
#X connect 60 0 49 0;
#X connect 61 0 60 0;
#X connect 62 0 64 0;
#X connect 63 0 17 0;
#X connect 64 0 63 0;
#X connect 65 0 62 0;
#X connect 66 0 14 0;
#X connect 67 0 31 0;
#X connect 68 0 20 0;
#X connect 69 0 53 1;
#X connect 70 0 22 0;
#X connect 70 0 23 0;
#X connect 70 0 24 0;
#X connect 70 0 41 0;
#X connect 70 0 36 0;
#X connect 70 0 59 1;
#X connect 70 0 65 0;
#X connect 71 0 80 0;
#X connect 71 1 80 1;
#X connect 71 2 79 1;
#X connect 71 3 78 1;
#X connect 71 4 77 1;
#X connect 71 5 76 1;
#X connect 71 6 75 1;
#X connect 71 7 74 1;
#X connect 71 8 73 1;
#X connect 71 9 72 1;
#X connect 72 0 6 0;
#X connect 73 0 72 0;
#X connect 74 0 73 0;
#X connect 75 0 74 0;
#X connect 76 0 75 0;
#X connect 77 0 76 0;
#X connect 78 0 77 0;
#X connect 79 0 78 0;
#X connect 80 0 79 0;
#X connect 81 0 56 2;
#X connect 82 0 57 2;
#X connect 83 0 44 0;
#X connect 84 0 45 0;
#X connect 84 0 46 0;
#X connect 85 0 83 0;
#X connect 86 0 89 1;
#X connect 87 0 88 0;
#X connect 88 0 89 0;
#X connect 88 1 86 0;
#X connect 89 0 90 0;
#X connect 90 0 33 0;
#X connect 91 0 85 0;
#X connect 91 1 87 0;
#X connect 91 2 84 0;
#X connect 92 0 25 0;
#X connect 94 0 0 0;
#X connect 95 0 96 0;
#X connect 96 0 13 0;
#X connect 97 0 66 0;
#X connect 98 1 61 1;
#X connect 98 2 47 0;
#X connect 98 3 11 0;
#X connect 98 4 69 0;
#X connect 98 5 70 1;
#X connect 98 6 8 1;
#X connect 98 7 91 0;
#X connect 98 8 92 1;
#X connect 98 9 97 1;
#X connect 99 0 54 0;
