#N canvas 0 22 572 430 12;
#X obj 44 84 rfft~;
#X obj 266 357 rifft~;
#X obj 44 59 *~;
#X obj 43 341 *~;
#X obj 44 161 _cmod;
#X obj 260 58 *~;
#X obj 260 83 rfft~;
#X obj 118 96 *~;
#X obj 158 95 *~;
#X obj 77 59 tabreceive~ 0-han;
#X obj 293 58 tabreceive~ 0-han;
#X obj 76 340 tabreceive~ 0-han;
#X obj 327 188 *~;
#X obj 341 156 *~;
#X obj 43 13 tabreceive~ \$1-orig;
#X obj 260 13 tabreceive~ \$1-fft;
#X obj 127 389 tabsend~ \$1-ifft;
#X obj 416 28 switch~ 16384;
#X obj 419 5 inlet;
#X obj 141 123 sqrt~;
#X obj 44 306 clip~ 0 1;
#X obj 341 131 tabreceive~ 0-gau;
#X obj 154 221 *~;
#X obj 197 218 *~;
#X obj 155 257 *~;
#X obj 196 256 *~;
#X obj 235 254 *~;
#X obj 276 253 *~;
#X obj 155 282 +~;
#X obj 235 279 -~;
#X obj 260 108 *~;
#X obj 293 108 *~;
#X obj 238 217 *~;
#X obj 275 220 *~;
#X obj 141 148 *~;
#X obj 179 150 >~ 1e-10;
#X obj 44 281 *~ 1e-09;
#X obj 327 105 rsqrt~;
#X floatatom 344 278 5 0 0 0 - - -, f 5;
#X floatatom 406 282 5 0 0 0 - - -, f 5;
#X obj 245 312 cpole~ -0.26 0.89;
#X obj 409 195 crand -1 1;
#X obj 409 220 t f f;
#X obj 464 236 abs;
#X msg 464 261 1 \$1;
#X obj 464 286 -;
#X obj 463 83 sel 1;
#X connect 0 0 4 0;
#X connect 0 0 7 0;
#X connect 0 0 7 1;
#X connect 0 1 4 1;
#X connect 0 1 8 0;
#X connect 0 1 8 1;
#X connect 1 0 36 0;
#X connect 2 0 0 0;
#X connect 3 0 16 0;
#X connect 4 0 22 0;
#X connect 4 1 23 0;
#X connect 5 0 6 0;
#X connect 6 0 30 0;
#X connect 6 0 30 1;
#X connect 6 0 32 0;
#X connect 6 1 31 0;
#X connect 6 1 31 1;
#X connect 6 1 33 0;
#X connect 7 0 19 0;
#X connect 8 0 19 0;
#X connect 9 0 2 1;
#X connect 10 0 5 1;
#X connect 11 0 3 1;
#X connect 12 0 32 1;
#X connect 12 0 33 1;
#X connect 13 0 12 1;
#X connect 14 0 2 0;
#X connect 15 0 5 0;
#X connect 18 0 17 0;
#X connect 18 0 46 0;
#X connect 19 0 34 0;
#X connect 19 0 35 0;
#X connect 20 0 3 0;
#X connect 21 0 13 0;
#X connect 21 0 13 1;
#X connect 22 0 24 0;
#X connect 22 0 26 0;
#X connect 23 0 25 0;
#X connect 23 0 27 0;
#X connect 24 0 28 0;
#X connect 25 0 28 1;
#X connect 26 0 29 0;
#X connect 27 0 29 1;
#X connect 28 0 40 0;
#X connect 29 0 40 1;
#X connect 30 0 37 0;
#X connect 31 0 37 0;
#X connect 32 0 24 1;
#X connect 32 0 25 1;
#X connect 33 0 26 1;
#X connect 33 0 27 1;
#X connect 34 0 22 1;
#X connect 34 0 23 1;
#X connect 35 0 34 1;
#X connect 36 0 20 0;
#X connect 37 0 12 0;
#X connect 38 0 40 2;
#X connect 39 0 40 3;
#X connect 40 0 1 0;
#X connect 40 1 1 1;
#X connect 41 0 42 0;
#X connect 42 0 38 0;
#X connect 42 1 43 0;
#X connect 43 0 44 0;
#X connect 44 0 45 0;
#X connect 45 0 39 0;
#X connect 46 0 41 0;
