#N canvas 208 160 662 502 12;
#X obj 61 93 unpack f f f f, f 16;
#X obj 165 124 atan2;
#X obj 96 124 rmstodb;
#X obj 37 130 ftom;
#X obj 84 20 inlet;
#X obj 33 412 outlet;
#X obj 96 174 - 0.5;
#X msg 39 368 \$3 \$2 \$1;
#X obj 180 195 * 4;
#X obj 34 206 * 4;
#X obj 96 199 * 8;
#X obj 229 12 inlet;
#X obj 229 37 unpack f f f;
#X obj 374 11 inlet;
#X obj 37 154 / 100;
#X obj 39 343 pack 1 1 1;
#X obj 219 321 minimax;
#X floatatom 219 346 5 0 0 0 - - -, f 5;
#X floatatom 264 371 5 0 0 0 - - -, f 5;
#X floatatom 274 351 5 0 0 0 - - -, f 5;
#X obj 269 271 minimax;
#X floatatom 269 296 5 0 0 0 - - -, f 5;
#X floatatom 314 321 5 0 0 0 - - -, f 5;
#X floatatom 324 301 5 0 0 0 - - -, f 5;
#X obj 329 221 minimax;
#X floatatom 329 246 5 0 0 0 - - -, f 5;
#X floatatom 374 271 5 0 0 0 - - -, f 5;
#X floatatom 384 251 5 0 0 0 - - -, f 5;
#X floatatom 229 62 5 0 0 0 - - -, f 5;
#X floatatom 319 114 5 0 0 0 - - -, f 5;
#X floatatom 395 115 5 0 0 0 - - -, f 5;
#X msg 407 183 flush;
#X obj 165 149 / 3.14159;
#X obj 96 149 / 100;
#X connect 0 0 3 0;
#X connect 0 1 2 0;
#X connect 0 2 1 0;
#X connect 0 3 1 1;
#X connect 1 0 32 0;
#X connect 2 0 33 0;
#X connect 3 0 14 0;
#X connect 4 0 0 0;
#X connect 6 0 10 0;
#X connect 7 0 5 0;
#X connect 8 0 15 2;
#X connect 8 0 24 0;
#X connect 9 0 15 0;
#X connect 9 0 16 0;
#X connect 10 0 15 1;
#X connect 10 0 20 0;
#X connect 11 0 12 0;
#X connect 12 0 8 1;
#X connect 12 0 28 0;
#X connect 12 1 10 1;
#X connect 12 1 29 0;
#X connect 12 2 9 1;
#X connect 12 2 30 0;
#X connect 13 0 7 0;
#X connect 14 0 9 0;
#X connect 15 0 7 0;
#X connect 16 0 17 0;
#X connect 16 1 18 0;
#X connect 16 2 19 0;
#X connect 20 0 21 0;
#X connect 20 1 22 0;
#X connect 20 2 23 0;
#X connect 24 0 25 0;
#X connect 24 1 26 0;
#X connect 24 2 27 0;
#X connect 31 0 24 0;
#X connect 31 0 20 0;
#X connect 31 0 16 0;
#X connect 32 0 8 0;
#X connect 33 0 6 0;
