#N canvas 360 27 992 736 12;
#X obj 53 598 *~;
#X obj 53 281 *~;
#X obj 237 251 random 4;
#X obj 237 276 + 1;
#X obj 414 139 fd_dataRead 5 6 1;
#X obj 615 176 random 20;
#X obj 652 302 t b f;
#X obj 652 377 f;
#X obj 689 376 + 1;
#X obj 710 322 mod 13;
#X obj 615 201 sel 6;
#X obj 652 400 mod 29;
#X obj 652 252 random 30;
#X obj 263 146 f;
#X obj 298 146 + 1;
#X obj 263 171 mod 30;
#X obj 907 676 switch~;
#X obj 53 256 line~;
#X obj 414 304 line~;
#X obj 652 450 / 150;
#X obj 53 205 fd_dataRead 1 2 1;
#X obj 242 411 *~ 0.5;
#X obj 157 562 sig~ 1;
#X obj 157 619 -~;
#X obj 53 639 *~;
#X obj 221 641 *~;
#X obj 242 570 sqrt~;
#X obj 53 230 t a b;
#X obj 652 226 bang;
#X obj 248 61 unpack f f f f, f 22;
#X obj 652 277 fd_dataRead1 4 y;
#X obj 652 425 fd_dataRead1 3 y;
#X obj 263 219 abs;
#X obj 263 195 fd_dataRead1 4 y;
#X obj 710 347 fd_dataRead1 4 y;
#X obj 838 653 fd_switch;
#X obj 53 673 *~;
#X obj 221 673 *~;
#X obj 237 116 t b b b;
#X text 422 326 frequency;
#X text 28 355 amplitud;
#X text 218 465 space;
#X obj 248 86 t f f;
#X obj 158 177 /;
#X obj 413 455 phasor~;
#X obj 413 505 +~ 1;
#X obj 378 86 atan2;
#X obj 352 112 / 3.14159;
#X obj 377 328 *~;
#X msg 158 151 100000 \$1;
#X obj 316 450 * 0.5;
#X obj 316 475 + 1;
#X obj 316 525 line~;
#X obj 242 545 *~;
#X obj 413 530 tabread4~ \$2-sin;
#X obj 307 110 t f f;
#X obj 529 70 route amp freq f offset;
#X obj 316 500 pack f 10;
#X obj 248 36 inlet sigmund;
#X obj 529 45 inlet parameters;
#X obj 33 34 inlet dur;
#X obj 838 64 inlet switch;
#X obj 724 105 !msg _gr;
#X obj 857 107 tgl 15 0 empty empty empty 17 7 0 10 -262144 -1 -1 0
1;
#X obj 52 125 t b f;
#X obj 304 85 rmstodb;
#X obj 53 539 *~ 1;
#X obj 413 480 *~ 2045;
#X obj 527 327 * 1;
#X obj 527 377 line~;
#X msg 527 352 \$1 10;
#X obj 414 377 *~;
#X obj 414 418 +~ 20;
#X obj 415 578 vcf~ 1;
#X obj 548 277 route range min q, f 11;
#X msg 538 467 \$1 10;
#X obj 539 494 vline~;
#X floatatom 446 91 5 0 0 0 - - -, f 5;
#X obj 443 183 line;
#X floatatom 443 208 5 0 0 0 - - -, f 5;
#X obj 235 307 * 123;
#X obj 137 123 del;
#X obj 53 154 spigot 1;
#X obj 53 179 t b b;
#X msg 101 179 0;
#X msg 101 125 1;
#X obj 466 414 +;
#X symbolatom 474 233 10 0 0 0 - - -, f 10;
#X obj 53 700 throw~ 1-dacout;
#X obj 221 699 throw~ 2-dacout;
#X connect 0 0 24 0;
#X connect 0 0 25 0;
#X connect 1 0 21 0;
#X connect 1 0 66 0;
#X connect 2 0 3 0;
#X connect 3 0 80 0;
#X connect 4 0 18 0;
#X connect 4 0 78 0;
#X connect 4 1 5 0;
#X connect 5 0 10 0;
#X connect 6 0 7 0;
#X connect 6 1 9 0;
#X connect 7 0 8 0;
#X connect 7 0 11 0;
#X connect 8 0 7 1;
#X connect 9 0 34 0;
#X connect 10 1 28 0;
#X connect 11 0 31 0;
#X connect 12 0 30 0;
#X connect 13 0 14 0;
#X connect 13 0 15 0;
#X connect 14 0 13 1;
#X connect 15 0 33 0;
#X connect 17 0 1 0;
#X connect 17 0 1 1;
#X connect 18 0 48 0;
#X connect 18 0 48 1;
#X connect 18 0 71 0;
#X connect 19 0 68 0;
#X connect 20 0 27 0;
#X connect 21 0 53 0;
#X connect 22 0 23 0;
#X connect 23 0 24 1;
#X connect 24 0 36 0;
#X connect 25 0 37 0;
#X connect 26 0 25 1;
#X connect 26 0 23 1;
#X connect 27 0 17 0;
#X connect 27 1 38 0;
#X connect 28 0 12 0;
#X connect 29 0 42 0;
#X connect 29 1 65 0;
#X connect 29 2 46 0;
#X connect 29 3 46 1;
#X connect 29 3 77 0;
#X connect 30 0 6 0;
#X connect 31 0 19 0;
#X connect 32 0 2 1;
#X connect 33 0 32 0;
#X connect 34 0 8 1;
#X connect 35 0 37 1;
#X connect 35 0 36 1;
#X connect 35 1 16 0;
#X connect 36 0 88 0;
#X connect 37 0 89 0;
#X connect 38 0 2 0;
#X connect 38 1 13 0;
#X connect 38 2 4 0;
#X connect 42 0 49 0;
#X connect 42 1 75 0;
#X connect 42 1 86 0;
#X connect 43 0 20 1;
#X connect 44 0 67 0;
#X connect 45 0 54 0;
#X connect 46 0 47 0;
#X connect 47 0 50 0;
#X connect 48 0 21 0;
#X connect 49 0 43 0;
#X connect 50 0 51 0;
#X connect 51 0 57 0;
#X connect 52 0 53 1;
#X connect 53 0 26 0;
#X connect 54 0 73 0;
#X connect 55 1 3 1;
#X connect 56 0 66 1;
#X connect 56 1 54 0;
#X connect 56 1 87 0;
#X connect 56 2 74 0;
#X connect 56 3 80 1;
#X connect 56 4 62 0;
#X connect 57 0 52 0;
#X connect 58 0 29 0;
#X connect 59 0 56 0;
#X connect 60 0 64 0;
#X connect 61 0 35 0;
#X connect 61 0 63 0;
#X connect 64 0 82 0;
#X connect 64 1 57 1;
#X connect 65 0 55 0;
#X connect 66 0 0 0;
#X connect 67 0 45 0;
#X connect 68 0 70 0;
#X connect 69 0 71 1;
#X connect 70 0 69 0;
#X connect 71 0 72 0;
#X connect 72 0 44 0;
#X connect 73 0 0 1;
#X connect 74 0 68 1;
#X connect 74 1 86 1;
#X connect 74 2 73 2;
#X connect 75 0 76 0;
#X connect 76 0 73 1;
#X connect 78 0 79 0;
#X connect 80 0 81 0;
#X connect 81 0 85 0;
#X connect 82 0 83 0;
#X connect 83 0 20 0;
#X connect 83 1 84 0;
#X connect 84 0 82 1;
#X connect 85 0 82 1;
#X connect 86 0 72 1;
