#N canvas 130 22 992 736 12;
#X obj 414 578 *~ 0.2;
#X obj 53 598 *~;
#X obj 53 281 *~;
#X obj 237 251 random 4;
#X obj 237 276 + 1;
#X obj 414 139 fd_dataRead 5 6 1;
#X obj 615 176 random 20;
#X obj 652 302 t b f;
#X obj 652 377 f;
#X obj 689 376 + 1;
#X obj 710 322 mod 13;
#X obj 615 201 sel 6;
#X obj 652 400 mod 29;
#X obj 652 252 random 30;
#X obj 263 146 f;
#X obj 298 146 + 1;
#X obj 263 171 mod 30;
#X obj 53 700 outlet~;
#X obj 907 676 switch~;
#X obj 53 256 line~;
#X obj 414 304 line~;
#X obj 652 450 / 150;
#X obj 53 205 fd_dataRead 1 2 1;
#X obj 242 411 *~ 0.5;
#X obj 157 562 sig~ 1;
#X obj 157 619 -~;
#X obj 221 699 outlet~;
#X obj 53 639 *~;
#X obj 221 641 *~;
#X obj 242 570 sqrt~;
#X obj 53 230 t a b;
#X obj 652 226 bang;
#X obj 268 326 * 13.3;
#X obj 237 326 +;
#X obj 248 61 unpack f f f f, f 22;
#X obj 237 301 t f b;
#X obj 283 301 f \$1;
#X obj 652 277 fd_dataRead1 4 y;
#X obj 652 425 fd_dataRead1 3 y;
#X obj 263 219 abs;
#X obj 263 195 fd_dataRead1 4 y;
#X obj 710 347 fd_dataRead1 4 y;
#X obj 838 653 fd_switch;
#X obj 53 673 *~;
#X obj 221 673 *~;
#X obj 237 116 t b b b;
#X text 422 326 frequency;
#X text 28 355 amplitud;
#X text 218 465 space;
#X text 127 9 next;
#X obj 248 86 t f f;
#X obj 158 177 /;
#X obj 414 475 phasor~;
#X obj 414 525 +~ 1;
#X obj 378 86 atan2;
#X obj 352 112 / 3.14159;
#X obj 377 328 *~;
#X msg 158 151 100000 \$1;
#X obj 316 450 * 0.5;
#X obj 316 475 + 1;
#X obj 316 525 line~;
#X obj 242 545 *~;
#X obj 414 550 tabread4~ \$2-sin;
#X obj 126 27 r auto;
#X obj 307 110 t f f;
#X obj 548 277 route range min, f 9;
#X obj 529 70 route amp freq f offset;
#X obj 58 159 fd_delit;
#X msg 59 137 \$1 \$2 \, bang;
#X obj 316 500 pack f 10;
#X obj 248 36 inlet sigmund;
#X obj 529 45 inlet parameters;
#X obj 33 34 inlet dur;
#X obj 838 64 inlet switch;
#X obj 724 105 !msg _gr;
#X obj 857 107 tgl 15 0 empty empty empty 17 7 0 10 -262144 -1 -1 1
1;
#X obj 32 82 t b f;
#X obj 100 98 spigot;
#X obj 653 559 t b f;
#X obj 653 584 random 20;
#X obj 653 609 pack;
#X obj 137 50 inlet next;
#X obj 653 690 outlet next;
#X obj 304 85 rmstodb;
#X obj 426 373 *;
#X obj 459 343 * 1;
#X obj 426 422 + 20;
#X obj 53 539 *~ 1;
#X obj 414 500 *~ 2048;
#X connect 0 0 1 1;
#X connect 1 0 27 0;
#X connect 1 0 28 0;
#X connect 2 0 23 0;
#X connect 2 0 87 0;
#X connect 3 0 4 0;
#X connect 4 0 35 0;
#X connect 5 0 20 0;
#X connect 5 1 6 0;
#X connect 6 0 11 0;
#X connect 7 0 8 0;
#X connect 7 1 10 0;
#X connect 8 0 9 0;
#X connect 8 0 12 0;
#X connect 9 0 8 1;
#X connect 10 0 41 0;
#X connect 11 1 31 0;
#X connect 12 0 38 0;
#X connect 13 0 37 0;
#X connect 14 0 15 0;
#X connect 14 0 16 0;
#X connect 15 0 14 1;
#X connect 16 0 40 0;
#X connect 19 0 2 0;
#X connect 19 0 2 1;
#X connect 20 0 56 0;
#X connect 20 0 56 1;
#X connect 21 0 85 0;
#X connect 22 0 30 0;
#X connect 23 0 61 0;
#X connect 24 0 25 0;
#X connect 25 0 27 1;
#X connect 27 0 43 0;
#X connect 28 0 44 0;
#X connect 29 0 28 1;
#X connect 29 0 25 1;
#X connect 30 0 19 0;
#X connect 30 1 45 0;
#X connect 31 0 13 0;
#X connect 32 0 33 1;
#X connect 33 0 78 0;
#X connect 34 0 50 0;
#X connect 34 1 83 0;
#X connect 34 2 54 0;
#X connect 34 3 54 1;
#X connect 35 0 33 0;
#X connect 35 1 36 0;
#X connect 36 0 32 0;
#X connect 37 0 7 0;
#X connect 38 0 21 0;
#X connect 39 0 3 1;
#X connect 40 0 39 0;
#X connect 41 0 9 1;
#X connect 42 0 44 1;
#X connect 42 0 43 1;
#X connect 42 1 18 0;
#X connect 43 0 17 0;
#X connect 44 0 26 0;
#X connect 45 0 3 0;
#X connect 45 1 14 0;
#X connect 45 2 5 0;
#X connect 50 0 57 0;
#X connect 50 1 84 0;
#X connect 51 0 22 1;
#X connect 52 0 88 0;
#X connect 53 0 62 0;
#X connect 54 0 55 0;
#X connect 55 0 58 0;
#X connect 56 0 23 0;
#X connect 57 0 51 0;
#X connect 58 0 59 0;
#X connect 59 0 69 0;
#X connect 60 0 61 1;
#X connect 61 0 29 0;
#X connect 62 0 0 0;
#X connect 63 0 77 1;
#X connect 64 1 4 1;
#X connect 65 0 85 1;
#X connect 65 1 86 1;
#X connect 66 0 87 1;
#X connect 66 1 62 0;
#X connect 66 2 65 0;
#X connect 66 3 32 1;
#X connect 66 4 74 0;
#X connect 67 0 22 0;
#X connect 68 0 67 0;
#X connect 69 0 60 0;
#X connect 70 0 34 0;
#X connect 71 0 66 0;
#X connect 72 0 76 0;
#X connect 73 0 42 0;
#X connect 73 0 75 0;
#X connect 76 0 22 0;
#X connect 76 1 69 1;
#X connect 77 0 68 0;
#X connect 78 0 79 0;
#X connect 78 1 80 1;
#X connect 79 0 80 0;
#X connect 80 0 82 0;
#X connect 81 0 77 0;
#X connect 83 0 64 0;
#X connect 84 0 86 0;
#X connect 85 0 84 1;
#X connect 86 0 52 0;
#X connect 87 0 1 0;
#X connect 88 0 53 0;
