#N canvas 490 22 498 537 12;
#X obj 149 96 r \$3-sigmund-\$1, f 13;
#X obj 143 344 clone _gr \$4 \$2;
#X obj 149 137 list prepend all;
#X obj 149 162 list trim;
#X obj 260 476 outlet~;
#X obj 144 477 outlet~;
#X msg 28 254 next \$1;
#X obj 28 54 t b f, f 10;
#X obj 28 228 f, f 10;
#X obj 28 79 random 10;
#X obj 28 177 fd_delit;
#X obj 28 104 t f f;
#X obj 79 103 * 3;
#X obj 28 128 pack;
#X msg 28 152 \$1 \$2 \, bang;
#X obj 28 202 bang;
#X obj 226 14 inlet parameters;
#X obj 28 16 inlet dur;
#X obj 389 23 inlet switch;
#X obj 351 275 list split 1;
#X obj 351 300 + 1;
#X obj 351 375 list;
#X obj 351 398 list trim;
#X obj 351 325 mod \$4;
#X connect 0 0 2 0;
#X connect 1 0 5 0;
#X connect 1 1 4 0;
#X connect 1 2 19 0;
#X connect 2 0 3 0;
#X connect 3 0 1 2;
#X connect 6 0 1 0;
#X connect 7 0 9 0;
#X connect 7 1 8 1;
#X connect 8 0 6 0;
#X connect 9 0 11 0;
#X connect 10 0 15 0;
#X connect 11 0 13 0;
#X connect 11 1 12 0;
#X connect 12 0 13 1;
#X connect 13 0 14 0;
#X connect 14 0 10 0;
#X connect 15 0 8 0;
#X connect 16 0 1 3;
#X connect 17 0 7 0;
#X connect 18 0 1 4;
#X connect 19 0 20 0;
#X connect 19 1 21 1;
#X connect 20 0 23 0;
#X connect 21 0 22 0;
#X connect 22 0 1 1;
#X connect 23 0 21 0;
