#N canvas 98 23 1034 742 12;
#X obj 400 100 cnv 15 100 170 empty empty empty 20 12 0 14 -233017
-66577 0;
#X obj 404 235 tgl 10 0 empty empty monitor 13 5 0 10 -262144 -1 -1
0 1;
#X obj 404 167 tgl 15 0 empty empty enable 18 8 0 10 -262144 -1 -1
0 1;
#X obj 404 182 tgl 15 0 empty empty analysis 18 8 0 10 -262144 -1 -1
0 1;
#X obj 402 248 fd_cputime;
#X obj 480 250 bng 15 50 10 0 empty empty empty 17 7 0 10 -258113 -1
-1;
#X obj 400 216 fd_stopwatch;
#X obj 509 264 s panic;
#X obj 207 565 s enable-adc-dac;
#X obj 234 643 s analysis;
#X obj 254 681 s monitor;
#X obj 516 212 r monitor-set;
#X obj 520 138 r enable-adc-dac-set;
#X obj 845 50 switch~;
#X obj 434 102 tgl 15 0 empty empty dsp 17 7 0 10 -262144 -1 -1 1 1
;
#X obj 848 26 fd_dspon;
#X obj 404 152 tgl 15 0 empty empty start-rec 18 8 0 10 -262144 -1
-1 0 1;
#X obj 204 367 sel 0 1;
#X obj 423 198 tgl 15 0 empty empty START 17 7 0 14 -262144 -1 -1 0
1;
#X text 487 386 REMOVE FAKE INPUTS FROM HERE;
#X msg 575 447 \; fake-inputs \$1;
#X obj 557 418 spigot;
#X obj 462 235 tgl 10 0 empty empty fake 12 5 0 10 -262144 -1 -1 0
1;
#X msg 223 411 \; start-raw-rec bang \; fd_stopwatch start \;;
#X msg 193 487 \; stop-raw-rec bang \; fd_stopwatch still \;;
#X obj 404 137 tgl 15 0 empty empty start-log 18 8 0 10 -262144 -1
-1 0 1;
#X msg 209 305 \; fd_printer-1 printing \$1 \;;
#X obj 319 8 r toggle-0;
#X obj 408 118 bng 15 250 50 0 empty empty prepare-all 17 7 0 10 -262144
-1 -1;
#X obj 141 116 s reset-toggle-0;
#X obj 418 6 r reset-toggle-0;
#X obj 323 34 fd_spigot;
#X msg 331 62 1;
#X msg 75 60 1;
#X msg 166 61 0;
#X obj 165 92 s toggle-7;
#X obj 75 110 f;
#X obj 109 110 + 1;
#X obj 76 33 t b b;
#X obj 75 161 sel 0 1 2 3, f 5;
#X msg 17 122 0;
#X obj 842 150 sel 0;
#X obj 490 100 bng 10 250 50 0 empty empty rst -18 5 0 10 -262144 -1
-1;
#X msg 236 32 0;
#X msg 48 241 1;
#X msg 83 242 1;
#X msg 124 241 1;
#X msg 165 243 1;
#X msg 841 183 1;
#X obj 841 233 f;
#X obj 875 233 + 1;
#X obj 841 284 sel 0 1 2 3, f 5;
#X msg 783 245 0;
#X msg 814 364 0;
#X msg 849 365 0;
#X msg 890 364 0;
#X msg 931 366 0;
#X obj 75 85 metro 433;
#X obj 841 208 metro 433;
#X msg 731 135 0;
#X msg 572 40 still;
#X obj 572 65 s fd_stopwatch;
#X msg 452 36 label reset;
#X msg 727 610 \; start-midi \$1 \;;
#X msg 770 502 start;
#X obj 770 527 s to-video-pd;
#X obj 762 438 sel;
#X msg 834 495 stop;
#X connect 1 0 10 0;
#X connect 2 0 8 0;
#X connect 3 0 9 0;
#X connect 5 0 7 0;
#X connect 11 0 1 0;
#X connect 12 0 2 0;
#X connect 14 0 15 0;
#X connect 15 0 13 0;
#X connect 15 1 14 0;
#X connect 16 0 17 0;
#X connect 17 0 24 0;
#X connect 17 1 23 0;
#X connect 18 0 63 0;
#X connect 18 0 21 0;
#X connect 18 0 41 0;
#X connect 18 0 66 0;
#X connect 21 0 20 0;
#X connect 22 0 21 1;
#X connect 25 0 26 0;
#X connect 27 0 31 0;
#X connect 28 0 38 0;
#X connect 30 0 31 1;
#X connect 31 0 32 0;
#X connect 32 0 18 0;
#X connect 33 0 57 0;
#X connect 34 0 29 0;
#X connect 34 0 35 0;
#X connect 36 0 37 0;
#X connect 36 0 39 0;
#X connect 37 0 36 1;
#X connect 38 0 33 0;
#X connect 38 1 34 0;
#X connect 39 0 44 0;
#X connect 39 1 45 0;
#X connect 39 2 46 0;
#X connect 39 3 47 0;
#X connect 39 4 40 0;
#X connect 40 0 57 0;
#X connect 41 0 48 0;
#X connect 42 0 43 0;
#X connect 42 0 59 0;
#X connect 42 0 60 0;
#X connect 43 0 36 1;
#X connect 44 0 25 0;
#X connect 45 0 16 0;
#X connect 46 0 2 0;
#X connect 47 0 3 0;
#X connect 48 0 58 0;
#X connect 49 0 50 0;
#X connect 49 0 51 0;
#X connect 50 0 49 1;
#X connect 51 0 53 0;
#X connect 51 1 54 0;
#X connect 51 2 55 0;
#X connect 51 3 56 0;
#X connect 51 4 52 0;
#X connect 52 0 58 0;
#X connect 53 0 3 0;
#X connect 54 0 2 0;
#X connect 55 0 16 0;
#X connect 56 0 25 0;
#X connect 57 0 36 0;
#X connect 58 0 49 0;
#X connect 59 0 49 1;
#X connect 60 0 61 0;
#X connect 62 0 42 0;
#X connect 64 0 65 0;
#X connect 66 0 67 0;
#X connect 66 1 64 0;
#X connect 67 0 65 0;
#X coords 0 -1 1 1 100 170 2 400 100;
