#N canvas 197 57 543 428 12;
#X obj 26 153 inlet~;
#X obj 26 257 *~;
#X obj 132 260 *~;
#X obj 446 323 switch~;
#X obj 26 350 *~;
#X obj 132 353 *~;
#X obj 366 376 clone _lspace 2 \$0;
#X obj 297 278 fd_switch;
#X msg 366 352 all \$1;
#X obj 57 257 *~;
#X obj 163 260 *~;
#X obj 114 70 r \$0-lspace-0-L, f 13;
#X obj 163 108 r \$0-lspace-0-R, f 13;
#X obj 272 70 r \$0-lspace-1-R, f 13;
#X obj 321 108 r \$0-lspace-1-L, f 13;
#X obj 422 154 inlet switch;
#X text 386 247 soft switch;
#X text 258 377 see here -->;
#X text 22 16 [_spat] has 2 cloned lorenz instances in [_lspace] to
make a chaotic-like spatialization (sqrt panning);
#X obj 26 378 throw~ 1-\$1;
#X obj 132 377 throw~ 2-\$1;
#X obj 366 303 t f f f;
#X obj 392 329 outlet;
#X obj 376 278 route float;
#X obj 440 299 t a a;
#X obj 114 152 vline~;
#X obj 163 152 vline~;
#X obj 272 153 vline~;
#X obj 321 153 vline~;
#X obj 114 177 *~;
#X obj 163 177 *~;
#X obj 272 178 *~;
#X obj 321 178 *~;
#X connect 0 0 1 0;
#X connect 0 0 2 0;
#X connect 0 0 9 0;
#X connect 0 0 10 0;
#X connect 1 0 4 0;
#X connect 2 0 5 0;
#X connect 4 0 19 0;
#X connect 5 0 20 0;
#X connect 7 0 4 1;
#X connect 7 0 5 1;
#X connect 7 1 23 0;
#X connect 8 0 6 0;
#X connect 9 0 5 0;
#X connect 10 0 4 0;
#X connect 11 0 25 0;
#X connect 12 0 26 0;
#X connect 13 0 27 0;
#X connect 14 0 28 0;
#X connect 15 0 7 0;
#X connect 21 0 8 0;
#X connect 21 1 22 0;
#X connect 21 2 3 0;
#X connect 23 0 21 0;
#X connect 23 1 24 0;
#X connect 24 0 22 0;
#X connect 24 1 3 0;
#X connect 25 0 29 0;
#X connect 25 0 29 1;
#X connect 26 0 30 0;
#X connect 26 0 30 1;
#X connect 27 0 31 0;
#X connect 27 0 31 1;
#X connect 28 0 32 0;
#X connect 28 0 32 1;
#X connect 29 0 1 1;
#X connect 30 0 9 1;
#X connect 31 0 2 1;
#X connect 32 0 10 1;
