#N canvas 368 84 748 611 12;
#X obj 95 391 *~;
#X obj 56 391 *~;
#X obj 414 236 *~;
#X obj 373 236 *~;
#X obj 55 86 rfft~;
#X obj 142 125 *~;
#X obj 373 213 rfft~;
#X obj 55 415 rifft~;
#X obj 108 125 *~;
#X text 459 288 modulus;
#X obj 108 300 *~;
#X obj 108 278 clip~;
#X obj 148 249 expr 0.01*$f1*$f1;
#X obj 108 174 +~ 1e-20;
#X text 459 305 of control;
#X text 457 322 amplitude;
#X text 197 128 reciprocal;
#X text 200 147 modulus of;
#X text 196 167 filter input;
#X text 197 186 amplitude;
#X text 191 29 filter input;
#X text 439 162 control source;
#X text 435 212 Fourier transform;
#X text 146 302 multiply the two amplitude;
#X text 144 319 factors (for compression;
#X text 146 335 and to apply new timbre);
#X obj 108 201 rsqrt~;
#X obj 373 282 sqrt~;
#X text 361 448 from IO6.timbre.stamp.pd;
#X obj 614 29 inlet squelch;
#X obj 415 38 inlet;
#X obj 415 63 switch~ 16384;
#X obj 55 523 tabsend~ \$1-ifft;
#X floatatom 151 433 5 0 0 0 - - -, f 5;
#X obj 491 24 tgl 15 0 empty empty empty 17 7 0 10 -262144 -1 -1 1
1;
#X floatatom 179 210 5 0 0 0 - - -, f 5;
#X obj 54 38 tabreceive~ \$1-orig;
#X obj 370 126 tabreceive~ \$1-fft;
#X obj 55 465 clip~ 0 1;
#X obj 108 360 *~ 1e-05;
#X obj 55 440 *~ 3;
#X obj 374 187 *~;
#X obj 407 188 tabreceive~ 0-han;
#X connect 0 0 7 1;
#X connect 1 0 7 0;
#X connect 2 0 27 0;
#X connect 3 0 27 0;
#X connect 4 0 8 0;
#X connect 4 0 8 1;
#X connect 4 0 1 0;
#X connect 4 1 5 0;
#X connect 4 1 5 1;
#X connect 4 1 0 0;
#X connect 5 0 13 0;
#X connect 6 0 3 0;
#X connect 6 0 3 1;
#X connect 6 1 2 0;
#X connect 6 1 2 1;
#X connect 7 0 40 0;
#X connect 8 0 13 0;
#X connect 10 0 39 0;
#X connect 11 0 10 0;
#X connect 12 0 11 2;
#X connect 13 0 26 0;
#X connect 26 0 11 0;
#X connect 27 0 10 1;
#X connect 29 0 12 0;
#X connect 30 0 31 0;
#X connect 33 0 40 1;
#X connect 34 0 31 0;
#X connect 35 0 12 0;
#X connect 36 0 4 0;
#X connect 37 0 6 0;
#X connect 38 0 32 0;
#X connect 39 0 0 1;
#X connect 39 0 1 1;
#X connect 40 0 38 0;
#X connect 42 0 41 1;
