#N canvas 59 22 550 504 12;
#X obj 126 77 spigot;
#X obj 159 30 r pd;
#X obj 159 52 route dsp;
#X obj 345 145 s \$0-smooth;
#X obj 330 167 s \$0-coef;
#X obj 26 164 s \$0-blocksize;
#X obj 126 435 outlet;
#X obj 361 121 s \$0-crop;
#X obj 13 189 s \$0-mode;
#N canvas 104 460 450 300 crop 0;
#X obj 60 133 pix_crop 114 114 128 128;
#X obj 60 103 separator;
#X obj 126 82 r \$0-dimen;
#X obj 126 104 unpack;
#X obj 194 82 r \$0-crop;
#X obj 194 104 unpack;
#X obj 60 57 inlet;
#X obj 60 155 outlet;
#X floatatom 156 182 5 0 0 0 - - -, f 5;
#X floatatom 188 166 5 0 0 0 - - -, f 5;
#X connect 0 0 7 0;
#X connect 1 0 0 0;
#X connect 2 0 3 0;
#X connect 3 0 0 1;
#X connect 3 0 8 0;
#X connect 3 1 0 2;
#X connect 3 1 9 0;
#X connect 4 0 5 0;
#X connect 5 0 0 3;
#X connect 5 1 0 4;
#X connect 6 0 1 0;
#X restore 153 142 pd crop;
#X obj 26 143 change;
#N canvas 525 22 755 700 \$0-windowing 0;
#X msg 256 405 resize \$1;
#X obj 29 158 until;
#X obj 29 180 f;
#X obj 55 180 + 1;
#X msg 69 158 0;
#X obj 29 230 /;
#X obj 29 330 cos;
#X obj 29 352 * -0.5;
#X obj 29 374 + 0.5;
#X obj 146 88 t b f;
#X obj 29 42 sel 0;
#X obj 29 202 t f b f;
#X obj 29 116 t f b f f;
#X obj 29 273 * 3.14159;
#X obj 88 58 loadbang;
#X floatatom 180 65 5 0 0 0 - - -, f 5;
#X obj 157 169 t b f;
#X floatatom 155 147 5 0 0 0 - - -, f 5;
#X obj 29 252 * 2;
#X obj 256 426 array define \$0-window \$1;
#X obj 70 36 r \$0-window-size;
#X obj 185 34 r \$0-window-ovelaps;
#X obj 29 396 tabwrite \$0-window;
#X obj 452 154 t b b b b;
#X obj 458 185 sel 0;
#X obj 452 248 until;
#X obj 452 270 f;
#X obj 479 270 + 1;
#X msg 490 248 0;
#X obj 452 292 t f f;
#X obj 452 314 /;
#X obj 642 312 sel 0;
#X msg 646 340 0;
#X obj 687 312 sel 0;
#X obj 452 336 * 16;
#X obj 452 358 - 8;
#X obj 504 113 t b f;
#X obj 484 337 * 0.5;
#X obj 476 314 t f f;
#X obj 604 265 pack \$2 \$3 \$4;
#X obj 604 289 unpack f f f;
#X obj 604 313 sel 0;
#X msg 685 340 0.5;
#X msg 604 334 8;
#X obj 500 82 unpack f f f;
#X obj 517 485 tabwrite \$0-window, f 19;
#X obj 29 92 int 16384;
#X obj 451 226 int 16384;
#X msg 458 206 16384;
#X obj 502 189 f 16384;
#X floatatom 503 33 5 0 0 0 - - -, f 5;
#X floatatom 562 29 5 0 0 0 - - -, f 5;
#X text 471 9 gauss;
#X msg 499 56 8 0 \$1;
#X msg 169 276 cosinesum 16384 1 2 0.04 2 4 \, normalize 1;
#X msg 184 317 sinesum 16384 1 2 0.04 2 4 \, normalize 1;
#X msg 293 362 16384;
#X obj 34 722 tabwrite \$0-window;
#X obj 40 524 t f f;
#N canvas 0 22 416 526 gauss 0;
#X obj 27 374 int 1;
#X obj 27 396 /;
#X obj 27 285 *;
#X obj 27 307 * 2;
#X obj 27 329 sqrt;
#X obj 27 436 *;
#X obj 27 71 -;
#X obj 27 135 /;
#X obj 65 102 * 2;
#X obj 27 155 * -1;
#X obj 27 176 exp;
#X obj 27 243 f 3.1416;
#X obj 42 48 r \$0-mean;
#X obj 65 80 r \$0-var;
#X obj 42 263 r \$0-var;
#X obj 27 211 t b f, f 24;
#X obj 27 351 t b f;
#X obj 27 93 t f f;
#X obj 27 115 *;
#X obj 156 18 inlet;
#X obj 156 40 s \$0-mean;
#X obj 270 17 inlet;
#X obj 309 61 s \$0-stdev;
#X obj 270 60 *;
#X obj 270 86 s \$0-var;
#X obj 270 38 t f f f;
#X obj 27 17 inlet;
#X obj 27 463 outlet;
#X text 207 234 gaussian distribution;
#X text 90 414 1/sqrt(2*stdev^2*PI) EXP -((x-mean)^2/2*stdv));
#N canvas 0 22 450 300 args 0;
#X obj 154 78 loadbang;
#X obj 154 119 f \$1;
#X obj 203 109 f \$2;
#X obj 203 131 sel 0;
#X msg 203 153 1;
#X obj 154 139 outlet;
#X obj 203 175 outlet;
#X obj 268 108 f \$3;
#X obj 268 130 sel 0;
#X msg 268 152 2;
#X obj 268 174 outlet;
#X connect 0 0 1 0;
#X connect 0 0 2 0;
#X connect 0 0 7 0;
#X connect 1 0 5 0;
#X connect 2 0 3 0;
#X connect 3 0 4 0;
#X connect 3 1 6 0;
#X connect 4 0 6 0;
#X connect 7 0 8 0;
#X connect 8 0 9 0;
#X connect 8 1 10 0;
#X connect 9 0 10 0;
#X restore 201 18 pd args;
#X obj 346 11 inlet, f 19;
#X connect 0 0 1 0;
#X connect 1 0 5 0;
#X connect 2 0 3 0;
#X connect 3 0 4 0;
#X connect 4 0 16 0;
#X connect 5 0 27 0;
#X connect 6 0 17 0;
#X connect 7 0 9 0;
#X connect 8 0 7 1;
#X connect 9 0 10 0;
#X connect 10 0 15 0;
#X connect 11 0 2 0;
#X connect 12 0 6 1;
#X connect 13 0 8 0;
#X connect 14 0 2 1;
#X connect 15 0 11 0;
#X connect 15 1 5 1;
#X connect 16 0 0 0;
#X connect 16 1 1 1;
#X connect 17 0 18 0;
#X connect 17 1 18 1;
#X connect 18 0 7 0;
#X connect 19 0 20 0;
#X connect 21 0 25 0;
#X connect 23 0 24 0;
#X connect 25 0 23 0;
#X connect 25 1 23 1;
#X connect 25 2 22 0;
#X connect 26 0 6 0;
#X connect 30 0 20 0;
#X connect 30 1 25 0;
#X connect 30 2 3 1;
#X connect 31 0 3 1;
#X restore 455 442 pd gauss;
#X msg 107 435 16384;
#X obj 36 483 until;
#X msg 74 481 0;
#X obj 36 505 f;
#X obj 61 506 + 1;
#X obj 43 578 /;
#X floatatom 153 506 5 0 0 0 - - -, f 5;
#X obj 43 600 log;
#X obj 38 648 exp;
#X obj 38 626 / 4;
#X obj 289 666 * -2;
#X obj 289 688 + 1;
#X obj 285 718 tabwrite \$0-window;
#X obj 278 543 t f f;
#X msg 345 454 16384;
#X obj 274 502 until;
#X msg 312 500 0;
#X obj 274 524 f;
#X obj 299 525 + 1;
#X obj 281 597 /;
#X floatatom 391 525 5 0 0 0 - - -, f 5;
#X obj 279 574 mod;
#X obj 333 559 * 1;
#X obj 274 479 t f f b f;
#X obj 391 544 t b f;
#X msg 397 481 1;
#X obj 289 622 - 0.5;
#X obj 289 644 abs;
#X obj 36 460 t f f b;
#X obj 153 525 t b f f;
#X obj 164 565 moses;
#X obj 38 670 * -2;
#X obj 111 564 abs;
#X msg 147 606 2;
#X msg 191 607 -2;
#X obj 38 692 + 1;
#X msg 156 653 -1;
#X msg 196 653 1;
#X obj 203 87 route hann gauss cosinesum sinesum triangle expo;
#X msg 441 45 0.5;
#X obj 29 20 r \$0-blocksize;
#X obj 230 60 inlet;
#X connect 0 0 19 0;
#X connect 1 0 2 0;
#X connect 2 0 3 0;
#X connect 2 0 11 0;
#X connect 3 0 2 1;
#X connect 4 0 2 1;
#X connect 5 0 18 0;
#X connect 6 0 7 0;
#X connect 7 0 8 0;
#X connect 8 0 22 0;
#X connect 9 0 46 0;
#X connect 9 1 18 1;
#X connect 10 1 46 0;
#X connect 11 0 5 0;
#X connect 11 2 22 1;
#X connect 12 0 1 0;
#X connect 12 1 4 0;
#X connect 12 2 0 0;
#X connect 12 3 5 1;
#X connect 13 0 6 0;
#X connect 14 0 46 0;
#X connect 15 0 9 0;
#X connect 16 0 46 0;
#X connect 16 1 8 1;
#X connect 17 0 16 0;
#X connect 18 0 13 0;
#X connect 20 0 46 0;
#X connect 21 0 9 0;
#X connect 23 0 47 0;
#X connect 23 1 28 0;
#X connect 23 2 39 0;
#X connect 23 3 49 0;
#X connect 24 0 48 0;
#X connect 24 1 47 1;
#X connect 25 0 26 0;
#X connect 26 0 27 0;
#X connect 26 0 29 0;
#X connect 27 0 26 1;
#X connect 28 0 26 1;
#X connect 29 0 30 0;
#X connect 29 1 45 1;
#X connect 30 0 34 0;
#X connect 31 0 32 0;
#X connect 31 1 59 1;
#X connect 32 0 59 1;
#X connect 33 0 42 0;
#X connect 33 1 59 2;
#X connect 34 0 35 0;
#X connect 35 0 59 0;
#X connect 36 0 23 0;
#X connect 36 1 39 0;
#X connect 37 0 35 1;
#X connect 38 0 34 1;
#X connect 38 1 37 0;
#X connect 39 0 40 0;
#X connect 40 0 41 0;
#X connect 40 1 31 0;
#X connect 40 2 33 0;
#X connect 41 0 43 0;
#X connect 41 1 38 0;
#X connect 42 0 59 2;
#X connect 43 0 38 0;
#X connect 44 0 36 0;
#X connect 44 1 39 1;
#X connect 44 2 39 2;
#X connect 46 0 12 0;
#X connect 47 0 25 0;
#X connect 48 0 47 1;
#X connect 49 0 24 0;
#X connect 49 0 30 1;
#X connect 50 0 53 0;
#X connect 53 0 44 0;
#X connect 54 0 19 0;
#X connect 55 0 19 0;
#X connect 56 0 0 0;
#X connect 58 0 65 0;
#X connect 58 1 57 1;
#X connect 59 0 45 0;
#X connect 60 0 88 0;
#X connect 61 0 63 0;
#X connect 62 0 63 1;
#X connect 63 0 64 0;
#X connect 63 0 58 0;
#X connect 64 0 63 1;
#X connect 65 0 67 0;
#X connect 66 0 89 0;
#X connect 67 0 69 0;
#X connect 68 0 91 0;
#X connect 69 0 68 0;
#X connect 70 0 71 0;
#X connect 71 0 72 0;
#X connect 73 0 81 0;
#X connect 73 1 72 1;
#X connect 74 0 83 0;
#X connect 75 0 77 0;
#X connect 76 0 77 1;
#X connect 77 0 78 0;
#X connect 77 0 73 0;
#X connect 78 0 77 1;
#X connect 79 0 86 0;
#X connect 80 0 84 0;
#X connect 81 0 79 0;
#X connect 82 0 81 1;
#X connect 83 0 75 0;
#X connect 83 1 79 1;
#X connect 83 2 76 0;
#X connect 83 3 82 0;
#X connect 84 0 74 0;
#X connect 84 1 82 1;
#X connect 85 0 80 0;
#X connect 86 0 87 0;
#X connect 87 0 70 0;
#X connect 88 0 61 0;
#X connect 88 1 65 1;
#X connect 88 2 62 0;
#X connect 89 0 60 0;
#X connect 89 1 92 0;
#X connect 89 2 90 0;
#X connect 90 0 93 0;
#X connect 90 0 96 0;
#X connect 90 1 94 0;
#X connect 90 1 97 0;
#X connect 91 0 95 0;
#X connect 92 0 69 1;
#X connect 93 0 91 1;
#X connect 94 0 91 1;
#X connect 95 0 57 0;
#X connect 96 0 95 1;
#X connect 97 0 95 1;
#X connect 98 0 17 0;
#X connect 98 1 50 0;
#X connect 98 2 54 0;
#X connect 98 3 55 0;
#X connect 98 4 80 0;
#X connect 98 5 66 0;
#X connect 100 0 10 0;
#X connect 101 0 98 0;
#X restore 377 93 pd \$0-windowing;
#X text 290 287 see helpfile for more info;
#X text 287 310 fd_vidfft-help.pd;
#X text 422 334 fdch;
#X obj 330 37 route coef smooth crop window, f 11;
#X obj 13 59 route float size, f 5;
#N canvas 0 22 521 434 arrays 0;
#X obj 61 193 list prepend 0;
#X obj 168 84 list length;
#X msg 168 223 resize \$1;
#X obj 34 67 t b a a;
#X obj 61 170 list;
#X obj 34 116 del 33;
#X obj 168 148 t f f;
#X msg 276 189 resize \$1;
#X obj 34 141 t b b;
#X obj 276 165 / 2;
#X obj 168 107 change;
#X obj 177 128 r \$0-blocksize;
#X obj 34 24 inlet list;
#X obj 34 341 outlet bang;
#X obj 125 273 array define \$2-ifft;
#X obj 125 253 array define \$2-orig;
#X obj 283 233 array define \$2-histo;
#X obj 283 213 array define \$2-fft;
#X connect 0 0 15 0;
#X connect 1 0 10 0;
#X connect 2 0 14 0;
#X connect 2 0 15 0;
#X connect 3 0 5 0;
#X connect 3 1 4 1;
#X connect 3 2 1 0;
#X connect 4 0 0 0;
#X connect 5 0 8 0;
#X connect 6 0 2 0;
#X connect 6 1 9 0;
#X connect 7 0 16 0;
#X connect 7 0 17 0;
#X connect 8 0 13 0;
#X connect 8 1 4 0;
#X connect 9 0 7 0;
#X connect 10 0 6 0;
#X connect 11 0 6 0;
#X connect 12 0 3 0;
#X restore 198 314 pd arrays;
#X obj 126 99 t a a;
#X obj 153 283 pix_dump;
#X obj 153 185 pix_grey;
#X obj 153 250 t b a;
#N canvas 435 65 859 681 fft 1;
#X obj 20 174 bang~;
#X obj 20 196 t b b;
#X obj 20 218 timer;
#X msg 20 259 1000 \$1;
#X obj 20 281 /;
#X obj 20 322 outlet;
#X obj 17 138 switch~ 16384 1 1;
#X obj 17 42 inlet;
#X obj 35 86 r \$0-blocksize;
#X obj 277 511 tgl 15 0 empty empty empty 17 7 0 10 -262144 -1 -1 0
1;
#X obj 277 531 s \$0-mode;
#N canvas 411 229 577 606 one 0;
#X obj 91 84 *~;
#X obj 118 84 *~;
#X obj 103 160 *~;
#X obj 31 51 rfft~;
#X msg 352 334 2 \$1;
#X obj 352 356 /;
#X obj 31 448 rifft~;
#X obj 352 312 * 2;
#X obj 352 156 loadbang;
#X obj 225 227 r \$0-smooth;
#X obj 377 234 r \$0-coef;
#X obj 361 211 r \$0-blocksize;
#X msg 352 178 16384;
#X obj 377 256 t b f;
#X obj 31 401 *~;
#X obj 59 401 *~;
#X obj 31 475 *~;
#X obj 252 202 sqrt;
#X floatatom 416 257 5 0 0 0 - - -, f 5;
#X floatatom 319 278 5 0 0 0 - - -, f 5;
#X obj 30 500 clip~ 0 1;
#X obj 273 28 inlet;
#X obj 273 50 switch~;
#X obj 151 485 expr~;
#X obj 93 261 /~ 128;
#X floatatom 171 285 5 0 0 0 - - -, f 5;
#X floatatom 441 61 5 0 0 0 - - -, f 5;
#X obj 500 70 vsl 15 128 0 30 0 0 empty empty empty 0 -9 0 10 -262144
-1 -1 0 1;
#X floatatom 519 224 5 0 0 0 - - -, f 5;
#X obj 91 110 sqrt~;
#X obj 118 138 tabreceive~ 0-han;
#X floatatom 185 58 5 0 0 0 - - -, f 5;
#X obj 185 80 _seltab;
#X msg 185 105 set \$1;
#X obj 79 315 expr~ if($v1>$f2 \, 0 \, $v1);
#X obj 30 19 tabreceive~ \$2-orig;
#X obj 30 523 tabsend~ \$2-ifft;
#X obj 101 182 tabsend~ \$2-fft;
#X connect 0 0 29 0;
#X connect 1 0 29 0;
#X connect 2 0 37 0;
#X connect 3 0 0 0;
#X connect 3 0 0 1;
#X connect 3 0 14 0;
#X connect 3 1 1 0;
#X connect 3 1 1 1;
#X connect 3 1 15 0;
#X connect 4 0 5 0;
#X connect 5 0 16 1;
#X connect 6 0 16 0;
#X connect 7 0 4 0;
#X connect 8 0 12 0;
#X connect 9 0 34 1;
#X connect 10 0 13 0;
#X connect 11 0 7 0;
#X connect 11 0 17 0;
#X connect 12 0 7 0;
#X connect 12 0 17 0;
#X connect 13 0 7 0;
#X connect 13 1 7 1;
#X connect 14 0 6 0;
#X connect 15 0 6 1;
#X connect 16 0 20 0;
#X connect 17 0 24 1;
#X connect 18 0 13 0;
#X connect 19 0 24 1;
#X connect 20 0 36 0;
#X connect 21 0 22 0;
#X connect 24 0 34 0;
#X connect 25 0 34 1;
#X connect 27 0 28 0;
#X connect 27 0 34 1;
#X connect 29 0 2 0;
#X connect 29 0 24 0;
#X connect 30 0 2 1;
#X connect 31 0 32 0;
#X connect 32 0 33 0;
#X connect 33 0 30 0;
#X connect 34 0 14 1;
#X connect 34 0 15 1;
#X connect 35 0 3 0;
#X restore 136 441 pd one;
#X obj 157 408 tgl 15 0 empty empty empty 17 7 0 10 -262144 -1 -1 0
1;
#X obj 218 405 tgl 15 0 empty empty empty 17 7 0 10 -262144 -1 -1 0
1;
#X obj 297 387 tgl 15 0 empty empty empty 17 7 0 10 -262144 -1 -1 0
1;
#N canvas 611 40 616 734 two 0;
#X obj 218 125 *~;
#X obj 245 125 *~;
#X obj 230 201 *~;
#X obj 158 92 rfft~;
#X msg 430 365 2 \$1;
#X obj 430 387 /;
#X obj 158 585 rifft~;
#X obj 430 343 * 2;
#X obj 430 187 loadbang;
#X obj 263 290 r \$0-smooth;
#X obj 455 265 r \$0-coef;
#X obj 439 242 r \$0-blocksize;
#X msg 430 209 16384;
#X obj 455 287 t b f;
#X obj 158 404 *~;
#X obj 185 404 *~;
#X obj 158 612 *~;
#X obj 218 281 /~ 128;
#X obj 251 256 sqrt;
#X floatatom 527 192 5 0 0 0 - - -, f 5;
#X floatatom 369 339 5 0 0 0 - - -, f 5;
#X obj 131 513 *~;
#X obj 161 513 *~;
#X obj 191 513 *~;
#X obj 219 514 *~;
#X obj 131 535 +~;
#X obj 193 534 -~;
#X floatatom 261 417 5 0 0 0 - - -, f 5;
#X floatatom 314 360 5 0 0 0 - - -, f 5;
#X obj 158 649 clip~ 0 1;
#X obj 314 419 * 0.0001;
#X obj 132 446 vcf~ 1;
#X obj 375 30 inlet;
#X obj 375 52 switch~;
#X msg 379 280 200;
#X floatatom 48 94 5 0 0 0 - - -, f 5;
#X obj 194 448 vcf~;
#X obj 211 314 expr~ if($v1>$f2 \, 0 \, $v1), f 17;
#X obj 50 193 framp~;
#X obj 20 265 log~;
#X obj 59 249 rmstodb~;
#X obj 59 271 *~ 1;
#X obj 218 151 sqrt~;
#X obj 245 179 tabreceive~ 0-bla;
#X obj 158 24 tabreceive~ \$2-orig;
#X obj 230 223 tabsend~ \$2-fft;
#X obj 158 671 tabsend~ \$2-ifft;
#X connect 0 0 42 0;
#X connect 1 0 42 0;
#X connect 2 0 45 0;
#X connect 3 0 0 0;
#X connect 3 0 0 1;
#X connect 3 0 14 0;
#X connect 3 0 38 0;
#X connect 3 1 1 0;
#X connect 3 1 1 1;
#X connect 3 1 15 0;
#X connect 3 1 38 1;
#X connect 4 0 5 0;
#X connect 5 0 16 1;
#X connect 6 0 16 0;
#X connect 7 0 4 0;
#X connect 8 0 12 0;
#X connect 8 0 34 0;
#X connect 9 0 37 1;
#X connect 10 0 13 0;
#X connect 11 0 7 0;
#X connect 11 0 18 0;
#X connect 12 0 7 0;
#X connect 12 0 18 0;
#X connect 13 0 7 0;
#X connect 13 1 7 1;
#X connect 14 0 31 0;
#X connect 15 0 36 0;
#X connect 16 0 29 0;
#X connect 17 0 37 0;
#X connect 18 0 17 1;
#X connect 19 0 13 0;
#X connect 20 0 37 1;
#X connect 21 0 25 0;
#X connect 22 0 25 1;
#X connect 23 0 26 0;
#X connect 24 0 26 1;
#X connect 25 0 6 0;
#X connect 26 0 6 1;
#X connect 27 0 31 2;
#X connect 28 0 30 0;
#X connect 29 0 46 0;
#X connect 30 0 27 0;
#X connect 31 0 21 0;
#X connect 31 0 22 0;
#X connect 31 1 23 0;
#X connect 31 1 24 0;
#X connect 32 0 33 0;
#X connect 34 0 28 0;
#X connect 36 0 21 1;
#X connect 36 0 23 1;
#X connect 36 1 22 1;
#X connect 36 1 24 1;
#X connect 37 0 14 1;
#X connect 37 0 15 1;
#X connect 38 0 39 0;
#X connect 38 1 40 0;
#X connect 39 0 31 1;
#X connect 40 0 41 0;
#X connect 41 0 36 1;
#X connect 42 0 17 0;
#X connect 42 0 2 0;
#X connect 43 0 2 1;
#X connect 44 0 3 0;
#X restore 194 441 pd two;
#N canvas 618 22 601 585 three 0;
#X obj 250 162 *~;
#X obj 277 162 *~;
#X obj 267 229 *~;
#X obj 190 129 rfft~;
#X msg 422 421 2 \$1;
#X obj 422 443 /;
#X obj 190 422 rifft~;
#X obj 422 399 * 2;
#X obj 422 243 loadbang;
#X obj 277 327 r \$0-smooth;
#X obj 447 321 r \$0-coef;
#X obj 431 298 r \$0-blocksize;
#X msg 422 265 16384;
#X obj 447 343 t b f;
#X obj 190 390 *~;
#X obj 217 390 *~;
#X obj 190 449 *~;
#X obj 250 307 /~ 128;
#X obj 283 282 sqrt;
#X floatatom 486 344 5 0 0 0 - - -, f 5;
#X floatatom 297 353 5 0 0 0 - - -, f 5;
#X obj 190 473 clip~ 0 1;
#X obj 407 89 switch~;
#X floatatom 88 257 5 0 0 0 - - -, f 5;
#X obj 70 279 *~ 1;
#X obj 190 338 *~;
#X obj 214 338 *~;
#X obj 59 202 delread4~ \$0-ifftdel;
#X obj 259 403 delwrite~ \$0-ifftdel 1000;
#X obj 53 228 -~;
#X obj 39 104 osc~ 10;
#X obj 39 126 *~ 0.5;
#X obj 39 174 *~ 1;
#X obj 91 143 osc~ 100;
#X obj 40 82 +~;
#X floatatom 41 20 5 0 0 0 - - -, f 5;
#X floatatom 96 54 5 0 0 0 - - -, f 5;
#X obj 119 168 * 10;
#X obj 91 166 *~;
#X obj 39 148 +~;
#X obj 93 119 *;
#X obj 97 90 t b f;
#X obj 96 33 * 3;
#X obj 52 408 tabsend~ \$0-fmod;
#X floatatom 24 39 5 0 0 0 - - -, f 5;
#X obj 250 351 expr~ if($v1>$f2 \, 0 \, $v1);
#X obj 250 188 sqrt~;
#X obj 192 99 tabreceive~ \$2-orig;
#X obj 282 207 tabreceive~ 0-han;
#X obj 267 251 tabsend~ \$2-fft;
#X obj 190 496 tabsend~ \$2-ifft;
#X obj 152 11 inlet;
#X obj 152 36 route params switch;
#X obj 152 61 unpack f f f f;
#X connect 0 0 46 0;
#X connect 1 0 46 0;
#X connect 2 0 49 0;
#X connect 3 0 0 0;
#X connect 3 0 0 1;
#X connect 3 0 25 0;
#X connect 3 1 1 0;
#X connect 3 1 1 1;
#X connect 3 1 26 0;
#X connect 4 0 5 0;
#X connect 5 0 16 1;
#X connect 6 0 16 0;
#X connect 7 0 4 0;
#X connect 8 0 12 0;
#X connect 9 0 45 1;
#X connect 10 0 13 0;
#X connect 11 0 7 0;
#X connect 11 0 18 0;
#X connect 12 0 7 0;
#X connect 12 0 18 0;
#X connect 13 0 7 0;
#X connect 13 1 7 1;
#X connect 14 0 6 0;
#X connect 15 0 6 1;
#X connect 16 0 21 0;
#X connect 17 0 45 0;
#X connect 18 0 17 1;
#X connect 19 0 13 0;
#X connect 20 0 45 1;
#X connect 21 0 50 0;
#X connect 23 0 24 1;
#X connect 24 0 25 1;
#X connect 24 0 26 1;
#X connect 25 0 14 0;
#X connect 26 0 15 0;
#X connect 27 0 29 1;
#X connect 29 0 24 0;
#X connect 30 0 31 0;
#X connect 31 0 39 0;
#X connect 32 0 27 0;
#X connect 32 0 29 0;
#X connect 32 0 43 0;
#X connect 33 0 38 0;
#X connect 33 0 39 1;
#X connect 34 0 30 0;
#X connect 35 0 34 0;
#X connect 35 0 40 0;
#X connect 35 0 42 0;
#X connect 36 0 32 1;
#X connect 36 0 37 0;
#X connect 36 0 41 0;
#X connect 37 0 38 1;
#X connect 38 0 34 1;
#X connect 39 0 32 0;
#X connect 40 0 33 0;
#X connect 41 0 40 0;
#X connect 41 1 40 1;
#X connect 42 0 36 0;
#X connect 44 0 40 0;
#X connect 44 0 34 0;
#X connect 45 0 14 1;
#X connect 45 0 15 1;
#X connect 45 0 28 0;
#X connect 46 0 2 0;
#X connect 46 0 17 0;
#X connect 47 0 3 0;
#X connect 48 0 2 1;
#X connect 51 0 52 0;
#X connect 52 0 53 0;
#X connect 52 1 22 0;
#X connect 53 0 44 0;
#X connect 53 1 35 0;
#X connect 53 2 42 1;
#X connect 53 3 23 0;
#X restore 254 441 pd three;
#X obj 92 513 array define \$0-fmod \$1;
#X obj 129 17 loadbang;
#X msg 129 40 1;
#X obj 347 7 inlet;
#N canvas 348 53 752 631 four 0;
#X obj 192 519 clip~ 0 1;
#X obj 29 95 r vpvoc-1;
#X obj 173 103 *~;
#X obj 200 103 *~;
#X obj 192 208 *~;
#X obj 113 70 rfft~;
#X obj 226 172 tabreceive~ 0-han;
#X floatatom 422 204 5 0 0 0 - - -, f 5;
#X obj 222 258 expr~ if($v1<$f2 \, 0 \, $v1);
#X obj 189 433 rifft~;
#X obj 189 467 *~;
#X obj 222 467 tabreceive~ 0-han;
#X obj 596 448 loadbang;
#X obj 548 346 r pvocwin-\$1;
#X msg 596 473 16384;
#X obj 190 491 *~ 0.01;
#X obj 596 498 expr 2/(3*$f1);
#X obj 107 310 *~;
#X obj 147 310 *~;
#X obj 173 129 sqrt~;
#X obj 481 40 inlet;
#X obj 481 65 switch~;
#X obj 112 38 tabreceive~ \$2-orig;
#X obj 229 386 tabsend~ \$2-fft;
#X obj 33 161 _vpvoc 1 \$2;
#X obj 197 563 tabsend~ \$2-ifft;
#X obj 411 148 r \$0-smooth;
#X obj 29 120 route switch;
#X connect 0 0 25 0;
#X connect 1 0 27 0;
#X connect 2 0 19 0;
#X connect 3 0 19 0;
#X connect 4 0 8 0;
#X connect 5 0 2 0;
#X connect 5 0 2 1;
#X connect 5 1 3 0;
#X connect 5 1 3 1;
#X connect 6 0 4 1;
#X connect 7 0 8 1;
#X connect 8 0 17 1;
#X connect 8 0 18 1;
#X connect 8 0 23 0;
#X connect 9 0 10 0;
#X connect 10 0 15 0;
#X connect 11 0 10 1;
#X connect 12 0 14 0;
#X connect 13 0 11 0;
#X connect 14 0 16 0;
#X connect 15 0 0 0;
#X connect 16 0 15 1;
#X connect 17 0 9 0;
#X connect 18 0 9 1;
#X connect 19 0 4 0;
#X connect 20 0 21 0;
#X connect 22 0 5 0;
#X connect 24 0 17 0;
#X connect 24 1 18 0;
#X connect 26 0 7 0;
#X connect 27 1 24 0;
#X restore 361 435 pd four;
#X obj 386 405 tgl 15 0 empty empty empty 17 7 0 10 -262144 -1 -1 0
1;
#X msg 32 108 set \$1 1 1;
#X obj 430 408 tgl 15 0 empty empty empty 17 7 0 10 -262144 -1 -1 0
1;
#X msg 268 416 switch \$1;
#N canvas 603 105 450 300 vocode 0;
#X obj 203 131 _vocode;
#X obj 160 98 b;
#X obj 213 39 r toggle-0;
#X obj 213 64 bng 15 250 50 0 empty empty empty 17 7 0 10 -262144 -1
-1;
#X msg 48 163 normalize 0.5;
#X obj 48 138 del 1024 1 samp;
#X obj 35 187 array define vocode 1024;
#X connect 1 0 0 0;
#X connect 1 0 5 0;
#X connect 2 0 3 0;
#X connect 3 0 1 0;
#X connect 4 0 6 0;
#X connect 5 0 4 0;
#X restore 504 504 pd vocode ____________;
#N canvas 411 229 577 606 ffs 0;
#X obj 91 84 *~;
#X obj 118 84 *~;
#X obj 120 160 *~;
#X obj 31 51 rfft~;
#X msg 352 334 2 \$1;
#X obj 352 356 /;
#X obj 31 448 rifft~;
#X obj 352 312 * 2;
#X obj 352 156 loadbang;
#X obj 377 234 r \$0-coef;
#X obj 361 211 r \$0-blocksize;
#X msg 352 178 16384;
#X obj 377 256 t b f;
#X obj 31 351 *~;
#X obj 62 351 *~;
#X obj 31 475 *~;
#X obj 252 202 sqrt;
#X floatatom 416 257 5 0 0 0 - - -, f 5;
#X floatatom 319 278 5 0 0 0 - - -, f 5;
#X obj 30 500 clip~ 0 1;
#X obj 273 28 inlet;
#X obj 273 50 switch~;
#X obj 92 240 /~ 128;
#X floatatom 283 289 5 0 0 0 - - -, f 5;
#X floatatom 441 61 5 0 0 0 - - -, f 5;
#X obj 135 138 tabreceive~ 0-han;
#X floatatom 185 58 5 0 0 0 - - -, f 5;
#X obj 185 80 _seltab;
#X msg 185 105 set \$1;
#X obj 92 305 *~;
#X floatatom 188 279 5 0 0 0 - - -, f 5;
#X obj 128 310 <~ 1e-20;
#X obj 94 212 +~ 1e-20;
#X floatatom 274 167 5 0 0 0 - - -, f 5;
#X symbolatom 258 105 10 0 0 0 - - -, f 10;
#X obj 91 110 sqrt~;
#X obj 30 19 tabreceive~ \$2-orig;
#X obj 30 522 tabsend~ \$2-ifft;
#X obj 120 182 tabsend~ \$2-fft;
#X connect 0 0 35 0;
#X connect 1 0 35 0;
#X connect 2 0 32 0;
#X connect 2 0 38 0;
#X connect 3 0 0 0;
#X connect 3 0 0 1;
#X connect 3 0 13 0;
#X connect 3 1 1 0;
#X connect 3 1 1 1;
#X connect 3 1 14 0;
#X connect 4 0 5 0;
#X connect 5 0 15 1;
#X connect 6 0 15 0;
#X connect 7 0 4 0;
#X connect 8 0 11 0;
#X connect 9 0 12 0;
#X connect 10 0 7 0;
#X connect 10 0 16 0;
#X connect 11 0 7 0;
#X connect 11 0 16 0;
#X connect 12 0 7 0;
#X connect 12 1 7 1;
#X connect 13 0 6 0;
#X connect 14 0 6 1;
#X connect 15 0 19 0;
#X connect 16 0 22 1;
#X connect 17 0 12 0;
#X connect 18 0 22 1;
#X connect 19 0 37 0;
#X connect 20 0 21 0;
#X connect 22 0 29 0;
#X connect 22 0 31 0;
#X connect 25 0 2 1;
#X connect 26 0 27 0;
#X connect 27 0 28 0;
#X connect 27 0 34 0;
#X connect 28 0 25 0;
#X connect 29 0 13 1;
#X connect 29 0 14 1;
#X connect 30 0 31 1;
#X connect 31 0 29 1;
#X connect 32 0 22 0;
#X connect 33 0 22 1;
#X connect 35 0 2 0;
#X connect 36 0 3 0;
#X restore 431 433 pd ffs;
#X obj 314 282 t f b;
#X msg 768 380 0;
#X obj 314 307 route 0 1 2 3 4 5 6 7;
#X msg 256 2;
#X floatatom 224 280 5 0 0 0 - - -, f 5;
#X obj 504 424 _complexmodV \$2;
#X obj 643 425 _timbrestampV \$2;
#X obj 391 508 outlet;
#X msg 506 298 0;
#X msg 214 337 1;
#X msg 261 354 1;
#X msg 318 354 1;
#X msg 375 352 1;
#X msg 415 351 1;
#X msg 460 349 1;
#X obj 356 99 r complexmod;
#X obj 472 98 r timbrestamp;
#X obj 356 124 route switch;
#X obj 472 130 route switch;
#X obj 501 395 tgl 15 0 empty empty empty 17 7 0 10 -262144 -1 -1 1
1;
#X obj 642 387 tgl 15 0 empty empty empty 17 7 0 10 -262144 -1 -1 0
1;
#X msg 505 354 1;
#X msg 548 346 1;
#X obj 356 149 sel 1;
#X msg 356 174 5;
#X obj 483 164 sel 1;
#X msg 483 189 6;
#X floatatom 613 205 5 0 0 0 - - -, f 5;
#X obj 599 98 route switch;
#X obj 610 132 sel 1;
#X obj 599 66 r vpvoc-1;
#X msg 610 157 3;
#X connect 0 0 1 0;
#X connect 1 0 2 0;
#X connect 1 1 2 1;
#X connect 2 0 3 0;
#X connect 3 0 4 0;
#X connect 4 0 5 0;
#X connect 7 0 6 0;
#X connect 8 0 23 0;
#X connect 9 0 10 0;
#X connect 12 0 11 0;
#X connect 12 0 35 0;
#X connect 13 0 15 0;
#X connect 13 0 35 0;
#X connect 14 0 25 0;
#X connect 14 0 35 0;
#X connect 18 0 19 0;
#X connect 19 0 12 0;
#X connect 20 0 28 0;
#X connect 22 0 21 0;
#X connect 22 0 35 0;
#X connect 23 0 6 0;
#X connect 24 0 27 0;
#X connect 24 0 35 0;
#X connect 25 0 16 0;
#X connect 28 0 30 0;
#X connect 28 1 29 0;
#X connect 29 0 12 0;
#X connect 29 0 13 0;
#X connect 29 0 14 0;
#X connect 29 0 22 0;
#X connect 29 0 24 0;
#X connect 29 0 35 0;
#X connect 29 0 48 0;
#X connect 29 0 47 0;
#X connect 30 0 37 0;
#X connect 30 1 38 0;
#X connect 30 2 39 0;
#X connect 30 3 40 0;
#X connect 30 4 41 0;
#X connect 30 5 42 0;
#X connect 30 6 49 0;
#X connect 30 7 50 0;
#X connect 30 8 36 0;
#X connect 32 0 28 0;
#X connect 36 0 35 0;
#X connect 37 0 12 0;
#X connect 38 0 13 0;
#X connect 39 0 14 0;
#X connect 40 0 22 0;
#X connect 41 0 24 0;
#X connect 42 0 47 0;
#X connect 43 0 45 0;
#X connect 44 0 46 0;
#X connect 45 0 51 0;
#X connect 46 0 53 0;
#X connect 46 0 55 0;
#X connect 47 0 33 0;
#X connect 47 0 35 0;
#X connect 48 0 34 0;
#X connect 48 0 35 0;
#X connect 49 0 48 0;
#X connect 51 0 52 0;
#X connect 51 1 47 0;
#X connect 52 0 28 0;
#X connect 53 0 54 0;
#X connect 53 1 29 0;
#X connect 54 0 28 0;
#X connect 56 0 57 0;
#X connect 57 0 59 0;
#X connect 57 1 29 0;
#X connect 58 0 56 0;
#X connect 59 0 28 0;
#X restore 198 342 pd fft __;
#N canvas 465 83 701 604 display 0;
#X obj 173 293 list;
#X msg 57 290 GREY;
#X msg 213 158 normalize 1;
#X obj 10 179 pix_separator;
#X obj 33 203 separator;
#X obj 526 309 list;
#X msg 447 319 GREY;
#X obj 440 240 pix_separator;
#X obj 440 262 separator;
#X msg 566 192 normalize 1;
#X obj 489 162 t b b b b;
#X obj 426 454 pix_flip;
#X obj 450 124 spigot;
#X obj 152 102 spigot 1;
#X obj 491 102 == 0;
#X obj 137 140 t b b b b;
#X obj 151 78 t b b;
#X msg 452 422 vertical;
#X obj 91 453 pix_roll;
#X msg 156 422 64;
#X obj 31 2 inlet;
#X obj 35 144 t a a;
#X obj 271 572 outlet;
#X obj 20 313 s \$0-FFTin1;
#X obj 35 398 r \$0-FFTout1;
#X obj 177 330 s \$0-FFTin2;
#X obj 553 349 s \$0-IFFTin2;
#X obj 376 350 s \$0-IFFTin1;
#X obj 409 396 r \$0-IFFTout1;
#N canvas 0 22 450 300 \$0-pix_set-IFFT 0;
#X obj 10 10 r 14010-IFFTin1;
#X obj 60 10 r 14010-IFFTin2;
#X obj 10 30 pix_set 128 128;
#X obj 10 60 s 14010-IFFTout1;
#X connect 0 0 2 0;
#X connect 1 0 2 1;
#X connect 2 0 3 0;
#X restore 443 371 pd \$0-pix_set-IFFT;
#N canvas 0 22 450 300 \$0-pix_set-FFT 0;
#X obj 10 10 r 14010-FFTin1;
#X obj 144 10 r 14010-FFTin2;
#X obj 10 30 pix_set 64 64;
#X obj 10 60 s 14010-FFTout1;
#X connect 0 0 2 0;
#X connect 1 0 2 1;
#X connect 2 0 3 0;
#X restore 81 356 pd \$0-pix_set-FFT;
#N canvas 605 77 609 497 pix_set-dynamic-creation 0;
#X obj 39 17 r \$0-blocksize;
#X obj 39 67 sqrt;
#X obj 39 89 int;
#X obj 38 215 t f f;
#X obj 65 239 / 2;
#X obj 38 287 pack f f \$0;
#X obj 65 261 int;
#X obj 39 111 moses 4;
#X obj 79 131 moses 8;
#X obj 118 151 moses 16;
#X obj 164 174 moses 32;
#X obj 209 195 moses 64;
#X obj 124 91 moses 128;
#X obj 164 111 moses 256;
#X obj 203 131 moses 512;
#X obj 249 154 moses 1024;
#X obj 294 175 moses 2048;
#X msg 39 133 4;
#X msg 79 153 4;
#X msg 118 173 8;
#X msg 164 196 16;
#X msg 209 217 32;
#X msg 124 113 64;
#X msg 164 133 128;
#X msg 206 152 256;
#X msg 249 176 512;
#X msg 294 197 1024;
#X msg 350 199 2048;
#X msg 38 309 \; pd-\$3-pix_set-IFFT clear \, obj 10 10 r \$3-IFFTin1
\, obj 60 10 r \$3-IFFTin2 \, obj 10 30 pix_set \$1 \$1 \, obj 10 60
s \$3-IFFTout1 \, connect 0 0 2 0 \, connect 1 0 2 1 \, connect 2 0
3 0 \; pd-\$3-pix_set-FFT clear \, obj 10 10 r \$3-FFTin1 \, obj 60
10 r \$3-FFTin2 \, obj 10 30 pix_set \$2 \$2 \, obj 10 60 s \$3-FFTout1
\, connect 0 0 2 0 \, connect 1 0 2 1 \, connect 2 0 3 0 \; \$3-dimen
\$1 \$1 \;;
#X obj 39 39 change;
#X connect 0 0 29 0;
#X connect 1 0 2 0;
#X connect 2 0 7 0;
#X connect 3 0 5 0;
#X connect 3 1 4 0;
#X connect 4 0 6 0;
#X connect 5 0 28 0;
#X connect 6 0 5 1;
#X connect 7 0 17 0;
#X connect 7 1 8 0;
#X connect 8 0 18 0;
#X connect 8 1 9 0;
#X connect 9 0 19 0;
#X connect 9 1 10 0;
#X connect 10 0 20 0;
#X connect 10 1 11 0;
#X connect 11 0 21 0;
#X connect 11 1 12 0;
#X connect 12 0 22 0;
#X connect 12 1 13 0;
#X connect 13 0 23 0;
#X connect 13 1 14 0;
#X connect 14 0 24 0;
#X connect 14 1 15 0;
#X connect 15 0 25 0;
#X connect 15 1 16 0;
#X connect 16 0 26 0;
#X connect 16 1 27 0;
#X connect 17 0 3 0;
#X connect 18 0 3 0;
#X connect 19 0 3 0;
#X connect 20 0 3 0;
#X connect 21 0 3 0;
#X connect 22 0 3 0;
#X connect 23 0 3 0;
#X connect 24 0 3 0;
#X connect 25 0 3 0;
#X connect 26 0 3 0;
#X connect 27 0 3 0;
#X connect 29 0 1 0;
#X restore 258 25 pd pix_set-dynamic-creation;
#X obj 267 261 r \$0-blocksize;
#X obj 513 54 r \$0-mode;
#X obj 30 35 route float;
#X obj 267 305 / 2;
#X obj 447 298 bang;
#X obj 57 264 bang;
#X obj 267 327 del 1 1 samp;
#X obj 267 283 t f b;
#X msg 296 304 stop;
#X msg 98 259 RGBA;
#X obj 209 385 r \$0-dimen;
#X obj 209 407 unpack;
#X obj 209 429 / 2;
#X obj 209 451 int;
#X msg 209 473 set \$1;
#X obj 38 347 tgl 15 0 empty empty empty 17 7 0 10 -262144 -1 -1 1
1;
#X floatatom 284 427 5 0 0 0 - - -, f 5;
#X msg 105 421 axis 0;
#X obj 194 236 array get \$2-fft;
#X obj 547 252 array get \$2-ifft;
#X obj 213 180 s \$2-fft;
#X obj 566 214 s \$2-ifft;
#X connect 0 0 25 0;
#X connect 1 0 23 0;
#X connect 2 0 52 0;
#X connect 3 0 4 0;
#X connect 4 0 23 0;
#X connect 5 0 26 0;
#X connect 6 0 27 0;
#X connect 7 0 8 0;
#X connect 8 0 27 0;
#X connect 9 0 53 0;
#X connect 10 0 5 0;
#X connect 10 1 51 0;
#X connect 10 3 9 0;
#X connect 11 0 22 0;
#X connect 12 0 10 0;
#X connect 13 0 15 0;
#X connect 14 0 12 1;
#X connect 15 0 0 0;
#X connect 15 1 50 0;
#X connect 15 3 2 0;
#X connect 16 0 13 0;
#X connect 16 1 12 0;
#X connect 17 0 11 0;
#X connect 18 0 22 0;
#X connect 19 0 18 1;
#X connect 20 0 34 0;
#X connect 21 0 3 0;
#X connect 21 1 7 0;
#X connect 24 0 18 0;
#X connect 28 0 11 0;
#X connect 32 0 39 0;
#X connect 33 0 13 1;
#X connect 33 0 14 0;
#X connect 34 0 16 0;
#X connect 34 1 21 0;
#X connect 35 0 38 0;
#X connect 36 0 6 0;
#X connect 36 0 17 0;
#X connect 37 0 1 0;
#X connect 37 0 49 0;
#X connect 37 0 19 0;
#X connect 37 0 47 0;
#X connect 38 0 36 0;
#X connect 38 0 37 0;
#X connect 39 0 35 0;
#X connect 39 1 40 0;
#X connect 40 0 38 0;
#X connect 41 0 23 0;
#X connect 42 0 43 0;
#X connect 43 0 44 0;
#X connect 44 0 45 0;
#X connect 45 0 46 0;
#X connect 46 0 19 0;
#X connect 48 0 46 0;
#X connect 48 0 18 1;
#X connect 49 0 18 0;
#X connect 50 0 0 1;
#X connect 51 0 5 1;
#X restore 126 393 pd display __________;
#X obj 13 12 inlet;
#X obj 330 13 inlet;
#X text 116 8 dsp must be on for [fft~];
#N canvas 0 22 450 300 arg1 0;
#X obj 36 87 loadbang;
#X obj 36 109 pack \$1;
#X obj 36 131 sel 0;
#X msg 36 153 16384;
#X obj 57 180 outlet;
#X connect 0 0 1 0;
#X connect 1 0 2 0;
#X connect 2 0 3 0;
#X connect 2 1 4 0;
#X connect 3 0 4 0;
#X restore 37 121 pd arg1;
#X obj 367 429 outlet;
#N canvas 0 22 450 300 once 0;
#X obj 56 90 bang;
#X obj 57 154 pack \$0;
#X obj 56 112 spigot 1;
#X obj 56 134 t b b;
#X msg 96 134 0;
#X obj 91 90 r \$0-blocksize;
#X obj 56 64 inlet;
#X obj 57 176 outlet;
#X connect 0 0 2 0;
#X connect 1 0 7 0;
#X connect 2 0 3 0;
#X connect 3 0 1 0;
#X connect 3 1 4 0;
#X connect 4 0 2 1;
#X connect 5 0 2 1;
#X connect 6 0 0 0;
#X restore 367 403 pd once \$0 out;
#X obj 153 208 pix_histo \$2-histo;
#X connect 0 0 18 0;
#X connect 1 0 2 0;
#X connect 2 0 0 1;
#X connect 9 0 20 0;
#X connect 10 0 5 0;
#X connect 15 0 4 0;
#X connect 15 1 3 0;
#X connect 15 2 7 0;
#X connect 15 3 11 0;
#X connect 15 4 22 1;
#X connect 16 0 8 0;
#X connect 16 1 10 0;
#X connect 16 2 0 0;
#X connect 17 0 22 0;
#X connect 18 0 23 0;
#X connect 18 1 9 0;
#X connect 19 1 17 0;
#X connect 20 0 30 0;
#X connect 21 0 19 0;
#X connect 21 1 19 0;
#X connect 22 0 23 0;
#X connect 22 0 29 0;
#X connect 23 0 6 0;
#X connect 24 0 16 0;
#X connect 25 0 15 0;
#X connect 27 0 10 0;
#X connect 29 0 28 0;
#X connect 30 0 21 0;
