#N canvas 0 22 492 391 12;
#X obj 20 20 cnv 15 120 100 empty empty complexmodGui 8 8 0 10 -228856
-1 0;
#X obj 111 22 tgl 15 0 empty empty sw 17 7 0 10 -262144 -1 -1 0 1;
#X obj 98 259 list prepend assign, f 12;
#X obj 98 305 list trim;
#X obj 46 39 vradio 15 1 0 4 empty empty empty 0 -8 0 10 -262144 -1
-1 0;
#X obj 61 39 vradio 15 1 0 4 empty empty empty 0 -8 0 10 -262144 -1
-1 3;
#X obj 76 39 vradio 15 1 0 4 empty empty empty 0 -8 0 10 -262144 -1
-1 1;
#X obj 91 39 vradio 15 1 0 4 empty empty empty 0 -8 0 10 -262144 -1
-1 1;
#X obj 21 132 + 1;
#X obj 21 152 + 1;
#X obj 21 172 + 1;
#X obj 21 192 + 1;
#X obj 21 252 t b f;
#X obj 21 232 t b f;
#X obj 21 212 t b f;
#X msg 275 39 switch \$1;
#X msg 330 117 spat \$1;
#X obj 21 290 pack 1 1 1 1, f 6;
#X obj 26 102 hsl 50 15 -1 1 0 0 empty empty spat 14 8 0 10 -262144
-1 -1 0 1;
#X obj 85 102 hsl 50 15 0.01 1 1 0 empty empty spat-amp 0 8 0 10 -262144
-1 -1 0 1;
#X msg 405 117 amp \$1;
#X obj 20 20 bng 8 250 50 0 \$0 \$0- empty 17 7 0 8 -262144 -1 -1;
#X obj 374 53 fd_visera 1;
#X msg 374 28 complexmod;
#X obj 113 39 bng 10 250 50 0 empty empty empty 17 7 0 10 -258113 -1
-1;
#X obj 154 69 _spatpanic;
#X msg 154 94 1;
#X msg 174 43 0;
#X obj 24 38 bng 15 250 50 0 empty empty empty 17 7 0 10 -262144 -1
-1;
#X obj 216 353 random 4;
#X msg 22 352 0 \, 1 \, 2 \, 3;
#X obj 171 354 t f b;
#X obj 126 352 pack;
#X obj 139 152 route 0 1 2 3;
#X obj 340 178 metro 1000;
#X obj 340 203 t b b;
#X obj 374 232 random 2000;
#X obj 374 257 + 20000;
#X obj 275 350 s complexmod;
#X obj 275 325 list trim;
#X msg 98 199 0 set adc-\$1 \, 1 set adc-\$2 \, 2 set adc-\$3 \, 3
set adc-\$4, f 20;
#X connect 1 0 15 0;
#X connect 1 0 34 0;
#X connect 2 0 3 0;
#X connect 3 0 39 0;
#X connect 4 0 8 0;
#X connect 5 0 9 0;
#X connect 6 0 10 0;
#X connect 7 0 11 0;
#X connect 8 0 17 0;
#X connect 9 0 14 0;
#X connect 10 0 13 0;
#X connect 11 0 12 0;
#X connect 12 0 17 0;
#X connect 12 1 17 3;
#X connect 13 0 17 0;
#X connect 13 1 17 2;
#X connect 14 0 17 0;
#X connect 14 1 17 1;
#X connect 15 0 39 0;
#X connect 16 0 39 0;
#X connect 17 0 40 0;
#X connect 18 0 16 0;
#X connect 19 0 20 0;
#X connect 20 0 39 0;
#X connect 21 0 23 0;
#X connect 23 0 22 0;
#X connect 24 0 25 0;
#X connect 24 0 27 0;
#X connect 25 0 26 0;
#X connect 26 0 1 0;
#X connect 27 0 1 0;
#X connect 28 0 30 0;
#X connect 29 0 32 1;
#X connect 30 0 31 0;
#X connect 31 0 32 0;
#X connect 31 1 29 0;
#X connect 32 0 33 0;
#X connect 33 0 4 0;
#X connect 33 1 5 0;
#X connect 33 2 6 0;
#X connect 33 3 7 0;
#X connect 34 0 35 0;
#X connect 35 0 28 0;
#X connect 35 1 36 0;
#X connect 36 0 37 0;
#X connect 37 0 34 1;
#X connect 39 0 38 0;
#X connect 40 0 2 0;
#X coords 0 -1 1 1 120 100 2 20 20;
