#N canvas 0 22 598 599 12;
#X obj 103 399 *~;
#X obj 124 103 delwrite~ \$0-pvoc 300, f 11;
#X obj 262 325 delread4~ \$0-pvoc, f 9;
#X obj 262 271 *~ 50;
#X obj 262 296 +~ 100;
#X obj 139 284 sig~ 1;
#X obj 139 309 -~;
#X obj 139 334 *~ -1;
#X obj 139 359 abs~;
#X obj 139 384 sqrt~;
#X obj 221 398 *~;
#X obj 203 268 *~ 0.5;
#X obj 203 293 +~ 0.5;
#X obj 203 318 sqrt~;
#X obj 239 88 osc~ 0.01;
#X obj 239 136 +~ 63;
#X obj 239 161 +~ 1;
#X obj 239 113 *~ 62;
#X obj 305 32 loadbang;
#X msg 303 58 0.5;
#X obj 239 188 tabread4~ caos, f 9;
#X obj 105 69 inlet~;
#X obj 101 486 *~;
#X obj 219 485 *~;
#X obj 101 511 throw~ 1-dacout, f 8;
#X obj 219 510 throw~ 2-dacout, f 8;
#X obj 344 74 inlet;
#X msg 338 161 set \$1;
#X obj 344 99 route q tab;
#X obj 447 395 inlet~;
#X text 430 343 soft switch;
#X obj 338 136 _seltab;
#X symbolatom 424 162 10 0 0 0 - - -, f 10;
#X connect 0 0 22 0;
#X connect 2 0 10 0;
#X connect 3 0 4 0;
#X connect 4 0 2 0;
#X connect 5 0 6 0;
#X connect 6 0 7 0;
#X connect 7 0 8 0;
#X connect 8 0 9 0;
#X connect 9 0 0 1;
#X connect 10 0 23 0;
#X connect 11 0 12 0;
#X connect 12 0 6 1;
#X connect 12 0 13 0;
#X connect 13 0 10 1;
#X connect 14 0 17 0;
#X connect 15 0 16 0;
#X connect 16 0 20 0;
#X connect 17 0 15 0;
#X connect 18 0 19 0;
#X connect 19 0 14 1;
#X connect 20 0 11 0;
#X connect 20 0 3 0;
#X connect 21 0 1 0;
#X connect 21 0 0 0;
#X connect 22 0 24 0;
#X connect 23 0 25 0;
#X connect 26 0 28 0;
#X connect 27 0 20 0;
#X connect 28 0 14 0;
#X connect 28 1 31 0;
#X connect 29 0 22 1;
#X connect 29 0 23 1;
#X connect 31 0 27 0;
#X connect 31 0 32 0;
