#N canvas 427 33 465 733 10;
#X obj 222 306 line~;
#X msg 35 252 0;
#X msg 69 248 1;
#X obj 35 482 line~;
#X obj 35 526 +~ 1;
#X obj 35 611 *~;
#X msg 104 529 set \$1;
#X symbolatom 104 510 10 0 0 0 - - -, f 10;
#X obj 37 7 inlet;
#X obj 35 504 *~ 2046;
#X obj 352 38 inlet;
#X obj 45 436 pack f 100;
#X obj 222 281 pack f 10;
#X obj 102 414 max 10;
#X obj 222 594 tabread4~;
#X obj 56 161 array size;
#X msg 75 136 symbol flute-\$1;
#X obj 56 110 t b f f;
#X msg 186 127 set flute-\$1;
#X obj 56 182 s \$0-size;
#X obj 186 149 s \$0-samp;
#X obj 255 572 r \$0-samp;
#X obj 36 208 t b b b;
#X obj 343 332 * 4.41;
#X obj 237 385 random;
#X obj 270 304 r \$0-size;
#X obj 270 326 - 2;
#X obj 237 407 reflect;
#X obj 289 371 -;
#X obj 353 483 -;
#X obj 353 568 / 44.1;
#X obj 353 590 s \$0-speed;
#X obj 273 206 r \$0-speed;
#X obj 353 505 abs;
#X obj 353 527 reflect;
#X obj 270 348 t f f f;
#X obj 343 354 t f f f;
#X obj 237 429 t f f;
#X obj 222 509 *~;
#X obj 222 561 +~;
#X obj 238 455 pack f 10;
#X obj 237 479 line~;
#X obj 256 507 pack f 10;
#X obj 237 536 line~;
#X obj 273 252 * 1;
#X obj 288 228 r f-speed-coef;
#X obj 37 34 t b b f;
#X obj 76 60 s \$0-length;
#X obj 343 310 r \$0-length;
#X obj 102 390 r \$0-length;
#X obj 104 485 r g-flute-window-\$1;
#X obj 56 85 random \$2;
#X obj 67 618 r g-flute-gain;
#X msg 67 640 \$1 10;
#X obj 67 662 line~;
#X text 135 109 reading from loaded-samples;
#X obj 35 556 tabread4~ \$3-han;
#X obj 35 699 _spat dacout, f 21;
#X obj 37 668 *~;
#X obj 35 721 switch~;
#X connect 0 0 38 0;
#X connect 1 0 3 0;
#X connect 1 0 0 0;
#X connect 2 0 11 0;
#X connect 2 0 12 0;
#X connect 3 0 9 0;
#X connect 4 0 56 0;
#X connect 5 0 58 0;
#X connect 6 0 56 0;
#X connect 7 0 6 0;
#X connect 8 0 46 0;
#X connect 9 0 4 0;
#X connect 10 0 57 1;
#X connect 11 0 3 0;
#X connect 12 0 0 0;
#X connect 13 0 11 1;
#X connect 14 0 5 1;
#X connect 15 0 19 0;
#X connect 16 0 15 1;
#X connect 17 0 15 0;
#X connect 17 1 16 0;
#X connect 17 2 18 0;
#X connect 18 0 20 0;
#X connect 21 0 14 0;
#X connect 22 0 2 0;
#X connect 22 1 1 0;
#X connect 22 2 24 0;
#X connect 23 0 36 0;
#X connect 24 0 27 0;
#X connect 25 0 26 0;
#X connect 26 0 35 0;
#X connect 27 0 37 0;
#X connect 29 0 33 0;
#X connect 30 0 31 0;
#X connect 32 0 44 0;
#X connect 33 0 34 0;
#X connect 34 0 30 0;
#X connect 35 0 24 1;
#X connect 35 1 28 0;
#X connect 36 0 28 1;
#X connect 36 1 42 0;
#X connect 36 2 29 1;
#X connect 37 0 40 0;
#X connect 37 1 29 0;
#X connect 38 0 39 0;
#X connect 39 0 14 0;
#X connect 40 0 41 0;
#X connect 41 0 38 1;
#X connect 42 0 43 0;
#X connect 43 0 39 1;
#X connect 44 0 12 1;
#X connect 45 0 44 1;
#X connect 46 0 22 0;
#X connect 46 1 51 0;
#X connect 46 2 47 0;
#X connect 48 0 23 0;
#X connect 49 0 13 0;
#X connect 50 0 7 0;
#X connect 51 0 17 0;
#X connect 52 0 53 0;
#X connect 53 0 54 0;
#X connect 54 0 58 1;
#X connect 56 0 5 0;
#X connect 57 0 59 0;
#X connect 58 0 57 0;
