#N canvas 121 96 1065 582 12;
#X obj 136 350 s pd-_spat.pd;
#X msg 727 177 clear;
#X obj 432 294 t f f;
#X obj 432 344 pack;
#X msg 432 372 obj \$1 \$2 inlet~;
#X msg 432 246 1 \, 2 \, 3 \, 4;
#X obj 432 271 * 10;
#X obj 670 510 s pd-lorenzoo;
#X obj 466 320 * 2;
#X obj 432 319 + 10;
#X obj 433 449 t f f;
#X obj 433 499 pack;
#X obj 433 426 * 10;
#X obj 473 474 * 2;
#X msg 433 527 obj \$1 \$2 outlet~;
#X obj 433 474 + 10;
#X msg 433 401 1 \, 2 \, 3 \, 4;
#X msg 621 428 connect \$1 \$2 \$3 \$4;
#X msg 569 268 0 \, 1 \, 2 \, 3;
#X msg 568 291 \$1 0 4 \$1;
#X msg 678 271 0 \, 1 \, 2 \, 3;
#X obj 678 296 t f f;
#X obj 731 299 pack;
#X obj 771 299 + 5;
#X obj 473 499 + 120;
#X msg 539 402 obj 20 110 lor8~;
#X msg 677 331 4 \$1 \$2 0;
#X msg 624 51 bang;
#X obj 369 128 t b b;
#X msg 51 279 connect 49 \$1 \$2 0;
#X msg 255 296 connect \$2 0 49 \$1;
#X msg 51 254 0 13 \, 1 21 \, 2 22 \, 3 38;
#X msg 256 191 0 24 \, 1 18 \, 2 17 \, 3 16;
#X obj 175 167 del 2;
#X obj 16 19 inlet;
#X obj 624 76 t b b b b b b;
#X obj 14 192 outlet;
#X obj 311 64 s gspat;
#X msg 270 24 0;
#X msg 267 54 1;
#X obj 101 50 del 110;
#X obj 152 199 t b b b;
#X obj 80 103 del 10;
#X obj 80 128 t b b;
#X obj 106 20 t b b b;
#X obj 168 49 s hitpanic;
#X obj 16 44 fd_spigot;
#X obj 18 155 del 10;
#X connect 1 0 7 0;
#X connect 2 0 9 0;
#X connect 2 1 8 0;
#X connect 3 0 4 0;
#X connect 4 0 7 0;
#X connect 5 0 6 0;
#X connect 6 0 2 0;
#X connect 8 0 3 1;
#X connect 9 0 3 0;
#X connect 10 0 15 0;
#X connect 10 1 13 0;
#X connect 11 0 14 0;
#X connect 12 0 10 0;
#X connect 13 0 24 0;
#X connect 14 0 7 0;
#X connect 15 0 11 0;
#X connect 16 0 12 0;
#X connect 17 0 7 0;
#X connect 18 0 19 0;
#X connect 19 0 17 0;
#X connect 20 0 21 0;
#X connect 21 0 22 0;
#X connect 21 1 23 0;
#X connect 22 0 26 0;
#X connect 23 0 22 1;
#X connect 24 0 11 1;
#X connect 25 0 7 0;
#X connect 26 0 17 0;
#X connect 27 0 35 0;
#X connect 28 0 33 0;
#X connect 28 1 35 0;
#X connect 29 0 0 0;
#X connect 30 0 0 0;
#X connect 31 0 29 0;
#X connect 32 0 30 0;
#X connect 33 0 41 0;
#X connect 34 0 46 0;
#X connect 35 0 20 0;
#X connect 35 1 18 0;
#X connect 35 2 16 0;
#X connect 35 3 25 0;
#X connect 35 4 5 0;
#X connect 35 5 1 0;
#X connect 38 0 37 0;
#X connect 39 0 37 0;
#X connect 40 0 28 0;
#X connect 41 0 42 0;
#X connect 41 1 31 0;
#X connect 41 2 32 0;
#X connect 42 0 43 0;
#X connect 43 0 45 0;
#X connect 43 0 47 0;
#X connect 43 1 39 0;
#X connect 44 0 40 0;
#X connect 44 1 38 0;
#X connect 44 2 45 0;
#X connect 46 0 44 0;
#X connect 47 0 36 0;
#X connect 47 0 46 1;
