#N canvas 18 563 316 67 12;
#X declare -path ~/Documents/fd_lib;
#X declare -stdlib Gem;
#X declare -path ../_lib;
#X obj 6 6 fd_netreceive;
#N canvas 1048 49 231 220 VIDEO 1;
#N canvas 0 22 454 473 dependencies 0;
#X text 18 17 declare all dependencies here;
#X obj 19 43 cnv 15 400 400 empty empty empty 20 12 0 14 -233017 -66577
0;
#X obj 40 85 declare -path ~/Documents/fd_lib;
#X obj 40 62 declare -stdlib Gem;
#X obj 41 107 declare -path ../_lib;
#X restore 7 6 pd dependencies _______;
#N canvas 0 22 254 322 presets 0;
#X obj 22 78 bng 15 250 50 0 empty empty empty 17 7 0 10 -262144 -1
-1;
#X text 48 69 Edit the following message with your on-load presets
, f 27;
#X obj 22 16 r video-loadbang;
#X obj 22 38 del 10;
#X msg 22 115 \; \; gemwin-set 1 \; \; borders-set 1 \; video-set 1
\; \; \; \; pd-VIDEO_GUI vis 1 \;;
#X connect 0 0 4 0;
#X connect 2 0 3 0;
#X connect 3 0 0 0;
#X restore 7 126 pd presets ____________;
#N canvas 0 22 450 300 from-audio-pd 0;
#X obj 20 77 t b a;
#X obj 20 17 r from-audio-pd;
#X text 125 18 <-- this receive is dedicated to the incoming data from
<MAIN_AUDIO_PD>, f 39;
#X obj 20 254 bng 15 250 50 0 empty empty empty 17 7 0 10 -262144 -1
-1;
#X text 46 256 <-- use this if you want to bang things <after> each
incoming data stream is passed;
#X text 78 76 <-- route this message at will;
#X obj 161 136 s blabla1;
#X obj 104 163 s blabla2;
#X obj 47 190 s blabla3;
#X obj 47 103 route blabla3 blabla2 blabla1 frequency-2 frequency-1
;
#X obj 237 207 s border-scale;
#X obj 303 170 s video-scale;
#X connect 0 0 3 0;
#X connect 0 1 9 0;
#X connect 1 0 0 0;
#X connect 9 0 8 0;
#X connect 9 1 7 0;
#X connect 9 2 6 0;
#X connect 9 3 10 0;
#X connect 9 4 11 0;
#X restore 7 30 pd from-audio-pd ______;
#N canvas 482 71 738 360 gemwin 0;
#X obj 8 240 gemwin;
#X obj 14 7 r gemwin;
#X msg 33 73 0 \, destroy;
#X obj 14 29 route float;
#X obj 14 51 sel 1 0;
#X text 76 116 edit this message according to your needs;
#X obj 129 35 tgl 15 0 empty empty empty 17 7 0 10 -262144 -1 -1 1
1;
#X msg 183 208 color 1 1 1;
#X text 219 30 edit this message according to your needs;
#X msg 158 61 0 \, destroy \, reset \, offset 1280 -25 \, dimen 1280
720 \, border 0 \, create \, 1 \,;
#X msg 15 147 0 \, destroy \, reset \, dimen 400 400 \, offset 0 400
\, border 0 \, create \, 1 \,;
#X connect 1 0 3 0;
#X connect 2 0 0 0;
#X connect 3 0 4 0;
#X connect 3 1 0 0;
#X connect 4 0 10 0;
#X connect 4 1 2 0;
#X connect 6 0 3 0;
#X connect 7 0 0 0;
#X connect 10 0 0 0;
#X restore 7 149 pd gemwin _____________;
#N canvas 539 32 613 695 vidfft 1;
#X obj 23 414 pix_texture;
#X obj 22 27 gemhead 1;
#X obj 22 136 pix_video;
#X obj 21 57 scale 1;
#X msg 127 43 device 2;
#X obj 142 113 tgl 15 0 empty empty empty 17 7 0 10 -262144 -1 -1 0
1;
#X msg 141 70 device 1;
#X floatatom 215 96 5 0 0 0 - - -, f 5;
#X msg 187 119 smooth \$1;
#X obj 301 108 hradio 15 1 0 4 empty empty empty 0 -8 0 10 -262144
-1 -1 0;
#X obj 52 362 tgl 15 0 empty empty empty 17 7 0 10 -262144 -1 -1 0
1;
#X msg 52 382 quality \$1;
#X obj 23 439 pix_coordinate;
#X obj 27 482 square 4;
#X obj 302 189 loadbang;
#X msg 186 295 \$1 \$1 0 \$1 0 0 \$1 0;
#X floatatom 186 278 3 0 256 0 - - -, f 3;
#X msg 184 251 0 0 1 0 1 1 0 1;
#X msg 232 212 rectangle 0 \, repeat 1;
#X floatatom 163 430 3 0 256 0 - - -, f 3;
#X obj 367 280 tgl 15 0 empty empty empty 17 7 0 10 -262144 -1 -1 0
1;
#X obj 371 323 f;
#X obj 404 322 + 1;
#X obj 371 348 mod 360;
#X obj 372 298 metro 32;
#X obj 371 373 / 360;
#X obj 371 398 * 2;
#X obj 371 423 * 3.14159;
#X obj 390 467 sin;
#X obj 421 466 cos;
#X obj 450 464 tan;
#X obj 482 466 atan;
#X obj 151 506 list trim;
#X floatatom 446 379 5 0 0 0 - - -, f 5;
#X obj 388 626 list;
#X obj 381 586 list;
#X obj 363 559 list;
#X obj 336 506 pack f 0;
#X obj 423 515 pack f 0;
#X obj 438 560 pack f 0;
#X obj 450 595 pack f 0;
#X floatatom 508 416 5 0 0 0 - - -, f 5;
#X floatatom 194 322 3 0 256 0 - - -, f 3;
#X msg 194 339 \$1 \$1 \$1 0 0 0 0 \$1;
#X floatatom 206 365 3 0 256 0 - - -, f 3;
#X floatatom 205 408 3 0 256 0 - - -, f 3;
#X msg 205 425 0 0 \$1 0 0 \$1 0 \$1;
#X msg 206 382 0 \$1 0 0 \$1 0 0 \$1;
#X msg 387 77 coef \$1;
#X floatatom 395 47 5 0 0 0 - - -, f 5;
#X floatatom 148 162 5 0 0 0 - - -, f 5;
#X msg 168 456 \$1 12 2 \$1 0 0 12 2;
#X floatatom 198 160 5 0 0 0 - - -, f 5;
#X msg 198 182 \$1 \$1 \$1;
#X obj 452 114 _vpvocGui 1;
#X obj 445 14 fd_windows 0 16384;
#X obj 23 182 _vidfft;
#X connect 0 0 12 0;
#X connect 1 0 3 0;
#X connect 2 0 56 0;
#X connect 3 0 2 0;
#X connect 4 0 2 0;
#X connect 5 0 56 0;
#X connect 6 0 2 0;
#X connect 7 0 8 0;
#X connect 8 0 56 1;
#X connect 9 0 56 1;
#X connect 10 0 11 0;
#X connect 11 0 0 0;
#X connect 12 0 13 0;
#X connect 14 0 18 0;
#X connect 15 0 12 1;
#X connect 16 0 15 0;
#X connect 17 0 12 1;
#X connect 18 0 0 0;
#X connect 19 0 51 0;
#X connect 20 0 24 0;
#X connect 21 0 22 0;
#X connect 21 0 23 0;
#X connect 22 0 21 1;
#X connect 23 0 25 0;
#X connect 24 0 21 0;
#X connect 25 0 26 0;
#X connect 26 0 27 0;
#X connect 27 0 28 0;
#X connect 27 0 29 0;
#X connect 27 0 30 0;
#X connect 27 0 31 0;
#X connect 28 0 37 0;
#X connect 29 0 38 0;
#X connect 30 0 39 0;
#X connect 31 0 40 0;
#X connect 32 0 12 1;
#X connect 33 0 26 1;
#X connect 34 0 32 0;
#X connect 35 0 34 0;
#X connect 36 0 35 0;
#X connect 37 0 36 0;
#X connect 38 0 36 1;
#X connect 39 0 35 1;
#X connect 40 0 34 1;
#X connect 41 0 37 1;
#X connect 41 0 38 1;
#X connect 41 0 39 1;
#X connect 41 0 40 1;
#X connect 42 0 43 0;
#X connect 43 0 12 1;
#X connect 44 0 47 0;
#X connect 45 0 46 0;
#X connect 46 0 12 1;
#X connect 47 0 12 1;
#X connect 48 0 56 1;
#X connect 49 0 48 0;
#X connect 51 0 12 1;
#X connect 52 0 53 0;
#X connect 56 0 0 0;
#X restore 7 53 pd vidfft ____________;
#X restore 115 39 pd VIDEO;
#N canvas 615 473 274 249 VIDEO_GUI 0;
#X obj 8 26 cnv 15 250 200 empty empty empty 20 12 0 14 -233017 -66577
0;
#X obj 22 45 tgl 15 0 gemwin gemwin-set gemwin 17 7 0 10 -262144 -1
-1 0 1;
#X obj 22 68 tgl 15 0 borders borders-set borders 17 7 0 10 -262144
-1 -1 0 1;
#X obj 22 88 tgl 15 0 video video-set video 17 7 0 10 -262144 -1 -1
0 1;
#X obj 115 88 tgl 15 0 video-scale-switch video-scale-switch-set video-scale-switch
17 7 0 10 -262144 -1 -1 0 1;
#X obj 115 68 tgl 15 0 border-scale-switch border-scale-switch-set
border-scale-switch 17 7 0 10 -262144 -1 -1 0 1;
#X text 121 50 toggle ON these;
#X text 25 193 amplitude of the signal controls scale;
#X text 6 7 place your VIDEO GUI here;
#X restore 6 39 pd VIDEO_GUI;
