#N canvas 0 22 450 300 10;
#X obj 45 30 cnv 15 150 200 empty empty _barkedParams 20 8 0 10 -228856
-1 0;
#X obj 363 63 symbol;
#X msg 363 87 list freq set \$1;
#X obj 363 372 list prepend all all, f 7;
#X obj 48 99 vsl 15 128 0.01 1 1 0 empty empty amp 0 -9 0 10 -262144
-1 -1 400 1;
#X msg 441 28 label \$1;
#X obj 160 48 bng 15 250 50 0 empty empty empty 17 7 0 10 -262144 -1
-1;
#X obj 58 48 hsl 100 15 0 15 0 0 empty empty 0-arc 40 8 0 10 -262144
-1 -1 3400 1;
#X obj 66 99 vsl 15 128 0.007 348 1 0 empty empty rng 0 -9 0 10 -262144
-1 -1 3800 1;
#X obj 84 99 vsl 15 128 0.007 3000 1 0 empty empty min 0 -9 0 10 -262144
-1 -1 2400 1;
#X obj 102 99 vsl 15 128 10 200 0 0 empty empty min 0 -9 0 10 -262144
-1 -1 6500 1;
#X obj 120 99 vsl 15 128 20 300 0 0 empty empty rng 0 -9 0 10 -262144
-1 -1 400 1;
#X obj 66 68 cnv 15 30 15 empty empty freq 0 7 0 10 -191407 -1 0;
#X obj 138 99 vsl 15 128 0.2 50 0 0 length length-set len 0 -9 0 10
-262144 -1 -1 2200 1;
#X obj 295 294 t b f;
#X obj 255 320 list prepend offset, f 7;
#X obj 48 320 list prepend amp gain, f 8;
#X obj 118 320 list prepend f range, f 7;
#X obj 188 320 list prepend f min, f 7;
#X obj 102 68 cnv 15 50 15 empty empty t-offset 0 7 0 10 -191407 -1
0;
#X obj 155 116 nbx 4 14 -1e+37 1e+37 0 0 empty empty empty 0 -8 0 8
-262144 -1 -1 0.0115609 256;
#X obj 155 136 nbx 4 14 -1e+37 1e+37 0 0 empty empty empty 0 -8 0 8
-262144 -1 -1 0.177969 256;
#X obj 155 156 nbx 4 14 -1e+37 1e+37 0 0 empty empty empty 0 -8 0 8
-262144 -1 -1 0.0811741 256;
#X obj 155 176 nbx 4 14 -1e+37 1e+37 0 0 empty empty empty 0 -8 0 8
-262144 -1 -1 107.244 256;
#X obj 155 196 nbx 4 14 -1e+37 1e+37 0 0 empty empty empty 0 -8 0 8
-262144 -1 -1 28.8189 256;
#X obj 155 216 nbx 4 14 -1e+37 1e+37 0 0 empty empty empty 0 -8 0 8
-262144 -1 -1 8.82677 256;
#X obj 166 88 bng 15 250 50 0 empty empty past 0 -8 0 10 -262144 -1
-1;
#X obj 471 188 tgl 15 0 empty empty empty 17 7 0 10 -262144 -1 -1 0
1;
#X obj 471 237 t f f;
#X obj 508 193 sel;
#X msg 508 150 label past;
#X msg 508 170 label curr;
#X obj 255 294 pack;
#X obj 48 257 fd_dory;
#X obj 118 257 fd_dory;
#X obj 188 257 fd_dory;
#X obj 258 257 fd_dory;
#X obj 328 257 fd_dory;
#X obj 398 257 fd_dory;
#X obj 249 63 fd_dory;
#X msg 403 311 0.0115609;
#X msg 443 310 0.177969;
#X msg 483 310 0.0811741;
#X msg 523 310 107.244;
#X msg 563 310 28.8189;
#X msg 603 310 8.82677;
#X msg 643 310 5.15152;
#X msg 107 481 0 0.0115609 \, 1 0.177969 \, 2 0.0811741 \, 3 107.244
\, 4 28.8189 \, 5 8.82677 \, 6 5.15152 \,;
#X msg 596 214 bang;
#X obj 607 182 t b b;
#X msg 625 250 set;
#X msg 609 151 bang;
#X msg 403 336 add2 0 \$1 \, addcomma;
#X msg 443 356 add2 1 \$1 \, addcomma;
#X msg 463 376 add2 2 \$1 \, addcomma;
#X msg 483 396 add2 3 \$1 \, addcomma;
#X msg 503 416 add2 4 \$1 \, addcomma;
#X msg 523 436 add2 5 \$1 \, addcomma;
#X msg 543 456 add2 6 \$1 \, addcomma;
#X obj 74 387 loadbang;
#X obj 74 412 t b b;
#X obj 22 5 route 0 1 2 3 4 5 6;
#X obj 42 391 bng 15 250 50 0 empty empty empty 17 7 0 10 -262144 -1
-1;
#X obj 174 33 tgl 15 0 empty empty sw 2 8 0 10 -262144 -1 -1 0 1;
#X obj 45 30 bng 8 250 50 0 \$0 \$0- empty 17 7 0 8 -262144 -1 -1;
#X obj 309 33 fd_visera 1;
#X msg 309 8 _barkedParams;
#X obj 531 48 list prepend all all;
#X obj 179 48 bng 10 250 50 0 empty empty empty 17 7 0 10 -258113 -1
-1;
#X obj 441 63 _seltab;
#X obj 363 457 s _barkedParams;
#X obj 363 435 list trim;
#X obj 530 104 s _barkedSwitch;
#X obj 531 73 list trim;
#X obj 269 146 s panic;
#X connect 1 0 2 0;
#X connect 2 0 3 0;
#X connect 3 0 71 0;
#X connect 4 0 20 0;
#X connect 4 0 33 0;
#X connect 5 0 7 0;
#X connect 6 0 1 0;
#X connect 7 0 39 0;
#X connect 8 0 21 0;
#X connect 8 0 34 0;
#X connect 9 0 22 0;
#X connect 9 0 35 0;
#X connect 10 0 23 0;
#X connect 10 0 36 0;
#X connect 11 0 24 0;
#X connect 11 0 37 0;
#X connect 13 0 25 0;
#X connect 13 0 38 0;
#X connect 14 0 32 0;
#X connect 14 1 32 1;
#X connect 15 0 3 0;
#X connect 16 0 3 0;
#X connect 17 0 3 0;
#X connect 18 0 3 0;
#X connect 26 0 27 0;
#X connect 27 0 28 0;
#X connect 28 0 33 1;
#X connect 28 0 34 1;
#X connect 28 0 35 1;
#X connect 28 0 36 1;
#X connect 28 0 37 1;
#X connect 28 0 38 1;
#X connect 28 0 39 1;
#X connect 28 1 29 0;
#X connect 29 0 30 0;
#X connect 29 1 31 0;
#X connect 30 0 26 0;
#X connect 31 0 26 0;
#X connect 32 0 15 0;
#X connect 33 0 16 0;
#X connect 33 1 4 0;
#X connect 33 1 40 0;
#X connect 34 0 17 0;
#X connect 34 1 8 0;
#X connect 34 1 41 0;
#X connect 35 0 18 0;
#X connect 35 1 9 0;
#X connect 35 1 42 0;
#X connect 36 0 32 0;
#X connect 36 1 10 0;
#X connect 36 1 43 0;
#X connect 37 0 14 0;
#X connect 37 1 11 0;
#X connect 37 1 44 0;
#X connect 38 1 13 0;
#X connect 38 1 45 0;
#X connect 39 0 69 0;
#X connect 39 1 7 0;
#X connect 39 1 46 0;
#X connect 40 0 52 0;
#X connect 41 0 53 0;
#X connect 42 0 54 0;
#X connect 43 0 55 0;
#X connect 44 0 56 0;
#X connect 45 0 57 0;
#X connect 46 0 58 0;
#X connect 47 0 61 0;
#X connect 48 0 40 0;
#X connect 48 0 41 0;
#X connect 48 0 42 0;
#X connect 48 0 43 0;
#X connect 48 0 44 0;
#X connect 48 0 45 0;
#X connect 48 0 46 0;
#X connect 49 0 48 0;
#X connect 49 1 50 0;
#X connect 50 0 47 0;
#X connect 51 0 49 0;
#X connect 52 0 47 0;
#X connect 53 0 47 0;
#X connect 54 0 47 0;
#X connect 55 0 47 0;
#X connect 56 0 47 0;
#X connect 57 0 47 0;
#X connect 58 0 47 0;
#X connect 59 0 60 0;
#X connect 60 0 47 0;
#X connect 60 1 49 0;
#X connect 61 0 4 0;
#X connect 61 1 8 0;
#X connect 61 2 9 0;
#X connect 61 3 10 0;
#X connect 61 4 11 0;
#X connect 61 5 13 0;
#X connect 61 6 7 0;
#X connect 62 0 60 0;
#X connect 63 0 67 0;
#X connect 64 0 66 0;
#X connect 66 0 65 0;
#X connect 67 0 73 0;
#X connect 68 0 74 0;
#X connect 69 0 1 1;
#X connect 69 0 5 0;
#X connect 71 0 70 0;
#X connect 73 0 72 0;
#X coords 0 -1 1 1 150 200 2 45 30;
