#N canvas 473 133 342 332 10;
#X obj 41 119 list prepend parse;
#X obj 41 141 list trim;
#X msg 20 71 print 1;
#X obj 16 47 metro 33;
#X obj 51 242 change;
#X obj 100 244 change;
#X obj 150 244 change;
#X obj 20 95 lorenz;
#X obj 41 163 siginfo;
#X obj 59 191 list split 3;
#X obj 59 213 unpack f f f;
#X obj 142 213 list split 3;
#X obj 20 27 inlet;
#X obj 144 22 loadbang;
#X obj 51 286 outlet;
#X obj 100 287 outlet;
#X obj 150 288 outlet;
#X obj 61 22 r lor-speed;
#X obj 145 44 set-random-initial-state;
#X obj 145 66 t b a;
#X msg 145 87 until 100;
#X obj 193 237 outlet;
#X connect 0 0 1 0;
#X connect 1 0 8 0;
#X connect 2 0 7 0;
#X connect 3 0 2 0;
#X connect 4 0 14 0;
#X connect 5 0 15 0;
#X connect 6 0 16 0;
#X connect 7 1 0 0;
#X connect 8 1 9 0;
#X connect 9 0 10 0;
#X connect 9 1 11 0;
#X connect 10 0 4 0;
#X connect 10 1 5 0;
#X connect 10 2 6 0;
#X connect 11 1 21 0;
#X connect 12 0 3 0;
#X connect 13 0 18 0;
#X connect 17 0 3 1;
#X connect 18 0 19 0;
#X connect 19 0 20 0;
#X connect 19 1 7 0;
#X connect 20 0 2 0;
