#N canvas 495 224 286 242 10;
#X obj 68 29 inlet;
#X obj 68 108 f;
#X obj 94 108 + 1;
#X obj 120 108 mod 900;
#X obj 159 69 t f f;
#X obj 186 113 - 1;
#X obj 68 130 t f f;
#X obj 112 151 sel;
#X msg 189 143 0;
#X obj 112 173 outlet;
#X obj 68 173 outlet;
#X obj 159 29 inlet;
#X obj 68 73 metro 33;
#X obj 80 51 r framerate;
#X obj 30 6 r disable-all;
#X msg 30 28 0;
#X connect 0 0 12 0;
#X connect 1 0 2 0;
#X connect 1 0 6 0;
#X connect 2 0 3 0;
#X connect 3 0 1 1;
#X connect 4 0 3 1;
#X connect 4 1 5 0;
#X connect 5 0 7 1;
#X connect 6 0 10 0;
#X connect 6 1 7 0;
#X connect 7 0 8 0;
#X connect 7 0 9 0;
#X connect 8 0 1 1;
#X connect 11 0 4 0;
#X connect 12 0 1 0;
#X connect 13 0 12 1;
#X connect 14 0 15 0;
#X connect 15 0 12 0;
