#N canvas 0 22 450 300 10;
#X obj 92 238 *~;
#X obj 269 26 block~ 2048;
#X obj 92 260 outlet~;
#X obj 109 102 inlet~;
#X obj 199 82 inlet;
#X obj 184 147 tabreceive~ gauss;
#X msg 199 104 set \$1;
#X obj 364 84 inlet;
#X connect 0 0 2 0;
#X connect 3 0 0 0;
#X connect 4 0 6 0;
#X connect 5 0 0 1;
#X connect 6 0 5 0;
#X connect 7 0 1 0;
