#N canvas 399 22 475 651 10;
#X obj 190 190 array random transition;
#X obj 190 211 / 25;
#X obj 190 232 int;
#X text 222 210 <-- 4 type of events;
#X obj 30 12 inlet;
#X obj 171 619 outlet;
#X obj 77 83 sel 0 1, f 32;
#X obj 171 500 list;
#X obj 50 176 timer;
#X obj 50 233 f;
#X obj 192 381 list;
#X obj 192 442 list append;
#X text 269 444 <-- transition type;
#X text 234 379 <-- event-field type;
#X obj 190 254 t f f;
#X obj 171 112 t b b b;
#X obj 30 34 unpack;
#X obj 50 275 t b b f;
#X obj 50 143 r timer-info;
#X obj 50 255 int;
#X obj 240 566 r elapsed;
#X obj 171 588 list prepend;
#X msg 65 203 0;
#X obj 192 406 list prepend;
#X obj 77 58 > 1;
#X text 275 406 <-- event-duration;
#X msg 415 202 -1;
#X obj 415 318 t b b f;
#N canvas 0 22 281 302 energy 0;
#X obj 50 213 list append;
#X obj 113 118 * 100;
#X obj 113 138 int;
#X obj 113 158 / 100;
#X obj 113 93 array get energy-t \$1 1;
#X obj 50 76 t a b;
#X obj 50 45 inlet;
#X obj 50 246 outlet;
#X obj 113 180 list prepend en;
#X connect 0 0 7 0;
#X connect 1 0 2 0;
#X connect 2 0 3 0;
#X connect 3 0 8 0;
#X connect 4 0 1 0;
#X connect 5 0 0 0;
#X connect 5 1 4 0;
#X connect 6 0 5 0;
#X connect 8 0 0 1;
#X restore 171 531 pd energy;
#N canvas 0 22 492 360 types 0;
#X obj 22 74 array random transition;
#X obj 22 118 int;
#X obj 128 112 array random transition;
#X obj 128 156 int;
#X obj 128 134 / 11.11;
#X obj 22 96 / 33.33;
#X obj 227 176 / 3.7037;
#X obj 227 198 int;
#X obj 227 154 array random transition;
#X obj 331 196 array random transition;
#X obj 331 218 / 1.23457;
#X obj 331 240 int;
#X obj 22 45 sel 0 1 2 3;
#X obj 22 156 _type1 \$2 \$3 \$4;
#X obj 128 198 _type2 \$2 \$3 \$4;
#X obj 227 239 _type3 \$2 \$3 \$4;
#X obj 331 274 _type4 \$2 \$3 \$4;
#X obj 22 12 inlet;
#X obj 331 321 outlet;
#X connect 0 0 5 0;
#X connect 1 0 13 0;
#X connect 2 0 4 0;
#X connect 3 0 14 0;
#X connect 4 0 3 0;
#X connect 5 0 1 0;
#X connect 6 0 7 0;
#X connect 7 0 15 0;
#X connect 8 0 6 0;
#X connect 9 0 10 0;
#X connect 10 0 11 0;
#X connect 11 0 16 0;
#X connect 12 0 0 0;
#X connect 12 1 2 0;
#X connect 12 2 8 0;
#X connect 12 3 9 0;
#X connect 13 0 18 0;
#X connect 14 0 18 0;
#X connect 15 0 18 0;
#X connect 16 0 18 0;
#X connect 17 0 12 0;
#X restore 190 315 pd types;
#X text 240 531 <-- energy value;
#X text 262 586 <-- elapsed time;
#X text 390 171 event start;
#X text 44 121 event end;
#X text 41 497 event-end:;
#X text 39 526 output list with type and transition, f 12;
#X text 370 496 event-start:;
#X text 370 527 output list with initial energy only, f 11;
#X obj 30 393 _tr-type 0 1 2 3 4;
#X connect 0 0 1 0;
#X connect 1 0 2 0;
#X connect 2 0 14 0;
#X connect 4 0 16 0;
#X connect 6 0 8 1;
#X connect 6 1 15 0;
#X connect 7 0 28 0;
#X connect 8 0 9 0;
#X connect 9 0 19 0;
#X connect 10 0 23 0;
#X connect 11 0 7 1;
#X connect 14 0 29 0;
#X connect 14 1 38 1;
#X connect 15 0 8 0;
#X connect 15 0 7 0;
#X connect 15 1 0 0;
#X connect 15 2 22 0;
#X connect 15 2 26 0;
#X connect 16 0 38 0;
#X connect 16 1 24 0;
#X connect 17 0 7 0;
#X connect 17 1 10 0;
#X connect 17 2 23 1;
#X connect 18 0 8 0;
#X connect 19 0 17 0;
#X connect 20 0 21 1;
#X connect 21 0 5 0;
#X connect 22 0 9 1;
#X connect 22 0 19 1;
#X connect 23 0 11 0;
#X connect 24 0 6 0;
#X connect 26 0 27 0;
#X connect 27 0 23 1;
#X connect 27 1 11 1;
#X connect 27 2 7 1;
#X connect 28 0 21 0;
#X connect 29 0 10 1;
#X connect 38 0 11 1;
