#N canvas 0 22 399 351 12;
#X obj 81 65 fd_midiread;
#X msg 203 18 load elec;
#X obj 92 28 r 0-pulse;
#X msg 29 39 bang;
#X obj 31 92 tgl 15 0 empty empty empty 17 7 0 10 -262144 -1 -1 0 1
;
#X obj 31 114 metro 1;
#X obj 176 127 f;
#X obj 176 149 / 384;
#X obj 202 108 print;
#X obj 218 45 route bang lyrics, f 8;
#X obj 86 136 route 144;
#X obj 86 158 unpack;
#X obj 86 180 spigot;
#X obj 86 202 bang;
#X obj 89 238 f;
#X obj 123 239 + 1;
#X floatatom 71 92 5 0 0 0 - - -, f 5;
#X msg 214 209 0;
#X msg 125 106 0;
#X obj 151 273 f;
#X obj 151 295 print events;
#X obj 176 171 print quarternotes;
#X msg 24 160 0.01;
#X connect 0 0 10 0;
#X connect 0 1 6 1;
#X connect 0 2 9 0;
#X connect 1 0 0 1;
#X connect 1 0 17 0;
#X connect 2 0 0 0;
#X connect 3 0 0 0;
#X connect 4 0 5 0;
#X connect 5 0 0 0;
#X connect 6 0 7 0;
#X connect 7 0 21 0;
#X connect 9 0 6 0;
#X connect 9 0 18 0;
#X connect 9 0 19 0;
#X connect 9 2 8 0;
#X connect 10 0 11 0;
#X connect 11 0 12 0;
#X connect 11 1 12 1;
#X connect 12 0 13 0;
#X connect 13 0 14 0;
#X connect 14 0 15 0;
#X connect 14 0 19 1;
#X connect 15 0 14 1;
#X connect 16 0 5 1;
#X connect 17 0 14 1;
#X connect 18 0 4 0;
#X connect 19 0 20 0;
#X connect 22 0 5 1;
