#N canvas 0 22 465 407 12;
#X obj 30 20 cnv 15 120 190 empty empty specdelayGui 8 9 0 10 -233017
-1 0;
#X obj 76 57 vsl 15 100 0.001 100 1 0 empty empty wi 0 -9 0 10 -262144
-1 -1 0 1;
#X obj 34 57 vsl 15 100 0.01 0.5 1 0 empty empty am 0 -9 0 10 -262144
-1 -1 0 1;
#X obj 55 57 vsl 15 100 -127 127 0 0 empty empty fr 0 -9 0 10 -262144
-1 -1 0 1;
#X obj 100 55 vradio 15 1 0 8 empty empty tables 0 -8 0 10 -262144
-1 -1 1;
#X obj 119 70 vradio 15 1 0 8 empty empty lor 0 -8 0 10 -262144 -1
-1 3;
#X obj 119 213 + 8;
#X obj 167 240 _seltab;
#X obj 100 239 t f f;
#X msg 34 237 0 \$1;
#X msg 34 256 1 \$1;
#X msg 34 275 2 \$1;
#X msg 34 295 3 \$1;
#X obj 121 22 tgl 15 0 empty empty sw 17 7 0 10 -262144 -1 -1 0 1;
#X msg 246 37 switch \$1;
#X msg 167 89 label \$1;
#X obj 38 192 hsl 50 15 -1 1 0 0 empty empty spat 14 8 0 10 -262144
-1 -1 0 1;
#X msg 246 207 spat \$1;
#X obj 98 192 hsl 50 15 0.01 0.6 1 0 empty empty spat-amp 0 8 0 10
-262144 -1 -1 0 1;
#X msg 311 207 amp \$1;
#X obj 34 320 list prepend params;
#X obj 34 345 list trim;
#X obj 30 20 bng 8 250 50 0 \$0 \$0- empty 17 7 0 8 -262144 -1 -1;
#X msg 344 28 specdelays;
#X obj 344 53 fd_visera 1;
#X obj 110 22 bng 10 250 50 0 empty empty empty 17 7 0 10 -258113 -1
-1;
#X obj 289 122 _spatpanic;
#X msg 289 94 0;
#X msg 345 95 1;
#X obj 36 167 nbx 5 14 -1e+37 1e+37 0 0 empty empty empty 0 -8 0 10
-262144 -1 -1 0 256;
#X obj 246 365 list prepend specdelay;
#X obj 246 390 s to-audio-pd;
#X connect 1 0 11 0;
#X connect 1 0 29 0;
#X connect 2 0 9 0;
#X connect 2 0 29 0;
#X connect 3 0 10 0;
#X connect 3 0 29 0;
#X connect 4 0 8 0;
#X connect 5 0 6 0;
#X connect 6 0 8 0;
#X connect 7 0 15 0;
#X connect 8 0 12 0;
#X connect 8 1 7 0;
#X connect 9 0 20 0;
#X connect 10 0 20 0;
#X connect 11 0 20 0;
#X connect 12 0 20 0;
#X connect 13 0 14 0;
#X connect 14 0 30 0;
#X connect 15 0 5 0;
#X connect 16 0 17 0;
#X connect 17 0 30 0;
#X connect 18 0 19 0;
#X connect 19 0 30 0;
#X connect 20 0 21 0;
#X connect 21 0 30 0;
#X connect 22 0 23 0;
#X connect 23 0 24 0;
#X connect 25 0 26 0;
#X connect 25 0 27 0;
#X connect 26 0 28 0;
#X connect 27 0 13 0;
#X connect 28 0 13 0;
#X connect 30 0 31 0;
#X coords 0 -1 1 1 120 190 2 30 20;
