#N canvas 659 54 445 565 10;
#N canvas 580 103 450 300 group 0;
#X obj 27 21 inlet;
#X obj 60 87 sel 0;
#X obj 60 135 + 1;
#X text 153 27 select a group;
#X text 109 91 0 is random 1-6;
#X text 107 54 <-- this should be user's choice;
#X text 220 110 1 Define a group \; a. Random (1-6) \; b. Solo \; c.
Pair \; d. Trio \; e. Quartet \; f. Quintet \; g. Full Ensemble \;
;
#X obj 211 269 outlet;
#X obj 65 279 outlet;
#X obj 50 55 random 8;
#X obj 68 177 sel 7;
#X msg 177 227 8, f 1;
#X obj 60 113 random 7;
#X connect 0 0 9 0;
#X connect 1 0 12 0;
#X connect 1 1 10 0;
#X connect 2 0 10 0;
#X connect 9 0 1 0;
#X connect 10 0 11 0;
#X connect 10 1 8 0;
#X connect 11 0 7 0;
#X connect 12 0 2 0;
#X restore 36 40 pd group;
#N canvas 672 107 550 330 instrument 0;
#X obj 32 20 inlet;
#X text 107 116 <-- this should be user's choice;
#X obj 32 68 until;
#X obj 70 252 outlet;
#X obj 288 22 inlet;
#X obj 32 42 t f b;
#X msg 76 69 clear;
#X text 300 66 NOTE: MAKE A VANILLA VERSION OF 'URN';
#X obj 58 116 urn 7;
#X text 221 150 2 Define instrument \; 0 Flute \; 1 Clarinet \; 2 Violin
\; 3 Cello \; 4 Percussion \; 5 Piano \; 6 Piano(left), f 22;
#X connect 0 0 5 0;
#X connect 2 0 8 0;
#X connect 4 0 3 0;
#X connect 5 0 2 0;
#X connect 5 1 6 0;
#X connect 6 0 8 0;
#X connect 8 0 3 0;
#X restore 39 106 pd instrument;
#N canvas 688 461 450 300 gestures 0;
#X obj 21 22 inlet;
#X obj 48 198 + 1;
#X text 86 195 <- number of gestures;
#X obj 48 264 outlet;
#X obj 21 129 fd_markov3;
#X obj 21 152 t f f;
#X obj 368 14 inlet;
#X obj 368 36 unpack;
#X obj 368 58 swap;
#X obj 368 80 pack;
#X text 94 28 3 Define number of gestures \; b. 1 gesture \; c. 2 gestures
\; d. 3 gestures \;;
#X connect 0 0 4 0;
#X connect 1 0 3 0;
#X connect 4 0 5 0;
#X connect 5 0 4 1;
#X connect 5 1 1 0;
#X connect 6 0 7 0;
#X connect 7 0 8 0;
#X connect 7 1 8 1;
#X connect 8 0 9 0;
#X connect 8 1 9 1;
#X connect 9 0 4 2;
#X restore 46 174 pd gestures;
#N canvas 561 266 594 449 sounds 0;
#X obj 28 11 inlet;
#X obj 46 386 outlet;
#X obj 93 315 t a a;
#X obj 42 69 t b f b, f 16;
#X obj 43 343 list;
#X obj 93 293 list prepend;
#X obj 66 100 until;
#X obj 430 10 inlet;
#X obj 80 186 t f f;
#X obj 80 164 fd_markov3;
#X connect 0 0 3 0;
#X connect 2 0 4 1;
#X connect 2 1 5 1;
#X connect 3 0 4 0;
#X connect 3 1 6 0;
#X connect 3 2 5 1;
#X connect 4 0 1 0;
#X connect 5 0 2 0;
#X connect 6 0 9 0;
#X connect 7 0 9 2;
#X connect 8 0 9 1;
#X connect 8 1 5 0;
#X connect 9 0 8 0;
#X restore 49 231 pd sounds;
#X obj 38 70 t a a, f 31;
#X obj 268 439 list prepend;
#X obj 43 137 t b a, f 25;
#X obj 203 391 list prepend;
#X obj 125 298 list prepend;
#X obj 45 196 t a a, f 19;
#X obj 271 69 t a a;
#X obj 39 14 inlet;
#X obj 268 491 outlet;
#X obj 268 461 list prepend 1;
#X obj 167 10 inlet;
#X text 205 11 en values for new probs;
#X connect 0 0 4 0;
#X connect 0 1 10 0;
#X connect 1 0 6 0;
#X connect 2 0 9 0;
#X connect 3 0 8 0;
#X connect 4 0 1 0;
#X connect 4 1 5 1;
#X connect 5 0 13 0;
#X connect 6 0 2 0;
#X connect 6 1 7 1;
#X connect 7 0 5 0;
#X connect 8 0 7 0;
#X connect 9 0 3 0;
#X connect 9 1 8 1;
#X connect 10 0 1 1;
#X connect 10 1 5 1;
#X connect 11 0 0 0;
#X connect 13 0 12 0;
#X connect 14 0 3 1;
#X connect 14 0 2 1;
