#N canvas 48 94 691 545 12;
#X obj 88 200 inlet~;
#X obj 171 200 inlet~;
#X obj 203 395 *~;
#X obj 286 396 *~;
#X obj 203 431 -~;
#X obj 203 464 outlet~;
#X obj 273 465 outlet~;
#X obj 273 432 +~;
#X text 201 490 positive;
#X text 274 491 negative;
#X obj 307 260 biquad~ 0.83774 -0.06338 0.06338 -0.83774 1;
#X obj 307 234 biquad~ 1.94632 -0.94657 0.94657 -1.94632 1;
#X obj 277 292 biquad~ -0.02569 0.260502 -0.260502 0.02569 1;
#X obj 277 318 biquad~ 1.8685 -0.870686 0.870686 -1.8685 1;
#X obj 282 164 lor8~;
#X obj 318 119 +~ 2.6667;
#X obj 314 93 +~ 32;
#X obj 289 70 +~ 10;
#X obj 271 37 +~ 0.01;
#X obj 271 202 cos~;
#X obj 311 203 cos~;
#X obj 368 28 loadbang;
#X obj 368 53 crand 0.1 2;
#X obj 378 75 crand -1 1;
#X connect 0 0 2 0;
#X connect 1 0 3 0;
#X connect 2 0 4 0;
#X connect 2 0 7 0;
#X connect 3 0 4 1;
#X connect 3 0 7 1;
#X connect 4 0 5 0;
#X connect 7 0 6 0;
#X connect 10 0 3 1;
#X connect 11 0 10 0;
#X connect 12 0 13 0;
#X connect 13 0 2 1;
#X connect 14 0 19 0;
#X connect 14 1 20 0;
#X connect 15 0 14 3;
#X connect 16 0 14 2;
#X connect 17 0 14 1;
#X connect 18 0 14 0;
#X connect 19 0 12 0;
#X connect 20 0 11 0;
#X connect 21 0 22 0;
#X connect 21 0 23 0;
#X connect 22 0 16 0;
#X connect 23 0 17 0;
