#N canvas 368 84 748 611 12;
#X obj 95 391 *~;
#X obj 56 391 *~;
#X obj 414 236 *~;
#X obj 373 236 *~;
#X obj 55 63 *~;
#X obj 55 38 inlet~;
#X obj 55 86 rfft~;
#X obj 55 440 *~;
#X obj 142 125 *~;
#X obj 373 213 rfft~;
#X obj 55 415 rifft~;
#X obj 55 463 outlet~;
#X obj 108 125 *~;
#X text 459 288 modulus;
#X obj 108 300 *~;
#X obj 108 278 clip~;
#X obj 148 249 expr 0.01*$f1*$f1;
#X obj 108 174 +~ 1e-20;
#X obj 109 360 *~ 0.00065;
#X obj 374 187 *~;
#X obj 374 162 inlet~;
#X text 459 305 of control;
#X text 457 322 amplitude;
#X text 197 128 reciprocal;
#X text 200 147 modulus of;
#X text 196 167 filter input;
#X text 197 186 amplitude;
#X text 116 39 filter input;
#X text 439 162 control source;
#X text 435 212 Fourier transform;
#X text 146 302 multiply the two amplitude;
#X text 144 319 factors (for compression;
#X text 146 335 and to apply new timbre);
#X obj 416 40 block~ 2048 4;
#X obj 108 201 rsqrt~;
#X obj 373 282 sqrt~;
#X obj 88 64 tabreceive~ 0-han;
#X obj 88 440 tabreceive~ 0-han;
#X obj 407 188 tabreceive~ 0-han;
#X text 361 448 from IO6.timbre.stamp.pd;
#X obj 614 29 inlet squelch;
#X connect 0 0 10 1;
#X connect 1 0 10 0;
#X connect 2 0 35 0;
#X connect 3 0 35 0;
#X connect 4 0 6 0;
#X connect 5 0 4 0;
#X connect 6 0 12 0;
#X connect 6 0 12 1;
#X connect 6 0 1 0;
#X connect 6 1 8 0;
#X connect 6 1 8 1;
#X connect 6 1 0 0;
#X connect 7 0 11 0;
#X connect 8 0 17 0;
#X connect 9 0 3 0;
#X connect 9 0 3 1;
#X connect 9 1 2 0;
#X connect 9 1 2 1;
#X connect 10 0 7 0;
#X connect 12 0 17 0;
#X connect 14 0 18 0;
#X connect 15 0 14 0;
#X connect 16 0 15 2;
#X connect 17 0 34 0;
#X connect 18 0 0 1;
#X connect 18 0 1 1;
#X connect 19 0 9 0;
#X connect 20 0 19 0;
#X connect 34 0 15 0;
#X connect 35 0 14 1;
#X connect 36 0 4 1;
#X connect 37 0 7 1;
#X connect 38 0 19 1;
#X connect 40 0 16 0;
