#N canvas 0 22 329 368 12;
#X obj 20 20 cnv 15 120 100 empty empty complexmodGui 4 8 0 10 -233017
-66577 0;
#X obj 107 21 tgl 15 0 empty empty sw 17 7 0 10 -262144 -1 -1 0 1;
#X obj 44 246 list prepend assign;
#X obj 44 271 list trim;
#X obj 23 297 s complexmod;
#X msg 76 179 0 set \$1-adc \, 1 set \$2-adc \, 2 set \$3-adc \, 3
set \$4-adc, f 20;
#X obj 46 40 vradio 15 1 0 4 empty empty empty 0 -8 0 10 -262144 -1
-1 0;
#X obj 61 40 vradio 15 1 0 4 empty empty empty 0 -8 0 10 -262144 -1
-1 2;
#X obj 76 40 vradio 15 1 0 4 empty empty empty 0 -8 0 10 -262144 -1
-1 1;
#X obj 91 40 vradio 15 1 0 4 empty empty empty 0 -8 0 10 -262144 -1
-1 2;
#X obj 170 22 + 1;
#X obj 180 42 + 1;
#X obj 190 62 + 1;
#X obj 200 82 + 1;
#X obj 268 109 t b f;
#X obj 250 84 t b f;
#X obj 235 60 t b f;
#X msg 19 153 switch \$1;
#X msg 39 128 spat \$1;
#X obj 210 135 pack 1 1 1 1;
#X obj 26 102 hsl 50 15 -1 1 0 0 empty empty spat 14 8 0 10 -262144
-1 -1 0 1;
#X obj 86 102 hsl 50 15 0.01 1 1 0 empty empty spat-amp 0 8 0 10 -262144
-1 -1 0 1;
#X msg 258 170 amp \$1;
#X connect 1 0 17 0;
#X connect 2 0 3 0;
#X connect 3 0 4 0;
#X connect 5 0 2 0;
#X connect 6 0 10 0;
#X connect 7 0 11 0;
#X connect 8 0 12 0;
#X connect 9 0 13 0;
#X connect 10 0 19 0;
#X connect 11 0 16 0;
#X connect 12 0 15 0;
#X connect 13 0 14 0;
#X connect 14 0 19 0;
#X connect 14 1 19 3;
#X connect 15 0 19 0;
#X connect 15 1 19 2;
#X connect 16 0 19 0;
#X connect 16 1 19 1;
#X connect 17 0 4 0;
#X connect 18 0 4 0;
#X connect 19 0 5 0;
#X connect 20 0 18 0;
#X connect 21 0 22 0;
#X connect 22 0 4 0;
#X coords 0 -1 1 1 120 100 2 20 20;
