#N canvas 533 103 449 538 10;
#X obj 52 218 f;
#X obj 83 218 + 1;
#X obj 300 295 sel 299;
#X msg 319 413 0;
#X obj 52 303 list;
#X obj 52 16 inlet;
#X obj 300 460 outlet;
#X obj 300 266 f;
#X obj 52 170 spigot;
#X obj 67 195 r \$0-reset;
#X obj 85 142 r \$0-stop;
#X obj 300 368 t b b b;
#X obj 319 435 s \$0-stop;
#X obj 62 118 r \$0-bang;
#X obj 339 392 s \$0-bang;
#X obj 339 341 s \$0-bang;
#X obj 52 482 del 1;
#X obj 52 249 t f f;
#X obj 73 274 r \$0-name;
#X obj 52 38 t b b;
#X obj 347 241 r \$0-lim;
#X obj 52 143 bang;
#X obj 114 482 list;
#X obj 154 452 r \$0-name;
#N canvas 0 22 224 364 initialize 0;
#X obj 85 224 s \$0-lim;
#X obj 26 281 s \$0-name;
#X obj 11 307 s \$0-size;
#X obj 11 21 inlet;
#X msg 128 100 0;
#X obj 128 122 s \$0-reset;
#X msg 97 121 1;
#X obj 97 143 s \$0-stop;
#X obj 65 169 s \$0-name-index;
#X obj 65 147 f \$1;
#X obj 26 259 symbol \$2;
#X obj 97 23 r \$2-\$1-lim;
#X obj 41 203 f;
#X obj 41 224 sel 0;
#X obj 11 73 t b b b b b b f, f 24;
#X connect 3 0 14 0;
#X connect 4 0 5 0;
#X connect 6 0 7 0;
#X connect 9 0 8 0;
#X connect 10 0 1 0;
#X connect 11 0 14 0;
#X connect 12 0 13 0;
#X connect 13 1 0 0;
#X connect 14 0 2 0;
#X connect 14 1 10 0;
#X connect 14 2 12 0;
#X connect 14 3 9 0;
#X connect 14 4 6 0;
#X connect 14 5 4 0;
#X connect 14 6 12 1;
#X restore 79 63 pd initialize;
#X obj 339 320 bang;
#X obj 52 504 bang;
#X text 178 246 recurse and stop at lim;
#X obj 52 325 list;
#X obj 87 308 r \$0-name-index;
#X text 87 291 as in "clar-0" \, "clar-1"...;
#X msg 52 353 open ../vids/\$2-\$3/\$2-\$1.jpg \$1;
#X obj 347 263 - 3;
#X text 194 100 arg.1: buff "name" \, folder name;
#X text 167 21 SINGLE BUFFER arg1 arg2 arg3;
#X text 168 63 <- open;
#X text 194 115 arg.2: folder index ("name-index");
#X text 194 131 arg.3: file index+2 \, buffer index+2;
#X text 350 283 index -2 -1;
#N canvas 28 255 450 300 sum 0;
#X obj 29 104 s main-sum;
#X obj 29 26 r \$2-sum;
#X obj 44 52 r \$0-lim;
#X obj 29 78 f;
#X connect 1 0 3 0;
#X connect 2 0 3 1;
#X connect 3 0 0 0;
#X restore 198 185 pd sum;
#X obj 108 381 r \$0-lim;
#X msg 108 403 resize \$1;
#X obj 52 382 t b a;
#X obj 114 504 print size-\$2-\$1;
#X obj 52 90 del 1;
#X obj 91 426 pix_buffer \$2-\$1;
#X connect 0 0 1 0;
#X connect 0 0 17 0;
#X connect 1 0 0 1;
#X connect 2 0 11 0;
#X connect 2 1 25 0;
#X connect 3 0 12 0;
#X connect 4 0 28 0;
#X connect 5 0 19 0;
#X connect 7 0 2 0;
#X connect 8 0 0 0;
#X connect 9 0 0 1;
#X connect 10 0 8 1;
#X connect 11 0 6 0;
#X connect 11 1 3 0;
#X connect 11 2 14 0;
#X connect 13 0 21 0;
#X connect 16 0 26 0;
#X connect 17 0 4 0;
#X connect 17 1 7 1;
#X connect 18 0 4 1;
#X connect 19 0 44 0;
#X connect 19 1 24 0;
#X connect 20 0 32 0;
#X connect 21 0 8 0;
#X connect 22 0 43 0;
#X connect 23 0 22 1;
#X connect 25 0 15 0;
#X connect 26 0 7 0;
#X connect 28 0 31 0;
#X connect 29 0 28 1;
#X connect 31 0 42 0;
#X connect 32 0 2 1;
#X connect 40 0 41 0;
#X connect 41 0 45 0;
#X connect 42 0 16 0;
#X connect 42 1 45 0;
#X connect 44 0 21 0;
#X connect 45 0 22 0;
