#N canvas 0 22 661 632 12;
#X obj 34 20 inlet~;
#X obj 34 45 *~;
#X obj 69 47 tabreceive~ 0-han;
#X obj 34 70 rfft~;
#X obj 51 503 rifft~;
#X obj 49 588 outlet~;
#X obj 49 530 *~ 0.001;
#X obj 47 558 *~;
#X obj 82 560 tabreceive~ 0-han;
#X obj 502 198 block~ 2048 4;
#X obj 352 487 *~;
#X obj 391 486 *~;
#X msg 298 95 set \$1;
#X obj 233 126 tabread4~ 0-han;
#X obj 235 102 +~ 1;
#X obj 235 77 *~ 2045;
#X obj 234 281 *~;
#X obj 123 531 * 0.01;
#X obj 138 387 +~;
#X obj 168 387 +~;
#X obj 234 328 *~ -1;
#X obj 282 327 * -0.9;
#X obj 350 517 sqrt~;
#X obj 235 52 phasor~ 32;
#X obj 248 217 *~ 1;
#X obj 235 24 mtof;
#X obj 338 52 _seltab;
#X obj 234 306 abs~;
#X obj 350 542 *~ 0.9;
#X obj 233 151 *~ 0.4;
#X obj 233 176 +~ 0.5;
#X obj 450 24 inlet;
#X obj 450 46 route 0 1 2 3 4 5, f 13;
#X obj 249 241 delread4~ \$1-mag, f 9;
#X obj 350 566 delwrite~ \$1-mag 100, f 10;
#X connect 0 0 1 0;
#X connect 1 0 3 0;
#X connect 2 0 1 1;
#X connect 3 0 18 0;
#X connect 3 1 19 0;
#X connect 4 0 6 0;
#X connect 6 0 7 0;
#X connect 7 0 5 0;
#X connect 8 0 7 1;
#X connect 10 0 22 0;
#X connect 11 0 22 0;
#X connect 12 0 13 0;
#X connect 13 0 29 0;
#X connect 14 0 13 0;
#X connect 15 0 14 0;
#X connect 16 0 27 0;
#X connect 17 0 6 1;
#X connect 18 0 10 1;
#X connect 18 0 10 0;
#X connect 18 0 4 0;
#X connect 19 0 11 1;
#X connect 19 0 11 0;
#X connect 19 0 4 1;
#X connect 20 0 18 1;
#X connect 20 0 19 1;
#X connect 21 0 20 1;
#X connect 22 0 28 0;
#X connect 23 0 15 0;
#X connect 24 0 33 0;
#X connect 25 0 23 0;
#X connect 26 0 12 0;
#X connect 27 0 20 0;
#X connect 28 0 34 0;
#X connect 29 0 30 0;
#X connect 30 0 24 0;
#X connect 30 0 16 0;
#X connect 31 0 32 0;
#X connect 32 0 17 0;
#X connect 32 0 21 1;
#X connect 32 1 25 0;
#X connect 32 2 24 1;
#X connect 32 3 26 0;
#X connect 33 0 16 1;
