#N canvas 0 22 524 427 12;
#X obj 44 14 inlet~;
#X obj 44 84 rfft~;
#X obj 44 256 rifft~;
#X obj 44 59 *~;
#X obj 41 308 *~;
#X obj 41 363 outlet~;
#X obj 44 281 *~ 0.001;
#X obj 44 161 _cmod;
#X obj 386 20 block~ 2048 4;
#X obj 260 13 inlet~;
#X obj 260 58 *~;
#X obj 260 83 rfft~;
#X obj 259 243 *~;
#X obj 299 242 *~;
#X obj 139 131 *~;
#X obj 179 130 *~;
#X obj 138 174 sqrt~;
#X obj 258 275 rifft~;
#X obj 258 325 *~;
#X obj 258 380 outlet~;
#X obj 77 59 tabreceive~ 0-han;
#X obj 293 58 tabreceive~ 0-han;
#X obj 297 325 tabreceive~ 0-han;
#X obj 74 307 tabreceive~ 0-han;
#X obj 320 194 *~;
#X obj 341 131 tabreceive~ 0-gau;
#X obj 341 156 *~;
#X obj 258 300 *~ 0.0008;
#X connect 0 0 3 0;
#X connect 1 0 7 0;
#X connect 1 0 14 0;
#X connect 1 0 14 1;
#X connect 1 1 7 1;
#X connect 1 1 15 0;
#X connect 1 1 15 1;
#X connect 2 0 6 0;
#X connect 3 0 1 0;
#X connect 4 0 5 0;
#X connect 6 0 4 0;
#X connect 7 0 2 0;
#X connect 7 1 2 1;
#X connect 9 0 10 0;
#X connect 10 0 11 0;
#X connect 11 0 12 0;
#X connect 11 1 13 0;
#X connect 12 0 17 0;
#X connect 13 0 17 1;
#X connect 14 0 16 0;
#X connect 15 0 16 0;
#X connect 16 0 2 0;
#X connect 16 0 2 1;
#X connect 16 0 24 0;
#X connect 17 0 27 0;
#X connect 18 0 19 0;
#X connect 20 0 3 1;
#X connect 21 0 10 1;
#X connect 22 0 18 1;
#X connect 23 0 4 1;
#X connect 24 0 12 1;
#X connect 24 0 13 1;
#X connect 25 0 26 0;
#X connect 25 0 26 1;
#X connect 26 0 24 1;
#X connect 27 0 18 0;
