#N canvas 146 101 757 553 12;
#X obj 23 316 *~;
#X obj 28 67 / 44.1;
#X obj 23 343 +~ 1;
#X obj 174 147 t b b, f 8;
#X obj 174 181 del;
#X msg 174 203 0;
#X msg 219 201 1;
#X obj 23 438 *~;
#X obj 174 264 line~;
#X obj 389 12 inlet;
#X obj 544 514 outlet;
#X obj 179 514 outlet~;
#X obj 23 284 vline~;
#X obj 23 125 * 1;
#X msg 91 233 0 \, 1 \$1;
#X obj 23 206 * -1;
#X obj 391 137 random;
#X msg 391 192 set 0 \$1 \, bang;
#X obj 391 217 crand;
#X obj 391 242 int;
#X obj 391 162 t f f;
#X obj 391 267 t b f f;
#X obj 391 292 f;
#X obj 391 317 -;
#X obj 393 352 min;
#X obj 390 112 t b f f;
#X obj 471 271 - 3;
#X obj 389 37 fd_spigot;
#X msg 534 77 1;
#X obj 532 410 fd_switch;
#X obj 175 460 *~;
#X obj 227 322 sig~ 1;
#X obj 226 347 -~;
#X obj 270 510 outlet~;
#X obj 266 456 *~;
#X obj 175 485 *~;
#X obj 266 481 *~;
#X obj 289 395 abs~;
#X obj 226 372 *~ -1;
#X obj 223 397 abs~;
#X obj 596 455 t f f;
#X obj 543 458 sel;
#X obj 543 483 t b b;
#X obj 23 181 moses;
#X obj 584 14 bng 15 250 50 0 empty empty empty 17 7 0 10 -262144 -1
-1;
#X obj 33 35 t f f, f 11;
#X msg 23 234 1 \, 0 \$1;
#X obj 390 61 t b b;
#X floatatom 391 389 5 0 0 0 - - -, f 5;
#X obj 80 338 +~ 1;
#X obj 610 489 switch~;
#X obj 174 241 pack f f;
#X obj 25 92 t f b f b, f 26;
#X obj 250 101 t f f;
#X obj 234 19 r sampreadrange;
#X obj 23 365 tabread4~ \$2;
#X obj 392 86 array size \$2;
#X obj 252 57 crand 0.5 1.5;
#X obj 218 423 q8_sqrt~;
#X obj 290 420 q8_sqrt~;
#X floatatom 100 177 5 0 0 0 - - -, f 5;
#X obj 23 150 max 10;
#X obj 284 355 tabread4~ xpo;
#X obj 80 313 *~ 61;
#X obj 174 289 *~;
#X obj 174 314 *~;
#X obj 155 361 *~;
#X obj 155 386 *~;
#X connect 0 0 2 0;
#X connect 1 0 52 0;
#X connect 2 0 55 0;
#X connect 3 0 4 0;
#X connect 3 1 6 0;
#X connect 4 0 5 0;
#X connect 5 0 29 0;
#X connect 5 0 51 0;
#X connect 6 0 51 0;
#X connect 7 0 30 0;
#X connect 7 0 34 0;
#X connect 8 0 64 0;
#X connect 8 0 64 1;
#X connect 9 0 27 0;
#X connect 12 0 0 0;
#X connect 12 0 63 0;
#X connect 13 0 61 0;
#X connect 14 0 12 0;
#X connect 15 0 46 0;
#X connect 16 0 20 0;
#X connect 17 0 18 0;
#X connect 18 0 19 0;
#X connect 19 0 21 0;
#X connect 20 0 17 0;
#X connect 20 1 22 1;
#X connect 21 0 22 0;
#X connect 21 1 23 1;
#X connect 21 2 55 1;
#X connect 22 0 23 0;
#X connect 23 0 24 0;
#X connect 24 0 45 0;
#X connect 24 0 48 0;
#X connect 25 0 16 0;
#X connect 25 1 16 1;
#X connect 25 2 26 0;
#X connect 26 0 24 1;
#X connect 27 0 47 0;
#X connect 28 0 29 0;
#X connect 29 0 35 1;
#X connect 29 0 36 1;
#X connect 29 1 40 0;
#X connect 30 0 35 0;
#X connect 31 0 32 0;
#X connect 32 0 38 0;
#X connect 34 0 36 0;
#X connect 35 0 11 0;
#X connect 36 0 33 0;
#X connect 37 0 32 1;
#X connect 37 0 59 0;
#X connect 38 0 39 0;
#X connect 39 0 58 0;
#X connect 40 0 41 0;
#X connect 40 1 50 0;
#X connect 41 0 42 0;
#X connect 42 0 10 0;
#X connect 42 1 44 0;
#X connect 43 0 15 0;
#X connect 43 1 14 0;
#X connect 44 0 27 1;
#X connect 45 0 1 0;
#X connect 45 1 0 1;
#X connect 46 0 12 0;
#X connect 47 0 56 0;
#X connect 47 1 28 0;
#X connect 49 0 62 0;
#X connect 51 0 8 0;
#X connect 52 0 13 0;
#X connect 52 1 3 0;
#X connect 52 2 4 1;
#X connect 52 3 57 0;
#X connect 53 0 13 1;
#X connect 53 1 51 1;
#X connect 54 0 57 0;
#X connect 55 0 7 0;
#X connect 56 0 25 0;
#X connect 57 0 53 0;
#X connect 58 0 30 1;
#X connect 59 0 34 1;
#X connect 61 0 43 0;
#X connect 61 0 60 0;
#X connect 62 0 37 0;
#X connect 63 0 49 0;
#X connect 64 0 65 0;
#X connect 64 0 65 1;
#X connect 65 0 66 0;
#X connect 65 0 66 1;
#X connect 66 0 67 0;
#X connect 66 0 67 1;
#X connect 67 0 7 1;
