#N canvas 0 22 661 632 12;
#X obj 34 20 inlet~;
#X obj 34 45 *~;
#X obj 69 47 tabreceive~ 0-han;
#X obj 34 70 rfft~;
#X obj 58 458 rifft~;
#X obj 49 588 outlet~;
#X obj 56 485 *~ 0.001;
#X obj 47 558 *~;
#X obj 82 560 tabreceive~ 0-han;
#X obj 502 198 block~ 2048 4;
#X obj 352 487 *~;
#X obj 391 486 *~;
#X msg 298 85 set \$1;
#X obj 233 116 tabread4~ 0-han;
#X obj 235 92 +~ 1;
#X obj 235 67 *~ 2045;
#X obj 234 271 *~;
#X obj 130 486 * 0.01;
#X obj 234 351 *~ -1;
#X obj 282 350 * -0.9;
#X obj 235 42 phasor~ 32;
#X obj 248 207 *~ 1;
#X obj 235 14 mtof;
#X obj 338 42 _seltab;
#X obj 234 296 abs~;
#X obj 350 542 *~ 0.9;
#X obj 233 141 *~ 0.4;
#X obj 233 166 +~ 0.5;
#X obj 450 24 inlet;
#X obj 450 46 route 0 1 2 3 4 5, f 13;
#X obj 249 231 delread4~ \$1-mag, f 9;
#X obj 350 566 delwrite~ \$1-mag 100, f 10;
#X obj 234 321 clip~ 0 0.8;
#X obj 56 510 clip~ 0 0.7;
#X floatatom 493 127 5 0 0 0 - - -, f 5;
#X floatatom 420 168 5 0 0 0 - - -, f 5;
#X floatatom 468 102 5 0 0 0 - - -, f 5;
#X symbolatom 338 67 10 0 0 0 - - -, f 10;
#X obj 138 387 *~;
#X obj 168 387 *~;
#X obj 350 517 rsqrt~;
#X connect 0 0 1 0;
#X connect 1 0 3 0;
#X connect 2 0 1 1;
#X connect 3 0 38 0;
#X connect 3 1 39 0;
#X connect 4 0 6 0;
#X connect 6 0 33 0;
#X connect 7 0 5 0;
#X connect 8 0 7 1;
#X connect 10 0 40 0;
#X connect 11 0 40 0;
#X connect 12 0 13 0;
#X connect 13 0 26 0;
#X connect 14 0 13 0;
#X connect 15 0 14 0;
#X connect 16 0 24 0;
#X connect 17 0 6 1;
#X connect 18 0 38 1;
#X connect 18 0 39 1;
#X connect 19 0 18 1;
#X connect 20 0 15 0;
#X connect 21 0 30 0;
#X connect 22 0 20 0;
#X connect 23 0 12 0;
#X connect 23 0 37 0;
#X connect 24 0 32 0;
#X connect 25 0 31 0;
#X connect 26 0 27 0;
#X connect 27 0 21 0;
#X connect 27 0 16 0;
#X connect 28 0 29 0;
#X connect 29 0 17 0;
#X connect 29 0 19 1;
#X connect 29 0 35 0;
#X connect 29 1 22 0;
#X connect 29 1 36 0;
#X connect 29 2 21 1;
#X connect 29 3 23 0;
#X connect 29 3 34 0;
#X connect 30 0 16 1;
#X connect 32 0 18 0;
#X connect 33 0 7 0;
#X connect 38 0 10 1;
#X connect 38 0 10 0;
#X connect 38 0 4 0;
#X connect 39 0 11 1;
#X connect 39 0 11 0;
#X connect 39 0 4 1;
#X connect 40 0 25 0;
