#N canvas 233 100 546 413 12;
#X obj 33 25 r \$1-barked;
#X obj 33 188 * 1;
#X obj 54 162 r length;
#X obj 169 114 cnv 15 200 60 empty empty empty 20 12 0 14 -233017 -66577
0;
#X text 21 369 receives a \$1-barked \, which comes from the bark~
in [inputs];
#X text 393 113 cloned [_harm] \, as many instances as there are -npeaks
in sigmund~ in [inputs], f 15;
#X obj 277 47 inlet param;
#X obj 330 78 inlet switch;
#X text 185 271 arguments;
#N canvas 0 22 450 300 totgrains 0;
#X obj 71 111 list split 2;
#X obj 71 136 *;
#X obj 71 161 *;
#X obj 71 86 pack \$1 \$2 \$3;
#X obj 71 216 print _barked-\$1;
#X msg 71 186 \$1 total number of grains;
#X obj 71 61 r tot-grains;
#X obj 226 131 s ngrains;
#X connect 0 0 1 0;
#X connect 0 1 2 1;
#X connect 1 0 2 0;
#X connect 2 0 5 0;
#X connect 2 0 7 0;
#X connect 3 0 0 0;
#X connect 5 0 4 0;
#X connect 6 0 3 0;
#X restore 393 324 pd totgrains;
#X text 194 295 \$1 = nbarks \; \$2 = npeaks per barks \; \$3 = ngrains
per peak \; \$4 = \$0 \;;
#X obj 225 21 inlet sigmund;
#X obj 173 131 clone _harm \$2 \$3 \$4;
#X obj 33 134 + 1;
#X obj 33 213 max 1;
#X obj 33 79 t b f;
#X obj 33 106 _getprob \$1 104;
#X msg 33 293 10 \$1 \, bang;
#X obj 33 318 fd_delit;
#X obj 33 343 pack;
#X obj 33 268 t f f b;
#X msg 95 269 0;
#X obj 33 238 spigot 1;
#X msg 103 318 1;
#X obj 33 50 spigot;
#X obj 93 51 r \$1-env;
#X obj 93 76 > 40;
#X obj 138 78 r silence-thres;
#X connect 0 0 24 0;
#X connect 1 0 14 0;
#X connect 2 0 1 1;
#X connect 6 0 12 2;
#X connect 7 0 12 3;
#X connect 11 0 12 1;
#X connect 13 0 1 0;
#X connect 14 0 22 0;
#X connect 15 0 16 0;
#X connect 15 1 13 1;
#X connect 16 0 13 0;
#X connect 17 0 18 0;
#X connect 18 0 19 0;
#X connect 18 1 23 0;
#X connect 19 0 12 0;
#X connect 20 0 17 0;
#X connect 20 1 19 1;
#X connect 20 2 21 0;
#X connect 21 0 22 1;
#X connect 22 0 20 0;
#X connect 23 0 22 1;
#X connect 24 0 15 0;
#X connect 25 0 26 0;
#X connect 26 0 24 1;
#X connect 27 0 26 1;
