#N canvas 541 104 415 364 10;
#X obj 47 94 pix_texture;
#X obj 47 270 rectangle 4 3;
#X obj 137 36 r quality;
#X obj 141 202 r aspect;
#X obj 84 245 unpack;
#X obj 47 29 inlet;
#X obj 143 60 r texture-properties;
#X obj 185 135 r aspect-\$1;
#X connect 0 0 1 0;
#X connect 2 0 0 0;
#X connect 3 0 4 0;
#X connect 4 0 1 1;
#X connect 4 1 1 2;
#X connect 5 0 0 0;
#X connect 6 0 0 0;
#X connect 7 0 4 0;
