#N canvas 257 23 565 474 12;
#X obj 20 20 cnv 15 100 140 empty empty _phasevocGui 5 8 0 10 -228856
-1 0;
#X obj 41 109 tgl 15 0 empty empty lock 17 7 0 10 -262144 -1 -1 0 1
;
#X msg 189 314 transpo \$1;
#X msg 189 214 location \$1;
#X obj 23 46 vsl 15 55 0 127 0 0 empty empty tsp -1 -9 0 10 -262144
-1 -1 4800 1;
#X obj 44 68 hsl 60 13 0 127 0 0 empty empty location 6 7 0 10 -262144
-1 -1 1600 1;
#X obj 44 81 hsl 60 13 0.001 10000 1 0 empty empty speed 6 7 0 10 -262144
-1 -1 4300 1;
#X obj 80 119 bng 15 250 50 0 empty empty rewind 0 -5 0 8 -262144 -1
-1;
#X msg 189 294 rewind;
#X msg 189 234 speed \$1;
#X obj 44 94 hsl 60 13 1 200 0 0 empty empty auto 6 7 0 10 -262144
-1 -1 3300 1;
#X msg 189 254 auto \$1;
#X obj 25 106 bng 10 250 50 0 empty empty empty 0 -6 0 8 -262144 -1
-1;
#X msg 23 267 2 \$1;
#X obj 23 292 pow;
#X obj 29 345 / 44100;
#X obj 109 57 vradio 10 1 0 5 empty empty empty -4 -6 0 8 -261234 -1
-1 1;
#X obj 21 241 + 14;
#X obj 23 317 t f f;
#X obj 29 370 fd_round 0.1 100, f 8;
#X obj 77 56 nbx 3 10 -1e+37 1e+37 0 0 empty empty size 0 -5 0 8 -261234
-1 -1 0.74 256;
#X msg 189 334 sampler \$1;
#X obj 41 51 tgl 15 0 empty empty rec 17 7 0 8 -261234 -1 -1 0 1;
#X obj 20 20 bng 8 250 50 0 empty empty empty 17 7 0 8 -262144 -1 -1
;
#X msg 274 28 phasevoc;
#X obj 274 55 fd_visera 1;
#X obj 104 22 tgl 15 0 empty empty sw 2 8 0 10 -262144 -1 -1 1 1;
#X msg 188 191 switch \$1;
#X obj 92 233 sel 1;
#X msg 387 114 1;
#X msg 384 92 0;
#X msg 25 201 0;
#X msg 189 274 lock \$1;
#X obj 24 143 nbx 2 14 0 16 0 0 empty empty 0-han 0 -8 0 10 -262144
-1 -1 4 256;
#X msg 193 154 q \$1;
#X msg 193 174 tab \$1;
#X obj 56 143 hsl 40 15 0.001 1 1 0 empty empty q:0.345 0 8 0 10 -262144
-1 -1 3300 1;
#X msg 189 125 label q:\$1;
#X obj 304 152 fd_round 0.1 1000;
#X obj 306 199 _seltab;
#X msg 306 224 label \$1;
#X obj 377 318 del 1 1 samp;
#X msg 92 258 -1;
#X obj 110 454 s phasevoc;
#X obj 110 429 list trim;
#X obj 58 38 hradio 15 1 0 4 empty empty in -15 4 0 10 -262144 -1 -1
1;
#X obj 158 39 + 1;
#X msg 199 93 input \$1;
#X obj 99 130 nbx 1 14 0 3 0 0 empty empty id 0 -8 0 10 -262144 -1
-1 0 256;
#X obj 423 206 bang;
#X obj 423 231 f;
#X obj 455 231 + 1;
#X obj 474 176 sel 1;
#X obj 425 281 s pvoc-id;
#X msg 356 273 set \$1;
#X obj 425 254 mod 4;
#X msg 377 343 set 0;
#X connect 1 0 32 0;
#X connect 2 0 44 0;
#X connect 3 0 44 0;
#X connect 4 0 2 0;
#X connect 5 0 3 0;
#X connect 6 0 9 0;
#X connect 7 0 8 0;
#X connect 8 0 44 0;
#X connect 9 0 44 0;
#X connect 10 0 11 0;
#X connect 11 0 44 0;
#X connect 12 0 31 0;
#X connect 13 0 14 0;
#X connect 14 0 18 0;
#X connect 15 0 19 0;
#X connect 16 0 17 0;
#X connect 16 0 49 0;
#X connect 17 0 13 0;
#X connect 18 0 21 0;
#X connect 18 0 41 1;
#X connect 18 1 15 0;
#X connect 19 0 20 0;
#X connect 21 0 44 0;
#X connect 22 0 28 0;
#X connect 22 0 52 0;
#X connect 23 0 24 0;
#X connect 24 0 25 0;
#X connect 26 0 27 0;
#X connect 27 0 44 0;
#X connect 28 0 42 0;
#X connect 28 0 41 0;
#X connect 29 0 16 0;
#X connect 30 0 4 0;
#X connect 31 0 4 0;
#X connect 32 0 44 0;
#X connect 33 0 35 0;
#X connect 33 0 39 0;
#X connect 34 0 44 0;
#X connect 35 0 44 0;
#X connect 36 0 34 0;
#X connect 36 0 38 0;
#X connect 37 0 36 0;
#X connect 38 0 37 0;
#X connect 39 0 40 0;
#X connect 40 0 33 0;
#X connect 41 0 56 0;
#X connect 42 0 21 0;
#X connect 44 0 43 0;
#X connect 45 0 46 0;
#X connect 46 0 47 0;
#X connect 47 0 44 0;
#X connect 48 0 53 0;
#X connect 49 0 50 0;
#X connect 50 0 51 0;
#X connect 50 0 55 0;
#X connect 51 0 50 1;
#X connect 52 0 49 0;
#X connect 54 0 48 0;
#X connect 55 0 53 0;
#X connect 55 0 54 0;
#X connect 56 0 22 0;
#X coords 0 -1 1 1 100 140 1 20 20;
