#N canvas 0 22 340 534 12;
#X obj 54 14 inlet;
#X msg 255 332 stoch;
#X msg 255 352 sin;
#X msg 255 372 cos;
#X obj 52 432 symbol;
#X msg 255 312 lor;
#X msg 255 93 0-sin;
#X msg 255 113 0-gau;
#X msg 255 133 0-tra;
#X msg 255 212 0-tri;
#X msg 255 232 0-exp;
#X msg 255 252 0-rex;
#X msg 255 153 0-bla;
#X msg 255 173 0-han;
#X msg 255 392 0-poi;
#X msg 255 192 0-cau;
#X msg 255 272 0-arc;
#X msg 255 292 0-log;
#X obj 52 458 outlet;
#X obj 23 14 int;
#X obj 23 41 sel 0 1 2 3 4 5 6 7 8 9 10 11 12 13 14 15 16, f 19;
#X msg 255 412 caos;
#X connect 0 0 19 0;
#X connect 1 0 4 0;
#X connect 2 0 4 0;
#X connect 3 0 4 0;
#X connect 4 0 18 0;
#X connect 5 0 4 0;
#X connect 6 0 4 0;
#X connect 7 0 4 0;
#X connect 8 0 4 0;
#X connect 9 0 4 0;
#X connect 10 0 4 0;
#X connect 11 0 4 0;
#X connect 12 0 4 0;
#X connect 13 0 4 0;
#X connect 14 0 4 0;
#X connect 15 0 4 0;
#X connect 16 0 4 0;
#X connect 17 0 4 0;
#X connect 19 0 20 0;
#X connect 20 0 6 0;
#X connect 20 1 7 0;
#X connect 20 2 8 0;
#X connect 20 3 12 0;
#X connect 20 4 13 0;
#X connect 20 5 15 0;
#X connect 20 6 9 0;
#X connect 20 7 10 0;
#X connect 20 8 11 0;
#X connect 20 9 16 0;
#X connect 20 10 17 0;
#X connect 20 11 5 0;
#X connect 20 12 1 0;
#X connect 20 13 2 0;
#X connect 20 14 3 0;
#X connect 20 15 14 0;
#X connect 20 16 21 0;
#X connect 21 0 4 0;
