#N canvas 14 478 345 345 10;
#X declare -path ~/Documents/fd_lib;
#X declare -path ~/Documents/dep_lib/boids;
#X declare -stdlib Gem;
#X declare -path ./lib;
#N canvas 523 47 581 342 sinc-prob 0;
#X obj 100 100 cnv 15 129 100 empty empty sinc-prob 5 6 0 10 -1 -4034
0;
#X obj 189 181 nbx 4 14 -1e+37 1e+37 0 0 sinc-w sinc-w-set sinc-w 0
-6 0 8 -262144 -1 -4034 200 256;
#X obj 189 155 nbx 4 14 -1e+37 1e+37 0 0 sinc-o sinc-o-set sinc-o 0
-6 0 8 -262144 -1 -4034 50 256;
#X obj 189 130 nbx 4 14 -1e+37 1e+37 0 0 sinc-q sinc-q-set sinc-q 0
-6 0 8 -262144 -1 -4034 200 256;
#X obj 102 130 cnv 15 85 65 empty empty empty 20 12 0 14 -262144 -66577
0;
#N canvas 0 22 450 278 (subpatch) 0;
#X array sinc-prob 100 float 1;
#A 0 1.40877e-06 -0.0310545 -0.0195939 0.0200086 0.0330806 1.33868e-06
-0.0345834 -0.0218723 0.0223906 0.0371148 1.40365e-06 -0.0390173 -0.02475
0.0254166 0.0422696 1.3128e-06 -0.0447551 -0.0284996 0.0293883 0.0490872
1.39512e-06 -0.0524716 -0.0335889 0.0348307 0.0585269 1.3883e-06 -0.0634033
-0.0408905 0.0427469 0.0724619 1.22547e-06 -0.0800886 -0.0522487 0.0553201
0.095106 1.361e-06 -0.108692 -0.0723438 0.0783703 0.138336 1.17429e-06
-0.169076 -0.117558 0.13435 0.253615 1.52969e-06 -0.380423 -0.313486
0.470227 1 -0 1 0.470228 -0.313486 -0.380421 2.24432e-06 0.253616 0.13435
-0.117558 -0.169076 2.14195e-06 0.138336 0.07837 -0.0723441 -0.108692
1.29403e-06 0.0951062 0.0553195 -0.0522488 -0.0800885 1.48042e-06 0.0724619
0.0427465 -0.0408907 -0.0634033 1.59226e-06 0.058527 0.0348307 -0.0335888
-0.0524716 1.46336e-06 0.0490872 0.0293881 -0.0284997 -0.0447552 1.54568e-06
0.0422696 0.0254165 -0.0247501 -0.0390173 1.45483e-06 0.0371149 0.0223905
-0.0218723 -0.0345834 1.51981e-06 0.0330807 0.0200084 -0.0195941 -0.0310545
;
#X coords 0 1 99 -1 85 65 2 0 0;
#X restore 102 130 graph;
#X obj 238 101 loadbang;
#N canvas 520 415 450 300 sinc-preset 0;
#X obj 78 42 sel 0 1 2 3 4 5 6;
#X obj 78 17 r sinc-preset;
#X msg 123 79 \; sinc-q-set 100 \; sinc-o-set 50 \; sinc-w-set 80 \;
;
#X msg 21 75 \; sinc-q-set 100 \; sinc-o-set 0 \; sinc-w-set 80 \;
;
#X msg 225 79 \; sinc-q-set 100 \; sinc-o-set 100 \; sinc-w-set 80
\;;
#X msg 23 139 \; sinc-q-set 20 \; sinc-o-set 0 \; sinc-w-set 80 \;
;
#X msg 124 140 \; sinc-q-set 20 \; sinc-o-set 50 \; sinc-w-set 80 \;
;
#X msg 223 139 \; sinc-q-set 20 \; sinc-o-set 100 \; sinc-w-set 80
\;;
#X msg 122 200 \; sinc-q-set 200 \; sinc-o-set 50 \; sinc-w-set 200
\;;
#X connect 0 0 2 0;
#X connect 0 1 3 0;
#X connect 0 2 4 0;
#X connect 0 3 6 0;
#X connect 0 4 5 0;
#X connect 0 5 7 0;
#X connect 0 6 8 0;
#X connect 1 0 0 0;
#X restore 102 203 pd sinc-preset;
#N canvas 91 47 429 543 sinc-table 0;
#X obj 30 96 fd_iterate;
#X obj 30 135 t f f;
#X msg 30 43 100;
#X obj 206 135 t b f;
#X obj 140 94 t b f;
#X obj 277 180 t b f;
#X obj 30 157 / 100;
#X obj 30 179 - 0.5;
#X obj 30 201 * 3;
#X obj 30 223 t f f;
#X obj 30 308 /;
#X obj 30 330 * -0.16;
#X obj 30 352 * 0.98;
#X obj 140 4 r sinc-q;
#X obj 206 4 r sinc-o;
#X obj 277 4 r sinc-w;
#X obj 140 46 / 10;
#X obj 34 286 cos;
#X obj 277 157 / 100;
#X obj 34 264 * 6.28319;
#X obj 205 70 / 100;
#X obj 30 244 + 0.25;
#X obj 258 344 moses 1;
#X obj 206 321 moses -1;
#X obj 212 384 abs;
#X msg 302 370 1 \$1;
#X obj 302 392 -;
#X obj 237 422 clip -1 1;
#X obj 56 467 clip -1 1;
#X obj 52 507 tabwrite sinc-prob, f 33;
#X connect 0 0 1 0;
#X connect 1 0 6 0;
#X connect 1 1 29 1;
#X connect 2 0 0 0;
#X connect 3 0 2 0;
#X connect 3 1 7 1;
#X connect 4 0 2 0;
#X connect 4 1 8 1;
#X connect 5 0 2 0;
#X connect 5 1 12 1;
#X connect 6 0 7 0;
#X connect 7 0 8 0;
#X connect 8 0 9 0;
#X connect 9 0 21 0;
#X connect 9 1 10 1;
#X connect 10 0 11 0;
#X connect 11 0 12 0;
#X connect 12 0 28 0;
#X connect 13 0 16 0;
#X connect 14 0 20 0;
#X connect 15 0 18 0;
#X connect 16 0 4 0;
#X connect 17 0 10 0;
#X connect 18 0 5 0;
#X connect 19 0 17 0;
#X connect 20 0 3 0;
#X connect 21 0 19 0;
#X connect 22 0 27 0;
#X connect 22 1 25 0;
#X connect 23 0 24 0;
#X connect 23 1 22 0;
#X connect 24 0 27 0;
#X connect 25 0 26 0;
#X connect 26 0 27 0;
#X connect 28 0 29 0;
#X restore 102 222 pd sinc-table;
#X obj 238 145 s sinc-preset-set;
#X obj 214 101 fd_tglvis sinc-prob;
#X msg 238 123 0;
#X obj 103 116 hradio 12 1 0 7 sinc-preset sinc-preset-set empty 0
-8 0 10 -204786 -1 -1 6;
#X connect 6 0 11 0;
#X connect 11 0 9 0;
#X coords 0 -1 1 1 129 100 2 100 100;
#X restore 6 125 pd sinc-prob;
#N canvas 525 49 581 342 pow-prob 0;
#X obj 100 100 cnv 15 129 100 empty empty pow-prob 5 6 0 10 -1 -4034
0;
#X obj 102 130 cnv 15 85 65 empty empty empty 20 12 0 14 -262144 -66577
0;
#N canvas 0 22 450 278 (subpatch) 0;
#X array pow-prob 100 float 1;
#A 0 0 1e-18 5.12e-16 1.9683e-14 2.62144e-13 1.95313e-12 1.00777e-11
4.03536e-11 1.34218e-10 3.87421e-10 1e-09 2.35795e-09 5.15978e-09 1.06045e-08
2.0661e-08 3.84434e-08 6.87195e-08 1.18588e-07 1.98359e-07 3.22688e-07
5.12e-07 7.9428e-07 1.20727e-06 1.80115e-06 2.64181e-06 3.8147e-06
5.4295e-06 7.6256e-06 1.05785e-05 1.45071e-05 1.9683e-05 2.64396e-05
3.51844e-05 4.64115e-05 6.0717e-05 7.88156e-05 0.00010156 0.000129962
0.000165216 0.000208728 0.000262144 0.000327382 0.000406671 0.000502593
0.000618122 0.00075668 0.00092219 0.00111913 0.00135261 0.00162841
0.00195312 0.00233416 0.0027799 0.00329976 0.00390431 0.00460537 0.00541617
0.00635146 0.00742766 0.00866299 0.0100777 0.0116941 0.0135371 0.0156338
0.0180144 0.0207119 0.0237627 0.0272065 0.0310871 0.0354521 0.0403536
0.0458485 0.0519987 0.0588716 0.0665404 0.0750847 0.0845906 0.0951517
0.106869 0.119852 0.134218 0.150095 0.16762 0.18694 0.208216 0.231617
0.257327 0.285544 0.316478 0.350356 0.38742 0.42793 0.472161 0.520411
0.572995 0.630249 0.692534 0.760231 0.833748 0.913517;
#X coords 0 1 99 -1 85 65 2 0 0;
#X restore 102 130 graph;
#X obj 238 101 loadbang;
#N canvas 2 345 327 304 pow-table 0;
#X obj 30 96 fd_iterate;
#X obj 30 135 t f f;
#X msg 30 43 100;
#X obj 140 94 t b f;
#X obj 30 157 / 100;
#X obj 30 210 pow;
#X obj 30 232 clip -1 1;
#X obj 140 4 r pow-exp;
#X obj 140 61 + 1;
#X obj 201 6 r pow-finetune;
#X obj 201 50 t b f;
#X obj 201 28 / 100;
#X obj 30 179 +;
#X obj 213 74 r pow-o;
#X obj 213 138 t b f;
#X obj 140 26 + 1;
#X obj 213 95 / 100;
#X obj 213 117 * -1;
#X obj 30 268 tabwrite pow-prob, f 33;
#X connect 0 0 1 0;
#X connect 1 0 4 0;
#X connect 1 1 18 1;
#X connect 2 0 0 0;
#X connect 3 0 2 0;
#X connect 3 1 5 1;
#X connect 4 0 12 0;
#X connect 5 0 6 0;
#X connect 6 0 18 0;
#X connect 7 0 15 0;
#X connect 8 0 3 0;
#X connect 9 0 11 0;
#X connect 10 0 8 0;
#X connect 10 1 8 1;
#X connect 11 0 10 0;
#X connect 12 0 5 0;
#X connect 13 0 16 0;
#X connect 14 0 2 0;
#X connect 14 1 12 1;
#X connect 15 0 8 0;
#X connect 16 0 17 0;
#X connect 17 0 14 0;
#X restore 102 234 pd pow-table;
#X obj 214 101 fd_tglvis pow-prob;
#X obj 238 145 s pow-exp-set;
#X obj 189 156 nbx 4 14 -1e+37 1e+37 0 0 pow-finetune pow-finetune-set
fine 0 -6 0 8 -262144 -1 -4034 0 256;
#X obj 189 181 nbx 4 14 -1e+37 1e+37 0 0 pow-o pow-o-set pow-o 0 -6
0 8 -262144 -1 -4034 0 256;
#X obj 189 130 nbx 4 14 -100000 100000 0 0 pow-exp pow-exp-set pow-exp
0 -6 0 8 -262144 -1 -4034 8 256;
#N canvas 0 22 450 300 pow-preset 0;
#X obj 76 13 r pow-preset;
#X obj 206 12 sel 0 1 2 3 4 5 6;
#X msg 20 75 \; pow-exp-set 2 \; pow-finetune-set 0 \; pow-o-set 0
\;;
#X msg 163 79 \; pow-exp-set 1 \; pow-finetune-set 0 \; pow-o-set 0
\;;
#X msg 305 79 \; pow-exp-set 4 \; pow-finetune-set 0 \; pow-o-set 0
\;;
#X msg 20 139 \; pow-exp-set 8 \; pow-finetune-set 0 \; pow-o-set 0
\;;
#X msg 163 139 \; pow-exp-set 2 \; pow-finetune-set -999 \; pow-o-set
-100 \;;
#X msg 302 139 \; pow-exp-set 0 \; pow-finetune-set 0 \; pow-o-set
0 \;;
#X msg 162 199 \; pow-exp-set 7 \; pow-finetune-set -880 \; pow-o-set
-100 \;;
#X connect 0 0 1 0;
#X connect 1 0 3 0;
#X connect 1 1 2 0;
#X connect 1 2 4 0;
#X connect 1 3 6 0;
#X connect 1 4 7 0;
#X connect 1 5 5 0;
#X connect 1 6 8 0;
#X restore 103 210 pd pow-preset;
#X msg 238 123 0;
#X obj 103 116 hradio 12 1 0 7 pow-preset pow-preset-set empty 0 -8
0 10 -204786 -1 -1 5;
#X connect 3 0 11 0;
#X connect 11 0 6 0;
#X coords 0 -1 1 1 129 100 2 100 100;
#X restore 6 23 pd pow-prob;
#N canvas 379 155 581 342 gauss-prob 0;
#X obj 100 100 cnv 15 129 100 empty empty gauss-prob 5 6 0 10 -1 -4034
0;
#X obj 189 181 nbx 4 14 -1e+37 1e+37 0 0 gauss-exp gauss-exp-set g-exp
0 -6 0 8 -262144 -1 -4034 200 256;
#X obj 189 155 nbx 4 14 -1e+37 1e+37 0 0 gauss-stdev gauss-stdev-set
g-stdev 0 -6 0 8 -262144 -1 -4034 50 256;
#X obj 189 130 nbx 4 14 -1e+37 1e+37 0 0 gauss-mean gauss-mean-set
g-mean 0 -6 0 8 -262144 -1 -4034 80 256;
#X obj 102 130 cnv 15 85 65 empty empty empty 20 12 0 14 -262144 -66577
0;
#N canvas 0 22 450 278 (subpatch) 0;
#X array gauss-prob 100 float 1;
#A 0 1.01045e-14 2.23759e-14 4.9057e-14 1.06483e-13 2.28831e-13 4.86864e-13
1.02555e-12 2.13876e-12 4.41598e-12 9.02708e-12 1.82694e-11 3.66066e-11
7.26191e-11 1.42627e-10 2.77336e-10 5.33911e-10 1.01763e-09 1.92028e-09
3.58757e-09 6.63576e-09 1.21518e-08 2.20315e-08 3.95463e-08 7.02791e-08
1.23652e-07 2.15395e-07 3.71472e-07 6.34268e-07 1.07221e-06 1.79449e-06
2.97344e-06 4.87792e-06 7.92258e-06 1.27396e-05 2.02817e-05 3.19674e-05
4.98849e-05 7.70702e-05 0.000117886 0.000178523 0.00026766 0.00039731
0.000583893 0.00084956 0.0012238 0.00174536 0.00246444 0.00344513 0.00476817
0.00653363 0.00886369 0.011905 0.0158309 0.0208419 0.0271659 0.0350566
0.044789 0.056654 0.0709491 0.0879671 0.107982 0.131231 0.1579 0.188098
0.221841 0.259035 0.299455 0.342737 0.388372 0.435704 0.483941 0.53217
0.579382 0.624507 0.666448 0.70413 0.736539 0.762775 0.782084 0.793904
0.797884 0.793904 0.782084 0.762775 0.73654 0.70413 0.666448 0.624507
0.579382 0.53217 0.483941 0.435704 0.388372 0.342737 0.299455 0.259035
0.221841 0.188098 0.1579 0.131232;
#X coords 0 1 99 -1 85 65 2 0 0;
#X restore 102 130 graph;
#N canvas 0 22 355 306 gauss-table 0;
#X obj 30 96 fd_iterate;
#X obj 30 135 t f f;
#X msg 30 43 100;
#X obj 30 157 / 10;
#X obj 30 227 fd_gauss 5 1, f 13;
#X obj 206 135 t b f;
#X obj 140 94 t b f;
#X obj 277 180 t b f;
#X obj 140 4 r g-mean;
#X obj 206 4 r g-stdev;
#X obj 277 4 r g-exp;
#X obj 206 113 / 50;
#X obj 140 68 * 5;
#X obj 140 46 / 50;
#X msg 277 132 100 \$1;
#X obj 277 157 /;
#X obj 30 249 clip -1 1;
#X obj 30 268 tabwrite gauss-prob, f 33;
#X connect 0 0 1 0;
#X connect 1 0 3 0;
#X connect 1 1 17 1;
#X connect 2 0 0 0;
#X connect 3 0 4 0;
#X connect 4 0 16 0;
#X connect 5 0 2 0;
#X connect 5 1 4 2;
#X connect 6 0 2 0;
#X connect 6 1 4 1;
#X connect 7 0 2 0;
#X connect 7 1 4 3;
#X connect 8 0 13 0;
#X connect 9 0 11 0;
#X connect 10 0 14 0;
#X connect 11 0 5 0;
#X connect 12 0 6 0;
#X connect 13 0 12 0;
#X connect 14 0 15 0;
#X connect 15 0 7 0;
#X connect 16 0 17 0;
#X restore 102 222 pd gauss-table;
#X obj 238 101 loadbang;
#X msg 238 123 3;
#X obj 214 101 fd_tglvis gauss-prob;
#X obj 103 116 hradio 12 1 0 7 gauss-preset gauss-preset-set empty
0 -8 0 10 -204786 -1 -1 5;
#N canvas 0 22 450 300 gauss-preset 0;
#X obj 78 42 sel 0 1 2 3 4 5 6;
#X obj 78 17 r gauss-preset;
#X msg 21 75 \; gauss-mean-set 20 \; gauss-stdev-set 84 \; gauss-exp-set
700 \;;
#X msg 23 139 \; gauss-mean-set 20 \; gauss-stdev-set 50 \; gauss-exp-set
200 \;;
#X msg 152 79 \; gauss-mean-set 50 \; gauss-stdev-set 84 \; gauss-exp-set
700 \;;
#X msg 153 140 \; gauss-mean-set 50 \; gauss-stdev-set 50 \; gauss-exp-set
200 \;;
#X msg 152 200 \; gauss-mean-set 50 \; gauss-stdev-set 20 \; gauss-exp-set
30 \;;
#X msg 274 79 \; gauss-mean-set 80 \; gauss-stdev-set 84 \; gauss-exp-set
700 \;;
#X msg 273 139 \; gauss-mean-set 80 \; gauss-stdev-set 50 \; gauss-exp-set
200 \;;
#X connect 0 0 4 0;
#X connect 0 1 2 0;
#X connect 0 2 7 0;
#X connect 0 3 5 0;
#X connect 0 4 3 0;
#X connect 0 5 8 0;
#X connect 0 6 6 0;
#X connect 1 0 0 0;
#X restore 102 203 pd gauss-preset;
#X obj 238 145 s gauss-preset-set;
#X connect 7 0 8 0;
#X connect 8 0 12 0;
#X coords 0 -1 1 1 129 100 2 100 100;
#X restore 6 227 pd gauss-prob;
#N canvas 0 22 477 388 transition 0;
#X obj 100 100 cnv 15 200 201 empty empty transition 2 6 0 10 -1 -4034
0;
#N canvas 479 24 194 220 tr-params 0;
#X obj 87 72 r tr-time;
#X obj 93 94 r tr-depth;
#X obj 83 49 r tr-target;
#X obj 24 21 r tr-start;
#X msg 24 133 \$1 \$2 \$3 \, bang;
#X obj 24 154 s tr-params;
#X obj 24 66 list 0;
#X obj 24 89 list 10;
#X obj 24 111 list 100;
#X connect 0 0 7 1;
#X connect 1 0 8 1;
#X connect 2 0 6 1;
#X connect 3 0 6 0;
#X connect 4 0 5 0;
#X connect 6 0 7 0;
#X connect 7 0 8 0;
#X connect 8 0 4 0;
#X restore 303 101 pd tr-params;
#N canvas 480 23 500 524 tr-table 0;
#X obj 184 267 random 100;
#X msg 241 335 set pow-prob;
#X msg 266 375 set gauss-prob;
#X obj 184 289 t f f;
#X obj 184 475 tabwrite transition;
#X msg 251 355 set sinc-prob;
#X obj 184 420 tabread4 pow-prob;
#X obj 183 184 t b b;
#X obj 183 157 del 233;
#X obj 353 201 f;
#X obj 382 200 + 1;
#X obj 368 154 t b f;
#X msg 368 176 0;
#X msg 136 140 stop;
#X obj 276 272 sel 0 1 2;
#X obj 157 217 t b b;
#X obj 50 79 sel 0;
#X obj 353 225 <;
#X obj 72 170 spigot;
#X msg 105 140 0;
#X msg 77 140 1;
#X obj 183 59 route bang;
#X text 226 126 time;
#X text 374 85 depth;
#X text 282 249 target;
#X text 93 418 interpolating;
#X text 19 171 recurse;
#X obj 183 23 r tr-params;
#X obj 50 58 r tr-flag;
#X obj 353 269 s tr-flag;
#X obj 368 107 / 100;
#X obj 368 129 * 1000;
#X obj 184 442 abs;
#X obj 183 81 t b b;
#X obj 196 238 r tr-single;
#X obj 276 85 unpack 0 10 100;
#X connect 0 0 3 0;
#X connect 1 0 6 0;
#X connect 2 0 6 0;
#X connect 3 0 6 0;
#X connect 3 1 4 1;
#X connect 5 0 6 0;
#X connect 6 0 32 0;
#X connect 7 0 15 0;
#X connect 7 1 9 0;
#X connect 8 0 7 0;
#X connect 9 0 10 0;
#X connect 9 0 17 0;
#X connect 10 0 9 1;
#X connect 11 0 12 0;
#X connect 11 1 17 1;
#X connect 12 0 9 1;
#X connect 13 0 8 0;
#X connect 14 0 1 0;
#X connect 14 1 5 0;
#X connect 14 2 2 0;
#X connect 15 0 18 0;
#X connect 15 1 0 0;
#X connect 16 0 19 0;
#X connect 16 0 13 0;
#X connect 16 1 20 0;
#X connect 17 0 29 0;
#X connect 18 0 8 0;
#X connect 19 0 18 1;
#X connect 20 0 18 1;
#X connect 21 0 33 0;
#X connect 21 1 35 0;
#X connect 27 0 21 0;
#X connect 28 0 16 0;
#X connect 30 0 31 0;
#X connect 31 0 11 0;
#X connect 32 0 4 0;
#X connect 33 0 8 0;
#X connect 33 1 12 0;
#X connect 34 0 0 0;
#X connect 35 0 14 0;
#X connect 35 1 8 1;
#X connect 35 2 30 0;
#X restore 303 122 pd tr-table;
#X obj 284 101 fd_tglvis transition;
#X obj 100 162 cnv 15 200 140 empty empty empty 20 12 0 14 -262144
-66577 0;
#N canvas 0 22 450 278 (subpatch) 0;
#X array transition 100 float 1;
#A 0 0.00810182 0.00759923 0.0162405 0.0242881 0.0321165 0.0395978
0.00800346 0.0130896 0.0587356 0.063636 0.0676305 0.00845311 0.0138334
0.0734181 0.0731005 0.0716091 0.0689394 0.0146667 0.0601379 0.054088
0.0470232 0.0390286 0.0302055 0.0206707 0.0105548 4.76414e-07 0.0108392
0.0166759 0.0327217 0.0434252 5.25121e-07 0.0634939 0.0725186 0.0181696
0.0113998 5.40318e-07 0.0982286 0.101387 0.103022 0.0123344 0.101446
0.0981509 0.0931675 0.0213572 0.0782343 5.79002e-07 0.0139323 0.0444531
0.0234108 0.0147527 4.28772e-07 0.0153539 0.0253613 0.0259013 0.0163562
0.0835958 0.0995702 0.114681 0.128659 0.141241 4.90189e-07 0.019291
0.168089 0.172632 0.174629 0.173908 0.022128 0.163749 0.154103 0.0242703
0.125394 0.106318 0.084143 0.0450873 0.0308515 2.85848e-07 0.0313481
0.0692004 0.10709 0.14682 0.188091 0.0395978 0.27396 0.0716091 0.361931
3.54344e-07 0.449046 0.491336 0.532281 0.571513 0.608676 0.643433 0.675462
0.173908 0.730183 0.752364 0.770805 0.785331 0.608676 0.608676;
#X coords 0 1 99 -1 200 140 2 0 0;
#X restore 100 162 graph;
#N canvas 479 23 339 306 tr-presets 0;
#X obj 32 15 r tr-preset;
#X obj 67 66 sel 0 1 2 3 4;
#X obj 32 41 t b f;
#X msg 32 255 bang;
#X msg 67 88 \; tr-target-set 1 \; tr-time-set 10 \; tr-depth-set 100
\;;
#X obj 32 277 s tr-start-set;
#X msg 77 158 \; tr-target-set 0 \; tr-time-set 20 \; tr-depth-set
100 \;;
#X msg 197 158 \; tr-target-set 1 \; tr-time-set 80 \; tr-depth-set
200 \;;
#X msg 190 84 \; tr-target-set 2 \; tr-time-set 100 \; tr-depth-set
100 \;;
#X msg 87 218 \; tr-target-set 2 \; tr-time-set 50 \; tr-depth-set
20 \;;
#X connect 0 0 2 0;
#X connect 1 0 4 0;
#X connect 1 1 6 0;
#X connect 1 2 9 0;
#X connect 1 3 7 0;
#X connect 1 4 8 0;
#X connect 2 0 3 0;
#X connect 2 1 1 0;
#X connect 3 0 5 0;
#X restore 303 142 pd tr-presets;
#X obj 162 128 nbx 4 14 1 999 0 0 tr-time tr-time-set tr-time 0 -8
0 10 -262144 -1 -4034 10 256;
#X obj 212 128 nbx 4 14 1 200 0 0 tr-depth tr-depth-set tr-depth 0
-8 0 10 -262144 -1 -4034 100 256;
#X obj 106 128 hradio 15 1 0 3 tr-target tr-target-set tr-target 0
-8 0 10 -262144 -1 -4034 1;
#X obj 176 146 tgl 15 0 empty tr-flag tr-flag 17 7 0 10 -204786 -258113
-4034 0 1;
#X obj 259 128 bng 15 250 50 0 tr-start tr-start-set start 15 7 0 8
-4034 -1 -4034;
#X obj 236 147 hradio 12 1 0 5 tr-preset tr-preset-set empty 0 -8 0
10 -204786 -1 -1 0;
#X obj 105 146 bng 15 250 50 0 tr-single tr-single-set tr-single 17
7 0 10 -4034 -1 -4034;
#X coords 0 -1 1 1 200 202 2 100 100;
#X restore 137 125 pd transition;
#N canvas 0 22 450 300 controls 0;
#X obj 11 10 cnv 15 198 100 empty empty controls 2 6 0 10 -1 -4034
0;
#X obj 15 29 tgl 15 0 visualization visualization-set visualization
17 7 0 10 -204786 -258113 -4034 1 1;
#X obj 15 48 tgl 15 0 score-begin score-begin-set score-begin 17 7
0 10 -204786 -258113 -4034 1 1;
#X obj 15 67 bng 15 250 50 0 score-text-view score-text-view-set text-view
17 7 0 10 -204786 -258113 -4034;
#X obj 124 41 nbx 3 14 -1e+37 1e+37 0 0 elapsed-min-o elapsed-min min
0 -8 0 10 -204786 -1 -4034 1 256;
#X obj 164 41 nbx 3 14 -1e+37 1e+37 0 0 elapsed-sec-o elapsed-sec sec
0 -8 0 10 -204786 -1 -4034 5 256;
#X obj 15 86 bng 15 250 50 0 write-textfile write-textfile-set write-textfile
17 7 0 10 -261234 -258113 -4034;
#X obj 125 71 nbx 5 14 -1e+37 1e+37 0 0 ticks-o ticks ticks 0 -8 0
10 -204786 -1 -4034 121 256;
#X obj 121 12 cnv 15 50 15 empty empty elapsed 2 6 0 10 -1 -4034 0
;
#X obj 196 11 fd_tglvis controls;
#X obj 125 91 bng 10 250 50 0 reset_part_ID reset_part_ID-set reset_part_ID
12 5 0 8 -262144 -1 -4034;
#X obj 63 15 tgl 10 0 testmode testmode-set testmode 12 5 0 8 -262144
-1 -260818 0 1;
#X coords 0 -1 1 1 200 100 1 10 10;
#X restore 137 23 pd controls;
#N canvas 0 22 450 300 title 0;
#X obj 11 20 cnv 15 330 16 empty empty E-I-V_boid-lorenz-Score_Generator
10 8 0 10 -1 -4034 0;
#X obj 238 23 tgl 10 0 guts-vis guts-vis-set guts 12 4 0 10 -204786
-258113 -4034 1 1;
#X obj 282 23 tgl 10 0 meta-vis meta-vis-set meta 12 4 0 10 -204786
-258113 -4034 0 1;
#N canvas 359 469 161 309 guts 1;
#N canvas 930 474 298 219 declares 0;
#X obj 13 157 declare -path ~/Documents/fd_lib;
#X obj 13 176 declare -path ~/Documents/dep_lib/boids;
#X obj 13 196 declare -stdlib Gem;
#X text 10 11 Needs:;
#X text 48 49 --> "boids" library;
#X text 49 67 --> "Gem" library (for visualization);
#X obj 13 137 declare -path ./lib;
#X text 49 87 --> "fd_lib" for lorenz \, siginfo \, fd_norm and some
other stuff, f 29;
#X text 47 33 --> "lib" for abstractions...;
#X restore 6 8 pd declares __________;
#N canvas 929 474 144 163 vis 0;
#X obj 25 20 r guts-vis;
#X msg 25 42 \; pd-guts vis \$1;
#X obj 25 82 r meta-vis;
#X msg 25 104 \; pd-meta vis \$1;
#X connect 0 0 1 0;
#X connect 2 0 3 0;
#X restore 6 28 pd vis _______________;
#N canvas 522 511 719 263 boid-params 0;
#X obj 543 23 loadbang;
#X msg 537 48 \; boid-params neighbors 4 \; boid-params minspeed 0.9
\; boid-params maxspeed 2 \; boid-params center 1 \; boid-params attract
1 \; boid-params match 0.2 \; boid-params avoid 2 \; boid-params repel
2 \; boid-params edgedist 3 \; boid-params speed 4 \; boid-params inertia
3 \; boid-params accel 2 \; boid-params prefdist 0.8 \; flush-fd_norm
flush \;;
#X msg 194 58 \; boid-params neighbors 4 \; boid-params minspeed 0.15
\; boid-params maxspeed 1 \; boid-params center 0.1 \; boid-params
attract 0.1 \; boid-params match 2 \; boid-params avoid 2 \; boid-params
repel 2 \; boid-params edgedist 1 \; boid-params speed 2 \; boid-params
inertia 1 \; boid-params accel 1 \; boid-params prefdist 1 \; flush-fd_norm
flush \;;
#X msg 13 12 \; boid-params neighbors 4 \; boid-params minspeed 0.1
\; boid-params maxspeed 3 \; boid-params center 1 \; boid-params attract
10 \; boid-params match 0.5 \; boid-params avoid 0.5 \; boid-params
repel 1 \; boid-params edgedist 0.4 \; boid-params speed 10 \; boid-params
inertia 0.3 \; boid-params accel 1 \; boid-params prefdist 0.2 \; flush-fd_norm
flush \;;
#N canvas 494 124 450 300 playit 0;
#X obj 60 43 sel 49;
#X obj 60 65 random 100;
#X obj 60 87 fd_markov3;
#X obj 188 18 r energy;
#X floatatom 188 40 5 0 0 0 - - -, f 5;
#X floatatom 277 41 5 0 0 0 - - -, f 5;
#X obj 277 19 r density;
#X obj 188 109 pack;
#X obj 60 153 sel 0 1 2;
#X obj 158 223 random 500;
#X obj 158 245 / 100;
#X obj 158 267 outlet;
#X obj 83 260 outlet;
#X obj 13 233 outlet;
#X obj 188 59 moses 2;
#X obj 261 116 / 100;
#X obj 268 69 moses 2;
#X obj 341 126 / 100;
#X obj 60 21 r key;
#X obj 282 189 r boid-params;
#X obj 282 211 spigot;
#X obj 213 164 sel 1;
#X msg 213 186 1;
#X obj 60 109 t f f f;
#X obj 282 246 s printer;
#X connect 0 0 1 0;
#X connect 1 0 2 0;
#X connect 2 0 23 0;
#X connect 3 0 4 0;
#X connect 4 0 14 0;
#X connect 5 0 16 0;
#X connect 6 0 5 0;
#X connect 7 0 2 2;
#X connect 8 0 13 0;
#X connect 8 1 9 0;
#X connect 8 2 12 0;
#X connect 9 0 10 0;
#X connect 10 0 11 0;
#X connect 14 0 7 0;
#X connect 14 1 15 0;
#X connect 15 0 7 0;
#X connect 16 0 7 1;
#X connect 16 1 17 0;
#X connect 17 0 7 1;
#X connect 18 0 0 0;
#X connect 19 0 20 0;
#X connect 20 0 24 0;
#X connect 21 0 22 0;
#X connect 21 1 20 1;
#X connect 22 0 20 1;
#X connect 23 0 2 1;
#X connect 23 1 8 0;
#X connect 23 2 21 0;
#X restore 327 21 pd playit;
#X msg 367 68 \; boid-params neighbors 4 \; boid-params minspeed 0.15
\; boid-params maxspeed \$1 \; boid-params center 0.1 \; boid-params
attract \$1 \; boid-params match 2 \; boid-params avoid 2 \; boid-params
repel 2 \; boid-params edgedist 1 \; boid-params speed \$1 \; boid-params
inertia \$1 \; boid-params accel 1 \; boid-params prefdist 1 \; flush-fd_norm
flush \;;
#X obj 449 15 random 2;
#X obj 449 37 sel 0 1;
#X connect 0 0 1 0;
#X connect 4 0 3 0;
#X connect 4 1 6 0;
#X connect 4 2 5 0;
#X connect 6 0 7 0;
#X connect 7 0 2 0;
#X connect 7 1 1 0;
#X restore 6 48 pd boid-params _______;
#N canvas 137 217 529 305 visualization 0;
#N canvas 282 73 253 694 texts 0;
#X obj 80 37 gemhead;
#X obj 82 108 gemhead;
#X obj 81 188 gemhead;
#X obj 72 264 gemhead;
#X obj 72 334 gemhead;
#X obj 57 405 gemhead;
#X obj 50 477 gemhead;
#X obj 16 8 inlet;
#X obj 81 210 color 0 1 1;
#X obj 82 131 color 1 1 0;
#X obj 80 58 color 1 0 1;
#X obj 57 427 color 1 0 0;
#X obj 72 286 color 0 1 0;
#X obj 50 499 color 1 1 1;
#X obj 72 356 color 0.5 0.5 1;
#X obj 27 547 gemhead;
#X obj 27 569 color 1 1 1;
#X obj 12 611 gemhead;
#X obj 12 633 color 1 1 1;
#X obj 12 655 _gemtxt 3 record-info;
#X obj 82 233 _gemtxt -1.8 energy-avg;
#X obj 83 80 _gemtxt -1 speed-avg;
#X obj 83 154 _gemtxt -1.4 viscosity-avg;
#X obj 74 311 _gemtxt -2.2 density-avg;
#X obj 70 378 _gemtxt -2.6 refdur-msec;
#X obj 58 448 _gemtxt -3 lorenz-raw;
#X obj 50 521 _gemtxt -3.4 score-event;
#X obj 27 591 _gemtxt -3.8 elapsed-min;
#X msg 96 638 list 1.4 -3.8;
#X obj 94 616 fd_spigot;
#X connect 0 0 10 0;
#X connect 1 0 9 0;
#X connect 2 0 8 0;
#X connect 3 0 12 0;
#X connect 4 0 14 0;
#X connect 5 0 11 0;
#X connect 6 0 13 0;
#X connect 7 0 0 0;
#X connect 7 0 1 0;
#X connect 7 0 2 0;
#X connect 7 0 3 0;
#X connect 7 0 4 0;
#X connect 7 0 5 0;
#X connect 7 0 6 0;
#X connect 7 0 15 0;
#X connect 7 0 17 0;
#X connect 8 0 20 0;
#X connect 9 0 22 0;
#X connect 10 0 21 0;
#X connect 11 0 25 0;
#X connect 12 0 23 0;
#X connect 13 0 26 0;
#X connect 14 0 24 0;
#X connect 15 0 16 0;
#X connect 16 0 27 0;
#X connect 17 0 18 0;
#X connect 17 0 29 0;
#X connect 18 0 19 0;
#X connect 28 0 19 1;
#X connect 29 0 28 0;
#X restore 96 198 pd texts;
#N canvas 1010 105 249 279 boid-line 0;
#X obj 112 30 r boids-raw;
#X obj 24 93 color 1 1 1;
#X obj 112 52 route 0 1 2 3 4;
#X obj 124 107 _boidXYZ;
#X obj 135 128 _boidXYZ;
#X obj 145 148 _boidXYZ;
#X obj 155 168 _boidXYZ;
#X obj 165 189 _boidXYZ;
#X obj 32 121 loadbang;
#X obj 24 71 spigot;
#X obj 56 51 inlet;
#X obj 23 32 r gemlist;
#X msg 32 140 draw line;
#X obj 24 233 polygon 5, f 22;
#X connect 0 0 2 0;
#X connect 1 0 13 0;
#X connect 2 0 3 0;
#X connect 2 1 4 0;
#X connect 2 2 5 0;
#X connect 2 3 6 0;
#X connect 2 4 7 0;
#X connect 3 0 13 1;
#X connect 4 0 13 2;
#X connect 5 0 13 3;
#X connect 6 0 13 4;
#X connect 7 0 13 5;
#X connect 8 0 12 0;
#X connect 9 0 1 0;
#X connect 10 0 9 1;
#X connect 11 0 9 0;
#X connect 12 0 13 0;
#X restore 215 140 pd boid-line;
#N canvas 276 57 271 215 boids 0;
#X obj 136 14 r boids-raw;
#X obj 15 81 list prepend all;
#X obj 15 103 list trim;
#X obj 63 13 inlet;
#X obj 16 56 color 0 1 0;
#X obj 9 2 r gemlist;
#X obj 16 34 spigot;
#X obj 17 142 clone _boid 5 0.04;
#X connect 0 0 7 1;
#X connect 1 0 2 0;
#X connect 2 0 7 0;
#X connect 3 0 6 1;
#X connect 4 0 1 0;
#X connect 5 0 6 0;
#X connect 6 0 4 0;
#X restore 157 140 pd boids;
#N canvas 242 99 210 159 lorenz 0;
#X obj 108 83 r lorenz-raw;
#X obj 29 84 color 1 0 0;
#X obj 80 25 inlet;
#X obj 22 52 spigot;
#X obj 11 9 r gemlist;
#X obj 36 112 _boid 0 0.1;
#X connect 0 0 5 1;
#X connect 1 0 5 0;
#X connect 2 0 3 1;
#X connect 3 0 1 0;
#X connect 4 0 3 0;
#X restore 94 140 pd lorenz;
#X obj 94 110 tgl 15 0 empty visualization empty 17 7 0 10 -262144
-1 -1 1 1;
#N canvas 0 22 450 300 gemwin 0;
#X obj 8 273 gemwin;
#X obj 8 43 sel 0 1;
#X obj 10 10 inlet;
#X obj 306 150 r tempo-change;
#X obj 306 175 bang;
#X obj 306 219 line;
#X obj 306 241 sin;
#X msg 77 234 color \$1 \$1 \$2;
#X obj 306 263 t f f;
#X obj 204 206 * 0.5;
#X obj 204 228 pack;
#X msg 306 197 1 \, 0 800;
#X obj 107 18 r ligthing;
#X msg 107 40 lighting \$1;
#X obj 72 55 r video-id;
#X obj 60 77 f 0;
#X msg 24 159 title sco-\$1 \, create \, 1 \, lighting 1;
#X obj 62 17 tgl 15 0 empty empty empty 17 7 0 10 -262144 -1 -1 1 1
;
#X msg 10 105 0 \, destroy \, reset \, frame 30 \, FSAA 4 \, view 0
0 16 \, perspec -1 1 -1 1 4 50 \, dimen 680 680 \, offset 525 22;
#X connect 1 0 18 0;
#X connect 1 1 15 0;
#X connect 2 0 1 0;
#X connect 3 0 4 0;
#X connect 4 0 11 0;
#X connect 5 0 6 0;
#X connect 6 0 8 0;
#X connect 7 0 0 0;
#X connect 8 0 9 0;
#X connect 8 1 10 1;
#X connect 9 0 10 0;
#X connect 10 0 7 0;
#X connect 11 0 5 0;
#X connect 12 0 13 0;
#X connect 13 0 0 0;
#X connect 14 0 15 1;
#X connect 15 0 16 0;
#X connect 16 0 0 0;
#X connect 17 0 1 0;
#X connect 18 0 0 0;
#X restore 93 82 pd gemwin;
#N canvas 288 196 709 222 graphs 0;
#X obj 22 58 gemhead;
#X obj 144 57 gemhead;
#X obj 262 57 gemhead;
#X obj 397 55 gemhead;
#X obj 22 184 _lineXYZ density-t;
#X obj 22 15 inlet;
#X obj 144 79 color 0 1 1;
#X obj 262 79 color 1 1 0;
#X obj 397 77 color 1 0 1;
#X obj 144 183 _lineXYZ energy-t;
#X obj 262 182 _lineXYZ viscosity-t;
#X obj 397 181 _lineXYZ speed-t;
#X obj 524 54 gemhead;
#X obj 524 139 translateXYZ 2 0 0;
#X obj 524 117 t a a a;
#X obj 524 161 rectangle 0.01 0.8;
#X obj 524 98 translateXYZ -4 3.2 -1;
#X obj 397 116 translateXYZ 0 2 -1;
#X obj 262 118 translateXYZ 0 2 -1;
#X obj 144 118 translateXYZ 0 2 -1;
#X obj 22 119 translateXYZ 0 2 -1;
#X obj 22 80 color 0 1 0;
#X connect 0 0 21 0;
#X connect 1 0 6 0;
#X connect 2 0 7 0;
#X connect 3 0 8 0;
#X connect 5 0 0 0;
#X connect 5 0 1 0;
#X connect 5 0 2 0;
#X connect 5 0 3 0;
#X connect 5 0 12 0;
#X connect 6 0 19 0;
#X connect 7 0 18 0;
#X connect 8 0 17 0;
#X connect 12 0 16 0;
#X connect 13 0 15 0;
#X connect 14 0 13 0;
#X connect 14 1 13 0;
#X connect 14 2 13 0;
#X connect 16 0 14 0;
#X connect 17 0 11 0;
#X connect 18 0 10 0;
#X connect 19 0 9 0;
#X connect 20 0 4 0;
#X connect 21 0 20 0;
#X restore 153 198 pd graphs;
#X obj 157 111 tgl 15 0 empty visualization empty 17 7 0 10 -262144
-1 -1 1 1;
#X obj 215 111 tgl 15 0 empty visualization empty 17 7 0 10 -262144
-1 -1 1 1;
#X obj 96 169 tgl 15 0 empty visualization empty 17 7 0 10 -262144
-1 -1 1 1;
#X obj 153 169 tgl 15 0 empty visualization empty 17 7 0 10 -262144
-1 -1 1 1;
#N canvas 0 22 227 133 light 0;
#X obj 68 46 gemhead;
#X obj 68 68 world_light;
#X obj 26 11 inlet;
#X obj 26 33 t f f;
#X obj 26 91 s lighting;
#X connect 0 0 1 0;
#X connect 2 0 3 0;
#X connect 3 0 4 0;
#X connect 3 1 0 0;
#X restore 156 81 pd light;
#X obj 156 52 tgl 15 0 empty visualization empty 17 7 0 10 -262144
-1 -1 1 1;
#X obj 93 53 tgl 15 0 empty visualization empty 17 7 0 10 -262144 -1
-1 1 1;
#N canvas 0 22 450 300 gemlist 0;
#X obj 20 61 gemhead 99;
#X obj 20 189 s gemlist;
#X obj 39 16 inlet;
#X obj 39 38 max 0.5;
#X floatatom 189 62 5 0 0 0 - - -, f 5;
#X obj 189 81 s t-size;
#X obj 20 83 scale 2.3;
#X connect 0 0 6 0;
#X connect 2 0 3 0;
#X connect 3 0 6 1;
#X connect 4 0 5 0;
#X connect 6 0 1 0;
#X restore 420 31 pd gemlist;
#N canvas 0 23 396 200 init 0;
#X floatatom 31 133 5 0 0 0 - - -, f 5;
#X obj 31 152 s v-size;
#X obj 119 88 r refdur-msec;
#X floatatom 119 110 5 0 0 0 - - -, f 5;
#X obj 119 151 s v-time;
#X obj 272 47 loadbang;
#X floatatom 212 129 5 0 0 0 - - -, f 5;
#X obj 212 150 s t-size;
#X obj 119 129 * 10;
#X msg 31 111 2;
#X msg 90 88 125;
#X obj 31 66 sel 1;
#X msg 272 128 0;
#X obj 272 150 s visualization;
#X obj 31 8 r visualization;
#X obj 31 29 pipe 10;
#X msg 212 106 2.4;
#X connect 0 0 1 0;
#X connect 2 0 3 0;
#X connect 3 0 8 0;
#X connect 5 0 9 0;
#X connect 5 0 16 0;
#X connect 5 0 10 0;
#X connect 5 0 12 0;
#X connect 6 0 7 0;
#X connect 8 0 4 0;
#X connect 9 0 0 0;
#X connect 10 0 3 0;
#X connect 11 0 9 0;
#X connect 11 0 10 0;
#X connect 11 0 16 0;
#X connect 12 0 13 0;
#X connect 14 0 15 0;
#X connect 15 0 11 0;
#X connect 16 0 6 0;
#X restore 219 197 pd init;
#X obj 97 226 tgl 15 0 empty visualization empty 17 7 0 10 -262144
-1 -1 1 1;
#N canvas 0 22 450 300 pointer 0;
#X obj 30 85 translateXYZ;
#X obj 30 138 t a b;
#X msg 51 191 draw line;
#X obj 51 169 fd_spigot;
#X obj 110 12 r mousexyz;
#X obj 98 35 unpack f f f;
#X obj 30 44 gemhead 1;
#X obj 110 56 * 4;
#X obj 120 76 * -4;
#X obj 30 213 circle 0.1;
#X obj 30 18 inlet;
#X obj 157 114 * 0.05;
#X connect 0 0 1 0;
#X connect 1 0 9 0;
#X connect 1 1 3 0;
#X connect 2 0 9 0;
#X connect 3 0 2 0;
#X connect 4 0 5 0;
#X connect 5 0 7 0;
#X connect 5 1 8 0;
#X connect 5 2 11 0;
#X connect 6 0 0 0;
#X connect 7 0 0 1;
#X connect 8 0 0 2;
#X connect 10 0 6 0;
#X connect 11 0 9 1;
#X restore 97 246 pd pointer;
#X floatatom 31 31 5 0 0 0 - - -, f 5;
#X obj 31 9 r key;
#X msg 337 70 toggle graphs - press "G";
#X msg 337 90 toggle light - press "L";
#X msg 337 110 toggle boid-line - press "H";
#X msg 337 130 toggle boids - press "B";
#X msg 337 150 toggle lorenz - press "A";
#X msg 337 170 toggle texts - press "T";
#X msg 337 190 toggle pointer - press "P";
#X obj 286 44 fd_spigot;
#X msg 337 210 toggle thisINFO - press "I";
#X obj 142 18 sel 5 37 4 11 0 17 35 49 34;
#X obj 318 20 t b b;
#X obj 265 213 t b a b;
#X msg 267 254 *************[KEY INPUT INFO**********;
#X obj 293 234 fd_spigot;
#X obj 231 276 s printer;
#X floatatom 454 10 5 0 0 0 scale - -, f 5;
#X connect 4 0 3 0;
#X connect 7 0 2 0;
#X connect 8 0 1 0;
#X connect 9 0 0 0;
#X connect 10 0 6 0;
#X connect 12 0 11 0;
#X connect 13 0 5 0;
#X connect 16 0 17 0;
#X connect 19 0 18 0;
#X connect 19 0 29 0;
#X connect 20 0 31 0;
#X connect 21 0 31 0;
#X connect 22 0 31 0;
#X connect 23 0 31 0;
#X connect 24 0 31 0;
#X connect 25 0 31 0;
#X connect 26 0 31 0;
#X connect 27 0 20 0;
#X connect 27 0 21 0;
#X connect 27 0 22 0;
#X connect 27 0 23 0;
#X connect 27 0 24 0;
#X connect 27 0 25 0;
#X connect 27 0 26 0;
#X connect 27 0 28 0;
#X connect 28 0 31 0;
#X connect 29 0 10 0;
#X connect 29 1 12 0;
#X connect 29 2 8 0;
#X connect 29 3 7 0;
#X connect 29 4 4 0;
#X connect 29 5 9 0;
#X connect 29 6 16 0;
#X connect 29 7 27 0;
#X connect 29 8 30 0;
#X connect 30 0 27 0;
#X connect 30 1 27 1;
#X connect 30 1 33 1;
#X connect 31 1 34 0;
#X connect 31 2 33 0;
#X connect 32 0 34 0;
#X connect 33 0 32 0;
#X connect 35 0 14 0;
#X restore 6 88 pd visualization _____;
#N canvas 32 51 488 413 tempo 0;
#X obj 338 64 sel 60 90 120;
#X msg 422 97 125;
#X msg 367 98 166.667;
#X obj 338 31 r tempo-change;
#X obj 47 86 * 100;
#X obj 32 159 moses 33;
#X obj 94 159 moses 66;
#X obj 24 241 f;
#X obj 58 243 + 1;
#X obj 32 181 t b b;
#X obj 92 181 t b b;
#X obj 142 181 t b b;
#X msg 42 219 0;
#X obj 84 241 f;
#X obj 118 243 + 1;
#X msg 102 219 0;
#X obj 144 241 f;
#X obj 178 243 + 1;
#X msg 162 219 0;
#X obj 24 306 bng 15 250 50 0 empty empty empty 17 7 0 10 -262144 -1
-1;
#X obj 84 306 bng 15 250 50 0 empty empty empty 17 7 0 10 -262144 -1
-1;
#X obj 144 306 bng 15 250 50 0 empty empty empty 17 7 0 10 -262144
-1 -1;
#X obj 24 264 > 0;
#X obj 84 264 > 0;
#X obj 144 264 > 0;
#X obj 24 286 sel 0;
#X obj 84 286 sel 0;
#X obj 144 286 sel 0;
#X msg 24 326 60;
#X msg 84 326 90;
#X msg 144 326 120;
#X obj 60 376 s tempo-change;
#X obj 32 12 r score-tick;
#X obj 32 107 f;
#X obj 32 34 t b b;
#X obj 150 75 f;
#X obj 178 75 + 1;
#X obj 150 98 > 10;
#X obj 150 51 spigot 1;
#X obj 209 52 sel 1;
#X msg 209 74 0;
#X obj 47 65 r speed-avg;
#X obj 339 368 s timer-info;
#X msg 339 273 tempo \$1 msec;
#X obj 339 239 r refdur-msec;
#X obj 338 149 s refdur-msec;
#X text 344 300 this sends the new tempo unit length to the [timer]
object, f 14;
#X text 136 35 avoid first ticks;
#X text 242 203 sends are needed for visualisation...;
#X obj 150 120 t f f;
#X obj 32 137 spigot;
#X obj 228 309 sel 0;
#X obj 60 356 change 0;
#X text 201 288 set init tempo;
#X msg 338 98 250;
#X obj 228 330 int 120;
#X connect 0 0 54 0;
#X connect 0 1 2 0;
#X connect 0 2 1 0;
#X connect 1 0 45 0;
#X connect 2 0 45 0;
#X connect 3 0 0 0;
#X connect 4 0 33 1;
#X connect 5 0 9 0;
#X connect 5 1 6 0;
#X connect 6 0 10 0;
#X connect 6 1 11 0;
#X connect 7 0 8 0;
#X connect 7 0 22 0;
#X connect 8 0 7 1;
#X connect 9 0 15 0;
#X connect 9 0 18 0;
#X connect 9 1 7 0;
#X connect 10 0 12 0;
#X connect 10 0 18 0;
#X connect 10 1 13 0;
#X connect 11 0 12 0;
#X connect 11 0 15 0;
#X connect 11 1 16 0;
#X connect 12 0 7 1;
#X connect 13 0 14 0;
#X connect 13 0 23 0;
#X connect 14 0 13 1;
#X connect 15 0 13 1;
#X connect 16 0 17 0;
#X connect 16 0 24 0;
#X connect 17 0 16 1;
#X connect 18 0 16 1;
#X connect 19 0 28 0;
#X connect 20 0 29 0;
#X connect 21 0 30 0;
#X connect 22 0 25 0;
#X connect 23 0 26 0;
#X connect 24 0 27 0;
#X connect 25 0 19 0;
#X connect 26 0 20 0;
#X connect 27 0 21 0;
#X connect 28 0 52 0;
#X connect 29 0 52 0;
#X connect 30 0 52 0;
#X connect 32 0 34 0;
#X connect 33 0 50 0;
#X connect 34 0 33 0;
#X connect 34 1 38 0;
#X connect 35 0 36 0;
#X connect 35 0 37 0;
#X connect 36 0 35 1;
#X connect 37 0 39 0;
#X connect 37 0 49 0;
#X connect 38 0 35 0;
#X connect 39 0 40 0;
#X connect 40 0 38 1;
#X connect 41 0 4 0;
#X connect 43 0 42 0;
#X connect 44 0 43 0;
#X connect 49 0 50 1;
#X connect 49 1 51 0;
#X connect 50 0 5 0;
#X connect 51 0 55 0;
#X connect 52 0 31 0;
#X connect 54 0 45 0;
#X connect 55 0 52 0;
#X restore 6 128 pd tempo _____________;
#N canvas 524 475 532 283 textfile 0;
#X obj 46 107 f;
#X obj 74 107 + 1;
#X msg 95 84 set \$1;
#X obj 46 151 makefilename sco-%d.txt;
#X obj 223 139 t a b;
#X obj 223 200 text set score;
#X msg 250 163 1e+09;
#X obj 223 44 r score-event;
#X obj 232 70 r tempo-change;
#X msg 232 95 list tempo change \$1;
#X obj 19 36 r write-textfile;
#X obj 19 63 t b b b;
#X obj 383 20 r elapsed-min;
#X obj 396 45 r elapsed-sec;
#X obj 425 70 r ticks;
#X obj 368 53 f;
#X obj 368 92 pack f f f;
#X msg 368 117 list score ended \, list elapsed time: \$1:\$2 \, list
total events/ticks: \$3, f 18;
#X obj 19 201 s make-parts;
#X obj 47 174 s text-name;
#X msg 345 205 file \$1 written to disk;
#X obj 346 183 r text-name;
#X obj 56 129 s part-id;
#N canvas 0 22 403 185 text-score 0;
#X msg 24 42 write scores/\$1;
#X obj 24 117 text define score;
#X obj 31 63 r score-text-view;
#X msg 31 87 click;
#X obj 24 20 r text-name;
#X obj 78 91 r clear-texts;
#X obj 223 15 r part-id;
#X msg 311 72 clear;
#X obj 223 37 t b f b;
#X obj 257 143 text define partid;
#X msg 190 118 write ./lib/part-id.txt;
#X msg 221 82 set \$1;
#X connect 0 0 1 0;
#X connect 2 0 3 0;
#X connect 3 0 1 0;
#X connect 4 0 0 0;
#X connect 5 0 1 0;
#X connect 6 0 8 0;
#X connect 7 0 9 0;
#X connect 8 0 10 0;
#X connect 8 1 11 0;
#X connect 8 2 7 0;
#X connect 10 0 9 0;
#X connect 11 0 9 0;
#X restore 18 240 pd text-score;
#X obj 17 259 _parts make-parts text-name part-id;
#X obj 150 7 r reset_part_ID;
#X msg 138 29 set 0 \, bang;
#X msg 122 203 current-part-ID \$1;
#X obj 134 233 s printer;
#X obj 345 227 s printer;
#X obj 120 113 s video-id;
#X msg 62 85 0;
#X obj 74 62 loadbang;
#X connect 0 0 1 0;
#X connect 0 0 3 0;
#X connect 0 0 22 0;
#X connect 1 0 0 1;
#X connect 1 0 2 0;
#X connect 2 0 31 0;
#X connect 3 0 19 0;
#X connect 4 0 5 0;
#X connect 4 1 6 0;
#X connect 6 0 5 1;
#X connect 7 0 4 0;
#X connect 8 0 9 0;
#X connect 9 0 4 0;
#X connect 10 0 11 0;
#X connect 11 0 18 0;
#X connect 11 1 0 0;
#X connect 11 2 15 0;
#X connect 12 0 15 1;
#X connect 13 0 16 1;
#X connect 14 0 16 2;
#X connect 15 0 16 0;
#X connect 16 0 17 0;
#X connect 17 0 4 0;
#X connect 20 0 29 0;
#X connect 21 0 20 0;
#X connect 25 0 26 0;
#X connect 26 0 31 0;
#X connect 27 0 28 0;
#X connect 31 0 0 1;
#X connect 31 0 27 0;
#X connect 31 0 30 0;
#X connect 32 0 31 0;
#X restore 6 148 pd textfile __________;
#N canvas 930 50 344 339 elapsed 0;
#X obj 86 43 r elapsed;
#X obj 86 91 * 125;
#X obj 34 146 / 1000;
#X obj 113 64 r refdur-msec;
#X obj 123 310 s elapsed-min;
#X obj 34 310 s elapsed-sec;
#X obj 34 288 mod 60;
#X obj 34 108 f;
#X obj 34 11 r score-tick;
#X obj 123 287 int;
#X obj 34 206 * 100;
#X obj 34 228 int;
#X obj 34 250 / 100;
#X obj 123 257 / 60;
#X obj 220 267 f;
#X obj 255 267 + 1;
#X obj 220 309 s ticks;
#X obj 34 177 t f f b, f 27;
#X connect 0 0 1 0;
#X connect 1 0 7 1;
#X connect 2 0 17 0;
#X connect 3 0 1 1;
#X connect 6 0 5 0;
#X connect 7 0 2 0;
#X connect 8 0 7 0;
#X connect 9 0 4 0;
#X connect 10 0 11 0;
#X connect 11 0 12 0;
#X connect 12 0 6 0;
#X connect 13 0 9 0;
#X connect 14 0 15 0;
#X connect 14 0 16 0;
#X connect 15 0 14 1;
#X connect 17 0 10 0;
#X connect 17 1 13 0;
#X connect 17 2 14 0;
#X restore 6 168 pd elapsed ___________;
#N canvas 457 55 506 590 score 0;
#X obj 314 431 - 1;
#X obj 314 453 pack f f f;
#X obj 314 409 poly 5 1;
#X obj 135 392 pack;
#X obj 63 319 makenote 127 120;
#X text 381 411 up to 5 simultaneous events, f 13;
#X obj 332 220 s timer-info;
#X obj 206 193 timer;
#X obj 206 242 s elapsed;
#X msg 63 108 0;
#X msg 314 332 stop \, clear;
#X obj 206 221 int;
#X obj 206 163 r timer-info;
#X msg 314 176 bang;
#X msg 245 193 0;
#X obj 36 52 sel 0 1;
#X obj 63 148 metro 1000;
#X obj 63 211 t b b;
#X obj 96 521 s score-tick;
#X obj 314 547 s score-event;
#X obj 36 84 t b b;
#X obj 36 547 s score-end;
#X text 339 199 reset timer;
#X obj 181 124 r refdur-msec;
#X obj 130 148 metro 125;
#X obj 327 288 s flush-fd_norm;
#X msg 327 267 flush;
#X obj 130 94 t b b, f 21;
#X text 332 248 reset fd_norm;
#N canvas 545 76 400 563 boids 0;
#X obj 44 77 boids3d 5 0;
#X obj 44 156 list split 1;
#X obj 78 248 list prepend parse 3;
#X obj 78 270 list trim;
#X obj 78 309 siginfo;
#X obj 53 50 r boid-params;
#X obj 131 401 fd_norm;
#X obj 161 401 fd_norm;
#X obj 192 401 fd_norm;
#X obj 107 102 s boid-info;
#X obj 97 339 list split 3;
#X obj 223 401 fd_norm;
#X obj 131 365 unpack f f f f;
#X text 183 327 xdist \, ydist \, zdist \, XYZdist, f 14;
#X text 121 77 5 boids;
#X obj 262 384 r flush-fd_norm;
#X obj 44 19 inlet;
#X obj 202 456 s viscosity;
#X obj 182 476 s energy;
#X obj 162 496 s speed;
#X obj 222 436 s density;
#X obj 44 99 t a a;
#X obj 71 128 s boids-raw;
#X obj 78 532 s boids-siginfo-raw;
#X text 136 157 line through all the boids;
#X obj 183 176 r mousexyz;
#X obj 183 198 unpack f f f;
#X obj 84 198 +;
#X obj 114 198 +;
#X obj 144 198 +;
#X obj 84 220 pack f f f;
#X obj 82 175 unpack f f f;
#X connect 0 0 21 0;
#X connect 0 1 9 0;
#X connect 1 1 31 0;
#X connect 2 0 3 0;
#X connect 3 0 4 0;
#X connect 4 0 23 0;
#X connect 4 1 10 0;
#X connect 5 0 0 0;
#X connect 6 0 19 0;
#X connect 7 0 18 0;
#X connect 8 0 17 0;
#X connect 10 1 12 0;
#X connect 11 0 20 0;
#X connect 12 0 6 0;
#X connect 12 1 7 0;
#X connect 12 2 8 0;
#X connect 12 3 11 0;
#X connect 15 0 6 0;
#X connect 15 0 7 0;
#X connect 15 0 8 0;
#X connect 15 0 11 0;
#X connect 16 0 0 0;
#X connect 21 0 1 0;
#X connect 21 1 22 0;
#X connect 25 0 26 0;
#X connect 26 0 27 1;
#X connect 26 1 28 1;
#X connect 26 2 29 1;
#X connect 27 0 30 0;
#X connect 28 0 30 1;
#X connect 29 0 30 2;
#X connect 30 0 2 0;
#X connect 31 0 27 0;
#X connect 31 1 28 0;
#X connect 31 2 29 0;
#X restore 115 487 pd boids;
#N canvas 0 22 243 259 init-transition 0;
#X obj 52 77 array random transition;
#X obj 52 99 tabread transition;
#X obj 52 121 * 5;
#X obj 52 143 int;
#X obj 52 36 inlet;
#X obj 52 186 outlet;
#X connect 0 0 1 0;
#X connect 1 0 2 0;
#X connect 2 0 3 0;
#X connect 3 0 5 0;
#X connect 4 0 0 0;
#X restore 63 249 pd init-transition;
#N canvas 0 22 382 466 lorenz 0;
#X obj 50 108 lorenz;
#X msg 159 69 100;
#X obj 159 91 until;
#X obj 134 26 loadbang;
#X obj 50 150 spigot;
#X msg 134 133 1;
#X obj 134 113 del 100;
#X obj 50 172 unpack f f f;
#X obj 50 219 fd_norm;
#X obj 84 219 fd_norm;
#X obj 119 219 fd_norm;
#X obj 71 248 pack f f f, f 12;
#X obj 50 69 inlet;
#X obj 98 406 outlet;
#X msg 98 384 attractpt \$1 \$2 \$3 \, bang;
#X obj 71 358 t l l;
#X obj 17 406 s lorenz-raw;
#X obj 185 202 r flush-fd_norm;
#X obj 134 48 t b b b, f 9;
#N canvas 586 111 450 300 init 0;
#X obj 23 16 inlet;
#X obj 23 60 random 10000;
#X obj 23 82 - 5000;
#X obj 23 104 / 1000;
#X floatatom 23 126 5 0 0 0 - - -, f 5;
#X obj 23 145 + 28;
#X msg 23 167 initb \$1;
#X obj 196 254 outlet;
#X obj 111 61 random 10000;
#X obj 111 83 - 5000;
#X obj 111 105 / 1000;
#X floatatom 111 127 5 0 0 0 - - -, f 5;
#X obj 111 146 + 10;
#X obj 196 61 random 10000;
#X obj 196 83 - 5000;
#X obj 196 105 / 1000;
#X floatatom 196 127 5 0 0 0 - - -, f 5;
#X msg 196 168 initx \$1;
#X obj 274 61 random 10000;
#X obj 274 83 - 5000;
#X obj 274 105 / 1000;
#X floatatom 274 127 5 0 0 0 - - -, f 5;
#X obj 353 61 random 10000;
#X obj 353 83 - 5000;
#X obj 353 105 / 1000;
#X floatatom 353 127 5 0 0 0 - - -, f 5;
#X msg 274 168 inity \$1;
#X msg 353 168 initz \$1;
#X obj 23 38 t b b b b b, f 56;
#X text 85 14 random initial conditions;
#X obj 196 146 + 0.1;
#X obj 274 146 + 0;
#X obj 353 146 + 0;
#X msg 111 168 inita \$1;
#X text 114 187 Prandlt;
#X text 21 187 Rayleigh;
#X text 201 229 XYZ;
#X connect 0 0 28 0;
#X connect 1 0 2 0;
#X connect 2 0 3 0;
#X connect 3 0 4 0;
#X connect 4 0 5 0;
#X connect 5 0 6 0;
#X connect 6 0 7 0;
#X connect 8 0 9 0;
#X connect 9 0 10 0;
#X connect 10 0 11 0;
#X connect 11 0 12 0;
#X connect 12 0 33 0;
#X connect 13 0 14 0;
#X connect 14 0 15 0;
#X connect 15 0 16 0;
#X connect 16 0 30 0;
#X connect 17 0 7 0;
#X connect 18 0 19 0;
#X connect 19 0 20 0;
#X connect 20 0 21 0;
#X connect 21 0 31 0;
#X connect 22 0 23 0;
#X connect 23 0 24 0;
#X connect 24 0 25 0;
#X connect 25 0 32 0;
#X connect 26 0 7 0;
#X connect 27 0 7 0;
#X connect 28 0 1 0;
#X connect 28 1 8 0;
#X connect 28 2 13 0;
#X connect 28 3 18 0;
#X connect 28 4 22 0;
#X connect 30 0 17 0;
#X connect 31 0 26 0;
#X connect 32 0 27 0;
#X connect 33 0 7 0;
#X restore 219 91 pd init;
#X obj 71 270 unpack f f f;
#X obj 165 244 r mousexyz;
#X obj 165 266 unpack f f f;
#X obj 99 325 pack f f f;
#X obj 99 303 *;
#X obj 129 303 *;
#X obj 159 303 *;
#X floatatom 136 194 5 0 0 0 - - -, f 5;
#X floatatom 176 224 5 0 0 0 - - -, f 5;
#X connect 0 0 4 0;
#X connect 1 0 2 0;
#X connect 2 0 0 0;
#X connect 3 0 18 0;
#X connect 4 0 7 0;
#X connect 5 0 4 1;
#X connect 6 0 5 0;
#X connect 7 0 8 0;
#X connect 7 1 9 0;
#X connect 7 2 10 0;
#X connect 7 2 27 0;
#X connect 8 1 11 0;
#X connect 9 1 11 1;
#X connect 10 1 11 2;
#X connect 10 1 28 0;
#X connect 11 0 20 0;
#X connect 12 0 0 0;
#X connect 14 0 13 0;
#X connect 15 0 16 0;
#X connect 15 1 14 0;
#X connect 17 0 8 0;
#X connect 17 0 9 0;
#X connect 17 0 10 0;
#X connect 18 0 6 0;
#X connect 18 1 1 0;
#X connect 18 2 19 0;
#X connect 19 0 0 0;
#X connect 20 0 24 0;
#X connect 20 1 25 0;
#X connect 20 2 26 0;
#X connect 21 0 22 0;
#X connect 22 0 24 1;
#X connect 22 1 25 1;
#X connect 22 2 26 1;
#X connect 23 0 15 0;
#X connect 24 0 23 0;
#X connect 25 0 23 1;
#X connect 26 0 23 2;
#X restore 115 440 pd lorenz;
#X text 173 439 attraction point;
#X text 169 487 boids behavior:;
#X text 189 453 x \, y \, z;
#X text 411 522 Electronic \; Instrumental \; Visual \;;
#X text 341 478 5 event field matrices;
#X text 323 312 reset poly;
#X text 206 262 elapsed time;
#X text 68 192 event;
#X text 191 501 speed \, energy \, visosity \, density, f 10;
#X obj 96 360 t b b f;
#X obj 36 25 r score-begin;
#N canvas 131 135 280 433 viscosity-avg 0;
#X obj 22 225 * 64;
#X obj 22 249 int;
#X obj 22 271 + 1;
#X obj 49 301 r refdur-msec;
#X obj 22 327 * 125;
#X obj 22 380 outlet;
#X obj 22 49 bang;
#X obj 22 19 inlet;
#X text 51 272 1-64 duration units;
#X text 64 325 in msec (for makenote);
#X obj 22 152 / 10;
#X obj 22 91 random 100;
#X obj 111 60 * 10;
#X obj 103 127 loadbang;
#X msg 103 152 0.1;
#X obj 22 182 fd_gauss 5 1.8;
#X text 141 60 determines the mean;
#X text 116 182 <-- graph this to view;
#X text 115 81 for the next duration;
#X text 121 34 (a.k.a. duration);
#X obj 111 13 r viscosity-avg;
#X connect 0 0 1 0;
#X connect 1 0 2 0;
#X connect 2 0 4 0;
#X connect 3 0 4 1;
#X connect 4 0 5 0;
#X connect 6 0 11 0;
#X connect 7 0 6 0;
#X connect 10 0 15 0;
#X connect 11 0 10 0;
#X connect 12 0 15 1;
#X connect 13 0 14 0;
#X connect 14 0 15 3;
#X connect 15 0 0 0;
#X connect 20 0 12 0;
#X restore 90 276 pd viscosity-avg;
#X text 293 567 magic happens here;
#X obj 314 497 clone _event-field 5 0 1 2;
#X connect 0 0 1 0;
#X connect 1 0 45 0;
#X connect 2 0 0 0;
#X connect 2 1 1 1;
#X connect 2 2 1 2;
#X connect 3 0 2 0;
#X connect 4 0 41 0;
#X connect 4 1 3 1;
#X connect 7 0 11 0;
#X connect 9 0 16 0;
#X connect 9 0 24 0;
#X connect 10 0 2 0;
#X connect 11 0 8 0;
#X connect 12 0 7 0;
#X connect 13 0 10 0;
#X connect 13 0 14 0;
#X connect 13 0 6 0;
#X connect 13 0 26 0;
#X connect 14 0 11 0;
#X connect 15 0 20 0;
#X connect 15 1 27 0;
#X connect 16 0 17 0;
#X connect 17 0 30 0;
#X connect 17 1 43 0;
#X connect 20 0 21 0;
#X connect 20 1 9 0;
#X connect 23 0 24 1;
#X connect 24 0 7 1;
#X connect 26 0 25 0;
#X connect 27 0 16 0;
#X connect 27 0 24 0;
#X connect 27 1 13 0;
#X connect 30 0 4 0;
#X connect 31 0 29 0;
#X connect 41 0 18 0;
#X connect 41 1 31 0;
#X connect 41 2 3 0;
#X connect 42 0 15 0;
#X connect 43 0 4 2;
#X connect 45 0 19 0;
#X restore 6 188 pd score _____________;
#N canvas 929 474 159 108 _tabs 0;
#X obj 7 11 _tab density;
#X obj 7 68 _tab speed;
#X obj 7 30 _tab energy;
#X obj 7 49 _tab viscosity;
#X restore 6 68 pd _tabs _____________;
#N canvas 929 473 205 111 _probs 0;
#N canvas 927 52 337 394 _prob 0;
#X obj 13 8 r score-tick;
#X obj 13 30 array get density-t;
#X obj 13 54 unpack f f f f f;
#X obj 13 101 > 0.5;
#X obj 53 101 > 0.5;
#X obj 93 101 > 0.5;
#X obj 133 101 > 0.5;
#X obj 173 101 > 0.5;
#X obj 13 143 change;
#X obj 13 165 sel 1;
#X obj 55 143 change;
#X obj 54 166 sel 1;
#X obj 97 143 change;
#X obj 97 165 sel 1;
#X obj 139 143 change;
#X obj 139 165 sel 1;
#X obj 181 143 change;
#X obj 181 165 sel 1;
#X obj 168 60 r density-avg;
#X msg 56 304 1;
#X msg 99 303 2;
#X obj 16 334 change;
#X obj 16 356 s tr-preset-set;
#X msg 15 304 0;
#X msg 141 303 3;
#X msg 183 304 4;
#X obj 13 198 f;
#X obj 38 198 + 1;
#X obj 62 199 mod 10;
#X obj 13 220 sel 1;
#X obj 113 198 f;
#X obj 138 198 + 1;
#X obj 162 199 mod 10;
#X obj 113 220 sel 1;
#X obj 63 248 f;
#X obj 88 248 + 1;
#X obj 112 249 mod 10;
#X obj 63 270 sel 1;
#X obj 163 248 f;
#X obj 188 248 + 1;
#X obj 212 249 mod 10;
#X obj 163 270 sel 1;
#X obj 223 198 f;
#X obj 248 198 + 1;
#X obj 272 199 mod 10;
#X obj 223 220 sel 1;
#X connect 0 0 1 0;
#X connect 1 0 2 0;
#X connect 2 0 3 0;
#X connect 2 1 4 0;
#X connect 2 2 5 0;
#X connect 2 3 6 0;
#X connect 2 4 7 0;
#X connect 3 0 8 0;
#X connect 4 0 10 0;
#X connect 5 0 12 0;
#X connect 6 0 14 0;
#X connect 7 0 16 0;
#X connect 8 0 9 0;
#X connect 9 0 26 0;
#X connect 10 0 11 0;
#X connect 11 0 34 0;
#X connect 12 0 13 0;
#X connect 13 0 30 0;
#X connect 14 0 15 0;
#X connect 15 0 38 0;
#X connect 16 0 17 0;
#X connect 17 0 42 0;
#X connect 18 0 3 1;
#X connect 18 0 4 1;
#X connect 18 0 5 1;
#X connect 18 0 6 1;
#X connect 18 0 7 1;
#X connect 19 0 21 0;
#X connect 20 0 21 0;
#X connect 21 0 22 0;
#X connect 23 0 21 0;
#X connect 24 0 21 0;
#X connect 25 0 21 0;
#X connect 26 0 27 0;
#X connect 26 0 29 0;
#X connect 27 0 28 0;
#X connect 28 0 26 1;
#X connect 29 0 23 0;
#X connect 30 0 31 0;
#X connect 30 0 33 0;
#X connect 31 0 32 0;
#X connect 32 0 30 1;
#X connect 33 0 20 0;
#X connect 34 0 35 0;
#X connect 34 0 37 0;
#X connect 35 0 36 0;
#X connect 36 0 34 1;
#X connect 37 0 19 0;
#X connect 38 0 39 0;
#X connect 38 0 41 0;
#X connect 39 0 40 0;
#X connect 40 0 38 1;
#X connect 41 0 24 0;
#X connect 42 0 43 0;
#X connect 42 0 45 0;
#X connect 43 0 44 0;
#X connect 44 0 42 1;
#X connect 45 0 25 0;
#X restore 11 79 pd _prob density ____________;
#X obj 11 13 _prob viscosity pow 2 3 4 5 6;
#X obj 11 57 _prob speed gauss 1 2 3 4 5 _;
#X obj 11 35 _prob energy sinc 6 2 0 4 5 _;
#X restore 6 108 pd _probs ____________;
#N canvas 520 474 406 303 meta 0;
#X text 14 45 boid-params:;
#X text 16 263 --> Controls the tempo of the events, f 57;
#X text 16 167 --> Controls the initial and the target values of the
overall intensity of the event, f 58;
#X text 16 215 --> Controls the mean of a fd_normal distrib for the
length of the durations of event;
#X text 16 61 --> Parameters for the boid algorithm;
#X text 7 69 ____________________________________________________________
;
#X text 6 93 ____________________________________________________________
;
#X text 6 32 ____________________________________________________________
;
#X text 6 8 ____________________________________________________________
;
#X text 10 85 THE MOVEMENT OF THE LINE ACROSS ALL BIRDS GIVES "D.E.V.S."
;
#X text 11 246 Speed: (x-distance);
#X text 13 150 Energy: (y-distance);
#X text 12 198 Viscosity: (z-distance);
#X text 15 122 --> Controls the history of the probability that affects
all events., f 59;
#X text 11 107 Density: (xyz-distance);
#X text 11 24 5 BOIDS FLOCK AROUND A LORENZ ATTRACTOR;
#X restore 6 208 pd meta ______________;
#N canvas 447 107 772 529 loadbang 0;
#X obj 57 20 loadbang;
#X obj 175 19 del 1000;
#X obj 175 41 t b b;
#X obj 102 81 del 500;
#X obj 367 57 > 2;
#X obj 366 79 sel 1;
#X obj 338 210 tgl 15 0 empty empty empty 17 7 0 10 -262144 -1 -1 0
1;
#X obj 166 295 del 10000;
#X obj 51 411 t b b;
#X obj 597 242 r make-parts;
#X obj 636 321 tgl 15 0 empty empty empty 17 7 0 10 -262144 -1 -1 0
1;
#X obj 596 355 metro 1000;
#X obj 626 377 - 1;
#X msg 511 403 quit;
#X obj 465 409 s pd;
#X obj 365 37 r elapsed-min;
#X obj 366 101 fd_spigot;
#X msg 154 173 click on the Gem window and hit the SPACEBAR;
#X obj 77 437 s write-textfile;
#X msg 75 471 writing all texts;
#X msg 159 261 bang;
#X msg 303 292 stop score by hitting the ESC key ONCE!;
#X msg 489 100 \; score-begin-set 0;
#X msg 360 208 0;
#X obj 479 142 tgl 15 0 empty empty empty 17 7 0 10 -262144 -1 -1 0
1;
#X obj 497 165 metro 1000;
#X obj 535 187 - 1;
#X obj 497 187 i 10;
#X msg 452 142 1;
#X msg 472 260 writing in \$1;
#X obj 511 381 delay 3000;
#X obj 596 377 i 3;
#N canvas 107 24 450 300 esc 0;
#X obj 65 20 gemkeyboard;
#X obj 65 167 outlet;
#X obj 89 71 keyname;
#X obj 128 96 sel Escape;
#X obj 65 41 sel 53;
#X obj 189 47 sel Escape;
#X obj 150 22 gemkeyname;
#X connect 0 0 4 0;
#X connect 2 1 3 0;
#X connect 3 0 1 0;
#X connect 4 0 1 0;
#X connect 5 0 1 0;
#X connect 6 1 5 0;
#X restore 542 19 pd esc;
#X obj 488 60 bang;
#X obj 338 230 metro 30000;
#X obj 443 223 sel 0;
#X msg 443 245 0;
#X msg 233 86 \; visualization-set 1 \; guts-vis-set 0 \; meta-vis-set
0 \;;
#X obj 102 104 t b b b, f 9;
#X obj 151 136 s loadbangID;
#X obj 511 425 spigot 1;
#X obj 599 429 spigot 1;
#X obj 683 362 bang;
#X msg 683 384 0;
#X msg 413 453 leaving in \$1 - press any Key to cancel;
#X obj 683 340 r key;
#X msg 606 301 1;
#X msg 629 134 10;
#X msg 695 265 3;
#X obj 609 279 t b b b;
#X msg 650 301 1;
#X obj 284 485 s printer;
#X obj 615 14 r testmode;
#X msg 626 43 testmode \$1;
#X obj 530 75 spigot 1;
#X obj 587 51 == 0;
#X obj 166 317 t b b;
#X obj 78 306 del 5000;
#X obj 295 409 r rec;
#X msg 295 431 recording status \$1;
#X msg 99 349 \; rec 0 \; printer waiting 5 seconds for recording to
write \;;
#X obj 497 209 change;
#X msg 47 221 \; score-begin-set 1 \; rec 1 \;;
#X connect 0 0 1 0;
#X connect 1 0 2 0;
#X connect 2 0 3 0;
#X connect 2 1 37 0;
#X connect 3 0 38 0;
#X connect 4 0 5 0;
#X connect 5 0 16 0;
#X connect 6 0 34 0;
#X connect 7 0 56 0;
#X connect 8 0 19 0;
#X connect 8 1 18 0;
#X connect 9 0 30 0;
#X connect 9 0 49 0;
#X connect 10 0 11 0;
#X connect 11 0 31 0;
#X connect 12 0 31 1;
#X connect 13 0 40 0;
#X connect 15 0 4 0;
#X connect 16 0 6 0;
#X connect 17 0 51 0;
#X connect 19 0 51 0;
#X connect 20 0 7 0;
#X connect 21 0 51 0;
#X connect 23 0 6 0;
#X connect 24 0 25 0;
#X connect 25 0 27 0;
#X connect 26 0 27 1;
#X connect 27 0 26 0;
#X connect 27 0 61 0;
#X connect 28 0 24 0;
#X connect 29 0 51 0;
#X connect 30 0 13 0;
#X connect 31 0 12 0;
#X connect 31 0 41 0;
#X connect 32 0 54 0;
#X connect 33 0 22 0;
#X connect 33 0 23 0;
#X connect 33 0 7 0;
#X connect 33 0 28 0;
#X connect 34 0 21 0;
#X connect 35 0 36 0;
#X connect 35 1 29 0;
#X connect 36 0 24 0;
#X connect 38 0 62 0;
#X connect 38 1 17 0;
#X connect 38 2 39 0;
#X connect 40 0 14 0;
#X connect 41 0 44 0;
#X connect 42 0 43 0;
#X connect 42 0 47 0;
#X connect 42 0 48 0;
#X connect 43 0 41 1;
#X connect 43 0 40 1;
#X connect 43 0 10 0;
#X connect 44 0 51 0;
#X connect 45 0 42 0;
#X connect 46 0 10 0;
#X connect 47 0 27 1;
#X connect 48 0 31 1;
#X connect 49 0 46 0;
#X connect 49 1 48 0;
#X connect 49 2 50 0;
#X connect 50 0 40 1;
#X connect 50 0 41 1;
#X connect 52 0 53 0;
#X connect 52 0 55 0;
#X connect 53 0 51 0;
#X connect 54 0 33 0;
#X connect 55 0 54 1;
#X connect 56 0 57 0;
#X connect 56 1 60 0;
#X connect 57 0 8 0;
#X connect 58 0 59 0;
#X connect 59 0 51 0;
#X connect 61 0 35 0;
#X restore 6 228 pd loadbang __________;
#N canvas 83 170 450 300 geminfo 0;
#X floatatom 22 117 5 0 0 0 - - -, f 5;
#X obj 75 60 * -1;
#X obj 30 20 gemmouse 2 -2;
#X obj 25 180 - 1;
#X obj 71 139 - 1;
#X obj 22 136 t f f;
#X obj 19 81 spigot;
#X obj 85 113 t f f;
#X obj 145 153 pow 2;
#X obj 101 170 pow 2;
#X obj 143 182 +;
#X obj 37 257 s mousexyz;
#X obj 33 216 pack f f f;
#X obj 257 15 gemkeyboard;
#X obj 257 37 s key;
#X obj 126 53 sel 1;
#X obj 126 75 tgl 15 0 empty empty empty 17 7 0 10 -262144 -1 -1 0
1;
#X obj 143 204 sqrt;
#X connect 0 0 5 0;
#X connect 1 0 7 0;
#X connect 2 0 6 0;
#X connect 2 1 1 0;
#X connect 2 2 15 0;
#X connect 3 0 12 0;
#X connect 4 0 12 1;
#X connect 5 0 3 0;
#X connect 5 1 9 0;
#X connect 6 0 0 0;
#X connect 7 0 4 0;
#X connect 7 1 8 0;
#X connect 8 0 10 1;
#X connect 9 0 10 0;
#X connect 10 0 17 0;
#X connect 12 0 11 0;
#X connect 13 0 14 0;
#X connect 15 0 16 0;
#X connect 16 0 6 1;
#X connect 17 0 12 2;
#X restore 6 248 pd geminfo ___________;
#N canvas 0 22 450 300 printer 0;
#X obj 32 17 r printer;
#X obj 32 39 print 1-score.pd;
#X connect 0 0 1 0;
#X restore 6 268 pd printer ___________;
#N canvas 467 41 575 662 record 0;
#X obj 58 245 t a b;
#X obj 373 226 bng 15 250 50 0 empty empty empty 17 7 0 10 -262144
-1 -1;
#X msg 368 366 file \$1;
#X obj 455 253 list append 0;
#X obj 74 293 spigot;
#X obj 156 252 t f f;
#X msg 228 418 record \$1 \, auto \$1;
#X obj 123 159 tgl 15 0 empty empty empty 17 7 0 10 -262144 -1 -1 1
1;
#X obj 122 196 sel 0 1;
#X msg 163 227 1;
#X obj 172 204 t b b;
#X msg 117 220 0;
#X obj 391 476 list prepend R3;
#X obj 349 402 list prepend R;
#X obj 406 589 list trim;
#X obj 363 253 ggee/getdir;
#X obj 363 275 list append;
#X msg 363 297 symbol \$1/record/1-score-\$2;
#X obj 363 319 makefilename %s.mov;
#X obj 238 474 pix_record;
#X obj 58 27 gemhead -1;
#X obj 58 364 pix_snap 0 0 680 680;
#X obj 59 449 pix_flip;
#X obj 58 75 t a b;
#X obj 198 89 fd_spigot;
#X obj 125 135 r rec;
#X obj 406 611 s record-info;
#X msg 357 150 symbol vertical;
#X obj 509 221 r video-id;
#X text 493 480 ?;
#X obj 244 545 t f f;
#X obj 244 567 mod 60;
#X obj 165 528 / 60;
#X obj 206 614 pack f f f;
#X obj 244 523 / 30;
#X obj 244 589 int;
#X obj 165 550 int;
#X obj 162 578 f;
#X obj 207 587 t b f;
#X obj 252 500 t f f;
#X obj 249 638 list prepend M:S:FR::;
#X connect 0 0 21 0;
#X connect 0 1 4 0;
#X connect 1 0 3 0;
#X connect 1 0 15 0;
#X connect 2 0 13 0;
#X connect 2 0 19 0;
#X connect 3 0 16 1;
#X connect 4 0 21 0;
#X connect 5 0 4 1;
#X connect 5 1 6 0;
#X connect 6 0 19 0;
#X connect 7 0 8 0;
#X connect 8 0 11 0;
#X connect 8 1 10 0;
#X connect 9 0 5 0;
#X connect 10 0 9 0;
#X connect 10 1 1 0;
#X connect 10 1 27 0;
#X connect 11 0 5 0;
#X connect 12 0 14 0;
#X connect 13 0 14 0;
#X connect 14 0 26 0;
#X connect 15 0 16 0;
#X connect 16 0 17 0;
#X connect 17 0 18 0;
#X connect 18 0 2 0;
#X connect 19 1 39 0;
#X connect 19 2 12 0;
#X connect 20 0 23 0;
#X connect 21 0 22 0;
#X connect 22 0 19 0;
#X connect 23 0 0 0;
#X connect 23 1 24 0;
#X connect 24 0 27 0;
#X connect 25 0 7 0;
#X connect 27 0 22 1;
#X connect 28 0 3 1;
#X connect 30 0 31 0;
#X connect 30 1 32 0;
#X connect 31 0 35 0;
#X connect 32 0 36 0;
#X connect 33 0 40 0;
#X connect 34 0 30 0;
#X connect 35 0 38 0;
#X connect 36 0 37 1;
#X connect 37 0 33 0;
#X connect 38 0 37 0;
#X connect 38 1 33 1;
#X connect 39 0 34 0;
#X connect 39 1 33 2;
#X connect 40 0 14 0;
#X restore 6 288 pd record ____________;
#X restore 294 39 pd guts;
#X obj 327 21 fd_tglvis title;
#X coords 0 -1 1 1 331 16 1 10 20;
#X restore 6 4 pd title;
