#N canvas 290 40 346 545 12;
#X obj 37 131 hip~ 3;
#N canvas 66 23 258 314 env 0;
#X obj 94 74 switch~;
#X obj 111 121 r monitor, f 7;
#X obj 111 239 f;
#X obj 25 21 inlet~;
#X obj 111 191 metro 150;
#X obj 25 264 s \$1-env;
#X obj 94 25 r \$1-env-switch, f 13;
#X obj 25 120 env~ 4096;
#X obj 111 162 t f f;
#X obj 148 216 sel 1;
#X obj 111 265 s \$1-rms-set;
#X connect 1 0 8 0;
#X connect 2 0 10 0;
#X connect 3 0 7 0;
#X connect 4 0 2 0;
#X connect 6 0 0 0;
#X connect 7 0 2 1;
#X connect 7 0 5 0;
#X connect 8 0 4 0;
#X connect 8 1 9 0;
#X connect 9 1 10 0;
#X restore 69 273 pd env ____________;
#N canvas 110 25 547 609 bark 0;
#X obj 26 20 inlet~;
#X obj 26 101 bark~;
#X obj 41 65 r \$1-bark;
#X obj 26 175 array random \$0-gauss, f 8;
#X obj 26 354 bang;
#X obj 26 329 moses 50;
#X obj 87 353 moses 75, f 9;
#X obj 119 271 t f f;
#X msg 172 271 1 \$1;
#X obj 172 296 -;
#X obj 119 309 *;
#X obj 156 325 *;
#X obj 180 99 fd_gauss~ \$0-gauss 128, f 12;
#X obj 180 13 r pd-dsp-started;
#X obj 87 378 bang;
#X obj 212 373 bang;
#X obj 26 126 t b b;
#X obj 119 146 f;
#X obj 151 146 + 1;
#X obj 119 171 mod 648;
#X obj 119 196 array get \$1-probs;
#X obj 199 171 sel 647;
#X obj 199 68 _probs \$1 648;
#X obj 180 38 t b b;
#X obj 119 221 t b f f;
#X obj 119 245 i 128;
#X obj 26 405 pack \$1;
#X obj 132 398 pack \$1;
#X obj 132 423 + 1;
#X obj 132 448 mod 4;
#X obj 132 473 + 1;
#X obj 26 493 t b f;
#X obj 26 569 s;
#X text 321 390 see fd_gauss-test.pd;
#X text 204 147 new probs;
#X obj 212 426 mod 4;
#X obj 212 451 + 1;
#X obj 212 401 + 2;
#X msg 63 569 symbol \$1-barked;
#X text 271 235 Once an onset has been reported with [bark~] \, this
patch sends a bang to another player's 'barked'. Which other player
is determined by a normal whose probabilities change with [_probs]
, f 26;
#X obj 364 59 switch~;
#X obj 364 14 r \$1-bark-switch, f 14;
#X obj 26 518 f;
#X text 274 535 http://williambrent.conflations.com/pages/research.html
, f 21;
#X text 254 494 [bark~] part of William Brent's Timbre ID library:
, f 26;
#X obj 26 430 fd_salvo 5;
#X obj 230 37 r redo-gauprob;
#X connect 0 0 1 0;
#X connect 1 0 16 0;
#X connect 1 1 42 1;
#X connect 2 0 1 0;
#X connect 3 0 5 0;
#X connect 4 0 26 0;
#X connect 5 0 4 0;
#X connect 5 1 6 0;
#X connect 6 0 14 0;
#X connect 6 1 15 0;
#X connect 7 0 10 0;
#X connect 7 1 11 0;
#X connect 8 0 9 0;
#X connect 9 0 11 1;
#X connect 10 0 5 1;
#X connect 11 0 6 1;
#X connect 13 0 23 0;
#X connect 14 0 27 0;
#X connect 15 0 37 0;
#X connect 16 0 3 0;
#X connect 16 1 17 0;
#X connect 17 0 18 0;
#X connect 17 0 19 0;
#X connect 18 0 17 1;
#X connect 19 0 20 0;
#X connect 19 0 21 0;
#X connect 20 0 24 0;
#X connect 21 0 22 0;
#X connect 23 0 12 0;
#X connect 23 1 22 0;
#X connect 24 0 25 0;
#X connect 24 1 10 1;
#X connect 24 2 8 0;
#X connect 25 0 7 0;
#X connect 26 0 45 0;
#X connect 27 0 28 0;
#X connect 28 0 29 0;
#X connect 29 0 30 0;
#X connect 30 0 31 0;
#X connect 31 0 42 0;
#X connect 31 1 38 0;
#X connect 35 0 36 0;
#X connect 36 0 31 0;
#X connect 37 0 35 0;
#X connect 38 0 32 1;
#X connect 41 0 40 0;
#X connect 42 0 32 0;
#X connect 45 0 31 0;
#X connect 46 0 23 0;
#X restore 61 295 pd bark ____________;
#X obj 37 28 r~ adc-\$1;
#X obj 111 381 r _barkedParams;
#X obj 186 438 r _barkedSwitch;
#X obj 37 497 _barked \$1 \$2 \$3 \$4;
#X obj 120 404 r _bParams-\$1;
#X obj 196 463 r _bSwitch-\$1;
#X text 35 9 turn this back to adc~;
#X obj 180 141 r enable-adc-dac, f 15;
#X obj 37 156 lop~ 10000;
#X obj 37 226 *~;
#X obj 180 206 fd_switch;
#X obj 249 232 switch~;
#X text 178 114 must be on...;
#N canvas 327 447 274 263 sigmund 0;
#X obj 103 56 switch~;
#X obj 20 15 inlet~;
#X obj 103 15 r \$1-sigmund-switch, f 17;
#X obj 20 220 outlet;
#X obj 20 106 sigmund~ -npts 2048 -hop 1024 -npeak \$2 peaks, f 11
;
#X msg 20 193 \$1 \$2 \$4 \$5;
#X text 124 194 no amp;
#X connect 1 0 4 0;
#X connect 2 0 0 0;
#X connect 4 0 5 0;
#X connect 5 0 3 0;
#X restore 37 317 pd sigmund ____________;
#X obj 149 250 s~ \$1-adc;
#X connect 0 0 11 0;
#X connect 3 0 0 0;
#X connect 4 0 6 1;
#X connect 5 0 6 2;
#X connect 7 0 6 1;
#X connect 8 0 6 2;
#X connect 10 0 13 0;
#X connect 11 0 12 0;
#X connect 12 0 1 0;
#X connect 12 0 2 0;
#X connect 12 0 16 0;
#X connect 12 0 17 0;
#X connect 13 0 12 1;
#X connect 13 1 14 0;
#X connect 16 0 6 0;
