#N canvas 599 109 588 432 12;
#X obj 26 61 inlet~;
#X obj 26 295 *~;
#X obj 404 362 switch~;
#X obj 26 350 *~;
#X obj 132 353 *~;
#X obj 380 294 fd_switch;
#X obj 274 189 inlet switch;
#X text 386 247 soft switch;
#X text 258 377 see here -->;
#X text 22 16 [_spat] has 2 cloned lorenz instances in [_lspace] to
make a chaotic-like spatialization (sqrt panning);
#X obj 26 378 throw~ 1-\$1;
#X obj 132 377 throw~ 2-\$1;
#X obj 58 295 *~;
#X obj 38 181 cos~;
#X obj 38 206 *~ 0.5;
#X obj 38 231 +~ 0.5;
#X obj 241 127 +~ 2.6667;
#X obj 237 101 +~ 32;
#X obj 186 96 +~ 10;
#X obj 102 241 +~ 0.5;
#X obj 102 216 *~ -0.5;
#X obj 106 191 cos~;
#X obj 186 192 cos~;
#X obj 26 126 *~;
#X obj 168 63 +~ 1.8e-06;
#X obj 333 54 osc~ 0.01;
#X obj 333 79 *~ 0.5;
#X obj 333 104 +~ 0.5;
#X obj 333 129 *~ 1e-06;
#X obj 421 78 delread4~ \$0-dl;
#X obj 421 103 cos~;
#X obj 38 256 *~;
#X obj 102 266 *~;
#X obj 182 267 *~;
#X obj 182 292 *~;
#X obj 421 140 *~ 0.2;
#X obj 497 109 * 0.5;
#X obj 497 134 + 0.5;
#X obj 227 159 delwrite~ \$0-dl 100;
#X obj 497 159 * 100;
#X msg 497 184 \$1 100;
#X obj 497 209 line~;
#X obj 182 217 *~ 0.3;
#X obj 182 242 +~ 0.3;
#X obj 497 234 +~ 0.1;
#X obj 489 275 metro 120;
#X obj 489 300 crand 8 12;
#X obj 489 325 * 120;
#X obj 26 86 *~ 1;
#N canvas 0 22 450 300 lorenzoo 0;
#X obj 20 20 inlet~;
#X obj 30 40 inlet~;
#X obj 40 60 inlet~;
#X obj 50 80 inlet~;
#X obj 20 110 lor8~;
#X obj 20 140 outlet~;
#X obj 30 160 outlet~;
#X obj 40 180 outlet~;
#X obj 50 200 outlet~;
#X connect 0 0 4 0;
#X connect 1 0 4 1;
#X connect 2 0 4 2;
#X connect 3 0 4 3;
#X connect 4 0 5 0;
#X connect 4 1 6 0;
#X connect 4 2 7 0;
#X connect 4 3 8 0;
#X restore 90 137 pd lorenzoo;
#X obj 256 213 route spat amp;
#X obj 256 238 t f f;
#X msg 257 266 1 \$1;
#X obj 257 291 -;
#X obj 387 191 r gspat;
#X connect 0 0 48 0;
#X connect 1 0 3 0;
#X connect 3 0 10 0;
#X connect 4 0 11 0;
#X connect 5 0 3 1;
#X connect 5 0 4 1;
#X connect 5 1 2 0;
#X connect 5 1 45 0;
#X connect 6 0 50 0;
#X connect 12 0 4 0;
#X connect 13 0 14 0;
#X connect 14 0 15 0;
#X connect 15 0 31 0;
#X connect 15 0 31 1;
#X connect 16 0 49 3;
#X connect 17 0 49 2;
#X connect 18 0 49 1;
#X connect 19 0 32 0;
#X connect 19 0 32 1;
#X connect 20 0 19 0;
#X connect 21 0 20 0;
#X connect 22 0 42 0;
#X connect 23 0 1 0;
#X connect 23 0 12 0;
#X connect 24 0 49 0;
#X connect 25 0 26 0;
#X connect 26 0 27 0;
#X connect 27 0 28 0;
#X connect 28 0 24 0;
#X connect 29 0 30 0;
#X connect 30 0 35 0;
#X connect 31 0 1 1;
#X connect 32 0 12 1;
#X connect 33 0 34 0;
#X connect 33 0 34 1;
#X connect 34 0 23 1;
#X connect 35 0 25 0;
#X connect 36 0 37 0;
#X connect 36 0 35 1;
#X connect 37 0 39 0;
#X connect 39 0 40 0;
#X connect 40 0 41 0;
#X connect 41 0 44 0;
#X connect 42 0 43 0;
#X connect 43 0 33 0;
#X connect 43 0 33 1;
#X connect 44 0 29 0;
#X connect 45 0 46 0;
#X connect 46 0 18 1;
#X connect 46 0 47 0;
#X connect 47 0 45 1;
#X connect 48 0 23 0;
#X connect 49 0 13 0;
#X connect 49 1 21 0;
#X connect 49 2 22 0;
#X connect 49 3 38 0;
#X connect 50 0 51 0;
#X connect 50 1 48 1;
#X connect 50 1 36 0;
#X connect 50 2 5 0;
#X connect 51 0 14 1;
#X connect 51 0 15 1;
#X connect 51 1 52 0;
#X connect 52 0 53 0;
#X connect 53 0 20 1;
#X connect 53 0 19 1;
#X connect 54 0 50 0;
