#N canvas 551 68 592 448 10;
#X declare -path ../_lib;
#X declare -path ../samples;
#N canvas 123 35 309 255 mixer 1;
#X obj 14 50 catch~ 1-dacout;
#X obj 35 73 catch~ 2-dacout;
#X obj 14 102 dac~;
#X connect 0 0 2 0;
#X connect 1 0 2 1;
#X restore 481 23 pd mixer;
#N canvas 430 25 803 571 controls 0;
#N canvas 0 22 450 278 (subpatch) 0;
#X array 1-wavit 515 float 3;
#A 0 0.991596 1 0.991596 0.966576 0.925504 0.869309 0.799256 0.716918
0.624133 0.522959 0.415627 0.304477 0.19191 0.0803225 -0.0279481 -0.130679
-0.225816 -0.311517 -0.386196 -0.448556 -0.497612 -0.532712 -0.553543
-0.56013 -0.55283 -0.532309 -0.499523 -0.455682 -0.402213 -0.340719
-0.272932 -0.200667 -0.125771 -0.0500772 0.0246398 0.0967093 0.164601
0.226957 0.282623 0.330666 0.370386 0.401331 0.423287 0.436279 0.440554
0.436567 0.42495 0.406494 0.382113 0.352812 0.319656 0.283737 0.246141
0.207918 0.170055 0.133453 0.0989082 0.0670942 0.038554 0.0136937 -0.00721872
-0.0240495 -0.0367919 -0.0455544 -0.0505472 -0.0520648 -0.0504685 -0.0461666
-0.0395955 -0.0312006 -0.0214189 -0.0106631 0.000692462 0.0123219 0.0239567
0.0353901 0.046479 0.0571434 0.0673617 0.0771647 0.0866268 0.0958559
0.104982 0.114146 0.123485 0.133125 0.143167 0.153677 0.164684 0.176169
0.188064 0.200252 0.21257 0.22481 0.236728 0.248051 0.258488 0.267739
0.275509 0.281517 0.28551 0.287272 0.286636 0.283488 0.277777 0.269517
0.25879 0.245742 0.230584 0.213584 0.195061 0.175371 0.154905 0.134068
0.113271 0.0929184 0.0733928 0.0550463 0.0381884 0.0230774 0.00991344
-0.00116615 -0.0100895 -0.0168501 -0.0215044 -0.0241669 -0.0250038
-0.0242237 -0.0220675 -0.0187974 -0.0146846 -0.00999713 -0.00498835
0.000114461 0.00511975 0.00987986 0.0142972 0.0183283 0.0219849 0.0253335
0.0284913 0.0316205 0.0349201 0.0386159 0.0429485 0.0481615 0.0544872
0.0621341 0.0712737 0.0820285 0.094462 0.10857 0.124276 0.141425 0.159785
0.179053 0.198853 0.218752 0.238268 0.256884 0.274065 0.289275 0.301995
0.311741 0.318085 0.320667 0.319218 0.313566 0.303652 0.289533 0.271391
0.249527 0.224362 0.196424 0.166342 0.134824 0.102645 0.0706208 0.0395867
0.0103734 -0.0162183 -0.0394428 -0.0586326 -0.073221 -0.0827608 -0.0869406
-0.0855973 -0.0787235 -0.0664715 -0.049151 -0.0272237 -0.00129111 0.0279201
0.0595783 0.0927703 0.126527 0.159851 0.191748 0.221254 0.247466 0.26957
0.286866 0.298786 0.304921 0.305027 0.299034 0.287057 0.269384 0.246474
0.218946 0.187556 0.15318 0.116784 0.0794002 0.0420921 0.00592531 -0.0280656
-0.0589078 -0.0857193 -0.107736 -0.124333 -0.135047 -0.139586 -0.13784
-0.129882 -0.115968 -0.0965258 -0.0721442 -0.0435511 -0.0115922 0.0227958
0.0586143 0.0948346 0.13043 0.164405 0.195832 0.223873 0.247809 0.26706
0.281203 0.289983 0.293322 0.291313 0.284225 0.272484 0.256662 0.237458
0.215668 0.192165 0.167863 0.143692 0.120561 0.0993329 0.0807916 0.0656181
0.054367 0.047448 0.0451128 0.047446 0.054363 0.0656124 0.0807843 0.0993243
0.120551 0.143682 0.167853 0.192155 0.215658 0.237449 0.256655 0.272478
0.284221 0.291311 0.293322 0.289986 0.281208 0.267067 0.247818 0.223884
0.195845 0.164419 0.130445 0.0948502 0.0586299 0.022811 -0.0115777
-0.0435379 -0.0721327 -0.0965163 -0.11596 -0.129877 -0.137838 -0.139587
-0.135051 -0.124339 -0.107744 -0.0857299 -0.0589203 -0.0280797 0.00591007
0.0420762 0.079384 0.116768 0.153164 0.187542 0.218933 0.246463 0.269375
0.28705 0.29903 0.305025 0.304923 0.29879 0.286872 0.269579 0.247477
0.221266 0.191761 0.159865 0.126541 0.0927848 0.0595924 0.0279333 -0.00127913
-0.0272133 -0.0491425 -0.0664651 -0.0787194 -0.0855955 -0.0869412 -0.0827638
-0.0732262 -0.05864 -0.039452 -0.0162291 0.0103613 0.0395736 0.0706071
0.102631 0.13481 0.166328 0.196411 0.22435 0.249517 0.271382 0.289526
0.303646 0.313563 0.319216 0.320668 0.318087 0.311745 0.302 0.289281
0.274072 0.256892 0.238276 0.218761 0.198862 0.179061 0.159794 0.141432
0.124283 0.108577 0.0944677 0.0820335 0.071278 0.0621378 0.0544902
0.048164 0.0429506 0.0386176 0.0349216 0.0316219 0.0284926 0.0253349
0.0219864 0.0183299 0.0142991 0.00988185 0.00512187 0.000116659 -0.00498615
-0.00999501 -0.0146826 -0.0187958 -0.0220663 -0.024223 -0.0250038 -0.0241677
-0.0215059 -0.0168526 -0.0100929 -0.00117048 0.00990819 0.0230712 0.0381815
0.0550386 0.0733846 0.0929097 0.113262 0.134059 0.154896 0.175363 0.195052
0.213577 0.230577 0.245736 0.258785 0.269513 0.277774 0.283486 0.286635
0.287272 0.285511 0.281519 0.275512 0.267743 0.258492 0.248056 0.236733
0.224815 0.212575 0.200257 0.188069 0.176174 0.164689 0.153682 0.143171
0.133129 0.123489 0.11415 0.104986 0.0958599 0.0866308 0.0771689 0.0673661
0.057148 0.0464838 0.0353949 0.0239617 0.012327 0.000697453 -0.0106582
-0.0214145 -0.0311966 -0.0395922 -0.0461642 -0.0504672 -0.0520648 -0.0505486
-0.0455574 -0.0367965 -0.0240559 -0.00722689 0.0136838 0.0385424 0.0670811
0.0988938 0.133438 0.170039 0.207901 0.246125 0.283721 0.319641 0.352798
0.382101 0.406485 0.424944 0.436563 0.440554 0.436282 0.423294 0.401342
0.370402 0.330685 0.282646 0.226983 0.164629 0.0967396 0.0246717 -0.0500446
-0.125738 -0.200635 -0.272902 -0.34069 -0.402188 -0.45566 -0.499506
-0.532297 -0.552824 -0.56013 -0.553549 -0.532724 -0.497631 -0.44858
-0.386226 -0.311552 -0.225855 -0.130722 -0.0279939 0.0802747 0.191861
0.304429 0.415579 0.522914 0.624091 0.71688 0.799223 0.869281 0.925483
0.966561 0.991589 1 0.991603;
#X coords 0 1 515 -1 100 100 1 0 0;
#X restore 74 325 graph;
#X obj 594 175 hradio 15 1 0 5 g-flute-window g-flute-window-set g-flute-window
0 -8 0 10 -262144 -1 -1 1;
#X symbolatom 676 176 6 0 0 1 g-flute-window g-flute-window-0 -, f
6;
#X floatatom 593 224 5 0 0 1 g-flute-rand-length g-flute-rand-length-set
g-flute-rand-length, f 5;
#X floatatom 593 201 5 0 0 1 g-flute-metro g-flute-metro-set g-flute-metro
, f 5;
#X text 563 115 FLUTE GRAIN _______________________;
#X obj 566 135 tgl 15 0 g-flute-onoff g-flute-onoff-set g-flute-onoff
17 7 0 10 -262144 -1 -1 0 1;
#X obj 567 174 vsl 15 80 0.01 6 1 0 g-flute-gain g-flute-gain-set gain
-10 -9 0 10 -262144 -1 -1 0 1;
#X floatatom 593 249 2 0 0 1 g-flute-sample g-flute-sample -, f 2
;
#X msg 593 267 \; to-gem-pd send flute-sample \$1;
#X obj 606 408 hsl 128 15 1 40 0 0 lorsigit lorsigit-set lorsigit -2
-8 0 10 -262144 -1 -1 0 1;
#X obj 668 142 hradio 15 1 0 3 g-f-state g-f-state-set g-f-state 0
-8 0 10 -262144 -1 -1 1;
#X obj 721 142 tgl 15 0 g-f-markov g-f-markov-set g-f-markov 17 7 0
10 -262144 -1 -1 0 1;
#X floatatom 742 409 3 0 0 0 - lorsigit -, f 3;
#X msg 609 450 \; lorsigit-set \$1;
#X msg 609 428 0;
#X obj 610 485 bng 15 250 50 0 lorsigit-diverge lorsigit-diverge-set
lorsigit-diverge 17 7 0 10 -262144 -1 -1;
#X obj 610 505 bng 15 250 50 0 lorsigit-reset lorsigit-reset-set lorsigit-reset
17 7 0 10 -262144 -1 -1;
#X obj 610 525 bng 15 250 50 0 lorsigit-reset-flush lorsigit-rese-flush-set
lorsigit-reset-flush 17 7 0 10 -262144 -1 -1;
#X msg 643 428 1;
#X obj 584 410 vsl 15 100 0.01 6 1 0 lorsigit-gain lorsigit-gain-set
gain -10 -9 0 10 -262144 -1 -1 0 1;
#X obj 19 6 cnv 15 400 30 empty instructions section-7 15 15 0 14 -33289
-262144 0;
#X obj 570 367 bng 20 50 10 0 percussion-bang percussion-bang-set lorsig_with_percussion_bang
25 10 0 10 -262144 -99865 -1;
#X floatatom 567 263 3 0 0 0 gain g-flute-gain -, f 3;
#X floatatom 584 517 3 0 0 0 gain lorsigit-gain -, f 3;
#X text 566 348 LORSIG _____(careful)____________;
#X text 670 429 (on/off);
#X obj 742 448 tgl 15 0 empty empty empty 17 7 0 10 -262144 -1 -1 0
1;
#X obj 742 428 != 0;
#X obj 76 191 tgl 15 0 2-peak-harmbang-onoff 2-peak-harmbang-onoff-set
2-peak-harmbang-onoff 17 7 0 10 -262144 -1 -1 0 1;
#X floatatom 76 211 5 0 1000 1 peak-harmbang-lower-thres peak-harmbang-lower-thres-set
peak-harmbang-lower-thres, f 5;
#X obj 76 249 bng 15 250 50 0 empty 2-peak-harmbang 2-peak-harmbang-display
17 7 0 10 -262144 -1 -1;
#X obj 299 136 tgl 15 0 z-violin-onoff z-violin-onoff-set z-violin-onoff
17 7 0 10 -262144 -1 -1 0 1;
#X obj 326 205 hradio 15 1 0 5 z-violin-window z-violin-window-set
z-violin-window 0 -8 0 10 -262144 -1 -1 1;
#X symbolatom 408 206 6 0 0 1 g-window g-window-0 -, f 6;
#X floatatom 326 226 5 0 0 1 length-q length-q-set length-q, f 5;
#X floatatom 327 248 2 0 0 1 z-violin-sample z-violin-sample -, f
2;
#X msg 327 266 \; to-gem-pd send violin-sample \$1;
#X obj 301 203 vsl 15 80 0 6 0 1 z-violin-gain z-violin-gain-set gain
-10 -9 0 10 -262144 -1 -1 0 1;
#X text 301 116 Z-VIOLIN __________________________;
#X floatatom 301 289 3 0 0 0 gain z-violin-gain -, f 3;
#X obj 301 168 hradio 15 1 0 3 z-violin-wavit-sel z-violin-wavit-sel-set
z-violin-wavit 0 -8 0 10 -262144 -1 -1 1;
#X symbolatom 349 168 10 0 0 1 z-violin-wavit z-violin-wavit -, f
10;
#X obj 454 245 bng 15 50 10 0 vln-rst empty vln-rst 17 7 0 10 -262144
-1 -1;
#X text 344 378 FOLLOW ONE ___________________;
#X obj 359 406 tgl 15 0 follow-one-onoff follow-one-onoff-set follow-one-onoff
17 7 0 10 -262144 -1 -1 0 1;
#X obj 443 7 bng 20 50 10 0 panic empty panic 25 7 0 10 -258113 -1
-1;
#X obj 76 142 tgl 15 0 harm-switch harm-switch-set harm-switch 17 7
0 10 -262144 -1 -1 0 1;
#X obj 76 229 tgl 15 0 2-peak-gate 2-peak-gate-set 2-peak-gate 17 7
0 10 -262144 -1 -1 0 1;
#X obj 76 173 hradio 15 1 0 5 s-grain-window s-grain-window-set s-grain-window
0 -8 0 10 -262144 -1 -1 1;
#X symbolatom 158 174 6 0 0 1 s-grain s-grain-window-0 -, f 6;
#X text 60 120 S-GRAIN (HARM) ___________________;
#X obj 51 157 vsl 15 80 0.01 6 1 0 s-grain-gain s-grain-gain-set gain
-10 -9 0 10 -262144 -1 -1 0 1;
#X floatatom 51 243 3 0 0 0 gain s-grain-gain -, f 3;
#X floatatom 75 271 5 0 0 1 s-grain-length-q s-grain-length-q-set s-grain-length-q
, f 5;
#X text 582 299 flute sample is actually "grain";
#X obj 33 67 bng 15 250 50 0 section-bang-0 empty section-0- 17 7 0
10 -262144 -1 -1;
#X text 26 38 SECTION BANGS ______________________________________
;
#X obj 127 67 bng 15 250 50 0 section-bang-1 empty section-1- 17 7
0 10 -262144 -1 -1;
#X obj 217 67 bng 15 250 50 0 section-bang-2 empty section-2- 17 7
0 10 -262144 -1 -1;
#X obj 307 67 bng 15 250 50 0 section-bang-3 empty section-3- 17 7
0 10 -262144 -1 -1;
#X obj 398 67 bng 15 250 50 0 section-bang-4 empty section-4- 17 7
0 10 -262144 -1 -1;
#X obj 488 67 bng 15 250 50 0 section-bang-5 empty section-5- 17 7
0 10 -262144 -1 -1;
#X obj 575 67 bng 15 250 50 0 section-bang-6 empty section-6- 17 7
0 10 -262144 -1 -1;
#X obj 658 67 bng 15 250 50 0 section-bang-7 empty section-7- 17 7
0 10 -262144 -1 -1;
#X text 358 38 ____________________________________________________
;
#X text 29 90 ____________________________________________________
;
#X text 382 88 ____________________________________________________
;
#X floatatom 361 425 5 0 0 1 follow-one-lower-thres follow-one-lower-thres-set
follow-one-lower-thres, f 5;
#X obj 357 470 tgl 15 0 lorbid-onoff lorbid-onoff-set lorbid-onoff
17 7 0 10 -262144 -1 -1 0 1;
#X obj 222 358 tgl 15 0 sample-section sample-section-set sample-section
17 7 0 10 -262144 -1 -1 0 1;
#X obj 360 441 tgl 15 0 metro-amp-thres metro-amp-thres-set metro-amp-thres
17 7 0 10 -262144 -1 -1 0 1;
#X floatatom 235 453 5 0 0 0 - - -, f 5;
#X obj 235 509 s speed;
#X obj 235 472 / 100;
#X msg 279 455 100;
#X obj 220 430 r speed-set;
#X connect 8 0 9 0;
#X connect 13 0 28 0;
#X connect 15 0 14 0;
#X connect 19 0 14 0;
#X connect 28 0 27 0;
#X connect 36 0 37 0;
#X connect 72 0 74 0;
#X connect 74 0 73 0;
#X connect 75 0 72 0;
#X connect 76 0 72 0;
#X restore 139 189 pd controls;
#X obj 19 11 cnv 15 160 30 empty empty MAIN_AUDIO_PATCH 15 15 0 14
-1 -262144 0;
#N canvas 391 29 772 749 follow-one 0;
#X obj 30 107 unpack, f 24;
#X msg 30 235 0;
#X obj 176 266 *;
#X obj 244 327 line~;
#X obj 176 289 pack f 10;
#X obj 176 311 line~;
#X obj 176 442 *~;
#X obj 244 355 tabosc4~ 1-wavit;
#X obj 29 48 r 1-adc-sigpack-0;
#X obj 30 73 spigot;
#X obj 143 207 t b f, f 14;
#X text 250 272 freq;
#X text 181 233 amp;
#X text 41 129 freq dependant gate;
#X obj 50 329 sin;
#X obj 50 270 pack f 50;
#X obj 50 300 line 0 0.5;
#X obj 244 250 t f f, f 11;
#X obj 244 305 pack f 4;
#X obj 176 359 *~;
#X obj 30 176 moses 500;
#X msg 143 234 1;
#X text 56 347 0 - 0.888;
#X obj 30 210 t b b;
#N canvas 119 22 820 715 overtones 0;
#X text 11 8 some overtones...;
#X obj 27 158 / 100;
#X obj 107 158 / 100;
#X obj 187 158 / 100;
#X obj 267 158 / 100;
#X obj 347 158 / 100;
#X obj 27 136 random 120;
#X obj 107 136 random 150;
#X obj 187 136 random 170;
#X obj 267 136 random 210;
#X obj 347 136 random 230;
#X obj 179 28 inlet;
#X obj 27 180 + 1;
#X obj 107 180 + 1;
#X obj 187 180 + 1;
#X obj 267 180 + 1;
#X obj 347 180 + 1;
#X text 221 28 bang to uniformly randomize ratios;
#X obj 649 282 f;
#X obj 649 304 t b f;
#X obj 649 326 int 1;
#X obj 649 348 /;
#X obj 649 252 metro 100;
#X obj 649 228 tgl 15 0 empty empty empty 17 7 0 10 -262144 -1 -1 0
1;
#X obj 649 391 int;
#X obj 656 418 t f f;
#X obj 649 485 t b f;
#X obj 649 507 random;
#X obj 699 443 s \$0-size;
#X obj 649 205 r follow-one-allow;
#X text 636 667 randomize stream rate;
#X text 566 183 grain min size "related" to period;
#X obj 227 374 pack f 10;
#X obj 227 396 line~;
#X obj 227 418 osc~;
#X obj 298 374 pack f 10;
#X obj 298 396 line~;
#X obj 298 418 osc~;
#X obj 368 374 pack f 10;
#X obj 368 396 line~;
#X obj 478 374 pack f 10;
#X obj 478 396 line~;
#X obj 478 418 osc~;
#X obj 538 374 pack f 10;
#X obj 538 396 line~;
#X obj 298 570 *~ 0.2;
#X obj 312 624 +~;
#X obj 508 570 *~ 0.15;
#X obj 438 570 *~ 0.16;
#X obj 368 570 *~ 0.18;
#X obj 228 570 *~ 0.3;
#X obj 298 352 * 1.5;
#X obj 368 352 * 1.7;
#X obj 478 352 * 2.1;
#X obj 538 352 * 2.3;
#X obj 227 352 * 1.2;
#X obj 312 670 outlet~;
#X obj 239 529 *~;
#X obj 94 405 r \$0-size;
#X obj 329 529 *~;
#X obj 409 529 *~;
#X obj 489 529 *~;
#X obj 569 529 *~;
#X obj 575 32 inlet;
#X obj 649 369 * 2e+06;
#X obj 368 417 tabosc4~ 1-wavit;
#X obj 538 418 tabosc4~ 1-wavit;
#X obj 649 461 * 0.1;
#X obj 649 529 t b f;
#X obj 649 551 f;
#X obj 681 551 + 1;
#X obj 716 552 mod 5;
#X obj 649 573 sel 4;
#X obj 649 605 f;
#X obj 649 648 s \$0-new-rate;
#X obj 698 230 r \$0-new-rate;
#X text 593 56 loudest peak;
#X obj 259 481 fd_grain 0;
#X obj 169 481 fd_grain 0;
#X obj 339 481 fd_grain 4;
#X obj 499 481 fd_grain 4;
#X obj 419 481 fd_grain 0;
#X connect 1 0 12 0;
#X connect 2 0 13 0;
#X connect 3 0 14 0;
#X connect 4 0 15 0;
#X connect 5 0 16 0;
#X connect 6 0 1 0;
#X connect 7 0 2 0;
#X connect 8 0 3 0;
#X connect 9 0 4 0;
#X connect 10 0 5 0;
#X connect 11 0 10 0;
#X connect 11 0 9 0;
#X connect 11 0 8 0;
#X connect 11 0 7 0;
#X connect 11 0 6 0;
#X connect 12 0 55 1;
#X connect 13 0 51 1;
#X connect 14 0 52 1;
#X connect 15 0 53 1;
#X connect 16 0 54 1;
#X connect 18 0 19 0;
#X connect 19 0 20 0;
#X connect 19 1 21 1;
#X connect 20 0 21 0;
#X connect 21 0 64 0;
#X connect 22 0 18 0;
#X connect 23 0 22 0;
#X connect 24 0 25 0;
#X connect 25 0 67 0;
#X connect 25 1 28 0;
#X connect 26 0 27 0;
#X connect 26 1 27 1;
#X connect 27 0 68 0;
#X connect 29 0 23 0;
#X connect 32 0 33 0;
#X connect 33 0 34 0;
#X connect 34 0 57 1;
#X connect 35 0 36 0;
#X connect 36 0 37 0;
#X connect 37 0 59 1;
#X connect 38 0 39 0;
#X connect 39 0 65 0;
#X connect 40 0 41 0;
#X connect 41 0 42 0;
#X connect 42 0 61 1;
#X connect 43 0 44 0;
#X connect 44 0 66 0;
#X connect 45 0 46 1;
#X connect 46 0 56 0;
#X connect 47 0 46 1;
#X connect 48 0 46 1;
#X connect 49 0 46 1;
#X connect 50 0 46 0;
#X connect 51 0 35 0;
#X connect 52 0 38 0;
#X connect 53 0 40 0;
#X connect 54 0 43 0;
#X connect 55 0 32 0;
#X connect 57 0 50 0;
#X connect 58 0 77 0;
#X connect 58 0 78 0;
#X connect 58 0 79 0;
#X connect 58 0 80 0;
#X connect 58 0 81 0;
#X connect 59 0 45 0;
#X connect 60 0 49 0;
#X connect 61 0 48 0;
#X connect 62 0 47 0;
#X connect 63 0 18 1;
#X connect 63 0 51 0;
#X connect 63 0 52 0;
#X connect 63 0 53 0;
#X connect 63 0 54 0;
#X connect 63 0 55 0;
#X connect 64 0 24 0;
#X connect 65 0 60 1;
#X connect 66 0 62 1;
#X connect 67 0 26 0;
#X connect 68 0 69 0;
#X connect 68 1 73 1;
#X connect 69 0 70 0;
#X connect 69 0 72 0;
#X connect 70 0 71 0;
#X connect 71 0 69 1;
#X connect 72 0 73 0;
#X connect 73 0 74 0;
#X connect 75 0 22 1;
#X connect 77 0 59 0;
#X connect 78 0 57 0;
#X connect 79 0 60 0;
#X connect 80 0 62 0;
#X connect 81 0 61 0;
#X restore 257 414 pd overtones;
#X obj 58 235 s \$0-bng-rnd;
#X obj 257 386 r \$0-bng-rnd;
#X obj 176 380 *~;
#X obj 176 505 +~;
#X obj 30 150 moses 3000;
#X obj 418 214 moses 1;
#X obj 171 161 spigot;
#X obj 171 131 t f f;
#X msg 461 259 0;
#X obj 418 236 t b;
#X msg 418 258 1;
#X obj 461 237 t b b;
#X msg 488 259 0;
#X obj 242 442 *~;
#X obj 176 464 *~ 0.5;
#X floatatom 418 115 5 0 0 0 - - -, f 5;
#X text 538 206 clip amp between lower threshold and 1, f 12;
#X text 436 70 lower amp threshold;
#X obj 418 186 moses 0.2;
#X obj 387 87 r follow-one-lower-thres;
#X obj 297 633 r follow-one-onoff;
#X obj 418 134 / 1000;
#X obj 374 469 osc~ 0.01;
#X obj 374 491 *~ 50;
#X obj 374 513 +~ 50;
#X obj 374 535 delread4~ ph-follow-1;
#X obj 341 588 delwrite~ ph-follow-1 100;
#X obj 176 527 *~ 0.25;
#X obj 360 560 *~ 0.2;
#X obj 85 70 r follow-one-onoff, f 17;
#X obj 176 724 switch~;
#X obj 176 702 _spat dacout;
#X connect 0 0 29 0;
#X connect 0 1 32 0;
#X connect 1 0 15 0;
#X connect 2 0 4 0;
#X connect 3 0 7 0;
#X connect 4 0 5 0;
#X connect 5 0 19 0;
#X connect 5 0 19 1;
#X connect 6 0 39 0;
#X connect 7 0 6 1;
#X connect 8 0 9 0;
#X connect 9 0 0 0;
#X connect 10 0 21 0;
#X connect 10 1 17 0;
#X connect 14 0 2 0;
#X connect 15 0 16 0;
#X connect 16 0 14 0;
#X connect 17 0 18 0;
#X connect 17 1 24 1;
#X connect 18 0 3 0;
#X connect 19 0 27 0;
#X connect 19 0 27 1;
#X connect 20 0 23 0;
#X connect 20 1 10 0;
#X connect 21 0 15 0;
#X connect 23 0 1 0;
#X connect 23 1 25 0;
#X connect 24 0 38 1;
#X connect 26 0 24 0;
#X connect 27 0 6 0;
#X connect 27 0 38 0;
#X connect 28 0 52 0;
#X connect 29 0 20 0;
#X connect 29 1 23 0;
#X connect 30 0 34 0;
#X connect 30 1 36 0;
#X connect 31 0 2 1;
#X connect 32 0 31 0;
#X connect 32 1 43 0;
#X connect 33 0 2 1;
#X connect 34 0 35 0;
#X connect 35 0 31 1;
#X connect 36 0 33 0;
#X connect 36 1 37 0;
#X connect 37 0 31 1;
#X connect 38 0 28 1;
#X connect 39 0 28 0;
#X connect 40 0 46 0;
#X connect 43 0 36 0;
#X connect 43 1 30 0;
#X connect 44 0 40 0;
#X connect 45 0 56 1;
#X connect 46 0 43 1;
#X connect 47 0 48 0;
#X connect 48 0 49 0;
#X connect 49 0 50 0;
#X connect 50 0 53 0;
#X connect 52 0 47 0;
#X connect 52 0 51 0;
#X connect 52 0 56 0;
#X connect 53 0 51 0;
#X connect 54 0 9 1;
#X connect 56 0 55 0;
#X restore 338 263 pd follow-one;
#N canvas 734 213 450 300 load-samples 0;
#N canvas 0 22 551 311 arrays 0;
#X obj 13 15 array define clar-0;
#X obj 13 35 array define clar-1;
#X obj 13 55 array define clar-2;
#X obj 13 75 array define clar-3;
#X obj 13 95 array define clar-4;
#X obj 13 115 array define clar-5;
#X obj 13 135 array define clar-6;
#X obj 13 155 array define clar-7;
#X obj 13 175 array define clar-8;
#X obj 133 15 array define flute-0;
#X obj 133 35 array define flute-1;
#X obj 133 55 array define flute-2;
#X obj 133 75 array define flute-3;
#X obj 133 95 array define flute-4;
#X obj 133 115 array define flute-5;
#X obj 133 135 array define flute-6;
#X obj 133 155 array define flute-7;
#X obj 133 175 array define flute-8;
#X obj 67 203 array define perc-0;
#X obj 67 223 array define perc-1;
#X obj 67 243 array define perc-2;
#X obj 260 15 array define violin-0;
#X obj 260 35 array define violin-1;
#X obj 260 55 array define violin-2;
#X obj 260 75 array define violin-3;
#X obj 260 95 array define violin-4;
#X obj 260 115 array define violin-5;
#X obj 260 135 array define violin-6;
#X obj 260 155 array define violin-7;
#X obj 260 175 array define violin-8;
#X obj 260 195 array define violin-9;
#X obj 393 15 array define voice-0;
#X obj 393 35 array define voice-1;
#X obj 393 55 array define voice-2;
#X obj 393 75 array define voice-3;
#X obj 393 95 array define voice-4;
#X obj 393 115 array define voice-5;
#X obj 393 135 array define voice-6;
#X obj 393 155 array define voice-7;
#X obj 393 175 array define voice-8;
#X obj 393 195 array define voice-9;
#X obj 393 215 array define voice-10;
#X obj 393 235 array define voice-11;
#X obj 393 255 array define voice-12;
#X obj 14 281 array define clarinete;
#X restore 330 17 pd arrays;
#X obj 23 252 soundfiler;
#X msg 23 230 read -resize ../samples/\$1.wav \$1;
#X msg 23 25 bang;
#X text 64 19 <-- damn never seen a message like this...;
#X obj 23 4 loadbang;
#X msg 23 46 symbol clar-0 \, symbol clar-1 \, symbol clar-2 \, symbol
clar-3 \, symbol clar-4 \, symbol clar-5 \, symbol clar-6 \, symbol
clar-7 \, symbol clar-8 \, symbol flute-0 \, symbol flute-1 \, symbol
flute-2 \, symbol flute-3 \, symbol flute-4 \, symbol flute-5 \, symbol
flute-6 \, symbol flute-7 \, symbol flute-8 \, symbol perc-0 \, symbol
perc-1 \, symbol perc-2 \, symbol violin-0 \, symbol violin-1 \, symbol
violin-2 \, symbol violin-3 \, symbol violin-4 \, symbol violin-5 \,
symbol violin-6 \, symbol violin-7 \, symbol violin-8 \, symbol violin-9
\, symbol voice-0 \, symbol voice-1 \, symbol voice-2 \, symbol voice-3
\, symbol voice-4 \, symbol voice-5 \, symbol voice-6 \, symbol voice-7
\, symbol voice-8 \, symbol voice-9 \, symbol voice-10 \, symbol voice-11
\, symbol voice-12 \, symbol clarinete;
#X connect 2 0 1 0;
#X connect 3 0 6 0;
#X connect 5 0 3 0;
#X connect 6 0 2 0;
#X restore 256 42 pd load-samples;
#N canvas 638 101 436 605 peak-harmbang 0;
#X obj 52 204 > 500;
#X obj 52 267 sel 1;
#X text 96 205 <-- threshold;
#X obj 52 100 spigot;
#X obj 85 73 tgl 15 0 empty empty empty 17 7 0 10 -262144 -1 -1 0 1
;
#X obj 52 12 r 2-adcrms;
#X obj 85 51 r 2-peak-harmbang-onoff;
#X obj 79 152 r peak-harmbang-lower-thres;
#X obj 71 380 random 10;
#X msg 71 236 1;
#X obj 67 478 r harm-duration;
#X obj 52 501 f;
#X obj 271 562 s 2-peak-harmbang-onoff;
#X msg 271 385 0;
#X obj 52 523 del;
#X msg 52 545 1;
#N canvas 0 22 233 290 harm-envelope-duration 0;
#X obj 52 154 +;
#X obj 74 117 +;
#X obj 52 223 s harm-duration;
#X obj 110 86 r harm-decay;
#X obj 77 55 r harm-sustain;
#X obj 33 30 r harm-attack;
#X connect 0 0 2 0;
#X connect 1 0 0 1;
#X connect 3 0 1 1;
#X connect 4 0 1 0;
#X connect 5 0 0 0;
#X restore 212 13 pd harm-envelope-duration;
#X obj 52 289 t b b b;
#X obj 271 306 spigot;
#X obj 304 281 r 2-peak-gate;
#X obj 52 346 spigot;
#X obj 85 323 r 2-peak-gate;
#X msg 71 402 \; 2-peak-harmbang \$1 \; to-gem-pd send peak-harmbang
\$1;
#X connect 0 0 1 0;
#X connect 1 0 17 0;
#X connect 3 0 0 0;
#X connect 4 0 3 1;
#X connect 5 0 3 0;
#X connect 6 0 4 0;
#X connect 7 0 0 1;
#X connect 8 0 22 0;
#X connect 9 0 1 0;
#X connect 10 0 11 1;
#X connect 11 0 14 0;
#X connect 13 0 12 0;
#X connect 14 0 15 0;
#X connect 15 0 12 0;
#X connect 17 0 20 0;
#X connect 17 1 8 0;
#X connect 17 2 18 0;
#X connect 18 0 13 0;
#X connect 19 0 18 1;
#X connect 20 0 11 0;
#X connect 21 0 20 1;
#X restore 76 261 pd peak-harmbang;
#N canvas 550 23 538 751 z-violin 0;
#X obj 17 43 tgl 15 0 empty empty empty 17 7 0 10 -262144 -1 -1 0 1
;
#X obj 17 104 spigot;
#X msg 158 279 all \$1;
#X obj 87 251 swap;
#X obj 87 273 pack;
#X obj 32 479 spigot;
#X obj 191 419 == 0;
#X obj 225 569 pack;
#X obj 225 591 line~;
#X obj 17 674 *~;
#X obj 259 569 + 10;
#X obj 17 596 +~;
#X obj 17 621 *~ 0.5;
#X obj 17 18 r z-violin-onoff;
#X obj 34 232 s z-violin-sample;
#X obj 259 549 random 1300;
#X obj 225 635 +~ 1;
#X obj 218 503 sel 1;
#X obj 218 525 tgl 15 0 empty empty empty 17 7 0 10 -262144 -1 -1 0
1;
#X obj 218 548 t f b;
#X obj 191 441 change;
#X obj 191 462 t f f;
#X obj 17 207 t f f;
#X text 226 79 switch spat off;
#X text 158 101 switch sampread and osc~grain off;
#X msg 95 509 all \$1;
#X text 235 481 gate to trigger greater envelope;
#N canvas 0 22 311 282 z-violin-windows 0;
#X msg 248 127 sinc;
#X msg 39 223 \; g-window-\$1 symbol \$2;
#X msg 129 122 hann;
#X obj 40 196 list;
#X msg 166 122 expo;
#X msg 205 124 rexpo;
#X obj 40 46 sel 0 1 2 3 4, f 29;
#X obj 40 70 t b b;
#X obj 80 70 t b b;
#X obj 120 70 t b b;
#X obj 160 70 t b b;
#X obj 40 19 r z-violin-window;
#X msg 40 123 10;
#X obj 200 70 t b b;
#X msg 249 152 gauss;
#X obj 40 145 fd_iterate;
#X connect 0 0 3 1;
#X connect 2 0 3 1;
#X connect 3 0 1 0;
#X connect 4 0 3 1;
#X connect 5 0 3 1;
#X connect 6 0 7 0;
#X connect 6 1 8 0;
#X connect 6 2 9 0;
#X connect 6 3 10 0;
#X connect 6 4 13 0;
#X connect 7 0 12 0;
#X connect 7 1 2 0;
#X connect 8 0 12 0;
#X connect 8 1 4 0;
#X connect 9 0 12 0;
#X connect 9 1 5 0;
#X connect 10 0 12 0;
#X connect 10 1 0 0;
#X connect 11 0 6 0;
#X connect 12 0 15 0;
#X connect 13 0 12 0;
#X connect 13 1 14 0;
#X connect 14 0 3 1;
#X connect 15 0 3 0;
#X restore 387 51 pd z-violin-windows;
#X obj 44 683 r z-violin-gain;
#X msg 44 705 \$1 10;
#X obj 44 727 line~;
#X obj 116 80 s z-vln-spatoff;
#X obj 86 744 r z-vln-spatoff;
#X obj 64 101 s z-vln-sampoff;
#X obj 158 253 r z-vln-sampoff;
#X obj 95 488 r z-vln-sampoff;
#X obj 24 84 r z-vln-redo;
#N canvas 933 302 260 221 z-violin-wavit 0;
#X obj 48 119 symbol \$1;
#X obj 55 18 r z-violin-wavit-sel;
#X obj 55 40 sel 0 1 2;
#X msg 70 64 symbol phasor-tri;
#X msg 135 85 symbol gauss-osc;
#X msg 48 141 \; z-violin-wavit symbol \$1;
#X msg 30 84 symbol 1-wavit;
#X connect 0 0 5 0;
#X connect 1 0 2 0;
#X connect 2 0 6 0;
#X connect 2 1 3 0;
#X connect 2 2 4 0;
#X connect 3 0 0 0;
#X connect 4 0 0 0;
#X connect 6 0 0 0;
#X restore 387 73 pd z-violin-wavit;
#X obj 322 502 r length-q;
#X obj 273 207 / 65;
#X msg 128 438 1 \, 0;
#X obj 128 417 r vln-rst;
#X obj 322 527 * 5;
#X obj 225 613 *~ 2046;
#X obj 225 657 tabread4~ \$0-han;
#X obj 17 787 switch~;
#X obj 17 726 *~;
#X obj 17 303 clone _sampread 8 violin, f 11;
#X obj 32 531 clone _z-g-violin 10 \$0, f 11;
#X obj 137 362 env~ 1024;
#X obj 17 63 t b f f f;
#X obj 17 179 fd_m-comb 8;
#X obj 17 150 list split 3;
#X obj 149 150 list split 3;
#X obj 32 368 sigmund~ -maxfreq 4000 -npeak 10 tracks, f 13;
#N canvas 0 22 496 534 grain 0;
#X obj 188 98 + 1;
#X obj 188 184 del;
#X obj 55 160 sel 0;
#X obj 203 249 f;
#X obj 230 250 + 1;
#X msg 203 272 \; g-go-\$1 bang \;;
#X obj 255 250 mod 10;
#X obj 188 120 * 65;
#X msg 101 354 \; g-length \$1;
#X obj 55 81 t f f;
#X obj 82 204 t f f b;
#X obj 122 308 r length-q;
#X obj 101 331 * 10;
#X text 33 47 lorenz distance determines 1.speed \, 2.grain-length
\, 3.sample-speed;
#X text 184 231 banging each grain shape;
#X text 109 283 2.grain-length;
#X text 101 81 1.speed of lorenz;
#X text 221 119 <-- manually chosen;
#X text 131 332 <-- controllable;
#X obj 188 206 s z-vln-redo;
#X floatatom 239 92 5 0 0 0 - - -, f 5;
#X obj 188 141 max 10;
#X obj 188 163 min 2400;
#X floatatom 247 185 5 0 0 0 - - -, f 5;
#X obj 56 4 inlet;
#X obj 412 46 inlet;
#X obj 65 454 outlet;
#X connect 0 0 7 0;
#X connect 1 0 19 0;
#X connect 2 1 10 0;
#X connect 3 0 4 0;
#X connect 3 0 5 0;
#X connect 4 0 6 0;
#X connect 6 0 3 1;
#X connect 7 0 21 0;
#X connect 9 0 2 0;
#X connect 9 1 0 0;
#X connect 10 0 26 0;
#X connect 10 1 12 0;
#X connect 10 2 3 0;
#X connect 11 0 12 1;
#X connect 12 0 8 0;
#X connect 20 0 7 1;
#X connect 21 0 22 0;
#X connect 22 0 1 0;
#X connect 22 0 23 0;
#X connect 24 0 9 0;
#X connect 25 0 21 1;
#X restore 175 211 pd grain;
#N canvas 0 22 251 361 lorenz 0;
#X obj 36 189 lorenz;
#X msg 36 129 print 1;
#X obj 52 212 list prepend parse;
#X obj 52 234 list trim;
#X obj 52 256 siginfo;
#X msg 46 82 100;
#X obj 46 104 until;
#X obj 90 85 random 5000;
#X obj 90 107 - 2500;
#X obj 90 129 / 1000;
#X obj 90 150 + 28;
#X msg 90 172 initb \$1;
#X obj 45 42 loadbang;
#X obj 46 61 t b b;
#X obj 36 9 inlet;
#X obj 71 278 outlet;
#X connect 0 1 2 0;
#X connect 1 0 0 0;
#X connect 2 0 3 0;
#X connect 3 0 4 0;
#X connect 4 1 15 0;
#X connect 5 0 6 0;
#X connect 6 0 1 0;
#X connect 7 0 8 0;
#X connect 8 0 9 0;
#X connect 9 0 10 0;
#X connect 10 0 11 0;
#X connect 11 0 0 0;
#X connect 12 0 13 0;
#X connect 13 0 5 0;
#X connect 13 1 7 0;
#X connect 14 0 1 0;
#X restore 17 127 pd lorenz;
#X obj 17 765 _spat dacout;
#X connect 0 0 50 0;
#X connect 1 0 56 0;
#X connect 2 0 47 2;
#X connect 3 0 4 0;
#X connect 3 1 4 1;
#X connect 4 0 47 1;
#X connect 5 0 48 0;
#X connect 6 0 20 0;
#X connect 7 0 8 0;
#X connect 8 0 43 0;
#X connect 9 0 46 0;
#X connect 10 0 7 1;
#X connect 10 0 39 0;
#X connect 11 0 12 0;
#X connect 12 0 9 0;
#X connect 13 0 0 0;
#X connect 15 0 10 0;
#X connect 16 0 44 0;
#X connect 17 0 18 0;
#X connect 18 0 19 0;
#X connect 19 0 7 0;
#X connect 19 1 15 0;
#X connect 20 0 21 0;
#X connect 21 0 5 1;
#X connect 21 1 17 0;
#X connect 22 0 14 0;
#X connect 22 0 47 0;
#X connect 22 1 3 0;
#X connect 25 0 48 1;
#X connect 28 0 29 0;
#X connect 29 0 30 0;
#X connect 30 0 46 1;
#X connect 32 0 57 1;
#X connect 34 0 2 0;
#X connect 35 0 25 0;
#X connect 36 0 1 0;
#X connect 38 0 42 0;
#X connect 39 0 55 1;
#X connect 40 0 21 0;
#X connect 41 0 40 0;
#X connect 42 0 15 1;
#X connect 43 0 16 0;
#X connect 44 0 9 1;
#X connect 46 0 57 0;
#X connect 47 0 11 0;
#X connect 47 0 54 0;
#X connect 47 0 49 0;
#X connect 48 0 11 1;
#X connect 49 0 6 0;
#X connect 50 0 1 0;
#X connect 50 1 1 1;
#X connect 50 2 33 0;
#X connect 50 3 31 0;
#X connect 51 0 22 0;
#X connect 52 0 51 0;
#X connect 52 1 53 0;
#X connect 53 1 55 0;
#X connect 54 0 5 0;
#X connect 55 0 3 1;
#X connect 56 0 52 0;
#X connect 57 0 45 0;
#X restore 339 224 pd z-violin;
#N canvas 422 88 410 364 g-flute 0;
#N canvas 0 22 311 282 g-flute-windows 0;
#X msg 248 127 sinc;
#X msg 129 122 hann;
#X obj 40 196 list;
#X msg 166 122 expo;
#X obj 40 46 sel 0 1 2 3 4, f 29;
#X obj 40 70 t b b;
#X obj 80 70 t b b;
#X obj 120 70 t b b;
#X obj 160 70 t b b;
#X msg 40 123 10;
#X msg 205 124 rexpo;
#X msg 248 148 gauss;
#X obj 202 70 t b b;
#X obj 40 19 r g-flute-window;
#X msg 40 223 \; g-flute-window-\$1 symbol \$2;
#X obj 40 145 fd_iterate;
#X connect 0 0 2 1;
#X connect 1 0 2 1;
#X connect 2 0 14 0;
#X connect 3 0 2 1;
#X connect 4 0 5 0;
#X connect 4 1 6 0;
#X connect 4 2 7 0;
#X connect 4 3 8 0;
#X connect 4 4 12 0;
#X connect 5 0 9 0;
#X connect 5 1 1 0;
#X connect 6 0 9 0;
#X connect 6 1 3 0;
#X connect 7 0 9 0;
#X connect 7 1 10 0;
#X connect 8 0 9 0;
#X connect 8 1 0 0;
#X connect 9 0 15 0;
#X connect 10 0 2 1;
#X connect 11 0 2 1;
#X connect 12 0 9 0;
#X connect 12 1 11 0;
#X connect 13 0 4 0;
#X connect 15 0 2 0;
#X restore 174 13 pd g-flute-windows;
#X obj 46 134 f;
#X obj 70 135 + 1;
#X obj 46 108 t b b;
#X obj 46 37 t f f, f 33;
#X msg 241 149 all \$1;
#X obj 95 136 mod 20;
#X obj 158 114 random 1000;
#X obj 158 136 + 10;
#X obj 46 188 pack f f;
#X obj 46 86 metro 100;
#X obj 158 158 max 10;
#X obj 221 61 r g-flute-rand-length;
#X obj 97 60 r g-flute-metro;
#X obj 46 13 r g-flute-onoff;
#X obj 216 321 s g-flute-sample;
#N canvas 0 22 629 284 g-f-states 0;
#X msg 27 201 \; g-flute-window-set 3 \; g-flute-metro-set 30 \; g-flute-rand-length
20000 \;;
#X msg 23 138 \; g-flute-window-set 1 \; g-flute-metro-set 20 \; g-flute-rand-length
20 \;;
#X msg 21 80 \; g-flute-window-set 4 \; g-flute-metro-set 20 \; g-flute-rand-length
2000 \;;
#X obj 22 36 r g-f-state;
#X obj 22 58 sel 0 1 2;
#X obj 253 39 r g-flute-sample;
#X obj 253 164 random 100;
#X obj 253 86 t b;
#X obj 253 108 f;
#X obj 283 86 r \$0-state;
#X obj 253 252 s \$0-state;
#X msg 253 208 0;
#X msg 285 208 1;
#X obj 253 130 sel 0 1 2, f 39;
#X msg 316 209 2;
#X obj 363 164 random 100;
#X obj 363 250 s \$0-state;
#X msg 363 208 0;
#X msg 395 208 1;
#X msg 426 209 2;
#X obj 473 164 random 100;
#X obj 475 250 s \$0-state;
#X msg 473 208 0;
#X msg 505 208 1;
#X msg 536 209 2;
#X obj 473 186 moses 30;
#X obj 253 61 spigot;
#X obj 460 97 r g-f-markov;
#X obj 291 106 s g-f-state-set;
#X obj 363 186 moses 3;
#X obj 418 187 moses 98;
#X obj 528 187 moses 90;
#X obj 253 186 moses 12;
#X obj 308 187 moses 76;
#X connect 3 0 4 0;
#X connect 4 0 2 0;
#X connect 4 1 1 0;
#X connect 4 2 0 0;
#X connect 5 0 26 0;
#X connect 6 0 32 0;
#X connect 7 0 8 0;
#X connect 8 0 13 0;
#X connect 9 0 8 1;
#X connect 9 0 28 0;
#X connect 11 0 10 0;
#X connect 12 0 10 0;
#X connect 13 0 6 0;
#X connect 13 1 15 0;
#X connect 13 2 20 0;
#X connect 14 0 10 0;
#X connect 15 0 29 0;
#X connect 17 0 16 0;
#X connect 18 0 16 0;
#X connect 19 0 16 0;
#X connect 20 0 25 0;
#X connect 22 0 21 0;
#X connect 23 0 21 0;
#X connect 24 0 21 0;
#X connect 25 0 22 0;
#X connect 25 1 31 0;
#X connect 26 0 7 0;
#X connect 27 0 26 1;
#X connect 29 0 17 0;
#X connect 29 1 30 0;
#X connect 30 0 18 0;
#X connect 30 1 19 0;
#X connect 31 0 23 0;
#X connect 31 1 24 0;
#X connect 32 0 11 0;
#X connect 32 1 33 0;
#X connect 33 0 12 0;
#X connect 33 1 14 0;
#X restore 294 13 pd g-f-states;
#X obj 250 222 t f b;
#X obj 282 245 random 1000;
#X obj 282 267 + 10;
#X obj 282 289 del;
#X obj 189 275 f;
#X obj 46 216 clone _flute-grain 20 8 \$0;
#X connect 1 0 2 0;
#X connect 1 0 9 0;
#X connect 1 0 17 0;
#X connect 2 0 6 0;
#X connect 3 0 1 0;
#X connect 3 1 7 0;
#X connect 4 0 10 0;
#X connect 4 1 5 0;
#X connect 5 0 22 1;
#X connect 6 0 1 1;
#X connect 7 0 8 0;
#X connect 8 0 11 0;
#X connect 9 0 22 0;
#X connect 10 0 3 0;
#X connect 11 0 9 1;
#X connect 12 0 7 1;
#X connect 12 0 18 1;
#X connect 13 0 10 1;
#X connect 14 0 4 0;
#X connect 17 0 21 1;
#X connect 17 1 18 0;
#X connect 18 0 19 0;
#X connect 19 0 20 0;
#X connect 20 0 21 0;
#X connect 21 0 15 0;
#X restore 411 224 pd g-flute;
#N canvas 302 198 546 450 metro-amp-thres 0;
#X obj 52 77 r 1-adcrms;
#X obj 52 154 > 500;
#X obj 52 217 sel 1;
#X obj 314 153 tgl 15 0 empty empty empty 17 7 0 10 -262144 -1 -1 0
1;
#X obj 368 157 r 1-adcrms;
#X obj 313 312 metro 10;
#X text 96 155 <-- threshold;
#X obj 167 386 s harmbang;
#X obj 52 100 spigot;
#X obj 154 103 tgl 15 0 empty empty empty 17 7 0 10 -262144 -1 -1 0
1;
#X obj 268 15 tgl 15 0 empty empty empty 17 7 0 10 -262144 -1 -1 0
1;
#X obj 268 35 t f f;
#X obj 268 57 == 0;
#X obj 368 184 spigot;
#X text 334 123 steady metro (depends on amp);
#X text 41 48 random bangs (amp>thres = on / off);
#X text 342 92 1;
#X text 46 22 0;
#X obj 394 228 rmstodb;
#X obj 368 206 sel 0;
#X obj 394 250 sel 0;
#X obj 424 271 * 0.5;
#X floatatom 424 293 5 0 0 0 - - -, f 5;
#X msg 384 270 10;
#X obj 353 72 r metro-amp-thres;
#X connect 0 0 8 0;
#X connect 1 0 2 0;
#X connect 2 0 7 0;
#X connect 3 0 5 0;
#X connect 3 0 13 1;
#X connect 4 0 13 0;
#X connect 5 0 7 0;
#X connect 8 0 1 0;
#X connect 9 0 8 1;
#X connect 10 0 11 0;
#X connect 11 0 12 0;
#X connect 11 1 3 0;
#X connect 12 0 9 0;
#X connect 13 0 19 0;
#X connect 18 0 20 0;
#X connect 19 1 18 0;
#X connect 20 0 23 0;
#X connect 20 1 21 0;
#X connect 21 0 5 1;
#X connect 21 0 22 0;
#X connect 23 0 5 1;
#X connect 24 0 10 0;
#X restore 75 236 pd metro-amp-thres;
#X obj 21 69 bng 15 250 50 0 listen-bang empty 1.first_listen 17 7
0 10 -262144 -1 -1;
#N canvas 530 37 278 518 bird-breadth 0;
#X obj 35 26 r 1-adcrms;
#X obj 35 208 sel 1;
#X obj 35 240 bng 15 250 50 0 empty empty empty 17 7 0 10 -262144 -1
-1;
#X obj 35 453 s bird-breadth;
#X obj 35 169 > 600;
#X obj 62 315 t f b;
#X obj 62 337 del;
#X msg 62 359 1;
#X obj 68 85 tgl 15 0 empty empty empty 17 7 0 10 -262144 -1 -1 0 1
;
#X obj 62 291 random 500;
#X obj 62 140 r bird-breadth-lower-thres;
#X obj 35 270 t b b;
#X obj 68 57 r bird-breadth-onoff;
#X obj 35 107 spigot;
#X msg 112 332 0;
#X msg 112 355 \; bird-breadth-onoff \$1;
#X msg 50 395 \; bird-breadth-display bang \; to-gem-pd send bird-breadth
\;;
#X connect 0 0 13 0;
#X connect 1 0 2 0;
#X connect 2 0 11 0;
#X connect 4 0 1 0;
#X connect 5 0 6 0;
#X connect 5 1 14 0;
#X connect 6 0 7 0;
#X connect 7 0 15 0;
#X connect 8 0 13 1;
#X connect 9 0 5 0;
#X connect 10 0 4 1;
#X connect 11 0 3 0;
#X connect 11 0 16 0;
#X connect 11 1 9 0;
#X connect 12 0 8 0;
#X connect 13 0 4 0;
#X connect 14 0 15 0;
#X restore 75 283 pd bird-breadth;
#N canvas 185 43 832 484 part-2 0;
#X obj 65 15 r from-gem-pd;
#X obj 84 88 route perc viol voic flut clar;
#X obj 58 138 reflect 3;
#X obj 236 171 reflect 9;
#X obj 457 160 reflect 9;
#X obj 83 273 reflect 13;
#X obj 322 393 reflect 10;
#X msg 661 218 all \$1;
#X obj 689 65 r sample-section;
#X obj 689 87 tgl 15 0 empty empty empty 17 7 0 10 -262144 -1 -1 0
1;
#X obj 150 64 spigot;
#X obj 505 59 list trim;
#X obj 506 38 list prepend all;
#X obj 505 17 r speed;
#X obj 59 116 fd_iterate;
#X obj 236 149 fd_iterate;
#X obj 82 247 fd_iterate;
#X obj 457 138 fd_iterate;
#X obj 331 360 fd_iterate;
#X obj 47 192 clone _sampread 3 perc;
#X obj 77 345 clone _sampread 13 voice \;;
#X obj 207 203 clone _sampread 9 clar;
#X obj 319 415 clone _sampread 10 violin;
#X obj 457 184 clone _sampread 9 flute;
#X connect 0 0 10 0;
#X connect 1 0 14 0;
#X connect 1 1 18 0;
#X connect 1 2 16 0;
#X connect 1 3 17 0;
#X connect 1 4 15 0;
#X connect 2 0 19 0;
#X connect 3 0 21 0;
#X connect 4 0 23 0;
#X connect 5 0 20 0;
#X connect 6 0 22 0;
#X connect 7 0 19 2;
#X connect 7 0 20 2;
#X connect 7 0 21 2;
#X connect 7 0 22 2;
#X connect 7 0 23 2;
#X connect 8 0 9 0;
#X connect 9 0 7 0;
#X connect 9 0 10 1;
#X connect 10 0 1 0;
#X connect 11 0 19 1;
#X connect 11 0 20 1;
#X connect 11 0 21 1;
#X connect 11 0 22 1;
#X connect 11 0 23 1;
#X connect 12 0 11 0;
#X connect 13 0 12 0;
#X connect 14 0 2 0;
#X connect 15 0 3 0;
#X connect 16 0 5 0;
#X connect 17 0 4 0;
#X connect 18 0 6 0;
#X restore 340 290 pd part-2;
#X obj 131 47 bng 15 50 10 0 panic empty panic 17 7 0 10 -258113 -1
-1;
#N canvas 79 148 450 300 declares 0;
#X obj 13 11 declare -path ../_lib;
#X obj 13 31 declare -path ../samples;
#X restore 22 45 pd declares;
#N canvas 74 143 1167 599 what 0;
#X text 53 655 section 5 --- part 2.a (fast);
#X text 351 665 section 6 --- part 2.b (slow);
#X text 611 659 section 7 --- part 2.c (fast);
#X text 40 21 section 0 --- first part;
#X text 271 21 section 1 --- violin solo;
#X obj 22 22 bng 15 250 50 0 empty empty empty 17 7 0 10 -262144 -1
-1;
#X obj 242 20 bng 15 250 50 0 empty empty empty 17 7 0 10 -262144 -1
-1;
#X text 475 21 section 2 --- flute solo;
#X text 666 21 section 3 --- trio section;
#X text 878 21 section 4 --- clarinet note;
#X obj 454 22 bng 15 250 50 0 empty empty empty 17 7 0 10 -262144 -1
-1;
#X msg 454 267 \; g-f-markov-set 1 \;;
#X obj 643 22 bng 15 250 50 0 empty empty empty 17 7 0 10 -262144 -1
-1;
#X obj 454 245 del 35000;
#X obj 860 22 bng 15 250 50 0 empty empty empty 17 7 0 10 -262144 -1
-1;
#X text 492 348 ...lingers from previous section...;
#X text 482 480 LORENZ LAMP VIDEO;
#X text 916 370 ====ONLY RIO VIDEO====;
#X text 278 560 ===SOLO VIOLIN VIDEO=== (OJO);
#X msg 22 66 0;
#X msg 252 45 1;
#X msg 462 46 2;
#X msg 643 46 3;
#X msg 873 47 4;
#X text 18 585 PEAK HARMBANG --> white screen (1frm);
#X text 613 480 + SELDOM FLUTE + VOICE + PERC vid lorensz;
#X text 928 335 <<<crossfades with next section>>>;
#X obj 242 456 del 15000;
#X msg 242 520 \; length-q-set \$1 \;;
#X obj 242 500 line 10 1;
#X obj 242 478 pack 130 10000;
#X msg 339 473 \; z-violin-window-set 0;
#N canvas 338 133 303 581 everything 0;
#X obj 48 42 r everything;
#X msg 48 79 \; 1-adc-onoff-set \$1 \; 1-adcrms-switch-set \$1 \; 1-adc-gain-set
\$1 \; 1-sigmund-switch-set \$1 \; lorbird-onoff-set \$1 \; bird-breadth-onoff-set
\$1 \; follow-one-onoff-set \$1 \; 2-adc-onoff-set \$1 \; 2-adcrms-switch-set
\$1 \; 2-adc-gain-set \$1 \; harm-switch-set \$1 \; 2-peak-harmbang-onoff-set
\$1 \; lorbird-onoff-set \$1 \; z-violin-onoff-set \$1 \; g-flute-onoff
\$1 \; lorsigit-set \$1 \; camera-gain-set \$1 \; allow-camera-data
\$1 \; to-gem-pd send pix-data \$1 \; input-2-amp-switch-set \$1 \;
input-2-amp-gain-set \$1 \; to-gem-pd send section -1 \; instructions
color 222 0 0 \; clarinet-section-set \$1 \; sample-section-set 0 \;
instructions label dont_panic \;;
#X connect 0 0 1 0;
#X restore 1055 29 pd everything;
#N canvas 0 22 450 300 panic 0;
#X obj 46 33 r panic;
#X msg 46 55 \; everything 0 \;;
#X connect 0 0 1 0;
#X restore 1056 51 pd panic;
#X obj 1056 6 bng 15 50 10 0 panic empty panic 17 7 0 10 -258113 -1
-1;
#N canvas 0 22 360 270 reminder-to-sync-with-percussion 0;
#X msg 39 131 symbol trigger_lorsig_w/percussion_bang;
#X msg 39 153 \; instructions label \$1 \; display-instructions warning
\; percussion-bang-set color 13 \;;
#X obj 39 41 inlet;
#X obj 39 85 del 50000;
#X connect 0 0 1 0;
#X connect 2 0 3 0;
#X connect 3 0 0 0;
#X restore 860 351 pd reminder-to-sync-with-percussion;
#X msg 462 67 \; jumpto-section-set \$1 \; section-display \$1 \; to-gem-pd
send section \$1 \; \; z-violin-gain-set 0 \; z-violin-onoff-set 0
\; \; g-flute-window-set 1 \; g-flute-metro-set 40 \; g-flute-rand-length
200 \; g-flute-onoff-set 1 \; g-flute-gain-set 0.3 \;;
#X msg 74 37 \; everything 0 \;;
#X obj 22 46 del 30;
#X msg 252 66 \; jumpto-section-set \$1 \; section-display \$1 \; to-gem-pd
send pix-data 0 \; to-gem-pd send section \$1 \; \; \; 1-adc-gain-set
0 \; 1-adc-onoff-set 0 \; 1-adcrms-switch-set 0 \; 1-sigmund-switch-set
0 \; \; \; 2-adc-gain-set 0 \; 2-peak-harmbang-onoff-set 0 \; 2-adc-onoff-set
0 \; 2-adcrms-switch-set 0 \; \; \; length-q-set 10 \; z-violin-window-set
1 \; z-violin-onoff-set 1 \; z-violin-gain-set 6 \; \; camera-gain-line
0 200 \; allow-camera-data-set 0 \;;
#X obj 21 2 r section-bang-0;
#X obj 242 -1 r section-bang-1;
#X obj 453 2 r section-bang-2;
#X obj 860 1 r section-bang-4;
#X obj 643 2 r section-bang-3;
#X obj 574 1252 cnv 15 100 60 empty empty empty 20 12 0 14 -233017
-66577 0;
#X obj 27 654 bng 15 250 50 0 empty empty empty 17 7 0 10 -262144 -1
-1;
#X obj 27 633 r section-bang-5;
#X msg 40 679 5;
#X obj 863 396 r percussion-bang;
#X obj 863 418 t b b b b;
#X msg 892 613 \; clarinet-section-set 0 \;;
#X obj 861 748 s fadeout-section;
#X msg 876 681 \; display-instructions normal \; percussion-bang-set
color 0 111 \; instructions label fadeout-section \;;
#X obj 862 584 delay 40000;
#X text 882 657 start fadeout (40 seconds) in 40sec;
#X msg 878 544 \; to-gem-pd send percussion-bang;
#X obj 307 650 bng 15 250 50 0 empty empty empty 17 7 0 10 -262144
-1 -1;
#X obj 307 629 r section-bang-6;
#X msg 320 675 6;
#X obj 586 659 bng 15 250 50 0 empty empty empty 17 7 0 10 -262144
-1 -1;
#X msg 643 67 \; jumpto-section-set \$1 \; section-display \$1 \; to-gem-pd
send section \$1 \; \; 1-adc-onoff-set 1 \; 1-adcrms-switch-set 1 \;
1-adc-gain-set 1 \; 1-sigmund-switch-set 1 \; \; lorbird-onoff-set
1 \; bird-breadth-onoff-set 1 \; \; follow-one-onoff-set 1 \; follow-one-lower-thres-set
140 \; bird-breadth-lower-thres-set 230 \; \; \; to-gem-pd send pix-data
1 \; allow-camera-data-set 1 \; camera-gain-line 1 1000 \;;
#X msg 873 68 \; jumpto-section-set \$1 \; section-display \$1 \; to-gem-pd
send section \$1 \; \; g-flute-gain-set 0 \; g-flute-onoff-set 0 \;
\; 1-adc-gain-set 0 \; 1-adc-onoff-set 0 \; \; 1-sigmund-switch-set
0 \; lorbird-onoff-set 0 \; bird-breadth-onoff-set 0 \; follow-one-onoff-set
0 \; \; clarinet-section-set 1 \; camera-gain-line 0 40000 \;;
#X msg 973 390 \; allow-camera-data-set 0 \; to-gem-pd send pix-data
0 \;;
#X msg 900 441 \; \; lorsigit-diverge bang \; \; \; lorsigit-gain-set
1 \; lorsigit-set 1 \;;
#X obj 586 638 r section-bang-7;
#X msg 599 684 7;
#X msg 319 698 \; jumpto-section-set \$1 \; section-display \$1 \;
to-gem-pd send section \$1 \; \; \; \; \; lorbird-onoff-set 1 \; \;
fps-set 89 \; speed-set 484 \; \; \; \; allow-camera-data-set 1 \;
to-gem-pd send pix-data 1 \; camera-gain-line 1 10000 \; \; sample-section-set
1 \;;
#X msg 599 707 \; jumpto-section-set \$1 \; section-display \$1 \;
to-gem-pd send section \$1 \; \; \; 1-adc-onoff-set 1 \; 1-adcrms-switch-set
1 \; 1-adc-gain-set 1 \; 1-sigmund-switch-set 1 \; \; \; speed-set
90 \; fps-set 22 \; \; lorbird-onoff-set 0 \; follow-one-onoff-set
0 \; \; \; \; sample-section-set 1 \; camera-gain-line 0 10000 \;;
#X msg 22 87 \; \; jumpto-section-set \$1 \; section-display \$1 \;
to-gem-pd send section \$1 \; \; \; 1-adc-onoff-set 1 \; 1-adcrms-switch-set
1 \; 1-adc-gain-set 1 \; 1-sigmund-switch-set 1 \; \; \; 2-adc-onoff-set
1 \; 2-adcrms-switch-set 1 \; 2-adc-gain-set 1 \; \; peak-harmbang-lower-thres-set
29 \; \; \; \; harm-switch-set 1 \; s-grain-window-set 1 \; 2-peak-harmbang-onoff-set
1 \; s-grain-gain-set 1.5 \; 2-peak-gate-set 0 \; \; \; allow-camera-data-set
1 \; to-gem-pd send pix-data 1 \; camera-gain-line 1 10000 \; \;;
#X msg 39 702 \; jumpto-section-set \$1 \; section-display \$1 \; to-gem-pd
send section \$1 \; \; \; 1-adc-onoff-set 1 \; 1-adcrms-switch-set
1 \; 1-adc-gain-set 1 \; 1-sigmund-switch-set 1 \; \; speed-set 100
\; \; follow-one-onoff-set 1 \; follow-one-lower-thres-set 100 \; \;
harm-switch-set 1 \; s-grain-window-set 1 \; metrobang-onoff-set 1
\; s-grain-gain-set 1.5 \; \; \; \; fps-set 30 \; sample-section-set
1 \;;
#X connect 5 0 37 0;
#X connect 5 0 38 0;
#X connect 6 0 20 0;
#X connect 6 0 27 0;
#X connect 10 0 21 0;
#X connect 10 0 13 0;
#X connect 12 0 22 0;
#X connect 13 0 11 0;
#X connect 14 0 23 0;
#X connect 14 0 35 0;
#X connect 19 0 69 0;
#X connect 20 0 39 0;
#X connect 21 0 36 0;
#X connect 22 0 61 0;
#X connect 23 0 62 0;
#X connect 27 0 30 0;
#X connect 27 0 31 0;
#X connect 29 0 28 0;
#X connect 30 0 29 0;
#X connect 38 0 19 0;
#X connect 40 0 5 0;
#X connect 41 0 6 0;
#X connect 42 0 10 0;
#X connect 43 0 14 0;
#X connect 44 0 12 0;
#X connect 46 0 48 0;
#X connect 47 0 46 0;
#X connect 48 0 70 0;
#X connect 49 0 50 0;
#X connect 50 0 54 0;
#X connect 50 1 56 0;
#X connect 50 2 64 0;
#X connect 50 3 63 0;
#X connect 54 0 52 0;
#X connect 54 0 53 0;
#X connect 54 0 51 0;
#X connect 57 0 59 0;
#X connect 58 0 57 0;
#X connect 59 0 67 0;
#X connect 60 0 66 0;
#X connect 65 0 60 0;
#X connect 66 0 68 0;
#X restore 142 146 pd what happens when;
#N canvas 588 258 493 351 wavit-shapes 0;
#X msg 15 85 \; 1-wavit cosinesum 512 0 0.3 0.4;
#X msg 14 118 \; 1-wavit sinesum 512 3 0 0 0 0.3 0.4 2 0.3 0.4 2 5
3 3 4 0.2 3 \, normalize 1;
#X msg 15 47 \; 1-wavit sinesum 512 0 0.3 0.4;
#X msg 15 174 \; 1-wavit cosinesum 512 3 0 0 0 0.3 0.4 2 0.3 0.4 2
5 3 3 4 0.2 3 \, normalize 1;
#X restore 141 167 pd wavit-shapes;
#X text 32 123 analysis;
#X text 174 126 control;
#X text 377 112 sound;
#X text 431 19 output;
#X text 219 19 input;
#N canvas 0 22 493 343 inputs 0;
#X obj 22 84 tgl 15 0 1-env-switch 1-env-switch-set 1-env-switch 17
7 0 10 -262144 -1 -1 0 1;
#X obj 167 84 tgl 15 0 2-env-switch 2-env-switch-set 2-env-switch 17
7 0 10 -262144 -1 -1 0 1;
#X obj 22 65 tgl 15 0 1-adc-onoff 1-adc-onoff-set 1-adc-onoff 17 7
0 10 -262144 -1 -1 0 1;
#X obj 167 65 tgl 15 0 2-adc-onoff 2-adc-onoff-set 2-adc-onoff 17 7
0 10 -262144 -1 -1 0 1;
#X text 18 43 INPUT 1 ___________;
#X text 163 44 INPUT 2 ___________;
#X obj 25 232 tgl 15 0 3-env-switch 3-env-switch-set 3-env-switch 17
7 0 10 -262144 -1 -1 0 1;
#X obj 170 232 tgl 15 0 4-env-switch 4-env-switch-set 4-env-switch
17 7 0 10 -262144 -1 -1 0 1;
#X obj 25 213 tgl 15 0 3-adc-onoff 3-adc-onoff-set 3-adc-onoff 17 7
0 10 -262144 -1 -1 0 1;
#X obj 170 213 tgl 15 0 4-adc-onoff 4-adc-onoff-set 4-adc-onoff 17
7 0 10 -262144 -1 -1 0 1;
#X text 21 191 INPUT 3 ___________;
#X text 166 192 INPUT 4 ___________;
#X obj 22 141 nbx 5 14 0 1e+37 0 0 1-adc-gain 1-adc-gain-set 1-adc-gain
0 -8 0 10 -262144 -1 -1 0 256;
#X obj 163 138 nbx 5 14 0 1e+37 0 0 2-adc-gain 2-adc-gain-set 2-adc-gain
0 -8 0 10 -262144 -1 -1 0 256;
#X obj 23 288 nbx 5 14 0 1e+37 0 0 3-adc-gain 3-adc-gain-set 3-adc-gain
0 -8 0 10 -262144 -1 -1 0 256;
#X obj 163 288 nbx 5 14 0 1e+37 0 0 4-adc-gain 4-adc-gain-set 4-adc-gain
0 -8 0 10 -262144 -1 -1 0 256;
#X floatatom 93 141 5 0 0 2 1-rms 1-rms -, f 5;
#X floatatom 233 140 5 0 0 2 2-rms 2-rms -, f 5;
#X floatatom 99 286 5 0 0 2 3-rms 3-rms -, f 5;
#X floatatom 240 287 5 0 0 2 4-rms 4-rms -, f 5;
#X obj 167 16 tgl 15 0 monitor monitor-set monitor 17 7 0 10 -262144
-1 -1 0 1;
#X obj 300 147 pack f 1;
#X msg 300 125 1 \, 2 \, 3 \, 4;
#X msg 379 123 1 \, 2 \, 3 \, 4;
#X obj 379 145 pack f 0;
#X obj 300 104 bng 15 250 50 0 empty empty all-on 17 7 0 10 -262144
-1 -1;
#X obj 379 103 bng 15 250 50 0 empty empty all-off 17 7 0 10 -262144
-1 -1;
#X obj 22 104 tgl 15 0 1-sigmund-switch 1-sigmund-switch-set 1-sigmund-switch
17 7 0 10 -262144 -1 -1 0 1;
#X obj 167 104 tgl 15 0 2-sigmund-switch 2-sigmund-switch-set 2-sigmund-switch
17 7 0 10 -262144 -1 -1 0 1;
#X obj 25 252 tgl 15 0 3-sigmund-switch 3-sigmund-switch-set 3-sigmund-switch
17 7 0 10 -262144 -1 -1 0 1;
#X obj 170 252 tgl 15 0 4-sigmund-switch 4-sigmund-switch-set 4-sigmund-switch
17 7 0 10 -262144 -1 -1 0 1;
#X obj 16 15 clone -s 1 _input 4;
#X msg 300 176 \; \$1-adc-onoff-set \$2 \; \$1-env-switch-set \$2 \;
monitor-set \$2 \; \$1-adc-gain-set \$2 \; \$1-sigmund-switch-set \$2
\;;
#X text 302 9 1 = flute + violin;
#X text 302 29 2 = clarinet + cello;
#X text 302 49 3 = perc;
#X text 302 69 4 = piano;
#X connect 21 0 32 0;
#X connect 22 0 21 0;
#X connect 23 0 24 0;
#X connect 24 0 32 0;
#X connect 25 0 22 0;
#X connect 26 0 23 0;
#X restore 256 20 pd inputs;
#X obj 255 65 fd_windows \$0 2048;
#N canvas 379 409 450 300 harm 0;
#X obj 49 68 r 2-peak-harmbang;
#X obj 110 96 r s-grain-window;
#X obj 208 158 switch~;
#X obj 235 100 tgl 15 0 empty empty empty 17 7 0 10 -262144 -1 -1 1
1;
#X obj 50 147 clone _harm 10 \$0;
#X connect 0 0 4 0;
#X connect 3 0 4 1;
#X restore 291 224 pd harm;
