#N struct template-1 float x float y float z float s float id array
array-1 template-1-element;
#N struct template-1-element float y float s float w;
#N struct template-2 float x float y float z float s float id array
array-2 template-2-element;
#N struct template-2-element float y float s float w;
#N struct template-3 float x float y float z float s float id array
array-3 template-3-element;
#N struct template-3-element float y float s float w;
#N struct template-4 float x float y float z float s float id array
array-4 template-4-element;
#N struct template-4-element float y float s float w;
#N struct template-5 float x float y float z float s float id array
array-5 template-5-element;
#N struct template-5-element float y float s float w;
#N struct template-6 float x float y float z float s float id array
array-6 template-6-element;
#N struct template-6-element float y float s float w;
#N struct template-7 float x float y float z float s float id array
array-7 template-7-element;
#N struct template-7-element float y float s float w;
#N struct template-8 float x float y float z float s float id array
array-8 template-8-element;
#N struct template-8-element float y float s float w;
#N canvas 1069 35 188 531 12;
#X declare -path ../_lib -path ../samples -path ~/Documents/dep/tID
-stdpath mrpeach -stdlib mrpeach -stdpath tID -stdlib tID;
#N canvas 279 43 441 539 controls 0;
#X obj 19 6 cnv 15 400 30 empty instructions section-7 15 15 0 14 -33289
-262144 0;
#X obj 21 41 bng 20 50 10 0 panic empty panic 25 7 0 10 -258113 -1
-1;
#N canvas 130 29 495 459 write 0;
#X obj 159 149 f;
#X obj 201 150 + 1;
#X msg 201 175 set \$1;
#X obj 242 147 loadbang;
#X obj 30 251 list prepend;
#X msg 201 200 7;
#X obj 35 12 inlet;
#X obj 175 229 outlet;
#X obj 35 67 t b b b b;
#X floatatom 288 181 5 0 0 1 stored_presets - -, f 5;
#X msg 199 70 0;
#X obj 199 95 t b f;
#X msg 288 203 \; stored-presets number \$1 \, label \$1-presets,
f 25;
#X obj 30 113 f;
#X obj 30 138 until;
#X obj 30 163 f;
#X obj 62 163 + 1;
#X floatatom 65 117 5 0 0 0 - - -, f 5;
#X obj 65 92 r envelopes-max;
#X msg 78 138 1;
#X obj 35 37 route store reset, f 24;
#X msg 96 349 \; pd-data-\$2 write /Users/nyu/Desktop/a.le-4.a-master/presets/preset-\$1-id-\$2.txt
;
#X msg 30 282 \; pd-data-\$2 write /Users/federicocamarahalac/Documents/fd_work/a.le.a/presets/preset-\$1-id-\$2.txt
;
#X connect 0 0 1 0;
#X connect 0 0 4 1;
#X connect 1 0 0 1;
#X connect 1 0 2 0;
#X connect 1 0 7 0;
#X connect 1 0 9 0;
#X connect 2 0 5 0;
#X connect 3 0 5 0;
#X connect 4 0 22 0;
#X connect 5 0 0 1;
#X connect 5 0 7 0;
#X connect 5 0 9 0;
#X connect 6 0 20 0;
#X connect 8 1 13 0;
#X connect 8 2 19 0;
#X connect 8 3 0 0;
#X connect 9 0 12 0;
#X connect 10 0 11 0;
#X connect 11 0 5 0;
#X connect 11 1 2 0;
#X connect 13 0 14 0;
#X connect 14 0 15 0;
#X connect 15 0 16 0;
#X connect 15 0 4 0;
#X connect 16 0 15 1;
#X connect 18 0 13 1;
#X connect 18 0 17 0;
#X connect 19 0 15 1;
#X connect 20 0 8 0;
#X connect 20 1 10 0;
#X restore 42 487 pd write;
#N canvas 0 22 785 548 read 0;
#X obj 69 214 list prepend;
#X obj 81 119 f;
#X obj 81 144 until;
#X obj 81 169 f;
#X obj 113 169 + 1;
#X obj 116 98 r envelopes-max;
#X msg 129 144 1;
#X obj 23 73 t b b b f;
#X obj 21 449 s reload;
#X obj 515 220 r reload;
#X obj 515 324 print;
#X obj 515 258 f;
#X msg 515 283 loaded preset \$1;
#X obj 22 7 inlet;
#X obj 22 32 route float open, f 54;
#X obj 275 63 t b f;
#X obj 275 88 openpanel;
#X obj 275 113 list append;
#X msg 275 138 \; pd-data-\$2 read \$1;
#X msg 125 335 \; pd-data-\$2 read /Users/nyu/Desktop/a.le-4.a-master/presets/preset-\$1-id-\$2.txt
;
#X msg 67 245 \; pd-data-\$2 read /Users/federicocamarahalac/Documents/fd_work/a.le.a/presets/preset-\$1-id-\$2.txt
;
#X connect 0 0 20 0;
#X connect 1 0 2 0;
#X connect 2 0 3 0;
#X connect 3 0 4 0;
#X connect 3 0 0 0;
#X connect 4 0 3 1;
#X connect 5 0 1 1;
#X connect 6 0 3 1;
#X connect 7 0 8 0;
#X connect 7 1 1 0;
#X connect 7 2 6 0;
#X connect 7 3 0 1;
#X connect 7 3 11 1;
#X connect 9 0 11 0;
#X connect 11 0 12 0;
#X connect 12 0 10 0;
#X connect 13 0 14 0;
#X connect 14 0 7 0;
#X connect 14 1 15 0;
#X connect 15 0 16 0;
#X connect 15 1 17 1;
#X connect 16 0 17 0;
#X connect 17 0 18 0;
#X restore 149 484 pd read;
#X text 41 382 store / write;
#X text 150 381 load / read;
#X obj 149 416 hradio 15 1 0 7 empty stored-presets 7-presets 0 -8
0 10 -262144 -1 -1 6;
#X msg 53 458 reset;
#X text 23 354 Storing presets for (only) the data;
#X msg 159 448 open 1;
#X msg 42 408 store;
#X msg 178 126 bang;
#N canvas 0 22 595 416 single-morphing 0;
#X msg 124 31 Hann;
#X obj 125 182 makefilename data%s, f 12;
#X obj 125 163 symbol;
#X msg 140 53 Exp;
#X msg 151 74 Rand;
#X msg 162 98 Line;
#X msg 171 123 Walk;
#X obj 125 217 list append 2000;
#X msg 153 256 \; \$1 7 \; dataMorph all 7 \$2 \;;
#X msg 233 107 5000;
#X obj 126 301 list split 1;
#X obj 162 324 del;
#X obj 162 346 bng 15 250 50 0 empty empty empty 17 7 0 10 -262144
-1 -1;
#X obj 288 254 bng 15 250 50 0 empty empty empty 17 7 0 10 -262144
-1 -1;
#X obj 126 236 t a a b;
#X floatatom 340 258 5 0 0 0 - - -, f 5;
#X msg 316 281 \; dataMorph all delit 30 \$1;
#X msg 319 236 100;
#X msg 249 162 200;
#X msg 219 72 10000;
#X msg 252 185 100;
#X msg 243 138 1000;
#X connect 0 0 2 0;
#X connect 1 0 7 0;
#X connect 2 0 1 0;
#X connect 3 0 2 0;
#X connect 4 0 2 0;
#X connect 5 0 2 0;
#X connect 6 0 2 0;
#X connect 7 0 14 0;
#X connect 9 0 7 1;
#X connect 10 1 11 0;
#X connect 11 0 12 0;
#X connect 14 0 10 0;
#X connect 14 1 8 0;
#X connect 14 2 13 0;
#X connect 15 0 16 0;
#X connect 17 0 16 0;
#X connect 18 0 7 1;
#X connect 19 0 7 1;
#X connect 20 0 7 1;
#X connect 21 0 7 1;
#X restore 180 180 pd single-morphing;
#N canvas 89 106 636 515 random-morphing 0;
#X msg 85 245 Hann;
#X obj 206 242 makefilename data%s, f 12;
#X obj 206 223 symbol;
#X msg 101 267 Exp;
#X msg 112 288 Rand;
#X msg 123 312 Line;
#X msg 132 337 Walk;
#X obj 264 314 list append 2000;
#X msg 372 170 5000;
#X obj 369 431 del;
#X obj 383 457 bng 15 250 50 0 empty empty empty 17 7 0 10 -262144
-1 -1;
#X obj 426 361 bng 15 250 50 0 empty empty empty 17 7 0 10 -262144
-1 -1;
#X obj 264 343 t a a b;
#X msg 388 225 200;
#X msg 358 135 10000;
#X msg 391 248 100;
#X msg 382 201 1000;
#X obj 105 10 tgl 15 0 empty empty empty 17 7 0 10 -262144 -1 -1 0
1;
#X obj 105 32 metro 1000;
#X obj 115 55 random 1000;
#X obj 115 77 + 130;
#X obj 115 99 t f f;
#X obj 100 182 random 5;
#X obj 86 211 sel 0 1 2 3 4;
#X obj 206 277 list append 1;
#X obj 287 139 random 7;
#X obj 287 161 sel 0;
#X msg 290 188 all;
#X msg 286 380 \; \$1 7 \; dataMorph \$2 7 \$3 \;;
#X floatatom 172 81 5 0 0 0 - - -, f 5;
#X obj 266 442 list split 2;
#X obj 115 121 spigot 1;
#X msg 496 216 0;
#X msg 506 327 1;
#X floatatom 216 39 5 0 0 0 - - -, f 5;
#X obj 334 7 inlet;
#X obj 115 140 t b b f;
#X obj 334 29 random 200;
#X obj 334 51 + 100;
#X floatatom 326 190 5 0 0 0 - - -, f 5;
#X connect 0 0 2 0;
#X connect 1 0 24 0;
#X connect 2 0 1 0;
#X connect 3 0 2 0;
#X connect 4 0 2 0;
#X connect 5 0 2 0;
#X connect 6 0 2 0;
#X connect 7 0 12 0;
#X connect 8 0 7 1;
#X connect 9 0 10 0;
#X connect 10 0 33 0;
#X connect 11 0 32 0;
#X connect 12 0 30 0;
#X connect 12 1 28 0;
#X connect 12 2 11 0;
#X connect 13 0 7 1;
#X connect 14 0 7 1;
#X connect 15 0 7 1;
#X connect 16 0 7 1;
#X connect 17 0 18 0;
#X connect 18 0 19 0;
#X connect 19 0 20 0;
#X connect 20 0 21 0;
#X connect 21 0 31 0;
#X connect 21 1 18 1;
#X connect 21 1 29 0;
#X connect 22 0 23 0;
#X connect 23 0 0 0;
#X connect 23 1 3 0;
#X connect 23 2 4 0;
#X connect 23 3 5 0;
#X connect 23 4 6 0;
#X connect 24 0 7 0;
#X connect 25 0 26 0;
#X connect 26 0 27 0;
#X connect 26 1 24 1;
#X connect 26 1 39 0;
#X connect 27 0 24 1;
#X connect 30 1 9 0;
#X connect 31 0 36 0;
#X connect 33 0 31 1;
#X connect 34 0 20 1;
#X connect 35 0 37 0;
#X connect 36 0 22 0;
#X connect 36 1 25 0;
#X connect 36 2 7 1;
#X connect 37 0 38 0;
#X connect 38 0 36 0;
#X restore 178 150 pd random-morphing;
#N canvas 204 37 732 598 transitionParams 0;
#X msg 33 19 bang;
#X obj 34 63 unpack f f f;
#X obj 34 85 + 1;
#X obj 34 107 pack f f f;
#X msg 139 13 reset;
#X msg 34 156 \; _bParams-\$1 \$2 \$3 freq set stoch \;;
#X msg 262 18 bang;
#X obj 263 62 unpack f f f;
#X obj 263 84 + 1;
#X msg 368 12 reset;
#X obj 330 83 t f b;
#X obj 263 123 pack f f f f;
#X obj 391 79 random 100;
#X obj 391 101 + 1;
#X obj 391 123 / 10;
#X msg 480 19 bang;
#X obj 481 63 unpack f f f;
#X obj 481 85 + 1;
#X msg 586 13 reset;
#X obj 548 84 t f b;
#X obj 481 124 pack f f f f;
#X obj 609 80 random 100;
#X obj 609 102 + 1;
#X obj 609 124 / 10;
#X msg 481 156 \; _bParams-\$1 \$2 \$3 f min \$4 \;;
#X msg 35 208 bang;
#X obj 36 282 unpack f f f;
#X obj 36 304 + 1;
#X msg 141 202 reset;
#X msg 263 155 \; _bParams-\$1 \$2 \$3 f range \$4 \;;
#X obj 147 294 random 100;
#X obj 147 316 + 1;
#X obj 147 338 / 10;
#X obj 227 294 random 100;
#X obj 297 294 random 100;
#X obj 297 316 + 1;
#X obj 297 338 / 10;
#X msg 36 476 \; _bParams-\$1 \$2 \$3 f range \$4 \; _bParams-\$1 \$2
\$3 f min \$5 \; _bParams-\$1 \$2 \$3 f q \$6 \; _bParams-\$1 \$2 \$3
freq set \$7 \; _bParams-\$1 \$2 \$3 offset \$8 \; _bParams-\$1 \$2
\$3 amp \$9 \;;
#X obj 514 316 + 1;
#X obj 514 338 / 10;
#X obj 36 252 t a b b b b b b, f 85;
#X obj 227 316 / 100;
#X obj 227 338 + 0.1;
#X obj 297 360 + 0.01;
#X obj 403 280 random 5;
#X obj 36 437 pack 1 2 3 4 5 6 s 8 9, f 95;
#X obj 403 302 sel 0 1 2 3 4;
#X msg 385 330 stoch;
#X obj 391 404 symbol;
#X msg 395 350 sin;
#X msg 405 370 cos;
#X obj 430 335 pack \$0;
#X obj 442 377 pack \$0;
#X msg 430 357 \$1-sin;
#X msg 442 399 \$1-bla;
#X obj 514 293 random 1000;
#X obj 590 337 dbtorms;
#X obj 590 315 + 40;
#X obj 590 293 random 50;
#X obj 590 359 + 0.5;
#X text 222 233 randomize _bParams;
#X obj 36 230 fd_mtxdelit 4 10 5 230;
#X obj 34 41 fd_mtxdelit 4 10 5 100;
#X obj 263 40 fd_mtxdelit 4 10 5 100;
#X obj 481 41 fd_mtxdelit 4 10 5 100;
#X obj 273 202 bng 15 250 50 0 empty empty done 17 7 0 10 -262144 -1
-1;
#X connect 0 0 62 0;
#X connect 1 0 2 0;
#X connect 1 1 3 1;
#X connect 1 2 3 2;
#X connect 2 0 3 0;
#X connect 3 0 5 0;
#X connect 4 0 62 1;
#X connect 6 0 63 0;
#X connect 7 0 8 0;
#X connect 7 1 11 1;
#X connect 7 2 10 0;
#X connect 8 0 11 0;
#X connect 9 0 63 1;
#X connect 10 0 11 2;
#X connect 10 1 12 0;
#X connect 11 0 29 0;
#X connect 12 0 13 0;
#X connect 13 0 14 0;
#X connect 14 0 11 3;
#X connect 15 0 64 0;
#X connect 16 0 17 0;
#X connect 16 1 20 1;
#X connect 16 2 19 0;
#X connect 17 0 20 0;
#X connect 18 0 64 1;
#X connect 19 0 20 2;
#X connect 19 1 21 0;
#X connect 20 0 24 0;
#X connect 21 0 22 0;
#X connect 22 0 23 0;
#X connect 23 0 20 3;
#X connect 25 0 61 0;
#X connect 26 0 27 0;
#X connect 26 1 45 1;
#X connect 26 2 45 2;
#X connect 27 0 45 0;
#X connect 28 0 61 1;
#X connect 30 0 31 0;
#X connect 31 0 32 0;
#X connect 32 0 45 3;
#X connect 33 0 41 0;
#X connect 34 0 35 0;
#X connect 35 0 36 0;
#X connect 36 0 43 0;
#X connect 38 0 39 0;
#X connect 39 0 45 7;
#X connect 40 0 26 0;
#X connect 40 1 30 0;
#X connect 40 2 33 0;
#X connect 40 3 34 0;
#X connect 40 4 44 0;
#X connect 40 5 55 0;
#X connect 40 6 58 0;
#X connect 41 0 42 0;
#X connect 42 0 45 4;
#X connect 43 0 45 5;
#X connect 44 0 46 0;
#X connect 45 0 37 0;
#X connect 46 0 47 0;
#X connect 46 1 49 0;
#X connect 46 2 50 0;
#X connect 46 3 51 0;
#X connect 46 4 52 0;
#X connect 47 0 48 0;
#X connect 48 0 45 6;
#X connect 49 0 48 0;
#X connect 50 0 48 0;
#X connect 51 0 53 0;
#X connect 52 0 54 0;
#X connect 53 0 48 0;
#X connect 54 0 48 0;
#X connect 55 0 38 0;
#X connect 56 0 59 0;
#X connect 57 0 56 0;
#X connect 58 0 57 0;
#X connect 59 0 45 8;
#X connect 61 0 40 0;
#X connect 61 1 65 0;
#X connect 62 0 1 0;
#X connect 63 0 7 0;
#X connect 64 0 16 0;
#X restore 176 209 pd transitionParams;
#X obj 320 44 r midievent;
#X obj 320 66 list split 1;
#X floatatom 320 88 5 0 0 0 - - -, f 5;
#N canvas 0 22 530 445 _barkedParams 0;
#X floatatom 400 236 5 0 0 0 - - -, f 5;
#X obj 400 255 s length;
#X msg 222 56 stoch;
#X msg 238 81 sin;
#X msg 246 106 cos;
#X obj 222 130 symbol;
#X floatatom 150 220 5 0 0 0 - - -, f 5;
#X obj 161 26 fd_tabswitch \$0;
#X floatatom 339 178 5 0 0 0 - - -, f 5;
#X msg 320 203 list min \$1;
#X msg 229 203 list range \$1;
#X msg 150 239 list offset \$1;
#X msg 165 154 list freq set \$1;
#X obj 238 247 list prepend f;
#X obj 161 316 list trim;
#X msg 99 190 list amp \$1;
#X floatatom 100 169 5 0 0 0 - - -, f 5;
#X floatatom 378 119 5 0 0 0 - - -, f 5;
#X obj 378 141 mtof;
#X floatatom 319 107 5 0 0 0 - - -, f 5;
#X floatatom 278 174 5 0 0 0 - - -, f 5;
#X obj 161 338 s _barkedParams;
#X obj 161 294 list prepend all all;
#X floatatom 412 179 5 0 0 0 - - -, f 5;
#X msg 412 198 list q \$1;
#X obj 316 144 mtof;
#X connect 0 0 1 0;
#X connect 2 0 5 0;
#X connect 3 0 5 0;
#X connect 4 0 5 0;
#X connect 5 0 12 0;
#X connect 6 0 11 0;
#X connect 7 0 12 0;
#X connect 8 0 9 0;
#X connect 9 0 13 0;
#X connect 10 0 13 0;
#X connect 11 0 22 0;
#X connect 12 0 22 0;
#X connect 13 0 22 0;
#X connect 14 0 21 0;
#X connect 15 0 22 0;
#X connect 16 0 15 0;
#X connect 17 0 18 0;
#X connect 18 0 8 0;
#X connect 19 0 25 0;
#X connect 20 0 10 0;
#X connect 22 0 14 0;
#X connect 23 0 24 0;
#X connect 24 0 13 0;
#X connect 25 0 20 0;
#X restore 34 143 pd _barkedParams;
#N canvas 0 22 536 579 dataStructures 0;
#X msg 86 69 all bang;
#X obj 122 119 s dataExp;
#X msg 133 162 all bang;
#X obj 133 184 s dataHann;
#X msg 161 77 type all 1 \,;
#X msg 303 47 1 coeff \$1 \, 1;
#X floatatom 303 28 5 0 0 0 - - -, f 5;
#X msg 112 470 \; pd-data-\$1 vis 1;
#X floatatom 272 81 5 0 0 0 - - -, f 5;
#X msg 271 100 type 2 0 \, 2 coeff \$1 \, 2;
#X msg 317 80 14;
#X msg 342 26 8;
#X msg 242 467 \; pd-data-\$1 vis 0;
#X obj 112 418 hradio 15 1 0 8 empty empty see_data 0 -8 0 10 -262144
-1 -1 1;
#X obj 112 438 + 1;
#X msg 242 445 1 \, 2 \, 3 \, 4 \, 5 \, 6 \, 7 \, 8;
#X obj 242 417 bng 15 250 50 0 empty empty hide_data 17 7 0 10 -262144
-1 -1;
#X obj 294 225 s dataMorph;
#X msg 232 153 all invert 5000;
#X obj 136 231 s dataRand;
#X msg 136 209 all bang;
#X msg 82 214 7;
#X msg 89 167 7;
#X msg 339 151 all 7 10000;
#X msg 25 45 type all 1 \, 1 \, 3 \, 5 \, type all 0 \, 2 \, 4 \, 6
;
#X msg 136 259 all bang;
#X msg 82 264 7;
#X msg 136 316 all bang;
#X msg 82 321 7;
#X msg 206 321 all const \$1;
#X floatatom 206 303 5 0 0 0 - - -, f 5;
#X obj 136 338 s dataLine;
#X obj 136 281 s dataWalk;
#X msg 288 176 1 7 1000 \, 2 7 3999 \, 4 7 2000;
#X obj 296 314 s dataDroplet;
#X msg 296 292 1 bang;
#X msg 205 264 all range 50 55 \, all bang;
#X msg 215 234 type all 1;
#X msg 228 353 type 1 1 \, 1;
#X msg 122 511 1 \, 2 \, 3 \, 4 \, 5 \, 6 \, 7 \, 8;
#X connect 0 0 1 0;
#X connect 2 0 3 0;
#X connect 5 0 1 0;
#X connect 6 0 5 0;
#X connect 8 0 9 0;
#X connect 9 0 1 0;
#X connect 10 0 9 0;
#X connect 11 0 5 0;
#X connect 13 0 14 0;
#X connect 14 0 7 0;
#X connect 15 0 12 0;
#X connect 16 0 15 0;
#X connect 18 0 17 0;
#X connect 20 0 19 0;
#X connect 21 0 19 0;
#X connect 22 0 3 0;
#X connect 23 0 17 0;
#X connect 24 0 1 0;
#X connect 25 0 32 0;
#X connect 26 0 32 0;
#X connect 27 0 31 0;
#X connect 28 0 31 0;
#X connect 29 0 31 0;
#X connect 30 0 29 0;
#X connect 33 0 17 0;
#X connect 35 0 34 0;
#X connect 36 0 32 0;
#X connect 37 0 32 0;
#X connect 38 0 31 0;
#X connect 39 0 7 0;
#X restore 29 175 pd dataStructures;
#N canvas 0 22 389 474 switching-tests 0;
#X obj 213 118 timer;
#X obj 94 118 random 10;
#X obj 113 31 t b b b;
#X obj 156 118 random 5;
#X obj 61 70 t b b b;
#X obj 87 171 pack f f f f;
#X obj 39 119 random 4;
#X obj 66 145 + 1;
#X obj 106 266 del;
#X obj 108 290 bng 15 250 50 0 empty empty empty 17 7 0 10 -262144
-1 -1;
#X obj 73 245 list split 3;
#X obj 88 323 list;
#X msg 88 400 \; _bSwitch-\$1 \$2 \$3 0;
#X msg 176 286 set \$1 \$2 \$3;
#X msg 180 308 3 3 4;
#X msg 167 220 \; _bSwitch-\$1 \$2 \$3 1 \; \$1-barked \$4 \;;
#X obj 100 199 t a a b;
#X obj 135 290 bng 15 250 50 0 empty empty empty 17 7 0 10 -262144
-1 -1;
#X obj 129 324 list;
#X obj 88 345 t a b;
#X obj 129 367 list;
#X msg 190 339 set \$1 \$2 \$3;
#X msg 194 361 3 4 2;
#X msg 223 386 set \$1 \$2 \$3;
#X msg 227 408 3 3 4;
#X obj 213 55 r midistart;
#X connect 0 0 5 3;
#X connect 1 0 5 1;
#X connect 2 0 4 0;
#X connect 2 1 0 0;
#X connect 2 2 0 1;
#X connect 3 0 5 2;
#X connect 4 0 6 0;
#X connect 4 1 1 0;
#X connect 4 2 3 0;
#X connect 5 0 16 0;
#X connect 6 0 7 0;
#X connect 7 0 5 0;
#X connect 8 0 9 0;
#X connect 9 0 11 0;
#X connect 10 0 11 1;
#X connect 10 0 18 1;
#X connect 10 1 8 0;
#X connect 11 0 19 0;
#X connect 13 0 14 0;
#X connect 16 0 10 0;
#X connect 16 1 15 0;
#X connect 16 1 13 0;
#X connect 16 2 17 0;
#X connect 17 0 18 0;
#X connect 18 0 20 1;
#X connect 19 0 12 0;
#X connect 19 0 23 0;
#X connect 19 1 20 0;
#X connect 20 0 12 0;
#X connect 20 0 21 0;
#X connect 21 0 22 0;
#X connect 23 0 24 0;
#X connect 25 0 0 0;
#X restore 22 210 pd switching-tests;
#X text 60 98 manually carve these:;
#N canvas 0 22 1007 598 section-presets 0;
#X msg 27 20 \; _barkedParams all all freq set cos \; _barkedParams
all all amp 0.61 \; _barkedParams all all offset 20 \; _barkedParams
all all f range 1 \; _barkedParams all all f min 1 \; _barkedParams
all all f q 1.05 \; \; \; length 40 \; \; \; stored-presets 6 \; \;
_barkedSwitch all all 1 \;;
#X msg 332 20 \; _barkedParams all all freq set stoch \; _barkedParams
all all amp 0.8 \; _barkedParams all all offset 7 \; _barkedParams
all all f range 1.5 \; _barkedParams all all f min 2 \; _barkedParams
all all f q 4 \; \; \; length 2 \; \; \; stored-presets 0 \; \; _barkedSwitch
all all 1 \;;
#X msg 680 20 \; length 1 \; _barkedParams all all amp 0.5 \; dataExp
type 1 0 \, 1 \; dataExp type 2 1 \, 2 \; dataWalk 3 range 54 43 \,
3 \; dataHann type 4 0 \, 4 \; dataLine type 5 1 \, 5 \; dataExp type
6 1 \, 6 \;;
#X msg 49 357 1 \, 2 \, 3 \, 4;
#X msg 49 418 \; \$1-adc-onoff-set \$2 \; \$1-env-switch-set \$2 \;
monitor-set \$2 \; \$1-adc-gain-set \$2 \; \$1-sigmund-switch-set \$2
\; \$1-bark-switch-set \$2 \;;
#X obj 49 330 t b f;
#X obj 49 389 pack;
#X msg 158 341 1 \, 2 \, 3 \, 4;
#N canvas 590 432 450 300 no-analysis 0;
#X obj 43 51 inlet;
#X msg 43 112 \; \$1-sigmund-switch-set 0 \; \$1-bark-switch-set 0
\; \$1-env-switch-set 0 \; monitor-set 0 \;;
#X connect 0 0 1 0;
#X restore 158 366 pd no-analysis;
#X msg 49 305 1;
#X msg 84 305 0;
#X obj 454 436 tgl 15 0 empty empty switch 17 7 0 10 -262144 -1 -1
0 1;
#X obj 406 500 s _barkedSwitch;
#X msg 406 477 all all \$1;
#X msg 386 305 \; fd_clicktrack-0 144;
#X msg 388 350 \; fd_clicktrack-0 reset;
#X connect 3 0 6 0;
#X connect 5 0 3 0;
#X connect 5 1 6 1;
#X connect 6 0 4 0;
#X connect 7 0 8 0;
#X connect 9 0 5 0;
#X connect 10 0 5 0;
#X connect 11 0 13 0;
#X connect 13 0 12 0;
#X restore 70 303 pd section-presets;
#X text 30 271 and store them in presets;
#X connect 6 0 3 0;
#X connect 7 0 2 0;
#X connect 9 0 3 0;
#X connect 10 0 2 0;
#X connect 11 0 13 0;
#X connect 15 0 16 0;
#X connect 16 0 17 0;
#X restore 15 290 pd controls;
#N canvas 256 193 545 353 load-samples 0;
#N canvas 0 22 551 311 arrays 0;
#X obj 13 15 array define clar-0;
#X obj 13 35 array define clar-1;
#X obj 13 55 array define clar-2;
#X obj 13 75 array define clar-3;
#X obj 13 95 array define clar-4;
#X obj 13 115 array define clar-5;
#X obj 13 135 array define clar-6;
#X obj 13 155 array define clar-7;
#X obj 13 175 array define clar-8;
#X obj 133 15 array define flute-0;
#X obj 133 35 array define flute-1;
#X obj 133 55 array define flute-2;
#X obj 133 75 array define flute-3;
#X obj 133 95 array define flute-4;
#X obj 133 115 array define flute-5;
#X obj 133 135 array define flute-6;
#X obj 133 155 array define flute-7;
#X obj 133 175 array define flute-8;
#X obj 67 203 array define perc-0;
#X obj 67 223 array define perc-1;
#X obj 67 243 array define perc-2;
#X obj 260 15 array define violin-0;
#X obj 260 35 array define violin-1;
#X obj 260 55 array define violin-2;
#X obj 260 75 array define violin-3;
#X obj 260 95 array define violin-4;
#X obj 260 115 array define violin-5;
#X obj 260 135 array define violin-6;
#X obj 260 155 array define violin-7;
#X obj 260 175 array define violin-8;
#X obj 260 195 array define violin-9;
#X obj 393 15 array define voice-0;
#X obj 393 35 array define voice-1;
#X obj 393 55 array define voice-2;
#X obj 393 75 array define voice-3;
#X obj 393 95 array define voice-4;
#X obj 393 115 array define voice-5;
#X obj 393 135 array define voice-6;
#X obj 393 155 array define voice-7;
#X obj 393 175 array define voice-8;
#X obj 393 195 array define voice-9;
#X obj 393 215 array define voice-10;
#X obj 393 235 array define voice-11;
#X obj 393 255 array define voice-12;
#X obj 14 281 array define clarinete;
#X restore 426 29 pd arrays;
#X obj 23 312 soundfiler;
#X msg 23 290 read -resize ../samples/\$1.wav \$1;
#X msg 23 35 bang;
#X text 64 32 <-- damn never seen a message like this...;
#X obj 23 4 loadbang;
#X msg 23 66 symbol clar-0 \, symbol clar-1 \, symbol clar-2 \, symbol
clar-3 \, symbol clar-4 \, symbol clar-5 \, symbol clar-6 \, symbol
clar-7 \, symbol clar-8 \, symbol flute-0 \, symbol flute-1 \, symbol
flute-2 \, symbol flute-3 \, symbol flute-4 \, symbol flute-5 \, symbol
flute-6 \, symbol flute-7 \, symbol flute-8 \, symbol perc-0 \, symbol
perc-1 \, symbol perc-2 \, symbol violin-0 \, symbol violin-1 \, symbol
violin-2 \, symbol violin-3 \, symbol violin-4 \, symbol violin-5 \,
symbol violin-6 \, symbol violin-7 \, symbol violin-8 \, symbol violin-9
\, symbol voice-0 \, symbol voice-1 \, symbol voice-2 \, symbol voice-3
\, symbol voice-4 \, symbol voice-5 \, symbol voice-6 \, symbol voice-7
\, symbol voice-8 \, symbol voice-9 \, symbol voice-10 \, symbol voice-11
\, symbol voice-12 \, symbol clarinete;
#X connect 2 0 1 0;
#X connect 3 0 6 0;
#X connect 5 0 3 0;
#X connect 6 0 2 0;
#X restore 15 158 pd load-samples;
#N canvas 79 148 306 174 declares 0;
#X obj 13 11 declare -path ../_lib -path ../samples -path ~/Documents/dep/tID
-stdpath mrpeach -stdlib mrpeach -stdpath tID -stdlib tID, f 26;
#X restore 15 9 pd declares;
#N canvas 726 37 328 371 inputs 0;
#X obj 22 94 tgl 15 0 1-env-switch 1-env-switch-set 1-env-switch 17
7 0 10 -262144 -1 -1 0 1;
#X obj 167 94 tgl 15 0 2-env-switch 2-env-switch-set 2-env-switch 17
7 0 10 -262144 -1 -1 0 1;
#X obj 22 75 tgl 15 0 1-adc-onoff 1-adc-onoff-set 1-adc-onoff 17 7
0 10 -262144 -1 -1 1 1;
#X obj 167 75 tgl 15 0 2-adc-onoff 2-adc-onoff-set 2-adc-onoff 17 7
0 10 -262144 -1 -1 1 1;
#X obj 25 242 tgl 15 0 3-env-switch 3-env-switch-set 3-env-switch 17
7 0 10 -262144 -1 -1 0 1;
#X obj 170 242 tgl 15 0 4-env-switch 4-env-switch-set 4-env-switch
17 7 0 10 -262144 -1 -1 0 1;
#X obj 25 223 tgl 15 0 3-adc-onoff 3-adc-onoff-set 3-adc-onoff 17 7
0 10 -262144 -1 -1 1 1;
#X obj 170 223 tgl 15 0 4-adc-onoff 4-adc-onoff-set 4-adc-onoff 17
7 0 10 -262144 -1 -1 1 1;
#X obj 22 171 nbx 5 14 0 1e+37 0 0 1-adc-gain 1-adc-gain-set 1-adc-gain
0 -8 0 10 -262144 -1 -1 1 256;
#X obj 163 168 nbx 5 14 0 1e+37 0 0 2-adc-gain 2-adc-gain-set 2-adc-gain
0 -8 0 10 -262144 -1 -1 1 256;
#X obj 23 318 nbx 5 14 0 1e+37 0 0 3-adc-gain 3-adc-gain-set 3-adc-gain
0 -8 0 10 -262144 -1 -1 1 256;
#X obj 163 318 nbx 5 14 0 1e+37 0 0 4-adc-gain 4-adc-gain-set 4-adc-gain
0 -8 0 10 -262144 -1 -1 1 256;
#X floatatom 93 171 5 0 0 2 1-rms 1-rms -, f 5;
#X floatatom 233 170 5 0 0 2 2-rms 2-rms -, f 5;
#X floatatom 99 316 5 0 0 2 3-rms 3-rms -, f 5;
#X floatatom 240 317 5 0 0 2 4-rms 4-rms -, f 5;
#X obj 255 50 tgl 15 0 monitor monitor-set monitor 17 7 0 10 -262144
-1 -1 0 1;
#X obj 22 114 tgl 15 0 1-sigmund-switch 1-sigmund-switch-set 1-sigmund-switch
17 7 0 10 -262144 -1 -1 0 1;
#X obj 167 114 tgl 15 0 2-sigmund-switch 2-sigmund-switch-set 2-sigmund-switch
17 7 0 10 -262144 -1 -1 0 1;
#X obj 25 262 tgl 15 0 3-sigmund-switch 3-sigmund-switch-set 3-sigmund-switch
17 7 0 10 -262144 -1 -1 0 1;
#X obj 170 262 tgl 15 0 4-sigmund-switch 4-sigmund-switch-set 4-sigmund-switch
17 7 0 10 -262144 -1 -1 0 1;
#X obj 25 282 tgl 15 0 3-bark-switch 3-bark-switch-set 3-bark-switch
17 7 0 10 -262144 -1 -1 0 1;
#X obj 170 282 tgl 15 0 4-bark-switch 4-bark-switch-set 4-bark-switch
17 7 0 10 -262144 -1 -1 0 1;
#X obj 22 134 tgl 15 0 1-bark-switch 1-bark-switch-set 1-bark-switch
17 7 0 10 -262144 -1 -1 0 1;
#X obj 167 134 tgl 15 0 2-bark-switch 2-bark-switch-set 2-bark-switch
17 7 0 10 -262144 -1 -1 0 1;
#X text 18 52 INPUT 1;
#X text 20 200 INPUT 3;
#X text 165 202 INPUT 4;
#X text 164 51 INPUT 2;
#X obj 17 15 clone -s 1 _input 4 10 5 \$0 _barked;
#X restore 15 92 pd inputs;
#X obj 15 180 fd_windows \$0 2048;
#N canvas 166 215 413 400 generate 0;
#N canvas 0 22 450 300 protect 0;
#X obj 49 18 inlet;
#X obj 49 46 t b f b;
#X msg 112 113 menusave;
#X obj 171 157 s pd-test-5.pd;
#X obj 108 262 outlet;
#X obj 96 228 min 50;
#X obj 96 203 max 2;
#X connect 0 0 1 0;
#X connect 1 0 2 0;
#X connect 1 1 6 0;
#X connect 1 2 2 0;
#X connect 2 0 3 0;
#X connect 5 0 4 0;
#X connect 6 0 5 0;
#X restore 26 149 pd protect;
#X obj 130 233 pack f 0;
#X msg 130 265 size \$1 \, numbers \$2, f 10;
#X obj 86 346 send;
#N canvas 692 208 525 373 next 0;
#X obj 162 287 s pd-envelopes;
#X obj 161 28 inlet;
#X obj 414 237 outlet;
#X obj 334 72 f;
#X obj 368 73 + 1;
#X obj 202 207 list append;
#X obj 353 103 t f f f;
#X obj 199 146 list;
#X obj 161 63 t b f b;
#X obj 326 174 + 10;
#X obj 326 149 * 25;
#X obj 350 17 r \$0-clear;
#X msg 350 42 0;
#X msg 188 237 obj 10 \$3 fd_env \$2 \$1 0;
#X connect 1 0 8 0;
#X connect 3 0 4 0;
#X connect 4 0 3 1;
#X connect 4 0 6 0;
#X connect 5 0 13 0;
#X connect 6 0 7 1;
#X connect 6 1 10 0;
#X connect 6 2 2 0;
#X connect 7 0 5 0;
#X connect 8 1 7 0;
#X connect 8 2 3 0;
#X connect 9 0 5 1;
#X connect 10 0 9 0;
#X connect 11 0 12 0;
#X connect 12 0 3 1;
#X connect 13 0 0 0;
#X restore 230 215 pd next;
#X msg 29 207 vis 1;
#N canvas 0 22 398 444 randomvalues 0;
#X obj 36 81 until;
#X obj 36 113 t b b;
#X obj 36 343 list;
#X msg 91 113 0;
#X obj 35 290 random 150;
#X obj 36 7 inlet;
#X obj 71 184 t b f;
#X obj 71 209 f;
#X obj 104 209 + 1;
#X obj 71 158 random 3;
#X obj 36 368 outlet;
#X obj 36 32 t f b;
#X connect 0 0 1 0;
#X connect 1 0 4 0;
#X connect 1 1 9 0;
#X connect 2 0 10 0;
#X connect 3 0 7 1;
#X connect 4 0 2 0;
#X connect 5 0 11 0;
#X connect 6 0 7 0;
#X connect 6 1 8 1;
#X connect 7 0 8 0;
#X connect 7 0 2 1;
#X connect 8 0 7 1;
#X connect 9 0 6 0;
#X connect 11 0 0 0;
#X connect 11 1 3 0;
#X restore 81 207 pd randomvalues;
#X obj 26 176 t b f f f, f 16;
#X msg 212 317 symbol fd_env-\$1;
#X obj 254 265 s envelopes-max;
#X obj 24 100 until;
#X msg 24 125 30;
#X obj 25 22 loadbang;
#X msg 24 74 8;
#X obj 25 44 t b b;
#X msg 87 84 clear;
#X obj 88 105 s pd-envelopes;
#X connect 0 0 7 0;
#X connect 1 0 2 0;
#X connect 2 0 3 0;
#X connect 4 0 8 0;
#X connect 4 0 9 0;
#X connect 6 0 3 0;
#X connect 7 0 5 0;
#X connect 7 1 6 0;
#X connect 7 2 1 0;
#X connect 7 3 4 0;
#X connect 8 0 3 1;
#X connect 10 0 11 0;
#X connect 11 0 0 0;
#X connect 12 0 14 0;
#X connect 13 0 10 0;
#X connect 14 0 13 0;
#X connect 14 1 15 0;
#X connect 15 0 16 0;
#X restore 15 202 pd generate;
#N canvas 0 22 165 185 envelopes 0;
#X obj 10 35 fd_env 1 30 0;
#X obj 10 60 fd_env 2 30 0;
#X obj 10 85 fd_env 3 30 0;
#X obj 10 110 fd_env 4 30 0;
#X obj 10 135 fd_env 5 30 0;
#X obj 10 160 fd_env 6 30 0;
#X obj 10 185 fd_env 7 30 0;
#X obj 10 210 fd_env 8 30 0;
#X restore 15 224 pd envelopes;
#N canvas 0 52 547 304 dataModifiers 0;
#X obj 422 94 clone -s 1 fd_dataRand 7 fd_env, f 11;
#X obj 318 94 clone -s 1 fd_dataWalk 7 fd_env 0, f 11;
#X obj 22 94 clone -s 1 fd_dataLine 7 fd_env 0, f 11;
#X obj 120 94 clone -s 1 fd_dataHann 7 fd_env 0, f 11;
#X obj 222 94 clone -s 1 fd_dataExp 7 fd_env 0, f 10;
#X obj 422 34 r dataRand;
#X obj 318 34 r dataWalk;
#X obj 318 57 route type;
#X obj 23 34 r dataLine;
#X obj 23 57 route type;
#X obj 121 57 route type;
#X obj 121 34 r dataHann;
#X obj 224 57 route type;
#X obj 224 34 r dataExp;
#X obj 287 222 clone -s 1 fd_dataDroplet 7 y, f 14;
#X obj 28 180 r dataMorph;
#X obj 288 171 r dataDroplet;
#X obj 288 194 route type;
#X text 25 8 draw;
#X text 26 159 morph;
#X obj 28 221 clone -s 1 fd_dataMorph 8 30 y, f 12;
#X text 403 169 <-- not working;
#X connect 5 0 0 0;
#X connect 6 0 7 0;
#X connect 7 0 1 1;
#X connect 7 1 1 0;
#X connect 8 0 9 0;
#X connect 9 0 2 1;
#X connect 9 1 2 0;
#X connect 10 0 3 1;
#X connect 10 1 3 0;
#X connect 11 0 10 0;
#X connect 12 0 4 1;
#X connect 12 1 4 0;
#X connect 13 0 12 0;
#X connect 15 0 20 0;
#X connect 16 0 17 0;
#X connect 17 0 14 1;
#X connect 17 1 14 0;
#X restore 15 268 pd dataModifiers;
#N canvas 0 22 508 374 tab 0;
#X obj 120 270 + 1;
#X obj 49 119 random 2000;
#X obj 44 219 - 1000;
#X obj 44 244 / 1000;
#X obj 42 268 t f b;
#X obj 87 269 f;
#X obj 49 89 until;
#X obj 49 170 f;
#X obj 82 168 + 1;
#X obj 49 144 t b f;
#X obj 49 195 mod 2000;
#X obj 101 143 mod 450;
#X obj 44 320 tabwrite stoch;
#X obj 135 21 loadbang;
#X floatatom 143 120 5 0 0 0 - - -, f 5;
#X obj 252 119 array define sin 2048;
#X msg 232 90 sinesum 2048 1;
#X obj 218 243 array define cos 2048;
#X obj 235 283 array define stoch 2048;
#X msg 228 196 cosinesum 2048 1 2 3 \, normalize;
#X msg 211 153 cosinesum 2048 1 2 3 13 1 2 3 1 2 3 \, normalize, f
29;
#X msg 50 62 2048;
#X obj 87 294 mod 2048;
#X connect 0 0 5 1;
#X connect 1 0 9 0;
#X connect 2 0 3 0;
#X connect 3 0 4 0;
#X connect 4 0 12 0;
#X connect 4 1 5 0;
#X connect 5 0 0 0;
#X connect 5 0 22 0;
#X connect 6 0 1 0;
#X connect 7 0 8 0;
#X connect 7 0 10 0;
#X connect 8 0 7 1;
#X connect 9 0 7 0;
#X connect 9 1 11 0;
#X connect 10 0 2 0;
#X connect 11 0 8 1;
#X connect 13 0 16 0;
#X connect 13 0 21 0;
#X connect 13 0 20 0;
#X connect 14 0 11 1;
#X connect 16 0 15 0;
#X connect 19 0 17 0;
#X connect 20 0 17 0;
#X connect 21 0 6 0;
#X connect 22 0 12 1;
#X restore 15 246 pd tab;
#N canvas 596 127 453 485 midi 0;
#X obj 36 120 r 0-pulse;
#X msg 161 130 load;
#X obj 34 48 fd_clicktrack 0;
#X obj 136 221 sel 0;
#X obj 173 270 s midistart;
#X obj 193 202 route lyrics;
#X obj 286 237 route bang;
#X obj 286 259 s midistop;
#X obj 310 287 print fd_midiread, f 11;
#X obj 36 196 route 144;
#X obj 36 416 s midievent;
#X obj 36 229 unpack;
#X obj 36 291 spigot;
#X obj 81 259 t f f;
#X obj 36 347 f;
#X obj 66 347 + 1;
#X obj 36 315 t b f;
#X obj 136 244 t b b;
#X msg 136 270 0;
#X obj 161 99 loadbang;
#X obj 36 162 fd_midiread elec;
#X obj 193 232 symbol;
#X obj 193 303 list fromsymbol, f 10;
#X obj 193 349 list trim;
#X obj 36 379 pack f f f f;
#X obj 228 142 r fd_midi;
#X text 169 48 <-- see fd_clicktrack;
#X connect 0 0 20 0;
#X connect 1 0 20 1;
#X connect 3 0 17 0;
#X connect 5 0 21 0;
#X connect 5 1 6 0;
#X connect 6 0 7 0;
#X connect 6 1 8 0;
#X connect 9 0 11 0;
#X connect 11 0 12 0;
#X connect 11 1 13 0;
#X connect 12 0 16 0;
#X connect 13 0 12 1;
#X connect 13 1 24 2;
#X connect 14 0 15 0;
#X connect 14 0 24 0;
#X connect 15 0 14 1;
#X connect 16 0 14 0;
#X connect 16 1 24 1;
#X connect 17 0 18 0;
#X connect 17 1 4 0;
#X connect 18 0 14 1;
#X connect 19 0 1 0;
#X connect 20 0 9 0;
#X connect 20 1 3 0;
#X connect 20 2 5 0;
#X connect 21 0 22 0;
#X connect 22 0 23 0;
#X connect 23 0 24 3;
#X connect 24 0 10 0;
#X connect 25 0 20 1;
#X restore 15 136 pd midi;
#N canvas 404 37 866 630 finetune-barks 0;
#X obj 641 419 bng 15 250 50 0 empty 4-barked 4-barked 17 7 0 10 -262144
-1 -1;
#X obj 301 152 bng 15 250 50 0 empty 1-barked 1-barked 17 7 0 10 -262144
-1 -1;
#X obj 298 417 bng 15 250 50 0 empty 3-barked 3-barked 17 7 0 10 -262144
-1 -1;
#X obj 639 155 bng 15 250 50 0 empty 2-barked 2-barked 17 7 0 10 -262144
-1 -1;
#X text 198 115 flute + violin;
#X text 540 116 clarinet + cello;
#X text 195 382 percussion;
#X text 535 386 piano;
#X msg 156 185 \; 1-bark debounce 348 \; 1-bark mask 4 0.75 \; 1-bark
filter_range 0 42 \; 1-bark thresh -1 6.5 \; 1-bark minvel 1 \;;
#X msg 157 450 \; 3-bark debounce 348 \; 3-bark mask 4 0.75 \; 3-bark
filter_range 0 42 \; 3-bark thresh -1 6.5 \; 3-bark minvel 1 \;;
#X msg 492 453 \; 4-bark debounce 348 \; 4-bark mask 4 0.75 \; 4-bark
filter_range 0 42 \; 4-bark thresh -1 6.5 \; 4-bark minvel 1 \;;
#X floatatom 181 152 5 0 0 0 - - -, f 5;
#X floatatom 518 151 5 0 0 0 - - -, f 5;
#X floatatom 181 416 5 0 0 0 - - -, f 5;
#X floatatom 520 419 5 0 0 0 - - -, f 5;
#X msg 491 187 \; 2-bark debounce 348 \; 2-bark mask 4 0.75 \; 2-bark
filter_range 0 42 \; 2-bark thresh -1 6.5 \; 2-bark minvel 1 \;;
#X msg 370 203 print;
#X obj 370 228 s 1-bark;
#X msg 707 200 print;
#X msg 371 477 print;
#X msg 706 482 print;
#X obj 707 225 s 2-bark;
#X obj 371 502 s 3-bark;
#X obj 706 507 s 4-bark;
#X obj 156 77 r finetune-barks;
#X obj 491 76 r finetune-barks;
#X obj 157 339 r finetune-barks;
#X obj 492 339 r finetune-barks;
#X text 352 20 FINE TUNE BARKS;
#X connect 11 0 8 0;
#X connect 12 0 15 0;
#X connect 13 0 9 0;
#X connect 14 0 10 0;
#X connect 16 0 17 0;
#X connect 18 0 21 0;
#X connect 19 0 22 0;
#X connect 20 0 23 0;
#X connect 24 0 8 0;
#X connect 25 0 15 0;
#X connect 26 0 9 0;
#X connect 27 0 10 0;
#X restore 15 114 pd finetune-barks;
#N canvas 380 129 626 425 fake-inputs 0;
#X obj 329 301 s~ adc-1;
#X obj 425 300 s~ adc-2;
#X obj 338 278 s~ adc-3;
#X obj 434 278 s~ adc-4;
#X text 351 87 fake inputs for testing \, edit _input afterwards,
f 18;
#X msg 242 153 open ../extra/contraccolpi.wav \, 1;
#X obj 242 181 readsf~ 2;
#X msg 139 125 1;
#X msg 180 125 0;
#X obj 91 261 *~ 0.1;
#X obj 175 262 *~ 0.1;
#X floatatom 136 194 5 0 0 0 - - -, f 5;
#X obj 91 297 throw~ 1-dacout, f 8;
#X obj 175 297 throw~ 2-dacout, f 8;
#X obj 242 91 inlet;
#X connect 5 0 6 0;
#X connect 6 0 0 0;
#X connect 6 0 2 0;
#X connect 6 0 9 0;
#X connect 6 1 1 0;
#X connect 6 1 3 0;
#X connect 6 1 10 0;
#X connect 6 2 5 0;
#X connect 7 0 6 0;
#X connect 8 0 6 0;
#X connect 9 0 12 0;
#X connect 10 0 13 0;
#X connect 11 0 9 1;
#X connect 11 0 10 1;
#X connect 14 0 5 0;
#X restore 15 62 pd fake-inputs;
#X msg 15 39 contraccolpi;
#X obj 16 358 route 1 2, f 15;
#X obj 17 393 vu 15 120 empty empty -1 -8 0 10 -66577 -1 1 0;
#X obj 75 393 vu 15 120 empty empty -1 -8 0 10 -66577 -1 1 0;
#X obj 16 316 clone -s 1 _output 2 dacout, f 16;
#X connect 12 0 11 0;
#X connect 13 0 14 0;
#X connect 13 1 15 0;
#X connect 16 0 13 0;
