#N canvas 18 563 316 67 10;
#X declare -path ~/Documents/fd_lib;
#X declare -stdlib Gem;
#X obj 6 6 fd_netreceive;
#N canvas 1048 49 161 167 VIDEO 0;
#N canvas 0 22 454 473 dependencies 0;
#X text 18 17 declare all dependencies here;
#X obj 19 43 cnv 15 400 400 empty empty empty 20 12 0 14 -233017 -66577
0;
#X obj 40 85 declare -path ~/Documents/fd_lib;
#X obj 40 62 declare -stdlib Gem;
#X restore 7 6 pd dependencies _______;
#N canvas 17 45 236 169 tables 0;
#X text 12 30 place all [array] objects here;
#X obj 19 56 array define example;
#X restore 7 68 pd tables _____________;
#N canvas 828 456 339 250 gui-glue 0;
#X text 19 20 place all gui related glue-type messages;
#X obj 27 99 s report;
#X text 87 104 <-- sending to <report> will print to console, f 24
;
#X obj 27 55 r video;
#X obj 27 77 list prepend video;
#X connect 3 0 4 0;
#X connect 4 0 1 0;
#X restore 7 87 pd gui-glue ___________;
#N canvas 0 22 254 322 presets 0;
#X obj 22 78 bng 15 250 50 0 empty empty empty 17 7 0 10 -262144 -1
-1;
#X text 48 69 Edit the following message with your on-load presets
, f 27;
#X obj 22 16 r video-loadbang;
#X obj 22 38 del 10;
#X msg 22 115 \; \; gemwin-set 1 \; \; borders-set 1 \; video-set 1
\; \; \; \; pd-VIDEO_GUI vis 1 \;;
#X connect 0 0 4 0;
#X connect 2 0 3 0;
#X connect 3 0 0 0;
#X restore 7 107 pd presets ____________;
#N canvas 21 6 486 147 gemheads 1;
#X text 17 11 place [gemheads] here;
#N canvas 869 455 450 300 video 0;
#X obj 22 207 rectangle 5.2 4;
#X obj 22 160 pix_texture;
#X obj 22 73 gemhead 1;
#X obj 22 138 pix_video;
#X obj 22 50 r fps;
#X connect 1 0 0 0;
#X connect 2 0 3 0;
#X connect 3 0 1 0;
#X restore 19 33 pd video;
#N canvas 114 77 824 639 backlight 0;
#X obj 24 224 fd_clicktrack 0;
#X msg 24 21 bang;
#X msg 282 109 rewind;
#X obj 267 25 bng 15 250 50 0 empty empty stop 17 7 0 10 -262144 -1
-1;
#X msg 335 146 load elec;
#X obj 338 96 bng 15 250 50 0 empty empty empty 17 7 0 10 -262144 -1
-1;
#X obj 265 198 fd_midiread;
#X obj 241 138 r 0-pulse;
#X msg 34 200 onoff 0 \, reset;
#X obj 24 71 int 144;
#X msg 49 137 click \$1;
#X obj 59 106 tgl 15 0 empty empty empty 17 7 0 10 -262144 -1 -1 0
1;
#X msg 359 120 load video;
#X msg 441 108 rewind;
#X obj 376 196 fd_midiread;
#X obj 22 338 gemhead;
#X obj 59 549 pix_texture;
#X obj 46 436 color 0 0 0;
#X obj 78 314 t b b;
#X obj 60 373 del 1;
#X obj 264 280 unpack;
#X obj 264 301 spigot;
#X obj 308 300 t f f;
#X obj 265 254 route 144;
#X obj 241 160 t f f;
#X obj 374 283 unpack;
#X obj 374 304 spigot;
#X obj 418 303 t f f;
#X obj 368 258 route 144;
#X obj 46 458 t a b;
#X obj 47 481 translate 0 1 1 1;
#X obj 52 499 rotate 0 1 1 1;
#X obj 52 521 scale 1 1 1 1;
#X obj 200 484 / 90;
#X obj 22 360 alpha;
#X msg 57 410 0 0 0 0.1;
#X obj 60 568 rectangle 5 0.1;
#X obj 614 232 list append;
#X obj 136 16 r start;
#X obj 136 38 t b b;
#X obj 353 14 r stop;
#X obj 471 242 list append;
#X obj 613 302 s to-audio-pd;
#X obj 609 47 route bang;
#X obj 485 267 list prepend midi-elec;
#X obj 628 257 list prepend midi-video;
#X obj 185 454 mod 360;
#X obj 170 422 random 1000;
#X obj 154 498 - 500;
#X obj 154 520 / 1000;
#X obj 154 542 * 4;
#X msg 266 407 1;
#X obj 266 451 t b b;
#X obj 266 473 f;
#X obj 295 473 + 1;
#X obj 266 495 sel 0;
#X obj 299 360 random 100;
#X floatatom 299 382 5 0 0 0 - - -, f 5;
#X obj 299 401 - 1;
#X obj 264 323 t b b b;
#X msg 324 335 0;
#X msg 326 453 0;
#X obj 167 317 bng 15 250 50 0 empty empty empty 17 7 0 10 -262144
-1 -1;
#X obj 266 429 metro 33;
#X msg 391 421 1;
#X obj 391 465 t b b;
#X obj 391 487 f;
#X obj 420 487 + 1;
#X obj 391 509 sel 0;
#X obj 424 374 random 100;
#X floatatom 424 396 5 0 0 0 - - -, f 5;
#X obj 424 415 - 1;
#X obj 389 337 t b b b;
#X msg 449 349 0;
#X msg 451 467 0;
#X obj 391 443 metro 33;
#X obj 195 14 bng 15 250 50 0 empty empty empty 17 7 0 10 -262144 -1
-1;
#X obj 107 341 random 100;
#X obj 107 363 / 100;
#X msg 106 396 1 1 1 \$1;
#X obj 503 434 t b;
#X obj 503 456 s gemwin;
#X connect 1 0 9 0;
#X connect 2 0 6 1;
#X connect 3 0 2 0;
#X connect 3 0 8 0;
#X connect 3 0 13 0;
#X connect 4 0 6 1;
#X connect 5 0 4 0;
#X connect 5 0 12 0;
#X connect 6 0 23 0;
#X connect 6 1 41 1;
#X connect 6 1 43 0;
#X connect 7 0 24 0;
#X connect 8 0 0 0;
#X connect 9 0 0 0;
#X connect 10 0 0 0;
#X connect 11 0 10 0;
#X connect 12 0 14 1;
#X connect 13 0 14 1;
#X connect 14 0 28 0;
#X connect 14 1 37 1;
#X connect 15 0 34 0;
#X connect 16 0 36 0;
#X connect 17 0 29 0;
#X connect 18 0 15 0;
#X connect 18 0 19 0;
#X connect 18 1 77 0;
#X connect 19 0 35 0;
#X connect 19 0 15 0;
#X connect 20 0 21 0;
#X connect 20 1 22 0;
#X connect 21 0 59 0;
#X connect 22 0 21 1;
#X connect 23 0 20 0;
#X connect 23 0 41 0;
#X connect 24 0 6 0;
#X connect 24 1 14 0;
#X connect 25 0 26 0;
#X connect 25 1 27 0;
#X connect 26 0 72 0;
#X connect 27 0 26 1;
#X connect 28 0 25 0;
#X connect 28 0 37 0;
#X connect 29 0 30 0;
#X connect 29 1 47 0;
#X connect 30 0 31 0;
#X connect 31 0 32 0;
#X connect 32 0 16 0;
#X connect 33 0 32 1;
#X connect 34 0 17 0;
#X connect 35 0 17 1;
#X connect 37 0 45 0;
#X connect 38 0 39 0;
#X connect 39 0 1 0;
#X connect 39 1 5 0;
#X connect 40 0 3 0;
#X connect 41 0 44 0;
#X connect 43 0 3 0;
#X connect 44 0 42 0;
#X connect 45 0 42 0;
#X connect 46 0 31 1;
#X connect 46 0 33 0;
#X connect 47 0 46 0;
#X connect 47 0 48 0;
#X connect 48 0 49 0;
#X connect 49 0 50 0;
#X connect 50 0 30 1;
#X connect 51 0 63 0;
#X connect 52 0 53 0;
#X connect 52 1 62 0;
#X connect 53 0 54 0;
#X connect 53 0 55 0;
#X connect 54 0 53 1;
#X connect 55 0 61 0;
#X connect 56 0 57 0;
#X connect 57 0 58 0;
#X connect 58 0 55 1;
#X connect 59 0 51 0;
#X connect 59 1 56 0;
#X connect 59 2 60 0;
#X connect 59 2 81 0;
#X connect 60 0 53 1;
#X connect 61 0 63 0;
#X connect 62 0 18 0;
#X connect 63 0 52 0;
#X connect 64 0 75 0;
#X connect 65 0 66 0;
#X connect 65 1 62 0;
#X connect 66 0 67 0;
#X connect 66 0 68 0;
#X connect 67 0 66 1;
#X connect 68 0 74 0;
#X connect 69 0 70 0;
#X connect 70 0 71 0;
#X connect 71 0 68 1;
#X connect 72 0 64 0;
#X connect 72 1 69 0;
#X connect 72 2 73 0;
#X connect 72 2 81 0;
#X connect 73 0 66 1;
#X connect 74 0 75 0;
#X connect 75 0 65 0;
#X connect 76 0 39 0;
#X connect 77 0 78 0;
#X connect 78 0 79 0;
#X connect 79 0 17 1;
#X connect 80 0 81 0;
#X restore 28 92 pd backlight;
#X obj 372 29 tgl 15 0 empty empty empty 17 7 0 10 -262144 -1 -1 0
1;
#X obj 372 49 metro 20;
#X obj 372 71 s fps;
#X floatatom 409 22 5 0 0 0 - - -, f 5;
#X msg 268 60 bang;
#X obj 268 82 s gemwin;
#X connect 3 0 4 0;
#X connect 4 0 5 0;
#X connect 6 0 4 1;
#X connect 7 0 8 0;
#X restore 7 47 pd gemheads ___________;
#N canvas 0 22 450 300 from-audio-pd 0;
#X obj 20 77 t b a;
#X obj 20 17 r from-audio-pd;
#X text 125 18 <-- this receive is dedicated to the incoming data from
<MAIN_AUDIO_PD>, f 39;
#X obj 20 254 bng 15 250 50 0 empty empty empty 17 7 0 10 -262144 -1
-1;
#X text 46 256 <-- use this if you want to bang things <after> each
incoming data stream is passed;
#X text 78 76 <-- route this message at will;
#X obj 161 136 s blabla1;
#X obj 237 207 s border-scale;
#X obj 303 170 s video-scale;
#X obj 47 103 route start stop blabla1 frequency-2 frequency-1;
#X obj 47 190 s start;
#X obj 104 163 s stop;
#X connect 0 0 3 0;
#X connect 0 1 9 0;
#X connect 1 0 0 0;
#X connect 9 0 10 0;
#X connect 9 1 11 0;
#X connect 9 2 6 0;
#X connect 9 3 7 0;
#X connect 9 4 8 0;
#X restore 7 27 pd from-audio-pd ______;
#N canvas 0 22 420 225 gemwin 0;
#X obj 14 186 gemwin;
#X obj 14 7 r gemwin;
#X obj 14 29 route float;
#X obj 14 51 sel 1 0;
#X text 76 116 edit this message according to your needs;
#X msg 14 148 create \, 1;
#X msg 33 73 0 \, destroy \, reset \, offset 525 22 \, title MAIN_VIDEO_PD
\, dimen 500 400 \, buffer 1;
#X connect 1 0 2 0;
#X connect 2 0 3 0;
#X connect 2 1 0 0;
#X connect 3 0 5 0;
#X connect 3 1 6 0;
#X connect 5 0 0 0;
#X connect 6 0 0 0;
#X restore 7 127 pd gemwin _____________;
#X restore 85 39 pd VIDEO;
#N canvas 834 459 375 172 VIDEO_GUI 0;
#X obj 22 45 tgl 15 0 gemwin gemwin-set gemwin 17 7 0 10 -262144 -1
-1 1 1;
#X restore 6 39 pd VIDEO_GUI;
