#N canvas 205 22 999 752 12;
#X obj 45 607 *~;
#X obj 229 290 random 4;
#X obj 406 178 fd_dataRead 5 6 1;
#X obj 637 185 random 20;
#X obj 674 311 t b f;
#X obj 674 386 f;
#X obj 711 385 + 1;
#X obj 732 331 mod 13;
#X obj 637 210 sel 6;
#X obj 674 409 mod 29;
#X obj 674 261 random 30;
#X obj 255 185 f;
#X obj 290 185 + 1;
#X obj 255 210 mod 30;
#X obj 897 716 switch~;
#X obj 45 295 line~;
#X obj 406 313 line~;
#X obj 674 459 / 150;
#X obj 45 234 fd_dataRead 1 2 1;
#X obj 234 450 *~ 0.5;
#X obj 149 571 sig~ 1;
#X obj 149 628 -~;
#X obj 45 648 *~;
#X obj 213 650 *~;
#X obj 234 579 sqrt~;
#X obj 45 269 t a b;
#X obj 674 235 bang;
#X obj 674 286 fd_dataRead1 4 y;
#X obj 674 434 fd_dataRead1 3 y;
#X obj 255 258 abs;
#X obj 255 234 fd_dataRead1 4 y;
#X obj 732 356 fd_dataRead1 4 y;
#X obj 830 662 fd_switch;
#X obj 45 682 *~;
#X obj 213 682 *~;
#X obj 229 155 t b b b;
#X text 416 274 frequency;
#X text 182 504 space;
#X obj 242 121 t f f;
#X obj 158 148 /;
#X obj 406 512 phasor~;
#X obj 406 562 +~ 1;
#X obj 330 123 atan2;
#X obj 331 145 / 3.14159;
#X obj 308 459 * 0.5;
#X obj 308 484 + 1;
#X obj 308 534 line~;
#X obj 234 554 *~;
#X obj 521 109 route amp freq f offset;
#X obj 308 509 pack f 10;
#X obj 242 57 inlet sigmund, f 7;
#X obj 520 66 inlet parameters, f 10;
#X obj 45 22 inlet dur;
#X obj 830 103 inlet switch, f 7;
#X obj 702 134 !msg _gr;
#X obj 45 548 *~ 1;
#X obj 406 537 *~ 2045;
#X obj 539 343 * 1;
#X obj 539 393 line~;
#X msg 539 368 \$1 10;
#X obj 406 356 *~;
#X obj 539 273 route range min q, f 11;
#X obj 45 709 throw~ 1-dacout;
#X obj 213 708 throw~ 2-dacout;
#X obj 406 587 tabread4~ 0-sin;
#X text 55 479 amplitude;
#X obj 406 381 mtof~;
#X obj 575 342 t b f;
#X obj 674 484 sel;
#X obj 75 442 route gain;
#X obj 208 391 f;
#X obj 229 367 +;
#X obj 229 315 + 1;
#X obj 266 314 unpack;
#X msg 781 613 1;
#X obj 45 126 t b f b;
#X msg 853 615 0;
#X obj 45 72 t b b;
#X msg 92 72 0;
#X obj 45 47 spigot 1;
#X obj 772 715 del;
#X msg 772 27 1;
#X obj 835 716 outlet;
#X obj 860 691 t f f;
#X obj 804 691 sel 0;
#X obj 804 715 f;
#X obj 45 360 *~;
#X msg 158 122 10000 \$1;
#X obj 242 96 unpack f f f, f 22;
#X obj 468 357 * 1;
#X obj 468 407 line~;
#X obj 406 427 +~;
#X msg 468 382 \$1 10;
#X obj 229 340 * 69;
#X obj 853 590 t b f;
#X obj 337 369 *~;
#X obj 510 461 r tot-grains;
#X obj 510 486 random 16;
#X obj 510 511 _seltab;
#X msg 510 536 set \$1;
#X connect 0 0 22 0;
#X connect 0 0 23 0;
#X connect 1 0 72 0;
#X connect 2 0 16 0;
#X connect 2 1 3 0;
#X connect 3 0 8 0;
#X connect 4 0 5 0;
#X connect 4 1 7 0;
#X connect 5 0 6 0;
#X connect 5 0 9 0;
#X connect 6 0 5 1;
#X connect 7 0 31 0;
#X connect 8 1 26 0;
#X connect 9 0 28 0;
#X connect 10 0 27 0;
#X connect 11 0 12 0;
#X connect 11 0 13 0;
#X connect 12 0 11 1;
#X connect 13 0 30 0;
#X connect 15 0 86 0;
#X connect 15 0 86 1;
#X connect 16 0 60 0;
#X connect 16 0 95 0;
#X connect 16 0 95 1;
#X connect 17 0 68 0;
#X connect 18 0 25 0;
#X connect 18 1 70 0;
#X connect 19 0 47 0;
#X connect 20 0 21 0;
#X connect 21 0 22 1;
#X connect 22 0 33 0;
#X connect 23 0 34 0;
#X connect 24 0 23 1;
#X connect 24 0 21 1;
#X connect 25 0 15 0;
#X connect 25 1 35 0;
#X connect 26 0 10 0;
#X connect 27 0 4 0;
#X connect 28 0 17 0;
#X connect 29 0 1 1;
#X connect 30 0 29 0;
#X connect 31 0 6 1;
#X connect 32 0 34 1;
#X connect 32 0 33 1;
#X connect 32 1 83 0;
#X connect 33 0 62 0;
#X connect 34 0 63 0;
#X connect 35 0 1 0;
#X connect 35 1 11 0;
#X connect 35 2 2 0;
#X connect 38 0 87 0;
#X connect 38 1 89 0;
#X connect 39 0 18 1;
#X connect 40 0 56 0;
#X connect 41 0 64 0;
#X connect 42 0 43 0;
#X connect 43 0 44 0;
#X connect 44 0 45 0;
#X connect 45 0 49 0;
#X connect 46 0 47 1;
#X connect 47 0 24 0;
#X connect 48 0 69 0;
#X connect 48 1 64 0;
#X connect 48 2 61 0;
#X connect 48 3 73 0;
#X connect 48 4 54 0;
#X connect 49 0 46 0;
#X connect 50 0 88 0;
#X connect 51 0 48 0;
#X connect 52 0 79 0;
#X connect 53 0 32 0;
#X connect 55 0 0 0;
#X connect 56 0 41 0;
#X connect 57 0 59 0;
#X connect 58 0 60 1;
#X connect 59 0 58 0;
#X connect 60 0 66 0;
#X connect 61 0 57 0;
#X connect 61 1 89 1;
#X connect 64 0 0 1;
#X connect 66 0 91 0;
#X connect 67 0 57 0;
#X connect 67 1 57 1;
#X connect 68 1 67 0;
#X connect 69 0 55 1;
#X connect 70 0 94 0;
#X connect 71 0 70 1;
#X connect 72 0 93 0;
#X connect 73 0 93 1;
#X connect 73 1 71 1;
#X connect 74 0 32 0;
#X connect 75 0 18 0;
#X connect 75 1 49 1;
#X connect 75 2 74 0;
#X connect 76 0 32 0;
#X connect 77 0 75 0;
#X connect 77 1 78 0;
#X connect 78 0 79 1;
#X connect 79 0 77 0;
#X connect 80 0 81 0;
#X connect 81 0 79 1;
#X connect 83 0 84 0;
#X connect 83 1 14 0;
#X connect 84 0 85 0;
#X connect 85 0 82 0;
#X connect 85 0 80 0;
#X connect 86 0 55 0;
#X connect 86 0 19 0;
#X connect 87 0 39 0;
#X connect 88 0 38 0;
#X connect 88 1 42 0;
#X connect 88 2 42 1;
#X connect 89 0 92 0;
#X connect 90 0 91 1;
#X connect 91 0 40 0;
#X connect 92 0 90 0;
#X connect 93 0 71 0;
#X connect 94 0 76 0;
#X connect 94 1 85 1;
#X connect 95 0 19 0;
#X connect 96 0 97 0;
#X connect 97 0 98 0;
#X connect 98 0 99 0;
#X connect 99 0 64 0;
