#N canvas 502 112 588 662 10;
#X obj 78 207 v;
#X obj 108 207 v;
#X obj 138 207 v;
#X obj 168 207 v;
#X obj 198 207 v;
#X obj 228 207 v;
#X obj 258 207 v;
#X obj 27 153 L-R piano;
#X obj 89 153 (m) flute;
#X obj 119 130 (m) clarinet;
#X obj 168 108 (m) cello;
#X obj 198 130 (m) violin;
#X obj 228 153 L-R perc;
#X obj 84 245 console ________________;
#X obj 273 280 route flute+violin clarinet+cello perc(L+R) piano(L+R)
, f 14;
#X msg 443 171 computer (usb);
#X obj 288 207 v l;
#X obj 318 207 v l;
#X obj 48 207 v;
#X obj 458 202 v l;
#X obj 458 224 v l;
#X obj 458 246 v l;
#X obj 458 268 v l;
#X obj 84 281 route piano flute clarinet cello violin perc soundcard
, f 20;
#N canvas 0 22 450 300 LEFT 0;
#X obj 92 32 inlet;
#X restore 82 492 pd LEFT;
#N canvas 0 22 450 300 RIGHT 0;
#X obj 52 35 inlet;
#X restore 326 491 pd RIGHT;
#X obj 181 472 v;
#X obj 266 471 v;
#X obj 181 400 mix 30% 70%;
#X obj 84 400 mix 70% 30%;
#X obj 308 154 soundcard 4in__2out;
#X obj 294 400 route L R;
#X text 47 401 (*);
#X text 43 551 (*) We might adjust this on the spot to a more accurate
representation of the amplified sonic image of the performers on stage.
We might need to add some filters., f 53;
#X text 19 29 SIGNAL ROUTING FOR a.le.a;
#X text 407 26 contact: fch226@nyu.edu;
#X text 397 400 8 condenser mics (m);
#X text 398 485 2 short TRS lines;
#X text 398 502 2 direct boxes;
#X text 396 379 AMPLIFICATION:;
#X text 396 422 SOUND CARD INS;
#X text 397 465 SOUND CARD OUTS;
#X text 17 68 ****************************************************************************************
, f 88;
#X text 17 75 ****************************************************************************************
, f 88;
#X text 20 623 ****************************************************************************************
, f 88;
#X text 20 630 ****************************************************************************************
, f 88;
#X text 398 440 4 long TRS lines;
#X connect 0 0 13 1;
#X connect 1 0 13 2;
#X connect 2 0 13 3;
#X connect 3 0 13 4;
#X connect 4 0 13 5;
#X connect 5 0 13 6;
#X connect 6 0 13 7;
#X connect 7 0 18 0;
#X connect 7 1 0 0;
#X connect 8 0 1 0;
#X connect 9 0 2 0;
#X connect 10 0 3 0;
#X connect 11 0 4 0;
#X connect 12 0 5 0;
#X connect 12 1 6 0;
#X connect 13 0 23 0;
#X connect 13 1 14 0;
#X connect 14 0 19 0;
#X connect 14 1 20 0;
#X connect 14 2 21 0;
#X connect 14 3 22 0;
#X connect 16 0 13 8;
#X connect 17 0 13 9;
#X connect 18 0 13 0;
#X connect 19 0 30 3;
#X connect 20 0 30 2;
#X connect 21 0 30 1;
#X connect 22 0 30 0;
#X connect 23 0 29 0;
#X connect 23 1 29 0;
#X connect 23 2 29 0;
#X connect 23 3 28 0;
#X connect 23 4 28 0;
#X connect 23 5 28 0;
#X connect 23 6 31 0;
#X connect 26 0 24 0;
#X connect 27 0 25 0;
#X connect 28 0 26 0;
#X connect 28 1 27 0;
#X connect 29 0 26 0;
#X connect 29 1 27 0;
#X connect 30 0 16 0;
#X connect 30 1 17 0;
#X connect 30 2 15 0;
#X connect 31 0 26 0;
#X connect 31 1 27 0;
