#N canvas 198 22 545 284 10;
#X obj 10 6 cnv 15 200 170 empty empty empty 20 12 0 14 -233017 -66577
0;
#X obj 14 82 tgl 30 0 empty empty monitor 34 15 0 14 -262144 -1 -1
1 1;
#X obj 14 15 tgl 30 0 empty empty enable 35 15 0 14 -262144 -1 -1 1
1;
#X obj 14 48 tgl 30 0 empty empty analysis 34 15 0 14 -262144 -1 -1
1 1;
#X obj 130 30 _monitor-out 1;
#X obj 13 152 fd_cputime;
#X obj 14 116 bng 15 250 50 0 empty empty fake-inputs 17 7 0 10 -262144
-1 -1;
#X obj 13 134 bng 15 50 10 0 panic empty panic 17 7 0 10 -258113 -1
-1;
#X obj 102 156 fd_stopwatch;
#X obj 121 212 s panic;
#X obj 34 216 s fake-inputs;
#X obj 23 242 s enable-adc-dac;
#X obj 186 244 s analysis;
#X obj 268 239 s monitor;
#X obj 167 30 _monitor-out 2;
#X obj 245 10 bng 15 250 50 0 start-all empty start-all 17 7 0 10 -262144
-1 -1;
#X obj 319 10 bng 15 250 50 0 stop-all empty stop-all 17 7 0 10 -262144
-1 -1;
#X obj 62 134 tgl 15 0 hitpanic empty hitpanic 17 7 0 10 -262144 -1
-1 0 1;
#X obj 281 116 r monitor-set;
#X obj 273 91 r enable-adc-dac-set;
#X connect 1 0 13 0;
#X connect 2 0 11 0;
#X connect 3 0 12 0;
#X connect 6 0 10 0;
#X connect 7 0 9 0;
#X connect 18 0 1 0;
#X connect 19 0 2 0;
#X coords 0 -1 1 1 200 170 2 10 6;
