#N canvas 0 22 327 316 12;
#X obj 221 231 dac~ \$1;
#X obj 39 34 catch~ \$1-\$2;
#X obj 39 75 hip~ 3;
#X obj 161 34 r enable-adc-dac, f 14;
#X obj 230 127 switch~;
#X obj 161 90 fd_switch;
#X obj 39 110 *~;
#N canvas 0 22 450 300 monitors 0;
#X obj 59 118 - 100;
#X obj 59 96 env~ 2048;
#X obj 59 56 inlet~;
#X obj 281 119 switch~;
#X obj 158 58 r monitor, f 7;
#X obj 158 176 f;
#X obj 158 99 t f f f;
#X obj 196 153 sel;
#X msg 196 178 -10000;
#X obj 158 229 s \$1-mainvu;
#X obj 158 128 metro 24;
#X connect 0 0 5 1;
#X connect 1 0 0 0;
#X connect 2 0 1 0;
#X connect 4 0 6 0;
#X connect 5 0 9 0;
#X connect 6 0 10 0;
#X connect 6 1 7 0;
#X connect 6 2 3 0;
#X connect 7 0 8 0;
#X connect 8 0 9 0;
#X connect 10 0 5 0;
#X restore 39 231 pd monitors;
#N canvas 122 28 431 296 write 1;
#X obj 33 32 inlet~;
#X obj 33 155 *~;
#X obj 87 135 fd_switch;
#X obj 156 178 switch~;
#X obj 33 238 fd_write \$1;
#X obj 87 90 r write-switch;
#X connect 0 0 1 0;
#X connect 1 0 4 0;
#X connect 2 0 1 1;
#X connect 2 1 3 0;
#X connect 5 0 2 0;
#X restore 141 231 pd write;
#X connect 1 0 2 0;
#X connect 2 0 6 0;
#X connect 3 0 5 0;
#X connect 5 0 6 1;
#X connect 5 1 4 0;
#X connect 6 0 7 0;
#X connect 6 0 0 0;
#X connect 6 0 8 0;
