#N canvas 129 45 498 537 12;
#X obj 41 21 inlet;
#X obj 41 428 *~;
#X obj 389 23 inlet;
#X obj 296 448 _spat dacout;
#X obj 296 473 switch~;
#X obj 51 131 r \$3-sigmund-\$1, f 13;
#X obj 41 94 t b b;
#X obj 201 274 line~;
#X obj 201 327 +~ 1;
#X obj 210 155 random 1000;
#X obj 201 355 tabread4~ \$2-exp;
#X obj 201 303 *~ 2045;
#X obj 244 328 fd_wind \$2;
#X obj 210 179 + 10;
#X msg 201 239 0 \, 1 \$1;
#X obj 201 210 f 100;
#X obj 201 126 t b b;
#X obj 291 44 !msg _harm;
#X obj 408 69 tgl 15 0 empty empty empty 17 7 0 10 -262144 -1 -1 1
1;
#X obj 41 186 list;
#X msg 138 231 \$1 10;
#X obj 138 319 line~;
#X obj 138 350 osc~;
#X obj 41 370 *~;
#X obj 41 211 t a a;
#X obj 41 44 route bang float shape gesture;
#X obj 121 94 t b f;
#X obj 289 284 route win q, f 6;
#X obj 41 263 _s-grain \$1 \$2, f 8;
#X obj 201 408 bp~ 200 10;
#X connect 0 0 25 0;
#X connect 1 0 3 0;
#X connect 2 0 3 1;
#X connect 2 0 18 0;
#X connect 3 0 4 0;
#X connect 5 0 19 1;
#X connect 6 0 19 0;
#X connect 6 1 16 0;
#X connect 7 0 11 0;
#X connect 8 0 10 0;
#X connect 9 0 13 0;
#X connect 10 0 29 0;
#X connect 11 0 8 0;
#X connect 12 0 10 0;
#X connect 13 0 15 1;
#X connect 14 0 7 0;
#X connect 15 0 14 0;
#X connect 16 0 15 0;
#X connect 16 1 9 0;
#X connect 19 0 24 0;
#X connect 20 0 21 0;
#X connect 21 0 22 0;
#X connect 22 0 23 1;
#X connect 23 0 1 0;
#X connect 24 0 28 0;
#X connect 24 1 20 0;
#X connect 25 0 6 0;
#X connect 25 1 26 0;
#X connect 25 2 28 1;
#X connect 25 3 27 0;
#X connect 25 4 17 0;
#X connect 26 0 19 0;
#X connect 26 1 14 0;
#X connect 27 0 12 0;
#X connect 27 1 29 2;
#X connect 28 0 23 0;
#X connect 29 0 1 1;
