#N canvas 0 22 450 300 10;
#X obj 78 95 / 1000;
#X obj 80 29 inlet;
#X obj 78 207 outlet;
#X obj 78 141 pack f \$2;
#X obj 78 163 line 10 1;
#X obj 78 117 + 10;
#X obj 78 51 random 10000;
#X obj 78 73 - 5000;
#X msg 77 185 inita \$1;
#X obj 278 34 inlet;
#X connect 0 0 5 0;
#X connect 1 0 6 0;
#X connect 3 0 4 0;
#X connect 4 0 8 0;
#X connect 5 0 3 0;
#X connect 6 0 7 0;
#X connect 7 0 0 0;
#X connect 8 0 2 0;
#X connect 9 0 4 0;
