#N canvas 326 23 261 399 12;
#X obj 37 131 hip~ 3;
#X obj 37 226 *~ 1;
#X obj 37 97 *~;
#X obj 58 53 r \$1-adc-onoff, f 12;
#X obj 66 184 r \$1-adc-gain, f 11;
#X obj 37 154 lop~ 10000;
#X text 120 26 no switch here!;
#N canvas 66 23 258 314 env 0;
#X obj 94 74 switch~;
#X obj 111 121 r monitor, f 7;
#X obj 111 265 s \$1-rms;
#X obj 111 239 f;
#X obj 25 21 inlet~;
#X obj 111 191 metro 150;
#X obj 25 264 s \$1-env;
#X obj 94 25 r \$1-env-switch, f 13;
#X obj 25 120 env~ 4096;
#X connect 1 0 5 0;
#X connect 3 0 2 0;
#X connect 4 0 8 0;
#X connect 5 0 3 0;
#X connect 7 0 0 0;
#X connect 8 0 3 1;
#X connect 8 0 6 0;
#X restore 69 273 pd env ____________;
#N canvas 582 22 509 577 bark 0;
#X obj 26 20 inlet~;
#X obj 26 101 bark~;
#X obj 41 65 r \$1-bark;
#X obj 26 175 array random \$0-gauss, f 8;
#X obj 26 354 bang;
#X obj 26 329 moses 50;
#X obj 87 353 moses 75, f 9;
#X obj 119 271 t f f;
#X msg 172 271 1 \$1;
#X obj 172 296 -;
#X obj 119 309 *;
#X obj 156 325 *;
#X obj 180 99 fd_gauss~ \$0-gauss 128, f 12;
#X obj 180 13 r pd-dsp-started;
#X obj 87 378 bang;
#X obj 212 373 bang;
#X obj 26 126 t b b;
#X obj 119 146 f;
#X obj 151 146 + 1;
#X obj 119 171 mod 648;
#X obj 119 196 array get \$1-probs;
#X obj 199 171 sel 647;
#X obj 199 68 _probs \$1 648;
#X obj 180 38 t b b;
#X obj 119 221 t b f f;
#X obj 119 245 i 128;
#X obj 26 405 pack \$1;
#X obj 132 398 pack \$1;
#X obj 132 423 + 1;
#X obj 132 448 mod 4;
#X obj 26 430 fd_salvo 5;
#X obj 132 473 + 1;
#X obj 26 493 t b f;
#X obj 26 518 s;
#X text 321 390 see fd_gauss-test.pd;
#X text 254 494 [bark~] part of William Brent's Timbre ID library,
f 26;
#X text 204 147 new probs;
#X obj 212 426 mod 4;
#X obj 212 451 + 1;
#X obj 212 401 + 2;
#X msg 63 518 symbol \$1-barked;
#X text 271 235 Once an onset has been reported with [bark~] \, this
patch sends a bang to another player's 'barked'. Which other player
is determined by a normal whose probabilities change with [_probs]
, f 26;
#X obj 364 59 switch~;
#X obj 364 14 r \$1-bark-switch, f 14;
#X obj 103 103 bng 15 250 50 0 empty empty empty 17 7 0 10 -262144
-1 -1;
#X connect 0 0 1 0;
#X connect 1 0 16 0;
#X connect 1 0 44 0;
#X connect 2 0 1 0;
#X connect 3 0 5 0;
#X connect 4 0 26 0;
#X connect 5 0 4 0;
#X connect 5 1 6 0;
#X connect 6 0 14 0;
#X connect 6 1 15 0;
#X connect 7 0 10 0;
#X connect 7 1 11 0;
#X connect 8 0 9 0;
#X connect 9 0 11 1;
#X connect 10 0 5 1;
#X connect 11 0 6 1;
#X connect 13 0 23 0;
#X connect 14 0 27 0;
#X connect 15 0 39 0;
#X connect 16 0 3 0;
#X connect 16 1 17 0;
#X connect 17 0 18 0;
#X connect 17 0 19 0;
#X connect 18 0 17 1;
#X connect 19 0 20 0;
#X connect 19 0 21 0;
#X connect 20 0 24 0;
#X connect 21 0 22 0;
#X connect 23 0 12 0;
#X connect 23 1 22 0;
#X connect 24 0 25 0;
#X connect 24 1 10 1;
#X connect 24 2 8 0;
#X connect 25 0 7 0;
#X connect 26 0 30 0;
#X connect 27 0 28 0;
#X connect 28 0 29 0;
#X connect 29 0 31 0;
#X connect 30 0 32 0;
#X connect 31 0 32 0;
#X connect 32 0 33 0;
#X connect 32 1 40 0;
#X connect 37 0 38 0;
#X connect 38 0 32 0;
#X connect 39 0 37 0;
#X connect 40 0 33 1;
#X connect 43 0 42 0;
#X restore 61 306 pd bark ____________;
#N canvas 327 447 259 268 sigmund 1;
#X obj 103 56 switch~;
#X obj 20 15 inlet~;
#X obj 103 15 r \$1-sigmund-switch, f 17;
#X obj 20 195 list prepend \$1;
#X msg 20 220 \; \$1-sigmund-\$2 \$3 \$4 \;;
#X obj 20 106 sigmund~ -npts 2048 -hop 1024 -npeak 5 peaks, f 11;
#X connect 1 0 5 0;
#X connect 2 0 0 0;
#X connect 3 0 4 0;
#X connect 5 0 3 0;
#X restore 37 340 pd sigmund ____________;
#X obj 37 28 r~ adc-\$1;
#X connect 0 0 5 0;
#X connect 1 0 7 0;
#X connect 1 0 9 0;
#X connect 1 0 8 0;
#X connect 2 0 0 0;
#X connect 3 0 2 1;
#X connect 4 0 1 1;
#X connect 5 0 1 0;
#X connect 10 0 2 0;
