#N canvas 0 22 358 469 12;
#X obj 41 60 t b b;
#X obj 121 281 lorenz;
#N canvas 0 22 574 326 init 0;
#X obj 65 128 - 1500;
#X obj 65 150 / 1000;
#X obj 65 172 + 10;
#X obj 170 106 random 3000;
#X obj 170 128 - 1500;
#X obj 170 150 / 1000;
#X obj 278 106 random 3000;
#X obj 278 128 - 1500;
#X obj 278 150 / 1000;
#X msg 65 194 inita \$1;
#X msg 170 194 initx \$1;
#X msg 278 193 inity \$1;
#X obj 170 269 outlet;
#X obj 28 20 inlet;
#X obj 28 42 t b b;
#X msg 28 206 100;
#X obj 28 228 until;
#X obj 170 172 + 2;
#X obj 278 172 - 2;
#X obj 65 106 random 5000;
#X obj 396 104 random 3000;
#X obj 396 126 - 1500;
#X obj 396 148 / 1000;
#X obj 217 54 t b b b b;
#X msg 396 193 initz \$1;
#X obj 396 170 - 10;
#X connect 0 0 1 0;
#X connect 1 0 2 0;
#X connect 2 0 9 0;
#X connect 3 0 4 0;
#X connect 4 0 5 0;
#X connect 5 0 17 0;
#X connect 6 0 7 0;
#X connect 7 0 8 0;
#X connect 8 0 18 0;
#X connect 9 0 12 0;
#X connect 10 0 12 0;
#X connect 11 0 12 0;
#X connect 13 0 14 0;
#X connect 14 0 15 0;
#X connect 14 1 23 0;
#X connect 15 0 16 0;
#X connect 16 0 12 0;
#X connect 17 0 10 0;
#X connect 18 0 11 0;
#X connect 19 0 0 0;
#X connect 20 0 21 0;
#X connect 21 0 22 0;
#X connect 22 0 25 0;
#X connect 23 0 19 0;
#X connect 23 1 3 0;
#X connect 23 2 6 0;
#X connect 23 3 20 0;
#X connect 24 0 12 0;
#X connect 25 0 24 0;
#X restore 195 80 pd init;
#X obj 195 129 route bang;
#X msg 121 243 print 1;
#X obj 143 308 list prepend parse;
#X obj 143 330 list trim;
#X obj 143 352 siginfo;
#X obj 169 379 list split 6;
#X obj 121 178 fd_iterate;
#X obj 121 206 t b f, f 13;
#X obj 41 129 t b b;
#X msg 40 384 normalize 1;
#X obj 215 410 array set \$1-probs, f 9;
#X obj 121 149 pack \$2;
#X obj 41 106 del 100;
#X obj 41 10 inlet;
#X obj 40 407 array define \$1-probs \$2;
#X f 12;
#X text 47 36 ... different probs every time...;
#X connect 0 0 15 0;
#X connect 0 1 2 0;
#X connect 1 1 5 0;
#X connect 2 0 3 0;
#X connect 3 0 4 0;
#X connect 3 1 1 0;
#X connect 4 0 1 0;
#X connect 5 0 6 0;
#X connect 6 0 7 0;
#X connect 7 1 8 0;
#X connect 8 1 13 0;
#X connect 9 0 10 0;
#X connect 10 0 4 0;
#X connect 10 1 13 1;
#X connect 11 0 12 0;
#X connect 11 1 14 0;
#X connect 12 0 17 0;
#X connect 14 0 9 0;
#X connect 15 0 11 0;
#X connect 16 0 0 0;
