#N canvas 580 72 381 370 10;
#X obj 43 30 inlet;
#X obj 43 343 outlet;
#X obj 96 233 * 900;
#X obj 96 255 int;
#X obj 43 122 random 100;
#X obj 43 144 / 10;
#X obj 43 179 fd_gauss 5 3;
#X obj 77 154 r median;
#X obj 43 283 f;
#X obj 81 283 + 1;
#X obj 119 284 mod 900;
#X obj 43 208 t b f;
#X obj 236 51 t f f;
#X obj 236 29 inlet;
#X text 44 7 gaussian distributed random frame step;
#X text 81 32 <-- bang;
#X text 282 30 <-- limit;
#X obj 43 94 metro 33;
#X obj 88 71 r framerate;
#X obj 52 50 r disable-all;
#X msg 52 72 0;
#X obj 279 267 - 1;
#X obj 245 307 sel;
#X obj 245 329 outlet;
#X obj 43 305 t f b;
#X obj 100 305 f;
#X obj 138 305 + 1;
#X obj 176 306 mod 900;
#X floatatom 133 331 5 0 0 0 - - -, f 5;
#X floatatom 100 337 5 0 0 0 - - -, f 5;
#X connect 0 0 17 0;
#X connect 2 0 3 0;
#X connect 3 0 9 1;
#X connect 4 0 5 0;
#X connect 5 0 6 0;
#X connect 6 0 11 0;
#X connect 7 0 6 1;
#X connect 8 0 9 0;
#X connect 8 0 24 0;
#X connect 9 0 10 0;
#X connect 10 0 8 1;
#X connect 11 0 8 0;
#X connect 11 1 2 0;
#X connect 12 0 2 1;
#X connect 12 1 10 1;
#X connect 12 1 21 0;
#X connect 12 1 27 1;
#X connect 13 0 12 0;
#X connect 17 0 4 0;
#X connect 18 0 17 1;
#X connect 19 0 20 0;
#X connect 20 0 17 0;
#X connect 21 0 22 1;
#X connect 22 0 23 0;
#X connect 24 0 1 0;
#X connect 24 0 29 0;
#X connect 24 1 25 0;
#X connect 25 0 26 0;
#X connect 25 0 22 0;
#X connect 25 0 28 0;
#X connect 26 0 27 0;
#X connect 27 0 25 1;
