#N canvas 651 34 319 655 12;
#X obj 103 610 outlet~;
#X obj 19 11 inlet;
#X obj 19 401 +~ 1;
#X obj 19 201 line~;
#X obj 19 178 pack f 10;
#X obj 19 347 phasor~;
#X obj 19 298 *~ 0.5;
#X obj 19 320 +~ 0.5;
#X obj 113 11 block~ 2048;
#X text 112 34 blocksize = windowsize, f 11;
#X obj 19 377 *~ 2045;
#X obj 237 11 inlet;
#X obj 19 223 phasor~;
#X obj 19 275 cos~;
#X obj 19 247 -~;
#X obj 19 155 t f f;
#X obj 102 227 line~;
#N canvas 0 22 450 300 rphase 0;
#X obj 61 23 inlet;
#X obj 60 78 random 2000;
#X obj 61 49 t b f;
#X obj 60 123 - 1000;
#X obj 60 148 / 1000;
#X obj 60 173 pack f f;
#X obj 60 100 t f f;
#X obj 60 198 outlet;
#X msg 157 76 1 \$1;
#X obj 157 100 /;
#X obj 136 131 *;
#X connect 0 0 2 0;
#X connect 1 0 6 0;
#X connect 2 0 1 0;
#X connect 2 1 8 0;
#X connect 3 0 4 0;
#X connect 4 0 5 0;
#X connect 5 0 7 0;
#X connect 6 0 3 0;
#X connect 6 1 10 0;
#X connect 8 0 9 0;
#X connect 9 0 10 1;
#X connect 10 0 5 1;
#X restore 102 200 pd rphase;
#X obj 103 577 *~;
#X obj 204 405 !msg _s-grain, f 8;
#X obj 124 550 sig~ 0.05;
#X obj 19 36 unpack;
#N canvas 238 56 190 310 amp-win 0;
#X obj 46 100 sel 1;
#X obj 46 148 random 8, f 6;
#X obj 54 226 outlet;
#X obj 46 22 inlet;
#X msg 51 198 win \$1;
#X obj 46 47 rmstodb;
#X obj 46 75 > 90;
#X connect 0 0 1 0;
#X connect 1 0 4 0;
#X connect 3 0 5 0;
#X connect 4 0 2 0;
#X connect 5 0 6 0;
#X connect 6 0 0 0;
#X restore 191 177 pd amp-win;
#X obj 77 271 loadbang;
#X obj 77 296 random 100;
#X obj 77 321 / 100;
#X obj 193 243 random 100;
#X obj 193 268 / 100;
#X obj 103 431 fd_wind \$2;
#X obj 103 474 tabread4~ \$2-han;
#X obj 140 361 route win gain q, f 9;
#X obj 103 499 bp~ 200 20;
#X connect 1 0 21 0;
#X connect 2 0 29 0;
#X connect 3 0 12 0;
#X connect 4 0 3 0;
#X connect 5 0 10 0;
#X connect 6 0 7 0;
#X connect 7 0 5 0;
#X connect 10 0 2 0;
#X connect 11 0 30 0;
#X connect 12 0 14 0;
#X connect 13 0 6 0;
#X connect 14 0 13 0;
#X connect 15 0 4 0;
#X connect 15 1 17 0;
#X connect 16 0 14 1;
#X connect 17 0 16 0;
#X connect 18 0 0 0;
#X connect 20 0 18 1;
#X connect 21 0 15 0;
#X connect 21 1 22 0;
#X connect 22 0 30 0;
#X connect 23 0 24 0;
#X connect 23 0 26 0;
#X connect 24 0 25 0;
#X connect 25 0 5 1;
#X connect 26 0 27 0;
#X connect 27 0 12 1;
#X connect 28 0 29 0;
#X connect 29 0 31 0;
#X connect 30 0 28 0;
#X connect 30 1 20 0;
#X connect 30 2 31 2;
#X connect 30 3 19 0;
#X connect 31 0 18 0;
