#N canvas 295 41 466 434 10;
#X msg 16 156 0 \, 1 \$1;
#X msg 246 44 bang;
#X obj 227 161 s \$0-rtime;
#X obj 31 88 r \$0-rtime;
#X obj 16 110 f;
#X obj 16 57 t b b;
#X obj 16 178 line~;
#X obj 16 242 *~;
#X obj 227 139 / 44.1;
#X obj 227 117 r \$0-nsize;
#X obj 227 89 s \$0-nsize;
#X obj 31 199 r \$0-nsize;
#X obj 31 221 - 3;
#X obj 16 264 +~ 1;
#X obj 135 131 t b b, f 8;
#X obj 135 231 del;
#X obj 150 189 r \$0-rtime;
#X msg 135 253 0;
#X msg 180 251 1;
#X obj 16 314 *~;
#X obj 135 297 line~;
#X obj 135 275 pack f 10;
#X obj 150 211 - 10;
#X obj 16 16 inlet;
#X obj 227 23 loadbang;
#X obj 16 286 tabread4~ \$2-\$1;
#X obj 227 66 array size \$2-\$1;
#X obj 59 16 r \$2-\$1-bang;
#X obj 409 35 inlet;
#X obj 163 16 inlet;
#X obj 16 132 * 1;
#X obj 277 375 del 10;
#X obj 277 397 outlet;
#X obj 277 352 t b;
#X obj 16 379 _spat dacout;
#X obj 16 401 switch~;
#X obj 142 379 outlet~;
#X connect 0 0 6 0;
#X connect 1 0 26 0;
#X connect 3 0 4 1;
#X connect 4 0 30 0;
#X connect 5 0 4 0;
#X connect 5 1 14 0;
#X connect 6 0 7 0;
#X connect 7 0 13 0;
#X connect 8 0 2 0;
#X connect 9 0 8 0;
#X connect 11 0 12 0;
#X connect 12 0 7 1;
#X connect 13 0 25 0;
#X connect 14 0 15 0;
#X connect 14 1 18 0;
#X connect 15 0 17 0;
#X connect 16 0 22 0;
#X connect 17 0 21 0;
#X connect 17 0 33 0;
#X connect 18 0 21 0;
#X connect 19 0 34 0;
#X connect 19 0 36 0;
#X connect 20 0 19 1;
#X connect 21 0 20 0;
#X connect 22 0 15 1;
#X connect 23 0 5 0;
#X connect 24 0 26 0;
#X connect 25 0 19 0;
#X connect 26 0 10 0;
#X connect 27 0 5 0;
#X connect 28 0 34 1;
#X connect 29 0 30 1;
#X connect 30 0 0 0;
#X connect 31 0 32 0;
#X connect 33 0 31 0;
#X connect 34 0 35 0;
