#N canvas 540 43 230 399 10;
#X declare -path ~/Downloads/fibo;
#X obj 28 23 declare -path ~/Downloads/fibo;
#X obj 41 142 fibo;
#X obj 33 113 until;
#X obj 33 91 t f f b;
#X msg 72 112 clear \, backward;
#X msg 41 164 236 \$1;
#X obj 41 186 -;
#X msg 33 69 13;
#X text 20 5 ricky graham's [fibo];
#X obj 41 208 print barnumber;
#X obj 33 49 loadbang;
#X msg 156 201 quit;
#X obj 156 223 s pd;
#X obj 156 179 del 1000;
#X connect 1 0 5 0;
#X connect 2 0 1 0;
#X connect 3 0 2 0;
#X connect 3 1 1 1;
#X connect 3 2 4 0;
#X connect 4 0 1 0;
#X connect 5 0 6 0;
#X connect 6 0 9 0;
#X connect 7 0 3 0;
#X connect 10 0 7 0;
#X connect 10 0 13 0;
#X connect 11 0 12 0;
#X connect 13 0 11 0;
