#N canvas 0 22 450 300 10;
#X obj 230 32 inlet;
#X obj 230 63 unpack f f f;
#X obj 229 91 * 4;
#X obj 259 91 * 4;
#X obj 289 91 * 4;
#X obj 350 64 r v-size;
#X obj 161 153 pack f 100;
#X obj 161 175 line;
#X obj 231 153 pack f 100;
#X obj 231 175 line;
#X obj 301 153 pack f 100;
#X obj 301 175 line;
#X obj 367 98 r v-time;
#X obj 161 197 pack f f f, f 25;
#X obj 161 219 outlet;
#X connect 0 0 1 0;
#X connect 1 0 2 0;
#X connect 1 1 3 0;
#X connect 1 2 4 0;
#X connect 2 0 6 0;
#X connect 3 0 8 0;
#X connect 4 0 10 0;
#X connect 5 0 2 1;
#X connect 5 0 3 1;
#X connect 5 0 4 1;
#X connect 6 0 7 0;
#X connect 7 0 13 0;
#X connect 8 0 9 0;
#X connect 9 0 13 1;
#X connect 10 0 11 0;
#X connect 11 0 13 2;
#X connect 12 0 6 1;
#X connect 12 0 8 1;
#X connect 12 0 10 1;
#X connect 13 0 14 0;
