#N canvas 78 291 450 300 10;
#X obj 145 183 translateXYZ;
#X obj 141 47 inlet;
#X obj 49 60 separator;
#X obj 49 38 inlet;
#X obj 179 129 _boidXYZ;
#X obj 179 151 unpack f f f;
#X obj 145 247 sphere \$2 15;
#X connect 0 0 6 0;
#X connect 1 0 4 0;
#X connect 2 0 0 0;
#X connect 3 0 2 0;
#X connect 4 0 5 0;
#X connect 5 0 0 1;
#X connect 5 1 0 2;
#X connect 5 2 0 3;
