#N canvas 4 154 552 509 10;
#X obj 44 28 inlet;
#X obj 458 42 inlet;
#X text 396 251 pair of values;
#X obj 362 314 _dyn start;
#X obj 430 314 _dyn stop;
#X obj 365 268 unpack;
#X obj 322 378 list prepend -dyn;
#X obj 205 54 random 100;
#X obj 205 76 t b f;
#X obj 205 98 f;
#X obj 234 101 + 1;
#X obj 205 142 sel 0;
#X obj 205 120 mod 12;
#X obj 390 122 _dyn;
#X obj 50 342 t a b;
#X obj 44 50 t a b;
#X obj 50 431 outlet;
#X text 140 20 self centered dynamics...;
#X obj 113 285 list prepend -dyn;
#X obj 49 321 list append;
#X obj 194 221 change;
#X obj 208 184 f;
#X connect 0 0 15 0;
#X connect 1 0 13 0;
#X connect 3 0 6 0;
#X connect 4 0 6 0;
#X connect 5 0 3 0;
#X connect 5 1 4 0;
#X connect 7 0 8 0;
#X connect 8 0 9 0;
#X connect 8 1 10 1;
#X connect 9 0 10 0;
#X connect 9 0 12 0;
#X connect 10 0 9 1;
#X connect 11 0 21 0;
#X connect 12 0 11 0;
#X connect 13 0 21 1;
#X connect 14 0 16 0;
#X connect 14 1 19 1;
#X connect 15 0 19 0;
#X connect 15 1 7 0;
#X connect 18 0 19 1;
#X connect 19 0 14 0;
#X connect 20 0 18 0;
#X connect 21 0 20 0;
