#N canvas 656 118 1039 884 10;
#X declare -path ~/Documents/fd_lib;
#X declare -path ../../fd_lib-master;
#X obj 142 431 sel 0 1 2, f 10;
#N canvas 296 22 413 672 simple-event 0;
#X obj 81 266 random 100;
#X obj 81 289 fd_gauss 50 5 0.02;
#X obj 248 538 list prepend -pit;
#X obj 131 226 t b f f;
#X obj 313 343 * 3;
#X obj 153 28 inlet;
#X obj 243 600 outlet;
#X text 97 50 notehead information;
#X text 117 421 range;
#X text 236 392 maxima;
#X obj 155 87 r \$0-en;
#X obj 128 180 f;
#X obj 141 381 * \$4;
#X obj 313 365 + \$3;
#X obj 242 418 + \$3;
#X obj 242 440 min \$2;
#X obj 242 462 max \$3;
#X obj 81 334 fd_round 0.5 10;
#X obj 153 262 * 10;
#X obj 154 120 +;
#X obj 154 142 * 0.5;
#X connect 0 0 1 0;
#X connect 1 0 17 0;
#X connect 2 0 6 0;
#X connect 3 0 0 0;
#X connect 3 1 18 0;
#X connect 3 2 4 0;
#X connect 4 0 13 0;
#X connect 5 0 11 0;
#X connect 10 0 19 0;
#X connect 11 0 3 0;
#X connect 12 0 14 0;
#X connect 13 0 14 1;
#X connect 14 0 15 0;
#X connect 15 0 16 0;
#X connect 16 0 2 0;
#X connect 17 0 12 0;
#X connect 18 0 1 2;
#X connect 19 0 20 0;
#X connect 20 0 11 1;
#X restore 178 465 pd simple-event;
#N canvas 0 22 450 300 silence 0;
#X obj 33 123 list append -1;
#X obj 33 145 list prepend -pit;
#X obj 36 72 inlet;
#X obj 33 167 outlet;
#X connect 0 0 1 0;
#X connect 1 0 3 0;
#X connect 2 0 0 0;
#X restore 44 499 pd silence;
#X obj 779 25 inlet;
#X obj 18 7 declare -path ~/Documents/fd_lib;
#X obj 67 711 list prepend i\$1 input;
#X obj 177 524 _duration;
#X obj 43 567 _duration;
#X obj 403 19 inlet;
#X obj 475 206 route be end change accel disc, f 9;
#X obj 475 184 list trim;
#X obj 141 292 + 1;
#X obj 114 248 fd_markov3;
#X obj 114 271 t f f;
#X obj 168 163 unpack;
#X obj 168 185 swap;
#X obj 168 207 pack;
#X obj 141 316 until;
#X obj 141 336 fd_markov3;
#X obj 104 101 inlet bang;
#X obj 66 755 outlet list;
#X obj 141 358 t f f b;
#X obj 475 162 list;
#X obj 19 26 declare -path ../../fd_lib-master;
#X obj 475 279 fd_once;
#X obj 485 299 fd_once;
#X obj 495 319 fd_once;
#X obj 505 339 fd_once;
#X obj 515 359 fd_once;
#X msg 784 360 _;
#X obj 787 406 list trim;
#X obj 786 383 list prepend set;
#X msg 456 203 be \, be \, be \, accel \, accel \, disc \, accel \,
be \, be \, accel \, accel \, end \, end \, end \, end \, change \,
change \, be, f 2;
#X msg 391 393 b;
#X msg 401 412 e;
#X msg 408 430 c;
#X msg 416 450 a;
#X msg 427 469 d;
#X obj 795 108 s \$0-en;
#X obj 169 131 r \$0-en;
#X obj 196 283 r \$0-en;
#X obj 235 496 r \$0-en;
#X obj 193 576 t a b;
#X msg 211 654 list dyn \$1;
#X obj 174 683 list;
#X obj 206 631 _dyn;
#X obj 301 535 r \$0-en;
#X obj 301 557 unpack;
#X obj 213 606 f;
#X obj 89 535 r \$0-en;
#X obj 486 776 text define lyric-\$1;
#X connect 0 0 2 0;
#X connect 0 1 1 0;
#X connect 0 2 1 0;
#X connect 1 0 6 0;
#X connect 2 0 7 0;
#X connect 3 0 38 0;
#X connect 5 0 20 0;
#X connect 6 0 42 0;
#X connect 7 0 5 0;
#X connect 8 0 22 1;
#X connect 9 0 24 0;
#X connect 9 1 25 0;
#X connect 9 2 26 0;
#X connect 9 3 27 0;
#X connect 9 4 28 0;
#X connect 10 0 9 0;
#X connect 11 0 17 0;
#X connect 12 0 13 0;
#X connect 13 0 12 1;
#X connect 13 1 11 0;
#X connect 14 0 15 0;
#X connect 14 1 15 1;
#X connect 15 0 16 0;
#X connect 15 1 16 1;
#X connect 16 0 12 2;
#X connect 17 0 18 0;
#X connect 18 0 21 0;
#X connect 19 0 12 0;
#X connect 21 0 18 1;
#X connect 21 1 0 0;
#X connect 21 2 22 0;
#X connect 22 0 10 0;
#X connect 24 0 25 1;
#X connect 24 0 26 1;
#X connect 24 0 27 1;
#X connect 24 0 28 1;
#X connect 24 0 33 0;
#X connect 24 1 29 0;
#X connect 25 0 24 1;
#X connect 25 0 26 1;
#X connect 25 0 27 1;
#X connect 25 0 28 1;
#X connect 25 0 34 0;
#X connect 25 1 29 0;
#X connect 26 0 24 1;
#X connect 26 0 25 1;
#X connect 26 0 27 1;
#X connect 26 0 28 1;
#X connect 26 0 35 0;
#X connect 26 1 29 0;
#X connect 27 0 24 1;
#X connect 27 0 25 1;
#X connect 27 0 26 1;
#X connect 27 0 28 1;
#X connect 27 0 36 0;
#X connect 27 1 29 0;
#X connect 28 0 24 1;
#X connect 28 0 25 1;
#X connect 28 0 26 1;
#X connect 28 0 27 1;
#X connect 28 0 37 0;
#X connect 28 1 29 0;
#X connect 29 0 31 0;
#X connect 30 0 50 0;
#X connect 31 0 30 0;
#X connect 32 0 9 0;
#X connect 33 0 31 0;
#X connect 34 0 31 0;
#X connect 35 0 31 0;
#X connect 36 0 31 0;
#X connect 37 0 31 0;
#X connect 39 0 14 0;
#X connect 40 0 18 2;
#X connect 41 0 6 1;
#X connect 42 0 44 0;
#X connect 42 1 48 0;
#X connect 43 0 44 1;
#X connect 44 0 5 0;
#X connect 45 0 43 0;
#X connect 46 0 47 0;
#X connect 47 1 48 1;
#X connect 48 0 45 0;
#X connect 49 0 7 1;
