#N canvas 0 22 794 743 10;
#X msg 23 38 bang;
#X obj 23 104 fd_iterate;
#X obj 23 149 list split 4;
#X obj 94 243 list;
#N canvas 0 22 453 446 split-points 0;
#X obj 23 111 -;
#X obj 23 133 abs;
#X obj 23 155 fd_iterate;
#X obj 23 74 t a a;
#X obj 23 184 +;
#X obj 112 259 +;
#X obj 23 52 list split 2;
#X obj 61 284 moses;
#X obj 201 312 t f b;
#X obj 160 148 fd_sum;
#X obj 248 84 unpack;
#X obj 310 88 f;
#X obj 336 87 + 1;
#X obj 243 165 f;
#X obj 307 134 sel;
#X obj 108 237 f;
#X obj 136 196 t b f;
#X msg 324 61 0;
#X obj 324 222 t b f;
#X obj 327 181 moses;
#X obj 300 361 outlet split-index;
#X obj 30 377 outlet event-index;
#X obj 23 2 inlet first four;
#X obj 62 129 t f f;
#X obj 99 82 t a b b;
#X msg 62 105 \$1;
#X obj 323 111 t f f f;
#X obj 340 322 pack;
#X obj 225 2 inlet;
#X msg 225 24 0;
#X connect 0 0 1 0;
#X connect 1 0 2 0;
#X connect 2 0 4 0;
#X connect 3 0 0 0;
#X connect 3 1 25 0;
#X connect 4 0 7 0;
#X connect 5 0 7 1;
#X connect 6 0 3 0;
#X connect 6 1 24 0;
#X connect 7 0 21 0;
#X connect 7 1 8 0;
#X connect 8 0 21 0;
#X connect 8 1 11 0;
#X connect 9 0 16 0;
#X connect 10 0 26 0;
#X connect 10 1 13 1;
#X connect 11 0 12 0;
#X connect 11 0 14 0;
#X connect 12 0 11 1;
#X connect 13 0 9 0;
#X connect 14 0 9 1;
#X connect 14 1 19 0;
#X connect 15 0 5 0;
#X connect 16 0 15 0;
#X connect 16 1 5 1;
#X connect 17 0 11 1;
#X connect 18 0 13 0;
#X connect 18 1 27 0;
#X connect 19 0 18 0;
#X connect 22 0 6 0;
#X connect 23 0 4 1;
#X connect 23 1 15 1;
#X connect 24 0 10 0;
#X connect 24 1 9 1;
#X connect 24 2 17 0;
#X connect 25 0 23 0;
#X connect 26 0 14 1;
#X connect 26 1 19 1;
#X connect 26 2 27 1;
#X connect 27 0 20 0;
#X connect 28 0 29 0;
#X connect 29 0 25 0;
#X connect 29 0 26 0;
#X connect 29 0 13 1;
#X restore 23 172 pd split-points;
#X obj 94 286 list split;
#X obj 110 193 t b a;
#X obj 156 219 unpack;
#X obj 211 296 - 1;
#X obj 184 244 t f f;
#X obj 201 334 list split;
#X obj 122 423 sel 0 1 2;
#X msg 122 445 elec;
#X msg 137 462 video;
#X msg 148 481 inst;
#X obj 144 326 f;
#X obj 95 316 t a b;
#X obj 88 373 list split;
#X obj 117 396 list split 1;
#X obj 77 480 symbol;
#X obj 39 525 list append;
#X obj 23 82 t f b f, f 26;
#X obj 148 523 list append;
#X obj 216 381 list split;
#X obj 248 419 list split 1;
#X obj 248 583 symbol;
#X obj 201 356 t a b;
#X obj 241 359 f;
#X obj 250 461 sel 0 1 2 3 4;
#X msg 250 483 be;
#X msg 260 502 end;
#X msg 267 520 change;
#X msg 275 540 accel;
#X msg 286 559 disc;
#X obj 248 617 list append;
#X obj 397 456 list prepend en;
#X obj 117 26 inlet;
#X obj 23 60 text size parsed-\$1;
#X obj 23 126 text get parsed-\$1;
#X obj 35 596 t a b;
#X msg 74 595 1e+06;
#X obj 202 58 t b b;
#X msg 261 56 clear;
#X obj 35 618 text set grid-\$1;
#X obj 331 56 text define grid-\$1;
#X obj 186 617 outlet;
#X obj 256 191 list split 2;
#X obj 441 561 list append;
#X connect 0 0 37 0;
#X connect 1 0 38 0;
#X connect 2 0 4 0;
#X connect 2 1 3 1;
#X connect 3 0 5 0;
#X connect 4 0 20 0;
#X connect 4 1 6 0;
#X connect 5 0 16 0;
#X connect 5 1 10 0;
#X connect 6 0 3 0;
#X connect 6 1 46 0;
#X connect 7 0 15 1;
#X connect 7 0 27 1;
#X connect 7 1 9 0;
#X connect 8 0 10 1;
#X connect 9 0 5 1;
#X connect 9 1 8 0;
#X connect 10 0 26 0;
#X connect 10 1 35 0;
#X connect 11 0 12 0;
#X connect 11 1 14 0;
#X connect 11 2 13 0;
#X connect 12 0 19 0;
#X connect 13 0 19 0;
#X connect 14 0 19 0;
#X connect 15 0 17 1;
#X connect 16 0 17 0;
#X connect 16 1 15 0;
#X connect 17 1 18 0;
#X connect 18 0 11 0;
#X connect 19 0 22 0;
#X connect 20 0 39 0;
#X connect 20 0 45 0;
#X connect 21 0 1 0;
#X connect 21 1 4 1;
#X connect 22 0 20 1;
#X connect 23 1 24 0;
#X connect 24 0 28 0;
#X connect 25 0 34 0;
#X connect 26 0 23 0;
#X connect 26 1 27 0;
#X connect 27 0 23 1;
#X connect 28 0 29 0;
#X connect 28 1 30 0;
#X connect 28 2 31 0;
#X connect 28 3 32 0;
#X connect 28 4 33 0;
#X connect 29 0 25 0;
#X connect 30 0 25 0;
#X connect 31 0 25 0;
#X connect 32 0 25 0;
#X connect 33 0 25 0;
#X connect 34 0 22 1;
#X connect 35 0 47 0;
#X connect 36 0 41 0;
#X connect 37 0 21 0;
#X connect 38 0 2 0;
#X connect 39 0 43 0;
#X connect 39 1 40 0;
#X connect 40 0 43 1;
#X connect 41 0 37 0;
#X connect 41 1 42 0;
#X connect 42 0 44 0;
#X connect 46 0 7 0;
#X connect 46 1 47 1;
#X connect 47 0 34 1;
