#N canvas 598 25 551 726 10;
#X declare -stdpath list-abs;
#X declare -stdlib list-abs;
#X obj 154 143 list split 1;
#X obj 299 252 sel -1;
#X obj 275 326 spigot;
#X obj 346 253 b;
#X msg 299 274 1;
#X msg 346 275 0;
#X obj 170 167 t a a;
#X obj 183 230 list split 2;
#X obj 274 194 list split 1;
#X obj 301 216 list split 1;
#X obj 160 296 spigot;
#X obj 193 274 == 0;
#X obj 99 327 route float;
#X obj 99 349 list prepend;
#X obj 179 349 list prepend;
#X obj 259 349 list prepend;
#X msg 154 9 bang;
#X obj 152 92 fd_iterate;
#X obj 210 386 list split 1;
#X obj 325 403 list split 1;
#X text 214 364 end;
#X text 323 376 begin;
#X obj 363 429 list split 1;
#X msg 248 469 symbol tr;
#X obj 196 413 t a a;
#X obj 194 512 list split;
#X obj 222 534 list split 1;
#X obj 237 437 t b a;
#X text 89 367 tempo;
#X obj 320 506 t a a;
#X obj 318 605 list split;
#X obj 361 530 t b a;
#X msg 372 562 symbol en;
#X obj 295 584 print tr;
#X obj 353 633 list split 1;
#X obj 70 442 list prepend;
#X obj 382 659 list prepend;
#N canvas 547 104 623 517 parse-event 0;
#X text 61 80 start time;
#X text 178 212 transition breakpoint;
#X text 470 371 be \; end \; change \; accel \; disc \;;
#X text 94 372 POINT 1;
#X text 164 382 POINT 2;
#X text 234 382 POINT 3;
#X text 307 369 POINT 4;
#X obj 30 17 inlet;
#X text 135 79 end time;
#X obj 103 17 inlet;
#X obj 446 29 inlet;
#X obj 292 8 inlet;
#X text 328 4 [points];
#X obj 71 53 unpack;
#X obj 166 99 f;
#X obj 85 105 f;
#X obj 446 73 -;
#X obj 446 95 >= 0;
#X obj 478 74 +;
#X obj 478 96 / 2;
#X obj 277 42 t a a;
#X obj 363 52 list length;
#X obj 275 88 list prepend;
#X obj 30 39 t a a;
#X obj 30 61 -;
#X obj 30 105 abs;
#X text 19 127 duration;
#X text 247 269 for each point;
#X obj 123 37 route bang;
#X text 140 15 transition type;
#X text 483 26 'en';
#X text 10 2 timeline;
#X obj 359 216 list prepend;
#X obj 275 110 route 1 2 3 4;
#X obj 286 308 list append;
#X obj 337 487 outlet;
#X obj 222 191 * 1;
#X obj 262 225 / 1;
#X obj 294 251 fd_round 0.5;
#X obj 262 247 * 10;
#X obj 297 280 / 10;
#X text 184 333 transitions;
#X obj 446 51 t a a a;
#X obj 303 401 list append;
#X obj 363 74 t f f f;
#X obj 286 330 list prepend;
#X obj 165 353 list append;
#X obj 141 286 list;
#X obj 146 242 t b a;
#X obj 539 31 inlet tmpo;
#X obj 341 434 list append;
#X obj 341 456 t a b;
#X connect 7 0 23 0;
#X connect 9 0 28 0;
#X connect 10 0 42 0;
#X connect 11 0 20 0;
#X connect 13 0 15 0;
#X connect 13 1 14 0;
#X connect 16 0 17 0;
#X connect 18 0 19 0;
#X connect 19 0 36 1;
#X connect 20 0 22 0;
#X connect 20 1 21 0;
#X connect 21 0 44 0;
#X connect 22 0 33 0;
#X connect 23 0 24 0;
#X connect 23 1 13 0;
#X connect 23 1 47 1;
#X connect 24 0 25 0;
#X connect 25 0 36 0;
#X connect 28 1 32 0;
#X connect 32 0 34 1;
#X connect 33 0 48 0;
#X connect 33 1 32 1;
#X connect 33 2 32 1;
#X connect 33 3 32 1;
#X connect 34 0 45 0;
#X connect 36 0 37 0;
#X connect 37 0 39 0;
#X connect 38 0 40 0;
#X connect 39 0 38 0;
#X connect 40 0 34 0;
#X connect 42 0 16 0;
#X connect 42 1 18 0;
#X connect 42 2 43 1;
#X connect 43 0 50 0;
#X connect 44 0 22 1;
#X connect 44 1 37 1;
#X connect 44 2 45 1;
#X connect 45 0 48 0;
#X connect 46 0 43 0;
#X connect 47 0 46 0;
#X connect 48 0 47 0;
#X connect 48 1 46 1;
#X connect 49 0 50 1;
#X connect 50 0 51 0;
#X connect 51 0 35 0;
#X connect 51 1 50 1;
#X restore 252 653 pd parse-event;
#X obj 262 630 list;
#X obj 243 597 t b a;
#X obj 202 6 inlet;
#X obj 154 51 text size part-\$1;
#X obj 154 121 text get part-\$1;
#X obj 154 73 - 3;
#X obj 252 675 t a b;
#X obj 331 26 text define parsed-\$1;
#X obj 252 697 text set parsed-\$1;
#X msg 291 674 1e+06;
#X obj 202 28 t b b;
#X msg 261 26 clear;
#X obj 307 69 declare -stdpath list-abs;
#X obj 307 90 declare -stdlib list-abs;
#X obj 248 491 list-abs/list-find;
#X obj 372 584 list-abs/list-find;
#X connect 0 1 6 0;
#X connect 1 0 4 0;
#X connect 1 1 3 0;
#X connect 2 0 15 0;
#X connect 3 0 5 0;
#X connect 4 0 2 1;
#X connect 4 0 11 0;
#X connect 5 0 2 1;
#X connect 5 0 11 0;
#X connect 6 0 7 0;
#X connect 6 1 8 0;
#X connect 7 1 2 0;
#X connect 7 1 10 0;
#X connect 8 0 13 1;
#X connect 8 0 14 1;
#X connect 8 0 15 1;
#X connect 8 1 9 0;
#X connect 9 0 1 0;
#X connect 10 0 12 0;
#X connect 11 0 10 1;
#X connect 12 0 13 0;
#X connect 12 1 14 0;
#X connect 13 0 37 4;
#X connect 14 0 18 0;
#X connect 15 0 19 0;
#X connect 16 0 48 0;
#X connect 17 0 42 0;
#X connect 18 0 35 0;
#X connect 18 1 24 0;
#X connect 19 0 35 1;
#X connect 19 1 22 0;
#X connect 22 1 36 1;
#X connect 23 0 52 0;
#X connect 24 0 25 0;
#X connect 24 1 27 0;
#X connect 25 0 39 0;
#X connect 25 1 26 0;
#X connect 26 1 29 0;
#X connect 27 0 23 0;
#X connect 27 1 52 1;
#X connect 29 0 30 0;
#X connect 29 1 31 0;
#X connect 30 0 38 1;
#X connect 30 1 34 0;
#X connect 31 0 32 0;
#X connect 31 1 53 1;
#X connect 32 0 53 0;
#X connect 34 1 36 0;
#X connect 35 0 37 0;
#X connect 36 0 37 3;
#X connect 37 0 44 0;
#X connect 38 0 37 1;
#X connect 39 0 38 0;
#X connect 39 1 37 2;
#X connect 40 0 48 0;
#X connect 41 0 43 0;
#X connect 42 0 0 0;
#X connect 43 0 17 0;
#X connect 44 0 46 0;
#X connect 44 1 47 0;
#X connect 47 0 46 1;
#X connect 48 0 41 0;
#X connect 48 1 49 0;
#X connect 49 0 45 0;
#X connect 52 0 25 1;
#X connect 53 0 30 1;
