#N canvas -55 62 577 296 10;
#X obj 195 71 unpack f f f f f;
#X msg 307 189 0 \$1 0;
#X obj 194 24 r score-tick;
#X msg 94 215 draw linestrip;
#X obj 136 250 polygon 5, f 49;
#X obj 195 93 * 2;
#X obj 219 93 * 2;
#X obj 249 93 * 2;
#X obj 279 93 * 2;
#X obj 309 93 * 2;
#X obj 94 189 loadbang;
#X obj 460 143 pack f 100;
#X obj 460 164 line;
#X obj 392 143 pack f 100;
#X obj 392 166 line;
#X obj 316 144 pack f 100;
#X obj 319 166 line;
#X obj 246 142 pack f 100;
#X obj 248 164 line;
#X obj 175 143 pack f 100;
#X obj 175 162 line;
#X obj 122 19 inlet;
#X obj 195 49 array get \$1;
#X obj 466 90 r v-time;
#X msg 186 190 -4 \$1 0;
#X msg 247 189 -2 \$1 0;
#X msg 363 191 2 \$1 0;
#X msg 419 191 4 \$1 0;
#X connect 0 0 5 0;
#X connect 0 1 6 0;
#X connect 0 2 7 0;
#X connect 0 3 8 0;
#X connect 0 4 9 0;
#X connect 1 0 4 3;
#X connect 2 0 22 0;
#X connect 3 0 4 0;
#X connect 5 0 19 0;
#X connect 6 0 17 0;
#X connect 7 0 15 0;
#X connect 8 0 13 0;
#X connect 9 0 11 0;
#X connect 10 0 3 0;
#X connect 11 0 12 0;
#X connect 12 0 27 0;
#X connect 13 0 14 0;
#X connect 14 0 26 0;
#X connect 15 0 16 0;
#X connect 16 0 1 0;
#X connect 17 0 18 0;
#X connect 18 0 25 0;
#X connect 19 0 20 0;
#X connect 20 0 24 0;
#X connect 21 0 4 0;
#X connect 22 0 0 0;
#X connect 23 0 19 1;
#X connect 23 0 17 1;
#X connect 23 0 15 1;
#X connect 23 0 13 1;
#X connect 23 0 11 1;
#X connect 24 0 4 1;
#X connect 25 0 4 2;
#X connect 26 0 4 4;
#X connect 27 0 4 5;
