#N canvas 0 23 1280 722 10;
#X obj 40 187 list split 1;
#X obj 74 216 list trim;
#X obj 74 359 i-define;
#X obj 74 408 route 1;
#X obj 74 430 list split 1;
#X obj 74 268 t b a;
#X obj 125 301 list split 2;
#X obj 733 346 list split 1;
#X obj 108 685 t a b;
#X msg 150 686 1e+06;
#X msg 67 109 clear;
#X obj 40 16 inlet;
#X obj 40 38 t a b;
#X obj 67 63 spigot 1;
#X obj 67 85 t b b;
#X msg 103 85 0;
#X obj 221 29 inlet;
#X obj 251 163 print;
#X obj 67 154 text define _notes-input-\$1;
#X obj 107 707 text set _notes-input-\$1;
#X obj 108 454 t a a a a a a a;
#X obj 1092 621 fd_iterate 7;
#X obj 577 532 _percussion 4;
#X msg 1091 649 list i\$1 input -pit -1 -dur 1;
#X obj 159 324 t a a, f 29;
#X text 342 323 first value of en;
#X text 865 98 not instrument?;
#X text 996 621 make silences;
#X text 128 360 <-- defines instruments;
#X obj 108 532 _flute 0 92 59 33;
#X obj 217 532 _clarinet 1 97 53 44;
#X obj 345 532 _violin 2 97 55 46;
#X obj 464 532 _cello 3 75 36 40;
#X obj 676 532 _piano 5 6 110 20 60;
#X obj 1163 454 list split 2;
#X obj 1186 510 t b f;
#X obj 1186 532 fd_iterate 7;
#X obj 1186 554 pack;
#X msg 1152 584 list i\$1 input -pit -1 -dur 1 -tmp 4 \$2;
#X text 1229 559 tempo changes;
#X obj 545 40 list split 1;
#X msg 521 147 list i\$1 input -pit -1 -dur 1 -txt \$2;
#X obj 1186 488 change;
#X obj 813 532 _elec 7 76 63 13;
#X obj 74 239 route inst elec video;
#X obj 893 290 list split 2;
#X obj 832 297 t b a;
#X obj 943 355 t a a;
#X obj 221 51 pack f \$1;
#X msg 221 73 write _notes-input-\$2-\$1.txt;
#X obj 878 328 list split 1;
#X obj 1075 294 list split 2;
#X obj 1034 235 t b a;
#X obj 1165 356 t a a;
#X obj 1060 332 list split 1;
#X obj 934 538 _elec 8 76 63 13;
#X connect 0 1 1 0;
#X connect 1 0 44 0;
#X connect 2 0 3 0;
#X connect 3 0 4 0;
#X connect 4 1 20 0;
#X connect 5 0 2 0;
#X connect 5 1 6 0;
#X connect 6 0 40 0;
#X connect 6 1 24 0;
#X connect 7 0 22 1;
#X connect 7 0 29 1;
#X connect 7 0 30 1;
#X connect 7 0 31 1;
#X connect 7 0 32 1;
#X connect 7 0 33 2;
#X connect 7 1 34 0;
#X connect 8 0 19 0;
#X connect 8 1 9 0;
#X connect 9 0 19 1;
#X connect 10 0 18 0;
#X connect 11 0 12 0;
#X connect 12 0 0 0;
#X connect 12 1 13 0;
#X connect 13 0 14 0;
#X connect 14 0 10 0;
#X connect 14 1 15 0;
#X connect 15 0 13 1;
#X connect 16 0 48 0;
#X connect 20 0 29 0;
#X connect 20 1 30 0;
#X connect 20 2 31 0;
#X connect 20 3 32 0;
#X connect 20 4 22 0;
#X connect 20 5 33 0;
#X connect 20 6 33 1;
#X connect 21 0 23 0;
#X connect 22 0 8 0;
#X connect 23 0 8 0;
#X connect 24 0 2 1;
#X connect 24 1 7 0;
#X connect 29 0 8 0;
#X connect 30 0 8 0;
#X connect 31 0 8 0;
#X connect 32 0 8 0;
#X connect 33 0 8 0;
#X connect 33 1 8 0;
#X connect 34 1 42 0;
#X connect 35 0 36 0;
#X connect 35 1 37 1;
#X connect 36 0 37 0;
#X connect 37 0 38 0;
#X connect 38 0 8 0;
#X connect 42 0 35 0;
#X connect 43 0 8 0;
#X connect 44 0 5 0;
#X connect 44 1 46 0;
#X connect 44 2 52 0;
#X connect 45 0 50 0;
#X connect 45 1 47 0;
#X connect 46 0 43 0;
#X connect 46 1 45 0;
#X connect 47 0 43 2;
#X connect 48 0 49 0;
#X connect 49 0 17 0;
#X connect 49 0 18 0;
#X connect 50 0 43 1;
#X connect 51 0 54 0;
#X connect 51 1 53 0;
#X connect 52 0 55 0;
#X connect 52 1 51 0;
#X connect 53 0 55 2;
#X connect 54 0 55 1;
#X connect 55 0 8 0;
