#N canvas 0 22 450 300 10;
#X msg 239 138 clear;
#X obj 44 94 pack f \$1;
#X obj 40 253 outlet;
#X obj 162 206 text define part-\$1;
#X obj 70 52 t f b;
#X obj 74 17 inlet;
#X msg 33 129 read ../parts/\$1-part-\$2.txt;
#X connect 0 0 3 0;
#X connect 1 0 6 0;
#X connect 4 0 1 0;
#X connect 4 1 0 0;
#X connect 5 0 4 0;
#X connect 6 0 2 0;
#X connect 6 0 3 0;
