#N canvas 494 22 588 707 10;
#X obj 46 9 inlet;
#X obj 46 57 f;
#X obj 46 79 / 100;
#X obj 46 101 * 6.28;
#X obj 102 164 cos;
#X obj 102 137 t f f b, f 17;
#X obj 373 135 random 100;
#X obj 373 179 t b;
#X obj 243 620 list append;
#X obj 189 476 list prepend -pit;
#X obj 263 570 spigot 0;
#X obj 58 204 t f f;
#X obj 74 327 sel;
#X msg 75 525 0;
#X obj 121 288 - 2;
#X obj 75 394 t b b, f 6;
#X obj 224 513 t b a b;
#X msg 277 515 1;
#X msg 331 376 1;
#X obj 298 450 spigot;
#X msg 295 368 0;
#X obj 97 487 sel;
#X obj 125 444 - 1;
#X msg 360 454 0;
#X msg 397 597 list -spa 4;
#X obj 132 690 outlet;
#X obj 373 157 moses 13;
#X obj 46 31 t b b, f 74;
#N canvas 0 22 450 300 sin 0;
#X obj 30 71 sin;
#X obj 33 98 + 1;
#X obj 34 128 * 2;
#X obj 35 153 int;
#X obj 39 200 + 2;
#X obj 32 175 * 7;
#X obj 27 42 inlet;
#X obj 39 222 outlet;
#X connect 0 0 1 0;
#X connect 1 0 2 0;
#X connect 2 0 3 0;
#X connect 3 0 5 0;
#X connect 4 0 7 0;
#X connect 5 0 4 0;
#X connect 6 0 0 0;
#X restore 151 172 pd sin;
#X obj 442 203 t b b;
#X msg 407 571 list -spa 3;
#X obj 361 352 t b b b;
#X obj 243 662 route 0 1;
#X obj 244 641 list prepend 1;
#X obj 405 683 outlet;
#X text 85 667 durations;
#X text 397 663 -dur 1;
#N canvas 638 113 450 300 teaser 0;
#X obj 41 14 inlet;
#X obj 38 44 f;
#X obj 67 45 + 1;
#X obj 38 66 moses 13;
#X obj 150 125 moses 27;
#X obj 151 207 bang;
#X obj 78 203 bang;
#X msg 78 225 1;
#X msg 152 237 0;
#X obj 84 278 outlet;
#X obj 89 91 moses 16;
#X connect 0 0 1 0;
#X connect 1 0 2 0;
#X connect 1 0 3 0;
#X connect 2 0 1 1;
#X connect 3 0 6 0;
#X connect 3 1 10 0;
#X connect 4 0 6 0;
#X connect 4 1 5 0;
#X connect 5 0 8 0;
#X connect 6 0 7 0;
#X connect 7 0 9 0;
#X connect 8 0 9 0;
#X connect 10 0 5 0;
#X connect 10 1 4 0;
#X restore 487 640 pd teaser;
#X text 350 102 legato / non-legato;
#N canvas 284 120 837 657 scales 0;
#X obj 173 352 t b f;
#X obj 193 407 f;
#X obj 223 409 + 1;
#X obj 193 429 mod 12;
#X obj 254 374 * 1;
#X obj 291 307 sel;
#X msg 291 329 -1;
#X obj 53 182 fd_iterate;
#X obj 193 451 + \$2;
#X obj 435 593 outlet;
#X obj 33 560 outlet;
#X obj 52 15 inlet;
#X obj 302 35 inlet;
#X text 221 321 direction;
#X text 173 295 modulo scale;
#X obj 561 118 fd_markov3;
#N canvas 638 113 450 300 teaser 0;
#X obj 41 14 inlet;
#X obj 38 44 f;
#X obj 67 45 + 1;
#X obj 89 91 moses 14;
#X obj 38 66 moses 13;
#X obj 150 125 moses 27;
#X obj 151 207 bang;
#X obj 78 203 bang;
#X msg 78 225 1;
#X msg 152 237 0;
#X obj 84 278 outlet;
#X connect 0 0 1 0;
#X connect 1 0 2 0;
#X connect 1 0 4 0;
#X connect 2 0 1 1;
#X connect 3 0 6 0;
#X connect 3 1 5 0;
#X connect 4 0 7 0;
#X connect 4 1 3 0;
#X connect 5 0 7 0;
#X connect 5 1 6 0;
#X connect 6 0 9 0;
#X connect 7 0 8 0;
#X connect 8 0 10 0;
#X connect 9 0 10 0;
#X restore 145 32 pd teaser;
#X obj 56 130 route 0 1;
#X obj 57 76 list prepend 1;
#X obj 52 37 t a b;
#X obj 499 347 t b f;
#X obj 519 402 f;
#X obj 549 404 + 1;
#X obj 546 461 mod 12;
#X obj 580 369 * 1;
#X obj 617 302 sel;
#X msg 617 324 -1;
#X obj 417 255 fd_iterate;
#X obj 416 282 t f b;
#X obj 546 483 + \$2;
#X msg 183 228 bang;
#N canvas 0 22 450 300 prob 0;
#X obj 65 150 + 1;
#X obj 65 128 random 4;
#X obj 65 106 t b;
#X obj 98 224 f;
#X obj 157 160 t b b;
#X msg 193 160 0;
#X obj 157 138 spigot 1;
#X obj 65 172 t b f;
#X obj 124 104 t b b;
#X obj 98 246 sel;
#X obj 65 63 random 100;
#X obj 65 84 moses 22;
#X obj 62 27 inlet;
#X obj 122 275 outlet;
#X connect 0 0 7 0;
#X connect 1 0 0 0;
#X connect 2 0 1 0;
#X connect 3 0 9 0;
#X connect 4 0 1 0;
#X connect 4 1 5 0;
#X connect 5 0 6 1;
#X connect 6 0 4 0;
#X connect 7 0 3 0;
#X connect 7 1 3 1;
#X connect 8 0 6 0;
#X connect 8 1 3 0;
#X connect 9 1 13 0;
#X connect 10 0 11 0;
#X connect 11 0 2 0;
#X connect 11 1 8 0;
#X connect 12 0 10 0;
#X restore 181 263 pd prob;
#N canvas 0 22 450 300 prob 0;
#X obj 65 150 + 1;
#X obj 65 128 random 4;
#X obj 65 106 t b;
#X obj 98 224 f;
#X obj 157 160 t b b;
#X msg 193 160 0;
#X obj 157 138 spigot 1;
#X obj 65 172 t b f;
#X obj 130 88 t b b;
#X obj 98 246 sel;
#X obj 65 63 random 100;
#X obj 65 84 moses 22;
#X obj 62 27 inlet;
#X obj 122 275 outlet;
#X obj 251 20 inlet;
#X obj 354 20 inlet;
#X msg 357 73 4;
#X obj 251 42 random 12;
#X obj 251 64 + 2;
#X connect 0 0 7 0;
#X connect 1 0 0 0;
#X connect 2 0 1 0;
#X connect 3 0 9 0;
#X connect 4 0 1 0;
#X connect 4 1 5 0;
#X connect 5 0 6 1;
#X connect 6 0 4 0;
#X connect 7 0 3 0;
#X connect 7 1 3 1;
#X connect 8 0 6 0;
#X connect 8 1 3 0;
#X connect 9 1 13 0;
#X connect 10 0 11 0;
#X connect 11 0 2 0;
#X connect 11 1 8 0;
#X connect 12 0 10 0;
#X connect 14 0 17 0;
#X connect 15 0 16 0;
#X connect 16 0 1 1;
#X connect 17 0 18 0;
#X connect 18 0 1 1;
#X restore 507 258 pd prob;
#X obj 561 140 t f f;
#X obj 715 319 random 10;
#X obj 715 341 + 1;
#X msg 715 363 2 \$1 8 4;
#X obj 715 385 t b a;
#X obj 715 407 fd_r;
#X obj 472 219 f;
#X obj 520 81 t b f;
#X obj 562 170 t b f;
#X obj 639 201 sel 1 2 0;
#X msg 660 396 12;
#X msg 650 353 1.2;
#X msg 674 327 1;
#X msg 631 378 set -1.2;
#X msg 559 329 set -1;
#X obj 288 276 < 0;
#X obj 52 209 t f b b;
#X obj 362 153 * 1;
#X obj 177 138 random 2;
#X obj 177 160 sel 0;
#X msg 177 182 -1;
#X obj 175 69 random 100;
#X obj 175 113 sel 1;
#X obj 614 271 < 0;
#X obj 57 98 t a b;
#X obj 175 91 < 5;
#X connect 0 0 1 0;
#X connect 0 1 4 0;
#X connect 1 0 2 0;
#X connect 1 0 3 0;
#X connect 2 0 1 1;
#X connect 3 0 8 0;
#X connect 4 0 2 1;
#X connect 5 0 6 0;
#X connect 5 1 4 1;
#X connect 6 0 4 1;
#X connect 7 0 49 0;
#X connect 8 0 9 0;
#X connect 11 0 19 0;
#X connect 12 0 50 0;
#X connect 15 0 33 0;
#X connect 16 0 18 1;
#X connect 17 0 7 0;
#X connect 17 1 40 0;
#X connect 18 0 57 0;
#X connect 19 0 18 0;
#X connect 19 1 16 0;
#X connect 20 0 21 0;
#X connect 20 1 24 0;
#X connect 21 0 22 0;
#X connect 21 0 23 0;
#X connect 22 0 21 1;
#X connect 23 0 29 0;
#X connect 24 0 22 1;
#X connect 25 0 26 0;
#X connect 25 1 24 1;
#X connect 26 0 24 1;
#X connect 27 0 28 0;
#X connect 28 0 10 0;
#X connect 28 1 32 0;
#X connect 29 0 9 0;
#X connect 30 0 31 0;
#X connect 31 0 0 0;
#X connect 32 0 20 0;
#X connect 33 0 15 1;
#X connect 33 1 41 0;
#X connect 34 0 35 0;
#X connect 35 0 36 0;
#X connect 36 0 37 0;
#X connect 37 0 38 0;
#X connect 37 1 38 1;
#X connect 38 0 23 1;
#X connect 39 0 27 0;
#X connect 40 0 15 0;
#X connect 40 1 39 1;
#X connect 41 0 39 0;
#X connect 41 1 42 0;
#X connect 42 0 32 1;
#X connect 42 1 34 0;
#X connect 42 1 44 0;
#X connect 42 2 43 0;
#X connect 42 2 32 2;
#X connect 42 2 45 0;
#X connect 42 2 47 0;
#X connect 43 0 23 1;
#X connect 44 0 24 1;
#X connect 45 0 24 0;
#X connect 46 0 26 0;
#X connect 47 0 26 0;
#X connect 48 0 5 0;
#X connect 49 0 10 0;
#X connect 49 1 31 0;
#X connect 50 0 48 0;
#X connect 50 0 56 0;
#X connect 51 0 52 0;
#X connect 52 0 53 0;
#X connect 52 1 50 1;
#X connect 53 0 50 1;
#X connect 54 0 58 0;
#X connect 55 0 51 0;
#X connect 56 0 25 0;
#X connect 57 0 17 0;
#X connect 57 1 54 0;
#X connect 58 0 55 0;
#X restore 118 242 pd scales;
#X text 67 308 end of scale;
#X obj 142 6 inlet;
#X msg 416 513 list -txt legato;
#X msg 418 539 list -txt non-legato;
#X connect 0 0 27 0;
#X connect 1 0 2 0;
#X connect 2 0 3 0;
#X connect 3 0 5 0;
#X connect 4 0 39 1;
#X connect 5 0 4 0;
#X connect 5 1 28 0;
#X connect 5 2 6 0;
#X connect 6 0 26 0;
#X connect 7 0 31 0;
#X connect 8 0 33 0;
#X connect 9 0 16 0;
#X connect 10 0 8 1;
#X connect 11 0 39 0;
#X connect 11 1 14 0;
#X connect 12 0 15 0;
#X connect 12 1 21 0;
#X connect 13 0 10 1;
#X connect 14 0 12 1;
#X connect 14 0 22 0;
#X connect 15 0 13 0;
#X connect 15 1 19 0;
#X connect 16 0 17 0;
#X connect 16 1 8 0;
#X connect 16 2 10 0;
#X connect 17 0 10 1;
#X connect 18 0 19 1;
#X connect 20 0 19 1;
#X connect 21 0 13 0;
#X connect 22 0 21 1;
#X connect 23 0 10 1;
#X connect 24 0 8 1;
#X connect 26 0 7 0;
#X connect 26 1 29 0;
#X connect 27 0 1 0;
#X connect 27 1 37 0;
#X connect 28 0 11 0;
#X connect 29 0 20 0;
#X connect 29 1 43 0;
#X connect 30 0 8 1;
#X connect 31 0 18 0;
#X connect 31 1 23 0;
#X connect 31 2 42 0;
#X connect 32 0 25 0;
#X connect 32 1 34 0;
#X connect 33 0 32 0;
#X connect 37 0 33 1;
#X connect 39 0 12 0;
#X connect 39 1 9 0;
#X connect 41 0 1 1;
#X connect 42 0 8 1;
#X connect 43 0 8 1;
