#N canvas 928 51 173 293 10;
#X obj 61 69 f;
#X obj 61 91 + 1;
#X obj 61 113 mod 5;
#X obj 22 38 t b f b;
#X obj 22 136 f;
#X obj 22 158 sel 4;
#X obj 22 202 / 5;
#X obj 22 16 r \$1;
#X obj 54 135 tabwrite \$1-t;
#X obj 22 180 array sum \$1-t;
#X obj 22 224 s \$1-avg;
#X obj 23 252 array define \$1-t 5;
#X connect 0 0 1 0;
#X connect 0 0 4 1;
#X connect 0 0 8 1;
#X connect 1 0 2 0;
#X connect 2 0 0 1;
#X connect 3 0 4 0;
#X connect 3 1 8 0;
#X connect 3 2 0 0;
#X connect 4 0 5 0;
#X connect 5 0 9 0;
#X connect 6 0 10 0;
#X connect 7 0 3 0;
#X connect 9 0 6 0;
