#N canvas 442 22 697 734 10;
#X obj 129 311 random 100;
#X obj 129 364 fd_gauss 50 5 0.02;
#X obj 184 438 * 12;
#X obj 257 313 random 100;
#X obj 257 364 fd_gauss 50 5 0.02;
#X obj 129 282 t b f b f f, f 48;
#X obj 184 560 +;
#X obj 199 540 t f f;
#X obj 129 214 cos;
#X obj 129 236 * 0.5;
#X obj 129 258 + 0.5;
#X obj 79 224 * 6.28;
#X obj 78 244 t f f;
#X obj 79 311 * 0.5;
#X obj 79 333 + 0.5;
#X obj 79 289 sin;
#X obj 79 377 int;
#X obj 79 399 * 4;
#X msg 79 443 1;
#X obj 79 465 until;
#X obj 79 421 sel 0;
#X obj 443 282 list prepend -nhs;
#X obj 245 619 list append;
#X obj 82 49 inlet;
#X obj 117 563 sel 0 1;
#X obj 172 589 f;
#X obj 142 589 f;
#X obj 243 598 list prepend -pit;
#X obj 184 460 + 1;
#X obj 184 482 max 1;
#X obj 184 504 min 12;
#X obj 129 333 / 10;
#X obj 257 335 / 10;
#X obj 79 202 / 100;
#X obj 199 334 * 10;
#X obj 327 333 * 10;
#X obj 109 176 r \$0-en;
#X obj 79 180 f;
#X obj 79 355 * 4;
#X obj 133 534 tgl 15 0 empty empty empty 17 7 0 10 -262144 -1 -1 0
1;
#X obj 290 430 + \$3;
#X obj 258 473 t f b;
#X obj 283 495 - 12;
#X obj 258 495 min;
#X obj 132 696 outlet;
#X obj 243 662 route 0 1;
#X obj 244 641 list prepend 1;
#X obj 406 696 outlet;
#X text 85 667 durations;
#X text 397 663 -dur 1;
#N canvas 638 113 450 300 teaser 0;
#X obj 41 14 inlet;
#X obj 38 44 f;
#X obj 67 45 + 1;
#X obj 151 207 bang;
#X obj 78 203 bang;
#X msg 78 225 1;
#X msg 152 237 0;
#X obj 84 278 outlet;
#X obj 38 66 moses 17;
#X obj 89 91 moses 18;
#X obj 150 125 moses 28;
#X connect 0 0 1 0;
#X connect 1 0 2 0;
#X connect 1 0 8 0;
#X connect 2 0 1 1;
#X connect 3 0 6 0;
#X connect 4 0 5 0;
#X connect 5 0 7 0;
#X connect 6 0 7 0;
#X connect 8 0 4 0;
#X connect 8 1 9 0;
#X connect 9 0 3 0;
#X connect 9 1 10 0;
#X connect 10 0 4 0;
#X connect 10 1 3 0;
#X restore 482 508 pd teaser;
#X obj 80 115 t b f b b, f 67;
#X obj 577 26 inlet;
#X obj 578 201 s \$0-min;
#X obj 588 221 s \$0-max;
#X obj 598 241 s \$0-range;
#X obj 578 179 unpack f f f;
#X obj 304 472 r \$0-min;
#X obj 322 429 r \$0-max;
#X obj 292 407 r \$0-range;
#X obj 358 406 * 30;
#X obj 129 385 fd_round 0.5 10;
#X obj 257 384 fd_round 0.5 10;
#N canvas 638 113 450 300 teaser 0;
#X obj 41 14 inlet;
#X obj 38 44 f;
#X obj 67 45 + 1;
#X obj 89 91 moses 14;
#X obj 38 66 moses 13;
#X obj 150 125 moses 27;
#X obj 151 207 bang;
#X obj 78 203 bang;
#X msg 78 225 1;
#X msg 152 237 0;
#X obj 84 278 outlet;
#X connect 0 0 1 0;
#X connect 1 0 2 0;
#X connect 1 0 4 0;
#X connect 2 0 1 1;
#X connect 3 0 6 0;
#X connect 3 1 5 0;
#X connect 4 0 7 0;
#X connect 4 1 3 0;
#X connect 5 0 7 0;
#X connect 5 1 6 0;
#X connect 6 0 9 0;
#X connect 7 0 8 0;
#X connect 8 0 10 0;
#X connect 9 0 10 0;
#X restore 120 447 pd teaser;
#X obj 79 487 list prepend 1;
#X obj 79 509 route 0 1;
#X obj 75 533 random 2;
#X obj 314 496 f \$1;
#X obj 258 451 max \$2;
#X obj 258 429 + \$2;
#X obj 260 408 * \$3;
#X connect 0 0 31 0;
#X connect 1 0 61 0;
#X connect 2 0 28 0;
#X connect 3 0 32 0;
#X connect 4 0 62 0;
#X connect 5 0 0 0;
#X connect 5 1 34 0;
#X connect 5 2 3 0;
#X connect 5 3 35 0;
#X connect 5 4 60 0;
#X connect 6 0 26 1;
#X connect 7 0 6 1;
#X connect 7 1 25 1;
#X connect 8 0 9 0;
#X connect 9 0 10 0;
#X connect 10 0 5 0;
#X connect 11 0 12 0;
#X connect 12 0 15 0;
#X connect 12 1 8 0;
#X connect 13 0 14 0;
#X connect 14 0 38 0;
#X connect 15 0 13 0;
#X connect 16 0 17 0;
#X connect 17 0 20 0;
#X connect 18 0 19 0;
#X connect 19 0 64 0;
#X connect 20 0 18 0;
#X connect 20 1 19 0;
#X connect 21 0 22 1;
#X connect 22 0 46 0;
#X connect 23 0 51 0;
#X connect 24 0 25 0;
#X connect 24 1 26 0;
#X connect 25 0 27 0;
#X connect 26 0 27 0;
#X connect 27 0 22 0;
#X connect 28 0 29 0;
#X connect 29 0 30 0;
#X connect 30 0 6 0;
#X connect 31 0 1 0;
#X connect 32 0 4 0;
#X connect 33 0 11 0;
#X connect 34 0 1 2;
#X connect 35 0 4 2;
#X connect 36 0 37 1;
#X connect 37 0 33 0;
#X connect 38 0 16 0;
#X connect 39 0 24 0;
#X connect 40 0 69 1;
#X connect 41 0 43 0;
#X connect 41 1 67 0;
#X connect 42 0 43 1;
#X connect 43 0 7 0;
#X connect 45 0 44 0;
#X connect 45 1 47 0;
#X connect 46 0 45 0;
#X connect 50 0 46 1;
#X connect 51 0 37 0;
#X connect 51 1 21 0;
#X connect 51 2 63 0;
#X connect 51 3 50 0;
#X connect 52 0 56 0;
#X connect 56 0 53 0;
#X connect 56 1 54 0;
#X connect 56 2 55 0;
#X connect 57 0 67 1;
#X connect 58 0 40 1;
#X connect 58 0 68 1;
#X connect 58 0 69 1;
#X connect 59 0 70 1;
#X connect 60 0 40 0;
#X connect 61 0 2 0;
#X connect 62 0 70 0;
#X connect 63 0 64 1;
#X connect 64 0 65 0;
#X connect 65 0 66 0;
#X connect 65 1 39 0;
#X connect 66 0 24 0;
#X connect 67 0 42 0;
#X connect 68 0 41 0;
#X connect 69 0 68 0;
#X connect 70 0 69 0;
