#N canvas 0 22 259 317 10;
#X obj 34 21 inlet;
#X obj 79 74 - 9;
#X obj 133 124 - 9;
#X obj 67 274 outlet;
#X obj 194 274 outlet;
#X obj 22 146 list prepend \$1;
#X obj 99 174 list prepend \$2;
#X obj 154 203 list prepend \$3;
#X obj 34 46 _type3 \$1 \$2 \$3;
#X obj 80 94 _type3 \$1 \$2 \$3;
#X obj 132 144 _type3 \$1 \$2 \$3;
#X connect 0 0 8 0;
#X connect 1 0 9 0;
#X connect 2 0 10 0;
#X connect 5 0 3 0;
#X connect 6 0 3 0;
#X connect 7 0 3 0;
#X connect 8 0 5 0;
#X connect 8 1 1 0;
#X connect 9 0 6 0;
#X connect 9 1 2 0;
#X connect 10 0 7 0;
#X connect 10 1 4 0;
