#N canvas 0 22 254 251 10;
#X obj 32 59 t f f;
#X obj 32 84 / 3;
#X obj 90 101 mod 3;
#X obj 32 110 int;
#X obj 41 176 list;
#X obj 35 29 inlet;
#X obj 41 198 outlet;
#X obj 35 138 _type1 \$1 \$2 \$3;
#X obj 137 139 _type1 \$1 \$2 \$3;
#X connect 0 0 1 0;
#X connect 0 1 2 0;
#X connect 1 0 3 0;
#X connect 2 0 8 0;
#X connect 3 0 7 0;
#X connect 4 0 6 0;
#X connect 5 0 0 0;
#X connect 7 0 4 0;
#X connect 8 0 4 1;
