#N canvas 0 22 338 273 10;
#X obj 25 43 moses 9;
#X obj 130 60 - 9;
#X obj 139 86 moses 9;
#X obj 233 83 - 9;
#X obj 24 18 inlet;
#X obj 118 220 outlet;
#X obj 233 105 moses 9;
#X obj 284 222 outlet;
#X obj 19 154 list prepend \$1;
#X obj 128 157 list prepend \$2;
#X obj 230 162 list prepend \$3;
#X obj 23 125 _type2 \$1 \$2 \$3;
#X obj 131 130 _type2 \$1 \$2 \$3;
#X obj 229 138 _type2 \$1 \$2 \$3;
#X connect 0 0 11 0;
#X connect 0 1 1 0;
#X connect 1 0 2 0;
#X connect 2 0 12 0;
#X connect 2 1 3 0;
#X connect 3 0 6 0;
#X connect 4 0 0 0;
#X connect 6 0 13 0;
#X connect 6 1 7 0;
#X connect 8 0 5 0;
#X connect 9 0 5 0;
#X connect 10 0 5 0;
#X connect 11 0 8 0;
#X connect 12 0 9 0;
#X connect 13 0 10 0;
