#N canvas 248 71 445 565 10;
#N canvas 688 461 450 300 gestures 0;
#X obj 21 22 inlet;
#X obj 48 198 + 1;
#X text 86 195 <- number of gestures;
#X obj 48 264 outlet;
#X obj 21 129 fd_markov3;
#X obj 21 152 t f f;
#X obj 368 14 inlet;
#X obj 368 36 unpack;
#X obj 368 58 swap;
#X obj 368 80 pack;
#X text 94 28 3 Define number of gestures \; b. 1 gesture \; c. 2 gestures
\; d. 3 gestures \;;
#X connect 0 0 4 0;
#X connect 1 0 3 0;
#X connect 4 0 5 0;
#X connect 5 0 4 1;
#X connect 5 1 1 0;
#X connect 6 0 7 0;
#X connect 7 0 8 0;
#X connect 7 1 8 1;
#X connect 8 0 9 0;
#X connect 8 1 9 1;
#X connect 9 0 4 2;
#X restore 44 166 pd gestures;
#N canvas 561 266 594 449 sounds 0;
#X obj 28 11 inlet;
#X obj 46 386 outlet;
#X obj 93 315 t a a;
#X obj 42 69 t b f b, f 16;
#X obj 43 343 list;
#X obj 93 293 list prepend;
#X obj 66 100 until;
#X obj 430 10 inlet;
#X obj 80 186 t f f;
#X obj 80 164 fd_markov3;
#X connect 0 0 3 0;
#X connect 2 0 4 1;
#X connect 2 1 5 1;
#X connect 3 0 4 0;
#X connect 3 1 6 0;
#X connect 3 2 5 1;
#X connect 4 0 1 0;
#X connect 5 0 2 0;
#X connect 6 0 9 0;
#X connect 7 0 9 2;
#X connect 8 0 9 1;
#X connect 8 1 5 0;
#X connect 9 0 8 0;
#X restore 49 231 pd sounds;
#X obj 43 137 t b a, f 25;
#X obj 203 391 list prepend;
#X obj 125 298 list prepend;
#X obj 45 196 t a a, f 19;
#X obj 39 14 inlet;
#X obj 199 470 outlet;
#X obj 167 10 inlet;
#X text 205 11 en values for new probs;
#X connect 0 0 5 0;
#X connect 1 0 4 0;
#X connect 2 0 0 0;
#X connect 2 1 3 1;
#X connect 3 0 7 0;
#X connect 4 0 3 0;
#X connect 5 0 1 0;
#X connect 5 1 4 1;
#X connect 6 0 2 0;
#X connect 8 0 1 1;
#X connect 8 0 0 1;
