#N canvas 0 22 376 527 12;
#X obj 40 378 + 1;
#X obj 38 219 t a b;
#X obj 38 333 spigot;
#X obj 83 248 crand -0.5 0.5;
#X obj 83 273 fd_gauss 0.5 0.01;
#X obj 83 298 >= 0.1;
#X msg 70 138 rand \$1 \, reset;
#X obj 70 111 crand 10 132;
#X obj 38 79 t b b a, f 23;
#X obj 40 356 list split 1;
#X obj 40 400 list;
#X obj 40 425 list, f 26;
#X obj 38 25 inlet;
#X obj 264 40 inlet;
#X obj 40 450 outlet;
#X obj 251 242 list;
#X msg 252 197 \$1 msec to:;
#X obj 260 350 print _gaussian-\$1, f 9;
#X msg 166 180 done;
#X obj 258 88 r ngrains;
#X obj 258 113 minimax;
#X obj 273 150 * 200;
#X obj 278 277 r monitor;
#X obj 262 308 spigot 1;
#X obj 38 174 fd_mtxdelit 6 10 5 358, f 11;
#X connect 0 0 10 0;
#X connect 1 0 2 0;
#X connect 1 1 3 0;
#X connect 2 0 9 0;
#X connect 3 0 4 0;
#X connect 4 0 5 0;
#X connect 5 0 2 1;
#X connect 6 0 24 1;
#X connect 7 0 6 0;
#X connect 7 0 21 0;
#X connect 8 0 24 0;
#X connect 8 1 7 0;
#X connect 8 2 11 1;
#X connect 8 2 15 1;
#X connect 9 0 0 0;
#X connect 9 1 10 1;
#X connect 10 0 11 0;
#X connect 11 0 14 0;
#X connect 12 0 8 0;
#X connect 13 0 7 0;
#X connect 15 0 23 0;
#X connect 16 0 15 0;
#X connect 18 0 23 0;
#X connect 19 0 20 0;
#X connect 20 2 21 1;
#X connect 21 0 16 0;
#X connect 22 0 23 1;
#X connect 23 0 17 0;
#X connect 24 0 1 0;
#X connect 24 1 18 0;
