#N canvas 381 138 498 537 12;
#X obj 139 214 list prepend all, f 12;
#X obj 139 252 list trim;
#X obj 314 404 outlet~;
#X obj 181 412 outlet~;
#X msg 28 254 next \$1;
#X obj 28 54 t b f, f 10;
#X obj 28 228 f, f 10;
#X obj 28 79 random 10;
#X obj 28 177 fd_delit;
#X obj 28 104 t f f;
#X obj 79 103 * 3;
#X obj 28 128 pack;
#X msg 28 152 \$1 \$2 \, bang;
#X obj 256 15 inlet parameters;
#X obj 28 16 inlet dur;
#X obj 394 12 inlet switch;
#X obj 135 15 inlet sigmund;
#X obj 191 315 clone _gr \$2 \$3;
#X obj 140 190 list;
#X obj 28 202 t b b;
#X connect 0 0 1 0;
#X connect 1 0 17 1;
#X connect 4 0 17 0;
#X connect 5 0 7 0;
#X connect 5 1 6 1;
#X connect 6 0 4 0;
#X connect 7 0 9 0;
#X connect 8 0 19 0;
#X connect 9 0 11 0;
#X connect 9 1 10 0;
#X connect 10 0 11 1;
#X connect 11 0 12 0;
#X connect 12 0 8 0;
#X connect 13 0 17 2;
#X connect 14 0 5 0;
#X connect 15 0 17 3;
#X connect 16 0 18 1;
#X connect 17 0 3 0;
#X connect 17 1 2 0;
#X connect 18 0 0 0;
#X connect 19 0 6 0;
#X connect 19 1 18 0;
