#N canvas 0 22 227 283 12;
#X obj 39 228 dac~ \$1;
#X obj 39 34 catch~ \$1-\$2;
#X obj 129 226 outlet;
#X obj 39 105 hip~ 3;
#N canvas 0 22 450 300 env 1;
#X obj 59 118 - 100;
#X obj 59 96 env~ 2048;
#X obj 59 56 inlet~;
#X obj 281 119 switch~;
#X obj 158 229 outlet;
#X obj 158 58 r monitor, f 7;
#X obj 158 176 f;
#X obj 158 128 metro 150;
#X obj 158 99 t f f f;
#X obj 196 153 sel;
#X msg 196 178 -10000;
#X connect 0 0 6 1;
#X connect 1 0 0 0;
#X connect 2 0 1 0;
#X connect 5 0 8 0;
#X connect 6 0 4 0;
#X connect 7 0 6 0;
#X connect 8 0 7 0;
#X connect 8 1 9 0;
#X connect 8 2 3 0;
#X connect 9 0 10 0;
#X connect 10 0 4 0;
#X restore 73 146 pd env ______;
#X connect 1 0 3 0;
#X connect 3 0 0 0;
#X connect 3 0 4 0;
#X connect 4 0 2 0;
