#N canvas 19 474 315 62 12;
#X declare -path ~/Documents/fd_lib;
#X declare -path ../lib;
#X obj 7 6 fd_netsend;
#N canvas 1050 243 210 168 AUDIO 1;
#N canvas 0 22 454 473 dependencies 0;
#X text 18 17 declare all dependencies here;
#X obj 19 43 cnv 15 400 400 empty empty empty 20 12 0 14 -233017 -66577
0;
#X obj 33 55 declare -path ~/Documents/fd_lib;
#X obj 33 77 declare -path ../lib;
#X restore 7 6 pd dependencies _______;
#N canvas 15 45 294 150 tables 0;
#X text 12 30 place all [array] objects here;
#X obj 19 56 fd_windows \$0 1024;
#X restore 7 69 pd tables _____________;
#N canvas 828 456 339 250 gui-glue 0;
#X text 19 20 place all gui related glue-type messages;
#X obj 27 55 r oscillator-freq;
#X obj 27 99 s report;
#X text 87 104 <-- sending to <report> will print to console, f 24
;
#X obj 27 77 list prepend frequency;
#X connect 1 0 4 0;
#X connect 4 0 2 0;
#X restore 7 90 pd gui-glue ___________;
#N canvas 0 22 254 322 presets 0;
#X obj 29 13 r pd-dsp-started;
#X obj 29 35 spigot 1;
#X obj 29 57 t b b;
#X msg 67 59 0;
#X obj 29 123 bng 15 250 50 0 empty empty empty 17 7 0 10 -262144 -1
-1;
#X text 50 123 Edit the following message with your on-load presets
, f 27;
#X msg 29 182 \; \; pd-AUDIO_GUI vis 1 \; \; main-vol-set 0 \;;
#X connect 0 0 1 0;
#X connect 1 0 2 0;
#X connect 2 0 4 0;
#X connect 2 1 3 0;
#X connect 3 0 1 1;
#X connect 4 0 6 0;
#X restore 7 111 pd presets ____________;
#N canvas 0 22 420 225 mixer 0;
#X obj 25 92 *~;
#N canvas 0 22 231 296 main-vol 0;
#X obj 30 198 pack f 10;
#X obj 30 220 line~;
#X obj 30 11 r main-vol;
#X obj 109 19 r mute;
#X obj 30 93 t f f;
#X obj 57 118 sel 0;
#X msg 48 150 0;
#X obj 98 194 s main-vol-set;
#X msg 98 167 0.0330891;
#X obj 109 41 tgl 15 0 empty empty empty 17 7 0 10 -262144 -1 -1 0
1;
#X obj 109 61 sel 1 0;
#X obj 30 242 outlet~;
#X obj 98 117 list prepend set;
#X obj 98 139 list trim;
#X connect 0 0 1 0;
#X connect 1 0 11 0;
#X connect 2 0 4 0;
#X connect 3 0 9 0;
#X connect 4 0 0 0;
#X connect 4 1 5 0;
#X connect 5 1 12 0;
#X connect 6 0 0 0;
#X connect 6 0 7 0;
#X connect 8 0 7 0;
#X connect 9 0 10 0;
#X connect 10 0 6 0;
#X connect 10 1 8 0;
#X connect 12 0 13 0;
#X connect 13 0 8 0;
#X restore 303 57 pd main-vol;
#X obj 27 29 catch~ dacout-1;
#X obj 166 29 catch~ dacout-2;
#X obj 23 128 dac~ 1;
#X obj 161 131 dac~ 2;
#X obj 166 94 *~;
#X obj 268 142 - 100;
#X obj 268 167 s mainvu;
#X obj 268 117 env~ 2048;
#X connect 0 0 4 0;
#X connect 0 0 9 0;
#X connect 1 0 0 1;
#X connect 1 0 6 1;
#X connect 2 0 0 0;
#X connect 3 0 6 0;
#X connect 6 0 5 0;
#X connect 6 0 9 0;
#X connect 7 0 8 0;
#X connect 9 0 7 0;
#X restore 7 132 pd mixer ______________;
#N canvas 311 98 742 510 signals 1;
#X obj 102 464 throw~ dacout-1;
#X obj 156 427 throw~ dacout-2;
#X obj 134 43 list split 3;
#X obj 134 20 r midi-video;
#X obj 134 65 unpack;
#X obj 134 87 spigot;
#X obj 134 109 bng 15 250 50 0 empty empty empty 17 7 0 10 -262144
-1 -1;
#X obj 134 129 tgl 15 0 empty empty empty 17 7 0 10 -262144 -1 -1 0
1;
#X obj 39 43 list split 3;
#X obj 39 21 r midi-elec;
#X obj 39 65 unpack;
#X obj 39 87 spigot;
#X obj 39 109 bng 15 250 50 0 empty empty empty 17 7 0 10 -262144 -1
-1;
#X obj 39 129 tgl 15 0 empty empty empty 17 7 0 10 -262144 -1 -1 0
1;
#N canvas 330 34 650 423 sound 0;
#X obj 258 23 inlet~;
#X obj 494 25 inlet;
#X obj 20 31 inlet~;
#X obj 299 62 bang~;
#X msg 302 88 next bang;
#X obj 20 171 rifft~;
#X obj 37 237 *~;
#X obj 81 214 r tab-set-fft;
#X obj 53 56 r tab-set-fft;
#X obj 15 113 rfft~;
#X obj 18 77 *~;
#X obj 79 114 tabreceive~ cepstrum;
#X obj 51 79 tabreceive~ \$0-han;
#X obj 77 237 tabreceive~ \$0-han;
#X obj 44 359 outlet~;
#X obj 153 171 array define cepstrum 128;
#X obj 20 201 *~ 0.1;
#X obj 25 145 *~;
#X obj 63 145 *~;
#X obj 38 329 *~;
#X obj 297 303 fd_switch 1024 4 1;
#X obj 448 332 switch~;
#X obj 264 123 clone _fft 24 24 256 \$0, f 13;
#X connect 0 0 22 0;
#X connect 1 0 20 0;
#X connect 2 0 10 0;
#X connect 3 0 4 0;
#X connect 4 0 22 1;
#X connect 5 0 16 0;
#X connect 6 0 19 0;
#X connect 7 0 13 0;
#X connect 8 0 12 0;
#X connect 9 0 17 0;
#X connect 9 1 18 0;
#X connect 10 0 9 0;
#X connect 11 0 17 1;
#X connect 11 0 18 1;
#X connect 12 0 10 1;
#X connect 13 0 6 1;
#X connect 16 0 6 0;
#X connect 17 0 5 0;
#X connect 18 0 5 1;
#X connect 19 0 14 0;
#X connect 20 0 19 1;
#X connect 20 1 21 0;
#X restore 158 294 pd sound;
#X obj 484 282 fd_tabswitch \$0;
#X msg 484 407 set \$1;
#N canvas 445 100 586 425 bonk-gate 0;
#X obj 198 108 unpack f f f;
#X obj 324 237 del;
#X msg 361 262 1;
#X obj 361 314 switch~ 128;
#X msg 304 264 0;
#X obj 244 238 t b b b;
#X obj 244 314 outlet;
#X obj 244 189 &&;
#X obj 39 13 inlet~;
#X obj 244 268 f;
#X obj 244 139 t f f f f, f 18;
#X obj 304 314 outlet;
#X obj 306 33 inlet;
#X obj 290 166 <= 80;
#X obj 244 167 >= 40;
#X obj 244 211 sel 1;
#X obj 306 108 unpack;
#X obj 39 137 bonk~ -npts 128 -hop 64 -nfilters 5 -halftones 12 -overlap
2, f 14;
#X obj 306 81 route limit;
#X obj 88 64 t a;
#X obj 306 55 route set;
#X connect 0 1 10 0;
#X connect 1 0 2 0;
#X connect 2 0 3 0;
#X connect 2 0 11 0;
#X connect 4 0 3 0;
#X connect 4 0 11 0;
#X connect 5 0 9 0;
#X connect 5 1 1 0;
#X connect 5 2 4 0;
#X connect 7 0 15 0;
#X connect 8 0 17 0;
#X connect 9 0 6 0;
#X connect 10 0 14 0;
#X connect 10 1 13 0;
#X connect 10 2 1 1;
#X connect 10 3 9 1;
#X connect 12 0 20 0;
#X connect 13 0 7 1;
#X connect 14 0 7 0;
#X connect 15 0 5 0;
#X connect 16 0 14 1;
#X connect 16 1 13 1;
#X connect 17 1 0 0;
#X connect 18 0 16 0;
#X connect 18 1 19 0;
#X connect 19 0 17 0;
#X connect 20 0 18 0;
#X connect 20 1 3 0;
#X restore 415 100 pd bonk-gate;
#X obj 395 146 bng 15 250 50 0 empty empty empty 17 7 0 10 -262144
-1 -1;
#X obj 499 179 tgl 15 0 empty empty empty 17 7 0 10 -262144 -1 -1 1
1;
#X floatatom 425 139 5 0 0 0 - - -, f 5;
#X msg 574 47 set thresh 2.5 5;
#X msg 576 75 set mask 8 0.6;
#X msg 575 103 set attack-frames 4;
#X msg 578 131 set minvel 40;
#X obj 343 17 adc~ 1;
#X obj 342 230 tgl 15 0 empty empty empty 17 7 0 10 -262144 -1 -1 1
1;
#X obj 486 37 tgl 15 0 empty empty empty 17 7 0 10 -262144 -1 -1 0
1;
#N canvas 0 22 450 300 testing 0;
#X obj 64 123 adc~ 1;
#X obj 54 175 tabwrite~ testing;
#X obj 54 213 array define testing;
#X msg 131 82 44100;
#X obj 131 104 * 10;
#X msg 131 126 resize \$1;
#X obj 143 151 s testing;
#X msg 36 66 bang;
#X obj 35 94 del 1000;
#N canvas 0 22 450 300 play 0;
#X obj 44 70 array size testing;
#X obj 44 92 t f f;
#X obj 43 47 inlet;
#X obj 44 114 / 44.1;
#X msg 44 136 0 \, 1 \$1;
#X obj 44 158 line~;
#X obj 44 180 *~;
#X obj 113 138 - 3;
#X obj 44 202 +~ 1;
#X obj 44 224 tabread4~ testing;
#X obj 44 246 outlet~;
#X connect 0 0 1 0;
#X connect 1 0 3 0;
#X connect 1 1 7 0;
#X connect 2 0 0 0;
#X connect 3 0 4 0;
#X connect 4 0 5 0;
#X connect 5 0 6 0;
#X connect 6 0 8 0;
#X connect 7 0 6 1;
#X connect 8 0 9 0;
#X connect 9 0 10 0;
#X restore 248 189 pd play;
#X obj 256 157 bng 15 250 50 0 empty empty empty 17 7 0 10 -262144
-1 -1;
#X msg 196 60 normalize 1;
#X msg 309 140 1;
#X obj 309 162 metro 10000;
#X msg 347 139 0;
#X obj 248 214 outlet~;
#X obj 275 96 del 10000;
#X obj 127 10 inlet;
#X obj 42 41 t b b;
#X obj 129 36 route bang stop;
#X obj 361 208 outlet;
#X connect 0 0 1 0;
#X connect 3 0 4 0;
#X connect 4 0 5 0;
#X connect 5 0 6 0;
#X connect 7 0 8 0;
#X connect 8 0 1 0;
#X connect 8 0 16 0;
#X connect 9 0 15 0;
#X connect 10 0 9 0;
#X connect 11 0 6 0;
#X connect 12 0 13 0;
#X connect 13 0 10 0;
#X connect 13 0 20 0;
#X connect 14 0 13 0;
#X connect 16 0 12 0;
#X connect 17 0 19 0;
#X connect 18 0 7 0;
#X connect 18 1 14 0;
#X connect 19 0 18 0;
#X connect 19 1 14 0;
#X restore 614 268 pd testing;
#X msg 600 227 bang;
#X msg 655 235 stop;
#X msg 583 158 set limit 50 60;
#X obj 190 331 env~;
#X floatatom 190 356 5 0 0 0 - - -, f 5;
#X obj 734 270 bng 15 250 50 0 empty empty empty 17 7 0 10 -262144
-1 -1;
#X obj 365 397;
#X obj 422 247 r tab-set-fft;
#X obj 484 432 s tab-set-fft;
#X floatatom 254 322 5 0 0 0 - - -, f 5;
#X obj 49 219 fd_fmosc 100 10;
#X floatatom 46 193 5 0 0 0 - - -, f 5;
#X floatatom 151 174 5 0 0 0 - - -, f 5;
#X floatatom 174 196 5 0 0 0 - - -, f 5;
#X connect 2 0 4 0;
#X connect 3 0 2 0;
#X connect 4 0 5 0;
#X connect 4 1 5 1;
#X connect 5 0 6 0;
#X connect 6 0 7 0;
#X connect 8 0 10 0;
#X connect 9 0 8 0;
#X connect 10 0 11 0;
#X connect 10 1 11 1;
#X connect 11 0 12 0;
#X connect 12 0 13 0;
#X connect 14 0 32 0;
#X connect 14 0 1 0;
#X connect 14 0 0 0;
#X connect 15 0 16 0;
#X connect 17 0 18 0;
#X connect 17 0 20 0;
#X connect 17 1 19 0;
#X connect 21 0 17 1;
#X connect 22 0 17 1;
#X connect 23 0 17 1;
#X connect 24 0 17 1;
#X connect 25 0 14 1;
#X connect 26 0 14 2;
#X connect 27 0 17 1;
#X connect 28 1 34 0;
#X connect 29 0 28 0;
#X connect 30 0 28 0;
#X connect 31 0 17 1;
#X connect 32 0 33 0;
#X connect 39 0 14 0;
#X connect 40 0 39 0;
#X connect 41 0 39 1;
#X connect 42 0 39 2;
#X restore 7 48 pd signals ____________;
#N canvas 0 22 450 300 from-video-pd 0;
#X obj 20 77 t b a;
#X obj 20 254 bng 15 250 50 0 empty empty empty 17 7 0 10 -262144 -1
-1;
#X text 46 256 <-- use this if you want to bang things <after> each
incoming data stream is passed;
#X obj 161 136 s blabla1;
#X obj 20 17 r from-video-pd;
#X text 125 18 <-- this receive is dedicated to the incoming data from
<MAIN_VIDEO_PD>, f 39;
#X obj 47 103 route midi-elec midi-video blabla1;
#X obj 104 163 s midi-video;
#X obj 47 190 s midi-elec;
#X connect 0 0 1 0;
#X connect 0 1 6 0;
#X connect 4 0 0 0;
#X connect 6 0 8 0;
#X connect 6 1 7 0;
#X connect 6 2 3 0;
#X restore 7 27 pd from-video-pd ______;
#X restore 109 39 pd AUDIO;
#N canvas 843 531 441 233 AUDIO_GUI 1;
#X obj 354 29 vsl 15 128 0.01 1 1 0 main-vol main-vol-set main-vol
0 -9 0 10 -262144 -1 -1 3300 1;
#X obj 22 87 s to-video-pd;
#X msg 21 29 start;
#X msg 35 53 stop;
#X msg 22 151 \; pd-signals vis 1;
#X obj 382 24 bng 15 250 50 0 mute mute-set mute 17 7 0 10 -262144
-1 -1;
#X msg 20 184 \; pd-AUDIO vis 1;
#X msg 160 181 \; pd-tables vis 1;
#X obj 306 35 vu 15 120 mainvu mainvu -1 -8 0 10 -66577 -1 1 0;
#X connect 2 0 1 0;
#X connect 3 0 1 0;
#X restore 7 39 pd AUDIO_GUI;
