#N canvas 247 99 741 553 10;
#X obj 40 498 dac~;
#X obj 222 212 midifile;
#X msg 277 284 rewind;
#X obj 219 64 makefilename /Users/federicocamarahalac/Documents/fd_work/a.le.a/publish/scorefiles/%s-0.midi
, f 22;
#X msg 220 139 read \$1;
#X obj 219 36 symbol;
#X msg 220 15 video;
#X obj 234 368 metro 1;
#X obj 152 392 print noteoff;
#X obj -1 11 cnv 200 200 200 empty tempoflag 144bpm 15 100 0 50 -24198
-1 0;
#X obj 420 370 metro 220;
#X obj 420 417 bng 15 250 50 0 empty empty empty 17 7 0 10 -262144
-1 -1;
#X obj 458 263 tgl 15 0 empty empty empty 17 7 0 10 -262144 -1 -1 0
1;
#X obj 458 285 sel 1 0;
#X obj 458 307 timer;
#X obj 398 41 key;
#X floatatom 398 63 5 0 0 0 - - -, f 5;
#X obj 398 82 sel 32;
#X obj 420 392 t b b;
#X obj 644 313 tgl 15 0 empty empty empty 17 7 0 10 -262144 -1 -1 0
1;
#X obj 644 335 sel 1 0;
#X msg 666 357 16;
#X msg 612 378 color \$1 22 22;
#X obj 612 415 s tempoflag;
#X obj 544 492 s tempoflag;
#X msg 619 357 13;
#X obj 349 253 tgl 15 0 empty empty empty 17 7 0 10 -262144 -1 -1 0
1;
#X obj 538 275 tgl 15 0 empty empty empty 17 7 0 10 -262144 -1 -1 0
1;
#X obj 537 359 f;
#X obj 568 359 + 1;
#X obj 538 295 t f f;
#X obj 571 313 sel 1;
#X obj 537 337 metro 1;
#X msg 537 381 60000 \$1;
#X obj 537 403 /;
#X obj 537 425 int;
#X obj 43 423 fd_not;
#X obj 27 304 route 144;
#X obj 27 326 unpack;
#X obj 43 445 *~;
#X obj 99 417 sel 0;
#X obj 458 329 t f f f;
#X obj 329 364 / 348;
#X obj 27 348 mtof;
#X obj 353 184 spigot 1;
#X obj 353 141 f;
#X obj 378 141 + 1;
#X obj 353 163 sel 1;
#X msg 392 207 0;
#X msg 353 228 1;
#X obj 353 206 t b b;
#X obj 381 7 bng 15 250 50 0 empty empty empty 17 7 0 10 -262144 -1
-1;
#X msg 381 118 0;
#X obj 27 370 t b f;
#X obj 105 445 / 127;
#X msg 105 467 \$1 10;
#X obj 105 489 line~;
#X obj 308 210 bng 15 250 50 0 empty empty empty 17 7 0 10 -262144
-1 -1;
#X msg 544 470 label \$1bpm;
#X obj 537 447 min 999;
#X msg 308 230 0;
#X msg 393 162 1;
#X msg 169 447 128;
#X obj 169 469 fd_expo;
#N canvas 0 22 484 652 metronome 0;
#X obj 124 569 *~;
#X obj 113 514 line~;
#X msg 99 414 0 \$1;
#X obj 98 391 f;
#X obj 124 392 del;
#X obj 98 306 t f f;
#X obj 133 367 t f f;
#X msg 134 414 1 \$1;
#X obj 133 345 * 0.05;
#X obj 138 544 osc~ 220;
#X obj 97 346 * 0.1;
#X obj 147 196 f;
#X obj 171 197 + 1;
#X obj 147 218 mod 4;
#X msg 136 267 0.9;
#X msg 175 260 0.4;
#X msg 162 167 0;
#X obj 229 25 inlet;
#X obj 137 615 outlet~;
#X obj 214 81 /;
#X msg 214 59 60000 \$1;
#X obj 78 64 inlet;
#X obj 85 199 f;
#X obj 78 86 t b b;
#X obj 142 108 t f b b;
#X obj 289 247 key;
#X obj 289 269 sel 49;
#X msg 252 320 stop \, 0 10;
#X msg 191 451 220;
#X msg 235 447 880;
#X msg 173 312 0.2;
#X msg 272 455 660;
#X obj 147 240 sel 1 3;
#X connect 0 0 18 0;
#X connect 1 0 0 0;
#X connect 2 0 1 0;
#X connect 3 0 2 0;
#X connect 4 0 3 0;
#X connect 5 0 10 0;
#X connect 5 1 8 0;
#X connect 6 0 4 0;
#X connect 6 1 7 0;
#X connect 7 0 1 0;
#X connect 8 0 6 0;
#X connect 9 0 0 1;
#X connect 10 0 3 1;
#X connect 11 0 12 0;
#X connect 11 0 13 0;
#X connect 12 0 11 1;
#X connect 13 0 32 0;
#X connect 14 0 10 1;
#X connect 15 0 10 1;
#X connect 16 0 11 1;
#X connect 17 0 20 0;
#X connect 19 0 24 0;
#X connect 20 0 19 0;
#X connect 21 0 23 0;
#X connect 22 0 5 0;
#X connect 23 0 22 0;
#X connect 23 1 11 0;
#X connect 24 0 22 1;
#X connect 24 1 16 0;
#X connect 24 2 27 0;
#X connect 25 0 26 0;
#X connect 26 0 27 0;
#X connect 27 0 4 0;
#X connect 27 0 1 0;
#X connect 28 0 9 0;
#X connect 29 0 9 0;
#X connect 30 0 10 1;
#X connect 31 0 9 0;
#X connect 32 0 14 0;
#X connect 32 0 29 0;
#X connect 32 1 15 0;
#X connect 32 1 31 0;
#X connect 32 2 30 0;
#X connect 32 2 28 0;
#X restore 419 450 pd metronome;
#X obj 278 438 tgl 15 0 empty empty empty 17 7 0 10 -262144 -1 -1 0
1;
#X obj 231 482 route 0;
#X msg 460 391 60000 \$1;
#X obj 460 413 /;
#X obj 418 494 dac~;
#X obj 418 472 *~ 0.25;
#X obj 40 476 *~ 1;
#X obj 426 28 sel 49;
#X connect 1 0 37 0;
#X connect 2 0 1 0;
#X connect 3 0 4 0;
#X connect 4 0 1 0;
#X connect 5 0 3 0;
#X connect 6 0 5 0;
#X connect 7 0 1 0;
#X connect 10 0 18 0;
#X connect 11 0 64 0;
#X connect 12 0 13 0;
#X connect 13 0 14 0;
#X connect 13 1 14 1;
#X connect 14 0 41 0;
#X connect 15 0 16 0;
#X connect 16 0 17 0;
#X connect 17 0 19 0;
#X connect 17 0 12 0;
#X connect 17 0 27 0;
#X connect 17 0 45 0;
#X connect 17 1 72 0;
#X connect 18 0 11 0;
#X connect 19 0 20 0;
#X connect 20 0 25 0;
#X connect 20 1 21 0;
#X connect 21 0 22 0;
#X connect 22 0 23 0;
#X connect 25 0 22 0;
#X connect 26 0 10 0;
#X connect 26 0 7 0;
#X connect 27 0 30 0;
#X connect 28 0 29 0;
#X connect 28 0 33 0;
#X connect 29 0 28 1;
#X connect 30 0 32 0;
#X connect 30 1 31 0;
#X connect 31 1 28 1;
#X connect 32 0 28 0;
#X connect 33 0 34 0;
#X connect 34 0 35 0;
#X connect 35 0 59 0;
#X connect 36 0 39 0;
#X connect 37 0 38 0;
#X connect 38 0 43 0;
#X connect 38 1 40 0;
#X connect 39 0 71 0;
#X connect 40 1 54 0;
#X connect 41 0 42 0;
#X connect 41 1 10 1;
#X connect 41 2 67 0;
#X connect 42 0 7 1;
#X connect 43 0 53 0;
#X connect 44 0 50 0;
#X connect 45 0 46 0;
#X connect 45 0 47 0;
#X connect 46 0 45 1;
#X connect 47 0 44 0;
#X connect 48 0 44 1;
#X connect 49 0 26 0;
#X connect 50 0 49 0;
#X connect 50 1 48 0;
#X connect 51 0 52 0;
#X connect 51 0 57 0;
#X connect 51 0 2 0;
#X connect 52 0 45 1;
#X connect 52 0 61 0;
#X connect 53 0 36 0;
#X connect 53 1 36 1;
#X connect 54 0 55 0;
#X connect 55 0 56 0;
#X connect 56 0 39 1;
#X connect 57 0 60 0;
#X connect 58 0 24 0;
#X connect 59 0 58 0;
#X connect 60 0 26 0;
#X connect 61 0 44 1;
#X connect 62 0 63 0;
#X connect 64 0 70 0;
#X connect 67 0 68 0;
#X connect 68 0 64 1;
#X connect 70 0 69 0;
#X connect 70 0 69 1;
#X connect 71 0 0 0;
#X connect 71 0 0 1;
#X connect 72 0 51 0;
