#N canvas 416 46 745 586 12;
#X declare -stdpath mrpeach;
#X obj 431 239 unpack;
#X obj 433 270 mtof;
#X obj 435 473 osc~;
#X obj 435 503 *~;
#X obj 494 342 line~;
#X obj 494 364 *~ 125;
#X obj 494 386 +~ 1;
#X obj 494 408 tabread4~ expo;
#X obj 483 501 *~;
#X obj 492 240 sel 0;
#X obj 432 331 line~;
#X obj 433 292 pack f 3;
#X obj 495 294 t b f;
#X obj 495 272 / 127;
#X obj 593 415 pack f 10;
#X obj 593 437 line~;
#X obj 481 475 *~ 100;
#X msg 493 320 0 \, 1 192;
#X obj 481 453 vcf~ 200;
#X obj 431 191 midifile;
#X obj 431 216 route 144;
#X obj 448 62 tgl 15 0 empty empty empty 17 7 0 10 -262144 -1 -1 0
1;
#X msg 568 128 rewind;
#X obj 625 56 bng 15 250 50 0 empty empty empty 17 7 0 10 -262144 -1
-1;
#X obj 512 170 spigot;
#X msg 416 166 read \$1;
#X obj 173 255 symbol;
#X obj 526 122 t b;
#X obj 437 8 inlet;
#X obj 434 35 route float rewind;
#X obj 201 85 loadbang;
#X obj 201 129 sel 0 1 2 3 4 5 6 7;
#X msg 39 153 flute;
#X msg 68 176 clarinet;
#X msg 120 186 violin;
#X msg 171 184 cello;
#X msg 211 197 piano;
#X msg 254 197 perc;
#X msg 294 209 elec;
#X msg 339 211 video;
#X obj 630 203 loadbang;
#X obj 630 225 pack \$1;
#X obj 201 107 pack \$1;
#X obj 630 247 == 0;
#X obj 599 286 spigot;
#X obj 71 18 declare -stdpath mrpeach;
#X obj 421 126 metro 1;
#X obj 604 321 outlet;
#X obj 444 84 t f f f;
#X obj 239 441 fd_switch;
#X obj 269 494 *~;
#X obj 620 535 switch~;
#X obj 178 277 makefilename /Users/federicocamarahalac/Documents/fd_work/a.le.a/publish/midi/%s-0.midi
, f 22;
#X obj 169 533 fd_write \$1;
#X obj 32 327 symbol;
#X msg 28 440 filename \$1;
#X obj 21 298 t b b;
#X obj 339 58 sel;
#X msg 147 430 stop;
#X msg 625 76 0;
#X msg 640 130 done;
#X obj 324 534 outlet~;
#X obj 574 491 sel;
#X msg 621 500 0;
#X obj 622 475 del 1000;
#X msg 61 364 full-path /Users/federicocamarahalac/Documents/fd_work/a.le.a/publish/midi
;
#X obj 373 85 sel 1;
#X obj 373 110 del 6000, f 5;
#X msg 373 151 1;
#X obj 516 198 route bang;
#X msg 559 226 verbose 0;
#X connect 0 0 1 0;
#X connect 0 1 9 0;
#X connect 1 0 11 0;
#X connect 2 0 3 0;
#X connect 3 0 50 1;
#X connect 4 0 5 0;
#X connect 5 0 6 0;
#X connect 6 0 7 0;
#X connect 7 0 18 0;
#X connect 8 0 3 1;
#X connect 9 1 13 0;
#X connect 10 0 2 0;
#X connect 10 0 18 1;
#X connect 11 0 10 0;
#X connect 12 0 17 0;
#X connect 12 1 14 0;
#X connect 13 0 12 0;
#X connect 14 0 15 0;
#X connect 15 0 8 1;
#X connect 16 0 8 0;
#X connect 17 0 4 0;
#X connect 18 0 16 0;
#X connect 19 0 20 0;
#X connect 19 1 44 0;
#X connect 19 2 69 0;
#X connect 20 0 0 0;
#X connect 21 0 48 0;
#X connect 22 0 19 0;
#X connect 23 0 59 0;
#X connect 23 0 60 0;
#X connect 24 0 27 0;
#X connect 25 0 19 0;
#X connect 26 0 52 0;
#X connect 26 0 54 1;
#X connect 27 0 23 0;
#X connect 28 0 29 0;
#X connect 29 0 21 0;
#X connect 29 1 22 0;
#X connect 29 2 53 1;
#X connect 30 0 42 0;
#X connect 31 0 32 0;
#X connect 31 1 33 0;
#X connect 31 2 34 0;
#X connect 31 3 35 0;
#X connect 31 4 37 0;
#X connect 31 5 36 0;
#X connect 31 6 38 0;
#X connect 31 7 39 0;
#X connect 32 0 26 0;
#X connect 33 0 26 0;
#X connect 34 0 26 0;
#X connect 35 0 26 0;
#X connect 36 0 26 0;
#X connect 37 0 26 0;
#X connect 38 0 26 0;
#X connect 39 0 26 0;
#X connect 40 0 41 0;
#X connect 40 0 70 0;
#X connect 41 0 43 0;
#X connect 42 0 31 0;
#X connect 43 0 44 1;
#X connect 44 0 47 0;
#X connect 46 0 19 0;
#X connect 48 0 24 1;
#X connect 48 1 66 0;
#X connect 48 2 49 0;
#X connect 48 2 57 0;
#X connect 49 0 50 0;
#X connect 49 1 62 0;
#X connect 50 0 53 0;
#X connect 50 0 61 0;
#X connect 52 0 25 0;
#X connect 54 0 55 0;
#X connect 55 0 53 1;
#X connect 56 0 54 0;
#X connect 56 1 65 0;
#X connect 57 0 58 0;
#X connect 57 1 56 0;
#X connect 58 0 53 1;
#X connect 59 0 21 0;
#X connect 60 0 47 0;
#X connect 62 0 64 0;
#X connect 62 1 51 0;
#X connect 63 0 51 0;
#X connect 64 0 63 0;
#X connect 65 0 53 1;
#X connect 66 0 67 0;
#X connect 66 1 46 0;
#X connect 67 0 68 0;
#X connect 68 0 46 0;
#X connect 69 0 24 0;
#X connect 70 0 19 0;
