#N canvas 525 47 737 603 10;
#X obj 56 380 unpack;
#X obj 53 426 spigot;
#X obj 87 407 t f f;
#X obj 66 452 pack;
#X msg 37 101 bang;
#X obj 22 216 fd_clicktrack 0;
#X obj 122 63 tgl 15 0 empty empty empty 17 7 0 10 -262144 -1 -1 0
1;
#X obj 151 129 tgl 15 0 empty empty empty 17 7 0 10 -262144 -1 -1 0
1;
#X floatatom 37 39 5 0 0 1 bpm - -, f 5;
#X msg 22 13 bang;
#X obj 22 63 int;
#X msg 123 80 click \$1;
#X msg 155 175 reset;
#X obj 121 17 tgl 15 0 empty empty empty 17 7 0 10 -262144 -1 -1 0
1;
#X msg 121 37 keys \$1;
#X msg 151 149 onoff \$1;
#X msg 215 173 rewind;
#X obj 262 112 bng 15 250 50 0 empty empty stop 17 7 0 10 -262144 -1
-1;
#X msg 170 129 0;
#X obj 319 289 list fromsymbol;
#X floatatom 278 20 5 0 0 0 - - -, f 5;
#X msg 278 39 goto \$1;
#X obj 262 210 route bang;
#X msg 518 94 load video;
#X msg 442 95 load elec;
#X obj 319 236 route lyrics;
#X obj 373 259 print MIDI;
#X obj 319 261 symbol;
#X floatatom 31 83 5 0 0 1 bpm - -, f 5;
#X obj 71 474 t a b b;
#X obj 65 530 list;
#X obj 94 500 timer;
#X obj 65 552 print;
#X obj 60 356 route 144;
#X obj 526 300 unpack;
#X obj 523 346 spigot;
#X obj 557 327 t f f;
#X obj 536 372 pack;
#X msg 409 154 rewind;
#X obj 608 278 list fromsymbol;
#X obj 551 199 route bang;
#X obj 608 225 route lyrics;
#X obj 662 248 print MIDI;
#X obj 608 250 symbol;
#X obj 541 394 t a b b;
#X obj 535 450 list;
#X obj 564 420 timer;
#X obj 535 472 print;
#X obj 530 276 route 144;
#X obj 222 561 dac~;
#X obj 493 57 bng 15 250 50 0 empty empty empty 17 7 0 10 -262144 -1
-1;
#X obj 217 285 bng 15 250 50 0 empty empty empty 17 7 0 10 -262144
-1 -1;
#X obj 215 475 tgl 15 0 empty empty empty 17 7 0 10 -262144 -1 -1 0
1;
#X obj 215 495 t f b;
#X obj 215 517 list prepend;
#X obj 215 539 route 0 1;
#X obj 253 494 random 2;
#X obj 511 377 bng 15 250 50 0 empty empty empty 17 7 0 10 -262144
-1 -1;
#X obj 511 399 tgl 15 0 empty empty empty 17 7 0 10 -262144 -1 -1 1
1;
#X obj 212 405 del;
#X obj 212 427 t b b;
#X obj 183 406 t b;
#X obj 253 420 f;
#X obj 283 421 + 1;
#X obj 212 449 spigot 1;
#X obj 310 423 !=;
#X obj 213 349 t b f b f;
#X msg 265 401 0;
#X obj 216 328 + 1;
#X obj 222 375 * 2;
#X obj 216 304 random 20;
#X obj 446 222 fd_midiread;
#X obj 157 233 fd_midiread;
#X obj 140 449 bng 15 250 50 0 empty empty empty 17 7 0 10 -262144
-1 -1;
#X obj 154 520 tgl 15 0 empty empty empty 17 7 0 10 -262144 -1 -1 0
1;
#X obj 388 393 fd_expo;
#X msg 388 371 128 \, bang;
#X connect 0 0 1 0;
#X connect 0 1 2 0;
#X connect 1 0 3 0;
#X connect 1 0 73 0;
#X connect 2 0 1 1;
#X connect 2 1 3 1;
#X connect 3 0 29 0;
#X connect 4 0 5 0;
#X connect 6 0 11 0;
#X connect 7 0 15 0;
#X connect 8 0 10 1;
#X connect 9 0 10 0;
#X connect 10 0 5 0;
#X connect 11 0 5 0;
#X connect 12 0 5 0;
#X connect 13 0 14 0;
#X connect 14 0 5 0;
#X connect 15 0 5 0;
#X connect 16 0 72 0;
#X connect 17 0 12 0;
#X connect 17 0 16 0;
#X connect 17 0 18 0;
#X connect 17 0 38 0;
#X connect 18 0 7 0;
#X connect 20 0 21 0;
#X connect 21 0 5 0;
#X connect 21 0 71 0;
#X connect 21 0 72 0;
#X connect 22 0 17 0;
#X connect 22 1 25 0;
#X connect 23 0 71 0;
#X connect 24 0 72 0;
#X connect 25 0 27 0;
#X connect 25 1 26 0;
#X connect 27 0 19 0;
#X connect 28 0 5 0;
#X connect 29 0 30 0;
#X connect 29 1 31 0;
#X connect 29 2 31 1;
#X connect 30 0 32 0;
#X connect 31 0 30 1;
#X connect 33 0 0 0;
#X connect 34 0 35 0;
#X connect 34 1 36 0;
#X connect 35 0 37 0;
#X connect 35 0 57 0;
#X connect 36 0 35 1;
#X connect 36 1 37 1;
#X connect 37 0 44 0;
#X connect 38 0 71 0;
#X connect 40 1 41 0;
#X connect 41 0 43 0;
#X connect 41 1 42 0;
#X connect 43 0 39 0;
#X connect 44 0 45 0;
#X connect 44 1 46 0;
#X connect 44 2 46 1;
#X connect 45 0 47 0;
#X connect 46 0 45 1;
#X connect 48 0 34 0;
#X connect 50 0 24 0;
#X connect 50 0 23 0;
#X connect 51 0 70 0;
#X connect 52 0 53 0;
#X connect 53 0 54 0;
#X connect 53 1 56 0;
#X connect 54 0 55 0;
#X connect 55 0 49 0;
#X connect 55 1 49 1;
#X connect 56 0 54 1;
#X connect 57 0 58 0;
#X connect 59 0 60 0;
#X connect 60 0 64 0;
#X connect 60 1 62 0;
#X connect 61 0 59 0;
#X connect 62 0 63 0;
#X connect 62 0 65 0;
#X connect 63 0 62 1;
#X connect 64 0 61 0;
#X connect 64 0 52 0;
#X connect 65 0 64 1;
#X connect 66 0 59 0;
#X connect 66 1 69 0;
#X connect 66 2 67 0;
#X connect 66 3 65 1;
#X connect 67 0 62 1;
#X connect 68 0 66 0;
#X connect 69 0 59 1;
#X connect 70 0 68 0;
#X connect 71 0 48 0;
#X connect 71 1 40 0;
#X connect 72 0 33 0;
#X connect 72 1 22 0;
#X connect 73 0 74 0;
#X connect 74 0 49 0;
#X connect 74 0 49 1;
#X connect 76 0 75 0;
