#N canvas 458 19 780 646 10;
#X declare -stdlib Gem;
#X obj 24 224 fd_clicktrack 0;
#X msg 24 21 bang;
#X msg 282 109 rewind;
#X obj 267 25 bng 15 250 50 0 empty empty stop 17 7 0 10 -262144 -1
-1;
#X msg 335 146 load elec;
#X obj 338 96 bng 15 250 50 0 empty empty empty 17 7 0 10 -262144 -1
-1;
#X obj 265 198 fd_midiread;
#X obj 241 138 r 0-pulse;
#X msg 34 200 onoff 0 \, reset;
#X obj 24 71 int 144;
#N canvas 0 22 1007 642 note 0;
#X obj 232 265 del;
#X obj 232 287 t b b;
#X obj 270 287 f;
#X obj 296 287 + 1;
#X obj 232 309 spigot 1;
#X obj 323 287 !=;
#X obj 232 196 t b f b f;
#X msg 285 244 0;
#X obj 247 222 * 2;
#X obj 218 380 f;
#X obj 246 380 + 1;
#X obj 218 357 t b f;
#X obj 218 402 mod;
#X obj 218 424 +;
#X obj 232 135 t b f, f 10;
#X obj 348 287 t f f;
#X obj 247 244 t f f;
#X obj 191 309 t b b;
#X obj 218 446 t f b;
#X obj 409 294 f;
#X msg 409 316 0 \, 1 \$1;
#X obj 409 338 line~;
#X obj 409 360 *~ 125;
#X obj 227 533 *~ 0.5;
#X obj 218 468 mtof;
#X obj 303 341 t f b;
#X msg 256 358 0;
#X obj 218 488 osc~;
#X obj 223 508 *~;
#X obj 412 391 +~ 1;
#X obj 304 484 vcf~ 1;
#X floatatom 331 438 5 0 0 0 - - -, f 5;
#X obj 312 417 tabread4~ \$0-window;
#X obj 332 454 sig~ 700;
#X obj 469 283 *;
#X obj 232 155 random 20;
#X obj 218 336 random 5;
#X obj 232 176 + 40;
#N canvas 0 22 316 603 morph 0;
#X obj 37 423 clone fd_arraymorph 128 \$0-window;
#X obj 34 272 t a a b;
#X obj 61 302 symbol;
#X obj 34 349 list prepend all;
#X obj 34 371 list append 1000;
#X obj 34 393 list trim;
#X obj 34 327 list prepend;
#X obj 212 143 t b f;
#X obj 212 165 random 8;
#X msg 34 102 tri;
#X msg 34 129 exp;
#X msg 34 155 rex;
#X msg 34 202 han;
#X msg 34 78 tra;
#X msg 34 54 gau;
#X msg 34 29 sin;
#X msg 34 179 bla;
#X msg 34 249 symbol \$2-\$1;
#X obj 82 182 sel 0 1 2 3 4 5 6 7;
#X obj 212 24 inlet;
#X obj 34 226 pack s \$0;
#X connect 1 0 6 0;
#X connect 1 1 2 1;
#X connect 1 2 2 0;
#X connect 2 0 6 1;
#X connect 3 0 4 0;
#X connect 4 0 5 0;
#X connect 5 0 0 0;
#X connect 6 0 3 0;
#X connect 7 0 8 0;
#X connect 7 1 4 1;
#X connect 8 0 18 0;
#X connect 9 0 20 0;
#X connect 10 0 20 0;
#X connect 11 0 20 0;
#X connect 12 0 20 0;
#X connect 13 0 20 0;
#X connect 14 0 20 0;
#X connect 15 0 20 0;
#X connect 16 0 20 0;
#X connect 17 0 1 0;
#X connect 18 0 15 0;
#X connect 18 1 14 0;
#X connect 18 2 13 0;
#X connect 18 3 9 0;
#X connect 18 4 10 0;
#X connect 18 5 11 0;
#X connect 18 6 16 0;
#X connect 18 7 12 0;
#X connect 19 0 7 0;
#X connect 20 0 17 0;
#X restore 469 305 pd morph;
#X obj 709 167 fd_windows \$0 128;
#X floatatom 727 99 5 0 0 0 - - -, f 5;
#X msg 722 127 sin q \$1 \, sin bang;
#X obj 455 149 s fd_windows-\$0;
#X obj 336 72 list prepend tri;
#X obj 453 125 list trim;
#X msg 336 50 q 0.63 \, w 0.04 \, bang;
#X msg 473 50 q 0.08 \, w 2.77 \, bang;
#X obj 473 72 list prepend tra;
#X msg 581 73 mean 0.5 \, stdev 0.00032 \, bang;
#X obj 581 95 list prepend gau;
#X obj 370 189 array define \$0-window 128;
#X connect 0 0 1 0;
#X connect 1 0 4 0;
#X connect 1 1 2 0;
#X connect 2 0 3 0;
#X connect 2 0 5 0;
#X connect 3 0 2 1;
#X connect 4 0 17 0;
#X connect 5 0 4 1;
#X connect 6 0 0 0;
#X connect 6 1 8 0;
#X connect 6 2 7 0;
#X connect 6 3 5 1;
#X connect 6 3 34 1;
#X connect 7 0 2 1;
#X connect 8 0 16 0;
#X connect 9 0 10 0;
#X connect 9 0 12 0;
#X connect 10 0 9 1;
#X connect 11 0 9 0;
#X connect 11 1 10 1;
#X connect 12 0 13 0;
#X connect 13 0 18 0;
#X connect 14 0 35 0;
#X connect 14 1 15 0;
#X connect 15 0 25 0;
#X connect 15 1 13 1;
#X connect 16 0 0 1;
#X connect 16 1 19 1;
#X connect 16 1 34 0;
#X connect 17 0 0 0;
#X connect 17 1 36 0;
#X connect 18 0 24 0;
#X connect 18 1 19 0;
#X connect 19 0 20 0;
#X connect 20 0 21 0;
#X connect 21 0 22 0;
#X connect 22 0 29 0;
#X connect 24 0 27 0;
#X connect 25 0 12 1;
#X connect 25 1 26 0;
#X connect 26 0 9 1;
#X connect 27 0 28 0;
#X connect 28 0 23 0;
#X connect 29 0 32 0;
#X connect 30 0 28 1;
#X connect 31 0 33 0;
#X connect 32 0 30 0;
#X connect 33 0 30 1;
#X connect 34 0 38 0;
#X connect 35 0 37 0;
#X connect 36 0 11 0;
#X connect 37 0 6 0;
#X connect 40 0 41 0;
#X connect 41 0 39 0;
#X connect 43 0 44 0;
#X connect 44 0 42 0;
#X connect 45 0 43 0;
#X connect 46 0 47 0;
#X connect 47 0 44 0;
#X connect 48 0 49 0;
#X connect 49 0 44 0;
#X restore 116 40 pd note;
#X msg 341 369 0;
#X msg 49 137 click \$1;
#X obj 59 106 tgl 15 0 empty empty empty 17 7 0 10 -262144 -1 -1 0
1;
#X msg 359 120 load video;
#X msg 441 108 rewind;
#X obj 582 188 list fromsymbol;
#X obj 525 109 route bang;
#X obj 582 135 route lyrics;
#X obj 636 158 print MIDI;
#X obj 582 160 symbol;
#X obj 376 196 fd_midiread;
#X obj 570 37 declare -stdlib Gem;
#X msg 579 288 create \, 1;
#X obj 579 310 gemwin;
#X obj 98 293 gemhead;
#X obj 135 504 pix_texture;
#X obj 122 391 color 0 0 0;
#X obj 149 314 t b b;
#X msg 655 279 0 \, destroy;
#X msg 659 307 buffer 1;
#X obj 129 343 del 1;
#X obj 263 293 unpack;
#X obj 263 314 spigot;
#X obj 307 313 t f f;
#X obj 265 254 route 144;
#X obj 241 160 t f f;
#X obj 373 296 unpack;
#X obj 373 317 spigot;
#X obj 417 316 t f f;
#X obj 368 258 route 144;
#X obj 399 400 f;
#X obj 432 401 + 1;
#X obj 266 403 f;
#X obj 299 404 + 1;
#X obj 122 413 t a b;
#X obj 123 436 translate 0 1 1 1;
#X obj 128 454 rotate 0 1 1 1;
#X obj 128 476 scale 1 1 1 1;
#X obj 235 463 random 360;
#X obj 235 485 - 90;
#X obj 235 507 / 90;
#X obj 272 486 / 90;
#X obj 98 315 alpha;
#X msg 182 351 1 1 1 0.2;
#X msg 148 364 0 0 0 0.1;
#X obj 136 523 rectangle 5 0.1;
#X obj 263 345 t b b f;
#X obj 266 425 pack f f f;
#X obj 403 427 pack f f f;
#X obj 369 500 list;
#X obj 369 522 list append;
#X obj 373 339 t b b f b;
#X obj 383 547 print;
#X obj 403 449 t b a;
#X obj 363 472 list;
#X obj 320 441 t b a;
#X obj 536 372 s gemwin;
#X obj 607 247 r gemwin;
#X connect 1 0 9 0;
#X connect 2 0 6 1;
#X connect 3 0 2 0;
#X connect 3 0 8 0;
#X connect 3 0 11 0;
#X connect 3 0 15 0;
#X connect 4 0 6 1;
#X connect 5 0 4 0;
#X connect 5 0 14 0;
#X connect 6 0 35 0;
#X connect 6 1 17 0;
#X connect 7 0 36 0;
#X connect 8 0 0 0;
#X connect 9 0 0 0;
#X connect 11 0 43 1;
#X connect 11 0 41 1;
#X connect 12 0 0 0;
#X connect 13 0 12 0;
#X connect 14 0 21 1;
#X connect 15 0 21 1;
#X connect 16 0 61 1;
#X connect 17 0 3 0;
#X connect 17 1 18 0;
#X connect 18 0 20 0;
#X connect 18 1 19 0;
#X connect 20 0 16 0;
#X connect 21 0 40 0;
#X connect 21 1 17 0;
#X connect 23 0 24 0;
#X connect 25 0 53 0;
#X connect 26 0 56 0;
#X connect 27 0 45 0;
#X connect 28 0 25 0;
#X connect 28 0 31 0;
#X connect 28 1 54 0;
#X connect 29 0 24 0;
#X connect 30 0 24 0;
#X connect 31 0 55 0;
#X connect 31 0 25 0;
#X connect 32 0 33 0;
#X connect 32 1 34 0;
#X connect 33 0 57 0;
#X connect 34 0 33 1;
#X connect 34 1 58 2;
#X connect 35 0 32 0;
#X connect 36 0 6 0;
#X connect 36 1 21 0;
#X connect 37 0 38 0;
#X connect 37 1 39 0;
#X connect 38 0 62 0;
#X connect 39 0 38 1;
#X connect 39 1 59 2;
#X connect 40 0 37 0;
#X connect 41 0 42 0;
#X connect 41 0 59 0;
#X connect 42 0 41 1;
#X connect 43 0 44 0;
#X connect 43 0 58 0;
#X connect 44 0 43 1;
#X connect 45 0 46 0;
#X connect 45 1 49 0;
#X connect 46 0 47 0;
#X connect 47 0 48 0;
#X connect 48 0 26 0;
#X connect 49 0 50 0;
#X connect 49 0 47 1;
#X connect 49 0 52 0;
#X connect 50 0 51 0;
#X connect 51 0 46 1;
#X connect 52 0 48 1;
#X connect 53 0 27 0;
#X connect 54 0 27 1;
#X connect 55 0 27 1;
#X connect 57 0 28 0;
#X connect 57 0 43 0;
#X connect 57 2 58 1;
#X connect 58 0 66 0;
#X connect 59 0 64 0;
#X connect 60 0 61 0;
#X connect 61 0 63 0;
#X connect 62 0 28 0;
#X connect 62 0 41 0;
#X connect 62 2 59 1;
#X connect 62 3 67 0;
#X connect 64 0 65 0;
#X connect 64 1 60 1;
#X connect 65 0 60 0;
#X connect 66 0 65 0;
#X connect 66 1 65 1;
#X connect 68 0 24 0;
