#N canvas 526 23 745 751 10;
#X obj 130 288 unpack;
#X obj 130 309 spigot;
#X obj 174 308 t f f;
#X msg 37 101 bang;
#X obj 22 216 fd_clicktrack 0;
#X obj 122 63 tgl 15 0 empty empty empty 17 7 0 10 -262144 -1 -1 0
1;
#X obj 151 129 tgl 15 0 empty empty empty 17 7 0 10 -262144 -1 -1 0
1;
#X floatatom 37 39 5 0 0 1 bpm - -, f 5;
#X msg 22 13 bang;
#X obj 22 63 int;
#X msg 123 80 click \$1;
#X msg 155 175 reset;
#X obj 121 17 tgl 15 0 empty empty empty 17 7 0 10 -262144 -1 -1 0
1;
#X msg 121 37 keys \$1;
#X msg 151 149 onoff \$1;
#X msg 215 173 rewind;
#X obj 262 112 bng 15 250 50 0 empty empty stop 17 7 0 10 -262144 -1
-1;
#X msg 170 129 0;
#X obj 319 289 list fromsymbol;
#X floatatom 278 20 5 0 0 0 - - -, f 5;
#X msg 278 39 goto \$1;
#X obj 262 216 route bang;
#X msg 518 94 load video;
#X msg 442 95 load elec;
#X obj 319 236 route lyrics;
#X obj 373 259 print MIDI;
#X obj 319 261 symbol;
#X floatatom 31 83 5 0 0 1 bpm - -, f 5;
#X obj 130 268 route 144;
#X obj 541 338 unpack;
#X obj 538 384 spigot;
#X obj 572 365 t f f;
#X obj 551 410 pack;
#X msg 453 149 rewind;
#X obj 608 278 list fromsymbol;
#X obj 551 199 route bang;
#X obj 608 225 route lyrics;
#X obj 662 248 print MIDI;
#X obj 608 250 symbol;
#X obj 556 432 t a b b;
#X obj 550 488 list;
#X obj 579 458 timer;
#X obj 548 509 print;
#X obj 530 276 route 144;
#X obj 493 57 bng 15 250 50 0 empty empty empty 17 7 0 10 -262144 -1
-1;
#X obj 526 415 bng 15 250 50 0 empty empty empty 17 7 0 10 -262144
-1 -1;
#X obj 526 437 tgl 15 0 empty empty empty 17 7 0 10 -262144 -1 -1 1
1;
#X obj 130 461 del;
#X obj 130 483 t b b;
#X obj 168 483 f;
#X obj 194 483 + 1;
#X obj 130 505 spigot 1;
#X obj 221 483 !=;
#X obj 130 392 t b f b f;
#X msg 183 440 0;
#X obj 145 418 * 2;
#X obj 130 351 random 20;
#X obj 157 233 fd_midiread;
#X obj 116 576 f;
#X obj 144 576 + 1;
#X obj 116 553 t b f;
#X obj 116 598 mod;
#X obj 116 620 +;
#X obj 130 331 t b f, f 10;
#X obj 246 483 t f f;
#X obj 145 440 t f f;
#X obj 89 505 t b b;
#X obj 446 222 fd_midiread;
#X obj 157 209 r 0-pulse;
#X obj 116 642 t f b;
#X obj 299 487 f;
#X msg 299 509 0 \, 1 \$1;
#X obj 299 531 line~;
#X obj 299 553 *~ 125;
#X obj 299 575 +~ 1;
#X obj 388 393 fd_expo \$0-exp 128;
#X msg 388 371 bang;
#X obj 299 597 tabread4~ \$0-exp;
#X obj 279 859 *~;
#X obj 371 890 cnv 15 100 60 empty empty empty 20 12 0 14 -233017 -66577
0;
#X obj 279 881 *~ 0.5;
#X obj 279 903 dac~;
#X obj 116 664 mtof;
#X obj 201 537 t f b;
#X msg 154 554 0;
#X obj 130 372 + 20;
#X obj 116 532 random 4;
#X floatatom 262 410 5 0 0 0 - - -, f 5;
#X obj 69 739 vcf~ 1;
#X obj 116 684 sig~;
#X obj 20 501 osc~ 200;
#X obj 20 523 +~ 0.5;
#X obj 20 545 *~ 0.5;
#X obj 20 589 osc~;
#X floatatom 56 401 5 0 0 0 - - -, f 5;
#X obj 20 633 phasor~;
#X obj 20 655 -~;
#X obj 20 677 cos~;
#X obj 20 611 *~;
#X obj 49 610 *~ 1000;
#X obj 20 567 *~ 200;
#X obj 41 460 *~ 2;
#X floatatom 39 333 5 0 0 0 - - -, f 5;
#X obj 39 352 / 1000;
#X floatatom 273 336 5 0 0 0 - - -, f 5;
#X floatatom 43 280 5 0 0 0 - - -, f 5;
#X obj 303 368 - 31;
#X obj 329 403 sel 0;
#X obj 372 430 / 32;
#X msg 329 425 10;
#X floatatom 363 559 5 0 0 0 - - -, f 5;
#X obj 432 469 fd_hann \$0-hann 128;
#X msg 431 444 bang;
#X obj 326 655 sig~ 1;
#X obj 299 741 cpole~ 0.5 -0.5;
#X obj 446 536 fd_triangle \$0-tri 128;
#X msg 446 512 bang;
#X obj 371 655 tabread4~ \$0-tri;
#X msg 502 601 tri;
#X obj 502 623 pack s \$0;
#X msg 532 596 hann;
#X msg 518 574 exp;
#X msg 502 645 set \$2-\$1;
#X obj 326 680 -~;
#X obj 380 705 *~ 0.5;
#X obj 326 706 *~ 0.5;
#X floatatom 440 687 5 0 0 0 - - -, f 5;
#X floatatom 419 754 5 0 0 0 - - -, f 5;
#X obj 299 807 rpole~ 0.8;
#X floatatom 315 626 5 0 0 0 - - -, f 5;
#X obj 371 677 -~;
#X obj 138 743 osc~;
#X connect 0 0 1 0;
#X connect 0 1 2 0;
#X connect 1 0 63 0;
#X connect 2 0 1 1;
#X connect 2 1 105 0;
#X connect 3 0 4 0;
#X connect 5 0 10 0;
#X connect 6 0 14 0;
#X connect 7 0 9 1;
#X connect 8 0 9 0;
#X connect 9 0 4 0;
#X connect 10 0 4 0;
#X connect 11 0 4 0;
#X connect 12 0 13 0;
#X connect 13 0 4 0;
#X connect 14 0 4 0;
#X connect 15 0 57 1;
#X connect 16 0 11 0;
#X connect 16 0 15 0;
#X connect 16 0 17 0;
#X connect 16 0 33 0;
#X connect 17 0 6 0;
#X connect 18 0 104 0;
#X connect 19 0 20 0;
#X connect 20 0 4 0;
#X connect 20 0 57 1;
#X connect 20 0 67 1;
#X connect 21 0 16 0;
#X connect 21 1 24 0;
#X connect 22 0 67 1;
#X connect 23 0 57 1;
#X connect 24 0 26 0;
#X connect 24 1 25 0;
#X connect 26 0 18 0;
#X connect 27 0 4 0;
#X connect 28 0 0 0;
#X connect 29 0 30 0;
#X connect 29 1 31 0;
#X connect 30 0 32 0;
#X connect 30 0 45 0;
#X connect 31 0 30 1;
#X connect 31 1 32 1;
#X connect 32 0 39 0;
#X connect 33 0 67 1;
#X connect 35 1 36 0;
#X connect 36 0 38 0;
#X connect 36 1 37 0;
#X connect 38 0 34 0;
#X connect 39 0 40 0;
#X connect 39 1 41 0;
#X connect 39 2 41 1;
#X connect 40 0 42 0;
#X connect 41 0 40 1;
#X connect 44 0 23 0;
#X connect 44 0 22 0;
#X connect 45 0 46 0;
#X connect 47 0 48 0;
#X connect 48 0 51 0;
#X connect 48 1 49 0;
#X connect 49 0 50 0;
#X connect 49 0 52 0;
#X connect 50 0 49 1;
#X connect 51 0 66 0;
#X connect 52 0 51 1;
#X connect 53 0 47 0;
#X connect 53 1 55 0;
#X connect 53 2 54 0;
#X connect 53 3 52 1;
#X connect 54 0 49 1;
#X connect 55 0 65 0;
#X connect 56 0 85 0;
#X connect 57 0 28 0;
#X connect 57 1 21 0;
#X connect 58 0 59 0;
#X connect 58 0 61 0;
#X connect 59 0 58 1;
#X connect 60 0 58 0;
#X connect 60 1 59 1;
#X connect 61 0 62 0;
#X connect 62 0 69 0;
#X connect 63 0 56 0;
#X connect 63 1 64 0;
#X connect 64 0 83 0;
#X connect 64 1 62 1;
#X connect 65 0 47 1;
#X connect 65 1 70 1;
#X connect 66 0 47 0;
#X connect 66 1 86 0;
#X connect 67 0 43 0;
#X connect 67 1 35 0;
#X connect 68 0 57 0;
#X connect 69 0 82 0;
#X connect 69 1 70 0;
#X connect 70 0 71 0;
#X connect 71 0 72 0;
#X connect 72 0 73 0;
#X connect 73 0 74 0;
#X connect 74 0 77 0;
#X connect 74 0 117 0;
#X connect 76 0 75 0;
#X connect 77 0 114 0;
#X connect 78 0 80 0;
#X connect 80 0 81 0;
#X connect 80 0 81 1;
#X connect 82 0 89 0;
#X connect 83 0 61 1;
#X connect 83 1 84 0;
#X connect 84 0 58 1;
#X connect 85 0 53 0;
#X connect 86 0 60 0;
#X connect 87 0 86 1;
#X connect 89 0 88 1;
#X connect 89 0 101 0;
#X connect 89 0 131 0;
#X connect 90 0 91 0;
#X connect 90 0 99 0;
#X connect 90 0 96 1;
#X connect 91 0 92 0;
#X connect 92 0 100 0;
#X connect 93 0 98 0;
#X connect 94 0 101 1;
#X connect 95 0 96 0;
#X connect 96 0 97 0;
#X connect 97 0 88 0;
#X connect 98 0 95 0;
#X connect 99 0 98 1;
#X connect 100 0 93 0;
#X connect 101 0 90 0;
#X connect 102 0 103 0;
#X connect 103 0 94 0;
#X connect 104 0 87 0;
#X connect 104 0 106 0;
#X connect 104 0 107 0;
#X connect 105 0 102 0;
#X connect 106 0 74 1;
#X connect 107 0 109 0;
#X connect 107 1 108 0;
#X connect 108 0 88 2;
#X connect 109 0 88 2;
#X connect 112 0 111 0;
#X connect 113 0 123 0;
#X connect 114 0 128 0;
#X connect 116 0 115 0;
#X connect 117 0 123 1;
#X connect 117 0 130 0;
#X connect 118 0 119 0;
#X connect 119 0 122 0;
#X connect 120 0 119 0;
#X connect 121 0 119 0;
#X connect 122 0 117 0;
#X connect 123 0 125 0;
#X connect 124 0 114 3;
#X connect 125 0 114 2;
#X connect 126 0 125 1;
#X connect 126 0 124 1;
#X connect 126 0 127 0;
#X connect 127 0 128 1;
#X connect 128 0 78 1;
#X connect 129 0 113 0;
#X connect 129 0 130 1;
#X connect 130 0 124 0;
