#N canvas 532 53 555 552 12;
#X msg 68 70 all rewind;
#X obj 276 124 fd_expo~ expo 128;
#X msg 276 92 bang;
#X msg 43 21 all 1;
#X obj 43 230 dac~;
#X floatatom 160 211 10 0 0 0 tick - -, f 10;
#X obj 160 155 route 0;
#X obj 160 183 route float;
#X obj 245 237 t a b;
#X obj 245 262 print;
#X obj 313 257 bng 15 250 50 0 empty empty empty 17 7 0 10 -262144
-1 -1;
#X floatatom 160 443 5 0 0 0 bar - -, f 5;
#X obj 160 347 f;
#X obj 194 348 + 1;
#X msg 81 94 all stop;
#X msg 55 45 all 0;
#X msg 209 323 0;
#X obj 43 130 clone _notita 8;
#X obj 160 323 sel 0;
#X obj 268 430 fd_midiread;
#X obj 160 233 mod 348;
#X obj 160 372 / 4;
#X obj 160 397 int;
#X connect 0 0 17 0;
#X connect 2 0 1 0;
#X connect 3 0 17 0;
#X connect 5 0 20 0;
#X connect 6 0 7 0;
#X connect 7 0 5 0;
#X connect 7 1 8 0;
#X connect 8 0 9 0;
#X connect 8 1 10 0;
#X connect 10 0 16 0;
#X connect 12 0 13 0;
#X connect 12 0 21 0;
#X connect 13 0 12 1;
#X connect 14 0 17 0;
#X connect 15 0 17 0;
#X connect 16 0 12 1;
#X connect 17 0 4 0;
#X connect 17 0 4 1;
#X connect 17 1 6 0;
#X connect 18 0 12 0;
#X connect 20 0 18 0;
#X connect 21 0 22 0;
#X connect 22 0 11 0;
