#N canvas 525 46 413 410 10;
#X obj 303 336 fd_expo 128;
#X msg 302 317 128;
#X obj 121 380 dac~;
#X obj 121 358 *~ 0.5;
#X msg 267 175 166;
#X msg 296 175 120;
#X msg 327 176 144;
#N canvas 0 22 484 652 metronome 0;
#X obj 124 569 *~;
#X obj 112 254 t b b;
#X obj 112 301 timer;
#X obj 113 514 line~;
#X msg 113 479 0 \$1;
#X obj 112 456 f;
#X obj 138 457 del;
#X obj 112 371 t f f;
#X obj 147 432 t f f;
#X msg 148 479 1 \$1;
#X obj 147 410 * 0.05;
#X obj 138 544 osc~ 220;
#X obj 111 411 * 0.1;
#X obj 161 261 f;
#X obj 185 262 + 1;
#X obj 161 283 mod 4;
#X msg 150 332 0.9;
#X msg 187 377 0.2;
#X msg 189 325 0.4;
#X msg 176 232 0;
#X obj 161 305 sel 2 0;
#X obj 132 132 t b b f;
#X obj 229 25 inlet;
#X obj 137 615 outlet~;
#X obj 94 129 mod;
#X obj 94 151 sel 0;
#X obj 76 38 spigot;
#X obj 134 11 inlet;
#X obj 134 33 t f f;
#X obj 295 300 fd_switch;
#X obj 350 325 switch~;
#X obj 124 591 *~;
#X obj 214 81 /;
#X msg 214 59 60000 \$1;
#X obj 32 7 inlet;
#X connect 0 0 31 0;
#X connect 1 0 2 0;
#X connect 1 1 2 1;
#X connect 1 1 13 0;
#X connect 2 0 7 0;
#X connect 3 0 0 0;
#X connect 4 0 3 0;
#X connect 5 0 4 0;
#X connect 6 0 5 0;
#X connect 7 0 12 0;
#X connect 7 1 10 0;
#X connect 8 0 6 0;
#X connect 8 1 9 0;
#X connect 9 0 3 0;
#X connect 10 0 8 0;
#X connect 11 0 0 1;
#X connect 12 0 5 1;
#X connect 13 0 14 0;
#X connect 13 0 15 0;
#X connect 14 0 13 1;
#X connect 15 0 20 0;
#X connect 16 0 12 1;
#X connect 17 0 12 1;
#X connect 18 0 12 1;
#X connect 19 0 13 1;
#X connect 20 0 16 0;
#X connect 20 1 18 0;
#X connect 20 2 17 0;
#X connect 21 0 2 0;
#X connect 21 1 19 0;
#X connect 21 2 7 0;
#X connect 21 2 24 1;
#X connect 22 0 33 0;
#X connect 24 0 25 0;
#X connect 25 0 1 0;
#X connect 26 0 24 0;
#X connect 27 0 28 0;
#X connect 28 0 26 1;
#X connect 28 1 29 0;
#X connect 29 0 31 1;
#X connect 29 1 30 0;
#X connect 31 0 23 0;
#X connect 32 0 21 0;
#X connect 33 0 32 0;
#X connect 34 0 26 0;
#X restore 135 325 pd metronome;
#X obj 163 250 tgl 15 0 empty empty empty 17 7 0 10 -262144 -1 -1 1
1;
#X msg 100 188 all \$1;
#X obj 97 146 t f f;
#X obj 202 208 sel 1;
#X obj 108 111 tgl 15 0 empty empty empty 17 7 0 10 -262144 -1 -1 0
1;
#X obj 202 255 int 166;
#X msg 18 147 all rewind;
#X obj 202 231 bng 15 250 50 0 empty empty empty 17 7 0 10 -262144
-1 -1;
#X obj 116 294 route 0;
#X obj 305 288 r pd-dsp-started;
#X obj 117 27 bng 15 250 50 0 empty empty empty 17 7 0 10 -262144 -1
-1;
#X obj 117 47 del 10000;
#X obj 44 266 clone _notita 8;
#X connect 1 0 0 0;
#X connect 3 0 2 0;
#X connect 3 0 2 1;
#X connect 4 0 13 1;
#X connect 5 0 13 1;
#X connect 6 0 13 1;
#X connect 7 0 3 0;
#X connect 8 0 7 1;
#X connect 9 0 20 0;
#X connect 10 0 9 0;
#X connect 10 1 11 0;
#X connect 11 0 15 0;
#X connect 12 0 10 0;
#X connect 13 0 7 2;
#X connect 14 0 20 0;
#X connect 15 0 13 0;
#X connect 16 0 7 0;
#X connect 17 0 1 0;
#X connect 18 0 19 0;
#X connect 19 0 12 0;
#X connect 20 0 3 0;
#X connect 20 1 16 0;
