#N struct template-1 float x float y float z float s float id array
array-1 template-1-element;
#N struct template-1-element float y float s float w;
#N struct template-2 float x float y float z float s float id array
array-2 template-2-element;
#N struct template-2-element float y float s float w;
#N struct template-3 float x float y float z float s float id array
array-3 template-3-element;
#N struct template-3-element float y float s float w;
#N struct template-4 float x float y float z float s float id array
array-4 template-4-element;
#N struct template-4-element float y float s float w;
#N struct template-5 float x float y float z float s float id array
array-5 template-5-element;
#N struct template-5-element float y float s float w;
#N struct template-6 float x float y float z float s float id array
array-6 template-6-element;
#N struct template-6-element float y float s float w;
#N struct template-7 float x float y float z float s float id array
array-7 template-7-element;
#N struct template-7-element float y float s float w;
#N struct template-8 float x float y float z float s float id array
array-8 template-8-element;
#N struct template-8-element float y float s float w;
#N canvas 18 476 412 56 12;
#X declare -path ../_lib -path ../samples -path ~/Documents/dep/tID
-stdpath mrpeach -stdlib mrpeach -stdpath tID -stdlib tID;
#N canvas 1064 49 208 538 guts 0;
#N canvas 21 50 238 155 declares 0;
#X obj 13 11 declare -path ../_lib -path ../samples -path ~/Documents/dep/tID
-stdpath mrpeach -stdlib mrpeach -stdpath tID -stdlib tID, f 26;
#X restore 11 9 pd declares __________;
#N canvas 21 50 511 357 loadbang 0;
#X obj 23 15 loadbang;
#X msg 23 168 \; pd-\$1 vis 0 \;;
#X obj 23 127 symbol;
#N canvas 594 38 451 546 welcome 0;
#X msg 42 165 1 \, 2 \, 3 \, 4;
#X msg 42 100 bang;
#X obj 42 124 t b b;
#X msg 276 69 \; fake-inputs bang \;;
#X msg 42 191 \; \$1-env-switch-set 1 \; \$1-bark-switch-set 0 \;;
#X msg 44 309 bang;
#X msg 44 350 1 \, 2 \, 3 \, 4;
#X msg 44 376 \; \$1-env-switch-set 0 \; \$1-bark-switch-set 0 \;;
#X text 29 21 1) check paths are correct;
#X text 28 59 2) fine-tune barks:;
#X text 39 280 3) done finetuning!;
#X msg 222 144 \; pd-inputs vis 1 \; enable-adc-dac-set 1 \; monitor-set
1 \; pd-finetune vis 1 \; pd-flute+violin vis 1 \; pd-clarinet vis
1 \; pd-piano+perc vis 1 \; pd-cello vis 1 \;;
#X msg 222 329 \; enable-adc-dac-set 0 \; pd-inputs vis 0 \; monitor-set
0 \; pd-finetune vis 0 \; pd-flute+violin vis 0 \; pd-clarinet vis
0 \; pd-piano+perc vis 0 \; pd-cello vis 0 \; pd-welcome vis 0 \;;
#X connect 0 0 4 0;
#X connect 1 0 2 0;
#X connect 2 0 0 0;
#X connect 2 1 11 0;
#X connect 5 0 6 0;
#X connect 5 0 12 0;
#X connect 6 0 7 0;
#X restore 140 305 pd welcome;
#X msg 24 299 \; pd-\$1 vis 1 \;;
#X obj 24 269 symbol;
#X msg 23 242 controls \, welcome \, monitor \, fd_clicktrack.pd;
#X msg 23 40 declares \, loadbang \, fake-inputs \, inputs \, finetune
\, midi \, samples \, windows \, generate \, envelopes \, tab \, dataModifiers
\, outputs \, rec \, log \, vising \, presets \, panic \, randomizing
\, transition \, morphing \, guts;
#X connect 0 0 7 0;
#X connect 0 0 6 0;
#X connect 2 0 1 0;
#X connect 5 0 4 0;
#X connect 6 0 5 0;
#X connect 7 0 2 0;
#X restore 11 33 pd loadbang __________;
#N canvas 437 480 264 50 inputs 0;
#X obj 10 10 clone -s 1 _input 4 10 5 1003;
#X restore 11 57 pd inputs ____________;
#N canvas 622 47 429 340 midi 0;
#X obj 136 118 sel 0;
#X obj 173 296 s midistart;
#X obj 193 99 route lyrics;
#X obj 286 134 route bang;
#X obj 286 294 s midistop;
#X obj 310 184 print fd_midiread, f 11;
#X obj 36 106 route 144;
#X obj 36 294 s midievent;
#X obj 36 139 unpack;
#X obj 36 188 spigot;
#X obj 81 163 t f f;
#X obj 36 244 f;
#X obj 66 244 + 1;
#X obj 36 212 t b f;
#X obj 136 141 t b b;
#X msg 136 167 0;
#X obj 193 129 symbol;
#X obj 193 160 list fromsymbol, f 10;
#X obj 193 206 list trim;
#X obj 36 267 pack f f f f;
#X obj 193 267 s midilyric;
#X obj 60 45 r fd_midi;
#X obj 36 72 fd_midiread elec;
#X obj 36 20 fd_clicktrack 0;
#X obj 199 66 throw~ 1-dacout;
#X obj 170 20 *~ 0.1;
#X obj 246 42 throw~ 2-dacout;
#X connect 0 0 14 0;
#X connect 2 0 16 0;
#X connect 2 1 3 0;
#X connect 3 0 4 0;
#X connect 3 1 5 0;
#X connect 6 0 8 0;
#X connect 8 0 9 0;
#X connect 8 1 10 0;
#X connect 9 0 13 0;
#X connect 10 0 9 1;
#X connect 10 1 19 2;
#X connect 11 0 12 0;
#X connect 11 0 19 0;
#X connect 12 0 11 1;
#X connect 13 0 11 0;
#X connect 13 1 19 1;
#X connect 14 0 15 0;
#X connect 14 1 1 0;
#X connect 15 0 11 1;
#X connect 16 0 17 0;
#X connect 17 0 18 0;
#X connect 18 0 20 0;
#X connect 19 0 7 0;
#X connect 21 0 22 1;
#X connect 22 0 6 0;
#X connect 22 1 0 0;
#X connect 22 2 2 0;
#X connect 23 0 22 0;
#X connect 23 1 25 0;
#X connect 25 0 24 0;
#X connect 25 0 26 0;
#X restore 11 105 pd midi ______________;
#N canvas 177 31 545 353 samples 0;
#N canvas 448 346 735 356 arrays 0;
#X obj 13 15 array define clar-0;
#X obj 13 35 array define clar-1;
#X obj 13 55 array define clar-2;
#X obj 13 75 array define clar-3;
#X obj 13 95 array define clar-4;
#X obj 13 115 array define clar-5;
#X obj 13 135 array define clar-6;
#X obj 13 155 array define clar-7;
#X obj 13 175 array define clar-8;
#X obj 183 15 array define flute-0;
#X obj 183 35 array define flute-1;
#X obj 183 55 array define flute-2;
#X obj 183 75 array define flute-3;
#X obj 183 95 array define flute-4;
#X obj 183 115 array define flute-5;
#X obj 183 135 array define flute-6;
#X obj 183 155 array define flute-7;
#X obj 183 175 array define flute-8;
#X obj 117 203 array define perc-0;
#X obj 117 223 array define perc-1;
#X obj 117 243 array define perc-2;
#X obj 360 15 array define violin-0;
#X obj 360 35 array define violin-1;
#X obj 360 55 array define violin-2;
#X obj 360 75 array define violin-3;
#X obj 360 95 array define violin-4;
#X obj 360 115 array define violin-5;
#X obj 360 135 array define violin-6;
#X obj 360 155 array define violin-7;
#X obj 360 175 array define violin-8;
#X obj 360 195 array define violin-9;
#X obj 543 15 array define voice-0;
#X obj 543 35 array define voice-1;
#X obj 543 55 array define voice-2;
#X obj 543 75 array define voice-3;
#X obj 543 95 array define voice-4;
#X obj 543 115 array define voice-5;
#X obj 543 135 array define voice-6;
#X obj 543 155 array define voice-7;
#X obj 543 175 array define voice-8;
#X obj 543 195 array define voice-9;
#X obj 543 215 array define voice-10;
#X obj 543 235 array define voice-11;
#X obj 543 255 array define voice-12;
#X obj 14 281 array define clarinete;
#X restore 426 29 pd arrays;
#X obj 23 312 soundfiler;
#X msg 23 290 read -resize ../samples/\$1.wav \$1;
#X msg 23 35 bang;
#X text 64 32 <-- damn never seen a message like this...;
#X obj 23 4 loadbang;
#X msg 23 66 symbol clar-0 \, symbol clar-1 \, symbol clar-2 \, symbol
clar-3 \, symbol clar-4 \, symbol clar-5 \, symbol clar-6 \, symbol
clar-7 \, symbol clar-8 \, symbol flute-0 \, symbol flute-1 \, symbol
flute-2 \, symbol flute-3 \, symbol flute-4 \, symbol flute-5 \, symbol
flute-6 \, symbol flute-7 \, symbol flute-8 \, symbol perc-0 \, symbol
perc-1 \, symbol perc-2 \, symbol violin-0 \, symbol violin-1 \, symbol
violin-2 \, symbol violin-3 \, symbol violin-4 \, symbol violin-5 \,
symbol violin-6 \, symbol violin-7 \, symbol violin-8 \, symbol violin-9
\, symbol voice-0 \, symbol voice-1 \, symbol voice-2 \, symbol voice-3
\, symbol voice-4 \, symbol voice-5 \, symbol voice-6 \, symbol voice-7
\, symbol voice-8 \, symbol voice-9 \, symbol voice-10 \, symbol voice-11
\, symbol voice-12 \, symbol clarinete;
#X connect 2 0 1 0;
#X connect 3 0 6 0;
#X connect 5 0 3 0;
#X connect 6 0 2 0;
#X restore 11 129 pd samples ___________;
#N canvas 868 47 183 252 windows 0;
#N canvas 604 39 561 657 tab 0;
#X obj 41 299 / 1000;
#X obj 41 223 f;
#X obj 74 223 + 1;
#X obj 41 197 t b f;
#X obj 41 120 random 5000;
#X obj 41 145 - 2500;
#X obj 41 248 reflect 1000;
#X obj 41 43 fd_iterate 2048, f 10;
#X obj 41 374 array set stoch, f 9;
#X obj 410 166 array define sin 2048;
#X f 12;
#X obj 172 173 tabsend~ sin, f 8;
#X obj 385 95 switch~ 2048;
#X obj 410 68 del 100;
#X obj 410 209 array define cos 2048;
#X f 12;
#X obj 410 252 array define stoch 2048;
#X f 12;
#X msg 410 137 normalize 0.8;
#X obj 172 98 osc~;
#X obj 385 28 bng 15 250 50 0 empty empty empty 17 7 0 10 -262144 -1
-1;
#X obj 415 8 loadbang;
#X obj 172 72 /;
#X msg 172 47 44100 2048;
#X obj 175 247 /;
#X msg 175 222 44100 2048;
#X obj 175 301 osc~;
#X obj 175 272 t f f f f f;
#X obj 227 361 * 1.60944;
#X obj 239 414 * 1.94591;
#X obj 247 464 * 2.19722;
#X obj 247 486 osc~ 1;
#X obj 237 436 osc~ 1;
#X obj 227 386 osc~ 1;
#X obj 217 326 osc~ 1;
#X msg 415 33 bang \, bang;
#X msg 245 78 0.75;
#X obj 217 300 * 3.68888;
#X obj 307 307 random 100;
#X obj 307 332 / 100;
#X msg 307 235 5;
#X obj 307 260 fd_iterate;
#X obj 307 285 t b f;
#X obj 307 357 list prepend;
#X obj 307 382 route 0 1 2 3 4;
#X obj 217 113 osc~ 12300;
#X obj 172 123 *~;
#X obj 410 296 array define lor 2048;
#X f 12;
#X obj 46 503 lor8~;
#X obj 45 635 tabsend~ lor;
#X obj 89 482 +~ 2.6667;
#X obj 24 533 *~;
#X obj 55 532 *~;
#X obj 91 534 *~;
#X obj 45 568 sqrt~;
#X obj 85 456 +~ 32;
#X obj 36 453 +~ 10;
#X obj 19 418 +~ 0.01;
#X obj 45 593 *~;
#X obj 175 514 *~, f 8;
#X obj 175 539 tabsend~ cos;
#X obj 172 148 *~;
#X obj 41 91 t b f f;
#X obj 257 513 tabreceive~ 0-han;
#X obj 207 150 tabreceive~ 0-han;
#X obj 198 571 tabreceive~ 0-han;
#X obj 41 170 reflect 132;
#X connect 0 0 8 0;
#X connect 1 0 2 0;
#X connect 1 0 6 0;
#X connect 2 0 1 1;
#X connect 3 0 1 0;
#X connect 3 1 2 1;
#X connect 4 0 5 0;
#X connect 5 0 63 0;
#X connect 6 0 0 0;
#X connect 7 0 59 0;
#X connect 12 0 15 0;
#X connect 15 0 9 0;
#X connect 15 0 13 0;
#X connect 15 0 14 0;
#X connect 15 0 44 0;
#X connect 16 0 43 0;
#X connect 17 0 11 0;
#X connect 17 0 7 0;
#X connect 17 0 12 0;
#X connect 17 0 20 0;
#X connect 17 0 33 0;
#X connect 17 0 22 0;
#X connect 17 0 37 0;
#X connect 18 0 32 0;
#X connect 19 0 16 0;
#X connect 20 0 19 0;
#X connect 21 0 24 0;
#X connect 22 0 21 0;
#X connect 23 0 56 0;
#X connect 24 0 23 0;
#X connect 24 1 34 0;
#X connect 24 2 25 0;
#X connect 24 3 26 0;
#X connect 24 4 27 0;
#X connect 25 0 30 0;
#X connect 26 0 29 0;
#X connect 27 0 28 0;
#X connect 28 0 56 0;
#X connect 29 0 56 0;
#X connect 30 0 56 0;
#X connect 31 0 56 0;
#X connect 32 0 17 0;
#X connect 33 0 16 1;
#X connect 34 0 31 0;
#X connect 35 0 36 0;
#X connect 36 0 40 0;
#X connect 37 0 38 0;
#X connect 38 0 39 0;
#X connect 39 0 35 0;
#X connect 39 1 40 1;
#X connect 40 0 41 0;
#X connect 41 0 23 1;
#X connect 41 1 31 1;
#X connect 41 2 30 1;
#X connect 41 3 29 1;
#X connect 41 4 28 1;
#X connect 42 0 43 1;
#X connect 43 0 58 0;
#X connect 45 0 48 0;
#X connect 45 0 48 1;
#X connect 45 1 49 0;
#X connect 45 1 49 1;
#X connect 45 2 50 0;
#X connect 45 2 50 1;
#X connect 47 0 45 3;
#X connect 48 0 51 0;
#X connect 49 0 51 0;
#X connect 50 0 51 0;
#X connect 51 0 55 0;
#X connect 52 0 45 2;
#X connect 53 0 45 1;
#X connect 54 0 45 0;
#X connect 55 0 46 0;
#X connect 56 0 57 0;
#X connect 58 0 10 0;
#X connect 59 0 4 0;
#X connect 59 1 8 1;
#X connect 60 0 56 1;
#X connect 61 0 58 1;
#X connect 62 0 55 1;
#X connect 63 0 3 0;
#X restore 14 71 pd tab ___________;
#N canvas 0 22 165 185 envelopes 0;
#X obj 10 35 fd_env 1 30 0;
#X obj 10 60 fd_env 2 30 0;
#X obj 10 85 fd_env 3 30 0;
#X obj 10 110 fd_env 4 30 0;
#X obj 10 135 fd_env 5 30 0;
#X obj 10 160 fd_env 6 30 0;
#X obj 10 185 fd_env 7 30 0;
#X obj 10 210 fd_env 8 30 0;
#X restore 14 181 pd envelopes _____;
#N canvas 0 52 547 304 dataModifiers 0;
#X obj 422 94 clone -s 1 fd_dataRand 7 fd_env, f 11;
#X obj 318 94 clone -s 1 fd_dataWalk 7 fd_env 0, f 11;
#X obj 22 94 clone -s 1 fd_dataLine 7 fd_env 0, f 11;
#X obj 120 94 clone -s 1 fd_dataHann 7 fd_env 0, f 11;
#X obj 222 94 clone -s 1 fd_dataExp 7 fd_env 0, f 10;
#X obj 422 34 r dataRand;
#X obj 318 34 r dataWalk;
#X obj 318 57 route type;
#X obj 23 34 r dataLine;
#X obj 23 57 route type;
#X obj 121 57 route type;
#X obj 121 34 r dataHann;
#X obj 224 57 route type;
#X obj 224 34 r dataExp;
#X obj 287 222 clone -s 1 fd_dataDroplet 7 y, f 14;
#X obj 28 180 r dataMorph;
#X obj 288 171 r dataDroplet;
#X obj 288 194 route type;
#X text 25 8 draw;
#X text 26 159 morph;
#X obj 28 221 clone -s 1 fd_dataMorph 8 30 y, f 12;
#X text 403 169 <-- not working;
#X connect 5 0 0 0;
#X connect 6 0 7 0;
#X connect 7 0 1 1;
#X connect 7 1 1 0;
#X connect 8 0 9 0;
#X connect 9 0 2 1;
#X connect 9 1 2 0;
#X connect 10 0 3 1;
#X connect 10 1 3 0;
#X connect 11 0 10 0;
#X connect 12 0 4 1;
#X connect 12 1 4 0;
#X connect 13 0 12 0;
#X connect 15 0 20 0;
#X connect 16 0 17 0;
#X connect 17 0 14 1;
#X connect 17 1 14 0;
#X restore 14 210 pd dataModifiers _;
#X text 52 17 ARRAYS;
#X text 42 125 DATA ARRAYS;
#X obj 14 41 fd_windows 0 2048;
#N canvas 166 215 585 382 generate 0;
#N canvas 0 22 450 300 protect 0;
#X obj 49 18 inlet;
#X obj 49 46 t b f b;
#X msg 112 113 menusave;
#X obj 171 157 s pd-test-5.pd;
#X obj 108 262 outlet;
#X obj 96 228 min 50;
#X obj 96 203 max 2;
#X text 228 102 ?;
#X connect 0 0 1 0;
#X connect 1 0 2 0;
#X connect 1 1 6 0;
#X connect 1 2 2 0;
#X connect 2 0 3 0;
#X connect 5 0 4 0;
#X connect 6 0 5 0;
#X restore 26 149 pd protect;
#X obj 130 233 pack f 0;
#X msg 130 265 size \$1 \, numbers \$2, f 10;
#X obj 81 342 send;
#N canvas 692 208 525 373 next 0;
#X obj 162 287 s pd-envelopes;
#X obj 161 28 inlet;
#X obj 414 237 outlet;
#X obj 334 72 f;
#X obj 368 73 + 1;
#X obj 202 207 list append;
#X obj 353 103 t f f f;
#X obj 199 146 list;
#X obj 161 63 t b f b;
#X obj 326 174 + 10;
#X obj 326 149 * 25;
#X obj 350 17 r \$0-clear;
#X msg 350 42 0;
#X msg 188 237 obj 10 \$3 fd_env \$2 \$1 0;
#X connect 1 0 8 0;
#X connect 3 0 4 0;
#X connect 4 0 3 1;
#X connect 4 0 6 0;
#X connect 5 0 13 0;
#X connect 6 0 7 1;
#X connect 6 1 10 0;
#X connect 6 2 2 0;
#X connect 7 0 5 0;
#X connect 8 1 7 0;
#X connect 8 2 3 0;
#X connect 9 0 5 1;
#X connect 10 0 9 0;
#X connect 11 0 12 0;
#X connect 12 0 3 1;
#X connect 13 0 0 0;
#X restore 230 215 pd next;
#X msg 26 312 vis 1;
#N canvas 0 22 398 444 randomvalues 0;
#X obj 36 81 until;
#X obj 36 113 t b b;
#X obj 36 343 list;
#X msg 91 113 0;
#X obj 35 290 random 150;
#X obj 36 7 inlet;
#X obj 71 184 t b f;
#X obj 71 209 f;
#X obj 104 209 + 1;
#X obj 71 158 random 3;
#X obj 36 368 outlet;
#X obj 36 32 t f b;
#X connect 0 0 1 0;
#X connect 1 0 4 0;
#X connect 1 1 9 0;
#X connect 2 0 10 0;
#X connect 3 0 7 1;
#X connect 4 0 2 0;
#X connect 5 0 11 0;
#X connect 6 0 7 0;
#X connect 6 1 8 1;
#X connect 7 0 8 0;
#X connect 7 0 2 1;
#X connect 8 0 7 1;
#X connect 9 0 6 0;
#X connect 11 0 0 0;
#X connect 11 1 3 0;
#X restore 81 207 pd randomvalues;
#X obj 26 176 t b f f f, f 16;
#X msg 230 323 symbol fd_env-\$1;
#X obj 240 244 s envelopes-max;
#X obj 26 99 until;
#X msg 26 124 30;
#X obj 26 14 loadbang;
#X msg 26 73 8;
#X obj 26 43 t b b;
#X msg 77 78 clear;
#X obj 77 111 s pd-envelopes;
#X text 108 13 generates envelopes in [pd-envelopes], f 20;
#X obj 311 55 r dataWrite;
#X obj 437 57 r dataRead;
#X text 304 26 stores/recalls data in texts;
#N canvas 0 22 785 548 dataRead 0;
#X obj 69 214 list prepend;
#X obj 81 119 f;
#X obj 81 144 until;
#X obj 81 169 f;
#X obj 113 169 + 1;
#X obj 116 98 r envelopes-max;
#X msg 129 144 1;
#X obj 23 73 t b b b f;
#X obj 21 449 s reload;
#X obj 583 213 r reload;
#X obj 583 317 print;
#X obj 583 251 f;
#X msg 583 276 loaded preset \$1;
#X obj 22 7 inlet;
#X obj 22 32 route float open, f 54;
#X obj 275 63 t b f;
#X obj 275 88 openpanel;
#X obj 275 113 list append;
#X msg 275 138 \; pd-data-\$2 read \$1;
#X msg 69 248 \; pd-data-\$2 read /Users/federicocamarahalac/Documents/fd_work/a.le.a/presets/preset-\$1-id-\$2.txt
;
#X connect 0 0 19 0;
#X connect 1 0 2 0;
#X connect 2 0 3 0;
#X connect 3 0 4 0;
#X connect 3 0 0 0;
#X connect 4 0 3 1;
#X connect 5 0 1 1;
#X connect 6 0 3 1;
#X connect 7 0 8 0;
#X connect 7 1 1 0;
#X connect 7 2 6 0;
#X connect 7 3 0 1;
#X connect 7 3 11 1;
#X connect 9 0 11 0;
#X connect 11 0 12 0;
#X connect 12 0 10 0;
#X connect 13 0 14 0;
#X connect 14 0 7 0;
#X connect 14 1 15 0;
#X connect 15 0 16 0;
#X connect 15 1 17 1;
#X connect 16 0 17 0;
#X connect 17 0 18 0;
#X restore 437 105 pd dataRead;
#N canvas 130 29 612 475 dataWrite 0;
#X obj 159 209 f;
#X obj 201 210 + 1;
#X msg 201 235 set \$1;
#X obj 242 207 loadbang;
#X obj 30 311 list prepend;
#X msg 201 260 7;
#X obj 35 12 inlet;
#X obj 175 289 outlet;
#X floatatom 288 241 5 0 0 1 stored_presets - -, f 5;
#X msg 199 141 0;
#X obj 199 166 t b f;
#X msg 288 263 \; stored-presets number \$1 \, label \$1-presets,
f 25;
#X obj 30 173 f;
#X obj 30 198 until;
#X obj 30 223 f;
#X obj 62 223 + 1;
#X floatatom 65 177 5 0 0 0 - - -, f 5;
#X obj 65 152 r envelopes-max;
#X msg 78 198 1;
#X msg 30 342 \; pd-data-\$2 write /Users/federicocamarahalac/Documents/fd_work/a.le.a/presets/preset-\$1-id-\$2.txt
;
#X obj 35 37 route store reset restore;
#X obj 94 69 t b f;
#X obj 38 64 t b b;
#X obj 35 127 t b b;
#X connect 0 0 1 0;
#X connect 0 0 4 1;
#X connect 1 0 0 1;
#X connect 1 0 2 0;
#X connect 1 0 7 0;
#X connect 1 0 8 0;
#X connect 2 0 5 0;
#X connect 3 0 5 0;
#X connect 4 0 19 0;
#X connect 5 0 0 1;
#X connect 5 0 7 0;
#X connect 5 0 8 0;
#X connect 6 0 20 0;
#X connect 8 0 11 0;
#X connect 9 0 10 0;
#X connect 10 0 5 0;
#X connect 10 1 2 0;
#X connect 12 0 13 0;
#X connect 13 0 14 0;
#X connect 14 0 15 0;
#X connect 14 0 4 0;
#X connect 15 0 14 1;
#X connect 17 0 12 1;
#X connect 17 0 16 0;
#X connect 18 0 14 1;
#X connect 20 0 22 0;
#X connect 20 1 9 0;
#X connect 20 2 21 0;
#X connect 21 0 23 0;
#X connect 21 1 4 1;
#X connect 22 0 23 0;
#X connect 22 1 0 0;
#X connect 23 0 12 0;
#X connect 23 1 18 0;
#X restore 311 102 pd dataWrite;
#X connect 0 0 7 0;
#X connect 1 0 2 0;
#X connect 2 0 3 0;
#X connect 4 0 8 0;
#X connect 4 0 9 0;
#X connect 6 0 3 0;
#X connect 7 0 5 0;
#X connect 7 1 6 0;
#X connect 7 2 1 0;
#X connect 7 3 4 0;
#X connect 8 0 3 1;
#X connect 10 0 11 0;
#X connect 11 0 0 0;
#X connect 12 0 14 0;
#X connect 13 0 10 0;
#X connect 14 0 13 0;
#X connect 14 1 15 0;
#X connect 15 0 16 0;
#X connect 18 0 22 0;
#X connect 19 0 21 0;
#X restore 14 154 pd generate ______;
#X restore 11 153 pd windows ___________;
#N canvas 770 240 510 534 controls 0;
#N canvas 210 22 1119 461 transitios 0;
#X text 295 64 f - range, f 1;
#X text 27 241 freq - set, f 1;
#X obj 99 274 _seltab;
#X msg 49 387 \; _bParams-\$1 \$2 \$3 freq set \$4 \;, f 31;
#X obj 96 94 dbtorms;
#X msg 44 164 \; _bParams-\$1 \$2 \$3 amp gain \$4;
#X text 565 83 f - min, f 1;
#X text 24 83 a - gain, f 1;
#X obj 349 103 mtof;
#X obj 639 94 dbtorms;
#X msg 398 142 set \$1 \$2;
#X msg 195 99 set \$1 \$2;
#X msg 679 128 set \$1 \$2;
#X msg 134 350 set \$1 \$2;
#X msg 422 345 set \$1 \$2;
#X obj 338 280 t b f;
#X obj 312 104 f 2;
#X obj 584 94 f 1.3;
#X obj 44 95 f 0.5;
#X obj 49 299 symbol 0-sin, f 6;
#X text 315 253 t -offset, f 1;
#X obj 916 116 sel 0 1 2 3 4, f 8;
#X obj 730 270 cnv 15 100 60 empty empty empty 20 12 0 14 -233017 -66577
0;
#X obj 772 312 nbx 3 14 10 2000 0 0 empty empty empty 0 -8 0 10 -262144
-1 -1 10 256;
#X obj 811 311 bng 15 250 50 0 empty empty empty 17 7 0 10 -262144
-1 -1;
#X obj 734 274 hradio 15 1 0 5 empty empty empty 0 -8 0 10 -262144
-1 -1 1;
#X obj 734 312 nbx 3 14 1 200 0 0 empty empty empty 0 -8 0 10 -262144
-1 -1 1 256;
#X obj 772 342 t b f;
#X obj 811 274 tgl 15 0 randomizer randomizer-set rnd 1 8 0 8 -262144
-1 -1 0 1;
#X msg 312 179 \; _bParams-\$1 \$2 \$3 f range \$4 \;, f 31;
#X msg 584 173 \; _bParams-\$1 \$2 \$3 f min \$4 \;, f 31;
#X msg 338 386 \; _bParams-\$1 \$2 \$3 offset \$4 \$5 \;;
#X obj 870 16 !msg transitions;
#X obj 44 119 _gaussian a-gain, f 9;
#X obj 953 45 t f f;
#X msg 964 242 50 100 gain;
#X msg 964 222 -14 64 range;
#X msg 964 182 0 15 freq;
#X msg 964 162 13 1000 offset;
#X obj 739 16 route 0 1 2 3 4;
#X obj 44 36 list split 1;
#X obj 44 68 t b f;
#X obj 49 247 list split 1;
#X obj 312 36 list split 1;
#X obj 584 36 list split 1;
#X obj 338 257 list split 1;
#X obj 312 75 t b f;
#X obj 584 68 t b f;
#X obj 398 281 max 13;
#X obj 338 311 pack 23 13;
#X obj 49 272 t b f;
#X msg 858 273 range \$1 \$2 \, label \$3;
#X obj 844 72 list prepend 0;
#X obj 734 392 list append;
#X obj 844 326 list;
#X obj 734 342 pack;
#X floatatom 414 85 5 0 0 0 - - -, f 5;
#X floatatom 730 102 5 0 0 0 - - -, f 5;
#X msg 964 202 98 177 min;
#X obj 887 308 t f b;
#X msg 887 383 label \$1;
#X obj 969 332 f;
#X obj 969 357 == 3;
#X obj 887 332 spigot;
#X obj 737 293 hsl 87 15 -14 64 0 0 empty empty range:48.16 3 8 0 10
-262144 -1 -1 6854 1;
#X obj 887 359 _seltab;
#X obj 605 223 loadbang;
#X msg 658 248 1;
#X msg 697 240 10;
#X obj 922 390 spigot;
#X obj 994 387 == 0;
#X obj 908 436 list prepend;
#X msg 1016 326 \$3:;
#X obj 826 437 list trim;
#X msg 662 421 label \$1\$2;
#X obj 921 411 fd_round 0.5 100;
#X obj 312 137 _gaussian f-range, f 9;
#X obj 584 127 _gaussian f-min, f 9;
#X obj 49 341 _gaussian freq-set, f 9;
#X obj 338 340 _gaussian offset, f 9;
#X connect 2 0 19 1;
#X connect 4 0 18 1;
#X connect 8 0 16 1;
#X connect 8 0 56 0;
#X connect 9 0 17 1;
#X connect 9 0 57 0;
#X connect 10 0 76 1;
#X connect 11 0 33 1;
#X connect 12 0 77 1;
#X connect 13 0 78 1;
#X connect 14 0 79 1;
#X connect 15 0 49 0;
#X connect 15 1 48 0;
#X connect 16 0 76 0;
#X connect 17 0 77 0;
#X connect 18 0 33 0;
#X connect 19 0 78 0;
#X connect 21 0 35 0;
#X connect 21 1 36 0;
#X connect 21 2 58 0;
#X connect 21 3 37 0;
#X connect 21 4 38 0;
#X connect 23 0 27 0;
#X connect 24 0 54 0;
#X connect 25 0 34 0;
#X connect 26 0 55 0;
#X connect 27 0 55 0;
#X connect 27 1 55 1;
#X connect 33 0 5 0;
#X connect 34 0 52 1;
#X connect 34 1 21 0;
#X connect 34 1 61 1;
#X connect 35 0 51 0;
#X connect 35 0 72 0;
#X connect 36 0 51 0;
#X connect 36 0 72 0;
#X connect 37 0 51 0;
#X connect 37 0 72 0;
#X connect 38 0 51 0;
#X connect 38 0 72 0;
#X connect 39 0 40 0;
#X connect 39 1 43 0;
#X connect 39 2 44 0;
#X connect 39 3 42 0;
#X connect 39 4 45 0;
#X connect 39 5 32 0;
#X connect 40 0 41 0;
#X connect 40 1 11 0;
#X connect 41 0 18 0;
#X connect 41 1 4 0;
#X connect 42 0 50 0;
#X connect 42 1 13 0;
#X connect 43 0 46 0;
#X connect 43 1 10 0;
#X connect 44 0 47 0;
#X connect 44 1 12 0;
#X connect 45 0 15 0;
#X connect 45 1 14 0;
#X connect 46 0 16 0;
#X connect 46 1 8 0;
#X connect 47 0 17 0;
#X connect 47 1 9 0;
#X connect 48 0 49 1;
#X connect 49 0 79 0;
#X connect 50 0 19 0;
#X connect 50 1 2 0;
#X connect 51 0 64 0;
#X connect 52 0 39 0;
#X connect 53 0 54 1;
#X connect 54 0 52 0;
#X connect 55 0 53 1;
#X connect 58 0 51 0;
#X connect 58 0 72 0;
#X connect 59 0 63 0;
#X connect 59 0 69 0;
#X connect 59 1 61 0;
#X connect 60 0 64 0;
#X connect 61 0 62 0;
#X connect 62 0 63 1;
#X connect 62 0 70 0;
#X connect 63 0 65 0;
#X connect 64 0 53 0;
#X connect 64 0 59 0;
#X connect 65 0 60 0;
#X connect 66 0 68 0;
#X connect 66 0 67 0;
#X connect 67 0 25 0;
#X connect 67 0 26 0;
#X connect 67 0 64 0;
#X connect 68 0 23 0;
#X connect 69 0 75 0;
#X connect 70 0 69 1;
#X connect 71 0 74 0;
#X connect 72 0 71 1;
#X connect 74 0 64 0;
#X connect 75 0 71 0;
#X connect 76 0 29 0;
#X connect 77 0 30 0;
#X connect 78 0 3 0;
#X connect 79 0 31 0;
#X coords 0 -1 1 1 100 60 2 730 270;
#X restore 14 19 pd transitios;
#N canvas 403 95 735 571 _barkedParams 0;
#X obj 45 30 cnv 15 150 206 empty empty global__barkedParams 15 8 0
10 -228856 -1 0;
#X obj 363 63 symbol;
#X msg 363 87 list freq set \$1;
#X obj 363 435 list trim;
#X obj 363 461 s _barkedParams;
#X obj 363 372 list prepend all all, f 7;
#X obj 441 63 _seltab;
#X obj 48 99 vsl 15 128 0.01 1 1 0 empty empty amp 0 -9 0 10 -262144
-1 -1 8900 1;
#X msg 441 28 label \$1;
#X obj 160 48 bng 15 250 50 0 empty empty empty 17 7 0 10 -262144 -1
-1;
#X obj 58 48 hsl 100 15 0 15 0 0 empty empty 0-cau 40 8 0 10 -262144
-1 -1 3400 1;
#X obj 66 99 vsl 15 128 0.007 348 1 0 empty empty rng 0 -9 0 10 -262144
-1 -1 6500 1;
#X obj 84 99 vsl 15 128 0.007 3000 1 0 empty empty min 0 -9 0 10 -262144
-1 -1 4300 1;
#X obj 102 99 vsl 15 128 10 200 0 0 empty empty min 0 -9 0 10 -262144
-1 -1 8500 1;
#X obj 120 99 vsl 15 128 20 300 0 0 empty empty rng 0 -9 0 10 -262144
-1 -1 3800 1;
#X obj 66 68 cnv 15 30 15 empty empty freq 0 7 0 10 -191407 -1 0;
#X obj 138 99 vsl 15 128 0.2 50 0 0 length length-set len 0 -9 0 10
-262144 -1 -1 8600 1;
#X obj 295 294 t b f;
#X obj 255 320 list prepend offset, f 7;
#X obj 48 320 list prepend amp gain, f 8;
#X obj 118 320 list prepend f range, f 7;
#X obj 188 320 list prepend f min, f 7;
#X obj 102 68 cnv 15 50 15 empty empty t-offset 0 7 0 10 -191407 -1
0;
#X obj 155 116 nbx 4 14 -1e+37 1e+37 0 0 empty empty empty 0 -8 0 8
-262144 -1 -1 0.252101 256;
#X obj 155 136 nbx 4 14 -1e+37 1e+37 0 0 empty empty empty 0 -8 0 8
-262144 -1 -1 1.77341 256;
#X obj 155 156 nbx 4 14 -1e+37 1e+37 0 0 empty empty empty 0 -8 0 8
-262144 -1 -1 0.564942 256;
#X obj 155 176 nbx 4 14 -1e+37 1e+37 0 0 empty empty empty 0 -8 0 8
-262144 -1 -1 137.165 256;
#X obj 155 196 nbx 4 14 -1e+37 1e+37 0 0 empty empty empty 0 -8 0 8
-262144 -1 -1 103.78 256;
#X obj 155 216 nbx 4 14 -1e+37 1e+37 0 0 empty empty empty 0 -8 0 8
-262144 -1 -1 33.9228 256;
#X obj 166 88 bng 15 250 50 0 empty empty past 0 -8 0 10 -262144 -1
-1;
#X obj 471 188 tgl 15 0 empty empty empty 17 7 0 10 -262144 -1 -1 0
1;
#X obj 471 237 t f f;
#X obj 508 183 sel;
#X msg 508 140 label past;
#X msg 508 160 label curr;
#X obj 255 294 pack;
#X obj 48 257 fd_dory;
#X obj 118 257 fd_dory;
#X obj 188 257 fd_dory;
#X obj 258 257 fd_dory;
#X obj 328 257 fd_dory;
#X obj 398 257 fd_dory;
#X obj 249 63 fd_dory;
#X msg 403 311 0.0115609;
#X msg 443 310 0.177969;
#X msg 483 310 0.0811741;
#X msg 523 310 107.244;
#X msg 563 310 28.8189;
#X msg 603 310 8.82677;
#X msg 643 310 5.15152;
#X msg 107 481 0 0.0115609 \, 1 0.177969 \, 2 0.0811741 \, 3 107.244
\, 4 28.8189 \, 5 8.82677 \, 6 1.51515 \,;
#X msg 596 214 bang;
#X obj 607 182 t b b;
#X msg 625 250 set;
#X msg 609 151 bang;
#X msg 403 336 add2 0 \$1 \, addcomma;
#X msg 443 356 add2 1 \$1 \, addcomma;
#X msg 463 376 add2 2 \$1 \, addcomma;
#X msg 483 396 add2 3 \$1 \, addcomma;
#X msg 503 416 add2 4 \$1 \, addcomma;
#X msg 523 436 add2 5 \$1 \, addcomma;
#X msg 543 456 add2 6 \$1 \, addcomma;
#X obj 74 387 loadbang;
#X obj 74 412 t b b;
#X obj 22 5 route 0 1 2 3 4 5 6;
#X obj 42 391 bng 15 250 50 0 empty empty empty 17 7 0 10 -262144 -1
-1;
#X connect 1 0 2 0;
#X connect 2 0 5 0;
#X connect 3 0 4 0;
#X connect 5 0 3 0;
#X connect 6 0 1 1;
#X connect 6 0 8 0;
#X connect 7 0 23 0;
#X connect 7 0 36 0;
#X connect 8 0 10 0;
#X connect 9 0 1 0;
#X connect 10 0 42 0;
#X connect 11 0 24 0;
#X connect 11 0 37 0;
#X connect 12 0 25 0;
#X connect 12 0 38 0;
#X connect 13 0 26 0;
#X connect 13 0 39 0;
#X connect 14 0 27 0;
#X connect 14 0 40 0;
#X connect 16 0 28 0;
#X connect 16 0 41 0;
#X connect 17 0 35 0;
#X connect 17 1 35 1;
#X connect 18 0 5 0;
#X connect 19 0 5 0;
#X connect 20 0 5 0;
#X connect 21 0 5 0;
#X connect 29 0 30 0;
#X connect 30 0 31 0;
#X connect 31 0 36 1;
#X connect 31 0 37 1;
#X connect 31 0 38 1;
#X connect 31 0 39 1;
#X connect 31 0 40 1;
#X connect 31 0 41 1;
#X connect 31 0 42 1;
#X connect 31 1 32 0;
#X connect 32 0 33 0;
#X connect 32 1 34 0;
#X connect 33 0 29 0;
#X connect 34 0 29 0;
#X connect 35 0 18 0;
#X connect 36 0 19 0;
#X connect 36 1 7 0;
#X connect 36 1 43 0;
#X connect 37 0 20 0;
#X connect 37 1 11 0;
#X connect 37 1 44 0;
#X connect 38 0 21 0;
#X connect 38 1 12 0;
#X connect 38 1 45 0;
#X connect 39 0 35 0;
#X connect 39 1 13 0;
#X connect 39 1 46 0;
#X connect 40 0 17 0;
#X connect 40 1 14 0;
#X connect 40 1 47 0;
#X connect 41 1 16 0;
#X connect 41 1 48 0;
#X connect 42 0 6 0;
#X connect 42 1 10 0;
#X connect 42 1 49 0;
#X connect 43 0 55 0;
#X connect 44 0 56 0;
#X connect 45 0 57 0;
#X connect 46 0 58 0;
#X connect 47 0 59 0;
#X connect 48 0 60 0;
#X connect 49 0 61 0;
#X connect 50 0 64 0;
#X connect 51 0 43 0;
#X connect 51 0 44 0;
#X connect 51 0 45 0;
#X connect 51 0 46 0;
#X connect 51 0 47 0;
#X connect 51 0 48 0;
#X connect 51 0 49 0;
#X connect 52 0 51 0;
#X connect 52 1 53 0;
#X connect 53 0 50 0;
#X connect 54 0 52 0;
#X connect 55 0 50 0;
#X connect 56 0 50 0;
#X connect 57 0 50 0;
#X connect 58 0 50 0;
#X connect 59 0 50 0;
#X connect 60 0 50 0;
#X connect 61 0 50 0;
#X connect 62 0 63 0;
#X connect 63 0 50 0;
#X connect 63 1 52 0;
#X connect 64 0 7 0;
#X connect 64 1 11 0;
#X connect 64 2 12 0;
#X connect 64 3 13 0;
#X connect 64 4 14 0;
#X connect 64 5 16 0;
#X connect 64 6 10 0;
#X connect 65 0 63 0;
#X coords 0 -1 1 1 150 206 2 45 30;
#X restore 332 85 pd _barkedParams;
#X obj 120 85 fd_dataGui dataWalk;
#X obj 14 85 fd_dataMorphGui;
#X obj 120 19 fd_dataVis;
#X obj 14 297 fd_dataStoreGui;
#N canvas 0 22 668 374 midi-controls 0;
#X obj 100 100 cnv 15 100 60 empty empty midi 5 8 0 10 -1 -262144 0
;
#X obj 133 174 bng 15 250 50 0 empty empty vis 17 7 0 10 -262144 -1
-1;
#X msg 105 197 fd_clicktrack.pd;
#X obj 105 222 fd_visera 1;
#X msg 421 151 \; fd_clicktrack-0 onoff 0;
#X msg 445 70 \; fd_midi goto 0 \; fd_clicktrack-0 reset;
#X obj 103 143 nbx 3 14 0 200 0 0 empty empty bmp 30 8 0 10 -1 -262144
-262144 144 256;
#X obj 287 131 t f f;
#X msg 322 60 set \$1;
#X msg 248 70 144;
#X obj 253 32 loadbang;
#X obj 277 175 f;
#X msg 283 208 \; fd_clicktrack-0 \$1;
#X obj 103 115 tgl 25 0 empty start-midi 1|0 4 12 0 10 -1 -4034 -262144
0 1;
#X obj 173 162 sel 0 1;
#X obj 130 115 nbx 3 25 0 999 0 0 empty empty empty 0 -8 0 20 -1 -262144
-1 0 256;
#X obj 188 102 bng 10 250 50 0 empty empty empty 17 7 0 10 -262144
-1 -1;
#X obj 71 16 r midievent;
#X obj 71 38 list split 1;
#X msg 187 59 set 0;
#X obj 228 279 f;
#X msg 207 313 \; fd_midi goto \$1 \; fd_clicktrack-0 goto \$1 \;;
#X obj 169 150 nbx 3 8 0 999 0 0 empty empty empty 0 -8 0 8 -1 -262144
-1 0 256;
#X obj 71 63 +;
#X msg 249 109 0;
#X obj 154 143 bng 12 250 50 0 empty empty goto 14 2 0 10 -262144 -1
-262144;
#X obj 173 102 tgl 10 0 empty empty empty 17 7 0 10 -262144 -1 -1 0
1;
#X msg 411 262 \; fd_clicktrack-0 click \$1 \;;
#X connect 1 0 2 0;
#X connect 2 0 3 0;
#X connect 6 0 7 0;
#X connect 7 0 11 1;
#X connect 7 1 8 0;
#X connect 8 0 9 0;
#X connect 9 0 6 0;
#X connect 10 0 9 0;
#X connect 10 0 24 0;
#X connect 11 0 12 0;
#X connect 13 0 14 0;
#X connect 14 0 4 0;
#X connect 14 1 11 0;
#X connect 15 0 20 1;
#X connect 16 0 5 0;
#X connect 16 0 19 0;
#X connect 16 0 24 0;
#X connect 17 0 18 0;
#X connect 18 0 23 0;
#X connect 19 0 15 0;
#X connect 20 0 21 0;
#X connect 22 0 23 1;
#X connect 23 0 15 0;
#X connect 24 0 22 0;
#X connect 25 0 20 0;
#X connect 26 0 27 0;
#X coords 0 -1 1 1 100 60 2 100 100;
#X restore 226 19 pd midi-controls;
#X obj 336 20 bng 15 250 50 0 start-all empty start-all 17 7 0 10 -262144
-1 -1;
#X obj 336 40 bng 15 250 50 0 stop-all empty stop-all 17 7 0 10 -262144
-1 -1;
#X obj 14 327 _specdelayGui;
#X obj 379 345 fd_visera 1;
#X msg 379 321 specdelays;
#X obj 226 191 fd_dataGui dataHann;
#X obj 226 85 fd_dataGui dataRand;
#X obj 120 191 fd_dataGui dataLine;
#X obj 14 191 fd_dataGui dataExp;
#X obj 140 327 _complexmodGui;
#N canvas 0 22 450 300 globalspat 0;
#X restore 266 327 pd globalspat;
#X connect 11 0 10 0;
#X restore 11 177 pd controls __________;
#N canvas 549 148 520 388 rec 0;
#X msg 24 122 1 \, 2;
#X msg 315 67 1 \, 2;
#X msg 83 103 \; fd_stopwatch start;
#X msg 24 59 bang;
#X msg 315 92 \; fd_write-\$1 stop bang \; fd_stopwatch still \;;
#X obj 83 79 del 4000;
#X obj 289 14 r rec;
#X obj 289 39 sel 1 0;
#X msg 24 176 \; write-switch 1 \; fd_write-\$1 full-path /Users/federicocamarahalac/Documents/fd_work/a.le.a/audio
\; fd_write-\$1 filename elec-\$1 \;;
#X connect 0 0 8 0;
#X connect 1 0 4 0;
#X connect 3 0 0 0;
#X connect 3 0 5 0;
#X connect 5 0 2 0;
#X connect 6 0 7 0;
#X connect 7 0 3 0;
#X connect 7 1 1 0;
#X restore 12 249 pd rec _______________;
#N canvas 431 477 253 48 outputs 0;
#X obj 11 10 clone -s 1 _output 2 dacout;
#X restore 12 201 pd outputs ___________;
#N canvas 19 52 602 565 log 0;
#X obj 435 485 fd_printer 1;
#X text 27 79 single messages;
#X text 42 250 cloned messages;
#X msg 476 250 1 \, 2 \, 3 \, 4;
#N canvas 0 22 1099 518 receivers 0;
#X obj 10 10 fd_receive 1-env-switch fd_printer-1;
#X obj 10 35 fd_receive 1-sigmund-switch fd_printer-1;
#X obj 10 60 fd_receive 1-bark-switch fd_printer-1;
#X obj 10 85 fd_receive _bSwitch-1 fd_printer-1;
#X obj 10 110 fd_receive _bParams-1 fd_printer-1;
#X obj 10 135 fd_receive 2-env-switch fd_printer-1;
#X obj 10 160 fd_receive 2-sigmund-switch fd_printer-1;
#X obj 10 185 fd_receive 2-bark-switch fd_printer-1;
#X obj 10 210 fd_receive _bSwitch-2 fd_printer-1;
#X obj 10 235 fd_receive _bParams-2 fd_printer-1;
#X obj 10 260 fd_receive 3-env-switch fd_printer-1;
#X obj 10 285 fd_receive 3-sigmund-switch fd_printer-1;
#X obj 10 310 fd_receive 3-bark-switch fd_printer-1;
#X obj 10 335 fd_receive _bSwitch-3 fd_printer-1;
#X obj 10 360 fd_receive _bParams-3 fd_printer-1;
#X obj 10 385 fd_receive 4-env-switch fd_printer-1;
#X obj 10 410 fd_receive 4-sigmund-switch fd_printer-1;
#X obj 10 435 fd_receive 4-bark-switch fd_printer-1;
#X obj 10 460 fd_receive _bSwitch-4 fd_printer-1;
#X obj 10 485 fd_receive _bParams-4 fd_printer-1;
#X obj 410 10 fd_receive enable-adc-dac fd_printer-1;
#X obj 410 35 fd_receive analysis fd_printer-1;
#X obj 410 60 fd_receive monitor fd_printer-1;
#X obj 410 85 fd_receive _barkedParams fd_printer-1;
#X obj 410 110 fd_receive _barkedSwitch fd_printer-1;
#X obj 410 135 fd_receive length fd_printer-1;
#X obj 410 160 fd_receive stored-presets fd_printer-1;
#X obj 410 185 fd_receive dataExp fd_printer-1;
#X obj 410 210 fd_receive dataWalk fd_printer-1;
#X obj 410 235 fd_receive dataHann fd_printer-1;
#X obj 410 260 fd_receive dataLine fd_printer-1;
#X obj 410 285 fd_receive dataRand fd_printer-1;
#X obj 410 310 fd_receive dataMorph fd_printer-1;
#X obj 410 335 fd_receive fd_clicktrack-0 fd_printer-1;
#X obj 410 360 fd_receive rec fd_printer-1;
#X obj 410 385 fd_receive midistart fd_printer-1;
#X obj 410 410 fd_receive midistop fd_printer-1;
#X obj 410 435 fd_receive randomizer fd_printer-1;
#X restore 34 428 pd receivers;
#X obj 510 80 t b b b;
#X obj 29 386 fd_objcreator receivers fd_receive fd_printer-1;
#X obj 563 371 bng 15 250 50 0 empty empty empty 17 7 0 10 -262144
-1 -1;
#X text 140 466 NOTE: don't include messages beginning with 'printing'
\, see fd_printer, f 32;
#X text 144 429 <-- object are created here;
#X msg 510 56 bang;
#X text 24 19 1) EDIT THESE MESSAGES WITH NEW INTERACTION MESSAGES
TO STORE, f 31;
#X text 403 55 2) hit -->;
#X obj 510 15 loadbang, f 4;
#X msg 43 270 \$1-env-switch \, \$1-sigmund-switch \, \$1-bark-switch
\, _bSwitch-\$1 \, _bParams-\$1 \,;
#X msg 29 100 enable-adc-dac \, analysis \, monitor \, _barkedParams
\, _barkedSwitch \, length \, stored-presets \, dataExp \, dataWalk
\, dataHann \, dataLine \, dataRand \, dataMorph \, fd_clicktrack-0
\, rec \, midistart \, midistop \, randomizer;
#X connect 3 0 14 0;
#X connect 5 0 15 0;
#X connect 5 1 3 0;
#X connect 5 2 7 0;
#X connect 7 0 6 1;
#X connect 10 0 5 0;
#X connect 13 0 10 0;
#X connect 14 0 6 0;
#X connect 15 0 6 0;
#X restore 12 273 pd log _______________;
#N canvas 16 558 513 216 monitor 1;
#X obj 316 10 tgl 30 0 monitor monitor-set monitor 34 15 0 14 -262144
-1 -1 1 1;
#X obj 11 10 tgl 30 0 enable-adc-dac enable-adc-dac-set enable-adc-dac
35 15 0 14 -262144 -1 -1 1 1;
#X obj 172 10 tgl 30 0 analysis analysis-set analysis 34 15 0 14 -262144
-1 -1 1 1;
#X obj 10 49 _monitor 1;
#X obj 112 49 _monitor 2;
#X obj 214 49 _monitor 3;
#X obj 316 49 _monitor 4;
#X obj 419 69 _monitor-out 1;
#X obj 457 69 _monitor-out 2;
#X obj 420 6 cnv 15 73 60 empty empty %_cpu_% 10 12 0 14 -1 -262144
0;
#X obj 427 39 fd_cputime;
#X obj 10 192 bng 15 250 50 0 fake-inputs empty fake-inputs 17 7 0
10 -262144 -1 -1;
#X obj 100 192 bng 15 50 10 0 panic empty panic 17 7 0 10 -258113 -1
-1;
#X obj 393 194 fd_stopwatch;
#X obj 407 6 bng 10 250 50 0 reset-all reset-all-set reset-all -45
5 0 8 -261234 -1 -260097;
#X restore 12 225 pd monitor ___________;
#N canvas 121 67 1002 476 fake-inputs 0;
#X obj 355 400 s~ adc-1;
#X obj 439 399 s~ adc-2;
#X obj 516 401 s~ adc-3;
#X obj 601 400 s~ adc-4;
#X text 77 38 fake inputs for testing \, edit _input afterwards, f
18;
#X msg 297 174 1;
#X msg 259 174 0;
#X floatatom 220 276 5 0 0 0 - - -, f 5;
#X obj 175 362 throw~ 1-dacout, f 8;
#X obj 259 361 throw~ 2-dacout, f 8;
#X obj 297 78 t b b;
#X msg 556 33 open ../extra/contraccolpi.wav, f 25;
#X obj 679 194 fd_switch;
#X obj 748 237 switch~;
#X msg 220 248 0;
#X msg 171 248 0.1;
#X text 148 226 monitor volume;
#X obj 297 35 r fake-inputs;
#X msg 334 106 1 open ../extra/flute-violin.wav \, 2 open ../extra/clarinet.wav
\, 3 open ../extra/cello.wav \, 4 open ../extra/piano-perc.wav;
#X obj 334 163 route 1 2 3 4;
#X obj 498 306 *~;
#X obj 578 281 readsf~ 1;
#X obj 578 306 *~;
#X obj 658 281 readsf~ 1;
#X obj 658 306 *~;
#X obj 738 306 *~;
#X msg 261 202 1 \$1 \, 2 \$1 \, 3 \$1 \, 4 \$1;
#X msg 309 261 1;
#X msg 349 261 1;
#X msg 389 261 1;
#X msg 429 261 1;
#X obj 498 281 readsf~ 2;
#X obj 738 281 readsf~ 2;
#X obj 175 326 *~ 0.04;
#X obj 259 326 *~ 0.04;
#X connect 5 0 12 0;
#X connect 5 0 26 0;
#X connect 6 0 12 0;
#X connect 6 0 26 0;
#X connect 7 0 33 1;
#X connect 7 0 34 1;
#X connect 10 0 5 0;
#X connect 10 1 18 0;
#X connect 12 0 20 1;
#X connect 12 0 22 1;
#X connect 12 0 24 1;
#X connect 12 0 25 1;
#X connect 12 1 13 0;
#X connect 14 0 7 0;
#X connect 15 0 7 0;
#X connect 17 0 10 0;
#X connect 18 0 19 0;
#X connect 19 0 31 0;
#X connect 19 1 21 0;
#X connect 19 2 23 0;
#X connect 19 3 32 0;
#X connect 20 0 0 0;
#X connect 20 0 33 0;
#X connect 21 0 22 0;
#X connect 22 0 1 0;
#X connect 22 0 33 0;
#X connect 23 0 24 0;
#X connect 24 0 2 0;
#X connect 24 0 34 0;
#X connect 25 0 3 0;
#X connect 25 0 34 0;
#X connect 26 0 19 0;
#X connect 27 0 31 0;
#X connect 28 0 21 0;
#X connect 29 0 23 0;
#X connect 30 0 32 0;
#X connect 31 0 20 0;
#X connect 31 1 20 0;
#X connect 32 0 25 0;
#X connect 32 1 25 0;
#X connect 33 0 8 0;
#X connect 34 0 9 0;
#X restore 12 297 pd fake-inputs _______;
#N canvas 323 32 484 606 panic 0;
#X obj 143 317 s pd-inputs;
#X msg 105 215 clear;
#X msg 86 281 obj 10 10 clone -s 1 _input 4 10 5 \$1;
#X obj 92 247 pack \$0;
#X msg 78 454 1;
#X msg 432 280 0;
#X msg 230 452 \; enable-adc-dac-set \$1 \; analysis-set \$1 \;;
#X obj 37 220 t b b;
#X obj 33 313 del 10;
#X obj 33 338 t b b;
#X obj 39 405 t b b;
#X msg 117 372 menusave;
#X obj 117 397 s pd-main-audio.pd;
#X obj 45 138 del 110;
#X text 145 51 this will recreate all grains;
#X msg 51 519 \; finetune-barks bang \; tot-grains bang \; redo-gauprob
bang \; pd-inputs vis 0 \;;
#X obj 37 8 r panic;
#X obj 45 174 t b b;
#X obj 39 73 t b b b;
#X obj 126 77 s hitpanic;
#X obj 37 33 fd_spigot;
#X obj 331 105 del 10;
#X connect 1 0 0 0;
#X connect 2 0 0 0;
#X connect 3 0 2 0;
#X connect 4 0 6 0;
#X connect 5 0 6 0;
#X connect 7 0 8 0;
#X connect 7 1 3 0;
#X connect 8 0 9 0;
#X connect 9 0 10 0;
#X connect 9 1 11 0;
#X connect 10 0 15 0;
#X connect 10 0 19 0;
#X connect 10 0 21 0;
#X connect 10 1 4 0;
#X connect 11 0 12 0;
#X connect 13 0 17 0;
#X connect 16 0 20 0;
#X connect 17 0 7 0;
#X connect 17 1 1 0;
#X connect 18 0 13 0;
#X connect 18 1 5 0;
#X connect 18 2 19 0;
#X connect 20 0 18 0;
#X connect 21 0 20 1;
#X restore 12 321 pd panic _____________;
#N canvas 0 22 450 300 randomizing 0;
#N canvas 376 40 766 620 transition 0;
#X obj 68 385 + 1;
#X obj 68 77 fd_mtxdelit 4 10 5 100, f 11;
#X obj 425 34 spigot 1;
#X obj 68 125 t a a;
#X obj 68 435 list;
#X obj 68 343 list split 1, f 7;
#X obj 68 410 list;
#X obj 81 254 f;
#X obj 120 253 + 1;
#X obj 81 150 unpack;
#X obj 81 175 t b f;
#X obj 131 225 +;
#X obj 81 225 t b f;
#X obj 81 279 mod 4;
#X obj 81 304 + 1;
#X obj 174 99 f;
#X obj 208 99 + 1;
#X obj 174 124 mod 4;
#X obj 174 176 + 1;
#X obj 157 343 t b f;
#X msg 68 474 \; _bParams-\$1 \$2 \$3 amp gain \$4 \; _bParams-\$1
\$2 \$3 f range \$5 \; _bParams-\$1 \$2 \$3 f min \$6 \; _bParams-\$1
\$2 \$3 offset \$7 \$8 \; _bParams-\$1 \$2 \$3 freq set \$9 \;;
#X obj 157 435 list;
#X obj 248 343 t b f;
#X obj 248 435 list;
#X text 229 337 f - range, f 1;
#X text 138 335 amp - gain, f 1;
#X obj 248 410 mtof;
#X obj 358 343 t b f;
#X obj 358 435 list;
#X text 339 338 f - min, f 1;
#X obj 358 410 dbtorms;
#X obj 157 410 dbtorms;
#X obj 157 369 _getprob 1 20 80, f 8;
#X text 437 337 t -offset, f 1;
#X obj 457 343 t b b f f;
#X obj 533 511 r 0-pulse, f 7;
#X obj 562 465 change;
#X obj 531 414 t b f;
#X obj 456 441 f;
#X obj 457 414 t b f;
#X obj 531 466 /;
#X obj 456 466 *;
#X obj 508 420 t f f, f 1;
#X obj 456 510 list prepend, f 8;
#X obj 635 343 t b f;
#X obj 635 371 _getprob 1 16, f 8;
#X obj 81 200 _getprob 1 4;
#X obj 531 373 _getprob 1 16 1, f 8;
#X obj 457 373 _getprob 1 10, f 8;
#X obj 456 551 list append, f 20;
#X text 617 341 freq - set, f 1;
#X obj 509 62 t f f;
#X obj 509 87 sel 1;
#X obj 425 146 bng 15 250 50 0 empty empty triggered 17 7 0 10 -262144
-1 -1;
#X obj 211 178 sel;
#X obj 174 149 t f f;
#X msg 153 54 rand \$1 \, reset;
#X obj 248 138 t b f;
#X obj 285 179 bang;
#X msg 564 42 1;
#X msg 602 42 0;
#X text 47 327 _gr - index, f 1;
#X obj 68 54 bang;
#X obj 425 166 outlet, f 16;
#X obj 531 441 f 104.1;
#X obj 509 8 r randomizer;
#X obj 335 555 spigot;
#X obj 335 580 print randomizer;
#X obj 356 520 r monitor;
#X obj 456 487 + 23;
#X obj 495 486 + 41;
#X obj 248 369 _getprob 1 128 -14, f 10;
#X obj 211 210 crand 23 135;
#X obj 532 38 tgl 15 0 empty empty empty 17 7 0 10 -262144 -1 -1 0
1;
#X obj 358 369 _getprob 1 99 80, f 9;
#X obj 357 250 t f f f f f f;
#X obj 609 184 t b f;
#X obj 610 255 / 100;
#X obj 610 280 s length;
#X obj 610 214 _getprob 1 400 1, f 8;
#X obj 616 88 tgl 15 0 empty empty empty 17 7 0 10 -262144 -1 -1 0
1;
#X obj 616 108 s steal;
#X obj 635 414 _seltab;
#X connect 0 0 6 0;
#X connect 1 0 3 0;
#X connect 1 1 15 0;
#X connect 2 0 53 0;
#X connect 2 0 62 0;
#X connect 3 0 5 0;
#X connect 3 1 9 0;
#X connect 4 0 20 0;
#X connect 4 0 66 0;
#X connect 5 0 0 0;
#X connect 5 1 6 1;
#X connect 6 0 4 0;
#X connect 7 0 8 0;
#X connect 7 0 13 0;
#X connect 8 0 7 1;
#X connect 9 0 10 0;
#X connect 10 0 46 0;
#X connect 10 1 11 1;
#X connect 11 0 8 1;
#X connect 12 0 7 0;
#X connect 12 1 11 0;
#X connect 13 0 14 0;
#X connect 14 0 75 0;
#X connect 15 0 16 0;
#X connect 15 0 17 0;
#X connect 16 0 15 1;
#X connect 17 0 55 0;
#X connect 18 0 46 1;
#X connect 19 0 32 0;
#X connect 19 1 32 1;
#X connect 21 0 4 1;
#X connect 22 0 71 0;
#X connect 22 1 71 1;
#X connect 23 0 21 1;
#X connect 26 0 23 0;
#X connect 27 0 74 0;
#X connect 27 1 74 1;
#X connect 28 0 23 1;
#X connect 30 0 28 0;
#X connect 31 0 21 0;
#X connect 32 0 31 0;
#X connect 34 0 48 0;
#X connect 34 1 47 0;
#X connect 34 2 48 1;
#X connect 34 3 47 1;
#X connect 35 0 36 0;
#X connect 36 0 64 1;
#X connect 37 0 64 0;
#X connect 37 1 40 1;
#X connect 38 0 41 0;
#X connect 39 0 38 0;
#X connect 39 1 41 1;
#X connect 40 0 42 0;
#X connect 41 0 69 0;
#X connect 42 0 38 1;
#X connect 42 1 70 0;
#X connect 43 0 49 0;
#X connect 44 0 45 0;
#X connect 44 1 45 1;
#X connect 45 0 82 0;
#X connect 46 0 12 0;
#X connect 47 0 37 0;
#X connect 48 0 39 0;
#X connect 49 0 28 1;
#X connect 51 0 52 0;
#X connect 51 1 2 1;
#X connect 52 0 2 0;
#X connect 53 0 63 0;
#X connect 54 0 72 0;
#X connect 54 1 58 0;
#X connect 55 0 18 0;
#X connect 55 1 54 0;
#X connect 56 0 1 1;
#X connect 57 0 58 0;
#X connect 57 1 56 0;
#X connect 58 0 2 0;
#X connect 59 0 51 0;
#X connect 60 0 51 0;
#X connect 62 0 1 0;
#X connect 64 0 40 0;
#X connect 65 0 51 0;
#X connect 65 0 73 0;
#X connect 66 0 67 0;
#X connect 68 0 66 1;
#X connect 69 0 43 0;
#X connect 70 0 43 1;
#X connect 71 0 26 0;
#X connect 72 0 57 0;
#X connect 74 0 30 0;
#X connect 75 0 19 0;
#X connect 75 1 22 0;
#X connect 75 2 27 0;
#X connect 75 3 34 0;
#X connect 75 4 44 0;
#X connect 75 5 76 0;
#X connect 76 0 79 0;
#X connect 76 1 79 1;
#X connect 77 0 78 0;
#X connect 79 0 77 0;
#X connect 80 0 81 0;
#X connect 82 0 49 1;
#X restore 31 49 pd transition randomizer;
#N canvas 336 24 865 662 morphing 0;
#X msg 211 380 Hann;
#X obj 211 516 makefilename data%s, f 12;
#X obj 211 492 symbol;
#X msg 211 400 Exp;
#X msg 211 420 Rand;
#X msg 211 440 Line;
#X msg 211 460 Walk;
#X obj 318 425 list append 2000, f 11;
#X obj 416 141 del;
#X obj 318 467 t a a b;
#X obj 149 344 sel 0 1 2 3 4, f 7;
#X obj 318 385 list append 1, f 8;
#X obj 332 352 sel 0;
#X msg 344 495 \; \$1 7 \; dataMorph \$2 7 \$3 \;;
#X obj 318 571 list split 2;
#X obj 310 225 t b b f, f 12;
#X obj 310 180 _getprob 1 1000 231, f 10;
#X obj 332 258 _getprob 2 700, f 8;
#X obj 332 324 int;
#X msg 379 352 symbol all;
#X obj 453 221 bng 15 250 50 0 empty empty triggered 17 7 0 10 -262144
-1 -1;
#X obj 310 133 bang;
#X obj 416 166 t b b;
#X obj 310 107 spigot;
#X obj 411 107 t f f;
#X obj 365 107 sel 1;
#X obj 149 250 _getprob 3 5000;
#X obj 149 300 int;
#X obj 149 275 / 1000;
#X obj 332 299 / 100;
#X obj 411 42 r random-morphing;
#X obj 453 241 outlet;
#X obj 427 69 tgl 15 0 empty empty empty 17 7 0 10 -262144 -1 -1 0
1;
#X floatatom 562 362 5 0 0 0 - - -, f 5;
#X msg 538 385 \; dataMorph all delit 30 \$1;
#X msg 541 340 100;
#X text 511 427 fine-tune mtxdelit inside dataMorph;
#X connect 0 0 2 0;
#X connect 1 0 11 0;
#X connect 2 0 1 0;
#X connect 3 0 2 0;
#X connect 4 0 2 0;
#X connect 5 0 2 0;
#X connect 6 0 2 0;
#X connect 7 0 9 0;
#X connect 8 0 22 0;
#X connect 9 0 14 0;
#X connect 9 1 13 0;
#X connect 10 0 0 0;
#X connect 10 1 3 0;
#X connect 10 2 4 0;
#X connect 10 3 5 0;
#X connect 10 4 6 0;
#X connect 11 0 7 0;
#X connect 12 0 19 0;
#X connect 12 1 11 1;
#X connect 14 1 8 0;
#X connect 15 0 26 0;
#X connect 15 1 17 0;
#X connect 15 2 7 1;
#X connect 16 0 15 0;
#X connect 17 0 29 0;
#X connect 18 0 12 0;
#X connect 19 0 11 1;
#X connect 20 0 31 0;
#X connect 21 0 16 0;
#X connect 22 0 23 0;
#X connect 22 1 20 0;
#X connect 23 0 21 0;
#X connect 24 0 25 0;
#X connect 24 1 23 1;
#X connect 25 0 23 0;
#X connect 26 0 28 0;
#X connect 27 0 10 0;
#X connect 28 0 27 0;
#X connect 29 0 18 0;
#X connect 30 0 24 0;
#X connect 30 0 32 0;
#X connect 33 0 34 0;
#X connect 35 0 34 0;
#X restore 30 24 pd morphing randomizer;
#X restore 12 345 pd randomizing _______;
#N canvas 285 147 450 300 vising 0;
#X msg 103 140 randomizer;
#X msg 113 166 transitios;
#X msg 88 116 dataModifiers;
#X obj 107 208 fd_visera 1;
#X msg 124 55 dataRead;
#X connect 0 0 3 0;
#X connect 1 0 3 0;
#X connect 2 0 3 0;
#X connect 4 0 3 0;
#X restore 12 370 pd vising ____________;
#N canvas 28 24 1099 750 presets 0;
#X msg 650 279 \; length 1 \; _barkedParams all all amp 0.5 \; dataExp
type 1 0 \, 1 \; dataExp type 2 1 \, 2 \; dataWalk 3 range 54 43 \,
3 \; dataHann type 4 0 \, 4 \; dataLine type 5 1 \, 5 \; dataExp type
6 1 \, 6 \;;
#X obj 703 628 tgl 15 0 empty empty switch 17 7 0 10 -262144 -1 -1
0 1;
#X obj 655 692 s _barkedSwitch;
#X msg 655 669 all all \$1;
#X msg 765 627 0;
#X msg 645 607 1;
#X msg 31 254 \; _barkedParams all all freq set stoch \; _barkedParams
all all amp 0.8 \; _barkedParams all all offset 7 \; _barkedParams
all all f range 1.5 \; _barkedParams all all f min 2 \; _barkedParams
all all f q 4 \; \; \; length 2 \; \; \; stored-presets 0 \; \;;
#N canvas 0 22 450 300 analysis 0;
#X msg 31 86 1 \, 2 \, 3 \, 4;
#X obj 31 118 pack;
#X obj 31 30 r analysis;
#X obj 31 59 t b f;
#X msg 31 144 \; \$1-env-switch-set \$2 \; \$1-sigmund-switch-set \$2
\; \$1-bark-switch-set \$2 \;;
#X connect 0 0 1 0;
#X connect 1 0 4 0;
#X connect 2 0 3 0;
#X connect 3 0 0 0;
#X connect 3 1 1 1;
#X restore 779 10 pd analysis;
#X text 309 12 this patch should always be in 'edit' mode;
#X text 265 89 <-- this will start recording and printing..., f 16
;
#X msg 30 490 \; _barkedParams all all freq set lor \; _barkedParams
all all amp 0.4 \; _barkedParams all all offset 1 \; _barkedParams
all all f range 10 \; _barkedParams all all f min 2 \; _barkedParams
all all f q 3 \; \; \; length 1 \; \; \; stored-presets 4 \; \;;
#X msg 829 640 \; enable-adc-dac-set 0 \; analysis-set 0 \; _barkedSwitch
all all 0 \;;
#X text 896 609 off all;
#X msg 341 257 \; _barkedParams all all freq set cos \; _barkedParams
all all amp 0.5 \; _barkedParams all all offset 32 \; _barkedParams
all all f range 64 \; _barkedParams all all f min 2 \; _barkedParams
all all f q 13 \; \; length 1 \; \; \; stored-presets 6 \; \;;
#X floatatom 852 67 5 0 0 0 - - -, f 5;
#X msg 757 109 \; _barkedParams all all freq set 0-gau \; _barkedParams
all all amp set lor \; _barkedParams all all f min 1 \; _barkedParams
all all f range 1 \; _barkedParams all all offset 123 1 \; length 1.3
\; \;;
#X obj 37 14 r start-all;
#X msg 165 67 \; rec 1 \;;
#X obj 37 99 del 5000;
#X msg 37 125 \; fake-inputs bang \; fd_printer-1 printing 1 \; enable-adc-dac-set
1 \; analysis-set 1 \; start-midi 1 \;;
#X obj 37 74 t b b;
#X obj 148 22 r reset-all;
#X obj 403 41 t b b;
#X obj 403 66 del 100000;
#X msg 403 139 \; enable-adc-dac-set 0 \; fd_printer-1 printing 0 \;
;
#X msg 502 60 \; rec 0 \; start-midi 0 \; analysis-set 0 \;;
#X obj 505 24 r stop-all;
#X obj 37 48 fd_spigot;
#X connect 1 0 3 0;
#X connect 3 0 2 0;
#X connect 4 0 3 0;
#X connect 5 0 3 0;
#X connect 14 0 15 0;
#X connect 16 0 27 0;
#X connect 18 0 19 0;
#X connect 20 0 18 0;
#X connect 20 1 17 0;
#X connect 21 0 27 1;
#X connect 22 0 23 0;
#X connect 22 1 25 0;
#X connect 23 0 24 0;
#X connect 26 0 22 0;
#X connect 27 0 20 0;
#X restore 12 394 pd presets ___________;
#N canvas 1070 403 189 161 finetune 0;
#X text 28 14 FINE TUNE BARKS;
#N canvas 308 26 716 532 cello 0;
#X floatatom 58 133 5 0 0 0 - - -, f 5;
#X obj 34 60 r finetune-barks;
#X obj 540 376 tgl 15 0 empty empty empty 17 7 0 10 -262144 -1 -1 0
1;
#X msg 540 396 measure \$1;
#X msg 310 385 print;
#X obj 464 26 tgl 15 0 empty empty empty 17 7 0 10 -262144 -1 -1 0
1;
#X obj 278 266 minimax;
#X floatatom 278 337 5 0 0 0 - - -, f 5;
#X floatatom 304 315 5 0 0 0 - - -, f 5;
#X floatatom 331 295 5 0 0 0 - - -, f 5;
#X msg 518 246 flush;
#X msg 394 384 filter_freqs;
#X msg 41 365 60000 \$1;
#X obj 41 390 /;
#X floatatom 40 415 5 0 0 0 - - -, f 5;
#X msg 41 314 144;
#X obj 41 339 * 6;
#X floatatom 153 281 5 0 0 0 - - -, f 5;
#X obj 153 303 mtof;
#X floatatom 153 328 5 0 0 0 - - -, f 5;
#X obj 427 266 minimax;
#X floatatom 427 338 5 0 0 0 - - -, f 5;
#X floatatom 453 316 5 0 0 0 - - -, f 5;
#X floatatom 480 295 5 0 0 0 - - -, f 5;
#X obj 464 145 switch~;
#X text 488 23 <-- turn this on first!;
#X text 277 355 frequency (Hz);
#X msg 395 91 512;
#X msg 394 123 2048;
#X msg 396 155 4096;
#X msg 296 121 hop \$1;
#X obj 278 149 sigmund~ -npeak 4 -hop 4096 peaks, f 13;
#X obj 278 209 route 0;
#X obj 278 239 unpack;
#X text 423 355 amplitude;
#X obj 427 238 rmstodb;
#X obj 532 145 s 3-bark-switch-set, f 17;
#X obj 278 89 r~ adc-3;
#X obj 310 435 s 3-bark;
#X obj 588 69 sel 0;
#X msg 588 94 vis 0;
#X obj 588 119 s pd-cello;
#X obj 464 99 t f f f;
#X text 156 19 CELLO = BARK 3;
#X obj 145 414 /;
#X floatatom 144 489 5 0 0 0 min-debounce - -, f 5;
#X msg 145 389 128 44.1;
#X obj 145 439 * 10;
#X floatatom 182 364 5 0 0 0 masks - -, f 5;
#X msg 219 418 2048;
#X floatatom 219 468 5 0 0 0 - - -, f 5;
#X text 48 501 when an onset is reported \, one of the '(1-4)-barked'
bangs will report it, f 76;
#X obj 219 443 / 44.1;
#X obj 145 464 + 46.43;
#X msg 34 167 \; 3-bark debounce 69 \; 3-bark mask 8 0.65 \; 3-bark
filter_range 0 25 \; 3-bark thresh -1 8 \; 3-bark minvel 1 \;;
#X connect 0 0 54 0;
#X connect 1 0 54 0;
#X connect 2 0 3 0;
#X connect 3 0 38 0;
#X connect 4 0 38 0;
#X connect 5 0 42 0;
#X connect 6 0 7 0;
#X connect 6 1 8 0;
#X connect 6 2 9 0;
#X connect 10 0 6 0;
#X connect 10 0 20 0;
#X connect 11 0 38 0;
#X connect 12 0 13 0;
#X connect 13 0 14 0;
#X connect 15 0 16 0;
#X connect 16 0 12 0;
#X connect 17 0 18 0;
#X connect 18 0 19 0;
#X connect 20 0 21 0;
#X connect 20 1 22 0;
#X connect 20 2 23 0;
#X connect 27 0 30 0;
#X connect 28 0 30 0;
#X connect 29 0 30 0;
#X connect 30 0 31 0;
#X connect 31 0 32 0;
#X connect 32 0 33 0;
#X connect 33 0 6 0;
#X connect 33 1 35 0;
#X connect 35 0 20 0;
#X connect 37 0 31 0;
#X connect 39 0 40 0;
#X connect 40 0 41 0;
#X connect 42 0 24 0;
#X connect 42 1 36 0;
#X connect 42 2 39 0;
#X connect 44 0 47 0;
#X connect 46 0 44 0;
#X connect 47 0 53 0;
#X connect 48 0 47 1;
#X connect 48 0 46 0;
#X connect 49 0 52 0;
#X connect 52 0 50 0;
#X connect 53 0 45 0;
#X restore 15 93 pd cello __________;
#N canvas 296 25 729 557 piano+perc 0;
#X floatatom 81 169 5 0 0 0 - - -, f 5;
#X obj 53 93 r finetune-barks;
#X text 90 138 piano + percussion;
#X msg 322 381 print;
#X obj 476 22 tgl 15 0 empty empty empty 17 7 0 10 -262144 -1 -1 0
1;
#X obj 290 262 minimax;
#X floatatom 290 333 5 0 0 0 - - -, f 5;
#X floatatom 316 311 5 0 0 0 - - -, f 5;
#X floatatom 343 291 5 0 0 0 - - -, f 5;
#X msg 530 242 flush;
#X msg 406 380 filter_freqs;
#X msg 53 361 60000 \$1;
#X obj 53 386 /;
#X floatatom 52 411 5 0 0 0 - - -, f 5;
#X msg 53 310 144;
#X obj 53 335 * 6;
#X floatatom 159 305 5 0 0 0 - - -, f 5;
#X obj 159 327 mtof;
#X floatatom 159 352 5 0 0 0 - - -, f 5;
#X obj 439 262 minimax;
#X floatatom 439 334 5 0 0 0 - - -, f 5;
#X floatatom 465 312 5 0 0 0 - - -, f 5;
#X floatatom 492 291 5 0 0 0 - - -, f 5;
#X obj 476 141 switch~;
#X text 500 19 <-- turn this on first!;
#X text 289 351 frequency (Hz);
#X text 64 483 when an onset is reported \, some of the 'n-barked'
bangs will report it, f 70;
#X msg 407 87 512;
#X msg 406 119 2048;
#X msg 408 151 4096;
#X msg 308 117 hop \$1;
#X obj 290 145 sigmund~ -npeak 4 -hop 4096 peaks, f 13;
#X obj 290 205 route 0;
#X obj 290 235 unpack;
#X text 435 351 amplitude;
#X obj 322 431 s 4-bark;
#X obj 544 141 s 4-bark-switch-set, f 17;
#X obj 290 85 r~ adc-4;
#X obj 570 63 sel 0;
#X msg 570 88 vis 0;
#X obj 570 113 s pd-piano+perc;
#X obj 476 95 t f f f;
#X obj 439 232 rmstodb;
#X obj 537 381 tgl 15 0 empty empty empty 17 7 0 10 -262144 -1 -1 0
1;
#X msg 537 401 measure \$1;
#X msg 53 202 \; 4-bark debounce 69 \; 4-bark mask 10 0.9 \; 4-bark
filter_range 0 46 \; 4-bark thresh -1 8 \; 4-bark minvel 1.63 \;;
#X connect 0 0 45 0;
#X connect 1 0 45 0;
#X connect 3 0 35 0;
#X connect 4 0 41 0;
#X connect 5 0 6 0;
#X connect 5 1 7 0;
#X connect 5 2 8 0;
#X connect 9 0 5 0;
#X connect 9 0 19 0;
#X connect 10 0 35 0;
#X connect 11 0 12 0;
#X connect 12 0 13 0;
#X connect 14 0 15 0;
#X connect 15 0 11 0;
#X connect 16 0 17 0;
#X connect 17 0 18 0;
#X connect 19 0 20 0;
#X connect 19 1 21 0;
#X connect 19 2 22 0;
#X connect 27 0 30 0;
#X connect 28 0 30 0;
#X connect 29 0 30 0;
#X connect 30 0 31 0;
#X connect 31 0 32 0;
#X connect 32 0 33 0;
#X connect 33 0 5 0;
#X connect 33 1 42 0;
#X connect 37 0 31 0;
#X connect 38 0 39 0;
#X connect 39 0 40 0;
#X connect 41 0 23 0;
#X connect 41 1 36 0;
#X connect 41 2 38 0;
#X connect 42 0 19 0;
#X connect 43 0 44 0;
#X connect 44 0 35 0;
#X restore 15 120 pd piano+perc _____;
#N canvas 333 26 692 535 clarinet 0;
#X floatatom 72 137 5 0 0 0 - - -, f 5;
#X obj 45 93 r finetune-barks;
#X msg 302 386 print;
#X obj 456 27 tgl 15 0 empty empty empty 17 7 0 10 -262144 -1 -1 0
1;
#X obj 270 267 minimax;
#X floatatom 270 338 5 0 0 0 - - -, f 5;
#X floatatom 296 316 5 0 0 0 - - -, f 5;
#X floatatom 323 296 5 0 0 0 - - -, f 5;
#X msg 510 247 flush;
#X msg 386 385 filter_freqs;
#X msg 67 373 60000 \$1;
#X obj 67 398 /;
#X floatatom 66 423 5 0 0 0 - - -, f 5;
#X msg 67 322 144;
#X obj 67 347 * 6;
#X floatatom 173 317 5 0 0 0 - - -, f 5;
#X obj 173 367 mtof;
#X floatatom 173 392 0 0 0 0 - - -;
#X obj 419 267 minimax;
#X floatatom 419 339 5 0 0 0 - - -, f 5;
#X floatatom 445 317 5 0 0 0 - - -, f 5;
#X floatatom 472 296 5 0 0 0 - - -, f 5;
#X obj 456 146 switch~;
#X text 480 24 <-- turn this on first!;
#X text 269 356 frequency (Hz);
#X text 44 488 when an onset is reported \, some of the 'n-barked'
bangs will report it, f 70;
#X msg 387 92 512;
#X msg 386 124 2048;
#X msg 388 156 4096;
#X msg 288 122 hop \$1;
#X obj 270 150 sigmund~ -npeak 4 -hop 4096 peaks, f 13;
#X obj 270 210 route 0;
#X obj 270 240 unpack;
#X text 415 356 amplitude;
#X obj 419 217 rmstodb;
#X obj 524 146 s 2-bark-switch-set, f 17;
#X obj 270 90 r~ adc-2;
#X obj 302 436 s 2-bark;
#X obj 557 69 sel 0;
#X msg 557 94 vis 0;
#X obj 456 100 t f f f;
#X obj 557 119 s pd-clarinet;
#X text 65 21 CLARINET = bark 2;
#X obj 173 339 + 19;
#X msg 45 173 \; 2-bark debounce 69 \; 2-bark mask 7 0.8 \; 2-bark
filter_range 2 37 \; 2-bark thresh 6.8 7 \; 2-bark minvel 1.5 \;;
#X connect 0 0 44 0;
#X connect 1 0 44 0;
#X connect 2 0 37 0;
#X connect 3 0 40 0;
#X connect 4 0 5 0;
#X connect 4 1 6 0;
#X connect 4 2 7 0;
#X connect 8 0 4 0;
#X connect 8 0 18 0;
#X connect 9 0 37 0;
#X connect 10 0 11 0;
#X connect 11 0 12 0;
#X connect 13 0 14 0;
#X connect 14 0 10 0;
#X connect 15 0 43 0;
#X connect 16 0 17 0;
#X connect 18 0 19 0;
#X connect 18 1 20 0;
#X connect 18 2 21 0;
#X connect 26 0 29 0;
#X connect 27 0 29 0;
#X connect 28 0 29 0;
#X connect 29 0 30 0;
#X connect 30 0 31 0;
#X connect 31 0 32 0;
#X connect 32 0 4 0;
#X connect 32 1 34 0;
#X connect 34 0 18 0;
#X connect 36 0 30 0;
#X connect 38 0 39 0;
#X connect 39 0 41 0;
#X connect 40 0 22 0;
#X connect 40 1 35 0;
#X connect 40 2 38 0;
#X connect 43 0 16 0;
#X restore 15 66 pd clarinet _______;
#N canvas 347 29 676 522 flute+violin 0;
#X floatatom 42 139 5 0 0 0 - - -, f 5;
#X msg 290 372 print;
#X obj 290 422 s 1-bark;
#X obj 17 102 r finetune-barks;
#X obj 444 13 tgl 15 0 empty empty empty 17 7 0 10 -262144 -1 -1 0
1;
#X obj 512 132 s 1-bark-switch-set, f 17;
#X obj 258 76 r~ adc-1;
#X obj 258 253 minimax;
#X floatatom 258 324 5 0 0 0 - - -, f 5;
#X floatatom 284 302 5 0 0 0 - - -, f 5;
#X floatatom 311 282 5 0 0 0 - - -, f 5;
#X msg 498 233 flush;
#X msg 374 371 filter_freqs;
#X msg 21 352 60000 \$1;
#X obj 21 377 /;
#X floatatom 20 402 5 0 0 0 - - -, f 5;
#X msg 21 301 144;
#X obj 21 326 * 6;
#X floatatom 128 282 5 0 0 0 - - -, f 5;
#X obj 127 334 mtof;
#X floatatom 127 359 0 0 0 0 - - -;
#X obj 407 253 minimax;
#X floatatom 407 325 5 0 0 0 - - -, f 5;
#X floatatom 433 303 5 0 0 0 - - -, f 5;
#X floatatom 460 282 5 0 0 0 - - -, f 5;
#X obj 444 132 switch~;
#X text 19 52 Ask flute and violin to play bars 16 throught 20, f
24;
#X text 468 10 <-- turn this on first!;
#X text 257 342 frequency (Hz);
#X text 32 474 when an onset is reported \, some of the 'n-barked'
bangs will report it, f 70;
#X msg 375 78 512;
#X msg 374 110 2048;
#X msg 376 142 4096;
#X msg 276 108 hop \$1;
#X obj 258 136 sigmund~ -npeak 4 -hop 4096 peaks, f 13;
#X obj 258 196 route 0;
#X obj 258 226 unpack;
#X text 403 342 amplitude;
#X obj 407 203 rmstodb;
#X obj 407 228 log;
#X obj 521 367 tgl 15 0 empty empty empty 17 7 0 10 -262144 -1 -1 0
1;
#X msg 521 387 measure \$1;
#X obj 516 56 sel 0;
#X msg 516 81 vis 0;
#X obj 516 106 s pd-flute+violin;
#X obj 444 86 t f f f;
#X text 82 12 FLUTE AND VIOLIN = BARK 1;
#X msg 17 172 \; 1-bark debounce 69 \; 1-bark mask 7 0.9 \; 1-bark
filter_range 5 30 \; 1-bark thresh 3.8 4 \; 1-bark minvel 1.5 \;;
#X obj 128 304 + 12;
#X connect 0 0 47 0;
#X connect 1 0 2 0;
#X connect 3 0 47 0;
#X connect 4 0 45 0;
#X connect 6 0 34 0;
#X connect 7 0 8 0;
#X connect 7 1 9 0;
#X connect 7 2 10 0;
#X connect 11 0 7 0;
#X connect 11 0 21 0;
#X connect 12 0 2 0;
#X connect 13 0 14 0;
#X connect 14 0 15 0;
#X connect 16 0 17 0;
#X connect 17 0 13 0;
#X connect 18 0 48 0;
#X connect 19 0 20 0;
#X connect 21 0 22 0;
#X connect 21 1 23 0;
#X connect 21 2 24 0;
#X connect 30 0 33 0;
#X connect 31 0 33 0;
#X connect 32 0 33 0;
#X connect 33 0 34 0;
#X connect 34 0 35 0;
#X connect 35 0 36 0;
#X connect 36 0 7 0;
#X connect 36 1 38 0;
#X connect 38 0 21 0;
#X connect 39 0 21 0;
#X connect 40 0 41 0;
#X connect 41 0 2 0;
#X connect 42 0 43 0;
#X connect 43 0 44 0;
#X connect 45 0 25 0;
#X connect 45 1 5 0;
#X connect 45 2 42 0;
#X connect 48 0 19 0;
#X restore 15 40 pd flute+violin ___;
#X restore 11 81 pd finetune __________;
#N canvas 589 164 450 300 granulator 0;
#N canvas 0 22 450 300 test1 0;
#X obj 22 10 r~ 1-adc;
#N canvas 76 36 474 365 granulation 0;
#X obj 44 13 inlet~;
#X obj 44 38 rfft~;
#X obj 48 125 *~;
#X obj 113 31 tabreceive~ lor;
#X obj 49 199 rifft~;
#X obj 46 313 tabwrite~ tst;
#X msg 128 240 bang;
#X obj 44 285 *~;
#X obj 96 268 tabreceive~ 0-han;
#X obj 217 286 outlet~;
#X obj 157 59 tabreceive~ 0-han;
#X obj 113 56 *~;
#X obj 44 63 *~;
#X obj 74 63 *~;
#X obj 44 88 sqrt~;
#X obj 136 129 sig~ 1;
#X obj 226 134 tabreceive~ 0-arc;
#X obj 99 164 *~;
#X obj 39 249 *~ 0.005;
#X obj 136 154 /~;
#X obj 54 177 *~;
#X obj 163 192 tabreceive~ lor;
#X obj 49 224 *~;
#X obj 289 21 block~ 4096 2;
#X connect 0 0 1 0;
#X connect 1 0 12 0;
#X connect 1 0 12 1;
#X connect 1 1 13 0;
#X connect 1 1 13 1;
#X connect 2 0 17 0;
#X connect 2 0 20 0;
#X connect 3 0 11 0;
#X connect 4 0 22 0;
#X connect 6 0 5 0;
#X connect 7 0 5 0;
#X connect 8 0 7 1;
#X connect 10 0 11 1;
#X connect 11 0 2 1;
#X connect 12 0 14 0;
#X connect 13 0 14 0;
#X connect 14 0 2 0;
#X connect 15 0 19 0;
#X connect 16 0 19 1;
#X connect 16 0 20 1;
#X connect 17 0 4 1;
#X connect 18 0 7 0;
#X connect 18 0 9 0;
#X connect 19 0 17 1;
#X connect 20 0 4 0;
#X connect 21 0 22 1;
#X connect 22 0 18 0;
#X restore 36 46 pd granulation;
#X obj 36 71 *~ 0.1;
#X obj 36 166 throw~ 1-dacout;
#X obj 46 136 throw~ 2-dacout;
#X obj 232 48 switch~;
#X connect 0 0 1 0;
#X connect 1 0 2 0;
#X connect 2 0 3 0;
#X connect 2 0 4 0;
#X restore 27 19 pd test1;
#X obj 224 87 array define tst 2048;
#X restore 12 417 pd granulator ________;
#N canvas 0 22 450 300 complexmod 0;
#X obj 327 92 switch~;
#X obj 19 95 r~ 4-adc;
#X obj 109 94 r~ 3-adc;
#X obj 198 124 r~ 2-adc;
#X obj 278 121 r~ 1-adc;
#X obj 27 4 r complexmod;
#X obj 253 66 tgl 15 0 empty empty empty 17 7 0 10 -262144 -1 -1 0
1;
#X obj 250 34 t f f;
#X obj 68 58 route 0 1 2 3;
#X obj 56 128 _complexmod;
#X obj 200 195 _complexmod;
#X obj 58 34 route assign switch;
#X obj 208 275 _spat dacout;
#X obj 63 208 _spat dacout;
#X connect 1 0 9 0;
#X connect 2 0 9 1;
#X connect 3 0 10 0;
#X connect 4 0 10 1;
#X connect 5 0 11 0;
#X connect 7 0 6 0;
#X connect 7 1 0 0;
#X connect 8 0 1 0;
#X connect 8 1 2 0;
#X connect 8 2 3 0;
#X connect 8 3 4 0;
#X connect 9 0 13 0;
#X connect 10 0 12 0;
#X connect 11 0 8 0;
#X connect 11 1 7 0;
#X connect 11 2 12 1;
#X connect 11 2 13 1;
#X restore 12 440 pd complexmod ________;
#N canvas 707 392 286 118 specdelays 0;
#X obj 27 16 r specdelay-each;
#X obj 25 44 clone -s 1 _specdelay 4;
#X connect 0 0 1 0;
#X restore 12 463 pd specdelays ________;
#N canvas 238 55 832 451 hitpanic 0;
#X obj 36 19 r hitpanic;
#X obj 36 44 tgl 15 0 empty empty empty 17 7 0 10 -262144 -1 -1 0 1
;
#X obj 58 44 change;
#X obj 58 69 sel;
#X obj 266 88 fd_delit;
#X msg 240 34 38 \$1 \, bang;
#X obj 241 9 crand 3 20;
#X obj 266 115 moses 8;
#X obj 329 115 - 8;
#X obj 360 115 moses 8;
#X obj 422 115 - 8;
#X obj 453 115 moses 8;
#X obj 552 115 moses 12;
#X obj 169 17 bng 15 250 50 0 empty empty empty 17 7 0 10 -262144 -1
-1;
#X obj 37 116 route bang, f 5;
#X obj 42 284 vline~;
#X obj 137 356 *~;
#X obj 177 356 *~;
#X obj 481 140 spigot 1;
#X obj 491 160 spigot 1;
#X obj 501 180 spigot 1;
#X obj 511 200 spigot 1;
#X obj 521 220 spigot 1;
#X msg 756 79 1;
#X msg 760 326 0;
#X obj 108 122 t b b;
#X obj 240 59 t a a b;
#X obj 515 115 - 8;
#X obj 621 115 - 12;
#X obj 653 115 moses 2;
#X obj 632 406 print done-hitpanic, f 13;
#X obj 37 341 *~ 2045;
#X obj 37 366 +~ 1;
#X msg 202 223;
#X obj 454 279 del 3200;
#X msg 37 231 0 \, 1 1000;
#X obj 522 370 fd_switch;
#X obj 552 413 switch~;
#X obj 409 396 *~;
#X obj 449 396 *~;
#X obj 409 421 dac~;
#X obj 541 33 array define panicshaper 2048;
#X msg 495 55 read ../presets/panicshaper-0.txt;
#X obj 466 29 loadbang;
#X obj 37 409 tabread4~ panicshaper;
#X obj 37 157 t b b;
#X msg 108 264 set panicshaper;
#X obj 629 371 sel;
#X msg 126 193 set 0-arc;
#X msg 109 158 0 \, 1 3200;
#X obj 266 140 clone 8 _sampread clar;
#X obj 276 160 clone 8 _sampread flute;
#X obj 286 180 clone 8 _sampread violin;
#X obj 307 220 clone 2 _sampread perc;
#X obj 297 200 clone 12 _sampread voice;
#X connect 0 0 1 0;
#X connect 1 0 2 0;
#X connect 2 0 3 0;
#X connect 3 0 25 0;
#X connect 3 1 13 0;
#X connect 4 0 7 0;
#X connect 5 0 26 0;
#X connect 6 0 5 0;
#X connect 7 0 50 0;
#X connect 7 1 8 0;
#X connect 8 0 9 0;
#X connect 9 0 51 0;
#X connect 9 1 10 0;
#X connect 10 0 11 0;
#X connect 11 0 52 0;
#X connect 11 1 27 0;
#X connect 12 0 54 0;
#X connect 12 1 28 0;
#X connect 13 0 6 0;
#X connect 14 0 45 0;
#X connect 15 0 31 0;
#X connect 16 0 38 0;
#X connect 17 0 39 0;
#X connect 18 0 50 0;
#X connect 19 0 51 0;
#X connect 20 0 52 0;
#X connect 21 0 54 0;
#X connect 22 0 53 0;
#X connect 23 0 18 1;
#X connect 23 0 19 1;
#X connect 23 0 20 1;
#X connect 23 0 21 1;
#X connect 23 0 22 1;
#X connect 23 0 36 0;
#X connect 24 0 18 1;
#X connect 24 0 19 1;
#X connect 24 0 20 1;
#X connect 24 0 21 1;
#X connect 24 0 22 1;
#X connect 24 0 36 0;
#X connect 25 0 49 0;
#X connect 25 1 48 0;
#X connect 25 1 34 0;
#X connect 26 0 14 0;
#X connect 26 1 4 0;
#X connect 26 2 23 0;
#X connect 27 0 12 0;
#X connect 28 0 29 0;
#X connect 29 0 53 0;
#X connect 31 0 32 0;
#X connect 32 0 44 0;
#X connect 34 0 24 0;
#X connect 35 0 15 0;
#X connect 36 0 39 1;
#X connect 36 0 38 1;
#X connect 36 1 37 0;
#X connect 36 1 47 0;
#X connect 38 0 40 0;
#X connect 39 0 40 1;
#X connect 42 0 41 0;
#X connect 43 0 42 0;
#X connect 44 0 16 0;
#X connect 44 0 17 0;
#X connect 45 0 35 0;
#X connect 45 1 46 0;
#X connect 46 0 44 0;
#X connect 47 0 30 0;
#X connect 48 0 44 0;
#X connect 49 0 15 0;
#X connect 50 0 16 1;
#X connect 50 1 17 1;
#X connect 50 2 18 0;
#X connect 51 0 16 1;
#X connect 51 1 17 1;
#X connect 51 2 19 0;
#X connect 52 0 16 1;
#X connect 52 1 17 1;
#X connect 52 2 20 0;
#X connect 53 0 16 1;
#X connect 53 1 17 1;
#X connect 53 2 22 0;
#X connect 54 0 16 1;
#X connect 54 1 17 1;
#X connect 54 2 21 0;
#X restore 12 488 pd hitpanic __________;
#X restore 316 17 pd guts;
#X obj 11 12 fd_netsend;
