#N canvas 0 22 520 506 10;
#X obj 99 156 until;
#X obj 99 178 f;
#X obj 132 179 + 1;
#X msg 235 177 0;
#X obj 99 200 t f f;
#X obj 99 246 list prepend;
#X msg 31 309 all bang;
#X obj 99 133 int 1;
#X obj 31 458 print;
#X obj 31 70 t b b b b b, f 46;
#X obj 167 116 t f f;
#X obj 31 364 sel;
#X obj 90 364 - 1;
#X text 200 333 <-- buffers are cloned here;
#X obj 31 386 symbol \$1;
#X msg 31 428 done with the \$1 __________________;
#X obj 239 273 loadbang;
#X obj 239 295 symbol \$1;
#X obj 99 268 list;
#X msg 99 289 \; \$3-\$1-lim \$2 \;;
#X obj 31 15 inlet;
#X obj 304 100 symbol \$1;
#X obj 167 94 f \$2;
#X msg 304 127 read ../buffer-sizes/\$1.txt;
#X obj 400 15 inlet;
#X obj 304 153 text define \$0-size-\$1;
#X obj 99 223 text get \$0-size-\$1;
#X obj 201 16 inlet;
#X obj 31 198 spigot;
#X text 237 16 spigot loading;
#X text 399 41 this is only;
#X text 399 69 cloned instances;
#X text 399 84 of single-buff;
#X text 399 55 to access the;
#X text 68 16 load / resend info;
#X obj 31 334 clone single-buff \$2 \$1;
#X connect 0 0 1 0;
#X connect 1 0 2 0;
#X connect 1 0 4 0;
#X connect 2 0 1 1;
#X connect 3 0 1 1;
#X connect 4 0 26 0;
#X connect 4 1 5 1;
#X connect 5 0 18 0;
#X connect 6 0 35 0;
#X connect 7 0 0 0;
#X connect 9 0 28 0;
#X connect 9 1 7 0;
#X connect 9 2 22 0;
#X connect 9 3 3 0;
#X connect 9 4 21 0;
#X connect 10 0 7 1;
#X connect 10 1 12 0;
#X connect 11 0 14 0;
#X connect 12 0 11 1;
#X connect 14 0 15 0;
#X connect 15 0 8 0;
#X connect 16 0 17 0;
#X connect 17 0 18 1;
#X connect 18 0 19 0;
#X connect 20 0 9 0;
#X connect 21 0 23 0;
#X connect 22 0 10 0;
#X connect 23 0 25 0;
#X connect 24 0 35 0;
#X connect 26 0 5 0;
#X connect 27 0 28 1;
#X connect 28 0 6 0;
#X connect 35 0 11 0;
