#N canvas 100 31 1067 600 12;
#X obj 20 20 cnv 15 100 150 empty empty _phasevocGui-\$1 5 8 0 10 -228856
-1 0;
#X obj 59 129 tgl 15 0 empty empty lock 17 7 0 10 -262144 -1 -1 1 1
;
#X msg 177 503 transpo \$1;
#X msg 299 561 location \$1;
#X obj 24 46 vsl 15 45 -127 127 0 0 empty empty tsp -1 -9 0 10 -262144
-1 -1 2200 1;
#X obj 48 69 hsl 60 13 0 1 0 0 empty empty location 6 7 0 10 -262144
-1 -1 3113 1;
#X obj 48 82 hsl 60 13 0 127 0 0 empty empty speed 6 7 0 10 -262144
-1 -1 2648 1;
#X obj 101 127 bng 15 250 50 0 empty empty rew 0 -5 0 8 -262144 -1
-1;
#X msg 177 483 rewind;
#X msg 177 423 speed \$1;
#X msg 776 435 auto \$1;
#X obj 26 96 bng 10 250 50 0 empty empty empty 0 -6 0 8 -262144 -1
-1;
#X obj 82 56 nbx 3 10 -1e+37 1e+37 0 0 empty empty size 0 -5 0 8 -262144
-1 -1 1.48608 256;
#X obj 55 110 tgl 15 0 empty empty rec-status 17 7 0 8 -262144 -1 -1
0 1;
#X obj 20 20 bng 8 250 50 0 empty empty empty 17 7 0 8 -262144 -1 -1
;
#X obj 274 55 fd_visera 1;
#X obj 102 35 tgl 15 0 empty empty sw 2 8 0 10 -262144 -1 -1 1 1;
#X msg 176 380 switch \$1;
#X msg 195 35 0;
#X msg 177 463 lock \$1;
#X obj 25 149 nbx 2 14 0 16 0 0 empty empty 0-arc 0 -8 0 10 -262144
-1 -1 0 256;
#X msg 634 392 q \$1;
#X msg 634 412 tab \$1;
#X obj 63 152 hsl 40 15 0.001 1 1 0 empty empty q:0.017 0 8 0 10 -262144
-1 -1 0 1;
#X msg 144 131 label q:\$1;
#X obj 105 158 fd_round 0.1 1000;
#X obj 13 337 _seltab;
#X msg 9 362 label \$1;
#X obj 372 482 list trim;
#X obj 57 36 hradio 10 1 0 4 empty empty id -15 4 0 10 -262144 -1 -1
1;
#X obj 14 216 loadbang;
#X obj 492 398 del 1 1 samp;
#X obj 533 22 r toggle-9;
#X floatatom 533 47 5 0 0 0 - - -, f 5;
#X obj 533 69 sel 1;
#X floatatom 582 66 5 0 0 0 - - -, f 5;
#X obj 582 88 sel 1;
#X msg 332 374 id \$1;
#X obj 350 341 t f b f;
#X obj 405 380 array size;
#X obj 582 41 r toggle-10;
#X floatatom 630 88 5 0 0 0 - - -, f 5;
#X obj 630 110 sel 1;
#X obj 630 63 r toggle-11;
#X floatatom 650 113 5 0 0 0 - - -, f 5;
#X obj 650 135 sel 1;
#X obj 650 88 r toggle-12;
#X msg 533 94 0;
#X msg 582 113 1;
#X msg 630 135 2;
#X msg 650 160 3;
#X obj 576 149 f;
#X obj 302 120 r toggle-0;
#X obj 351 139 r toggle-1;
#X obj 399 161 r toggle-2;
#X obj 419 186 r toggle-3;
#X obj 397 115 r toggle-4;
#X obj 446 134 r toggle-5;
#X obj 437 276 f;
#X obj 45 52 nbx 1 14 1 6 0 0 empty empty in 0 -5 0 10 -1 -262144 -1
3 256;
#X msg 302 145 1;
#X msg 351 164 2;
#X msg 399 186 3;
#X msg 419 211 4;
#X msg 429 241 5;
#X msg 469 239 6;
#X obj 167 102 r toggle-7;
#X obj 190 248 - 8192;
#X obj 190 271 / 8192;
#X obj 190 296 * 127;
#X obj 514 308 makefilename %d-sample;
#X obj 514 333 symbol;
#X obj 418 404 / 44100;
#X msg 492 423 0 \, color 0 22 22;
#X msg 376 312 1 \, color 3 22 22;
#X obj 569 221 spigot 1;
#X msg 568 486 1;
#X msg 511 261 0;
#X obj 289 245 / 127;
#X obj 143 71 r toggle-8;
#X obj 404 36 r knob-7;
#X floatatom 404 61 5 0 0 0 - - -, f 5;
#X obj 757 148 notein;
#X obj 754 221 sel 50 45 51 49 36 38 42 46;
#X msg 849 286 100;
#X msg 745 248 21;
#X msg 779 260 42;
#X msg 803 284 57;
#X msg 822 259 83;
#X msg 887 284 124;
#X msg 905 316 177;
#X msg 934 291 213;
#X obj 70 97 nbx 3 14 -1e+37 1e+37 0 0 empty empty auto -25 8 0 10
-262144 -1 -1 0 256;
#X obj 841 389 fd_spigot;
#X obj 841 364 t f b;
#X obj 905 362 del 150;
#X msg 365 429 input \$1;
#X obj 294 527 * 1000;
#X obj 373 507 s phasevoc-\$1;
#X obj 238 23 f \$1;
#X msg 274 28 phasevoc-\$1;
#X obj 809 60 r toggle-7;
#X obj 190 223 bendin;
#X obj 289 220 ctlin 1;
#X obj 26 122 nbx 2 14 0 16 0 0 empty empty 0-log 0 -8 0 10 -262144
-1 -1 10 256;
#X obj 36 248 _seltab;
#X msg 36 273 label \$1;
#X msg 80 434 set \$1;
#X obj 72 400 _seltab;
#X obj 80 459 s pvocwin-\$1;
#X obj 855 96 r toggle-2;
#X obj 857 154 f;
#X obj 892 151 + 1;
#X obj 857 179 mod 17;
#X obj 855 121 bang;
#X connect 1 0 19 0;
#X connect 2 0 28 0;
#X connect 3 0 28 0;
#X connect 4 0 2 0;
#X connect 5 0 97 0;
#X connect 6 0 9 0;
#X connect 7 0 8 0;
#X connect 8 0 28 0;
#X connect 9 0 28 0;
#X connect 10 0 28 0;
#X connect 11 0 18 0;
#X connect 14 0 99 0;
#X connect 16 0 17 0;
#X connect 17 0 28 0;
#X connect 18 0 4 0;
#X connect 19 0 28 0;
#X connect 20 0 22 0;
#X connect 20 0 26 0;
#X connect 21 0 28 0;
#X connect 22 0 28 0;
#X connect 23 0 21 0;
#X connect 23 0 25 0;
#X connect 24 0 23 0;
#X connect 25 0 24 0;
#X connect 26 0 27 0;
#X connect 27 0 20 0;
#X connect 28 0 98 0;
#X connect 29 0 38 0;
#X connect 30 0 11 0;
#X connect 31 0 73 0;
#X connect 31 0 76 0;
#X connect 32 0 33 0;
#X connect 33 0 34 0;
#X connect 34 0 47 0;
#X connect 35 0 36 0;
#X connect 36 0 48 0;
#X connect 37 0 28 0;
#X connect 38 0 37 0;
#X connect 38 1 39 0;
#X connect 38 1 74 0;
#X connect 38 1 77 0;
#X connect 38 2 70 0;
#X connect 39 0 31 0;
#X connect 39 0 72 0;
#X connect 40 0 35 0;
#X connect 41 0 42 0;
#X connect 42 0 49 0;
#X connect 43 0 41 0;
#X connect 44 0 45 0;
#X connect 45 0 50 0;
#X connect 46 0 44 0;
#X connect 47 0 51 0;
#X connect 48 0 51 0;
#X connect 49 0 51 0;
#X connect 50 0 51 0;
#X connect 51 0 75 0;
#X connect 52 0 60 0;
#X connect 53 0 61 0;
#X connect 54 0 62 0;
#X connect 55 0 63 0;
#X connect 56 0 64 0;
#X connect 57 0 65 0;
#X connect 58 0 59 0;
#X connect 59 0 96 0;
#X connect 60 0 58 0;
#X connect 61 0 58 0;
#X connect 62 0 58 0;
#X connect 63 0 58 0;
#X connect 64 0 58 0;
#X connect 65 0 58 0;
#X connect 66 0 1 0;
#X connect 67 0 68 0;
#X connect 68 0 69 0;
#X connect 69 0 4 0;
#X connect 70 0 71 0;
#X connect 71 0 39 1;
#X connect 72 0 12 0;
#X connect 73 0 13 0;
#X connect 74 0 13 0;
#X connect 75 0 29 0;
#X connect 76 0 75 1;
#X connect 77 0 75 1;
#X connect 78 0 5 0;
#X connect 79 0 7 0;
#X connect 80 0 81 0;
#X connect 81 0 6 0;
#X connect 82 0 83 0;
#X connect 83 0 85 0;
#X connect 83 1 86 0;
#X connect 83 2 87 0;
#X connect 83 3 88 0;
#X connect 83 4 84 0;
#X connect 83 5 89 0;
#X connect 83 6 90 0;
#X connect 83 7 91 0;
#X connect 84 0 94 0;
#X connect 85 0 94 0;
#X connect 86 0 94 0;
#X connect 87 0 94 0;
#X connect 88 0 94 0;
#X connect 89 0 94 0;
#X connect 90 0 94 0;
#X connect 91 0 94 0;
#X connect 92 0 10 0;
#X connect 93 0 92 0;
#X connect 94 0 93 0;
#X connect 94 1 95 0;
#X connect 95 0 93 1;
#X connect 96 0 28 0;
#X connect 97 0 3 0;
#X connect 99 0 100 0;
#X connect 100 0 15 0;
#X connect 101 0 16 0;
#X connect 102 0 67 0;
#X connect 103 0 78 0;
#X connect 104 0 105 0;
#X connect 104 0 108 0;
#X connect 105 0 106 0;
#X connect 106 0 104 0;
#X connect 107 0 109 0;
#X connect 108 0 107 0;
#X connect 110 0 114 0;
#X connect 111 0 112 0;
#X connect 111 0 113 0;
#X connect 112 0 111 1;
#X connect 113 0 104 0;
#X connect 114 0 111 0;
#X coords 0 -1 1 1 100 150 2 20 20;
