#N canvas 1074 490 197 259 10;
#X declare -path ~/Documents/fd_lib;
#X declare -stdlib Gem;
#N canvas 532 31 452 628 loadbang 0;
#X obj 20 -61 loadbang;
#X obj 20 15 del 1000;
#X obj 20 136 del 200;
#X obj 20 254 del 200;
#X obj 20 373 del 500;
#X obj 20 37 t b b;
#X obj 20 162 t b b;
#X obj 20 276 t b b;
#X obj 20 401 t b b;
#X msg 47 428 \; gemset create \, 1 \; printstatus creating gem window........
\;;
#X msg 47 191 \; gemset buffer 1 \; printstatus changing it to single
buffer........ \;;
#X obj 20 487 del 200;
#X obj 20 509 t b b;
#X obj 20 585 del 100;
#X obj 20 607 t b b;
#X msg 47 632 \; printstatus everything loaded \, ready to LOAD ALL
VIDEOS \;;
#X obj 85 504 r reset-aspect;
#X msg 75 264 \; gemset dimen 444 250 \, offset 0 0 \, border 1;
#X text 77 245 smaller gemwin;
#X msg 47 303 \; gemset dimen 1280 720 \, offset 1280 0 \, border 0
\; printstatus reseting dimensions (1280 720) - offset (1920 0) and
border (0) ........ \;;
#X obj 167 -107 cnv 15 100 60 empty empty empty 20 12 0 14 -233017
-66577 0;
#X obj 173 827 cnv 15 100 60 empty empty empty 20 12 0 14 -233017 -66577
0;
#X obj 303 819 print STATUS;
#X obj 303 797 r printstatus;
#X text 179 506 and quality...;
#X msg 20 670 \; spigot-loading 1 \; printstatus spigot-loading set
to 1 \, waiting for the "bang"..., f 64;
#X msg 84 526 \; aspect 7.11 4 \; printstatus resetting aspect 7.11
4 .... \; texture-properties quality 0 \, rectangle 0 \; printstatus
quality and rectangle set to 0.... \;;
#X msg 47 60 \; pd dsp 0 \; gemset 0 \, destroy \; printstatus destroying
gem window........ \;;
#X msg 34 -30 \; load-all-videos-set color 0 333 \;;
#X connect 0 0 1 0;
#X connect 0 0 28 0;
#X connect 1 0 5 0;
#X connect 2 0 6 0;
#X connect 3 0 7 0;
#X connect 4 0 8 0;
#X connect 5 0 2 0;
#X connect 5 1 27 0;
#X connect 6 0 3 0;
#X connect 6 1 10 0;
#X connect 7 0 4 0;
#X connect 7 1 19 0;
#X connect 8 0 11 0;
#X connect 8 1 9 0;
#X connect 11 0 12 0;
#X connect 12 0 13 0;
#X connect 12 1 26 0;
#X connect 13 0 14 0;
#X connect 14 0 25 0;
#X connect 14 1 15 0;
#X connect 16 0 26 0;
#X connect 23 0 22 0;
#X restore 15 80 pd loadbang;
#X obj 119 77 gemwin;
#X obj 119 57 r gemset;
#N canvas 0 22 319 285 netsend 0;
#X msg 108 111 disconnect;
#X msg 75 85 connect localhost 3001;
#X obj 43 188 netsend;
#X floatatom 43 210 5 0 0 0 - - -, f 5;
#X obj 156 20 r bang-connect;
#X obj 182 48 r bang-disconnect;
#X obj 82 223 s from-audio-pd;
#X obj 43 34 r to-audio-pd;
#X connect 0 0 2 0;
#X connect 1 0 2 0;
#X connect 2 0 3 0;
#X connect 2 1 6 0;
#X connect 4 0 1 0;
#X connect 5 0 0 0;
#X connect 7 0 2 0;
#X restore 13 216 pd netsend;
#N canvas 442 41 583 682 all-videos 0;
#X obj 78 119 r resend-limits;
#X obj 78 141 t b b;
#X text 116 140 spigot-loading 0 to resend limit only;
#X obj 366 257 r spigot-loading;
#X msg 105 165 \; spigot-loading 0 \;;
#X obj 328 300 r spigot-loading;
#X obj 294 342 r spigot-loading;
#X obj 263 388 r spigot-loading;
#X obj 220 433 r spigot-loading;
#X obj 189 478 r spigot-loading;
#X obj 152 523 r spigot-loading;
#X obj 112 567 r spigot-loading;
#X msg 23 618 \; printstatus ////////.....banged all......fingers crossed..........//////
, f 72;
#X obj 23 201 t b b b b b b b b b b, f 56;
#X obj 356 228 loadbuffer solo-violin 3;
#X obj 426 205 r spigot-loading;
#X obj 60 587 loadbuffer lamp 32;
#X obj 208 408 loadbuffer violin 7;
#X obj 320 278 loadbuffer rio 1;
#X obj 97 543 loadbuffer flute 19;
#X obj 171 453 loadbuffer clar 8;
#X obj 282 320 loadbuffer ojo 4;
#X obj 245 363 loadbuffer perc 6;
#X obj 134 498 loadbuffer voice 13;
#X obj 23 7 r load-all-videos;
#X msg 23 29 bang;
#X text 59 29 <-- "bang";
#X obj 23 73 f;
#X obj 66 74 + 1;
#X obj 23 95 sel 0;
#X msg 121 65 \; load-all-videos-set color 113 113 \;;
#X text 79 46 only load videos on first bang. when > 0 resend limits
;
#X obj 23 51 del 500;
#X connect 0 0 1 0;
#X connect 1 0 13 0;
#X connect 1 1 4 0;
#X connect 3 0 18 1;
#X connect 5 0 21 1;
#X connect 6 0 22 1;
#X connect 7 0 17 1;
#X connect 8 0 20 1;
#X connect 9 0 23 1;
#X connect 10 0 19 1;
#X connect 11 0 16 1;
#X connect 13 0 12 0;
#X connect 13 1 16 0;
#X connect 13 2 19 0;
#X connect 13 3 23 0;
#X connect 13 4 20 0;
#X connect 13 5 17 0;
#X connect 13 6 22 0;
#X connect 13 7 21 0;
#X connect 13 8 18 0;
#X connect 13 9 14 0;
#X connect 15 0 14 1;
#X connect 24 0 25 0;
#X connect 25 0 32 0;
#X connect 27 0 28 0;
#X connect 27 0 29 0;
#X connect 28 0 27 1;
#X connect 29 0 13 0;
#X connect 29 0 30 0;
#X connect 29 1 1 0;
#X connect 32 0 27 0;
#X restore 15 103 pd all-videos;
#N canvas 453 300 400 397 controls 0;
#X msg 29 28 \; rio-gem-order set 0 \; ojo-gem-order set 1 \; lamp-gem-order
set 2 \; perc-gem-order set 3 \; clar-gem-order set 4 \; violin-gem-order
set 5 \; voice-gem-order set 6 \; flute-gem-order set 7 \;;
#X text 27 8 rendering order for buffers;
#X msg 30 312 \; _disable-all bang \; blackscreen bang;
#X obj 219 322 tgl 15 0 empty empty empty 17 7 0 10 -262144 -1 -1 0
1;
#X obj 219 342 s alpha;
#X msg 27 159 \; resend-limits bang \; reset-aspect bang \; alpha 0
\;;
#X floatatom 292 285 5 0 0 0 - - -, f 5;
#X floatatom 292 326 5 0 0 0 - - -, f 5;
#X obj 292 304 max 10;
#X obj 292 345 s framerate;
#X obj 30 221 r end-reached;
#X obj 30 243 bng 15 250 50 0 empty empty empty 17 7 0 10 -262144 -1
-1;
#N canvas 522 177 450 300 peak-harmbang-lamp 0;
#X obj 19 13 r peak-harmbang;
#X obj 19 145 pack f f f;
#X obj 64 106 norep 32;
#X obj 19 69 t f b b;
#X obj 130 105 random 2;
#X msg 19 176 \; framerate \$1 \; lamp-\$2-_disable 1 \; lamp-\$2-ord-rnd
\$3 \;;
#X obj 19 91 + 2;
#X obj 19 113 * 4;
#X obj 360 11 r section;
#X obj 360 33 sel 0;
#X msg 360 55 \; alpha 0 \;;
#X connect 0 0 3 0;
#X connect 1 0 5 0;
#X connect 2 0 1 1;
#X connect 3 0 6 0;
#X connect 3 1 2 0;
#X connect 3 2 4 0;
#X connect 4 0 1 2;
#X connect 6 0 7 0;
#X connect 7 0 1 0;
#X connect 8 0 9 0;
#X connect 9 0 10 0;
#X restore 208 20 pd peak-harmbang-lamp;
#N canvas 547 106 733 575 section-1 0;
#X obj 256 10 r violin-sample;
#X obj 354 96 tgl 15 0 empty empty empty 17 7 0 10 -262144 -1 -1 1
1;
#X msg 27 441 \; \$2-_disable 1 \; \$2-frame \$1;
#X obj 27 205 metro 30;
#X obj 27 249 f;
#X obj 72 247 + 1;
#X obj 26 178 tgl 15 0 empty empty empty 17 7 0 10 -262144 -1 -1 0
1;
#X msg 355 141 \; alpha 0 \; _disable-all bang \; colorscreen bang \;
\; \; alpha 1 \;;
#X msg 26 144 1;
#X obj 26 13 r section;
#X obj 26 85 sel 1;
#X msg 108 201 0;
#X obj 26 115 t b b b;
#X obj 256 82 t f b;
#X obj 354 118 sel 1;
#X obj 256 247 moses 3;
#X obj 321 264 sel 4 5 6 7 8 9;
#X msg 321 299 0;
#X msg 340 319 1;
#X msg 359 342 2;
#X msg 321 371 symbol ojo-\$1;
#X msg 158 371 symbol solo-violin-\$1;
#X obj 256 269 t f b;
#N canvas 0 22 291 366 rnd-aspect 0;
#X obj 47 189 t f f;
#X obj 47 237 pack;
#X obj 74 210 * 1.77;
#X msg 47 258 \; aspect-solo-violin \$2 \$1;
#X obj 47 141 reflect 20;
#X obj 47 116 random 1000;
#X msg 47 93 bang;
#X obj 47 163 + 4;
#X obj 47 62 del 10;
#X obj 46 37 inlet;
#X floatatom 143 200 5 0 0 0 - - -, f 5;
#X connect 0 0 1 0;
#X connect 0 1 2 0;
#X connect 1 0 3 0;
#X connect 2 0 1 1;
#X connect 4 0 7 0;
#X connect 5 0 4 0;
#X connect 6 0 5 0;
#X connect 7 0 0 0;
#X connect 7 0 10 0;
#X connect 8 0 6 0;
#X connect 9 0 8 0;
#X restore 218 339 pd rnd-aspect;
#X obj 27 411 pack f s, f 32;
#X msg 125 50 0;
#X msg 81 139 \; alpha 1 \; texture-properties quality 1;
#X msg 108 10 1;
#X obj 254 45 spigot;
#X obj 497 222 t f f;
#X obj 497 270 pack;
#X obj 524 243 * 1.77;
#X floatatom 593 233 5 0 0 0 - - -, f 5;
#X obj 497 196 + 0;
#X msg 494 24 bang;
#X obj 497 105 line 0 33;
#X obj 497 83 pack 4 20000;
#X msg 593 136 0;
#X msg 497 291 \; aspect-solo-violin \$2 \$1 \; aspect-ojo \$2 \$1
\; aspect-colorscreen \$2 \$1 \;;
#X msg 604 30 \; blackscreen bang \;;
#X obj 494 46 t b b b;
#X msg 148 11 0;
#X msg 124 95 \; reset-aspect bang;
#X connect 0 0 28 0;
#X connect 1 0 14 0;
#X connect 3 0 4 0;
#X connect 4 0 5 0;
#X connect 4 0 24 0;
#X connect 5 0 4 1;
#X connect 6 0 3 0;
#X connect 8 0 6 0;
#X connect 8 0 28 1;
#X connect 9 0 10 0;
#X connect 10 0 12 0;
#X connect 10 0 34 0;
#X connect 10 1 25 0;
#X connect 10 1 42 0;
#X connect 11 0 4 1;
#X connect 12 0 8 0;
#X connect 12 1 11 0;
#X connect 12 2 26 0;
#X connect 13 0 15 0;
#X connect 13 1 1 0;
#X connect 14 0 7 0;
#X connect 15 0 22 0;
#X connect 15 1 16 0;
#X connect 16 0 17 0;
#X connect 16 1 18 0;
#X connect 16 2 19 0;
#X connect 16 3 17 0;
#X connect 16 4 18 0;
#X connect 16 5 19 0;
#X connect 17 0 20 0;
#X connect 18 0 20 0;
#X connect 19 0 20 0;
#X connect 20 0 24 1;
#X connect 21 0 24 1;
#X connect 22 0 21 0;
#X connect 22 1 23 0;
#X connect 24 0 2 0;
#X connect 25 0 6 0;
#X connect 25 0 28 1;
#X connect 27 0 10 0;
#X connect 28 0 13 0;
#X connect 29 0 30 0;
#X connect 29 1 31 0;
#X connect 30 0 38 0;
#X connect 31 0 30 1;
#X connect 33 0 29 0;
#X connect 33 0 32 0;
#X connect 34 0 40 0;
#X connect 35 0 33 0;
#X connect 36 0 35 0;
#X connect 37 0 35 0;
#X connect 37 0 30 0;
#X connect 37 0 30 1;
#X connect 40 0 36 0;
#X connect 40 1 37 0;
#X connect 40 2 39 0;
#X connect 41 0 10 0;
#X restore 205 64 pd section-1;
#N canvas 438 22 737 696 section-3 0;
#X obj 37 16 r section;
#X msg 496 535 symbol perc-\$1;
#X msg 362 631 \; \$1-_disable 1 \; \$1-ord-rnd \$2 \;;
#X obj 136 15 tgl 15 0 empty empty empty 17 7 0 10 -262144 -1 -1 0
1;
#X msg 109 532 symbol lamp-\$1;
#X obj 303 142 s lor-speed;
#X msg 37 60 1;
#X obj 646 172 tgl 15 0 empty empty empty 17 7 0 10 -262144 -1 -1 0
1;
#X obj 96 161 pack f f f;
#X obj 272 217 m-comb 8;
#X obj 271 238 list split 1;
#X obj 59 279 random 10;
#X obj 123 299 + 10;
#X obj 123 279 random 11;
#X obj 195 305 + 21;
#X obj 195 285 random 10;
#X obj 93 207 unpack f f f;
#X obj 63 258 bang;
#X obj 129 258 bang;
#X obj 196 257 bang;
#X obj 96 183 t l l, f 29;
#X obj 530 380 random 6;
#X floatatom 540 404 5 0 0 0 - - -, f 5;
#X msg 250 534 symbol flute-\$1;
#X obj 282 322 + 11;
#X msg 380 534 symbol voice-\$1;
#X obj 382 492 random 2;
#X obj 386 335 t b f;
#X msg 386 362 1;
#X obj 386 384 tgl 15 0 empty empty empty 17 7 0 10 -262144 -1 -1 0
1;
#X obj 386 404 metro 30;
#X obj 386 426 f;
#X obj 419 427 + 1;
#X obj 415 472 sel;
#X obj 439 372 - 1;
#X obj 387 314 + 10;
#X msg 472 419 0;
#X obj 385 448 t b f;
#X floatatom 291 260 5 0 0 0 - - -, f 5;
#X obj 275 278 t f f b, f 41;
#X obj 500 325 f;
#X obj 531 325 + 1;
#X obj 573 326 mod 4;
#X obj 518 352 sel 3;
#X text 608 190 order - random;
#X msg 79 65 0;
#X obj 37 38 sel 3;
#X obj 303 79 t f b;
#X obj 388 32 f;
#X obj 415 31 + 1;
#X floatatom 320 124 5 0 0 0 - - -, f 5;
#X obj 98 137 lor-updown-f;
#X obj 444 30 mod 10;
#X obj 408 91 tgl 15 0 empty empty empty 17 7 0 10 -262144 -1 -1 0
1;
#X msg 408 129 \; alpha \$1 \;;
#X obj 363 608 pack s 1, f 42;
#X obj 542 99 sel 1;
#X obj 597 103 f;
#X obj 624 102 + 1;
#X obj 653 101 mod 13;
#X obj 597 125 sel 12;
#X text 132 512 0 - 31;
#X text 272 512 11 - 18;
#X text 399 516 0 - 1;
#X text 526 513 0 - 6;
#X obj 300 57 spigot;
#X obj 287 18 r flute-sample;
#X floatatom 448 69 5 0 0 0 - - -, f 5;
#X floatatom 472 469 5 0 0 0 - - -, f 5;
#X obj 472 488 moses 100;
#X obj 530 446 t b;
#X obj 303 102 + 3;
#X connect 0 0 46 0;
#X connect 1 0 55 0;
#X connect 3 0 51 0;
#X connect 3 0 65 1;
#X connect 4 0 55 0;
#X connect 6 0 3 0;
#X connect 7 0 55 1;
#X connect 8 0 20 0;
#X connect 9 0 10 0;
#X connect 10 0 38 0;
#X connect 10 0 39 0;
#X connect 11 0 4 0;
#X connect 12 0 4 0;
#X connect 13 0 12 0;
#X connect 14 0 4 0;
#X connect 15 0 14 0;
#X connect 16 0 17 0;
#X connect 16 1 18 0;
#X connect 16 2 19 0;
#X connect 17 0 11 0;
#X connect 18 0 13 0;
#X connect 19 0 15 0;
#X connect 20 0 16 0;
#X connect 20 1 9 0;
#X connect 21 0 22 0;
#X connect 21 0 1 0;
#X connect 23 0 55 0;
#X connect 24 0 23 0;
#X connect 25 0 55 0;
#X connect 26 0 25 0;
#X connect 27 0 28 0;
#X connect 27 1 34 0;
#X connect 28 0 29 0;
#X connect 29 0 30 0;
#X connect 30 0 31 0;
#X connect 31 0 32 0;
#X connect 31 0 37 0;
#X connect 31 0 68 0;
#X connect 32 0 31 1;
#X connect 33 0 36 0;
#X connect 34 0 33 1;
#X connect 35 0 27 0;
#X connect 36 0 29 0;
#X connect 36 0 31 1;
#X connect 37 0 26 0;
#X connect 37 1 33 0;
#X connect 39 0 24 0;
#X connect 39 1 35 0;
#X connect 39 2 40 0;
#X connect 40 0 41 0;
#X connect 40 0 43 0;
#X connect 41 0 42 0;
#X connect 42 0 40 1;
#X connect 43 0 21 0;
#X connect 45 0 3 0;
#X connect 46 0 6 0;
#X connect 46 1 45 0;
#X connect 47 0 71 0;
#X connect 47 1 48 0;
#X connect 47 1 53 0;
#X connect 48 0 49 0;
#X connect 48 0 67 0;
#X connect 49 0 52 0;
#X connect 51 0 8 0;
#X connect 51 1 8 1;
#X connect 51 2 8 2;
#X connect 52 0 48 1;
#X connect 53 0 54 0;
#X connect 53 0 56 0;
#X connect 55 0 2 0;
#X connect 56 0 57 0;
#X connect 57 0 58 0;
#X connect 57 0 60 0;
#X connect 58 0 59 0;
#X connect 59 0 57 1;
#X connect 60 0 7 0;
#X connect 65 0 47 0;
#X connect 66 0 65 0;
#X connect 68 0 69 0;
#X connect 69 1 70 0;
#X connect 70 0 36 0;
#X connect 71 0 5 0;
#X connect 71 0 50 0;
#X restore 246 120 pd section-3;
#N canvas 407 30 762 633 section-2 0;
#X obj 26 8 r section;
#X obj 26 30 sel 2;
#X msg 26 52 1;
#X msg 55 54 0;
#X obj 183 136 spigot;
#X obj 36 184 tgl 15 0 empty empty empty 17 7 0 10 -262144 -1 -1 0
1;
#X obj 51 320 metro 30;
#X obj 51 341 f;
#X obj 84 342 + 1;
#X obj 183 92 r flute-sample;
#X obj 324 323 random 8;
#X obj 324 345 + 11;
#X msg 367 393 symbol flute-\$1;
#X text 369 366 11 - 18;
#X msg 329 266 bang;
#X obj 210 390 text get flute-limit;
#X obj 324 365 t f f;
#X obj 134 234 random 20;
#X obj 153 258 t b;
#X obj 153 280 del 0.5;
#X msg 78 535 \; \$2-_disable 1 \; \$2-frame \$1 \;;
#X floatatom 196 114 5 0 0 0 - - -, f 5;
#X obj 119 341 mod 10;
#X obj 80 387 sel;
#X obj 132 389 - 1;
#X obj 225 257 random 2;
#X obj 242 302 == 0;
#X obj 242 324 sel 0;
#X obj 270 347 * -1;
#X obj 153 302 t b b;
#X obj 225 279 t f f;
#X obj 201 324 sel 0;
#X obj 226 348 t f;
#X obj 569 208 tgl 15 0 empty empty empty 17 7 0 10 -262144 -1 -1 1
1;
#X msg 580 251 \; alpha \$1;
#X obj 543 174 metro 60;
#X obj 200 37 tgl 15 0 empty empty empty 17 7 0 10 -262144 -1 -1 0
1;
#X floatatom 593 142 5 0 0 0 - - -, f 5;
#X obj 629 71 r framerate;
#X floatatom 550 62 5 0 0 0 - - -, f 5;
#X obj 601 111 * 30;
#X obj 648 166 sel 0;
#X obj 547 31 + 1;
#X obj 646 562 random 32;
#X msg 745 701 symbol lamp-\$1;
#X obj 646 584 t f f, f 23;
#X obj 646 606 text get lamp-limit;
#X obj 50 363 t f f;
#X obj 487 321 tgl 15 0 empty empty empty 17 7 0 10 -262144 -1 -1 0
1;
#X obj 526 491 f;
#X obj 559 492 + 1;
#X obj 578 528 sel;
#X obj 573 403 - 1;
#X msg 746 448 0;
#X obj 533 528 t b f;
#X obj 291 173 t b f f;
#X obj 534 320 + 10;
#X floatatom 760 477 5 0 0 0 - - -, f 5;
#X obj 571 381 max 2;
#X obj 760 496 moses 100;
#X obj 822 449 t b;
#X obj 534 459 metro 230;
#X obj 78 474 pack f s, f 9;
#X msg 472 768 \; \$2-_disable 1 \; \$2-frame \$1 \;;
#X obj 471 746 pack f s, f 50;
#X obj 638 413 + 120;
#X obj 501 697 f;
#X obj 535 696 + 1;
#X obj 570 697 mod 10;
#X obj 527 646 + 1;
#X floatatom 518 720 5 0 0 0 - - -, f 5;
#X obj 527 624 random 17;
#X obj 602 628 int;
#X obj 520 563 t b b b;
#X obj 865 915 cnv 15 100 60 empty empty empty 20 12 0 14 -233017 -66577
0;
#X obj 638 391 random 300;
#X obj 602 606 / 4;
#X obj 602 650 max 2;
#X obj 646 628 t f f;
#X obj 534 342 t f b;
#X connect 0 0 1 0;
#X connect 1 0 2 0;
#X connect 1 1 3 0;
#X connect 2 0 4 1;
#X connect 2 0 36 0;
#X connect 2 0 5 0;
#X connect 2 0 48 0;
#X connect 3 0 4 1;
#X connect 3 0 36 0;
#X connect 3 0 5 0;
#X connect 3 0 48 0;
#X connect 4 0 55 0;
#X connect 5 0 6 0;
#X connect 6 0 7 0;
#X connect 7 0 8 0;
#X connect 7 0 47 0;
#X connect 8 0 22 0;
#X connect 9 0 4 0;
#X connect 9 0 21 0;
#X connect 10 0 11 0;
#X connect 11 0 16 0;
#X connect 12 0 62 1;
#X connect 14 0 10 0;
#X connect 15 0 22 1;
#X connect 15 0 24 0;
#X connect 15 0 17 1;
#X connect 16 0 15 0;
#X connect 16 1 12 0;
#X connect 17 0 7 1;
#X connect 18 0 19 0;
#X connect 19 0 29 0;
#X connect 22 0 7 1;
#X connect 23 0 18 0;
#X connect 24 0 23 1;
#X connect 25 0 30 0;
#X connect 26 0 27 0;
#X connect 27 1 28 0;
#X connect 28 0 32 0;
#X connect 29 0 17 0;
#X connect 29 1 25 0;
#X connect 29 1 14 0;
#X connect 30 0 31 0;
#X connect 30 1 26 0;
#X connect 31 1 32 0;
#X connect 32 0 8 1;
#X connect 33 0 34 0;
#X connect 35 0 33 0;
#X connect 36 0 35 0;
#X connect 37 0 35 1;
#X connect 38 0 40 1;
#X connect 39 0 40 0;
#X connect 40 0 37 0;
#X connect 42 0 39 0;
#X connect 43 0 45 0;
#X connect 44 0 64 1;
#X connect 45 0 46 0;
#X connect 45 1 44 0;
#X connect 46 0 78 0;
#X connect 47 0 62 0;
#X connect 47 1 23 0;
#X connect 48 0 61 0;
#X connect 49 0 50 0;
#X connect 49 0 54 0;
#X connect 49 0 57 0;
#X connect 50 0 49 1;
#X connect 51 0 53 0;
#X connect 52 0 51 1;
#X connect 53 0 49 1;
#X connect 54 0 73 0;
#X connect 54 1 51 0;
#X connect 55 0 14 0;
#X connect 55 1 56 0;
#X connect 55 2 42 0;
#X connect 56 0 79 0;
#X connect 57 0 59 0;
#X connect 58 0 52 0;
#X connect 59 1 60 0;
#X connect 60 0 53 0;
#X connect 61 0 49 0;
#X connect 62 0 20 0;
#X connect 64 0 63 0;
#X connect 65 0 61 1;
#X connect 66 0 67 0;
#X connect 66 0 70 0;
#X connect 66 0 64 0;
#X connect 67 0 68 0;
#X connect 68 0 66 1;
#X connect 69 0 67 1;
#X connect 71 0 69 0;
#X connect 72 0 77 0;
#X connect 73 0 66 0;
#X connect 73 1 71 0;
#X connect 73 2 43 0;
#X connect 75 0 65 0;
#X connect 76 0 72 0;
#X connect 77 0 71 1;
#X connect 78 0 76 0;
#X connect 78 1 68 1;
#X connect 79 0 58 0;
#X connect 79 1 75 0;
#X restore 218 92 pd section-2;
#X obj 58 260 r section;
#X obj 62 283 sel -1;
#N canvas 612 92 630 557 section-4 0;
#X obj 35 28 r section;
#X obj 35 50 sel 4;
#X msg 35 72 1;
#X msg 76 87 0;
#X obj 192 82 metro 30;
#X obj 138 325 f;
#X obj 138 347 + 1;
#X obj 138 369 mod 100;
#X msg 254 419 \; rio-0-_disable 1 \; rio-0-frame \$1 \;;
#X obj 144 50 tgl 15 0 empty empty empty 17 7 0 10 -262144 -1 -1 0
1;
#X obj 213 340 random 100;
#X obj 322 225 random 2;
#X obj 339 270 == 0;
#X obj 339 292 sel 0;
#X obj 367 315 * -1;
#X obj 322 247 t f f;
#X obj 298 292 sel 0;
#X obj 323 316 t f;
#X obj 213 318 sel 99 45;
#X obj 445 331 random 100;
#N canvas 0 22 291 366 rnd-aspect 0;
#X obj 47 189 t f f;
#X obj 47 237 pack;
#X obj 74 210 * 1.77;
#X obj 47 141 reflect 20;
#X obj 47 116 random 1000;
#X msg 47 93 bang;
#X obj 47 163 + 4;
#X obj 47 62 del 10;
#X obj 46 37 inlet;
#X floatatom 143 200 5 0 0 0 - - -, f 5;
#X msg 47 258 \; aspect-rio \$2 \$1;
#X connect 0 0 1 0;
#X connect 0 1 2 0;
#X connect 1 0 10 0;
#X connect 2 0 1 1;
#X connect 3 0 6 0;
#X connect 4 0 3 0;
#X connect 5 0 4 0;
#X connect 6 0 0 0;
#X connect 6 0 9 0;
#X connect 7 0 5 0;
#X connect 8 0 7 0;
#X restore 420 429 pd rnd-aspect;
#X obj 445 353 t f b;
#X floatatom 280 198 5 0 0 0 - - -, f 5;
#X obj 329 31 r percussion-bang;
#X obj 157 225 spigot 1;
#X obj 331 137 spigot;
#X obj 329 53 t b b;
#X msg 329 75 0;
#X msg 360 81 1;
#X obj 194 153 loadbang;
#X msg 194 175 1;
#X connect 0 0 1 0;
#X connect 1 0 2 0;
#X connect 1 1 3 0;
#X connect 2 0 9 0;
#X connect 3 0 9 0;
#X connect 4 0 24 0;
#X connect 4 0 25 0;
#X connect 5 0 6 0;
#X connect 5 0 8 0;
#X connect 5 0 18 0;
#X connect 6 0 7 0;
#X connect 7 0 5 1;
#X connect 9 0 4 0;
#X connect 10 0 5 1;
#X connect 11 0 15 0;
#X connect 12 0 13 0;
#X connect 13 1 14 0;
#X connect 14 0 17 0;
#X connect 15 0 16 0;
#X connect 15 1 12 0;
#X connect 16 1 17 0;
#X connect 17 0 6 1;
#X connect 18 0 10 0;
#X connect 18 1 11 0;
#X connect 19 0 21 0;
#X connect 21 0 8 0;
#X connect 21 1 20 0;
#X connect 23 0 26 0;
#X connect 24 0 5 0;
#X connect 25 0 19 0;
#X connect 26 0 27 0;
#X connect 26 1 28 0;
#X connect 27 0 24 1;
#X connect 28 0 25 1;
#X connect 29 0 30 0;
#X connect 30 0 24 1;
#X restore 280 155 pd section-4;
#N canvas 170 166 1036 433 second-part 0;
#X obj 928 283 s lor-speed;
#X obj 30 177 random 2;
#X msg 30 223 symbol perc-\$1;
#X obj 86 177 random 2;
#X obj 143 177 random 2;
#X obj 86 197 + 2;
#X obj 143 197 + 4;
#X obj 30 117 tgl 15 0 empty empty empty 17 7 0 10 -262144 -1 -1 0
1;
#X obj 30 144 lor-updown 1;
#X obj 218 177 random 2;
#X obj 331 177 random 2;
#X obj 274 197 + 2;
#X obj 218 117 tgl 15 0 empty empty empty 17 7 0 10 -262144 -1 -1 0
1;
#X msg 218 223 symbol violin-\$1;
#X obj 274 177 random 3;
#X obj 331 197 + 5;
#X obj 414 117 tgl 15 0 empty empty empty 17 7 0 10 -262144 -1 -1 0
1;
#X obj 414 177 random 3;
#X obj 470 177 random 2;
#X obj 527 197 + 4;
#X obj 527 177 random 3;
#X msg 414 223 symbol clar-\$1;
#X obj 591 117 tgl 15 0 empty empty empty 17 7 0 10 -262144 -1 -1 0
1;
#X msg 591 223 symbol voice-\$1;
#X obj 591 177 random 4;
#X obj 470 197 + 3;
#X obj 647 197 + 4;
#X obj 647 177 random 5;
#X obj 704 197 + 9;
#X obj 704 177 random 4;
#X obj 761 117 tgl 15 0 empty empty empty 17 7 0 10 -262144 -1 -1 0
1;
#X obj 817 177 random 5;
#X obj 761 177 random 7;
#X obj 817 197 + 7;
#X obj 874 197 + 12;
#X obj 874 177 random 7;
#X obj 218 144 lor-updown 2;
#X obj 414 144 lor-updown 3;
#X obj 591 144 lor-updown 4;
#X obj 761 144 lor-updown 5;
#X msg 761 223 symbol flute-\$1;
#X obj 43 247 r ord-rand;
#X obj 263 256 r ord-rand;
#X obj 459 256 r ord-rand;
#X obj 636 256 r ord-rand;
#X obj 806 256 r ord-rand;
#X obj 928 240 r framerate;
#X obj 869 95 t b;
#N canvas 0 22 450 300 diverge 0;
#X obj 31 15 inlet;
#X obj 58 105 random 5000;
#X obj 58 127 - 2500;
#X obj 58 149 / 1000;
#X obj 58 171 + 10;
#X obj 31 197 pack f f f, f 13;
#X obj 31 75 t f b b, f 10;
#X obj 138 149 / 1000;
#X obj 138 171 + 28;
#X obj 138 105 random 20000;
#X obj 138 127 - 10000;
#X msg 31 225 \; lor-updown-\$1 inita \$2 \, initb \$3 \;;
#X msg 31 53 1 \, 2 \, 3 \, 4 \, 5;
#X connect 0 0 12 0;
#X connect 1 0 2 0;
#X connect 2 0 3 0;
#X connect 3 0 4 0;
#X connect 4 0 5 1;
#X connect 5 0 11 0;
#X connect 6 0 5 0;
#X connect 6 1 1 0;
#X connect 6 2 9 0;
#X connect 7 0 8 0;
#X connect 8 0 5 2;
#X connect 9 0 10 0;
#X connect 10 0 7 0;
#X connect 12 0 6 0;
#X restore 869 144 pd diverge;
#X text 898 77 diverge;
#X text 960 211 speed;
#X text 223 78 start lorenz systems and analisis with siginfo;
#X obj 869 116 delay 30000;
#X obj 928 261 * 8;
#X obj 461 -63 r section;
#X obj 30 78 tgl 15 0 empty empty empty 17 7 0 10 -262144 -1 -1 0 1
;
#X msg 465 18 1;
#X msg 542 29 0;
#X obj 30 277 pack s 1 f;
#X obj 218 277 pack s 1 f;
#X obj 414 277 pack s 1 f;
#X obj 591 277 pack s 1 f;
#X obj 761 277 pack s 1 f;
#X msg 30 298 \; \$1-_disable 1 \; \$1-ord-rnd \$2 \; to-audio-pd send
perc \$3 \;;
#X msg 218 299 \; \$1-_disable 1 \; \$1-ord-rnd \$2 \; to-audio-pd send
viol \$3 \;;
#X msg 414 299 \; \$1-_disable 1 \; \$1-ord-rnd \$2 \; to-audio-pd send
clar \$3 \;;
#X msg 590 299 \; \$1-_disable 1 \; \$1-ord-rnd \$2 \; to-audio-pd send
voic \$3 \;;
#X msg 761 299 \; \$1-_disable 1 \; \$1-ord-rnd \$2 \; to-audio-pd send
flut \$3 \;;
#X obj 461 -41 sel 5 7 6;
#X msg 933 19 20;
#X msg 963 9 3;
#X msg 876 29 8;
#X connect 1 0 2 0;
#X connect 1 0 58 2;
#X connect 2 0 58 0;
#X connect 3 0 5 0;
#X connect 4 0 6 0;
#X connect 5 0 2 0;
#X connect 5 0 58 2;
#X connect 6 0 2 0;
#X connect 6 0 58 2;
#X connect 7 0 8 0;
#X connect 8 0 1 0;
#X connect 8 1 3 0;
#X connect 8 2 4 0;
#X connect 9 0 13 0;
#X connect 9 0 59 2;
#X connect 10 0 15 0;
#X connect 11 0 13 0;
#X connect 11 0 59 2;
#X connect 12 0 36 0;
#X connect 13 0 59 0;
#X connect 14 0 11 0;
#X connect 15 0 13 0;
#X connect 15 0 59 2;
#X connect 16 0 37 0;
#X connect 17 0 21 0;
#X connect 17 0 60 2;
#X connect 18 0 25 0;
#X connect 19 0 21 0;
#X connect 19 0 60 2;
#X connect 20 0 19 0;
#X connect 21 0 60 0;
#X connect 22 0 38 0;
#X connect 23 0 61 0;
#X connect 24 0 23 0;
#X connect 24 0 61 2;
#X connect 25 0 21 0;
#X connect 25 0 60 2;
#X connect 26 0 23 0;
#X connect 26 0 61 2;
#X connect 27 0 26 0;
#X connect 28 0 23 0;
#X connect 28 0 61 2;
#X connect 29 0 28 0;
#X connect 30 0 39 0;
#X connect 31 0 33 0;
#X connect 32 0 40 0;
#X connect 32 0 62 2;
#X connect 33 0 40 0;
#X connect 33 0 62 2;
#X connect 34 0 40 0;
#X connect 34 0 62 2;
#X connect 35 0 34 0;
#X connect 36 0 9 0;
#X connect 36 1 14 0;
#X connect 36 2 10 0;
#X connect 37 0 17 0;
#X connect 37 1 18 0;
#X connect 37 2 20 0;
#X connect 38 0 24 0;
#X connect 38 1 27 0;
#X connect 38 2 29 0;
#X connect 39 0 32 0;
#X connect 39 1 31 0;
#X connect 39 2 35 0;
#X connect 40 0 62 0;
#X connect 41 0 58 1;
#X connect 42 0 59 1;
#X connect 43 0 60 1;
#X connect 44 0 61 1;
#X connect 45 0 62 1;
#X connect 46 0 53 0;
#X connect 47 0 52 0;
#X connect 52 0 48 0;
#X connect 53 0 0 0;
#X connect 54 0 68 0;
#X connect 55 0 7 0;
#X connect 55 0 12 0;
#X connect 55 0 16 0;
#X connect 55 0 22 0;
#X connect 55 0 30 0;
#X connect 55 0 47 0;
#X connect 56 0 55 0;
#X connect 57 0 55 0;
#X connect 58 0 63 0;
#X connect 59 0 64 0;
#X connect 60 0 65 0;
#X connect 61 0 66 0;
#X connect 62 0 67 0;
#X connect 68 0 56 0;
#X connect 68 0 71 0;
#X connect 68 1 56 0;
#X connect 68 1 70 0;
#X connect 68 2 56 0;
#X connect 68 2 69 0;
#X connect 68 3 57 0;
#X connect 69 0 53 1;
#X connect 70 0 53 1;
#X connect 71 0 53 1;
#X restore 289 187 pd second-part;
#X obj 273 233 r fps;
#X connect 3 0 4 0;
#X connect 6 0 8 0;
#X connect 7 0 9 0;
#X connect 8 0 7 0;
#X connect 10 0 11 0;
#X connect 11 0 2 0;
#X connect 16 0 17 0;
#X connect 17 0 2 0;
#X connect 20 0 6 0;
#X restore 14 148 pd controls;
#X obj 13 5 cnv 15 160 30 empty empty MAIN_VIDEO_PATCH 15 15 0 14 -1
-262144 0;
#X text 90 148 <-- this;
#N canvas 544 81 558 257 from-audio-pd 0;
#X obj 42 19 r from-audio-pd;
#X floatatom 87 111 5 0 0 0 violin-sample - -, f 5;
#X floatatom 198 159 5 0 0 0 flute-sample - -, f 5;
#X floatatom 343 158 5 0 0 0 peak-harmbang - -, f 5;
#X text 261 177 lamp only fast/short frames;
#X text 269 196 values come 0-9;
#X text 20 130 values come 0-8;
#X floatatom 452 120 5 0 0 0 section - -, f 5;
#X obj 195 116 print bird-breadth;
#X obj 312 227 s peak-harmbang;
#X obj 245 81 s pix-data-switch;
#X obj 31 218 s violin-sample;
#X text 136 176 values come 0-19;
#X obj 161 218 s flute-sample;
#X obj 480 173 s section;
#X obj 339 109 s percussion-bang;
#X obj 447 53 s fadeout;
#X obj 43 46 route violin-sample flute-sample peak-harmbang bird-breadth
pix-data percussion-bang section fadeout fps;
#X obj 421 78 s fps;
#X connect 0 0 17 0;
#X connect 1 0 11 0;
#X connect 2 0 13 0;
#X connect 3 0 9 0;
#X connect 7 0 14 0;
#X connect 17 0 1 0;
#X connect 17 1 2 0;
#X connect 17 2 3 0;
#X connect 17 3 8 0;
#X connect 17 4 10 0;
#X connect 17 5 15 0;
#X connect 17 6 7 0;
#X connect 17 7 16 0;
#X connect 17 8 18 0;
#X restore 79 216 pd from-audio-pd;
#X obj 15 38 bng 15 250 50 0 bang-connect empty 2.then_connect 17 7
0 10 -262144 -1 -1;
#X obj 15 56 bng 15 50 10 0 load-all-videos load-all-videos-set 3."bang"
17 7 0 10 -143491 -143491 -1;
#X floatatom 120 38 3 0 0 1 fps framerate -, f 3;
#N canvas 471 71 505 513 pix_data 0;
#X obj 83 153 pix_data;
#X msg 153 102 0.5;
#X obj 128 195 sel 0;
#X msg 193 254 1;
#X msg 128 256 0;
#X obj 105 298 spigot;
#X obj 154 298 spigot;
#X obj 174 221 t f b b;
#X msg 221 254 1;
#X msg 155 256 0;
#X obj 39 82 t a b;
#X obj 39 14 r gemlist;
#X obj 126 12 r pix-data-switch;
#X obj 39 51 spigot;
#X obj 126 34 t f b;
#X text 135 176 stop sending if gray == 0;
#X msg 105 416 \; to-audio-pd send color-list \$1 \$2 \$3;
#X msg 154 359 \; to-audio-pd send gray \$1;
#X obj 128 222 t b b b;
#X msg 217 322 0 0 0;
#X floatatom 173 36 5 0 0 0 - - -, f 5;
#X obj 173 55 sel 0;
#X msg 285 80 symbol sending;
#X msg 188 80 symbol no-send;
#X msg 195 103 \; pix-data-status symbol \$1;
#X obj 37 37;
#X connect 0 1 5 0;
#X connect 0 2 2 0;
#X connect 1 0 0 2;
#X connect 1 0 0 3;
#X connect 2 0 18 0;
#X connect 2 1 7 0;
#X connect 3 0 5 1;
#X connect 4 0 5 1;
#X connect 5 0 16 0;
#X connect 6 0 17 0;
#X connect 7 0 6 0;
#X connect 7 1 3 0;
#X connect 7 2 8 0;
#X connect 8 0 6 1;
#X connect 9 0 6 1;
#X connect 10 0 0 1;
#X connect 10 1 0 0;
#X connect 11 0 13 0;
#X connect 12 0 14 0;
#X connect 12 0 20 0;
#X connect 13 0 10 0;
#X connect 14 0 13 1;
#X connect 14 1 1 0;
#X connect 18 0 4 0;
#X connect 18 1 9 0;
#X connect 18 2 19 0;
#X connect 19 0 6 0;
#X connect 19 0 5 0;
#X connect 20 0 21 0;
#X connect 21 0 23 0;
#X connect 21 1 22 0;
#X connect 22 0 24 0;
#X connect 23 0 24 0;
#X restore 14 125 pd pix_data;
#X symbolatom 115 128 10 0 0 2 pix-data pix-data-status -, f 10;
#N canvas 468 45 683 227 black-white-screens 0;
#X obj 21 37 gemhead;
#X obj 21 59 color 0 0 0;
#X obj 21 13 r blackscreen;
#X obj 151 37 gemhead;
#X obj 151 59 color 1 1 1;
#X obj 151 13 r whitescreen;
#X obj 281 37 gemhead;
#X obj 346 13 r colorscreen;
#X obj 281 59 color 1 0 0;
#N canvas 758 151 390 224 random-color 0;
#X obj 137 72 random 1000;
#X obj 137 94 / 1000;
#X obj 58 121 pack f f f;
#X obj 217 72 random 1000;
#X obj 217 94 / 1000;
#X obj 57 72 random 1000;
#X obj 57 94 / 1000;
#X obj 56 22 inlet;
#X obj 56 44 t b b b;
#X obj 60 144 outlet;
#X connect 0 0 1 0;
#X connect 1 0 2 1;
#X connect 2 0 9 0;
#X connect 3 0 4 0;
#X connect 4 0 2 2;
#X connect 5 0 6 0;
#X connect 6 0 2 0;
#X connect 7 0 8 0;
#X connect 8 0 5 0;
#X connect 8 1 0 0;
#X connect 8 2 3 0;
#X restore 407 61 pd random-color;
#X obj 346 35 t b b;
#X obj 21 81 display blackscreen;
#X obj 151 81 display whitescreen;
#X obj 281 81 display colorscreen;
#X connect 0 0 1 0;
#X connect 1 0 11 0;
#X connect 2 0 0 0;
#X connect 3 0 4 0;
#X connect 4 0 12 0;
#X connect 5 0 3 0;
#X connect 6 0 8 0;
#X connect 7 0 10 0;
#X connect 8 0 13 0;
#X connect 9 0 8 1;
#X connect 10 0 6 0;
#X connect 10 1 9 0;
#X restore 13 195 pd black-white-screens;
#N canvas 872 443 196 234 bufreads 0;
#X obj 18 22 clone bufread 1 rio;
#X obj 18 64 clone bufread 4 ojo;
#X obj 18 86 clone bufread 6 perc;
#X obj 18 107 clone bufread 7 violin;
#X obj 18 128 clone bufread 8 clar;
#X obj 18 149 clone bufread 13 voice;
#X obj 18 170 clone bufread 19 flute;
#X obj 18 193 clone bufread 32 lamp;
#X obj 18 42 clone bufread 3 solo-violin;
#X restore 13 174 pd bufreads;
#N canvas 323 91 454 115 buf-limits 0;
#X msg 13 44 read ../buffer-sizes/flute.txt;
#X obj 75 66 text define flute-limit;
#X obj 68 12 loadbang;
#X msg 225 43 read ../buffer-sizes/lamp.txt;
#X obj 225 65 text define lamp-limit;
#X connect 0 0 1 0;
#X connect 2 0 0 0;
#X connect 2 0 3 0;
#X connect 3 0 4 0;
#X restore 100 171 pd buf-limits;
#N canvas 0 22 450 300 declares 0;
#X obj 34 32 declare -path ~/Documents/fd_lib;
#X obj 35 57 declare -stdlib Gem;
#X restore 114 97 pd declares;
#X connect 2 0 1 0;
