#N canvas 0 22 613 719 12;
#X obj 51 477 *~;
#X obj 18 477 *~;
#X obj 18 499 -~;
#X obj 167 475 *~;
#X obj 136 475 *~;
#X obj 136 497 +~;
#X obj 109 193 *~;
#X obj 78 193 *~;
#X obj 50 193 *~;
#X obj 19 193 *~;
#X obj 19 218 +~;
#X obj 127 379 *~;
#X obj 20 622 *~;
#X obj 238 430 rfft~;
#X obj 108 161 rfft~;
#X obj 19 564 rifft~;
#X obj 21 646 outlet~;
#X obj 97 379 *~;
#X obj 124 218 -~;
#X obj 18 431 *~;
#X obj 51 432 *~;
#X obj 19 349 +~ 1e-15;
#X obj 19 598 *~;
#X obj 348 631 expr 2/(3*$f1);
#N canvas -373 10 1005 760 read-windows 0;
#X obj 18 693 *~;
#X obj 166 303 f;
#X obj 102 139 /;
#X obj 195 695 *~;
#X obj 166 252 bang~;
#X obj 17 551 line~;
#X obj 102 164 * 1000;
#X obj 208 305 +;
#X obj 288 275 *;
#X text 198 371 reading location (samples);
#X obj 51 597 / 4;
#X obj 288 245 * 0.01;
#X floatatom 345 501 7 0 0 0 - - -, f 7;
#X obj 340 474 *;
#X obj 499 387 * 0.01;
#X obj 501 408 + 69;
#X obj 502 429 mtof;
#X obj 502 451 / 440;
#X obj 375 474 t b f;
#X obj 19 719 outlet~;
#X obj 195 720 outlet~;
#X msg 803 409 0;
#X obj 803 432 s speed;
#X text 411 498 stretched window size (samples);
#X obj 102 115 t f b;
#X obj 142 139 samplerate~;
#X obj 102 208 / 4;
#X obj 203 420 / 2;
#X obj 166 420 -;
#X text 239 417 back up 1/2 window;
#X obj 16 597 -~;
#X text 43 6 Read two windows out of the recorded sample \, one 1/4
ahead of the other. The mid point of the front window is specified
by "location". If "speed" is nonzero \, "location" automatically precesses.
;
#X obj 528 720 * -0.5;
#X text 81 601 "back" window 1/4 cycle behind "front" one;
#X text 137 205 computation period (msec) for overlap of 4;
#X text 164 186 msec in a window;
#X obj 528 666 /;
#X obj 528 691 * 1000;
#X obj 528 642 t f b;
#X obj 568 666 samplerate~;
#X obj 528 619 f;
#X text 326 275 loop to precess the location according;
#X text 325 291 to the "speed" parameter.;
#X text 611 31 if location changes \, update number box;
#X text 610 50 in main window via "location-set" \, but;
#X text 613 69 taking care to limit frequency of updates.;
#X text 754 344 setting location by hand;
#X text 752 362 sets speed to zero.;
#X text 496 527 "rewind" control takes us;
#X text 499 545 to a location depending on;
#X text 499 564 stretched window size.;
#X obj 16 469 f;
#X obj 17 496 pack;
#X obj 15 440 b;
#X msg 17 523 0 \, \$1 \$2;
#X obj 166 394 * 44.1;
#X obj 218 664 tabreceive~ 0-han, f 12;
#X obj 456 77 inlet;
#X msg 768 140 location \$1;
#X obj 372 108 route location speed auto rewind transpo window-size
, f 22;
#X obj 17 637 tabread4~ \$1-sample;
#X obj 194 637 tabread4~ \$1-sample;
#X floatatom 112 189 5 0 0 0 - - -, f 5;
#X msg 784 183 rewind bang \, speed \$1;
#X floatatom 460 682 5 0 0 0 - - -, f 5;
#X floatatom 502 476 5 0 0 0 - - -, f 5;
#X connect 0 0 19 0;
#X connect 1 0 7 0;
#X connect 1 0 55 0;
#X connect 2 0 6 0;
#X connect 3 0 20 0;
#X connect 4 0 1 0;
#X connect 5 0 30 0;
#X connect 5 0 61 0;
#X connect 6 0 26 0;
#X connect 6 0 62 0;
#X connect 7 0 1 1;
#X connect 8 0 7 1;
#X connect 10 0 30 1;
#X connect 11 0 8 0;
#X connect 13 0 12 0;
#X connect 13 0 40 1;
#X connect 13 0 10 0;
#X connect 13 0 51 1;
#X connect 13 0 27 0;
#X connect 14 0 15 0;
#X connect 15 0 16 0;
#X connect 16 0 17 0;
#X connect 17 0 18 0;
#X connect 17 0 65 0;
#X connect 18 0 13 0;
#X connect 18 1 13 1;
#X connect 21 0 22 0;
#X connect 24 0 2 0;
#X connect 24 1 25 0;
#X connect 25 0 2 1;
#X connect 26 0 8 1;
#X connect 26 0 52 1;
#X connect 27 0 28 1;
#X connect 28 0 53 0;
#X connect 28 0 60 1;
#X connect 28 0 61 1;
#X connect 30 0 60 0;
#X connect 32 0 58 0;
#X connect 32 0 64 0;
#X connect 36 0 37 0;
#X connect 37 0 32 0;
#X connect 38 0 36 0;
#X connect 38 1 39 0;
#X connect 39 0 36 1;
#X connect 40 0 38 0;
#X connect 51 0 52 0;
#X connect 52 0 54 0;
#X connect 53 0 51 0;
#X connect 54 0 5 0;
#X connect 55 0 28 0;
#X connect 56 0 3 1;
#X connect 56 0 0 1;
#X connect 57 0 59 0;
#X connect 58 0 59 0;
#X connect 59 0 21 0;
#X connect 59 0 1 1;
#X connect 59 1 11 0;
#X connect 59 2 63 0;
#X connect 59 3 40 0;
#X connect 59 4 14 0;
#X connect 59 5 24 0;
#X connect 59 5 13 0;
#X connect 60 0 0 0;
#X connect 61 0 3 0;
#X connect 63 0 59 0;
#X restore 305 84 pd read-windows;
#X obj 121 69 *~;
#X obj 89 69 *~;
#X obj 159 71 +~ 1e-20;
#X obj 73 119 *~;
#X obj 19 118 *~;
#X obj 29 245 lrshift~ 1;
#X obj 24 269 lrshift~ -1;
#X obj 141 245 lrshift~ 1;
#X obj 133 269 lrshift~ -1;
#X obj 35 300 *~;
#X obj 159 312 *~;
#X obj 19 325 +~;
#X obj 125 331 +~;
#X obj 443 29 block~ 2048 4;
#X obj 310 15 inlet;
#X obj 52 598 tabreceive~ 0-han;
#X obj 310 40 t a a;
#X obj 358 431 route window-size;
#X obj 235 286 route lock;
#X obj 97 425 rsqrt~;
#X obj 159 94 rsqrt~;
#X obj 445 62 array define \$0-prev-real 2048;
#X f 12;
#X obj 445 123 array define \$0-prev-imag 2048;
#X f 12;
#X obj 20 8 tabreceive~ \$0-prev-real;
#X obj 136 567 tabsend~ \$0-prev-real;
#X obj 73 29 tabreceive~ \$0-prev-imag;
#X obj 137 543 tabsend~ \$0-prev-imag;
#X floatatom 220 325 5 0 0 0 - - -, f 5;
#X connect 0 0 2 1;
#X connect 1 0 2 0;
#X connect 2 0 15 0;
#X connect 2 0 49 0;
#X connect 3 0 5 1;
#X connect 4 0 5 0;
#X connect 5 0 15 1;
#X connect 5 0 51 0;
#X connect 6 0 18 1;
#X connect 7 0 18 0;
#X connect 8 0 10 1;
#X connect 9 0 10 0;
#X connect 10 0 31 0;
#X connect 10 0 30 0;
#X connect 10 0 36 0;
#X connect 11 0 44 0;
#X connect 12 0 16 0;
#X connect 13 0 1 1;
#X connect 13 0 3 1;
#X connect 13 1 0 1;
#X connect 13 1 4 1;
#X connect 14 0 9 1;
#X connect 14 0 7 1;
#X connect 14 1 6 1;
#X connect 14 1 8 1;
#X connect 15 0 22 0;
#X connect 17 0 44 0;
#X connect 18 0 32 0;
#X connect 18 0 33 0;
#X connect 18 0 37 0;
#X connect 19 0 1 0;
#X connect 19 0 4 0;
#X connect 20 0 0 0;
#X connect 20 0 3 0;
#X connect 21 0 17 1;
#X connect 21 0 17 0;
#X connect 21 0 19 0;
#X connect 22 0 12 0;
#X connect 23 0 12 1;
#X connect 24 0 14 0;
#X connect 24 1 13 0;
#X connect 25 0 27 0;
#X connect 26 0 27 0;
#X connect 27 0 45 0;
#X connect 28 0 8 0;
#X connect 28 0 7 0;
#X connect 29 0 9 0;
#X connect 29 0 6 0;
#X connect 30 0 34 0;
#X connect 31 0 34 0;
#X connect 32 0 35 0;
#X connect 33 0 35 0;
#X connect 34 0 36 1;
#X connect 35 0 37 1;
#X connect 36 0 21 0;
#X connect 37 0 11 0;
#X connect 37 0 11 1;
#X connect 37 0 20 0;
#X connect 39 0 41 0;
#X connect 40 0 22 1;
#X connect 41 0 24 0;
#X connect 41 1 42 0;
#X connect 42 0 23 0;
#X connect 42 1 43 0;
#X connect 43 0 34 1;
#X connect 43 0 35 1;
#X connect 43 0 52 0;
#X connect 44 0 19 1;
#X connect 44 0 20 1;
#X connect 45 0 28 1;
#X connect 45 0 29 1;
#X connect 48 0 26 1;
#X connect 48 0 26 0;
#X connect 48 0 29 0;
#X connect 50 0 25 1;
#X connect 50 0 25 0;
#X connect 50 0 28 0;
