#N canvas 0 22 508 329 12;
#X obj 50 44 inlet;
#X obj 121 46 loadbang;
#X obj 50 66 f;
#X obj 83 67 + 1;
#X obj 50 91 mod;
#X obj 50 179 * \$2;
#X obj 50 234 int;
#X obj 50 259 outlet;
#X obj 50 116 array get \$1-probs 0 1, f 12;
#X obj 121 87 array size \$1-probs;
#X text 54 9 bang to continuously get array probabilities;
#X text 211 34 wrapping over it;
#X text 139 174 mapping the result to the \$2;
#X text 246 197 as an integer;
#X text 125 263 to be used in a.le.a instead of [random];
#X obj 385 40 inlet;
#X msg 314 96 symbol \$1-probs;
#X obj 50 204 + \$3;
#X text 158 229 and offsetting by \$3 (if provided);
#X obj 385 65 change;
#X connect 0 0 2 0;
#X connect 1 0 9 0;
#X connect 2 0 3 0;
#X connect 2 0 4 0;
#X connect 3 0 2 1;
#X connect 4 0 8 0;
#X connect 5 0 17 0;
#X connect 6 0 7 0;
#X connect 8 0 5 0;
#X connect 9 0 4 1;
#X connect 15 0 19 0;
#X connect 16 0 9 1;
#X connect 16 0 8 2;
#X connect 17 0 6 0;
#X connect 19 0 16 0;
