#N canvas 573 37 515 655 12;
#X obj 27 204 lorenz;
#X obj 27 120 metro 10;
#X obj 203 43 loadbang;
#X msg 203 114 100;
#X obj 203 138 until;
#X obj 52 482 random;
#X obj 269 162 + 10;
#X obj 269 85 random 5000;
#X obj 269 120 - 2500;
#X obj 269 140 / 1000;
#X msg 269 184 inita \$1;
#X obj 353 161 / 5000;
#X msg 353 184 initx \$1;
#X obj 27 31 inlet;
#X obj 73 443 * 100;
#X obj 336 543 s \$2-lspace-\$1-R;
#X obj 180 547 s \$2-lspace-\$1-L;
#X obj 181 379 t f f;
#X obj 88 97 r \$2-ntmp;
#X obj 229 425 r \$2-ntmp;
#X obj 52 529 s \$2-ntmp;
#X obj 49 254 list trim;
#X obj 26 286 siginfo;
#X msg 27 158 print 1;
#X obj 49 232 list prepend parse;
#X obj 181 325 fd_norm;
#X obj 203 65 t b b;
#X obj 52 381 + 1;
#X obj 52 409 t b f;
#X text 145 266 distance only;
#X obj 52 318 list split 3;
#X obj 52 349 fd_m-comb 8;
#X obj 135 287 list split 3;
#X obj 181 489 pack;
#X obj 336 493 pack;
#X obj 52 505 + 20;
#X msg 181 568 \$1 \$2 \, 0 200 \$2;
#X msg 337 566 \$1 \$2 \, 0 200 \$2;
#X msg 181 518 \$1 \$2;
#X msg 337 516 \$1 \$2;
#X obj 338 404 * -1;
#X obj 181 404 cos;
#X obj 338 429 cos;
#X obj 181 429 * 0.5;
#X obj 181 454 + 0.5;
#X obj 384 440 * 0.5;
#X obj 384 465 + 0.5;
#X floatatom 246 355 5 0 0 0 - - -, f 5;
#X connect 0 1 24 0;
#X connect 1 0 23 0;
#X connect 2 0 26 0;
#X connect 3 0 4 0;
#X connect 4 0 23 0;
#X connect 5 0 35 0;
#X connect 6 0 10 0;
#X connect 7 0 8 0;
#X connect 7 0 11 0;
#X connect 8 0 9 0;
#X connect 9 0 6 0;
#X connect 10 0 0 0;
#X connect 11 0 12 0;
#X connect 12 0 0 0;
#X connect 13 0 1 0;
#X connect 14 0 5 1;
#X connect 17 0 41 0;
#X connect 17 1 40 0;
#X connect 18 0 1 1;
#X connect 19 0 33 1;
#X connect 19 0 34 1;
#X connect 21 0 22 0;
#X connect 22 1 30 0;
#X connect 23 0 0 0;
#X connect 24 0 21 0;
#X connect 25 1 17 0;
#X connect 25 1 47 0;
#X connect 26 0 3 0;
#X connect 26 1 7 0;
#X connect 27 0 28 0;
#X connect 28 0 5 0;
#X connect 28 1 14 0;
#X connect 30 0 31 0;
#X connect 30 1 32 0;
#X connect 31 0 27 0;
#X connect 32 1 25 0;
#X connect 33 0 38 0;
#X connect 34 0 39 0;
#X connect 35 0 20 0;
#X connect 38 0 16 0;
#X connect 39 0 15 0;
#X connect 40 0 42 0;
#X connect 41 0 43 0;
#X connect 42 0 45 0;
#X connect 43 0 44 0;
#X connect 44 0 33 0;
#X connect 45 0 46 0;
#X connect 46 0 34 0;
