#N canvas 198 22 789 513 12;
#X obj 10 6 cnv 15 200 170 empty empty empty 20 12 0 14 -233017 -66577
0;
#X obj 14 100 tgl 15 0 empty empty monitor 18 8 0 10 -262144 -1 -1
0 1;
#X obj 14 55 tgl 15 0 empty empty enable 18 8 0 10 -262144 -1 -1 0
1;
#X obj 14 70 tgl 15 0 empty empty analysis 18 8 0 10 -262144 -1 -1
0 1;
#X obj 130 30 _monitor-out 1;
#X obj 18 147 fd_cputime;
#X obj 189 8 bng 15 50 10 0 empty empty empty 17 7 0 10 -258113 -1
-1;
#X obj 103 155 fd_stopwatch;
#X obj 257 46 s panic;
#X obj 23 242 s enable-adc-dac;
#X obj 186 244 s analysis;
#X obj 268 239 s monitor;
#X obj 167 30 _monitor-out 2;
#X obj 245 10 bng 15 250 50 0 start-all empty start-all 17 7 0 10 -262144
-1 -1;
#X obj 319 10 bng 15 250 50 0 stop-all empty stop-all 17 7 0 10 -262144
-1 -1;
#X obj 48 192 tgl 15 0 hitpanic empty hitpanic 17 7 0 10 -262144 -1
-1 0 1;
#X obj 281 116 r monitor-set;
#X obj 273 91 r enable-adc-dac-set;
#X obj 62 9 nbx 2 16 0 99 0 0 empty empty silence-thres 30 8 0 10 -262144
-1 -1 64 256;
#X obj 323 197 s silence-thres;
#X obj 413 29 loadbang;
#X msg 397 54 64;
#X msg 434 75 set \$1;
#X obj 423 157 switch~;
#X obj 14 10 tgl 15 0 empty empty dsp 17 7 0 10 -262144 -1 -1 0 1;
#X obj 423 135 fd_dspon;
#X obj 14 40 tgl 15 0 empty empty start-recording 18 8 0 10 -262144
-1 -1 0 1;
#X obj 515 194 sel 0 1;
#X obj 14 85 tgl 15 0 empty empty start-score 17 7 0 10 -262144 -1
-1 0 1;
#X text 233 407 REMOVE FAKE INPUTS FROM HERE;
#X msg 39 322 \; start-midi \$1 \;;
#X msg 218 344 \; fake-inputs \$1;
#X obj 200 315 spigot;
#X obj 79 55 tgl 15 0 empty empty fake 17 7 0 10 -262144 -1 -1 0 1
;
#X msg 551 232 \; start-raw-rec bang \; fd_stopwatch start \;;
#X msg 381 303 \; stop-raw-rec bang \; fd_stopwatch still \;;
#X obj 14 25 tgl 15 0 empty empty start-printing 18 8 0 10 -262144
-1 -1 0 1;
#X msg 122 440 \; fd_printer-1 printing \$1 \;;
#X obj 546 25 r toggle-0;
#X obj 546 50 bang;
#X obj 546 75 f;
#X obj 586 75 + 1;
#X obj 517 406 sel 0 1 2 3 4 5 6;
#X obj 80 152 bng 15 250 50 0 empty empty empty 17 7 0 10 -262144 -1
-1;
#X msg 86 173 0;
#X obj 595 52 r reset-toggle-0;
#X obj 86 198 s reset-toggle-0;
#X connect 1 0 11 0;
#X connect 2 0 9 0;
#X connect 3 0 10 0;
#X connect 6 0 8 0;
#X connect 16 0 1 0;
#X connect 17 0 2 0;
#X connect 18 0 19 0;
#X connect 18 0 22 0;
#X connect 20 0 21 0;
#X connect 21 0 18 0;
#X connect 22 0 21 0;
#X connect 24 0 25 0;
#X connect 25 0 23 0;
#X connect 25 1 24 0;
#X connect 26 0 27 0;
#X connect 27 0 35 0;
#X connect 27 1 34 0;
#X connect 28 0 30 0;
#X connect 28 0 32 0;
#X connect 32 0 31 0;
#X connect 33 0 32 1;
#X connect 36 0 37 0;
#X connect 38 0 39 0;
#X connect 39 0 40 0;
#X connect 40 0 41 0;
#X connect 40 0 42 0;
#X connect 41 0 40 1;
#X connect 42 0 36 0;
#X connect 42 1 26 0;
#X connect 42 2 2 0;
#X connect 42 3 3 0;
#X connect 42 4 3 0;
#X connect 42 5 28 0;
#X connect 43 0 44 0;
#X connect 44 0 46 0;
#X connect 45 0 40 1;
#X coords 0 -1 1 1 200 170 2 10 6;
