#N canvas 7 98 735 497 12;
#X obj 261 39 inlet;
#X obj 247 147 int;
#X obj 244 175 change;
#X obj 421 239 array define \$1-sample;
#X obj 244 264 array size \$1-sample;
#X obj 245 201 t f f f;
#X obj 263 88 sel -1;
#X msg 414 213 normalize 1;
#X obj 240 115 bng 15 250 50 0 empty empty empty 17 7 0 10 -262144
-1 -1;
#X obj 85 40 inlet~;
#X obj 86 171 tabwrite~ \$1-sample;
#X obj 354 169 del 1 1 samp;
#X obj 324 139 f;
#X obj 109 111 env~;
#X floatatom 109 136 5 0 0 0 - - -, f 5;
#X connect 0 0 6 0;
#X connect 1 0 2 0;
#X connect 2 0 5 0;
#X connect 5 0 4 0;
#X connect 5 2 12 1;
#X connect 6 0 8 0;
#X connect 6 0 10 0;
#X connect 6 0 12 0;
#X connect 6 1 1 0;
#X connect 7 0 3 0;
#X connect 9 0 10 0;
#X connect 9 0 13 0;
#X connect 11 0 7 0;
#X connect 12 0 11 0;
#X connect 13 0 14 0;
