#N canvas 0 22 893 652 12;
#X obj 20 20 cnv 15 120 135 empty empty complexmodGui 8 8 0 10 -228856
-1 0;
#X obj 111 22 tgl 15 0 empty empty sw 17 7 0 10 -262144 -1 -1 0 1;
#X msg 641 352 switch \$1;
#X msg 448 314 spat \$1;
#X obj 26 136 hsl 50 15 -1 1 0 0 empty empty spat 14 8 0 10 -262144
-1 -1 0 1;
#X obj 85 136 hsl 50 15 0.01 1 1 0 empty empty spat-amp 0 8 0 10 -262144
-1 -1 0 1;
#X msg 523 314 amp \$1;
#X obj 20 20 bng 8 250 50 0 \$0 \$0- empty 17 7 0 8 -262144 -1 -1;
#X obj 374 53 fd_visera 1;
#X msg 374 28 complexmod;
#X obj 764 171 bng 10 250 50 0 empty empty empty 17 7 0 10 -258113
-1 -1;
#X obj 728 87 _spatpanic;
#X msg 728 112 1;
#X msg 748 61 0;
#X obj 513 191 metro 1000;
#X obj 513 216 t b b;
#X obj 547 245 random 2000;
#X obj 547 270 + 20000;
#X obj 484 471 s complexmod;
#X obj 490 433 list trim;
#X obj 172 509 list prepend assign, f 12;
#X obj 23 47 bng 15 250 50 0 empty empty empty 17 7 0 10 -262144 -1
-1;
#X obj 28 440 t f b;
#X obj 29 405 pack;
#X obj 46 40 fd_6x6;
#X obj 23 67 vradio 15 1 0 4 empty empty empty 0 -8 0 10 -262144 -1
-1 1;
#X msg 21 371 0 \, 1 \, 2 \, 3 \, 4 \, 5;
#X msg 55 272 6;
#X obj 55 297 fd_iterate;
#X msg 55 322 \$1 \$1;
#X msg 151 271 6;
#X obj 71 217 sel 0 1 2 3;
#X obj 151 296 fd_iterate;
#X obj 151 321 t f f;
#X obj 204 348 -;
#X obj 151 346 pack;
#X msg 204 323 5 \$1;
#X msg 259 213 6;
#X obj 259 238 fd_iterate;
#X obj 259 263 t f f;
#X obj 260 379 pack;
#X obj 303 330 mod 6;
#X obj 298 277 + 3;
#X obj 298 302 * 1;
#X msg 337 379 0 3 \, 1 2 \, 2 5 \, 3 4 \, 4 0 \, 5 1;
#X obj 67 406 random 6;
#X msg 173 416 0 set adc-\$1 \, 1 set adc-\$2 \, 2 set adc-\$3 \, 3
set adc-\$4 \, 4 set adc-\$5 \, 5 set adc-\$6, f 20;
#X connect 1 0 2 0;
#X connect 1 0 14 0;
#X connect 2 0 19 0;
#X connect 3 0 19 0;
#X connect 4 0 3 0;
#X connect 5 0 6 0;
#X connect 6 0 19 0;
#X connect 7 0 9 0;
#X connect 9 0 8 0;
#X connect 10 0 11 0;
#X connect 10 0 13 0;
#X connect 11 0 12 0;
#X connect 12 0 1 0;
#X connect 13 0 1 0;
#X connect 14 0 15 0;
#X connect 15 0 21 0;
#X connect 15 1 16 0;
#X connect 16 0 17 0;
#X connect 17 0 14 1;
#X connect 19 0 18 0;
#X connect 20 0 19 0;
#X connect 21 0 26 0;
#X connect 22 0 23 0;
#X connect 22 1 45 0;
#X connect 23 0 24 0;
#X connect 24 0 46 0;
#X connect 25 0 31 0;
#X connect 26 0 22 0;
#X connect 27 0 28 0;
#X connect 28 0 29 0;
#X connect 29 0 24 0;
#X connect 30 0 32 0;
#X connect 31 0 27 0;
#X connect 31 1 30 0;
#X connect 31 2 37 0;
#X connect 31 3 44 0;
#X connect 32 0 33 0;
#X connect 33 0 35 0;
#X connect 33 1 36 0;
#X connect 34 0 35 1;
#X connect 35 0 24 0;
#X connect 36 0 34 0;
#X connect 37 0 38 0;
#X connect 38 0 39 0;
#X connect 39 0 40 0;
#X connect 39 1 42 0;
#X connect 40 0 24 0;
#X connect 41 0 40 1;
#X connect 42 0 43 0;
#X connect 43 0 41 0;
#X connect 44 0 24 0;
#X connect 45 0 23 1;
#X connect 46 0 20 0;
#X coords 0 -1 1 1 120 135 2 20 20;
