#N canvas 19 477 315 62 12;
#X declare -path ~/Documents/fd_lib;
#X declare -path ../lib;
#X declare -path ~/Documents/dep/tID;
#X declare -stdlib iemmatrix;
#X obj 7 6 fd_netsend;
#N canvas 1050 241 210 168 AUDIO 1;
#N canvas 0 22 454 473 dependencies 0;
#X text 18 17 declare all dependencies here;
#X obj 19 43 cnv 15 400 400 empty empty empty 20 12 0 14 -233017 -66577
0;
#X obj 33 55 declare -path ~/Documents/fd_lib;
#X obj 33 77 declare -path ../lib;
#X obj 35 102 declare -path ~/Documents/dep/tID;
#X obj 35 126 declare -stdlib iemmatrix;
#X restore 7 6 pd dependencies _______;
#N canvas 15 45 294 150 tables 1;
#X text 12 30 place all [array] objects here;
#X obj 19 56 fd_windows \$0 1024;
#X restore 7 69 pd tables _____________;
#N canvas 828 456 339 250 gui-glue 0;
#X text 19 20 place all gui related glue-type messages;
#X obj 27 55 r oscillator-freq;
#X obj 27 99 s report;
#X text 87 104 <-- sending to <report> will print to console, f 24
;
#X obj 27 77 list prepend frequency;
#X connect 1 0 4 0;
#X connect 4 0 2 0;
#X restore 7 90 pd gui-glue ___________;
#N canvas 0 22 254 322 presets 0;
#X obj 29 13 r pd-dsp-started;
#X obj 29 35 spigot 1;
#X obj 29 57 t b b;
#X msg 67 59 0;
#X obj 29 123 bng 15 250 50 0 empty empty empty 17 7 0 10 -262144 -1
-1;
#X text 50 123 Edit the following message with your on-load presets
, f 27;
#X msg 29 182 \; \; pd-AUDIO_GUI vis 1 \; \; main-vol-set 0 \;;
#X connect 0 0 1 0;
#X connect 1 0 2 0;
#X connect 2 0 4 0;
#X connect 2 1 3 0;
#X connect 3 0 1 1;
#X connect 4 0 6 0;
#X restore 7 111 pd presets ____________;
#N canvas 0 22 420 225 mixer 0;
#X obj 25 92 *~;
#N canvas 0 22 231 296 main-vol 0;
#X obj 30 198 pack f 10;
#X obj 30 220 line~;
#X obj 30 11 r main-vol;
#X obj 109 19 r mute;
#X obj 30 93 t f f;
#X obj 57 118 sel 0;
#X msg 48 150 0;
#X obj 98 194 s main-vol-set;
#X msg 98 167 0.721552;
#X obj 109 41 tgl 15 0 empty empty empty 17 7 0 10 -262144 -1 -1 0
1;
#X obj 109 61 sel 1 0;
#X obj 30 242 outlet~;
#X obj 98 117 list prepend set;
#X obj 98 139 list trim;
#X connect 0 0 1 0;
#X connect 1 0 11 0;
#X connect 2 0 4 0;
#X connect 3 0 9 0;
#X connect 4 0 0 0;
#X connect 4 1 5 0;
#X connect 5 1 12 0;
#X connect 6 0 0 0;
#X connect 6 0 7 0;
#X connect 8 0 7 0;
#X connect 9 0 10 0;
#X connect 10 0 6 0;
#X connect 10 1 8 0;
#X connect 12 0 13 0;
#X connect 13 0 8 0;
#X restore 303 57 pd main-vol;
#X obj 27 29 catch~ dacout-1;
#X obj 166 29 catch~ dacout-2;
#X obj 23 128 dac~ 1;
#X obj 161 131 dac~ 2;
#X obj 166 94 *~;
#X obj 268 142 - 100;
#X obj 268 167 s mainvu;
#X obj 268 117 env~ 2048;
#X connect 0 0 4 0;
#X connect 0 0 9 0;
#X connect 1 0 0 1;
#X connect 1 0 6 1;
#X connect 2 0 0 0;
#X connect 3 0 6 0;
#X connect 6 0 5 0;
#X connect 6 0 9 0;
#X connect 7 0 8 0;
#X connect 9 0 7 0;
#X restore 7 132 pd mixer ______________;
#N canvas 288 116 888 544 signals 0;
#X obj 352 481 throw~ dacout-1;
#X obj 491 480 throw~ dacout-2;
#X obj 134 43 list split 3;
#X obj 134 20 r midi-video;
#X obj 134 65 unpack;
#X obj 134 87 spigot;
#X obj 134 109 bng 15 250 50 0 empty empty empty 17 7 0 10 -262144
-1 -1;
#X obj 134 129 tgl 15 0 empty empty empty 17 7 0 10 -262144 -1 -1 0
1;
#X obj 39 43 list split 3;
#X obj 39 21 r midi-elec;
#X obj 39 65 unpack;
#X obj 39 87 spigot;
#X obj 39 109 bng 15 250 50 0 empty empty empty 17 7 0 10 -262144 -1
-1;
#X obj 39 129 tgl 15 0 empty empty empty 17 7 0 10 -262144 -1 -1 0
1;
#N canvas 448 134 587 474 sound 0;
#X obj 258 23 inlet~;
#X obj 32 26 inlet~;
#X obj 259 236 list trim;
#X obj 259 186 list prepend 0;
#X obj 302 112 bng 15 250 50 0 empty empty empty 17 7 0 10 -262144
-1 -1;
#X obj 259 211 list prepend matrix 2 128;
#X obj 259 161 cepstrum~ 512;
#X obj 32 233 list trim;
#X obj 32 183 list prepend 0;
#X obj 32 208 list prepend matrix 2 128;
#X obj 255 267 mtx_.^ 2;
#X obj 36 262 mtx_.^ 2;
#X obj 42 292 mtx_+;
#X obj 41 317 list split 3;
#X obj 32 152 cepstrum~ 512;
#X obj 369 7 inlet;
#X obj 119 439 array define sqrt 128;
#X obj 415 137 switch~ 512;
#X obj 369 32 route bang float;
#X obj 370 70 t b b;
#X msg 385 95 0;
#X obj 166 35 bang~;
#X obj 159 74 spigot;
#X obj 173 105 t b b;
#X obj 82 347 t b a;
#X msg 42 380 normalize 1;
#X connect 0 0 6 0;
#X connect 1 0 14 0;
#X connect 2 0 10 0;
#X connect 3 0 5 0;
#X connect 4 0 17 0;
#X connect 4 0 23 0;
#X connect 5 0 2 0;
#X connect 6 0 3 0;
#X connect 7 0 11 0;
#X connect 8 0 9 0;
#X connect 9 0 7 0;
#X connect 10 0 12 1;
#X connect 11 0 12 0;
#X connect 12 0 13 0;
#X connect 13 1 24 0;
#X connect 14 0 8 0;
#X connect 15 0 18 0;
#X connect 18 0 19 0;
#X connect 18 1 17 0;
#X connect 18 1 22 1;
#X connect 19 0 4 0;
#X connect 19 1 20 0;
#X connect 20 0 17 0;
#X connect 20 0 22 1;
#X connect 21 0 22 0;
#X connect 22 0 23 0;
#X connect 23 0 14 0;
#X connect 23 1 6 0;
#X connect 24 1 16 0;
#X connect 25 0 16 0;
#X restore 43 395 pd sound;
#X obj 612 25 fd_tabswitch \$0;
#X msg 612 150 set \$1;
#X obj 30 255 adc~ 1;
#N canvas 0 22 450 300 testing 0;
#X obj 64 123 adc~ 1;
#X obj 54 175 tabwrite~ testing;
#X obj 54 213 array define testing;
#X msg 131 82 44100;
#X obj 131 104 * 10;
#X msg 131 126 resize \$1;
#X obj 143 151 s testing;
#X msg 36 66 bang;
#X obj 35 94 del 1000;
#N canvas 0 22 450 300 play 0;
#X obj 44 70 array size testing;
#X obj 44 92 t f f;
#X obj 43 47 inlet;
#X obj 44 114 / 44.1;
#X msg 44 136 0 \, 1 \$1;
#X obj 44 158 line~;
#X obj 44 180 *~;
#X obj 113 138 - 3;
#X obj 44 202 +~ 1;
#X obj 44 224 tabread4~ testing;
#X obj 44 246 outlet~;
#X connect 0 0 1 0;
#X connect 1 0 3 0;
#X connect 1 1 7 0;
#X connect 2 0 0 0;
#X connect 3 0 4 0;
#X connect 4 0 5 0;
#X connect 5 0 6 0;
#X connect 6 0 8 0;
#X connect 7 0 6 1;
#X connect 8 0 9 0;
#X connect 9 0 10 0;
#X restore 248 189 pd play;
#X obj 256 157 bng 15 250 50 0 empty empty empty 17 7 0 10 -262144
-1 -1;
#X msg 196 60 normalize 1;
#X msg 309 140 1;
#X obj 309 162 metro 10000;
#X msg 347 139 0;
#X obj 248 214 outlet~;
#X obj 275 96 del 10000;
#X obj 127 10 inlet;
#X obj 42 41 t b b;
#X obj 129 36 route bang stop;
#X obj 361 208 outlet;
#X connect 0 0 1 0;
#X connect 3 0 4 0;
#X connect 4 0 5 0;
#X connect 5 0 6 0;
#X connect 7 0 8 0;
#X connect 8 0 1 0;
#X connect 8 0 16 0;
#X connect 9 0 15 0;
#X connect 10 0 9 0;
#X connect 11 0 6 0;
#X connect 12 0 13 0;
#X connect 13 0 10 0;
#X connect 13 0 20 0;
#X connect 14 0 13 0;
#X connect 16 0 12 0;
#X connect 17 0 19 0;
#X connect 18 0 7 0;
#X connect 18 1 14 0;
#X connect 19 0 18 0;
#X connect 19 1 14 0;
#X restore 614 268 pd testing;
#X msg 600 227 bang;
#X msg 655 235 stop;
#X obj 734 270 bng 15 250 50 0 empty empty empty 17 7 0 10 -262144
-1 -1;
#X obj 655 308 r tab-set-fft;
#X obj 100 207 fd_fmosc 100 10;
#X floatatom 97 181 5 0 0 0 - - -, f 5;
#X floatatom 202 162 5 0 0 0 - - -, f 5;
#X floatatom 225 184 5 0 0 0 - - -, f 5;
#X obj 340 163 bark~ 1024 64 0.5;
#X msg 400 138 thresh -1 5.5;
#X msg 376 95 mask 4 0.75;
#X msg 361 75 debounce 200;
#X msg 386 118 filter_range 0 45;
#X obj 266 228 tgl 15 0 empty empty empty 17 7 0 10 -262144 -1 -1 1
1;
#X obj 266 253 metro 40;
#X obj 266 278 f;
#X obj 299 280 + 1;
#X obj 266 303 mod 10;
#N canvas 729 224 450 300 ifft 0;
#X obj 221 57 tabreceive~ sqrt;
#X obj 201 106 *~;
#X obj 116 145 rifft~;
#X obj 55 240 rifft~;
#X obj 55 265 outlet~;
#X obj 243 85 tabreceive~ \$0-han;
#X obj 26 34 inlet~;
#X obj 36 90 *~;
#X obj 57 61 tabreceive~ \$0-han;
#X obj 37 146 rfft~;
#X obj 52 193 *~;
#X obj 87 194 *~;
#X obj 282 24 block~ 512 4;
#X connect 0 0 1 0;
#X connect 1 0 2 0;
#X connect 2 0 10 1;
#X connect 2 0 11 1;
#X connect 3 0 4 0;
#X connect 5 0 1 1;
#X connect 6 0 7 0;
#X connect 7 0 9 0;
#X connect 8 0 7 1;
#X connect 9 0 10 0;
#X connect 9 1 11 0;
#X connect 10 0 3 0;
#X connect 11 0 3 1;
#X restore 176 291 pd ifft;
#X obj 266 328 t f b b;
#X obj 265 418 pack f f f;
#X obj 265 468 env~;
#X floatatom 265 493 5 0 0 0 - - -, f 5;
#X obj 383 368 random 100;
#X obj 383 393 / 100;
#X obj 282 365 random 100;
#X obj 282 390 + 40;
#X floatatom 424 300 5 0 0 0 - - -, f 5;
#X obj 265 443 clone _gr1 10 \$0;
#X obj 731 21 fd_tabswitch \$0;
#X msg 731 146 set \$1;
#X obj 731 171 s tab-set-fft;
#X obj 612 175 s tab-set-gr;
#X obj 106 306 bng 15 250 50 0 empty empty single 17 7 0 10 -262144
-1 -1;
#X obj 123 356 tgl 15 0 empty empty cont 17 7 0 10 -262144 -1 -1 0
1;
#X floatatom 458 328 5 0 0 0 - - -, f 5;
#X floatatom 354 327 5 0 0 0 - - -, f 5;
#X connect 2 0 4 0;
#X connect 3 0 2 0;
#X connect 4 0 5 0;
#X connect 4 1 5 1;
#X connect 5 0 6 0;
#X connect 6 0 7 0;
#X connect 8 0 10 0;
#X connect 9 0 8 0;
#X connect 10 0 11 0;
#X connect 10 1 11 1;
#X connect 11 0 12 0;
#X connect 12 0 13 0;
#X connect 15 0 16 0;
#X connect 16 0 51 0;
#X connect 17 0 14 0;
#X connect 18 1 21 0;
#X connect 19 0 18 0;
#X connect 20 0 18 0;
#X connect 23 0 14 1;
#X connect 24 0 23 0;
#X connect 25 0 23 1;
#X connect 26 0 23 2;
#X connect 28 0 27 0;
#X connect 29 0 27 0;
#X connect 30 0 27 0;
#X connect 31 0 27 0;
#X connect 32 0 33 0;
#X connect 33 0 34 0;
#X connect 34 0 35 0;
#X connect 34 0 36 0;
#X connect 35 0 34 1;
#X connect 36 0 38 0;
#X connect 38 0 39 0;
#X connect 38 1 44 0;
#X connect 38 2 42 0;
#X connect 39 0 47 0;
#X connect 40 0 41 0;
#X connect 42 0 43 0;
#X connect 43 0 39 2;
#X connect 44 0 45 0;
#X connect 45 0 39 1;
#X connect 46 0 45 1;
#X connect 46 0 33 1;
#X connect 47 0 40 0;
#X connect 47 0 0 0;
#X connect 47 0 1 0;
#X connect 48 0 49 0;
#X connect 49 0 50 0;
#X connect 52 0 14 2;
#X connect 53 0 14 2;
#X connect 54 0 42 1;
#X connect 55 0 44 1;
#X restore 7 48 pd signals ____________;
#N canvas 0 22 450 300 from-video-pd 0;
#X obj 20 77 t b a;
#X obj 20 254 bng 15 250 50 0 empty empty empty 17 7 0 10 -262144 -1
-1;
#X text 46 256 <-- use this if you want to bang things <after> each
incoming data stream is passed;
#X obj 161 136 s blabla1;
#X obj 20 17 r from-video-pd;
#X text 125 18 <-- this receive is dedicated to the incoming data from
<MAIN_VIDEO_PD>, f 39;
#X obj 47 103 route midi-elec midi-video blabla1;
#X obj 104 163 s midi-video;
#X obj 47 190 s midi-elec;
#X connect 0 0 1 0;
#X connect 0 1 6 0;
#X connect 4 0 0 0;
#X connect 6 0 8 0;
#X connect 6 1 7 0;
#X connect 6 2 3 0;
#X restore 7 27 pd from-video-pd ______;
#X restore 109 39 pd AUDIO;
#N canvas 843 531 441 233 AUDIO_GUI 1;
#X obj 354 29 vsl 15 128 0.01 1 1 0 main-vol main-vol-set main-vol
0 -9 0 10 -262144 -1 -1 11800 1;
#X obj 22 87 s to-video-pd;
#X msg 21 29 start;
#X msg 35 53 stop;
#X msg 22 151 \; pd-signals vis 1;
#X obj 382 24 bng 15 250 50 0 mute mute-set mute 17 7 0 10 -262144
-1 -1;
#X msg 20 184 \; pd-AUDIO vis 1;
#X msg 160 181 \; pd-tables vis 1;
#X obj 306 35 vu 15 120 mainvu mainvu -1 -8 0 10 -66577 -1 1 0;
#X connect 2 0 1 0;
#X connect 3 0 1 0;
#X restore 7 39 pd AUDIO_GUI;
