#N canvas 529 23 703 755 10;
#X obj 196 204 line~;
#X obj 335 85 r g-go-\$1;
#X obj 335 128 t b b;
#X msg 339 157 0;
#X msg 373 155 1;
#X obj 339 224 line~;
#X obj 339 268 +~ 1;
#X obj 36 469 *~;
#X obj 408 227 r g-window-\$1;
#X msg 408 271 set \$1;
#X symbolatom 408 252 10 0 0 0 - - -, f 10;
#X obj 36 658 outlet~;
#X obj 35 16 inlet;
#X obj 339 246 *~ 2046;
#X obj 530 15 inlet;
#X obj 373 198 pack f 100;
#X obj 35 68 unpack;
#X obj 196 179 pack f 10;
#X obj 248 155 max 5;
#X obj 248 114 / 2;
#X obj 248 136 int;
#X obj 430 126 r g-length;
#X obj 430 168 max 10;
#X obj 36 370 *~;
#X obj 60 273 sig~ 1;
#X obj 60 295 /~;
#X obj 60 338 osc~;
#X obj 127 280 loadbang;
#X obj 127 302 random 5000;
#X obj 127 324 - 2500;
#X obj 127 346 / 1000;
#X obj 60 149 r z-violin-wavit;
#X obj 36 129 sig~;
#X obj 36 222 tabosc4~ 1-wavit;
#X obj 35 93 t f f;
#X text 69 370 am;
#X obj 196 226 +~ 200;
#X obj 60 317 *~ 5;
#X obj 36 491 vcf~ 1 1;
#X obj 36 525 *~ 3;
#X msg 61 195 set \$1;
#X text 73 524 <-- compensate amplitude;
#X obj 339 298 tabread4~ \$2-han;
#X obj 484 526 fd_switch;
#X obj 518 597 switch~;
#X obj 36 547 *~;
#X connect 0 0 36 0;
#X connect 1 0 2 0;
#X connect 2 0 4 0;
#X connect 2 1 3 0;
#X connect 3 0 5 0;
#X connect 4 0 15 0;
#X connect 5 0 13 0;
#X connect 6 0 42 0;
#X connect 7 0 38 0;
#X connect 8 0 10 0;
#X connect 9 0 42 0;
#X connect 10 0 9 0;
#X connect 12 0 16 0;
#X connect 13 0 6 0;
#X connect 14 0 43 0;
#X connect 15 0 5 0;
#X connect 16 0 34 0;
#X connect 17 0 0 0;
#X connect 18 0 17 1;
#X connect 19 0 20 0;
#X connect 20 0 18 0;
#X connect 21 0 22 0;
#X connect 22 0 19 0;
#X connect 22 0 15 1;
#X connect 23 0 7 0;
#X connect 24 0 25 0;
#X connect 25 0 37 0;
#X connect 26 0 23 1;
#X connect 27 0 28 0;
#X connect 28 0 29 0;
#X connect 29 0 30 0;
#X connect 30 0 26 1;
#X connect 31 0 40 0;
#X connect 32 0 33 0;
#X connect 33 0 23 0;
#X connect 34 0 32 0;
#X connect 34 1 17 0;
#X connect 36 0 25 1;
#X connect 36 0 38 1;
#X connect 37 0 26 0;
#X connect 38 0 39 0;
#X connect 39 0 45 0;
#X connect 40 0 33 0;
#X connect 42 0 7 1;
#X connect 43 0 45 1;
#X connect 43 1 44 0;
#X connect 45 0 11 0;
