#N canvas 502 63 605 568 10;
#X declare -path ~/Documents/fd_lib;
#X obj 124 133 sel 0 1 2, f 10;
#N canvas 90 22 502 411 complex-event 0;
#X obj 50 16 inlet;
#X obj 322 358 outlet;
#N canvas 209 32 369 572 frullato 0;
#X obj 36 10 inlet;
#X obj 42 148 random 100;
#X obj 42 171 fd_gauss 50 5 0.02;
#X obj 40 104 / 10;
#X obj 40 126 t b f;
#X obj 45 374 list prepend -pit;
#X obj 45 396 list append -nhs 0;
#X obj 45 448 list append -txt frull.;
#X obj 45 470 outlet;
#X obj 77 38 r \$0-en;
#X obj 40 82 f;
#X obj 47 288 * 23;
#X obj 46 310 + \$3;
#X obj 46 332 max \$3;
#X obj 46 354 min \$2;
#X obj 45 418 list append -trm 32;
#X obj 42 216 fd_round 0.5 10;
#X connect 0 0 10 0;
#X connect 1 0 2 0;
#X connect 2 0 16 0;
#X connect 3 0 4 0;
#X connect 4 0 1 0;
#X connect 4 1 2 2;
#X connect 5 0 6 0;
#X connect 6 0 15 0;
#X connect 7 0 8 0;
#X connect 9 0 10 1;
#X connect 10 0 3 0;
#X connect 11 0 12 0;
#X connect 12 0 13 0;
#X connect 13 0 14 0;
#X connect 14 0 5 0;
#X connect 15 0 7 0;
#X connect 16 0 11 0;
#X restore 139 183 pd frullato;
#N canvas 783 22 418 718 sing 0;
#X obj 43 301 random 100;
#X obj 43 344 fd_gauss 50 5 0.02;
#X obj 346 318 * 3;
#X obj 50 431 * 12;
#X obj 171 303 random 100;
#X obj 171 346 fd_gauss 50 5 0.02;
#X obj 65 502 +;
#X obj 131 469 t f f;
#X obj 130 163 cos;
#X obj 130 185 * 0.5;
#X obj 130 207 + 0.5;
#X obj 59 115 * 6.28;
#X obj 58 135 t f f;
#X obj 57 195 * 0.5;
#X obj 57 217 + 0.5;
#X obj 57 173 sin;
#X obj 69 531 pack;
#X obj 74 15 inlet;
#X obj 83 649 outlet;
#X obj 142 231 t b f;
#X obj 57 239 t b f;
#X obj 65 92 t f f;
#X obj 132 425 * 13;
#X obj 68 569 list prepend -pit;
#X obj 66 593 list append -nhs 0;
#X obj 66 615 list append -txt sing;
#X obj 50 453 + 1;
#X obj 78 452 max 1;
#X obj 78 474 min 12;
#X msg 123 44 bang;
#X obj 74 66 / 100;
#X obj 43 323 / 1;
#X obj 171 325 / 1;
#X obj 344 295 / 1;
#X obj 90 261 * 12;
#X obj 190 260 * 12;
#X obj 127 15 r \$0-en;
#X obj 74 44 f;
#X obj 346 340 + \$3;
#X obj 189 451 max \$3;
#X obj 189 473 min \$2;
#X obj 131 447 + \$3;
#X obj 43 389 fd_round 0.5 10;
#X obj 171 391 fd_round 0.5 10;
#X connect 0 0 31 0;
#X connect 1 0 42 0;
#X connect 2 0 38 0;
#X connect 3 0 26 0;
#X connect 4 0 32 0;
#X connect 5 0 43 0;
#X connect 6 0 16 0;
#X connect 7 0 6 1;
#X connect 7 1 16 1;
#X connect 8 0 9 0;
#X connect 9 0 10 0;
#X connect 10 0 19 0;
#X connect 11 0 12 0;
#X connect 12 0 15 0;
#X connect 12 1 8 0;
#X connect 13 0 14 0;
#X connect 14 0 20 0;
#X connect 15 0 13 0;
#X connect 16 0 23 0;
#X connect 17 0 37 0;
#X connect 19 0 4 0;
#X connect 19 1 35 0;
#X connect 20 0 0 0;
#X connect 20 1 34 0;
#X connect 21 0 11 0;
#X connect 21 1 33 0;
#X connect 22 0 41 0;
#X connect 23 0 24 0;
#X connect 24 0 25 0;
#X connect 25 0 18 0;
#X connect 26 0 27 0;
#X connect 27 0 28 0;
#X connect 28 0 6 0;
#X connect 29 0 37 0;
#X connect 30 0 21 0;
#X connect 31 0 1 0;
#X connect 32 0 5 0;
#X connect 33 0 2 0;
#X connect 34 0 1 2;
#X connect 35 0 5 2;
#X connect 36 0 37 1;
#X connect 37 0 30 0;
#X connect 38 0 41 1;
#X connect 39 0 40 0;
#X connect 40 0 7 0;
#X connect 41 0 39 0;
#X connect 42 0 3 0;
#X connect 43 0 22 0;
#X restore 245 183 pd sing;
#X obj 46 93 sel 0 1 2 3;
#X obj 48 49 random 4;
#X obj 90 343 outlet;
#X obj 20 138 random 2;
#X obj 20 161 * 6;
#X obj 394 83 r \$0-en;
#X obj 21 183 _trino \$2 \$3 \$4;
#X obj 319 180 _scales \$2 \$3;
#X connect 0 0 5 0;
#X connect 2 0 6 0;
#X connect 3 0 6 0;
#X connect 4 0 7 0;
#X connect 4 1 2 0;
#X connect 4 2 3 0;
#X connect 4 3 11 0;
#X connect 5 0 4 0;
#X connect 7 0 8 0;
#X connect 8 0 10 0;
#X connect 9 0 11 1;
#X connect 10 0 6 0;
#X connect 10 1 1 0;
#X connect 11 0 6 0;
#X connect 11 1 1 0;
#X restore 225 165 pd complex-event;
#N canvas 0 22 867 700 simple-event 0;
#X obj 193 278 random 100;
#X obj 193 301 fd_gauss 50 5 0.02;
#X obj 90 129 list prepend -nhs;
#X obj 142 100 t a a;
#X obj 439 543 list prepend -pit;
#X obj 127 624 list prepend;
#X obj 440 571 list append, f 25;
#X obj 654 469 list prepend -txt;
#X msg 663 504 bang;
#X obj 240 214 / 10;
#X obj 243 238 t b f f;
#X obj 313 289 / 10;
#X obj 315 312 * 3;
#X obj 153 28 inlet;
#X obj 127 646 outlet;
#X text 97 50 notehead information;
#X text 390 71 notehead determines type of event and pitch range;
#X text 249 454 range;
#X text 355 428 maxima;
#N canvas 769 109 450 300 restrict 0;
#X obj 57 7 inlet;
#X obj 107 214 outlet;
#X obj 57 108 spigot 1;
#X msg 93 129 0;
#X obj 315 80 t a b;
#X obj 337 123 f;
#X obj 361 125 + 1;
#X msg 321 216 1;
#X obj 57 130 t b b;
#X obj 321 194 sel 10;
#X obj 389 125 mod 11;
#X obj 57 29 sel 3;
#X msg 57 152 3;
#X connect 0 0 11 0;
#X connect 2 0 8 0;
#X connect 3 0 2 1;
#X connect 4 0 1 0;
#X connect 4 1 5 0;
#X connect 5 0 6 0;
#X connect 5 0 9 0;
#X connect 6 0 10 0;
#X connect 7 0 2 1;
#X connect 8 0 12 0;
#X connect 8 1 3 0;
#X connect 9 0 7 0;
#X connect 10 0 5 1;
#X connect 11 0 2 0;
#X connect 11 1 4 0;
#X connect 12 0 1 0;
#X restore 303 42 pd restrict;
#X obj 286 190 r \$0-en;
#X obj 240 192 f;
#X obj 142 66 fd_r 0 3 8;
#X obj 305 99 sel 0 3 8, f 14;
#X text 298 82 pitch (0) \, slap (3) \, teeth-on-reed (8), f 68;
#X msg 680 167 symbol teeth;
#X text 379 42 restricts consecutive slaps;
#X obj 315 493 moses 60;
#X obj 314 515 int;
#X msg 510 415 79;
#X obj 401 134 t b b;
#X obj 340 135 t b b b;
#X obj 286 134 t b b b;
#X msg 410 349 12;
#X obj 315 334 + \$3;
#X obj 315 427 + \$3;
#X obj 315 471 max \$3;
#X obj 269 401 * \$4;
#X obj 369 314 f \$4;
#X obj 315 449 min \$2;
#X obj 684 238 fd_once;
#X obj 715 283 symbol;
#X obj 684 200 t b a;
#X obj 562 240 fd_once;
#X obj 611 283 symbol;
#X obj 562 202 t b a;
#X msg 558 169 symbol slap;
#X obj 748 387 fd_once;
#X obj 797 430 symbol;
#X obj 748 349 t b a;
#X msg 744 316 symbol sim;
#X obj 193 346 fd_round 0.5 10;
#X connect 0 0 1 0;
#X connect 1 0 51 0;
#X connect 2 0 5 0;
#X connect 3 0 2 0;
#X connect 3 1 19 0;
#X connect 4 0 6 0;
#X connect 5 0 14 0;
#X connect 6 0 5 1;
#X connect 7 0 6 1;
#X connect 8 0 6 1;
#X connect 9 0 10 0;
#X connect 10 0 0 0;
#X connect 10 1 1 2;
#X connect 10 2 11 0;
#X connect 11 0 12 0;
#X connect 12 0 34 0;
#X connect 13 0 22 0;
#X connect 19 0 23 0;
#X connect 20 0 21 1;
#X connect 21 0 9 0;
#X connect 22 0 3 0;
#X connect 23 0 32 0;
#X connect 23 1 31 0;
#X connect 23 2 30 0;
#X connect 25 0 42 0;
#X connect 27 0 28 0;
#X connect 27 1 4 0;
#X connect 28 0 4 0;
#X connect 29 0 4 0;
#X connect 30 0 29 0;
#X connect 30 1 25 0;
#X connect 31 0 21 0;
#X connect 31 1 33 0;
#X connect 31 2 46 0;
#X connect 32 0 21 0;
#X connect 32 1 38 0;
#X connect 32 2 8 0;
#X connect 32 2 43 1;
#X connect 32 2 40 1;
#X connect 32 2 47 1;
#X connect 33 0 37 1;
#X connect 34 0 35 1;
#X connect 35 0 39 0;
#X connect 36 0 27 0;
#X connect 37 0 35 0;
#X connect 38 0 37 1;
#X connect 39 0 36 0;
#X connect 40 0 41 0;
#X connect 40 0 43 1;
#X connect 40 1 50 0;
#X connect 41 0 7 0;
#X connect 42 0 40 0;
#X connect 42 1 41 1;
#X connect 43 0 44 0;
#X connect 43 0 40 1;
#X connect 43 1 50 0;
#X connect 44 0 7 0;
#X connect 45 0 43 0;
#X connect 45 1 44 1;
#X connect 46 0 45 0;
#X connect 47 0 48 0;
#X connect 47 1 8 0;
#X connect 48 0 7 0;
#X connect 49 0 47 0;
#X connect 49 1 48 1;
#X connect 50 0 49 0;
#X connect 51 0 37 0;
#X restore 112 164 pd simple-event;
#N canvas 0 22 450 300 silence 0;
#X obj 33 123 list append -1;
#X obj 33 145 list prepend -pit;
#X obj 36 72 inlet;
#X obj 33 167 outlet;
#X connect 0 0 1 0;
#X connect 1 0 3 0;
#X connect 2 0 0 0;
#X restore 30 165 pd silence;
#X obj 485 22 inlet;
#X obj 485 68 s \$0-en;
#X obj 485 44 * 100;
#X obj 16 7 declare -path ~/Documents/fd_lib;
#X obj 136 493 outlet;
#X obj 119 31 inlet;
#X obj 136 103 fd_listout;
#X obj 101 80 list split 1;
#X obj 131 391 list prepend i\$1 input;
#X obj 119 53 route \$1 7;
#X obj 236 240 list prepend -dur 1;
#X obj 169 237 _duration;
#X obj 233 311 _dynamic;
#X obj 55 247 _duration;
#X obj 389 109 s \$0-en1;
#X obj 237 192 r \$0-en1;
#X obj 75 201 r \$0-en1;
#X obj 264 267 r \$0-en1;
#X connect 0 0 3 0;
#X connect 0 1 2 0;
#X connect 0 2 1 0;
#X connect 1 0 15 0;
#X connect 1 1 14 0;
#X connect 2 0 15 0;
#X connect 3 0 17 0;
#X connect 4 0 6 0;
#X connect 4 0 18 0;
#X connect 6 0 5 0;
#X connect 9 0 13 0;
#X connect 10 0 0 0;
#X connect 11 1 10 0;
#X connect 12 0 8 0;
#X connect 13 0 11 0;
#X connect 13 1 11 0;
#X connect 14 0 16 0;
#X connect 15 0 16 0;
#X connect 16 0 12 0;
#X connect 17 0 12 0;
#X connect 19 0 15 1;
#X connect 20 0 17 1;
#X connect 21 0 16 1;
