#N canvas 574 64 453 496 10;
#X obj 37 38 inlet;
#X obj 37 60 t a b;
#X obj 37 358 list prepend;
#X obj 37 380 outlet;
#X obj 111 109 fd_markov3;
#X obj 111 131 t f f;
#X obj 311 36 inlet;
#X obj 172 135 sel 0 1 2;
#X msg 145 174 1;
#X msg 178 174 2;
#X obj 220 175 random 8;
#X obj 220 197 + 3;
#X obj 154 289 list prepend -dur;
#X connect 0 0 1 0;
#X connect 1 0 2 0;
#X connect 1 1 4 0;
#X connect 2 0 3 0;
#X connect 4 0 5 0;
#X connect 5 0 4 1;
#X connect 5 1 7 0;
#X connect 6 0 4 2;
#X connect 7 0 8 0;
#X connect 7 1 9 0;
#X connect 7 2 10 0;
#X connect 8 0 12 0;
#X connect 9 0 12 0;
#X connect 10 0 11 0;
#X connect 11 0 12 0;
#X connect 12 0 2 1;
