#N canvas 168 36 1068 733 10;
#X obj 40 187 list split 1;
#X obj 74 216 list trim;
#X obj 722 336 b;
#X obj 74 359 i-define;
#X obj 74 408 route 1;
#X obj 74 430 list split 1;
#X obj 74 268 t b a;
#X obj 125 301 list split 2;
#X obj 692 403 list split 1;
#X obj 108 685 t a b;
#X msg 150 686 1e+06;
#X msg 67 109 clear;
#X obj 40 16 inlet;
#X obj 40 38 t a b;
#X obj 67 63 spigot 1;
#X obj 67 85 t b b;
#X msg 103 85 0;
#X obj 221 29 inlet;
#X obj 251 163 print;
#X obj 67 154 text define _notes-input-\$1;
#X msg 221 73 write _notes-input-\$1-\$2.txt;
#X obj 107 707 text set _notes-input-\$1;
#X obj 108 454 t a a a a a a a;
#X obj 722 621 fd_iterate 7;
#X obj 577 532 _percussion 4;
#X msg 721 649 list i\$1 input -pit -1 -dur 1;
#X obj 159 324 t a a, f 29;
#X text 342 323 first value of en;
#X obj 74 242 route inst;
#X text 717 312 not instrument?;
#X text 626 621 make silences;
#X text 128 360 <-- defines instruments;
#X obj 108 532 _flute 0 92 59 33;
#X obj 217 532 _clarinet 1 97 53 44;
#X obj 345 532 _violin 2 97 55 46;
#X obj 464 532 _cello 3 75 36 40;
#X obj 676 532 _piano 5 6 110 20 60;
#X obj 776 437 list split 2;
#X obj 816 510 t b f;
#X obj 816 532 fd_iterate 7;
#X obj 816 554 pack;
#X msg 782 584 list i\$1 input -pit -1 -dur 1 -tmp 4 \$2;
#X text 859 559 tempo changes;
#X obj 780 125 list split 1;
#X msg 756 232 list i\$1 input -pit -1 -dur 1 -txt \$2;
#X obj 816 488 change;
#X connect 0 1 1 0;
#X connect 1 0 28 0;
#X connect 2 0 23 0;
#X connect 3 0 4 0;
#X connect 4 0 5 0;
#X connect 5 1 22 0;
#X connect 6 0 3 0;
#X connect 6 1 7 0;
#X connect 7 0 43 0;
#X connect 7 1 26 0;
#X connect 8 0 24 1;
#X connect 8 0 32 1;
#X connect 8 0 33 1;
#X connect 8 0 34 1;
#X connect 8 0 35 1;
#X connect 8 0 36 2;
#X connect 8 1 37 0;
#X connect 9 0 21 0;
#X connect 9 1 10 0;
#X connect 10 0 21 1;
#X connect 11 0 19 0;
#X connect 12 0 13 0;
#X connect 13 0 0 0;
#X connect 13 1 14 0;
#X connect 14 0 15 0;
#X connect 15 0 11 0;
#X connect 15 1 16 0;
#X connect 16 0 14 1;
#X connect 17 0 20 0;
#X connect 20 0 18 0;
#X connect 20 0 19 0;
#X connect 22 0 32 0;
#X connect 22 1 33 0;
#X connect 22 2 34 0;
#X connect 22 3 35 0;
#X connect 22 4 24 0;
#X connect 22 5 36 0;
#X connect 22 6 36 1;
#X connect 23 0 25 0;
#X connect 24 0 9 0;
#X connect 25 0 9 0;
#X connect 26 0 3 1;
#X connect 26 1 8 0;
#X connect 28 0 6 0;
#X connect 28 1 2 0;
#X connect 32 0 9 0;
#X connect 33 0 9 0;
#X connect 34 0 9 0;
#X connect 35 0 9 0;
#X connect 36 0 9 0;
#X connect 36 1 9 0;
#X connect 37 1 45 0;
#X connect 38 0 39 0;
#X connect 38 1 40 1;
#X connect 39 0 40 0;
#X connect 40 0 41 0;
#X connect 41 0 9 0;
#X connect 45 0 38 0;
