#N canvas 401 33 601 494 10;
#X declare -path ~/Documents/fd_lib;
#N canvas 0 22 450 300 silence 0;
#X obj 33 123 list append -1;
#X obj 33 145 list prepend -pit;
#X obj 36 72 inlet;
#X obj 33 167 outlet;
#X connect 0 0 1 0;
#X connect 1 0 3 0;
#X connect 2 0 0 0;
#X restore 30 173 pd silence;
#X obj 271 22 inlet;
#X obj 271 68 s \$0-en;
#X obj 271 44 * 100;
#X obj 16 7 declare -path ~/Documents/fd_lib;
#X obj 135 424 outlet;
#X obj 119 31 inlet;
#X obj 136 103 fd_listout;
#X obj 101 80 list split 1;
#X obj 136 125 sel 0 1 2;
#X obj 119 53 route \$1 7;
#N canvas 0 22 433 410 reference 0;
#X text 76 184 3 metals;
#X text 117 97 cymbal;
#X text 167 300 tom;
#X text 213 57 tam-tam;
#X text 89 340 bass drum;
#X msg 100 322 52;
#X msg 83 198 57 60 64;
#X msg 207 206 55 59 62 65;
#X text 218 185 4 woods;
#X msg 219 35 71;
#X msg 118 72 67;
#X msg 165 275 53;
#X restore 431 28 pd reference;
#N canvas 353 22 394 674 chords 0;
#X obj 23 29 inlet;
#X obj 23 51 f;
#X obj 99 14 r \$0-en;
#X obj 23 95 moses 20;
#X obj 23 117 t b;
#X obj 23 139 random 100;
#X obj 23 161 moses 2;
#X obj 63 184 moses 30;
#X obj 213 97 random 100;
#X obj 253 142 moses 30;
#X obj 149 101 t b;
#X obj 213 119 moses 1;
#X obj 23 183 t b;
#X obj 63 206 t b;
#X obj 213 141 t b;
#X obj 253 164 t b;
#X obj 326 196 t b;
#X obj 32 619 list prepend -pit;
#X obj 172 535 list prepend;
#X obj 172 557 t a a;
#X obj 32 598 list;
#X text 134 215 la;
#X obj 31 273 t b a;
#X text 147 230 re-mi;
#X obj 32 641 outlet;
#X msg 7 208 52;
#X msg 324 234 53;
#X msg 190 233 55 59 62 65;
#X msg 152 211 57 60 64 55 59 62 65;
#X msg 39 230 67 57 62 65;
#X obj 107 314 random 4;
#X obj 107 359 fd_iterate;
#X obj 106 382 t b f;
#X obj 106 418 list;
#X obj 106 440 list split;
#X obj 107 336 + 1;
#X obj 155 272 t b a b;
#X obj 135 461 list split 1;
#X connect 0 0 1 0;
#X connect 1 0 3 0;
#X connect 2 0 1 1;
#X connect 3 0 4 0;
#X connect 3 1 10 0;
#X connect 4 0 5 0;
#X connect 5 0 6 0;
#X connect 6 0 12 0;
#X connect 6 1 7 0;
#X connect 7 0 13 0;
#X connect 7 1 16 0;
#X connect 8 0 11 0;
#X connect 9 0 15 0;
#X connect 9 1 16 0;
#X connect 10 0 8 0;
#X connect 11 0 14 0;
#X connect 11 1 9 0;
#X connect 12 0 25 0;
#X connect 13 0 29 0;
#X connect 14 0 28 0;
#X connect 15 0 27 0;
#X connect 16 0 26 0;
#X connect 17 0 24 0;
#X connect 18 0 19 0;
#X connect 19 0 20 1;
#X connect 19 1 18 1;
#X connect 20 0 17 0;
#X connect 22 0 20 0;
#X connect 22 1 36 0;
#X connect 25 0 17 0;
#X connect 26 0 17 0;
#X connect 27 0 22 0;
#X connect 28 0 22 0;
#X connect 29 0 22 0;
#X connect 30 0 35 0;
#X connect 31 0 32 0;
#X connect 32 0 33 0;
#X connect 32 1 34 1;
#X connect 33 0 34 0;
#X connect 34 1 37 0;
#X connect 35 0 31 0;
#X connect 36 0 30 0;
#X connect 36 1 33 1;
#X connect 36 2 18 1;
#X connect 37 0 18 0;
#X restore 221 162 pd chords;
#N canvas 581 32 577 568 drumroll 0;
#X obj 36 10 inlet;
#X obj 42 148 random 100;
#X obj 42 171 fd_gauss 50 5 0.02;
#X obj 40 104 / 10;
#X text 123 86 <-- replace with 'en' value;
#X obj 40 126 t b f;
#X obj 45 437 list prepend -pit;
#X obj 45 503 outlet;
#X obj 77 38 r \$0-en;
#X obj 40 82 f;
#X obj 45 467 list append -trm 32;
#X obj 47 261 * 11;
#X obj 47 283 int;
#X obj 48 360 list split;
#X obj 76 393 list split 1;
#X obj 47 334 list append 52 53 55 59 62 65 57 60 64 67 71;
#X obj 47 305 t b f;
#X obj 42 215 fd_round 0.5 10;
#X connect 0 0 9 0;
#X connect 1 0 2 0;
#X connect 2 0 17 0;
#X connect 3 0 5 0;
#X connect 5 0 1 0;
#X connect 5 1 2 2;
#X connect 6 0 10 0;
#X connect 8 0 9 1;
#X connect 9 0 3 0;
#X connect 10 0 7 0;
#X connect 11 0 12 0;
#X connect 12 0 16 0;
#X connect 13 1 14 0;
#X connect 14 0 6 0;
#X connect 15 0 13 0;
#X connect 16 0 15 0;
#X connect 16 1 13 1;
#X connect 17 0 11 0;
#X restore 128 167 pd drumroll;
#X obj 131 391 list prepend i\$1 input;
#X obj 169 237 _duration;
#X obj 233 311 _dynamic;
#X obj 55 247 _duration;
#X obj 389 109 s \$0-en1;
#X obj 237 192 r \$0-en1;
#X obj 75 201 r \$0-en1;
#X obj 264 267 r \$0-en1;
#X connect 0 0 17 0;
#X connect 1 0 3 0;
#X connect 1 0 18 0;
#X connect 3 0 2 0;
#X connect 6 0 10 0;
#X connect 7 0 9 0;
#X connect 8 1 7 0;
#X connect 9 0 0 0;
#X connect 9 1 13 0;
#X connect 9 2 12 0;
#X connect 10 0 8 0;
#X connect 10 1 8 0;
#X connect 12 0 15 0;
#X connect 13 0 15 0;
#X connect 14 0 5 0;
#X connect 15 0 16 0;
#X connect 16 0 14 0;
#X connect 17 0 14 0;
#X connect 19 0 15 1;
#X connect 20 0 17 1;
#X connect 21 0 16 1;
