#N canvas 927 52 259 335 10;
#X obj 14 14 r score-tick;
#X obj 14 77 unpack f f f f f;
#X obj 14 124 > 0.5;
#X obj 54 124 > 0.5;
#X obj 94 124 > 0.5;
#X obj 134 124 > 0.5;
#X obj 174 124 > 0.5;
#X obj 14 166 change;
#X obj 14 188 sel 1;
#X obj 56 166 change;
#X obj 55 189 sel 1;
#X obj 98 166 change;
#X obj 98 188 sel 1;
#X obj 140 166 change;
#X obj 140 188 sel 1;
#X obj 182 166 change;
#X obj 182 188 sel 1;
#X obj 14 258 change;
#X obj 14 210 f \$3;
#X obj 53 210 f \$4;
#X obj 94 210 f \$5;
#X obj 134 210 f \$6;
#X obj 174 210 f \$7;
#X obj 14 280 s \$2-preset-set;
#X obj 14 53 array get \$1-t;
#X obj 172 75 r \$1-avg;
#X connect 0 0 24 0;
#X connect 1 0 2 0;
#X connect 1 1 3 0;
#X connect 1 2 4 0;
#X connect 1 3 5 0;
#X connect 1 4 6 0;
#X connect 2 0 7 0;
#X connect 3 0 9 0;
#X connect 4 0 11 0;
#X connect 5 0 13 0;
#X connect 6 0 15 0;
#X connect 7 0 8 0;
#X connect 8 0 18 0;
#X connect 9 0 10 0;
#X connect 10 0 19 0;
#X connect 11 0 12 0;
#X connect 12 0 20 0;
#X connect 13 0 14 0;
#X connect 14 0 21 0;
#X connect 15 0 16 0;
#X connect 16 0 22 0;
#X connect 17 0 23 0;
#X connect 18 0 17 0;
#X connect 19 0 17 0;
#X connect 20 0 17 0;
#X connect 21 0 17 0;
#X connect 22 0 17 0;
#X connect 24 0 1 0;
#X connect 25 0 2 1;
#X connect 25 0 3 1;
#X connect 25 0 4 1;
#X connect 25 0 5 1;
#X connect 25 0 6 1;
