#N canvas 559 31 641 499 12;
#X obj 42 64 inlet~;
#X obj 45 154 rfft~;
#X obj 44 118 *~;
#X obj 78 92 r tab-set-fft;
#X obj 46 187 *~;
#X obj 76 186 *~;
#X obj 46 217 sqrt~;
#X obj 60 300 rfft~;
#X obj 67 334 *~;
#X obj 97 333 *~;
#X obj 67 364 sqrt~;
#X obj 432 35 inlet;
#X obj 68 422 tabsend~ cep-\$1;
#X obj 46 242 *~ 0.001;
#X obj 67 389 *~ 0.5;
#X obj 336 379 rifft~;
#X obj 336 404 *~ 0.01;
#X obj 336 347 /~ \$2;
#X obj 341 467 tabsend~ cepstrum;
#X obj 495 147 outlet;
#X text 317 291 receive all cep and take avg;
#X obj 432 60 switch~ \$3;
#X obj 322 227 array define cep-\$1 \$3;
#X obj 336 317 clone _rcv \$2 cep \$3;
#X obj 79 116 tabreceive~ \$4-han;
#X connect 0 0 2 0;
#X connect 1 0 4 0;
#X connect 1 0 4 1;
#X connect 1 1 5 0;
#X connect 1 1 5 1;
#X connect 2 0 1 0;
#X connect 3 0 24 0;
#X connect 4 0 6 0;
#X connect 5 0 6 0;
#X connect 6 0 13 0;
#X connect 7 0 8 0;
#X connect 7 0 8 1;
#X connect 7 1 9 0;
#X connect 7 1 9 1;
#X connect 8 0 10 0;
#X connect 9 0 10 0;
#X connect 10 0 14 0;
#X connect 11 0 19 0;
#X connect 11 0 21 0;
#X connect 13 0 7 0;
#X connect 14 0 12 0;
#X connect 15 0 16 0;
#X connect 16 0 18 0;
#X connect 17 0 15 0;
#X connect 23 0 17 0;
#X connect 24 0 2 1;
