#N canvas 640 129 563 360 12;
#X obj 306 18 inlet;
#X obj 26 178 *~;
#X obj 60 176 *~;
#X obj 117 116 fd_gt;
#X obj 26 209 rifft~;
#X msg 275 113 1e-06;
#X obj 367 176 outlet;
#X obj 26 280 *~;
#X obj 129 252 r set-ifft-tab;
#X obj 26 313 outlet~;
#X obj 22 7 clone _rcv \$2 fftR \$3;
#X obj 67 30 clone _rcv \$2 fftI \$3;
#X obj 118 56 clone _rcv \$2 fft \$3;
#X obj 368 70 switch~ \$4;
#X obj 367 154 del 1 \$4 samp;
#X obj 24 34 /~ \$2;
#X obj 66 54 /~ \$2;
#X obj 118 78 /~ \$2;
#X obj 99 281 tabreceive~ \$5-han;
#X connect 0 0 5 0;
#X connect 0 0 13 0;
#X connect 0 0 14 0;
#X connect 1 0 4 0;
#X connect 2 0 4 1;
#X connect 3 0 2 1;
#X connect 3 0 1 1;
#X connect 4 0 7 0;
#X connect 5 0 3 1;
#X connect 7 0 9 0;
#X connect 8 0 18 0;
#X connect 10 0 15 0;
#X connect 11 0 16 0;
#X connect 12 0 17 0;
#X connect 14 0 6 0;
#X connect 15 0 1 0;
#X connect 16 0 2 0;
#X connect 17 0 3 0;
#X connect 18 0 7 1;
