#N canvas 173 81 909 457 10;
#X declare -path ~/Documents/fd_lib;
#X obj 124 133 sel 0 1 2, f 10;
#N canvas 134 22 354 411 complex-event 0;
#X obj 50 16 inlet;
#X obj 228 356 outlet;
#X obj 48 49 random 3;
#X obj 46 93 sel 0 1 2;
#N canvas 47 40 394 674 chords 0;
#X obj 23 29 inlet;
#X obj 23 51 f;
#X obj 99 14 r \$0-en;
#X obj 23 95 moses 20;
#X obj 23 117 t b;
#X obj 23 139 random 100;
#X obj 23 161 moses 2;
#X obj 63 184 moses 30;
#X obj 23 183 t b;
#X obj 63 206 t b;
#X obj 32 619 list prepend -pit;
#X obj 60 368 fd_iterate 4;
#X obj 138 537 list prepend;
#X obj 138 559 t a a;
#X obj 32 598 list;
#X obj 60 475 fd_scales 0;
#X obj 60 455 * 5;
#X obj 131 444 random 4;
#X obj 75 390 random 300;
#X obj 76 410 / 100;
#X obj 161 495 fd_r 43 45 46 48 53 50;
#X obj 76 432 + 1;
#X obj 60 324 random 3;
#X obj 60 346 + 2;
#X obj 59 298 t b b b b b a;
#X text 134 215 la;
#X msg 39 230 46 53 61;
#X msg 324 235 42;
#X obj 31 273 t b a;
#X msg 190 233 25 27 37 39;
#X text 147 230 re-mi;
#X msg 152 211 21 33 45;
#X msg 7 208 64;
#X obj 32 641 outlet;
#X obj 138 517 + \$5;
#X obj 326 196 t b;
#X obj 220 91 fd_markov3;
#X obj 163 52 / 100;
#X obj 220 113 t f f;
#X obj 247 135 sel 0 1 2;
#X connect 0 0 1 0;
#X connect 1 0 3 0;
#X connect 2 0 1 1;
#X connect 2 0 37 0;
#X connect 3 0 4 0;
#X connect 3 1 36 0;
#X connect 4 0 5 0;
#X connect 5 0 6 0;
#X connect 6 0 8 0;
#X connect 6 1 7 0;
#X connect 7 0 9 0;
#X connect 7 1 35 0;
#X connect 8 0 32 0;
#X connect 9 0 26 0;
#X connect 10 0 33 0;
#X connect 11 0 16 0;
#X connect 12 0 13 0;
#X connect 13 0 14 1;
#X connect 13 1 12 1;
#X connect 14 0 10 0;
#X connect 15 0 34 0;
#X connect 16 0 15 0;
#X connect 17 0 15 1;
#X connect 18 0 19 0;
#X connect 19 0 21 0;
#X connect 20 0 34 1;
#X connect 21 0 16 1;
#X connect 22 0 23 0;
#X connect 23 0 11 0;
#X connect 24 0 22 0;
#X connect 24 1 18 0;
#X connect 24 2 17 0;
#X connect 24 3 20 0;
#X connect 24 4 12 1;
#X connect 24 5 20 1;
#X connect 26 0 28 0;
#X connect 27 0 28 0;
#X connect 28 0 14 0;
#X connect 28 1 24 0;
#X connect 29 0 28 0;
#X connect 31 0 28 0;
#X connect 32 0 28 0;
#X connect 34 0 12 0;
#X connect 35 0 27 0;
#X connect 36 0 38 0;
#X connect 37 0 36 2;
#X connect 38 0 36 1;
#X connect 38 1 39 0;
#X connect 39 0 35 0;
#X connect 39 1 31 0;
#X connect 39 2 29 0;
#X restore 137 171 pd chords;
#X obj 70 347 outlet;
#X obj 57 169 pack \$5 \$4;
#X obj 56 191 -;
#X msg 46 115 0;
#X obj 46 137 t f b;
#X obj 56 213 t b f;
#X obj 56 235 pack \$5 \$4 f;
#X obj 245 89 r \$0-en;
#X obj 44 263 _trino;
#X obj 237 175 _scales \$5 \$4;
#X obj 311 343 outlet;
#X connect 0 0 2 0;
#X connect 2 0 3 0;
#X connect 3 0 8 0;
#X connect 3 1 4 0;
#X connect 3 2 14 0;
#X connect 4 0 15 0;
#X connect 6 0 7 0;
#X connect 7 0 10 0;
#X connect 8 0 9 0;
#X connect 9 0 13 0;
#X connect 9 1 6 0;
#X connect 10 0 11 0;
#X connect 10 1 11 2;
#X connect 11 0 13 1;
#X connect 12 0 14 1;
#X connect 13 0 5 0;
#X connect 13 1 1 0;
#X connect 14 0 5 0;
#X connect 14 1 1 0;
#X restore 225 165 pd complex-event;
#N canvas 191 22 867 700 simple-event 0;
#X obj 189 300 random 100;
#X obj 189 323 fd_gauss 50 5 0.02;
#X obj 312 555 list prepend -pit;
#X obj 189 191 / 10;
#X obj 189 215 t b f f;
#X obj 333 363 / 10;
#X obj 335 386 * 3;
#X obj 189 47 inlet;
#X obj 327 584 outlet;
#X text 136 453 range;
#X text 305 452 maxima;
#X obj 238 107 r \$0-en;
#X obj 189 169 f;
#X obj 232 487 * 40;
#X obj 189 412 t f b;
#X obj 238 451 -;
#X obj 238 429 pack \$5 \$4;
#X obj 311 478 + \$4;
#X obj 335 408 + \$4;
#X obj 311 522 max \$4;
#X obj 311 500 min \$5;
#X obj 188 368 fd_round 0.5 10;
#X connect 0 0 1 0;
#X connect 1 0 21 0;
#X connect 2 0 8 0;
#X connect 3 0 4 0;
#X connect 4 0 0 0;
#X connect 4 1 1 2;
#X connect 4 2 5 0;
#X connect 5 0 6 0;
#X connect 6 0 18 0;
#X connect 7 0 12 0;
#X connect 11 0 12 1;
#X connect 12 0 3 0;
#X connect 13 0 17 0;
#X connect 14 0 13 0;
#X connect 14 1 16 0;
#X connect 15 0 13 1;
#X connect 16 0 15 0;
#X connect 17 0 20 0;
#X connect 18 0 17 1;
#X connect 19 0 2 0;
#X connect 20 0 19 0;
#X connect 21 0 14 0;
#X restore 112 164 pd simple-event;
#N canvas 0 22 450 300 silence 0;
#X obj 33 123 list append -1;
#X obj 33 145 list prepend -pit;
#X obj 36 72 inlet;
#X obj 33 167 outlet;
#X connect 0 0 1 0;
#X connect 1 0 3 0;
#X connect 2 0 0 0;
#X restore 30 165 pd silence;
#X obj 792 45 inlet;
#X obj 792 91 s \$0-en;
#X obj 792 67 * 100;
#X obj 16 7 declare -path ~/Documents/fd_lib;
#X obj 458 130 sel 0 1 2, f 10;
#N canvas 90 22 354 411 complex-event 0;
#X obj 50 16 inlet;
#X obj 219 369 outlet;
#X obj 48 49 random 3;
#X obj 46 93 sel 0 1 2;
#N canvas 458 28 394 674 chords 0;
#X obj 23 29 inlet;
#X obj 23 51 f;
#X obj 99 14 r \$0-en;
#X obj 23 95 moses 20;
#X obj 23 117 t b;
#X obj 23 139 random 100;
#X obj 23 161 moses 2;
#X obj 63 184 moses 30;
#X obj 23 183 t b;
#X obj 63 206 t b;
#X obj 326 196 t b;
#X obj 32 619 list prepend -pit;
#X obj 60 368 fd_iterate 4;
#X obj 138 537 list prepend;
#X obj 138 559 t a a;
#X obj 32 598 list;
#X obj 60 475 fd_scales 0;
#X obj 60 455 * 5;
#X obj 131 444 random 4;
#X obj 75 390 random 300;
#X obj 76 410 / 100;
#X obj 161 495 fd_r 43 45 46 48 53 50;
#X obj 76 432 + 1;
#X obj 60 324 random 3;
#X obj 60 346 + 2;
#X obj 59 298 t b b b b b a;
#X text 134 215 la;
#X obj 31 273 t b a;
#X text 147 230 re-mi;
#X obj 32 641 outlet;
#X msg 7 208 42;
#X msg 152 211 69 81 93;
#X msg 190 233 98 100 88 86;
#X msg 324 235 67;
#X msg 39 230 78 68 88;
#X obj 220 91 fd_markov3;
#X obj 220 113 t f f;
#X obj 247 135 sel 0 1 2;
#X obj 138 517 + \$5;
#X connect 0 0 1 0;
#X connect 1 0 3 0;
#X connect 2 0 1 1;
#X connect 2 0 35 2;
#X connect 3 0 4 0;
#X connect 3 1 35 0;
#X connect 4 0 5 0;
#X connect 5 0 6 0;
#X connect 6 0 8 0;
#X connect 6 1 7 0;
#X connect 7 0 9 0;
#X connect 7 1 10 0;
#X connect 8 0 30 0;
#X connect 9 0 34 0;
#X connect 10 0 33 0;
#X connect 11 0 29 0;
#X connect 12 0 17 0;
#X connect 13 0 14 0;
#X connect 14 0 15 1;
#X connect 14 1 13 1;
#X connect 15 0 11 0;
#X connect 16 0 38 0;
#X connect 17 0 16 0;
#X connect 18 0 16 1;
#X connect 19 0 20 0;
#X connect 20 0 22 0;
#X connect 21 0 38 1;
#X connect 22 0 17 1;
#X connect 23 0 24 0;
#X connect 24 0 12 0;
#X connect 25 0 23 0;
#X connect 25 1 19 0;
#X connect 25 2 18 0;
#X connect 25 3 21 0;
#X connect 25 4 13 1;
#X connect 25 5 21 1;
#X connect 27 0 15 0;
#X connect 27 1 25 0;
#X connect 30 0 27 0;
#X connect 31 0 27 0;
#X connect 32 0 27 0;
#X connect 33 0 27 0;
#X connect 34 0 27 0;
#X connect 35 0 36 0;
#X connect 36 0 35 1;
#X connect 36 1 37 0;
#X connect 37 0 10 0;
#X connect 37 1 31 0;
#X connect 37 2 32 0;
#X connect 38 0 13 0;
#X restore 137 171 pd chords;
#X obj 61 377 outlet;
#X obj 56 191 -;
#X msg 46 115 0;
#X obj 46 137 t f b;
#X obj 56 213 t b f;
#X obj 57 169 pack \$3 \$5;
#X obj 56 235 pack \$3 \$5 f;
#X obj 267 110 r \$0-en;
#X obj 44 263 _trino;
#X obj 238 175 _scales \$3 \$5;
#X obj 299 365 outlet;
#X connect 0 0 2 0;
#X connect 2 0 3 0;
#X connect 3 0 7 0;
#X connect 3 1 4 0;
#X connect 3 2 14 0;
#X connect 4 0 15 0;
#X connect 6 0 9 0;
#X connect 7 0 8 0;
#X connect 8 0 13 0;
#X connect 8 1 10 0;
#X connect 9 0 11 0;
#X connect 9 1 11 2;
#X connect 10 0 6 0;
#X connect 11 0 13 1;
#X connect 12 0 14 1;
#X connect 13 0 5 0;
#X connect 13 1 1 0;
#X connect 14 0 5 0;
#X connect 14 1 1 0;
#X restore 559 162 pd complex-event;
#N canvas 191 22 867 700 simple-event 0;
#X obj 189 300 random 100;
#X obj 189 323 fd_gauss 50 5 0.02;
#X obj 312 555 list prepend -pit;
#X obj 189 191 / 10;
#X obj 189 215 t b f f;
#X obj 333 363 / 10;
#X obj 335 386 * 3;
#X obj 189 47 inlet;
#X obj 327 584 outlet;
#X text 136 453 range;
#X text 305 452 maxima;
#X obj 238 107 r \$0-en;
#X obj 189 169 f;
#X obj 232 449 * 50;
#X obj 189 412 t f b;
#X obj 237 397 pack \$3 \$5;
#X obj 237 419 -;
#X obj 311 478 + \$5;
#X obj 335 408 + \$5;
#X obj 311 522 max \$5;
#X obj 311 500 min \$3;
#X obj 189 368 fd_round 0.5 10;
#X connect 0 0 1 0;
#X connect 1 0 21 0;
#X connect 2 0 8 0;
#X connect 3 0 4 0;
#X connect 4 0 0 0;
#X connect 4 1 1 2;
#X connect 4 2 5 0;
#X connect 5 0 6 0;
#X connect 6 0 18 0;
#X connect 7 0 12 0;
#X connect 11 0 12 1;
#X connect 12 0 3 0;
#X connect 13 0 17 0;
#X connect 14 0 13 0;
#X connect 14 1 15 0;
#X connect 15 0 16 0;
#X connect 16 0 13 1;
#X connect 17 0 20 0;
#X connect 18 0 17 1;
#X connect 19 0 2 0;
#X connect 20 0 19 0;
#X connect 21 0 14 0;
#X restore 446 161 pd simple-event;
#N canvas 0 22 450 300 silence 0;
#X obj 33 123 list append -1;
#X obj 33 145 list prepend -pit;
#X obj 36 72 inlet;
#X obj 33 167 outlet;
#X connect 0 0 1 0;
#X connect 1 0 3 0;
#X connect 2 0 0 0;
#X restore 364 162 pd silence;
#X obj 133 429 outlet;
#X obj 453 422 outlet;
#X obj 119 31 inlet;
#X obj 136 103 fd_listout;
#X obj 101 80 list split 1;
#X obj 456 25 inlet;
#X obj 473 97 fd_listout;
#X obj 438 74 list split 1;
#X obj 119 53 route \$1 7;
#X obj 456 47 route \$2 7;
#X text 231 5 ARGUMENTS: iID1 iID2 min max Splitpoint;
#X obj 131 391 list prepend i\$1 input;
#X obj 236 240 list prepend -dur 1;
#X obj 169 237 _duration;
#X obj 186 316 _dynamic;
#X obj 55 247 _duration;
#X obj 237 192 r \$0-en1;
#X obj 75 201 r \$0-en1;
#X obj 220 290 r \$0-en1;
#X obj 557 236 list prepend -dur 1;
#X obj 490 233 _duration;
#X obj 554 307 _dynamic;
#X obj 376 243 _duration;
#X obj 732 121 s \$0-en1;
#X obj 558 188 r \$0-en1;
#X obj 396 197 r \$0-en1;
#X obj 585 263 r \$0-en1;
#X obj 452 387 list prepend i\$2 input;
#X msg 299 215 -pit -1;
#X obj 318 190 t b a;
#X obj 245 318 list prepend -dur 1;
#X msg 689 214 -pit -1;
#X obj 708 189 t b a;
#X obj 635 317 list prepend -dur 1;
#X text 554 417 avoid durations or dynamics on chords;
#X text 598 432 ottaver.ly does not accept ties or dynamics;
#X text 638 404 note:;
#X connect 0 0 3 0;
#X connect 0 1 2 0;
#X connect 0 2 1 0;
#X connect 1 0 25 0;
#X connect 1 1 24 0;
#X connect 1 2 41 0;
#X connect 2 0 25 0;
#X connect 3 0 27 0;
#X connect 4 0 6 0;
#X connect 4 0 35 0;
#X connect 6 0 5 0;
#X connect 8 0 11 0;
#X connect 8 1 10 0;
#X connect 8 2 9 0;
#X connect 9 0 32 0;
#X connect 9 1 31 0;
#X connect 9 2 44 0;
#X connect 10 0 32 0;
#X connect 11 0 34 0;
#X connect 14 0 20 0;
#X connect 15 0 0 0;
#X connect 16 1 15 0;
#X connect 17 0 21 0;
#X connect 18 0 8 0;
#X connect 19 1 18 0;
#X connect 20 0 16 0;
#X connect 20 1 16 0;
#X connect 21 0 19 0;
#X connect 21 1 19 0;
#X connect 23 0 12 0;
#X connect 24 0 26 0;
#X connect 25 0 26 0;
#X connect 26 0 23 0;
#X connect 27 0 23 0;
#X connect 28 0 25 1;
#X connect 29 0 27 1;
#X connect 30 0 26 1;
#X connect 31 0 33 0;
#X connect 32 0 33 0;
#X connect 33 0 39 0;
#X connect 34 0 39 0;
#X connect 36 0 32 1;
#X connect 37 0 34 1;
#X connect 38 0 33 1;
#X connect 39 0 13 0;
#X connect 40 0 24 0;
#X connect 41 0 40 0;
#X connect 41 1 42 0;
#X connect 42 0 23 0;
#X connect 43 0 31 0;
#X connect 44 0 43 0;
#X connect 44 1 45 0;
#X connect 45 0 39 0;
