#N canvas 216 277 269 409 10;
#X obj 24 15 inlet;
#X obj 23 112 osc~;
#X obj 36 170 *~;
#X obj 77 128 pack f 10;
#X obj 77 150 line~;
#X obj 28 296 outlet~;
#X floatatom 81 65 5 0 0 0 - - -, f 5;
#X floatatom 31 71 5 0 0 0 - - -, f 5;
#X obj 24 37 unpack;
#X connect 0 0 8 0;
#X connect 1 0 2 0;
#X connect 2 0 5 0;
#X connect 3 0 4 0;
#X connect 4 0 2 1;
#X connect 8 0 1 0;
#X connect 8 0 7 0;
#X connect 8 1 3 0;
#X connect 8 1 6 0;
