#N canvas 0 22 314 271 10;
#X msg 45 196 justify left base;
#X obj 44 114 loadbang;
#X obj 77 224 r t-size;
#X obj 30 224 text3d;
#X msg 99 147 0;
#X obj 234 89 r \$2;
#X obj 98 174 list prepend \$2:;
#X obj 30 46 inlet;
#X obj 30 83 translateXYZ -3.88 \$1 0;
#X floatatom 168 234 5 0 0 0 - - -, f 5;
#X obj 132 27 inlet;
#X obj 132 49 unpack;
#X connect 0 0 3 0;
#X connect 1 0 4 0;
#X connect 1 0 0 0;
#X connect 2 0 3 1;
#X connect 4 0 6 0;
#X connect 5 0 6 0;
#X connect 6 0 3 0;
#X connect 7 0 8 0;
#X connect 8 0 3 0;
#X connect 9 0 3 1;
#X connect 10 0 11 0;
#X connect 11 0 8 1;
#X connect 11 1 8 2;
