#N canvas 85 128 419 394 12;
#X obj 27 2 inlet;
#X obj 27 53 unpack;
#X msg 27 79 0 \, 1 \$1;
#X obj 27 132 *~ 1021;
#X obj 27 157 +~ 1;
#X obj 46 211 sig~ 200;
#X obj 27 243 vcf~ 6;
#X obj 27 268 *~;
#X obj 27 293 *~;
#X obj 224 254 pack f 10;
#X obj 224 279 line~;
#X obj 27 318 outlet~;
#X obj 27 104 line~;
#X obj 166 22 line;
#X obj 166 47 t f f;
#X obj 210 72 == 1;
#X obj 166 72 == 0;
#X obj 27 27 spigot 1;
#X obj 27 182 tabread4~ \$2-han;
#X obj 166 97 ||;
#X obj 288 6 inlet~;
#X obj 225 151 r tab-set-gr;
#X connect 0 0 17 0;
#X connect 1 0 2 0;
#X connect 1 1 9 0;
#X connect 2 0 12 0;
#X connect 2 0 13 0;
#X connect 3 0 4 0;
#X connect 4 0 18 0;
#X connect 5 0 6 1;
#X connect 6 0 7 0;
#X connect 7 0 8 0;
#X connect 8 0 11 0;
#X connect 9 0 10 0;
#X connect 10 0 8 1;
#X connect 12 0 3 0;
#X connect 13 0 14 0;
#X connect 14 0 16 0;
#X connect 14 1 15 0;
#X connect 15 0 19 1;
#X connect 16 0 19 0;
#X connect 17 0 1 0;
#X connect 18 0 6 0;
#X connect 19 0 17 1;
#X connect 20 0 7 1;
#X connect 21 0 18 0;
