#N canvas 0 22 450 300 12;
#X obj 81 171 outlet~;
#X obj 103 75 tabreceive~ \$2-\$1;
#X obj 328 41 block~ \$3;
#X obj 35 64 sig~ 1;
#X obj 103 100 log~;
#X obj 70 135 /~;
#X connect 1 0 4 0;
#X connect 3 0 5 0;
#X connect 4 0 5 1;
#X connect 5 0 0 0;
