#N canvas 529 23 403 442 10;
#X obj 35 117 line~;
#X obj 167 17 r g-go-\$1;
#X obj 167 60 t b b;
#X msg 171 89 0;
#X msg 205 87 1;
#X obj 171 156 line~;
#X obj 171 200 +~ 1;
#X obj 133 267 *~;
#X obj 240 159 r g-window-\$1;
#X msg 240 203 set \$1;
#X symbolatom 240 184 10 0 0 0 - - -, f 10;
#X obj 132 397 outlet~;
#X obj 35 18 inlet;
#X obj 35 162 tabosc4~ 1-wavit;
#X obj 171 230 tabread4~ hann;
#X obj 171 178 *~ 2046;
#X obj 340 12 inlet;
#X obj 340 34 switch~;
#X obj 205 130 pack f 100;
#X floatatom 352 71 5 0 0 0 - - -, f 5;
#X obj 133 338 vcf~ 50 1;
#X obj 202 278 +~ 40;
#X obj 35 70 unpack;
#X obj 35 92 pack f 10;
#X obj 87 68 max 5;
#X obj 87 27 / 2;
#X obj 87 49 int;
#X obj 262 58 r g-length;
#X obj 262 100 max 10;
#X obj 35 283 *~;
#X obj 56 193 sig~ 1;
#X obj 56 215 /~;
#X obj 56 258 osc~;
#X obj 56 237 *~ 5;
#X obj 36 334 loadbang;
#X obj 36 356 random 5000;
#X obj 36 378 - 2500;
#X obj 36 400 / 1000;
#X obj 53 139 r z-violin-wavit;
#X connect 0 0 13 0;
#X connect 0 0 21 0;
#X connect 0 0 31 1;
#X connect 1 0 2 0;
#X connect 2 0 4 0;
#X connect 2 1 3 0;
#X connect 3 0 5 0;
#X connect 4 0 18 0;
#X connect 5 0 15 0;
#X connect 6 0 14 0;
#X connect 7 0 20 0;
#X connect 8 0 10 0;
#X connect 9 0 14 0;
#X connect 10 0 9 0;
#X connect 12 0 22 0;
#X connect 13 0 29 0;
#X connect 14 0 7 1;
#X connect 15 0 6 0;
#X connect 16 0 17 0;
#X connect 16 0 19 0;
#X connect 18 0 5 0;
#X connect 20 0 11 0;
#X connect 21 0 20 1;
#X connect 22 0 23 0;
#X connect 23 0 0 0;
#X connect 24 0 23 1;
#X connect 25 0 26 0;
#X connect 26 0 24 0;
#X connect 27 0 28 0;
#X connect 28 0 25 0;
#X connect 28 0 18 1;
#X connect 29 0 7 0;
#X connect 30 0 31 0;
#X connect 31 0 33 0;
#X connect 32 0 29 1;
#X connect 33 0 32 0;
#X connect 34 0 35 0;
#X connect 35 0 36 0;
#X connect 36 0 37 0;
#X connect 37 0 32 1;
#X connect 38 0 13 0;
