#N canvas 651 34 368 663 12;
#X obj 134 610 outlet~;
#X obj 26 12 inlet;
#X obj 155 265 +~ 1;
#X obj 155 239 *~ 2045;
#X obj 184 7 inlet;
#X obj 134 577 *~;
#X obj 26 88 unpack;
#X obj 25 451 cos~;
#X obj 25 426 phasor~;
#X obj 134 543 *~;
#X obj 240 504 pack f 10;
#X obj 240 529 line~;
#X obj 155 216 line~;
#X obj 155 108 t b f, f 6;
#X obj 155 137 f 40;
#X msg 155 170 0 \, 1 \$1;
#X obj 26 113 t b f;
#X obj 26 138 pack \$1;
#X obj 26 163 + 1;
#X obj 26 213 *;
#X obj 25 401 +~;
#X obj 46 346 osc~ 130;
#X obj 46 375 *~;
#X obj 67 295 pack f 10;
#X obj 67 320 line~;
#X obj 25 239 vline~;
#X obj 155 291 tabread4~ \$2-exp;
#X obj 195 265 r tabswitch;
#X obj 82 450 inlet~;
#X obj 156 368 bp~ 100 3;
#X obj 75 188 * 1.7;
#X connect 1 0 6 0;
#X connect 2 0 26 0;
#X connect 3 0 2 0;
#X connect 4 0 14 1;
#X connect 5 0 0 0;
#X connect 6 0 16 0;
#X connect 6 1 13 0;
#X connect 7 0 9 0;
#X connect 8 0 7 0;
#X connect 9 0 5 0;
#X connect 10 0 11 0;
#X connect 11 0 5 1;
#X connect 12 0 3 0;
#X connect 13 0 14 0;
#X connect 13 1 10 0;
#X connect 14 0 15 0;
#X connect 14 0 23 0;
#X connect 15 0 12 0;
#X connect 16 0 17 0;
#X connect 16 1 19 1;
#X connect 16 1 30 0;
#X connect 17 0 18 0;
#X connect 18 0 19 0;
#X connect 19 0 25 0;
#X connect 20 0 8 0;
#X connect 21 0 22 0;
#X connect 22 0 20 1;
#X connect 23 0 24 0;
#X connect 24 0 22 1;
#X connect 25 0 20 0;
#X connect 26 0 29 0;
#X connect 27 0 26 0;
#X connect 28 0 9 0;
#X connect 29 0 9 1;
#X connect 30 0 21 0;
