#N canvas 400 43 735 497 12;
#X obj 669 25 inlet;
#X obj 69 126 int;
#X obj 66 154 change;
#X obj 84 35 fd_spigot;
#X text 189 99 open gate when done;
#X obj 366 24 inlet~;
#X obj 575 106 f \$1;
#X obj 416 24 inlet~;
#X obj 466 24 inlet~;
#X obj 516 24 inlet~;
#X obj 125 110 t b b;
#X obj 226 66 del 1 1 samp, f 11;
#X obj 177 340 array define \$1-sample;
#X obj 65 284 array size \$1-sample;
#X obj 67 180 t f f f;
#X obj 85 67 sel -1;
#X msg 260 239 normalize 1;
#X obj 577 70 loadbang;
#X obj 62 94 bng 15 250 50 0 empty empty empty 17 7 0 10 -262144 -1
-1;
#X obj 130 235 switch~;
#X msg 113 209 set \$1;
#X obj 366 76 *~ 1;
#X obj 416 76 *~ 1;
#X obj 466 76 *~ 1;
#X obj 516 76 *~ 1;
#X msg 368 106 0;
#X msg 423 119 0;
#X msg 471 116 0;
#X msg 522 111 0;
#X obj 575 131 sel 1 2 3 4;
#X obj 367 155 tabsend~ \$1-sample;
#X connect 0 0 3 0;
#X connect 1 0 2 0;
#X connect 2 0 14 0;
#X connect 3 0 15 0;
#X connect 5 0 21 0;
#X connect 6 0 29 0;
#X connect 7 0 22 0;
#X connect 8 0 23 0;
#X connect 9 0 24 0;
#X connect 10 0 11 0;
#X connect 10 0 19 0;
#X connect 10 1 6 0;
#X connect 11 0 3 1;
#X connect 11 0 16 0;
#X connect 14 0 13 0;
#X connect 14 1 20 0;
#X connect 14 2 11 1;
#X connect 15 0 10 0;
#X connect 15 0 18 0;
#X connect 15 1 1 0;
#X connect 16 0 12 0;
#X connect 17 0 6 0;
#X connect 20 0 19 0;
#X connect 21 0 30 0;
#X connect 22 0 30 0;
#X connect 23 0 30 0;
#X connect 24 0 30 0;
#X connect 25 0 22 1;
#X connect 25 0 23 1;
#X connect 25 0 24 1;
#X connect 26 0 21 1;
#X connect 26 0 23 1;
#X connect 26 0 24 1;
#X connect 27 0 21 1;
#X connect 27 0 22 1;
#X connect 27 0 24 1;
#X connect 28 0 21 1;
#X connect 28 0 22 1;
#X connect 28 0 23 1;
#X connect 29 0 25 0;
#X connect 29 1 26 0;
#X connect 29 2 27 0;
#X connect 29 3 28 0;
