#N canvas 0 22 335 366 10;
#X obj 90 35 * 100;
#X obj 42 133 * 100;
#X obj 152 125 / 50;
#X obj 152 147 * 100;
#X obj 42 155 moses 30;
#X obj 86 184 moses 60;
#X obj 42 177 bang;
#X msg 42 199 5;
#X obj 90 209 bang;
#X obj 126 210 bang;
#X msg 90 231 6;
#X msg 126 232 7;
#X obj 165 168 moses 30;
#X obj 209 197 moses 60;
#X obj 165 190 bang;
#X obj 213 222 bang;
#X obj 249 223 bang;
#X msg 165 212 9;
#X msg 213 244 10;
#X msg 249 245 11;
#X obj 90 57 moses 40;
#X obj 42 111 / 40;
#X obj 137 103 - 40;
#X obj 140 81 moses 90;
#X obj 224 94 bang;
#X msg 224 116 20;
#X obj 91 13 inlet;
#X obj 118 271 outlet;
#X connect 0 0 20 0;
#X connect 1 0 4 0;
#X connect 2 0 3 0;
#X connect 3 0 12 0;
#X connect 4 0 6 0;
#X connect 4 1 5 0;
#X connect 5 0 8 0;
#X connect 5 1 9 0;
#X connect 6 0 7 0;
#X connect 7 0 27 0;
#X connect 8 0 10 0;
#X connect 9 0 11 0;
#X connect 10 0 27 0;
#X connect 11 0 27 0;
#X connect 12 0 14 0;
#X connect 12 1 13 0;
#X connect 13 0 15 0;
#X connect 13 1 16 0;
#X connect 14 0 17 0;
#X connect 15 0 18 0;
#X connect 16 0 19 0;
#X connect 17 0 27 0;
#X connect 18 0 27 0;
#X connect 19 0 27 0;
#X connect 20 0 21 0;
#X connect 20 1 23 0;
#X connect 21 0 1 0;
#X connect 22 0 2 0;
#X connect 23 0 22 0;
#X connect 23 1 24 0;
#X connect 24 0 25 0;
#X connect 25 0 27 0;
#X connect 26 0 0 0;
